<svg xmlns="http://www.w3.org/2000/svg" width="400.376" height="303.957" viewBox="0 0 400.376 303.957">
  <g id="Grupo_906768" data-name="Grupo 906768" transform="translate(-1020 -584.043)">
    <g id="Grupo_898286" data-name="Grupo 898286" transform="translate(-462.932 207.128)">
      <path id="Trazado_625242" data-name="Trazado 625242" d="M2218.7,562.066l4.845-.546a1.08,1.08,0,0,1,1.017.487q.421.653.9,1.28a18.1,18.1,0,0,0,1.919,2.142,1.066,1.066,0,0,1,.262,1.173l-1.858,4.745a1.047,1.047,0,0,0,.515,1.328l4.175,2.068a1.035,1.035,0,0,0,1.327-.368l2.524-3.955a1.039,1.039,0,0,1,1.163-.45,18.843,18.843,0,0,0,5.91.588,1.073,1.073,0,0,1,1.074.745l.855,2.723a1.084,1.084,0,0,0,1.232.731l4.534-.917a.935.935,0,0,0,.261-.087,1.04,1.04,0,0,0,.581-1.062l-.4-3.62-.1-.882a18.63,18.63,0,0,0,2.2-1.452,18.917,18.917,0,0,0,2.58-2.388,1.04,1.04,0,0,1,1.16-.28l3.821,1.5a1.077,1.077,0,0,0,1.359-.527l1.581-3.191.451-.916a1.091,1.091,0,0,0-.388-1.406l-3.3-2.112a1.038,1.038,0,0,1-.466-1.131,18.682,18.682,0,0,0,.5-3.967,3.241,3.241,0,0,0,.01-.336.58.58,0,0,1,.008-.113,1.063,1.063,0,0,1,.75-.911l4.419-1.4a.773.773,0,0,0,.144-.057,1.082,1.082,0,0,0,.583-1.172l-.907-4.521a1.076,1.076,0,0,0-1.174-.856l-5.053.571a1.041,1.041,0,0,1-1.044-.547,19.041,19.041,0,0,0-1.582-2.421q-.476-.621-.994-1.189a1.1,1.1,0,0,1-.207-1.135l1.784-4.561a1.046,1.046,0,0,0-.51-1.319l-4.133-2.039a1.093,1.093,0,0,0-1.41.391l-2,3.129a1.074,1.074,0,0,1-1.25.443,18.8,18.8,0,0,0-5.7-1.024,1.066,1.066,0,0,1-1-.751l-1.259-3.983a1.1,1.1,0,0,0-1.264-.747l-4.505.9a1.055,1.055,0,0,0-.843,1.156l.021.212.471,4.205a1.08,1.08,0,0,1-.583,1.085l0,0a18.719,18.719,0,0,0-2.795,1.776c-.477.366-.926.751-1.362,1.152a1.058,1.058,0,0,1-1.114.218l-3.879-1.524a1.094,1.094,0,0,0-1.383.531l-2.033,4.115a1.18,1.18,0,0,0-.1.362,1.091,1.091,0,0,0,.488,1.021l2.644,1.68a1.089,1.089,0,0,1,.493.949,1.145,1.145,0,0,1-.054.3,18.729,18.729,0,0,0-.952,7.342,1.053,1.053,0,0,1-.565,1.011,1.117,1.117,0,0,1-.168.069l-3.579,1.13a1.071,1.071,0,0,0-.727,1.228l.02.105.88,4.407A1.091,1.091,0,0,0,2218.7,562.066Zm31-13.759a12.572,12.572,0,0,1,.657,2.238,9.846,9.846,0,0,1-.7,5.319c-.073.15-.149.3-.225.441-4.741,8.8-17.169,7.051-19.215-2.879a10.2,10.2,0,0,1,.364-4.638,6.656,6.656,0,0,1,.371-.915,11.581,11.581,0,0,1,2.313-3.183A10.1,10.1,0,0,1,2249.7,548.307Z" transform="translate(-542.207 -74.812)" fill="#feca2e"/>
      <path id="Trazado_625243" data-name="Trazado 625243" d="M2760.016,595.908c-4.652-9.375-20.757-2.957-20.757-2.957s-7.909,19.6-11.13,20.664,3.49-18.073,3.49-18.073c-6.521.652-21.271,11.736-21.271,11.736s5.051,20.024,1.666,20.268-3.568-17.959-3.568-17.959c-5.824,3.088-10.168,11.461-10.168,11.461-4.888,13.2,12.317,18.8,12.317,18.8a33.577,33.577,0,0,1-1.135,15.889h0a24.356,24.356,0,0,0-1.176,4.4l1.688-.336q.073-.72.2-1.4a.01.01,0,0,1,0-.008l0-.02c.063-.284.156-.688.274-1.181v0s0,0,0,0c.315-1.112.515-1.927.629-2.51a.042.042,0,0,0,0-.005c.916-3.476,2.322-8.049,3.635-9.21a3.348,3.348,0,0,1-.516-.7l.516.7c4.12,5.619,18.775,3.78,26.5.53s3.762-4.824-1.3-7.648-13.956-.048-16.927-.96.665-3.136,6.114-3.789,9.2,4.18,18.033,3.284,12.2-18.516,12.2-18.516c-5.617,3.047-17.007,1.877-17.83-.106s15.112-4.933,17.466-6.045S2764.668,605.283,2760.016,595.908Z" transform="translate(-929.676 -125.625)" fill="#636363"/>
      <path id="Trazado_625244" data-name="Trazado 625244" d="M1650.611,902.477c-1.894-10.293,14.846-14.805,14.846-14.805s18.073,10.949,21.292,9.875-13.624-12.378-13.624-12.378c5.613-3.386,24.062-3.35,24.062-3.35s7.955,19.058,10.81,17.225-7.9-16.515-7.9-16.515c6.513-1.017,15.008,3.083,15.008,3.083,11.823,7.64,1.4,22.428,1.4,22.428a33.578,33.578,0,0,0,10.43,12.04h0a24.353,24.353,0,0,1,3.58,2.822l-1.552.743q-.489-.534-1-1a.011.011,0,0,0-.006-.006l-.015-.013c-.221-.189-.537-.457-.927-.782h0l0,0c-.919-.7-1.568-1.234-2.007-1.632l0,0c-2.817-2.234-6.682-5.052-8.429-5.2a3.33,3.33,0,0,0-.009-.871c0,.278.006.567.009.871.068,6.967-12.766,14.276-20.9,16.3s-5.9-1.608-3.538-6.905,11.145-8.4,12.977-10.911-2.411-2.112-7.165.629-4.859,8.859-12.469,13.434-20.862-7.514-20.862-7.514c6.323-.926,14.741-8.688,14.212-10.768s-15.055,5.106-17.606,5.627S1652.5,912.77,1650.611,902.477Z" transform="translate(-85.999 -360.136)" fill="#636363"/>
      <path id="Trazado_625245" data-name="Trazado 625245" d="M2766.446,1098.029c8.237-6.457-1.313-20.925-1.313-20.925s-20.792-3.77-22.492-6.708,18.406-.247,18.406-.247c-1.961-6.255-15.806-18.45-15.806-18.45s-18.584,9.007-19.509,5.742,16.862-7.136,16.862-7.136c-4.2-5.076-13.285-7.633-13.285-7.633-13.918-2.109-15.907,15.873-15.907,15.873a33.578,33.578,0,0,1-15.789,2.111h0a24.353,24.353,0,0,0-4.552-.258l.671,1.585c.48-.05.951-.082,1.413-.091a.01.01,0,0,1,.008,0h.02c.291.005.706.014,1.213.028h0c1.153.083,1.992.114,2.585.107h.005c3.59.192,8.352.642,9.756,1.692a3.338,3.338,0,0,1,.584-.647l-.584.647c-4.666,5.174.106,19.151,4.855,26.054s5.487,2.706,7.225-2.829-2.783-13.676-2.493-16.77,3.206.014,4.95,5.218-2.228,9.855.441,18.324,20.606,8.191,20.606,8.191c-4.123-4.882-5.286-16.273-3.512-17.481s7.9,13.8,9.461,15.878S2758.209,1104.486,2766.446,1098.029Z" transform="translate(-926.176 -489.622)" fill="#636363"/>
      <g id="Grupo_898236" data-name="Grupo 898236" transform="translate(1764.677 455.003)">
        <path id="Trazado_625246" data-name="Trazado 625246" d="M2685.876,570.609s.966-19.285,9.981-31.375a2.144,2.144,0,0,1,3.853,1.189q0,.05,0,.1C2699.823,543.946,2689.84,559.095,2685.876,570.609Z" transform="translate(-2685.063 -538.377)" fill="#e9e9e9" opacity="0.5"/>
        <path id="Trazado_625247" data-name="Trazado 625247" d="M2681.684,580.463s8.12-24.581,24.073-36.3a2.275,2.275,0,0,1,3.117.37,3.609,3.609,0,0,1,.368,3.223C2708.2,552.05,2690.573,567.486,2681.684,580.463Z" transform="translate(-2681.684 -542.673)" fill="#e9e9e9" opacity="0.5"/>
      </g>
      <g id="Grupo_898237" data-name="Grupo 898237" transform="translate(1595.117 498.617)">
        <path id="Trazado_625248" data-name="Trazado 625248" d="M1878.675,782.959s-8.092-14.115-19.481-19.751a1.807,1.807,0,0,0-2.439,2.365l.036.078C1858.016,768.261,1871.3,775.825,1878.675,782.959Z" transform="translate(-1847.224 -763.016)" fill="#e9e9e9" opacity="0.5"/>
        <path id="Trazado_625249" data-name="Trazado 625249" d="M1842.535,810.529s-15.488-15.359-31.947-18.069a1.917,1.917,0,0,0-2.2,1.468,3.042,3.042,0,0,0,.955,2.561C1811.765,799.319,1830.9,804.178,1842.535,810.529Z" transform="translate(-1808.349 -786.722)" fill="#e9e9e9" opacity="0.5"/>
      </g>
      <path id="Trazado_625250" data-name="Trazado 625250" d="M2128.8,692.481V814.919a3.686,3.686,0,0,1-3.453,3.88H1948.69a3.686,3.686,0,0,1-3.453-3.88V692.481a3.684,3.684,0,0,1,3.453-3.88h176.652A3.684,3.684,0,0,1,2128.8,692.481Z" transform="translate(-323.543 -204.432)" fill="#b8c0c7"/>
      <g id="Grupo_898239" data-name="Grupo 898239" transform="translate(1599.376 477.35)">
        <path id="Trazado_625251" data-name="Trazado 625251" d="M2027.43,657.188v9.929H1830.286v-9.929a3.708,3.708,0,0,1,3.708-3.708h189.727A3.708,3.708,0,0,1,2027.43,657.188Z" transform="translate(-1830.286 -653.48)" fill="#0b5999"/>
        <g id="Grupo_898238" data-name="Grupo 898238" transform="translate(6.031 5.092)">
          <path id="Trazado_625252" data-name="Trazado 625252" d="M1861.348,681.435a1.726,1.726,0,1,1,1.726,1.726A1.726,1.726,0,0,1,1861.348,681.435Z" transform="translate(-1861.348 -679.708)" fill="#0b5999"/>
          <path id="Trazado_625253" data-name="Trazado 625253" d="M1896.388,681.435a1.726,1.726,0,1,1,1.726,1.726A1.726,1.726,0,0,1,1896.388,681.435Z" transform="translate(-1889.585 -679.708)" fill="#0b5999"/>
          <path id="Trazado_625254" data-name="Trazado 625254" d="M1932.312,681.435a1.727,1.727,0,1,1,1.726,1.726A1.727,1.727,0,0,1,1932.312,681.435Z" transform="translate(-1918.534 -679.708)" fill="#0b5999"/>
        </g>
      </g>
      <path id="Trazado_625255" data-name="Trazado 625255" d="M2483.845,529.031l2.36-.266a.526.526,0,0,1,.5.237q.205.318.439.623a8.917,8.917,0,0,0,.935,1.043.519.519,0,0,1,.128.571l-.905,2.311a.51.51,0,0,0,.251.647l2.033,1.007a.5.5,0,0,0,.646-.179l1.229-1.926a.507.507,0,0,1,.567-.219,9.179,9.179,0,0,0,2.878.287.522.522,0,0,1,.523.363l.417,1.326a.528.528,0,0,0,.6.356l2.208-.447a.448.448,0,0,0,.127-.043.506.506,0,0,0,.283-.517l-.2-1.763-.049-.43a9.131,9.131,0,0,0,1.071-.707,9.243,9.243,0,0,0,1.256-1.163.506.506,0,0,1,.565-.136l1.86.731a.524.524,0,0,0,.662-.256l.771-1.554.22-.446a.532.532,0,0,0-.189-.685l-1.609-1.029a.506.506,0,0,1-.227-.551,9.1,9.1,0,0,0,.246-1.932,1.537,1.537,0,0,0,0-.164.293.293,0,0,1,0-.055.518.518,0,0,1,.365-.443l2.152-.681a.365.365,0,0,0,.07-.028.526.526,0,0,0,.284-.57l-.442-2.2a.525.525,0,0,0-.572-.417l-2.461.278a.505.505,0,0,1-.508-.267,9.368,9.368,0,0,0-.771-1.179c-.155-.2-.315-.395-.484-.579a.534.534,0,0,1-.1-.553l.869-2.221a.509.509,0,0,0-.248-.642l-2.013-.993a.533.533,0,0,0-.687.19l-.973,1.524a.524.524,0,0,1-.609.216,9.148,9.148,0,0,0-2.776-.5.52.52,0,0,1-.49-.366l-.613-1.94a.538.538,0,0,0-.616-.364l-2.194.439a.514.514,0,0,0-.411.563l.01.1.229,2.048a.525.525,0,0,1-.284.528l0,0a9.112,9.112,0,0,0-1.361.865c-.232.178-.451.365-.663.561a.516.516,0,0,1-.543.106l-1.889-.742a.534.534,0,0,0-.673.259l-.99,2a.6.6,0,0,0-.051.176.532.532,0,0,0,.238.5l1.288.818a.53.53,0,0,1,.24.462.558.558,0,0,1-.026.144,9.124,9.124,0,0,0-.463,3.576.513.513,0,0,1-.275.492.522.522,0,0,1-.082.034l-1.743.55a.522.522,0,0,0-.354.6l.01.051.429,2.146A.532.532,0,0,0,2483.845,529.031Zm15.1-6.7a6.173,6.173,0,0,1,.32,1.09,4.8,4.8,0,0,1-.341,2.59c-.036.073-.073.144-.11.215a4.954,4.954,0,0,1-9.18-3.661,3.245,3.245,0,0,1,.18-.446,5.636,5.636,0,0,1,1.126-1.55A4.919,4.919,0,0,1,2498.942,522.33Z" transform="translate(-756.751 -62.376)" fill="#4dd0e1"/>
      <g id="Grupo_898243" data-name="Grupo 898243" transform="translate(1551.758 574.569)">
        <path id="Trazado_625256" data-name="Trazado 625256" d="M1738.172,1157.082a2.635,2.635,0,0,0-2.938-2.866,3.76,3.76,0,0,1,1.472.789,3.785,3.785,0,0,0-4.264.643c-2.222,1.842-.841,6.462-1.517,7.339s-3.307,1.052-2.986,3.889,8.352,6.388,7.836,8.735c0,0,3.147-4.626.9-6.737a4.169,4.169,0,0,1,1.209,2.261s.3-2.4-1.228-3.164a5.631,5.631,0,0,1-2.339-3.6C1734.429,1163.923,1738.172,1157.082,1738.172,1157.082Z" transform="translate(-1700.17 -1154.216)" fill="#151f2c"/>
        <path id="Trazado_625257" data-name="Trazado 625257" d="M1750.447,1239.833s2.392,9.895,4.74,11.873c1.411,1.189,5.607,3.917,5.607,3.917l-1.745.633s-5.82-1.965-7.123-3.5-4.87-9.209-4.87-9.209Z" transform="translate(-1715.597 -1223.21)" fill="#ee805f"/>
        <path id="Trazado_625258" data-name="Trazado 625258" d="M1642.557,1290.546l.066.116c.523.909,1.724,3.139,3.046,5.578.626,1.157,1.281,2.362,1.9,3.5,1.07,1.956,2.044,3.7,2.613,4.619.578.936,1,1.594,1.175,1.857h0a.432.432,0,0,1,.056.272,14.23,14.23,0,0,0,.038,2.453,18.819,18.819,0,0,0,6.149,12.189l1.591.235s-2.251-8.342-2.915-13.058a9.067,9.067,0,0,1-.122-1.87,19.519,19.519,0,0,0-.514-5.1,114.315,114.315,0,0,0-3.253-11.814c-.074-.231-2.312-8.325-2.312-8.325-1.878,1.642-8.728,2.319-8.728,2.319S1640.189,1286.335,1642.557,1290.546Z" transform="translate(-1630.186 -1256.539)" fill="#384152"/>
        <path id="Trazado_625259" data-name="Trazado 625259" d="M1723.925,1483.122h-6.641a3.646,3.646,0,0,1,.188-1.78c.332-.737.806-.76.061-1.915a4.044,4.044,0,0,0,2.738.485,8.142,8.142,0,0,0,1.151,1.753C1721.857,1481.976,1723.792,1481.865,1723.925,1483.122Z" transform="translate(-1691.577 -1416.286)" fill="#151f2c"/>
        <path id="Trazado_625260" data-name="Trazado 625260" d="M1648.746,1313.116l.066.116c.523.91,3.354,6.138,4.676,8.577a35.376,35.376,0,0,1-.467-12.609Z" transform="translate(-1636.375 -1279.11)" fill="#151f2c"/>
        <path id="Trazado_625261" data-name="Trazado 625261" d="M1754.6,1166.706a26.617,26.617,0,0,0-3.987,1.95c-1.8,2-1.286,4.6-.257,4.625.66.016.532,1.114.532,1.114l7.355-3.112S1757.359,1166.118,1754.6,1166.706Z" transform="translate(-1717.504 -1164.243)" fill="#151f2c"/>
        <path id="Trazado_625262" data-name="Trazado 625262" d="M1747.3,1232.18a9.42,9.42,0,0,1,.979,4.051,7.038,7.038,0,0,1-4.85,2.67S1746.438,1232.178,1747.3,1232.18Z" transform="translate(-1712.673 -1217.043)" fill="#feca2e"/>
        <path id="Trazado_625263" data-name="Trazado 625263" d="M1606.227,1278.254l.022-1.242c-2.475.312-8.532-2.957-8.532-2.957s-2.589,1.722-2.943,6.639c-.173,2.4-1.267,12.55-1.388,15.581-.044,1.1-.059,1.882-.064,2.2,0,0,0,0,0,0a.431.431,0,0,1-.105.256,14.181,14.181,0,0,0-1.341,2.055c-3.776,7.025-1.8,16.572-1.8,16.572l.877-.223s3.193-9.9,5.28-14.177a8.954,8.954,0,0,1,.945-1.617,19.525,19.525,0,0,0,2.427-4.519C1601.145,1293.138,1606.227,1278.254,1606.227,1278.254Z" transform="translate(-1588.679 -1250.788)" fill="#384152"/>
        <path id="Trazado_625264" data-name="Trazado 625264" d="M1591.7,1482.923h-6.641a3.647,3.647,0,0,1,.188-1.78c.332-.737.853-1.072.729-1.963a2.391,2.391,0,0,0,2.07.792,7.277,7.277,0,0,0,1.152,1.494C1589.633,1481.777,1591.568,1481.666,1591.7,1482.923Z" transform="translate(-1585.025 -1416.088)" fill="#151f2c"/>
        <path id="Trazado_625265" data-name="Trazado 625265" d="M1651.752,1224.705c-.892.152.146.861-1.081.995a22.158,22.158,0,0,0-4.493.7,1.014,1.014,0,0,0-.647.524c-.409,1.231-3,3.346-3,3.346-11.563-.526-12.308-5.68-12.308-5.68,7.5-7.289,13.889-11.261,19.166-11.753a9.39,9.39,0,0,1,3.827.4c1.846.822,2.857,3.322,2.857,3.322S1655.141,1224.127,1651.752,1224.705Z" transform="translate(-1621.446 -1201.422)" fill="#feca2e"/>
        <path id="Trazado_625266" data-name="Trazado 625266" d="M1716.745,1240.216a22.175,22.175,0,0,0-4.493.7,18.413,18.413,0,0,1,2.336-10.1S1716.362,1238.034,1716.745,1240.216Z" transform="translate(-1687.52 -1215.938)" fill="#2b6eb2"/>
        <path id="Trazado_625267" data-name="Trazado 625267" d="M1748.043,1206.53c.33,1.034,1.431,3.98,2.956,2.846a3.76,3.76,0,0,1,.647-1.509c.483-.83,1.058-1.678,1.058-1.678l-2.485-2.177-.148-.13a6.33,6.33,0,0,1-1.849,2.1A.5.5,0,0,0,1748.043,1206.53Z" transform="translate(-1716.374 -1194.239)" fill="#ee805f"/>
        <path id="Trazado_625268" data-name="Trazado 625268" d="M1761.637,1206.73s-.575.846-1.058,1.677c-1.545-.952-1.547-2.865-1.427-3.855Z" transform="translate(-1725.308 -1194.779)" fill="#de6b4d"/>
        <path id="Trazado_625269" data-name="Trazado 625269" d="M1761.278,1189.388s-3.75-2.087-2.415-4.4,1.751-4.145,4.2-2.91,2.4,2.384,2.145,3.266S1762.289,1189.871,1761.278,1189.388Z" transform="translate(-1724.881 -1176.346)" fill="#ee805f"/>
        <path id="Trazado_625270" data-name="Trazado 625270" d="M1764.208,1182.689c-.172-1.028-.694-1.126-1.059-1.058a3,3,0,0,0-3.648-1.4,5.107,5.107,0,0,1-2.956,1.776s.435.81,2.228,1.311a3.067,3.067,0,0,0,1.769-.141,10.024,10.024,0,0,1-2.545.959c2.364.216,4.612-1.944,4.845-2.175a3.356,3.356,0,0,1,.186,1.548c-.156.7-.773,1.958-.4,2.121C1762.632,1185.633,1764.465,1184.231,1764.208,1182.689Z" transform="translate(-1723.244 -1175.044)" fill="#151f2c"/>
        <g id="Grupo_898242" data-name="Grupo 898242" transform="translate(32.957 28.595)">
          <rect id="Rectángulo_302507" data-name="Rectángulo 302507" width="31.136" height="8.166" transform="translate(17.39 8.784) rotate(25.99)" fill="#4dd0e1"/>
          <g id="Grupo_898240" data-name="Grupo 898240">
            <path id="Trazado_625271" data-name="Trazado 625271" d="M1759.833,1319.155a9.254,9.254,0,0,1-5.009-6.367,2.1,2.1,0,0,1,4.108-.9,5.093,5.093,0,1,0,3.535-5.974,2.1,2.1,0,1,1-1.191-4.033,9.3,9.3,0,1,1-1.443,17.276Z" transform="translate(-1754.775 -1301.497)" fill="#4dd0e1"/>
          </g>
          <g id="Grupo_898241" data-name="Grupo 898241" transform="translate(39.427 19.304)">
            <path id="Trazado_625272" data-name="Trazado 625272" d="M1963.07,1418.582a9.3,9.3,0,1,1,12.722-11.778,2.1,2.1,0,0,1-3.911,1.545,5.093,5.093,0,1,0-2.529,6.464,2.1,2.1,0,0,1,1.819,3.792A9.254,9.254,0,0,1,1963.07,1418.582Z" transform="translate(-1957.847 -1400.926)" fill="#4dd0e1"/>
          </g>
          <path id="Rectángulo_302508" data-name="Rectángulo 302508" d="M1.283,0h0A1.283,1.283,0,0,1,2.566,1.283V16.83a1.283,1.283,0,0,1-1.283,1.283h0A1.283,1.283,0,0,1,0,16.83V1.283A1.283,1.283,0,0,1,1.283,0Z" transform="translate(19.792 15.699) rotate(-64.01)" fill="#0b5999"/>
        </g>
        <path id="Trazado_625273" data-name="Trazado 625273" d="M1754.37,1353.25a2.481,2.481,0,0,0,.377,1.06c.3.361,1.155,1.234,1.17,1.745,0,0-.043.227-.228.186s-.824-.675-1.153-.63a6.365,6.365,0,0,0,.349,1.313,3.606,3.606,0,0,1,.389,1.624c-.1.249-1.843-1.2-2.37-1.908s-.009-3.582-.009-3.582Z" transform="translate(-1720.12 -1314.452)" fill="#ee805f"/>
        <path id="Trazado_625274" data-name="Trazado 625274" d="M1721.168,1225.759s-4.391-.24-5.171,2.517,1.464,13.761,1.947,14.9c.881,2.068,5.167,7.969,5.167,7.969l1.576-.48s-2.858-9.016-3.5-9.908C1720.189,1239.354,1722.482,1226.958,1721.168,1225.759Z" transform="translate(-1690.437 -1211.865)" fill="#ee805f"/>
        <path id="Trazado_625275" data-name="Trazado 625275" d="M1712.214,1228.583c.011.064,4.156.762,6.747-.553,0,0,2.165-6.783-.929-6.459s-4.927,1.3-5,2.781A28.537,28.537,0,0,1,1712.214,1228.583Z" transform="translate(-1687.52 -1208.485)" fill="#feca2e"/>
        <path id="Trazado_625276" data-name="Trazado 625276" d="M1802.511,1298.411a1.723,1.723,0,0,0-.728.183c-.24.185-.508.506.028.773.8.4,2.414.223,2.351-.019C1803.964,1298.589,1803.674,1298.358,1802.511,1298.411Z" transform="translate(-1759.47 -1270.41)" fill="#ee805f"/>
      </g>
      <g id="Grupo_898246" data-name="Grupo 898246" transform="translate(1627.812 434.915)">
        <path id="Trazado_625277" data-name="Trazado 625277" d="M2069.474,714.284a.751.751,0,0,0-.134.8.006.006,0,0,0,0,0,4.987,4.987,0,0,0,1.578,1.731c.095.077.179.147.253.211l.056.051.044.04c.693.639.432.786,1.678,2.083,1.42,1.478,2.4,1.5,2.677,1.37.235-.115-.242-.9-.773-1.78l-.077-.128c-.071-.117-.141-.236-.211-.354-.621-1.06-.462-1.558-.314-3.136.12-1.282,1.995-7.164,1.995-7.164l-2.722-.469s-.82,4.684-1.723,5.405c-.483.385-1.023.389-1.488.675q-.049.03-.1.061A3.56,3.56,0,0,0,2069.474,714.284Z" transform="translate(-2051.315 -654.613)" fill="#ee805f"/>
        <path id="Trazado_625278" data-name="Trazado 625278" d="M2069.474,739.519a.75.75,0,0,0-.134.8.006.006,0,0,0,0,0,5.775,5.775,0,0,0,1.58,1.725c.094.078.177.15.251.217l.056.051.044.04c.693.639.432.786,1.678,2.083,1.42,1.478,2.4,1.5,2.677,1.37.235-.115-.242-.9-.773-1.78a6.052,6.052,0,0,1-2.532-1.866c-.855-1.091-1.426-2.494-2.009-3.306q-.049.03-.1.061A3.56,3.56,0,0,0,2069.474,739.519Z" transform="translate(-2051.315 -679.848)" fill="#151f2c"/>
        <path id="Trazado_625279" data-name="Trazado 625279" d="M2174.3,709.146c.168.84,1.366.7,2.7.373s1.021.062,2.925-.149,2.481-.921,2.539-1.2c.052-.251-.889-.34-1.9-.456l-.382-.046a8.242,8.242,0,0,1-3.009-1.482,12.088,12.088,0,0,1-2.444-2.9l-2.612.207s1.37,2.082,1.9,2.987a3.155,3.155,0,0,1,.256,1.78A3.361,3.361,0,0,0,2174.3,709.146Z" transform="translate(-2134.193 -651.175)" fill="#ee805f"/>
        <path id="Trazado_625280" data-name="Trazado 625280" d="M2185.879,727.91c1.338-.327,1.02.062,2.925-.149s2.481-.921,2.54-1.2c.052-.251-.889-.34-1.9-.456l-.009.019a5.369,5.369,0,0,1-2.728.848c-1.293.031-2.661-.339-3.554-.324a3.372,3.372,0,0,0,.02.894C2183.343,728.378,2184.54,728.237,2185.879,727.91Z" transform="translate(-2143.065 -669.567)" fill="#151f2c"/>
        <path id="Trazado_625281" data-name="Trazado 625281" d="M2094.589,630.1l-2.442,6.57-3.188,8.579a5.166,5.166,0,0,1-1.693-.155,7.35,7.35,0,0,1-1.638-.8s.885-9.212,2.536-14.5a9.424,9.424,0,0,1,1.421-3.073C2092.145,623.7,2094.589,630.1,2094.589,630.1Z" transform="translate(-2064.489 -588.827)" fill="#151f2c"/>
        <path id="Trazado_625282" data-name="Trazado 625282" d="M2020.967,588.282c-1.6-.516-6.162.147-10.745,1.044l-.959-1.583-9.9-.773s-3.267,7.244-1.478,11.86a1.674,1.674,0,0,0,1.675,1.128h.145l7.805,0c4.923,0,10.419-3.384,11.13-3.526,1.164-.233,1.629,2.095,2.793,4.539s10.939,10.822,10.939,10.822a8.6,8.6,0,0,0,2.123-.218,2.093,2.093,0,0,0,.911-.576S2024.575,589.446,2020.967,588.282Z" transform="translate(-1993.35 -557.448)" fill="#384152"/>
        <path id="Trazado_625283" data-name="Trazado 625283" d="M1989.382,435.073a10.434,10.434,0,0,0-3.6.03c-3.767.371-5.032,4.573-4.462,7.833.526,3.009-1,3.841-2.768,6.217-3.546,4.765-1.228,8.782,1.57,9.818,1.679.621,4.01-.946,4.01-.946a108.19,108.19,0,0,0,10.309-7.469C1999.41,448.61,1992.917,435.983,1989.382,435.073Z" transform="translate(-1976.749 -434.915)" fill="#151f2c"/>
        <path id="Trazado_625284" data-name="Trazado 625284" d="M2023.6,487.51c.1.349-1.549.99-2.806.754-1.183-.221-2.51-1.606-2.236-1.736.453-.215.757-.75.51-3.643l.225.026,3.786.432s.012,1.179.1,2.284A7.47,7.47,0,0,0,2023.6,487.51Z" transform="translate(-2010.411 -473.571)" fill="#ee805f"/>
        <path id="Trazado_625285" data-name="Trazado 625285" d="M2026.28,483.448s.011,1.179.1,2.284c-2.089.112-3.347-1.7-3.885-2.716Z" transform="translate(-2013.613 -473.677)" fill="#de6b4d"/>
        <path id="Trazado_625286" data-name="Trazado 625286" d="M2023.337,456.288s-4.925.486-5.181-2.586-1.063-5.078,2.071-5.518,3.844.681,4.178,1.686S2024.612,456.082,2023.337,456.288Z" transform="translate(-2009.888 -445.528)" fill="#ee805f"/>
        <path id="Trazado_625287" data-name="Trazado 625287" d="M2016.744,444.075s-.62,3.753-3.425,4.643a4.486,4.486,0,0,1-2.973.221,8.345,8.345,0,0,0,1.335-3.122,1.5,1.5,0,0,1,1-1.146C2014.136,444.192,2015.9,442.884,2016.744,444.075Z" transform="translate(-2003.823 -441.904)" fill="#151f2c"/>
        <path id="Trazado_625288" data-name="Trazado 625288" d="M2038.521,446.646a3.259,3.259,0,0,1,1.751,1.4,6.291,6.291,0,0,1,.881,3.035s.862-3.473-.395-4.765A1.308,1.308,0,0,0,2038.521,446.646Z" transform="translate(-2026.528 -443.675)" fill="#151f2c"/>
        <path id="Trazado_625289" data-name="Trazado 625289" d="M1997.119,511.592c.088.373.163.716.224,1.033.1.511.169.951.218,1.34.15,1.211.1,1.929.207,2.715a6.752,6.752,0,0,0,.368,1.478c.2.563,5.556,1.064,8.6.862a4.174,4.174,0,0,0,1.965-.425c1.086-.943.978,1.132,1.127-8.8.072-4.843-4.11-9.156-4.11-9.156s-.334,2.069-4.481-.394c-.147-.086-1.78,2.332-3.353,5.31C1996.156,508.848,1996.63,509.544,1997.119,511.592Z" transform="translate(-1992.8 -487.562)" fill="#4dd0e1"/>
        <path id="Trazado_625290" data-name="Trazado 625290" d="M2092.147,652.792l-3.188,8.579a5.165,5.165,0,0,1-1.693-.155,7.349,7.349,0,0,1-1.638-.8s.885-9.212,2.536-14.5Z" transform="translate(-2064.489 -604.953)" fill="#384152"/>
        <path id="Trazado_625291" data-name="Trazado 625291" d="M2043.3,502.28s4.267.724,4.768,2.561,3.963,12.112,3.963,12.112-2.682.915-3.684-.087-3.487-9.3-3.487-9.3Z" transform="translate(-2030.381 -489.201)" fill="#4dd0e1"/>
        <path id="Trazado_625292" data-name="Trazado 625292" d="M2040.165,480.584a.847.847,0,0,0,.752.5c.545,0,.693-.082.8-.2a1.718,1.718,0,0,0,.206-.338A4.63,4.63,0,0,0,2040.165,480.584Z" transform="translate(-2027.853 -471.636)" fill="#fff"/>
        <path id="Trazado_625293" data-name="Trazado 625293" d="M2001.274,569.757c.15,1.211.1,1.929.207,2.715,3.875.012,9.054-2.992,9.054-2.992Z" transform="translate(-1996.513 -543.354)" fill="#c8114f"/>
        <path id="Trazado_625294" data-name="Trazado 625294" d="M2009.866,535.8s-6.036-.18-7.053-3.61c-1.118-3.769-2.37,1.55-2.37,1.55l.666,3.395h6.622Z" transform="translate(-1995.843 -512.218)" fill="#c8114f"/>
        <g id="Grupo_898245" data-name="Grupo 898245" transform="translate(16.077 12.035)">
          <path id="Trazado_625295" data-name="Trazado 625295" d="M2068.026,499.144l-.326-.808a2.291,2.291,0,0,0-2.124-1.433h-6.017v20.118h24.89v-16.3h-14.085A2.521,2.521,0,0,1,2068.026,499.144Z" transform="translate(-2059.558 -496.903)" fill="#feca2e"/>
          <g id="Grupo_898244" data-name="Grupo 898244" transform="translate(3.754 6.822)">
            <path id="Trazado_625296" data-name="Trazado 625296" d="M2078.9,544.647V543.2l5.086-2.228v1.482l-3.552,1.461,3.552,1.461v1.5Z" transform="translate(-2078.896 -539.235)" fill="#fff"/>
            <path id="Trazado_625297" data-name="Trazado 625297" d="M2113,532.038h1.355l-4.655,9.731h-1.356Z" transform="translate(-2102.623 -532.038)" fill="#fff"/>
            <path id="Trazado_625298" data-name="Trazado 625298" d="M2147.309,543.2v1.45l-5.086,2.228v-1.482l3.552-1.461-3.552-1.461v-1.5Z" transform="translate(-2129.928 -539.235)" fill="#fff"/>
          </g>
        </g>
        <path id="Trazado_625299" data-name="Trazado 625299" d="M2048.971,551.813l.437-.686a3.508,3.508,0,0,0,.83-.453c.576-.4.5-1.011.789-.947l0,1.333-.031,0c1.237.33,2.683-.029,2.712.279.08.847-.576,1.229-1.124,1.494a1.992,1.992,0,0,1-1.657.271c-.555-.173-1.428-.348-1.428-.348Z" transform="translate(-2034.949 -527.433)" fill="#ee805f"/>
        <path id="Trazado_625300" data-name="Trazado 625300" d="M1992.4,500.261s-3.918.256-4.9,1.784-2.194,9.286-1.685,11.951,13.056-.509,13.056-.509l-.4-2.312s-7.241.042-7.654-.9C1990.271,509.02,1992.4,500.261,1992.4,500.261Z" transform="translate(-1983.96 -487.574)" fill="#4dd0e1"/>
        <path id="Trazado_625301" data-name="Trazado 625301" d="M2117.626,513.411a1.458,1.458,0,0,0,1.479.95c.555-.111,1.276-1.305.642-1.569A1.8,1.8,0,0,0,2117.626,513.411Z" transform="translate(-2090.273 -497.567)" fill="#ee805f"/>
      </g>
      <g id="Grupo_898252" data-name="Grupo 898252" transform="translate(1685.144 477.299)">
        <g id="Grupo_898247" data-name="Grupo 898247" transform="translate(8.194 0.017)">
          <rect id="Rectángulo_302509" data-name="Rectángulo 302509" width="30.901" height="0.149" transform="translate(0 27.26) rotate(-61.908)" fill="#151f2c"/>
        </g>
        <g id="Grupo_898248" data-name="Grupo 898248" transform="translate(59.676 0)">
          <rect id="Rectángulo_302510" data-name="Rectángulo 302510" width="0.149" height="24.062" transform="matrix(0.733, -0.68, 0.68, 0.733, 0, 0.101)" fill="#151f2c"/>
        </g>
        <g id="Grupo_898251" data-name="Grupo 898251" transform="translate(0 17.228)">
          <path id="Trazado_625302" data-name="Trazado 625302" d="M2358.3,747.574a6.544,6.544,0,0,1-1.221,4.793,6.242,6.242,0,0,1-4.174,2.5l-73.133,10.049a6.7,6.7,0,0,1-7.67-5.495,6.3,6.3,0,0,1,1.37-4.813,7.02,7.02,0,0,1,4.533-2.546l73.133-10.049A6.432,6.432,0,0,1,2358.3,747.574Z" transform="translate(-2272.044 -741.952)" fill="#e9e9e9"/>
          <path id="Trazado_625303" data-name="Trazado 625303" d="M2631.657,747.574a6.547,6.547,0,0,1-1.221,4.793,6.242,6.242,0,0,1-4.173,2.5l-13.234,1.818-1.766-12.854,13.234-1.818A6.432,6.432,0,0,1,2631.657,747.574Z" transform="translate(-2545.403 -741.952)" fill="#0b5999"/>
          <g id="Grupo_898250" data-name="Grupo 898250" transform="translate(71.085 2.529)">
            <g id="Grupo_898249" data-name="Grupo 898249" transform="translate(3.353)">
              <path id="Trazado_625304" data-name="Trazado 625304" d="M2659.2,761.558a3.356,3.356,0,0,1-.5.031,3.307,3.307,0,0,1-2.273-5.671h0a3.306,3.306,0,1,1,2.768,5.64Zm-2.387-5.251a2.762,2.762,0,1,0,3.906.045,2.765,2.765,0,0,0-3.906-.045Z" transform="translate(-2655.443 -754.978)" fill="#fff"/>
            </g>
            <rect id="Rectángulo_302511" data-name="Rectángulo 302511" width="0.545" height="4.512" transform="translate(4.297 5.23) rotate(45.662)" fill="#fff"/>
            <path id="Trazado_625305" data-name="Trazado 625305" d="M2638.312,793.672h0a.485.485,0,0,1,.008-.687l1.9-1.857a.486.486,0,0,1,.688.008h0a.486.486,0,0,1-.008.687l-1.9,1.857A.486.486,0,0,1,2638.312,793.672Z" transform="translate(-2638.173 -783.997)" fill="#fff"/>
          </g>
        </g>
      </g>
      <g id="Grupo_898255" data-name="Grupo 898255" transform="translate(1632.732 568.6)">
        <rect id="Rectángulo_302512" data-name="Rectángulo 302512" width="16.431" height="1.394" rx="0.697" transform="translate(0 0)" fill="#feca2e"/>
        <g id="Grupo_898254" data-name="Grupo 898254" transform="translate(0 3.241)">
          <path id="Trazado_625306" data-name="Trazado 625306" d="M2010.1,1151.393h-7.538a.476.476,0,0,1-.476-.476h0a.476.476,0,0,1,.476-.476h7.538a.476.476,0,0,1,.476.476h0A.476.476,0,0,1,2010.1,1151.393Z" transform="translate(-2002.09 -1148.446)" fill="#151f2c"/>
          <g id="Grupo_898253" data-name="Grupo 898253">
            <rect id="Rectángulo_302513" data-name="Rectángulo 302513" width="14.23" height="0.951" rx="0.476" fill="#151f2c"/>
            <rect id="Rectángulo_302514" data-name="Rectángulo 302514" width="13.288" height="0.951" rx="0.476" transform="translate(15.527)" fill="#151f2c"/>
            <path id="Trazado_625307" data-name="Trazado 625307" d="M2058.537,1151.393H2051a.476.476,0,0,1-.476-.476h0a.476.476,0,0,1,.476-.476h7.539a.476.476,0,0,1,.476.476h0A.476.476,0,0,1,2058.537,1151.393Z" transform="translate(-2041.119 -1148.446)" fill="#151f2c"/>
          </g>
        </g>
        <path id="Rectángulo_302515" data-name="Rectángulo 302515" d="M.7,0H15.734a.7.7,0,0,1,.7.7v0a.7.7,0,0,1-.7.7H.7A.7.7,0,0,1,0,.7v0A.7.7,0,0,1,.7,0Z" transform="translate(18.606 0)" fill="#feca2e"/>
      </g>
      <g id="Grupo_898258" data-name="Grupo 898258" transform="translate(1632.732 579.096)">
        <path id="Rectángulo_302516" data-name="Rectángulo 302516" d="M.7,0H15.734a.7.7,0,0,1,.7.7v0a.7.7,0,0,1-.7.7H.7A.7.7,0,0,1,0,.7v0A.7.7,0,0,1,.7,0Z" transform="translate(0 0)" fill="#feca2e"/>
        <g id="Grupo_898257" data-name="Grupo 898257" transform="translate(0 3.241)">
          <path id="Trazado_625308" data-name="Trazado 625308" d="M2010.1,1205.454h-7.538a.476.476,0,0,1-.476-.476h0a.476.476,0,0,1,.476-.476h7.538a.475.475,0,0,1,.476.476h0A.476.476,0,0,1,2010.1,1205.454Z" transform="translate(-2002.09 -1202.507)" fill="#151f2c"/>
          <g id="Grupo_898256" data-name="Grupo 898256">
            <rect id="Rectángulo_302517" data-name="Rectángulo 302517" width="14.23" height="0.951" rx="0.476" fill="#151f2c"/>
            <path id="Rectángulo_302518" data-name="Rectángulo 302518" d="M.476,0H12.812a.476.476,0,0,1,.476.476v0a.476.476,0,0,1-.476.476H.476A.476.476,0,0,1,0,.476v0A.476.476,0,0,1,.476,0Z" transform="translate(15.527)" fill="#151f2c"/>
            <path id="Trazado_625309" data-name="Trazado 625309" d="M2058.537,1205.454H2051a.476.476,0,0,1-.476-.476h0a.475.475,0,0,1,.476-.476h7.539a.476.476,0,0,1,.476.476h0A.476.476,0,0,1,2058.537,1205.454Z" transform="translate(-2041.119 -1202.507)" fill="#151f2c"/>
          </g>
        </g>
        <path id="Rectángulo_302519" data-name="Rectángulo 302519" d="M.7,0H15.734a.7.7,0,0,1,.7.7v0a.7.7,0,0,1-.7.7H.7A.7.7,0,0,1,0,.7v0A.7.7,0,0,1,.7,0Z" transform="translate(18.606 0)" fill="#feca2e"/>
      </g>
      <g id="Grupo_898259" data-name="Grupo 898259" transform="translate(1711.669 508.685)">
        <path id="Trazado_625310" data-name="Trazado 625310" d="M2425,822.884l-8.726,2.031-4.315,7.852-3.294-17.894Z" transform="translate(-2408.665 -814.872)" fill="#4dd0e1"/>
        <rect id="Rectángulo_302520" data-name="Rectángulo 302520" width="1.595" height="9.229" transform="matrix(0.797, -0.604, 0.604, 0.797, 5.862, 9.282)" fill="#4dd0e1"/>
      </g>
      <g id="Grupo_898261" data-name="Grupo 898261" transform="translate(1699.263 529.082)">
        <rect id="Rectángulo_302521" data-name="Rectángulo 302521" width="24.602" height="24.602" rx="8.099" transform="translate(0 0)" fill="#e9e9e9"/>
        <g id="Grupo_898260" data-name="Grupo 898260" transform="translate(2.944 4.929)">
          <path id="Trazado_625311" data-name="Trazado 625311" d="M2360.124,981.008l4.78-8.618a1.572,1.572,0,0,1,2.643-.167l2.758,3.761a1.572,1.572,0,0,0,2.428.132h0a1.572,1.572,0,0,1,2.48.207l2.976,4.594a1.572,1.572,0,0,1-1.32,2.428H2361.5A1.572,1.572,0,0,1,2360.124,981.008Z" transform="translate(-2359.924 -966.481)" fill="#fd9927"/>
          <path id="Trazado_625312" data-name="Trazado 625312" d="M2409.546,947.2a1.88,1.88,0,1,1,1.88,1.881A1.88,1.88,0,0,1,2409.546,947.2Z" transform="translate(-2399.912 -945.318)" fill="#fd9927"/>
        </g>
      </g>
      <g id="Grupo_898263" data-name="Grupo 898263" transform="translate(1727.821 529.956)">
        <path id="Trazado_625313" data-name="Trazado 625313" d="M2517.8,948.822l-21.26,2.9a1.573,1.573,0,0,1-1.771-1.346l-2.9-21.26a1.573,1.573,0,0,1,1.345-1.771l21.26-2.9a1.573,1.573,0,0,1,1.771,1.345l2.9,21.261A1.573,1.573,0,0,1,2517.8,948.822Z" transform="translate(-2491.854 -924.431)" fill="#e9e9e9"/>
        <g id="Grupo_898262" data-name="Grupo 898262" transform="translate(5.437 6.04)">
          <path id="Trazado_625314" data-name="Trazado 625314" d="M2519.966,995.353l3.572-9.186a1.573,1.573,0,0,1,2.6-.523l3.24,3.354a1.573,1.573,0,0,0,2.424-.2h0a1.572,1.572,0,0,1,2.485-.13l3.57,4.15a1.573,1.573,0,0,1-.98,2.583l-15.229,2.077A1.572,1.572,0,0,1,2519.966,995.353Z" transform="translate(-2519.857 -979.412)" fill="#fd9927"/>
          <path id="Trazado_625315" data-name="Trazado 625315" d="M2559.69,957.673a1.881,1.881,0,1,1,2.118,1.609A1.881,1.881,0,0,1,2559.69,957.673Z" transform="translate(-2551.942 -955.538)" fill="#fd9927"/>
        </g>
      </g>
      <g id="Grupo_898264" data-name="Grupo 898264" transform="translate(1678.354 629.896)">
        <rect id="Rectángulo_302522" data-name="Rectángulo 302522" width="12.399" height="10.631" transform="translate(0.501 0.455)" fill="#0b5999"/>
        <rect id="Rectángulo_302523" data-name="Rectángulo 302523" width="13.319" height="0.821" transform="translate(0 0)" fill="#384152"/>
        <rect id="Rectángulo_302524" data-name="Rectángulo 302524" width="12.399" height="3.377" transform="translate(0.501 3.331)" fill="#384152"/>
      </g>
      <path id="Trazado_625316" data-name="Trazado 625316" d="M2329.392,1484.487h-11.708a.776.776,0,0,1-.776-.776v-1.3a.776.776,0,0,1,.861-.771l11.708,1.3a.776.776,0,0,1,.69.771h0A.776.776,0,0,1,2329.392,1484.487Z" transform="translate(-623.054 -843.498)" fill="#0b5999"/>
      <path id="Trazado_625317" data-name="Trazado 625317" d="M1870.088,1497.124l-325.948-.112a.4.4,0,0,1-.4-.4v-.2a.4.4,0,0,1,.4-.4l325.948.113a.4.4,0,0,1,.4.4v.2A.4.4,0,0,1,1870.088,1497.124Z" transform="translate(0 -855.083)" fill="#12263f"/>
      <g id="Grupo_898265" data-name="Grupo 898265" transform="translate(1636.638 524.483)">
        <path id="Trazado_625318" data-name="Trazado 625318" d="M2071.456,926.409h-1.349a.222.222,0,1,1,0-.444h1.34a.226.226,0,0,1,.226.222A.218.218,0,0,1,2071.456,926.409Zm-2.689,0h-1.34a.222.222,0,1,1,0-.444h1.34a.222.222,0,0,1,0,.444Zm-2.68,0h-1.34a.222.222,0,0,1,0-.444h1.34a.222.222,0,1,1,0,.444Zm-2.68,0h-1.34a.222.222,0,0,1,0-.444h1.34a.222.222,0,1,1,0,.444Zm-2.68,0h-1.34a.222.222,0,0,1,0-.444h1.34a.222.222,0,1,1,0,.444Zm-2.68,0h-1.34a.222.222,0,0,1,0-.444h1.34a.222.222,0,1,1,0,.444Zm-2.68,0h-1.34a.222.222,0,1,1,0-.444h1.34a.222.222,0,0,1,0,.444Zm-2.68,0h-1.34a.222.222,0,1,1,0-.444h1.34a.222.222,0,1,1,0,.444Zm-2.68,0h-1.34a.222.222,0,0,1,0-.444h1.34a.222.222,0,1,1,0,.444Zm-2.68,0h-1.34a.222.222,0,0,1,0-.444h1.34a.222.222,0,0,1,0,.444Zm-2.68,0h-1.34a.222.222,0,1,1,0-.444h1.34a.222.222,0,1,1,0,.444Zm-2.68,0h-1.34a.222.222,0,0,1,0-.444h1.34a.222.222,0,0,1,0,.444Zm-2.68,0h-1.34a.222.222,0,1,1,0-.444h1.34a.222.222,0,0,1,0,.444Zm-2.68,0h-1.34a.222.222,0,0,1,0-.444h1.34a.222.222,0,0,1,0,.444Zm-2.68,0h-1.34a.222.222,0,0,1,0-.444h1.34a.222.222,0,1,1,0,.444Zm-2.68,0h-1.34a.222.222,0,0,1,0-.444h1.34a.222.222,0,0,1,0,.444Zm-2.68,0h-1.34a.222.222,0,1,1,0-.444h1.34a.222.222,0,0,1,0,.444Zm-2.68,0h-1.194q-.08,0-.16-.005a.222.222,0,0,1,.028-.443c.043,0,.087,0,.131,0h1.194a.222.222,0,1,1,0,.444Zm46.831-.39a.222.222,0,0,1-.125-.405,2.041,2.041,0,0,0,.749-.927.222.222,0,1,1,.411.166,2.481,2.481,0,0,1-.911,1.128A.221.221,0,0,1,2072.717,926.019Zm-49.407-.08a.22.22,0,0,1-.135-.046,2.478,2.478,0,0,1-.841-1.181.222.222,0,0,1,.421-.141,2.036,2.036,0,0,0,.691.97.222.222,0,0,1-.136.4Zm50.4-2.266a.222.222,0,0,1-.222-.222v-1.34a.222.222,0,1,1,.444,0v1.34A.222.222,0,0,1,2073.709,923.673Zm-51.282-.136a.222.222,0,0,1-.222-.222v-1.34a.222.222,0,1,1,.444,0v1.34A.222.222,0,0,1,2022.428,923.537Zm51.282-2.544a.222.222,0,0,1-.222-.222v-1.34a.222.222,0,1,1,.444,0v1.34A.222.222,0,0,1,2073.709,920.993Zm-51.282-.136a.222.222,0,0,1-.222-.222v-1.34a.222.222,0,1,1,.444,0v1.34A.222.222,0,0,1,2022.428,920.857Zm51.282-2.544a.222.222,0,0,1-.222-.222v-1.34a.222.222,0,0,1,.444,0v1.34A.222.222,0,0,1,2073.709,918.313Zm-51.282-.136a.222.222,0,0,1-.222-.222v-1.34a.222.222,0,0,1,.444,0v1.34A.222.222,0,0,1,2022.428,918.177Zm51.282-2.544a.222.222,0,0,1-.222-.222v-1.34a.222.222,0,0,1,.444,0v1.34A.222.222,0,0,1,2073.709,915.633Zm-51.282-.136a.222.222,0,0,1-.222-.222v-1.34a.222.222,0,0,1,.444,0v1.34A.222.222,0,0,1,2022.428,915.5Zm51.282-2.544a.222.222,0,0,1-.222-.222v-1.34a.222.222,0,1,1,.444,0v1.34A.222.222,0,0,1,2073.709,912.953Zm-51.282-.136a.222.222,0,0,1-.222-.222v-1.34a.222.222,0,0,1,.444,0v1.34A.222.222,0,0,1,2022.428,912.817Zm51.282-2.544a.222.222,0,0,1-.222-.222v-1.34a.222.222,0,1,1,.444,0v1.34A.222.222,0,0,1,2073.709,910.273Zm-51.282-.136a.222.222,0,0,1-.222-.222v-1.34a.222.222,0,1,1,.444,0v1.34A.222.222,0,0,1,2022.428,910.136Zm51.282-2.544a.222.222,0,0,1-.222-.222v-1.34a.222.222,0,0,1,.444,0v1.34A.222.222,0,0,1,2073.709,907.593Zm-51.282-.136a.222.222,0,0,1-.222-.222v-1.34a.222.222,0,1,1,.444,0v1.34A.222.222,0,0,1,2022.428,907.456Zm51.282-2.544a.222.222,0,0,1-.222-.222v-1.34a.222.222,0,0,1,.444,0v1.34A.222.222,0,0,1,2073.709,904.913Zm-51.282-.136a.222.222,0,0,1-.222-.222v-1.34a.222.222,0,0,1,.444,0v1.34A.222.222,0,0,1,2022.428,904.776Zm51.282-2.544a.222.222,0,0,1-.222-.222v-1.34a.222.222,0,1,1,.444,0v1.34A.222.222,0,0,1,2073.709,902.233Zm-51.282-.136a.222.222,0,0,1-.222-.222v-1.34a.222.222,0,1,1,.444,0v1.34A.222.222,0,0,1,2022.428,902.1Zm51.282-2.544a.222.222,0,0,1-.222-.222v-.605a2.049,2.049,0,0,0-.106-.651.222.222,0,1,1,.42-.141,2.478,2.478,0,0,1,.13.793v.605A.222.222,0,0,1,2073.709,899.553Zm-51.282-.136a.222.222,0,0,1-.222-.222v-.469a2.474,2.474,0,0,1,.182-.933.222.222,0,1,1,.411.167,2.027,2.027,0,0,0-.149.766v.469A.222.222,0,0,1,2022.428,899.416Zm50.4-2.265a.22.22,0,0,1-.135-.046,2.029,2.029,0,0,0-1.115-.417.222.222,0,1,1,.027-.443,2.467,2.467,0,0,1,1.357.508.222.222,0,0,1-.135.4Zm-49.4-.08a.222.222,0,0,1-.124-.405,2.471,2.471,0,0,1,1.385-.425h0a.222.222,0,1,1,0,.443,2.031,2.031,0,0,0-1.138.349A.22.22,0,0,1,2023.425,897.072Zm46.822-.387h-1.34a.222.222,0,0,1,0-.443h1.34a.222.222,0,1,1,0,.443Zm-2.679,0h-1.34a.222.222,0,1,1,0-.443h1.34a.222.222,0,0,1,0,.443Zm-2.68,0h-1.34a.222.222,0,1,1,0-.443h1.34a.222.222,0,1,1,0,.443Zm-2.68,0h-1.34a.222.222,0,0,1,0-.443h1.34a.222.222,0,1,1,0,.443Zm-2.68,0h-1.34a.222.222,0,0,1,0-.443h1.34a.222.222,0,0,1,0,.443Zm-2.68,0h-1.34a.222.222,0,1,1,0-.443h1.34a.222.222,0,1,1,0,.443Zm-2.68,0h-1.34a.222.222,0,1,1,0-.443h1.34a.222.222,0,1,1,0,.443Zm-2.68,0h-1.34a.222.222,0,0,1,0-.443h1.34a.222.222,0,1,1,0,.443Zm-2.68,0h-1.34a.222.222,0,0,1,0-.443h1.34a.222.222,0,1,1,0,.443Zm-2.68,0h-1.34a.222.222,0,1,1,0-.443h1.34a.222.222,0,0,1,0,.443Zm-2.68,0h-1.34a.222.222,0,1,1,0-.443h1.34a.222.222,0,1,1,0,.443Zm-2.68,0h-1.34a.222.222,0,1,1,0-.443h1.34a.222.222,0,1,1,0,.443Zm-2.68,0h-1.34a.222.222,0,0,1,0-.443h1.34a.222.222,0,1,1,0,.443Zm-2.68,0h-1.34a.222.222,0,1,1,0-.443h1.34a.222.222,0,1,1,0,.443Zm-2.68,0h-1.34a.222.222,0,1,1,0-.443h1.34a.222.222,0,0,1,0,.443Zm-2.68,0h-1.34a.222.222,0,1,1,0-.443h1.34a.222.222,0,1,1,0,.443Zm-2.68,0h-1.34a.222.222,0,1,1,0-.443h1.34a.222.222,0,1,1,0,.443Z" transform="translate(-2022.206 -896.241)" fill="#151f2c"/>
      </g>
      <g id="Grupo_898266" data-name="Grupo 898266" transform="translate(1738.565 583.981)">
        <path id="Trazado_625319" data-name="Trazado 625319" d="M2570.692,1210.551h-1.2a.2.2,0,1,1,0-.393h1.187a.2.2,0,0,1,.2.2A.193.193,0,0,1,2570.692,1210.551Zm-2.383,0h-1.187a.2.2,0,0,1,0-.393h1.187a.2.2,0,1,1,0,.393Zm-2.374,0h-1.187a.2.2,0,1,1,0-.393h1.187a.2.2,0,0,1,0,.393Zm-2.374,0h-1.187a.2.2,0,1,1,0-.393h1.187a.2.2,0,1,1,0,.393Zm-2.375,0H2560a.2.2,0,0,1,0-.393h1.187a.2.2,0,1,1,0,.393Zm-2.374,0h-1.187a.2.2,0,0,1,0-.393h1.188a.2.2,0,0,1,0,.393Zm-2.374,0h-1.187a.2.2,0,0,1,0-.393h1.187a.2.2,0,0,1,0,.393Zm-2.374,0h-1.187a.2.2,0,1,1,0-.393h1.187a.2.2,0,0,1,0,.393Zm-2.374,0H2550.5a.2.2,0,0,1,0-.393h1.187a.2.2,0,0,1,0,.393Zm-2.374,0h-1.2a.2.2,0,0,1,.02-.393h1.177a.2.2,0,1,1,0,.393Zm22.144-.752h-.007a.2.2,0,0,1-.19-.2v-1.181a.2.2,0,1,1,.393,0v1.193A.2.2,0,0,1,2571.46,1209.8Zm-24.068-.032a.2.2,0,0,1-.2-.2v-1.187a.2.2,0,0,1,.393,0v1.187A.2.2,0,0,1,2547.393,1209.767Zm24.068-2.342a.2.2,0,0,1-.2-.2v-1.187a.2.2,0,1,1,.393,0v1.187A.2.2,0,0,1,2571.46,1207.425Zm-24.068-.032a.2.2,0,0,1-.2-.2v-1.187a.2.2,0,0,1,.393,0v1.187A.2.2,0,0,1,2547.393,1207.393Zm24.068-2.343a.2.2,0,0,1-.2-.2v-1.187a.2.2,0,1,1,.393,0v1.187A.2.2,0,0,1,2571.46,1205.05Zm-24.068-.032a.2.2,0,0,1-.2-.2v-1.157c0-.013,0-.025,0-.037a.193.193,0,0,1,.2-.188.2.2,0,0,1,.188.2v1.179A.2.2,0,0,1,2547.393,1205.019Zm23.327-1.934h-1.187a.2.2,0,1,1,0-.393h1.2a.2.2,0,0,1-.009.393Zm-2.375,0h-1.187a.2.2,0,1,1,0-.393h1.187a.2.2,0,1,1,0,.393Zm-2.374,0h-1.187a.2.2,0,1,1,0-.393h1.187a.2.2,0,1,1,0,.393Zm-2.374,0h-1.187a.2.2,0,1,1,0-.393h1.187a.2.2,0,1,1,0,.393Zm-2.374,0h-1.187a.2.2,0,1,1,0-.393h1.187a.2.2,0,1,1,0,.393Zm-2.374,0h-1.187a.2.2,0,1,1,0-.393h1.187a.2.2,0,1,1,0,.393Zm-2.374,0h-1.187a.2.2,0,0,1,0-.393h1.187a.2.2,0,1,1,0,.393Zm-2.374,0h-1.187a.2.2,0,1,1,0-.393h1.187a.2.2,0,1,1,0,.393Zm-2.374,0h-1.187a.2.2,0,1,1,0-.393h1.187a.2.2,0,0,1,0,.393Zm-2.374,0h-1.183a.2.2,0,0,1-.2-.2.194.194,0,0,1,.194-.2h1.187a.2.2,0,1,1,0,.393Z" transform="translate(-2547.196 -1202.691)" fill="#151f2c"/>
      </g>
      <g id="Grupo_898267" data-name="Grupo 898267" transform="translate(1658.122 502.845)">
        <path id="Trazado_625320" data-name="Trazado 625320" d="M2152.012,802.945h-1.322a.222.222,0,1,1,0-.444H2152a.225.225,0,0,1,.226.222A.218.218,0,0,1,2152.012,802.945Zm-2.635,0h-1.313a.222.222,0,0,1,0-.444h1.313a.222.222,0,0,1,0,.444Zm-2.627,0h-1.314a.222.222,0,0,1,0-.444h1.314a.222.222,0,0,1,0,.444Zm-2.627,0h-1.314a.222.222,0,1,1,0-.444h1.314a.222.222,0,0,1,0,.444Zm-2.627,0h-1.313a.222.222,0,0,1,0-.444h1.313a.222.222,0,1,1,0,.444Zm-2.627,0h-1.314a.222.222,0,0,1,0-.444h1.314a.222.222,0,0,1,0,.444Zm-2.627,0h-1.314a.222.222,0,0,1,0-.444h1.314a.222.222,0,0,1,0,.444Zm-2.6-.141a.218.218,0,0,1-.109-.029,1.316,1.316,0,0,1-.666-1.143v-.161a.222.222,0,1,1,.443,0v.161a.872.872,0,0,0,.442.757.222.222,0,0,1-.11.415Zm19.387-.565a.222.222,0,0,1-.208-.3.863.863,0,0,0,.055-.306v-.921a.222.222,0,0,1,.444,0v.921a1.314,1.314,0,0,1-.083.463A.222.222,0,0,1,2153.025,802.239Zm-19.941-1.859a.222.222,0,0,1-.222-.222v-1.314a.222.222,0,1,1,.443,0v1.314A.222.222,0,0,1,2133.084,800.38Zm20.01-.76a.222.222,0,0,1-.222-.222v-1.313a.222.222,0,1,1,.444,0V799.4A.222.222,0,0,1,2153.094,799.62Zm-20.01-1.868a.222.222,0,0,1-.222-.222v-1.314a.222.222,0,1,1,.443,0v1.314A.222.222,0,0,1,2133.084,797.752Zm20.01-.76a.222.222,0,0,1-.222-.222v-1.314a.222.222,0,1,1,.444,0v1.314A.222.222,0,0,1,2153.094,796.993Zm-20.01-1.867a.222.222,0,0,1-.222-.222V793.59a.222.222,0,1,1,.443,0V794.9A.222.222,0,0,1,2133.084,795.125Zm20.01-.76a.222.222,0,0,1-.222-.222V792.83a.222.222,0,1,1,.444,0v1.314A.222.222,0,0,1,2153.094,794.365Zm-20.01-1.868a.222.222,0,0,1-.222-.222v-1.313a.222.222,0,1,1,.443,0v1.313A.222.222,0,0,1,2133.084,792.5Zm20.01-.76a.222.222,0,0,1-.222-.222V790.2a.222.222,0,1,1,.444,0v1.313A.222.222,0,0,1,2153.094,791.738Zm-20.01-1.868a.222.222,0,0,1-.222-.222v-1.314a.222.222,0,1,1,.443,0v1.314A.222.222,0,0,1,2133.084,789.871Zm20.01-.76a.222.222,0,0,1-.222-.222v-1.314a.222.222,0,1,1,.444,0v1.314A.222.222,0,0,1,2153.094,789.111Zm-20.01-1.867a.222.222,0,0,1-.222-.222V786.1a1.3,1.3,0,0,1,.085-.467.222.222,0,1,1,.415.158.866.866,0,0,0-.057.309v.917A.222.222,0,0,1,2133.084,787.244Zm20.01-.76a.222.222,0,0,1-.222-.222V786.1a.87.87,0,0,0-.444-.758.222.222,0,0,1,.218-.387,1.316,1.316,0,0,1,.67,1.145v.157A.222.222,0,0,1,2153.094,786.484Zm-1.847-1.248h-1.313a.222.222,0,1,1,0-.444h1.313a.222.222,0,0,1,0,.444Zm-2.628,0h-1.313a.222.222,0,1,1,0-.444h1.313a.222.222,0,1,1,0,.444Zm-2.627,0h-1.314a.222.222,0,1,1,0-.444h1.314a.222.222,0,1,1,0,.444Zm-2.627,0h-1.313a.222.222,0,1,1,0-.444h1.313a.222.222,0,0,1,0,.444Zm-2.627,0h-1.313a.222.222,0,1,1,0-.444h1.313a.222.222,0,0,1,0,.444Zm-2.627,0H2136.8a.222.222,0,0,1,0-.444h1.314a.222.222,0,0,1,0,.444Zm-2.627,0h-1.31a.224.224,0,0,1-.224-.222.22.22,0,0,1,.22-.222h1.314a.222.222,0,0,1,0,.444Z" transform="translate(-2132.862 -784.792)" fill="#151f2c"/>
      </g>
      <g id="Grupo_898268" data-name="Grupo 898268" transform="translate(1738.565 594.936)">
        <path id="Trazado_625321" data-name="Trazado 625321" d="M2570.692,1266.98h-1.2a.2.2,0,0,1,0-.393h1.187a.2.2,0,0,1,.2.2A.193.193,0,0,1,2570.692,1266.98Zm-2.383,0h-1.187a.2.2,0,0,1,0-.393h1.187a.2.2,0,0,1,0,.393Zm-2.374,0h-1.187a.2.2,0,0,1,0-.393h1.187a.2.2,0,0,1,0,.393Zm-2.374,0h-1.187a.2.2,0,0,1,0-.393h1.187a.2.2,0,0,1,0,.393Zm-2.375,0H2560a.2.2,0,0,1,0-.393h1.187a.2.2,0,1,1,0,.393Zm-2.374,0h-1.187a.2.2,0,0,1,0-.393h1.188a.2.2,0,0,1,0,.393Zm-2.374,0h-1.187a.2.2,0,0,1,0-.393h1.187a.2.2,0,0,1,0,.393Zm-2.374,0h-1.187a.2.2,0,0,1,0-.393h1.187a.2.2,0,0,1,0,.393Zm-2.374,0H2550.5a.2.2,0,0,1,0-.393h1.187a.2.2,0,0,1,0,.393Zm-2.374,0h-1.2a.2.2,0,0,1-.186-.206.193.193,0,0,1,.206-.187h1.177a.2.2,0,0,1,0,.393Zm22.144-.752h-.007a.2.2,0,0,1-.19-.2v-1.181a.2.2,0,0,1,.393,0v1.193A.2.2,0,0,1,2571.46,1266.228Zm-24.068-.032a.2.2,0,0,1-.2-.2v-1.187a.2.2,0,0,1,.393,0V1266A.2.2,0,0,1,2547.393,1266.2Zm24.068-2.342a.2.2,0,0,1-.2-.2v-1.187a.2.2,0,1,1,.393,0v1.187A.2.2,0,0,1,2571.46,1263.854Zm-24.068-.032a.2.2,0,0,1-.2-.2v-1.187a.2.2,0,1,1,.393,0v1.187A.2.2,0,0,1,2547.393,1263.822Zm24.068-2.343a.2.2,0,0,1-.2-.2V1260.1a.2.2,0,1,1,.393,0v1.187A.2.2,0,0,1,2571.46,1261.479Zm-24.068-.032a.2.2,0,0,1-.2-.2v-1.158c0-.012,0-.025,0-.037a.193.193,0,0,1,.2-.188.2.2,0,0,1,.188.2v1.179A.2.2,0,0,1,2547.393,1261.448Zm23.327-1.934h-1.187a.2.2,0,1,1,0-.393h1.2a.2.2,0,0,1-.009.393Zm-2.375,0h-1.187a.2.2,0,1,1,0-.393h1.187a.2.2,0,1,1,0,.393Zm-2.374,0h-1.187a.2.2,0,1,1,0-.393h1.187a.2.2,0,1,1,0,.393Zm-2.374,0h-1.187a.2.2,0,1,1,0-.393h1.187a.2.2,0,1,1,0,.393Zm-2.374,0h-1.187a.2.2,0,1,1,0-.393h1.187a.2.2,0,1,1,0,.393Zm-2.374,0h-1.187a.2.2,0,1,1,0-.393h1.187a.2.2,0,1,1,0,.393Zm-2.374,0h-1.187a.2.2,0,0,1,0-.393h1.187a.2.2,0,1,1,0,.393Zm-2.374,0h-1.187a.2.2,0,1,1,0-.393h1.187a.2.2,0,1,1,0,.393Zm-2.374,0h-1.187a.2.2,0,1,1,0-.393h1.187a.2.2,0,0,1,0,.393Zm-2.374,0h-1.183a.2.2,0,0,1-.2-.2.194.194,0,0,1,.194-.2h1.187a.2.2,0,1,1,0,.393Z" transform="translate(-2547.196 -1259.12)" fill="#151f2c"/>
      </g>
      <g id="Grupo_898269" data-name="Grupo 898269" transform="translate(1629.926 564.425)">
        <path id="Trazado_625322" data-name="Trazado 625322" d="M2026.093,1132.085h-1.185a.2.2,0,1,1,0-.393h1.177a.2.2,0,0,1,.2.2A.193.193,0,0,1,2026.093,1132.085Zm-2.362,0h-1.177a.2.2,0,0,1,0-.393h1.177a.2.2,0,0,1,0,.393Zm-2.354,0H2020.2a.2.2,0,1,1,0-.393h1.177a.2.2,0,0,1,0,.393Zm-2.354,0h-1.177a.2.2,0,0,1,0-.393h1.177a.2.2,0,1,1,0,.393Zm-2.354,0h-1.177a.2.2,0,1,1,0-.393h1.177a.2.2,0,0,1,0,.393Zm-2.354,0h-1.177a.2.2,0,1,1,0-.393h1.177a.2.2,0,1,1,0,.393Zm-2.354,0h-1.177a.2.2,0,1,1,0-.393h1.177a.2.2,0,1,1,0,.393Zm-2.353,0h-1.177a.2.2,0,1,1,0-.393h1.177a.2.2,0,0,1,0,.393Zm-2.354,0h-1.177a.2.2,0,1,1,0-.393h1.177a.2.2,0,0,1,0,.393Zm-2.354,0h-1.177a.2.2,0,1,1,0-.393h1.177a.2.2,0,1,1,0,.393Zm-2.354,0h-1.177a.2.2,0,0,1,0-.393h1.177a.2.2,0,1,1,0,.393Zm-2.354,0h-1.177a.2.2,0,1,1,0-.393h1.177a.2.2,0,1,1,0,.393Zm-2.353,0h-1.177a.2.2,0,1,1,0-.393h1.177a.2.2,0,0,1,0,.393Zm-2.354,0h-1.177a.2.2,0,1,1,0-.393h1.177a.2.2,0,0,1,0,.393Zm-2.354,0h-1.177a.2.2,0,1,1,0-.393h1.177a.2.2,0,1,1,0,.393Zm-2.353,0h-.939a2.216,2.216,0,0,1-.26-.015.2.2,0,1,1,.046-.39,1.877,1.877,0,0,0,.214.012h.939a.2.2,0,0,1,0,.393Zm36.422-.339a.2.2,0,0,1-.11-.36,1.807,1.807,0,0,0,.664-.809.2.2,0,1,1,.363.151,2.2,2.2,0,0,1-.807.984A.2.2,0,0,1,2027.2,1131.746Zm-38.661-.139a.2.2,0,0,1-.127-.047,2.2,2.2,0,0,1-.69-1.07.2.2,0,1,1,.378-.108,1.8,1.8,0,0,0,.567.879.2.2,0,0,1-.128.346Zm39.549-1.915a.2.2,0,0,1-.2-.2v-1.177a.2.2,0,0,1,.393,0v1.177A.2.2,0,0,1,2028.09,1129.693Zm-40.255-.229a.2.2,0,0,1-.2-.2v-1.177a.2.2,0,0,1,.393,0v1.177A.2.2,0,0,1,1987.835,1129.463Zm40.255-2.124a.2.2,0,0,1-.2-.2v-1.177a.2.2,0,0,1,.393,0v1.177A.2.2,0,0,1,2028.09,1127.339Zm-40.255-.229a.2.2,0,0,1-.2-.2v-1.177a.2.2,0,0,1,.393,0v1.177A.2.2,0,0,1,1987.835,1127.11Zm40.255-2.124a.2.2,0,0,1-.2-.2v-1.177a.2.2,0,0,1,.393,0v1.177A.2.2,0,0,1,2028.09,1124.985Zm-40.255-.229a.2.2,0,0,1-.2-.2v-1.177a.2.2,0,1,1,.393,0v1.177A.2.2,0,0,1,1987.835,1124.756Zm40.255-2.124a.2.2,0,0,1-.2-.2v-1.177a.2.2,0,0,1,.393,0v1.177A.2.2,0,0,1,2028.09,1122.632Zm-40.255-.229a.2.2,0,0,1-.2-.2v-1.177a.2.2,0,0,1,.393,0v1.177A.2.2,0,0,1,1987.835,1122.4Zm40.255-2.124a.2.2,0,0,1-.2-.2V1118.9a.2.2,0,0,1,.393,0v1.177A.2.2,0,0,1,2028.09,1120.278Zm-40.255-.229a.2.2,0,0,1-.2-.2v-1.177a.2.2,0,0,1,.393,0v1.177A.2.2,0,0,1,1987.835,1120.049Zm40.255-2.125a.2.2,0,0,1-.2-.2v-1.177a.2.2,0,0,1,.393,0v1.177A.2.2,0,0,1,2028.09,1117.924Zm-40.255-.229a.2.2,0,0,1-.2-.2v-1.177a.2.2,0,0,1,.393,0v1.177A.2.2,0,0,1,1987.835,1117.695Zm40.255-2.124a.2.2,0,0,1-.2-.2V1114.2a.2.2,0,1,1,.393,0v1.177A.2.2,0,0,1,2028.09,1115.571Zm-40.255-.229a.2.2,0,0,1-.2-.2v-1.177a.2.2,0,0,1,.393,0v1.177A.2.2,0,0,1,1987.835,1115.342Zm40.255-2.125a.2.2,0,0,1-.2-.2v-1.177a.2.2,0,0,1,.393,0v1.177A.2.2,0,0,1,2028.09,1113.217Zm-40.255-.229a.2.2,0,0,1-.2-.2v-1.177a.2.2,0,1,1,.393,0v1.177A.2.2,0,0,1,1987.835,1112.988Zm40.255-2.124a.2.2,0,0,1-.2-.2v-1.177a.2.2,0,0,1,.393,0v1.177A.2.2,0,0,1,2028.09,1110.863Zm-40.255-.229a.2.2,0,0,1-.2-.2v-1.177a.2.2,0,0,1,.393,0v1.177A.2.2,0,0,1,1987.835,1110.634Zm40.255-2.125a.2.2,0,0,1-.2-.2v-1.177a.2.2,0,0,1,.393,0v1.177A.2.2,0,0,1,2028.09,1108.51Zm-40.255-.229a.2.2,0,0,1-.2-.2v-1.177a.2.2,0,0,1,.393,0v1.177A.2.2,0,0,1,1987.835,1108.28Zm40.255-2.124a.2.2,0,0,1-.2-.2v-1.177a.2.2,0,0,1,.393,0v1.177A.2.2,0,0,1,2028.09,1106.156Zm-40.255-.23a.2.2,0,0,1-.2-.2v-1.177a.2.2,0,0,1,.393,0v1.177A.2.2,0,0,1,1987.835,1105.927Zm40.177-2.117a.2.2,0,0,1-.188-.142,1.806,1.806,0,0,0-.569-.878.2.2,0,1,1,.254-.3,2.194,2.194,0,0,1,.692,1.069.2.2,0,0,1-.134.243A.2.2,0,0,1,2028.012,1103.81Zm-40.022-.216a.188.188,0,0,1-.075-.015.2.2,0,0,1-.106-.257,2.193,2.193,0,0,1,.81-.983.2.2,0,0,1,.218.327,1.806,1.806,0,0,0-.665.807A.2.2,0,0,1,1987.99,1103.594Zm38.328-1.219h-.022a1.835,1.835,0,0,0-.211-.012h-.943a.2.2,0,1,1,0-.393h.943a2.283,2.283,0,0,1,.255.015.2.2,0,0,1-.022.392Zm-2.354-.014h-1.177a.2.2,0,1,1,0-.393h1.177a.2.2,0,1,1,0,.393Zm-2.353,0h-1.177a.2.2,0,0,1,0-.393h1.177a.2.2,0,0,1,0,.393Zm-2.354,0h-1.177a.2.2,0,1,1,0-.393h1.177a.2.2,0,1,1,0,.393Zm-2.354,0h-1.177a.2.2,0,1,1,0-.393h1.177a.2.2,0,1,1,0,.393Zm-2.354,0h-1.177a.2.2,0,0,1,0-.393h1.177a.2.2,0,1,1,0,.393Zm-2.354,0h-1.177a.2.2,0,1,1,0-.393h1.177a.2.2,0,1,1,0,.393Zm-2.354,0h-1.177a.2.2,0,1,1,0-.393h1.177a.2.2,0,1,1,0,.393Zm-2.354,0h-1.177a.2.2,0,0,1,0-.393h1.177a.2.2,0,0,1,0,.393Zm-2.354,0h-1.177a.2.2,0,1,1,0-.393h1.177a.2.2,0,1,1,0,.393Zm-2.354,0h-1.177a.2.2,0,1,1,0-.393h1.177a.2.2,0,1,1,0,.393Zm-2.354,0h-1.177a.2.2,0,0,1,0-.393h1.177a.2.2,0,1,1,0,.393Zm-2.354,0H1996.9a.2.2,0,1,1,0-.393h1.177a.2.2,0,1,1,0,.393Zm-2.354,0h-1.177a.2.2,0,1,1,0-.393h1.177a.2.2,0,1,1,0,.393Zm-2.354,0h-1.177a.2.2,0,1,1,0-.393h1.177a.2.2,0,1,1,0,.393Zm-2.354,0h-1.173a.2.2,0,0,1-.2-.2.2.2,0,0,1,.194-.2h1.177a.2.2,0,1,1,0,.393Z" transform="translate(-1987.639 -1101.968)" fill="#151f2c"/>
      </g>
      <g id="Grupo_898271" data-name="Grupo 898271" transform="translate(1630.396 528.746)">
        <rect id="Rectángulo_302525" data-name="Rectángulo 302525" width="51.282" height="29.725" rx="9.573" transform="translate(0 0)" fill="#e9e9e9"/>
        <path id="Trazado_625323" data-name="Trazado 625323" d="M2092.319,960.531v11.792a.927.927,0,0,0,1.436.774l8.962-5.9a.926.926,0,0,0,0-1.548l-8.962-5.9A.927.927,0,0,0,2092.319,960.531Z" transform="translate(-2072.465 -951.565)" fill="#4dd0e1"/>
        <g id="Grupo_898270" data-name="Grupo 898270" transform="translate(2.666 26.123)">
          <path id="Trazado_625324" data-name="Trazado 625324" d="M2003.79,1053.67a.92.92,0,1,1,.92.92A.92.92,0,0,1,2003.79,1053.67Z" transform="translate(-2003.79 -1052.749)" fill="#aec3ff"/>
          <path id="Trazado_625325" data-name="Trazado 625325" d="M2050.405,1056.709h-41.627a.248.248,0,0,1-.248-.248h0a.248.248,0,0,1,.248-.248h41.627a.248.248,0,0,1,.248.248h0A.248.248,0,0,1,2050.405,1056.709Z" transform="translate(-2007.61 -1055.541)" fill="#aec3ff"/>
        </g>
      </g>
      <rect id="Rectángulo_302526" data-name="Rectángulo 302526" width="26.531" height="39.604" transform="translate(1678.354 564.622)" fill="#e9e9e9"/>
      <g id="Grupo_898277" data-name="Grupo 898277" transform="translate(1689.494 565.566)">
        <g id="Grupo_898273" data-name="Grupo 898273" transform="translate(0 3.278)">
          <g id="Grupo_898272" data-name="Grupo 898272" transform="translate(4.31 1.349)">
            <path id="Trazado_625326" data-name="Trazado 625326" d="M2317.007,1138.83h-.363V1137.2a1.062,1.062,0,0,1,1.061-1.061h4.489a.7.7,0,0,0,.676-.521l.71-2.7a.7.7,0,0,0-.675-.876h-5.857v-.363h5.857a1.062,1.062,0,0,1,1.026,1.332l-.71,2.7a1.062,1.062,0,0,1-1.027.791h-4.489a.7.7,0,0,0-.7.7Z" transform="translate(-2316.644 -1131.677)" fill="#384152"/>
          </g>
          <path id="Rectángulo_302527" data-name="Rectángulo 302527" d="M1.531,0H8.54a1.531,1.531,0,0,1,1.531,1.531v0A1.531,1.531,0,0,1,8.54,3.062H1.531A1.531,1.531,0,0,1,0,1.531v0A1.531,1.531,0,0,1,1.531,0Z" fill="#4dd0e1"/>
          <path id="Trazado_625327" data-name="Trazado 625327" d="M2313.436,1170.019h0a1,1,0,0,1-1-1v-6.049a1,1,0,0,1,1-1h0a1,1,0,0,1,1,1v6.049A1,1,0,0,1,2313.436,1170.019Z" transform="translate(-2308.945 -1154.742)" fill="#384152"/>
        </g>
        <g id="Grupo_898274" data-name="Grupo 898274" transform="translate(26.526 11.614)">
          <path id="Trazado_625328" data-name="Trazado 625328" d="M2506.791,1270.6a13.734,13.734,0,0,1,.628,2.6,9.424,9.424,0,0,1-.8,2.559c-.308.423-.46-1.723-.7-2.046s-.05.808-.222.913-.53-.832-.684-1.162.377-1.549.378-2.4S2506.791,1270.6,2506.791,1270.6Z" transform="translate(-2490.633 -1250.547)" fill="#ee805f"/>
          <path id="Trazado_625329" data-name="Trazado 625329" d="M2431.081,1170.919a3,3,0,0,1,4.523-2.826c.043.026.085.052.127.079,3.114,2,9.833,11.356,10.295,12.293s1.827,8.39,1.827,8.39-1.686.617-2.475-.023c0,0-2.736-7.068-3.14-7.422s-10.94-6.265-11.03-8.482C2431.184,1172.343,2431.137,1171.638,2431.081,1170.919Z" transform="translate(-2431.071 -1167.66)" fill="#11b498"/>
        </g>
        <g id="Grupo_898275" data-name="Grupo 898275" transform="translate(22.555 33.301)">
          <path id="Trazado_625330" data-name="Trazado 625330" d="M2509.082,1464.135s1.255,1.146,1.01,1.96-1.378,1.357-1.531,2.352-.766,1.538-1.317,1.538h-2.627s-.406-.7.574-.911,1.35-1.38,1.288-2.466a19.127,19.127,0,0,1,.092-2.532l2.082-.482Z" transform="translate(-2486.299 -1427.823)" fill="#2a4a7c"/>
          <path id="Trazado_625331" data-name="Trazado 625331" d="M2418,1477.462s.226,2.608-.326,2.879l-7.054-.014s0-.815,1.133-1,3.123-.844,3.46-2.322S2418,1477.462,2418,1477.462Z" transform="translate(-2410.618 -1438.187)" fill="#2a4a7c"/>
          <path id="Trazado_625332" data-name="Trazado 625332" d="M2417.954,1289.312s.372,4.571.809,10.065c.594,7.463,1.309,16.63,1.38,18.367.122,3.016.613,7.839.613,7.839a3.893,3.893,0,0,0,3.491.663,77.853,77.853,0,0,0,2.667-14.172l.028-.36c.551-7.417,1.408-23.036,1.408-23.036Z" transform="translate(-2416.53 -1286.87)" fill="#0b5999"/>
          <path id="Trazado_625333" data-name="Trazado 625333" d="M2417.954,1289.312s.372,4.571.809,10.065l8.15,12.7.028-.36c.551-7.417,1.408-23.036,1.408-23.036Z" transform="translate(-2416.53 -1286.87)" fill="#2b6eb2"/>
          <path id="Trazado_625334" data-name="Trazado 625334" d="M2426.705,1282.347s6.706,16.553,11.115,24.332,5.788,9.95,5.788,9.95,2.526-1,2.756-1.673c0,0-1.686-15.018-4.639-18.679-1.669-2.068-3.629-8.276-3.721-10.447s-.6-6.467-.6-6.467Z" transform="translate(-2423.582 -1279.362)" fill="#0b5999"/>
        </g>
        <path id="Trazado_625335" data-name="Trazado 625335" d="M2426.918,1144.218s-4.494,2.279-7.125,1.519a6.177,6.177,0,0,1,1.742-1.451c-.1-.523-.18-.977-.228-1.363a12.568,12.568,0,0,1-.138-1.395l1.723-1.411,1.633-1.35A6.691,6.691,0,0,0,2426.918,1144.218Z" transform="translate(-2395.457 -1132.762)" fill="#ee805f"/>
        <path id="Trazado_625336" data-name="Trazado 625336" d="M2421.975,1184.162a18.512,18.512,0,0,1-5.541,2.387,43.966,43.966,0,0,1-6.259.545.406.406,0,0,1-.285-.072c-.077-.039-.506-2.931-.937-6.581-.019-.147-.039-.3-.047-.444l-.007-.049c-.167-1.427-.314-2.926-.442-4.428-.1-1.169-.189-2.325-.249-3.411-.075-1.359-.106-2.607-.075-3.633.014-.469.041-.891.083-1.257a8.941,8.941,0,0,1,2.231-4.789l.794-.9a4.356,4.356,0,0,0,2.749-.7c.97-.639,2.017-1.326,2.215-1.211,1.487.813,2.7,2.922,3.562,5.706a31.793,31.793,0,0,1,1.12,5.347c.078.6.145,1.211.2,1.821.01.113.018.226.027.337.117,1.669.307,3.234.519,4.63.284,1.884.608,3.462.836,4.574.115.566.2,1,.254,1.316C2422.766,1183.618,2422.219,1184.009,2421.975,1184.162Z" transform="translate(-2386.051 -1149.551)" fill="#fd9927"/>
        <path id="Trazado_625337" data-name="Trazado 625337" d="M2430.293,1145.786a6.013,6.013,0,0,1-3.277,2.74,12.72,12.72,0,0,1-.138-1.395l1.723-1.411Z" transform="translate(-2401.166 -1138.367)" fill="#de6b4d"/>
        <path id="Trazado_625338" data-name="Trazado 625338" d="M2418.988,1123.353s4.341.622,4.695-2.046,1.152-4.386-1.605-4.9-3.432.439-3.769,1.3S2417.868,1123.123,2418.988,1123.353Z" transform="translate(-2394.075 -1114.632)" fill="#ee805f"/>
        <path id="Trazado_625339" data-name="Trazado 625339" d="M2419.07,1109.242c.038-.046.128-.083.33-.1a.822.822,0,0,0-.379-.1,1.016,1.016,0,0,0-.692-.884.606.606,0,0,1,.3.431c-.57-.563-1.776-.957-5.088-.629-4.364.432-2.868,3.2-2.3,3.524s1.979-.62,3.035-.558,1.287,1.583,1.648,1.784.214-.165.694-.393.541.573.412,1.1.549,1.2.549,1.2l.658-.737c.657-.737,1.23-3.815.912-4.462Z" transform="translate(-2387.994 -1107.843)" fill="#151f2c"/>
        <path id="Trazado_625340" data-name="Trazado 625340" d="M2415.75,1205.553a19.643,19.643,0,0,1-7.541,3.4c-.075-1.359-.106-2.607-.075-3.633Z" transform="translate(-2386.051 -1186.391)" fill="#11b498"/>
        <g id="Grupo_898276" data-name="Grupo 898276" transform="translate(3.208 12.537)">
          <path id="Trazado_625341" data-name="Trazado 625341" d="M2314.981,1178.129c-.058-.062-.8-2.557-2.1-2.376-.842.119-2.219.606-1.853,1.716.144.436,2.71,1.939,2.71,1.939Z" transform="translate(-2310.972 -1175.098)" fill="#ee805f"/>
          <path id="Trazado_625342" data-name="Trazado 625342" d="M2348.737,1173.66a3,3,0,0,1-.314,5.325l-.138.057c-3.437,1.379-14.952,1.443-15.984,1.277s-7.9-3.367-7.9-3.367.473-1.733,1.451-2c0,0,7.347,1.862,7.87,1.736s11.441-5.293,13.3-4.084C2347.516,1172.921,2348.117,1173.29,2348.737,1173.66Z" transform="translate(-2321.795 -1172.417)" fill="#fd9927"/>
        </g>
      </g>
      <g id="Grupo_898278" data-name="Grupo 898278" transform="translate(1787.243 496.021)">
        <path id="Trazado_625343" data-name="Trazado 625343" d="M2807.779,751.047h-9.167a.7.7,0,0,1-.7-.7h0a.7.7,0,0,1,.7-.7h9.167a.7.7,0,0,1,.7.7h0A.7.7,0,0,1,2807.779,751.047Z" transform="translate(-2797.912 -749.646)" fill="#0b5999"/>
        <path id="Trazado_625344" data-name="Trazado 625344" d="M2807.779,765.143h-9.167a.7.7,0,0,1-.7-.7h0a.7.7,0,0,1,.7-.7h9.167a.7.7,0,0,1,.7.7h0A.7.7,0,0,1,2807.779,765.143Z" transform="translate(-2797.912 -761.005)" fill="#0b5999"/>
        <path id="Trazado_625345" data-name="Trazado 625345" d="M2807.779,779.6h-9.167a.7.7,0,0,1-.7-.7h0a.7.7,0,0,1,.7-.7h9.167a.7.7,0,0,1,.7.7h0A.7.7,0,0,1,2807.779,779.6Z" transform="translate(-2797.912 -772.659)" fill="#0b5999"/>
      </g>
      <path id="Trazado_625346" data-name="Trazado 625346" d="M2569.418,1118.126H2547.6a.932.932,0,0,1-.929-.929h0a.932.932,0,0,1,.929-.929h21.822a.931.931,0,0,1,.929.929h0A.931.931,0,0,1,2569.418,1118.126Z" transform="translate(-808.204 -549.067)" fill="#4dd0e1"/>
      <path id="Trazado_625347" data-name="Trazado 625347" d="M2020,789.737h-21.822a.932.932,0,0,1-.929-.929h0a.932.932,0,0,1,.929-.929H2020a.932.932,0,0,1,.929.929h0A.932.932,0,0,1,2020,789.737Z" transform="translate(-365.454 -284.435)" fill="#0b5999"/>
      <path id="Trazado_625348" data-name="Trazado 625348" d="M2569.418,1165.59H2547.6a.932.932,0,0,1-.929-.929h0a.932.932,0,0,1,.929-.929h21.822a.931.931,0,0,1,.929.929h0A.931.931,0,0,1,2569.418,1165.59Z" transform="translate(-808.204 -587.315)" fill="#4dd0e1"/>
      <path id="Trazado_625349" data-name="Trazado 625349" d="M2551.664,1141.859h-26.1a.932.932,0,0,1-.929-.929h0a.931.931,0,0,1,.929-.929h26.1a.931.931,0,0,1,.929.929h0A.932.932,0,0,1,2551.664,1141.859Z" transform="translate(-790.45 -568.192)" fill="#4dd0e1"/>
      <g id="Grupo_898279" data-name="Grupo 898279" transform="translate(1630.967 509.285)">
        <rect id="Rectángulo_302528" data-name="Rectángulo 302528" width="13.728" height="1.858" rx="0.929" transform="translate(4.078)" fill="#0b5999"/>
        <path id="Trazado_625350" data-name="Trazado 625350" d="M1993,818.893a.929.929,0,1,1,.929.929A.929.929,0,0,1,1993,818.893Z" transform="translate(-1992.998 -817.964)" fill="#0b5999"/>
      </g>
      <g id="Grupo_898280" data-name="Grupo 898280" transform="translate(1630.967 512.982)">
        <rect id="Rectángulo_302529" data-name="Rectángulo 302529" width="16.124" height="1.858" rx="0.929" transform="translate(4.078 0)" fill="#0b5999"/>
        <path id="Trazado_625351" data-name="Trazado 625351" d="M1993,837.934a.929.929,0,1,1,.929.929A.929.929,0,0,1,1993,837.934Z" transform="translate(-1992.998 -837.005)" fill="#0b5999"/>
      </g>
      <g id="Grupo_898281" data-name="Grupo 898281" transform="translate(1630.967 516.995)">
        <rect id="Rectángulo_302530" data-name="Rectángulo 302530" width="13.728" height="1.858" rx="0.929" transform="translate(4.078 0)" fill="#0b5999"/>
        <path id="Trazado_625352" data-name="Trazado 625352" d="M1993,858.6a.929.929,0,1,1,.929.929A.929.929,0,0,1,1993,858.6Z" transform="translate(-1992.998 -857.673)" fill="#0b5999"/>
      </g>
      <g id="Grupo_898283" data-name="Grupo 898283" transform="translate(1663.411 506.701)">
        <g id="Grupo_898282" data-name="Grupo 898282" transform="translate(3.323)">
          <path id="Trazado_625353" data-name="Trazado 625353" d="M2180.954,811.177a3.325,3.325,0,0,1-.491.031,3.278,3.278,0,0,1-2.253-5.621h0a3.277,3.277,0,1,1,2.744,5.59Zm-2.366-5.2a2.737,2.737,0,1,0,3.871.045,2.74,2.74,0,0,0-3.871-.045Z" transform="translate(-2177.225 -804.655)" fill="#151f2c"/>
        </g>
        <rect id="Rectángulo_302531" data-name="Rectángulo 302531" width="0.54" height="4.472" transform="translate(4.259 5.184) rotate(45.662)" fill="#151f2c"/>
        <path id="Trazado_625354" data-name="Trazado 625354" d="M2160.245,843.008h0a.482.482,0,0,1,.008-.682l1.884-1.841a.482.482,0,0,1,.682.008h0a.481.481,0,0,1-.008.681l-1.884,1.841A.482.482,0,0,1,2160.245,843.008Z" transform="translate(-2160.108 -833.418)" fill="#151f2c"/>
      </g>
      <g id="Grupo_898284" data-name="Grupo 898284" transform="translate(1797.055 562.946)">
        <path id="Trazado_625355" data-name="Trazado 625355" d="M2874.644,1172.98h0a1.076,1.076,0,0,1-.979-.675l-25.18-76.667a.505.505,0,0,1,.534-.684h0a1.076,1.076,0,0,1,.979.675l25.18,76.666A.5.5,0,0,1,2874.644,1172.98Z" transform="translate(-2848.452 -1094.837)" fill="#151f2c"/>
        <path id="Trazado_625356" data-name="Trazado 625356" d="M2979.167,1172.375h0a1.077,1.077,0,0,1-.98-.675l-25.18-76.667a.505.505,0,0,1,.534-.683h0a1.076,1.076,0,0,1,.98.675l25.18,76.666A.505.505,0,0,1,2979.167,1172.375Z" transform="translate(-2932.681 -1094.35)" fill="#151f2c"/>
        <path id="Trazado_625357" data-name="Trazado 625357" d="M2886.79,1147.571l-20.378.118a1.019,1.019,0,0,1-.925-.637h0a.477.477,0,0,1,.5-.645l20.378-.118a1.02,1.02,0,0,1,.925.637h0A.478.478,0,0,1,2886.79,1147.571Z" transform="translate(-2862.155 -1136.204)" fill="#151f2c"/>
        <path id="Trazado_625358" data-name="Trazado 625358" d="M2909.434,1216.516l-20.378.118a1.019,1.019,0,0,1-.925-.637h0a.478.478,0,0,1,.5-.646l20.378-.118a1.019,1.019,0,0,1,.925.637h0A.478.478,0,0,1,2909.434,1216.516Z" transform="translate(-2880.403 -1191.764)" fill="#151f2c"/>
        <path id="Trazado_625359" data-name="Trazado 625359" d="M2931.242,1282.917l-20.378.118a1.02,1.02,0,0,1-.925-.637h0a.478.478,0,0,1,.5-.646l20.378-.118a1.02,1.02,0,0,1,.925.637h0A.478.478,0,0,1,2931.242,1282.917Z" transform="translate(-2897.977 -1245.273)" fill="#151f2c"/>
        <path id="Trazado_625360" data-name="Trazado 625360" d="M2955.794,1357.672l-20.378.118a1.021,1.021,0,0,1-.926-.637h0a.478.478,0,0,1,.5-.645l20.378-.118a1.019,1.019,0,0,1,.925.637h0A.478.478,0,0,1,2955.794,1357.672Z" transform="translate(-2917.762 -1305.514)" fill="#151f2c"/>
        <path id="Trazado_625361" data-name="Trazado 625361" d="M2981.491,1435.914l-20.378.118a1.02,1.02,0,0,1-.925-.637h0a.478.478,0,0,1,.5-.645l20.378-.118a1.02,1.02,0,0,1,.925.637h0A.478.478,0,0,1,2981.491,1435.914Z" transform="translate(-2938.47 -1368.565)" fill="#151f2c"/>
      </g>
      <g id="Grupo_898285" data-name="Grupo 898285" transform="translate(1792.633 504.373)">
        <path id="Trazado_625362" data-name="Trazado 625362" d="M2841.276,908.195h0a.3.3,0,0,1-.347-.234l-.326-1.684a.3.3,0,0,1,.234-.347h0a.3.3,0,0,1,.347.234l.326,1.685A.3.3,0,0,1,2841.276,908.195Z" transform="translate(-2837.701 -883.934)" fill="#151f2c"/>
        <rect id="Rectángulo_302532" data-name="Rectángulo 302532" width="0.203" height="2.48" transform="translate(2.487 19.173) rotate(-10.953)" fill="#151f2c"/>
        <path id="Trazado_625363" data-name="Trazado 625363" d="M2828.363,806.977a7.829,7.829,0,0,0-.6-2.318,3.157,3.157,0,0,0-2.04-.959c-.3.292.888,1.322.935,1.7s-.6.117-.291.857a5.775,5.775,0,0,0,1.133,1.436Z" transform="translate(-2825.676 -801.547)" fill="#ee805f"/>
        <path id="Trazado_625364" data-name="Trazado 625364" d="M2833.2,817.88c.561-.44.679-.431.679-.431s5.182,4.489,5.687,4.889,8.287,2.657,8.287,2.657l1.237,6.326s-10.531-5.086-11.789-6.124c-2.079-1.715-4.7-6.516-4.7-6.516A1.985,1.985,0,0,1,2833.2,817.88Z" transform="translate(-2831.253 -812.637)" fill="#dfb021"/>
        <path id="Trazado_625365" data-name="Trazado 625365" d="M2885.965,1129.06a7.866,7.866,0,0,1-.5,2.688l-5.776.033a.9.9,0,0,1,.863-.878,3.874,3.874,0,0,0,2.805-2.214C2884,1127.286,2885.965,1129.06,2885.965,1129.06Z" transform="translate(-2869.198 -1063.014)" fill="#151f2c"/>
        <path id="Trazado_625366" data-name="Trazado 625366" d="M2942.2,1127.588s.4,2.873-.144,2.923c-.073.007-2.327.043-3.3.059-1.148.019-3.035-.021-3.035-.021a.3.3,0,0,1-.271-.452,1.209,1.209,0,0,1,.867-.557,4.68,4.68,0,0,0,3.27-2.277C2940.2,1125.849,2942.2,1127.588,2942.2,1127.588Z" transform="translate(-2914.101 -1061.854)" fill="#151f2c"/>
        <path id="Trazado_625367" data-name="Trazado 625367" d="M2896.563,956.763a114.009,114.009,0,0,0,6.209,15.379c4.6,9.759,4.8,14.463,4.8,14.463a4.046,4.046,0,0,0,1.621.148,4.357,4.357,0,0,0,1.707-.553s-.3-11.616-2.472-16.541-2.617-18.4-2.617-18.4Z" transform="translate(-2882.8 -920.466)" fill="#151f2c"/>
        <path id="Trazado_625368" data-name="Trazado 625368" d="M2883.271,954.712a140.134,140.134,0,0,0,1.378,19.387c1.506,10.685.8,15.654.8,15.654a3,3,0,0,0,1.627.286,3.646,3.646,0,0,0,2.173-.6s2.155-10.689,1.537-16.037,2.952-18.351,2.952-18.351Z" transform="translate(-2872.086 -923.25)" fill="#12263f"/>
        <path id="Trazado_625369" data-name="Trazado 625369" d="M2902.67,831.967l-1.7,1.26-2.458-.518c.034-.224.2-1.153.344-1.995.009-.049.018-.1.027-.148.126-.716.236-1.331.236-1.331l2.3-1.144.856-.427c0,.015-.066.795-.075.908A7.359,7.359,0,0,0,2902.67,831.967Z" transform="translate(-2884.37 -820.869)" fill="#ee805f"/>
        <path id="Trazado_625370" data-name="Trazado 625370" d="M2893.952,868.232c-.556,2.544-12.458,1.427-12.3-.126.006-.052.037-.77.08-1.739.09-2.1.227-5.369.245-5.625,0,0,0-.009,0-.013.214-2.162.42-4.276.433-5.658a19.617,19.617,0,0,1,.4-3.534c.2-1.026.451-1.958.667-2.684a2.966,2.966,0,0,1,1.739-1.906,2.582,2.582,0,0,1,.288-.1,13.142,13.142,0,0,1,3.864-.755c1.422.418,2.48,2.923,3.228,6.116C2893.992,858.183,2894.316,866.574,2893.952,868.232Z" transform="translate(-2870.781 -835.695)" fill="#feca2e"/>
        <path id="Trazado_625371" data-name="Trazado 625371" d="M2903.448,830.379c-.5.965-2.383,1.8-3.166,2.106.009-.05.018-.1.026-.148.126-.716.236-1.331.236-1.331l2.3-1.144C2903.347,829.854,2903.656,829.982,2903.448,830.379Z" transform="translate(-2885.797 -822.639)" fill="#de6b4d"/>
        <path id="Trazado_625372" data-name="Trazado 625372" d="M2893.737,806.77s4.142,1.292,4.906-1.3,1.815-4.171-.8-5.105-3.42-.1-3.886.705S2892.68,806.367,2893.737,806.77Z" transform="translate(-2880.106 -798.537)" fill="#ee805f"/>
        <path id="Trazado_625373" data-name="Trazado 625373" d="M2896.259,794.946s.264,3.016.888,2.885,1.189-.228,1.1.681-.956,1.959.967,2.12,4.685-4.8,4.157-5.735C2901.844,792.189,2894.056,791.643,2896.259,794.946Z" transform="translate(-2882.241 -792.664)" fill="#151f2c"/>
        <path id="Trazado_625374" data-name="Trazado 625374" d="M2882.066,909.792c.09-2.1.228-5.369.246-5.625,0,0,0-.009,0-.013l7.031-4.2S2889.617,909.764,2882.066,909.792Z" transform="translate(-2871.118 -879.119)" fill="#dfb021"/>
        <path id="Trazado_625375" data-name="Trazado 625375" d="M2838.758,900.429a18.567,18.567,0,0,0-1.7-1.051,3.565,3.565,0,0,0-1.2-.106c-.041.07-.163.284-.008.357s.349.047.291.1-.642-.227-.777.07-.253,1.318.432,1.628a7.85,7.85,0,0,0,2.5.065C2839.329,901.792,2838.758,900.429,2838.758,900.429Z" transform="translate(-2833.398 -878.554)" fill="#ee805f"/>
        <path id="Trazado_625376" data-name="Trazado 625376" d="M2851.342,867.834s6.975,1.186,7.593.885c.986-.48-.383-7.557-.383-7.557a2.035,2.035,0,0,1,1.814-1.982,4.508,4.508,0,0,1,3.2.891,3.677,3.677,0,0,1,1.246,2.7c-.4,3.142-1.034,9.534-3.136,10.513-2.711,1.264-10.555-3.5-10.555-3.5a1.371,1.371,0,0,1-.225-.914A2.136,2.136,0,0,1,2851.342,867.834Z" transform="translate(-2845.996 -846.221)" fill="#feca2e"/>
        <path id="Trazado_625377" data-name="Trazado 625377" d="M2826.856,811.641s-.446-.887-.518-1.054.1-.131.274-.038.406.608.671.546C2827.494,811.046,2826.856,811.641,2826.856,811.641Z" transform="translate(-2826.196 -807.014)" fill="#ee805f"/>
      </g>
    </g>
    <g id="Grupo_109292" data-name="Grupo 109292" transform="translate(99 127.3)">
      <path id="Trazado_116791" data-name="Trazado 116791" d="M218.062,0V187.241s3.257,65.172-61.492,64.815S0,252.057,0,252.057" transform="translate(1160.967 722.762) rotate(180)" fill="none" stroke="#4dd0e1" stroke-width="4"/>
      <path id="Trazado_116792" data-name="Trazado 116792" d="M42.954,28.265,28.183,43.079a7.841,7.841,0,0,1-11.111,0L2.3,28.265a7.9,7.9,0,0,1,0-11.144L17.072,2.308a7.841,7.841,0,0,1,11.111,0L42.954,17.121A7.9,7.9,0,0,1,42.954,28.265Z" transform="translate(966.256 748.34) rotate(180)" fill="#4dd0e1" opacity="0.999"/>
      <path id="Trazado_116793" data-name="Trazado 116793" d="M26.426,17.389,17.339,26.5a4.824,4.824,0,0,1-6.836,0L1.416,17.389a4.858,4.858,0,0,1,0-6.856L10.5,1.42a4.824,4.824,0,0,1,6.836,0l9.087,9.114A4.858,4.858,0,0,1,26.426,17.389Z" transform="translate(1174.889 484.666) rotate(180)" fill="#4dd0e1" opacity="0.999"/>
    </g>
    <g id="Rectángulo_303868" data-name="Rectángulo 303868" transform="translate(1069.376 618)" fill="none" stroke="#0b5999" stroke-width="4">
      <rect width="351" height="270" rx="38" stroke="none"/>
      <rect x="2" y="2" width="347" height="266" rx="36" fill="none"/>
    </g>
  </g>
</svg>
