<svg xmlns="http://www.w3.org/2000/svg" width="149" height="149" viewBox="0 0 149 149">
  <g id="Grupo_906779" data-name="Grupo 906779" transform="translate(-727 -8357.471)">
    <circle id="Elipse_6511" data-name="Elipse 6511" cx="74.5" cy="74.5" r="74.5" transform="translate(727 8357.471)" fill="#0b5999"/>
    <g id="Grupo_901826" data-name="Grupo 901826" transform="translate(1125.196 8198.786)">
      <path id="Trazado_630141" data-name="Trazado 630141" d="M-301.152,245.942h23.481v27.971h-.778q-43.668,0-87.335,0c-4.315,0-7.446-2.556-8.146-6.653a8.776,8.776,0,0,1-.088-1.451q-.01-5.877,0-11.755a7.768,7.768,0,0,1,8.116-8.123c5.113-.009,10.227,0,15.209,0a54.4,54.4,0,0,1,.04-5.8,37.416,37.416,0,0,1,1.378-7.993c1.965-5.773,6.232-9.016,12.262-9.925,1.663-.251,3.329-.486,4.991-.744.939-.146,1.171-.377,1.461-1.288a25.066,25.066,0,0,1-3.191-2.665,20.707,20.707,0,0,1-2.25-3.579c-.22-.393-.337-.643-.867-.671a6.172,6.172,0,0,1-6.054-6.394c-.012-2.4-.017-4.793.01-7.189a.91.91,0,0,0-.575-.953,4.4,4.4,0,0,1-2.519-4.443,4.641,4.641,0,0,1,3.108-4.093,1.662,1.662,0,0,0,.808-.9,17.239,17.239,0,0,1,16.656-11.764,17.129,17.129,0,0,1,15.741,11.5,1.871,1.871,0,0,0,1.189,1.325,4.318,4.318,0,0,1,2.871,4.019,4.374,4.374,0,0,1-2.437,4.3,1.05,1.05,0,0,0-.662,1.1c.029,2.364.023,4.728.01,7.091a6.248,6.248,0,0,1-6.05,6.433,1.018,1.018,0,0,0-.753.474,11.3,11.3,0,0,1-5.6,6.218,1.511,1.511,0,0,0,1.4,1.466c2.015.3,4.044.533,6.044.915a14.778,14.778,0,0,1,12.112,12.941c.309,2.562.455,5.146.6,7.724A24.088,24.088,0,0,1-301.152,245.942Zm-40.67,24.787h32c-2.691-3.083-2.7-5.61-.079-9.186H-341.79C-339.143,264.874-339.147,267.585-341.822,270.73Zm8.226-66.843c0,2.23-.03,4.335.007,6.438a7.791,7.791,0,0,0,7.065,7.6,7.553,7.553,0,0,0,8.256-6.318,60.539,60.539,0,0,0,.061-7.729,17.582,17.582,0,0,1-7.343-2.527.7.7,0,0,0-.6.033A17.458,17.458,0,0,1-333.6,203.886Zm15.543,37.444H-333.6a34.849,34.849,0,0,1-.041,4.809,5.076,5.076,0,0,0,2.658,5.62,2.1,2.1,0,0,0,.931.37c2.817.029,5.634.02,8.451.014a10.134,10.134,0,0,0,3.537-2.8,1.318,1.318,0,0,0,.009-.291C-318.053,246.5-318.053,243.949-318.053,241.33Zm-9.358-54.523v-6c-4.852.2-10.847,5.01-11.424,9.091h5.275v-2.977h3.1v2.988h9.314v-3h3.134v3.008h5.206c-.7-4.233-7.222-9.378-11.479-9.032v5.92Zm7.838,51.383h4.666v8.656a32.267,32.267,0,0,0,2.491-2.238,2.408,2.408,0,0,0,.556-1.486q.059-8.2,0-16.4a1.028,1.028,0,0,0-.572-.786c-2.347-.508-4.709-.947-7.142-1.42Zm-17.118,8.7v-8.788h4.608V224.566l-7.729,1.348c0,5.948-.011,11.639.022,17.331a2.088,2.088,0,0,0,.5,1.315C-338.546,245.341-337.689,246.013-336.691,246.894Zm10.9-53.824h-14.75a8.387,8.387,0,0,0-.97.016,1.522,1.522,0,0,0-1.4,1.577,1.5,1.5,0,0,0,1.384,1.5,5.389,5.389,0,0,0,.872.018h29.695a4.82,4.82,0,0,0,.872-.022,1.473,1.473,0,0,0,1.348-1.523,1.469,1.469,0,0,0-1.33-1.538,4.633,4.633,0,0,0-.871-.024Zm3.076,45.056c0-4.838,0-9.592-.005-14.346a1.064,1.064,0,0,0-.126-.546c-.477-.752-.981-1.487-1.478-2.231h-3.087a8.669,8.669,0,0,1-.961,1.682,2.343,2.343,0,0,0-.571,1.756c.018,4.24.009,8.481.009,12.722v.963Zm-17.334,20.218c-1.471-1.263-2.758-2.38-4.058-3.482-1.9-1.611-3.848-3.174-5.028-5.453a.713.713,0,0,0-.5-.353c-1.894-.025-3.789-.016-5.668-.016v9.3Zm43.733-9.3c-1.906,0-3.715-.022-5.522.024a1.36,1.36,0,0,0-.785.528c-1.094,1.264-2.067,2.647-3.258,3.807-1.526,1.485-3.222,2.8-4.842,4.185-.245.21-.477.436-.789.722h15.2Zm-12.38-6.191a5.563,5.563,0,0,1-2.329,4.757q-3.752,3.221-7.51,6.434a2.416,2.416,0,0,0-1,2.549,2.347,2.347,0,0,0,3.939,1.06c2.6-2.182,5.166-4.4,7.728-6.626a12.84,12.84,0,0,0,1.692-1.724,9.67,9.67,0,0,0,2.1-6.45Zm-38.9,0a9.613,9.613,0,0,0,3.107,7.543c2.776,2.518,5.646,4.935,8.54,7.317a3.1,3.1,0,0,0,1.957.561,2.01,2.01,0,0,0,1.847-1.612,2.237,2.237,0,0,0-.779-2.436c-2.223-1.925-4.43-3.871-6.7-5.74-1.809-1.49-3.5-3-3.295-5.632Zm58.72,27.9h8.069v-9.267h-8.144C-286.272,265.1-286.27,266.922-288.874,270.742Zm8.058-12.419V249.08h-6.068v9.243Zm-90.09,1.437a20.934,20.934,0,0,1,2.926-1.159,22.989,22.989,0,0,1,3.227-.331v-9.22c-.668,0-1.28-.038-1.887.007a4.627,4.627,0,0,0-4.254,4.4C-370.952,255.556-370.905,257.658-370.905,259.761Zm8.248,1.736c-1.469,0-2.791-.083-4.1.019a4.647,4.647,0,0,0-4.124,4.014,4.651,4.651,0,0,0,2.861,4.9c1.728.694,3.515.246,5.449.4C-365.363,267.726-365.372,264.76-362.658,261.5Zm19.714-33.351c-3.769,3.07-4.123,7.3-4.581,11.5h4.581Zm38.823,11.531c-.47-4.273-.846-8.489-4.544-11.5V239.71c1.384,0,2.707,0,4.031,0C-304.476,239.708-304.317,239.69-304.122,239.678Zm-51.245,26.543a3.127,3.127,0,0,0-2.979-3.188,3.12,3.12,0,0,0-3.238,3.025,3.123,3.123,0,0,0,3.074,3.19A3.126,3.126,0,0,0-355.366,266.221Zm9.281-3.19a3.119,3.119,0,0,0-3.06,3.107,3.119,3.119,0,0,0,3.155,3.11,3.122,3.122,0,0,0,3.061-3.108A3.119,3.119,0,0,0-346.085,263.031Zm37.361,3.058a3.126,3.126,0,0,0,3.009,3.159,3.124,3.124,0,0,0,3.207-3.058,3.124,3.124,0,0,0-3.01-3.158A3.118,3.118,0,0,0-308.724,266.088Zm15.576,3.159a3.122,3.122,0,0,0,3.078-3.091,3.117,3.117,0,0,0-3.139-3.125,3.119,3.119,0,0,0-3.077,3.09A3.118,3.118,0,0,0-293.147,269.248Zm-68.385-20.174v9.238h3.007v-9.238Zm71.4,9.263V249.1h-2.99v9.235Zm-32.229-.006-.457-3.02h-6.016c-.163,1.04-.315,2.015-.472,3.02Zm7.456-48.195a3.093,3.093,0,0,0,3.06-3.315,2.941,2.941,0,0,0-3.06-2.759Zm-21.839-6.127a3.028,3.028,0,0,0-3.077,3.062,3,3,0,0,0,3.077,3.023Zm14.389-4.677-.068.267c1.245.351,2.481.743,3.738,1.044,2.217.53,4.618-.3,6.789,1.034v-2.345Zm-17.428,1.986c1.541-.165,3-.3,4.449-.481,1.4-.177,2.813-.354,4.2-.627a11.133,11.133,0,0,0,1.9-.736l-.069-.124h-10.476Zm-10.642,69.446-1.827-3.239-1.854,3.239Zm51.019-3.242-1.816,3.221h3.64Zm-54.718-6.033,1.862,3.179,1.881-3.179Zm56.553.059h-3.655l1.825,3.148Z" transform="translate(0)" fill="#010101"/>
      <path id="Trazado_630142" data-name="Trazado 630142" d="M-249.986,510.333c2.675-3.145,2.678-5.855.031-9.186h31.893c-2.619,3.576-2.613,6.1.079,9.186Z" transform="translate(-91.836 -239.603)" fill="#cbd0d8"/>
      <path id="Trazado_630143" data-name="Trazado 630143" d="M-218.335,271.665a17.458,17.458,0,0,0,7.442-2.507.7.7,0,0,1,.6-.033,17.582,17.582,0,0,0,7.343,2.527,60.545,60.545,0,0,1-.061,7.729,7.553,7.553,0,0,1-8.256,6.318,7.791,7.791,0,0,1-7.065-7.6C-218.364,276-218.335,273.9-218.335,271.665Zm3.134,7.862a4.649,4.649,0,0,0,4.851,4.636,4.568,4.568,0,0,0,4.377-4.624h-2.988c-.192.833-.614,1.465-1.53,1.5-1.011.042-1.468-.638-1.693-1.515Zm10.848-4.666a1.562,1.562,0,0,0-1.5-1.57,1.56,1.56,0,0,0-1.594,1.478,1.562,1.562,0,0,0,1.55,1.62A1.565,1.565,0,0,0-204.353,274.861Zm-10.884,1.528a1.566,1.566,0,0,0,1.555-1.519,1.562,1.562,0,0,0-1.494-1.579,1.557,1.557,0,0,0-1.6,1.566A1.561,1.561,0,0,0-215.236,276.389Z" transform="translate(-115.261 -67.778)" fill="#edcdb1"/>
      <path id="Trazado_630144" data-name="Trazado 630144" d="M-203.114,423.29c0,2.619,0,5.173,0,7.728a1.32,1.32,0,0,1-.009.291,10.135,10.135,0,0,1-3.537,2.8c-2.817.006-5.634.015-8.451-.014a2.1,2.1,0,0,1-.932-.37,5.076,5.076,0,0,1-2.658-5.62,34.844,34.844,0,0,0,.041-4.809Z" transform="translate(-114.939 -181.96)" fill="#d29f6b"/>
      <path id="Trazado_630145" data-name="Trazado 630145" d="M-227.058,196.174h3.126v-5.92c4.256-.346,10.776,4.8,11.479,9.032h-5.206v-3.008h-3.134v3h-9.314v-2.988h-3.1v2.977h-5.275c.577-4.081,6.572-8.891,11.424-9.091Z" transform="translate(-100.353 -9.366)" fill="#fd816d"/>
      <path id="Trazado_630146" data-name="Trazado 630146" d="M-164.29,372.2V358.524c2.433.473,4.795.912,7.142,1.42a1.028,1.028,0,0,1,.572.786q.049,8.2,0,16.4a2.407,2.407,0,0,1-.556,1.486,32.252,32.252,0,0,1-2.491,2.238V372.2Z" transform="translate(-155.283 -134.008)" fill="#b3dc7e"/>
      <path id="Trazado_630147" data-name="Trazado 630147" d="M-239.13,381.046c-1-.88-1.855-1.553-2.6-2.334a2.088,2.088,0,0,1-.5-1.315c-.033-5.691-.022-11.383-.022-17.331l7.729-1.348v13.539h-4.608Z" transform="translate(-97.561 -134.152)" fill="#b3dc7e"/>
      <path id="Trazado_630148" data-name="Trazado 630148" d="M-237.082,237.378h14.847a4.633,4.633,0,0,1,.871.024,1.469,1.469,0,0,1,1.33,1.538,1.473,1.473,0,0,1-1.348,1.523,4.82,4.82,0,0,1-.872.022h-29.695a5.391,5.391,0,0,1-.872-.018,1.5,1.5,0,0,1-1.384-1.5,1.522,1.522,0,0,1,1.4-1.577,8.384,8.384,0,0,1,.97-.016Z" transform="translate(-88.711 -44.308)" fill="#fa6d50"/>
      <path id="Trazado_630149" data-name="Trazado 630149" d="M-194.158,362.117h-6.218v-.963c0-4.241.009-8.481-.009-12.722a2.343,2.343,0,0,1,.571-1.756,8.67,8.67,0,0,0,.961-1.682h3.087c.5.744,1,1.479,1.477,2.231a1.064,1.064,0,0,1,.126.546C-194.157,352.525-194.158,357.279-194.158,362.117Z" transform="translate(-128.559 -123.992)" fill="#fad66f"/>
      <path id="Trazado_630150" data-name="Trazado 630150" d="M-286.655,462.285h-15.251v-9.3c1.879,0,3.774-.009,5.668.016a.713.713,0,0,1,.5.353c1.18,2.278,3.128,3.841,5.028,5.453C-289.414,459.905-288.126,461.022-286.655,462.285Z" transform="translate(-53.395 -203.942)" fill="#a9b1bc"/>
      <path id="Trazado_630151" data-name="Trazado 630151" d="M-118.05,452.965v9.265h-15.2c.312-.286.544-.511.79-.722,1.62-1.389,3.316-2.7,4.842-4.185,1.192-1.16,2.164-2.543,3.258-3.807a1.36,1.36,0,0,1,.785-.528C-121.765,452.942-119.956,452.965-118.05,452.965Z" transform="translate(-178.268 -203.926)" fill="#a9b1bc"/>
      <path id="Trazado_630152" data-name="Trazado 630152" d="M-153.515,429.134h4.628a9.67,9.67,0,0,1-2.1,6.45,12.837,12.837,0,0,1-1.692,1.724c-2.562,2.225-5.13,4.444-7.728,6.626a2.347,2.347,0,0,1-3.939-1.06,2.416,2.416,0,0,1,1-2.549q3.765-3.2,7.509-6.434A5.563,5.563,0,0,0-153.515,429.134Z" transform="translate(-155.183 -186.287)" fill="#edcdb1"/>
      <path id="Trazado_630153" data-name="Trazado 630153" d="M-272.219,429.132h4.676c-.205,2.63,1.486,4.142,3.295,5.632,2.27,1.87,4.477,3.815,6.7,5.74a2.237,2.237,0,0,1,.779,2.436,2.01,2.01,0,0,1-1.847,1.612,3.1,3.1,0,0,1-1.957-.561c-2.893-2.383-5.763-4.8-8.54-7.317A9.612,9.612,0,0,1-272.219,429.132Z" transform="translate(-75.375 -186.285)" fill="#edcdb1"/>
      <path id="Trazado_630154" data-name="Trazado 630154" d="M-46.256,510.152c2.6-3.821,2.6-5.645-.075-9.267h8.144v9.267Z" transform="translate(-242.618 -239.409)" fill="#cbd0d8"/>
      <path id="Trazado_630155" data-name="Trazado 630155" d="M-32.309,462.385h-6.068v-9.244h6.068Z" transform="translate(-248.507 -204.061)" fill="#a9b1bc"/>
      <path id="Trazado_630156" data-name="Trazado 630156" d="M-362.059,463.7c0-2.1-.046-4.205.013-6.3a4.627,4.627,0,0,1,4.254-4.4c.606-.045,1.219-.007,1.887-.007v9.22a22.988,22.988,0,0,0-3.227.331A20.933,20.933,0,0,0-362.059,463.7Z" transform="translate(-8.846 -203.934)" fill="#a9b1bc"/>
      <path id="Trazado_630157" data-name="Trazado 630157" d="M-353.811,500.878c-2.715,3.262-2.705,6.229.088,9.333-1.934-.15-3.722.3-5.449-.4a4.651,4.651,0,0,1-2.861-4.9,4.647,4.647,0,0,1,4.124-4.014C-356.6,500.8-355.279,500.878-353.811,500.878Z" transform="translate(-8.847 -239.381)" fill="#cbd0d8"/>
      <path id="Trazado_630158" data-name="Trazado 630158" d="M-267.373,372.509v11.5h-4.581C-271.5,379.808-271.142,375.579-267.373,372.509Z" transform="translate(-75.571 -144.362)" fill="#f9d46e"/>
      <path id="Trazado_630159" data-name="Trazado 630159" d="M-117.732,384.128c-.2.012-.354.031-.513.031-1.324,0-2.648,0-4.031,0V372.627C-118.578,375.639-118.2,379.854-117.732,384.128Z" transform="translate(-186.39 -144.45)" fill="#f9d46e"/>
      <path id="Trazado_630160" data-name="Trazado 630160" d="M-319.887,510.064a3.126,3.126,0,0,1-3.142,3.027,3.123,3.123,0,0,1-3.074-3.19,3.119,3.119,0,0,1,3.238-3.025A3.127,3.127,0,0,1-319.887,510.064Z" transform="translate(-35.479 -243.843)" fill="#636a75"/>
      <path id="Trazado_630161" data-name="Trazado 630161" d="M-275.135,506.875a3.119,3.119,0,0,1,3.156,3.109,3.122,3.122,0,0,1-3.061,3.108,3.119,3.119,0,0,1-3.155-3.11A3.119,3.119,0,0,1-275.135,506.875Z" transform="translate(-70.95 -243.844)" fill="#636a75"/>
      <path id="Trazado_630162" data-name="Trazado 630162" d="M-122.5,509.931a3.118,3.118,0,0,1,3.207-3.057,3.124,3.124,0,0,1,3.01,3.158,3.124,3.124,0,0,1-3.207,3.058A3.126,3.126,0,0,1-122.5,509.931Z" transform="translate(-186.224 -243.843)" fill="#636a75"/>
      <path id="Trazado_630163" data-name="Trazado 630163" d="M-71.454,513.092a3.118,3.118,0,0,1-3.139-3.126,3.119,3.119,0,0,1,3.077-3.09A3.117,3.117,0,0,1-68.376,510,3.122,3.122,0,0,1-71.454,513.092Z" transform="translate(-221.694 -243.845)" fill="#636a75"/>
      <path id="Trazado_630164" data-name="Trazado 630164" d="M-325.907,453.114h3.007v9.238h-3.007Z" transform="translate(-35.625 -204.041)" fill="#fd816d"/>
      <path id="Trazado_630165" data-name="Trazado 630165" d="M-59.4,462.458h-2.99v-9.235h2.99Z" transform="translate(-230.728 -204.122)" fill="#fd816d"/>
      <path id="Trazado_630166" data-name="Trazado 630166" d="M-194.819,480.158h-6.945l.472-3.02h6.016Z" transform="translate(-127.538 -221.828)" fill="#a9b1bc"/>
      <path id="Trazado_630167" data-name="Trazado 630167" d="M-146.293,285.789q0-3.039,0-6.074a2.941,2.941,0,0,1,3.06,2.759A3.093,3.093,0,0,1-146.293,285.789Z" transform="translate(-168.608 -75.653)" fill="#eacbb0"/>
      <path id="Trazado_630168" data-name="Trazado 630168" d="M-239.187,279.535v6.085a3,3,0,0,1-3.077-3.023A3.028,3.028,0,0,1-239.187,279.535Z" transform="translate(-97.553 -75.526)" fill="#eacbb0"/>
      <path id="Trazado_630169" data-name="Trazado 630169" d="M-175.183,261.522h10.459v2.345c-2.171-1.337-4.572-.5-6.789-1.034-1.257-.3-2.493-.693-3.738-1.044Z" transform="translate(-147.168 -62.19)" fill="#636b76"/>
      <path id="Trazado_630170" data-name="Trazado 630170" d="M-242.119,263.56v-1.968h10.476l.069.124a11.135,11.135,0,0,1-1.9.736c-1.388.273-2.8.45-4.2.627C-239.121,263.261-240.578,263.4-242.119,263.56Z" transform="translate(-97.66 -62.242)" fill="#636b76"/>
      <path id="Trazado_630171" data-name="Trazado 630171" d="M-293.608,527.428h-3.682l1.854-3.239Z" transform="translate(-56.813 -256.663)" fill="#cbd0d8"/>
      <path id="Trazado_630172" data-name="Trazado 630172" d="M-91.774,524.176l1.825,3.221h-3.64Z" transform="translate(-207.628 -256.654)" fill="#cbd0d8"/>
      <path id="Trazado_630173" data-name="Trazado 630173" d="M-297.359,500.938h3.743l-1.881,3.179Z" transform="translate(-56.762 -239.449)" fill="#cbd0d8"/>
      <path id="Trazado_630174" data-name="Trazado 630174" d="M-89.951,501.166l-1.83,3.148-1.825-3.148Z" transform="translate(-207.616 -239.618)" fill="#cbd0d8"/>
      <path id="Trazado_630175" data-name="Trazado 630175" d="M-206.231,309.345h3.016c.225.878.682,1.557,1.693,1.515.916-.038,1.338-.67,1.53-1.5H-197a4.568,4.568,0,0,1-4.377,4.624A4.649,4.649,0,0,1-206.231,309.345Z" transform="translate(-124.231 -97.597)" fill="#030202"/>
      <path id="Trazado_630176" data-name="Trazado 630176" d="M-173.282,286.895a1.565,1.565,0,0,1-1.546,1.528,1.562,1.562,0,0,1-1.55-1.619,1.56,1.56,0,0,1,1.594-1.478A1.562,1.562,0,0,1-173.282,286.895Z" transform="translate(-146.332 -79.813)" fill="#030202"/>
      <path id="Trazado_630177" data-name="Trazado 630177" d="M-210.763,288.422a1.561,1.561,0,0,1-1.541-1.532,1.557,1.557,0,0,1,1.6-1.566,1.562,1.562,0,0,1,1.494,1.579A1.566,1.566,0,0,1-210.763,288.422Z" transform="translate(-119.734 -79.812)" fill="#030202"/>
    </g>
  </g>
</svg>
