<svg xmlns="http://www.w3.org/2000/svg" width="230" height="230" viewBox="0 0 230 230">
  <g id="Grupo_906809" data-name="Grupo 906809" transform="translate(-1105.521 -1354.355)">
    <circle id="Elipse_6748" data-name="Elipse 6748" cx="115" cy="115" r="115" transform="translate(1105.521 1354.355)" fill="#fff"/>
    <g id="Grupo_904682" data-name="Grupo 904682" transform="translate(1120.702 1007.024)">
      <path id="Trazado_633092" data-name="Trazado 633092" d="M155.151,453.636l2.165.289v4c1.375,0,2.645-.022,3.914.005,1.749.037,2.49.794,2.5,2.548q.021,3.854,0,7.709c-.012,1.673-.765,2.419-2.441,2.446-1.276.021-2.552,0-3.946,0v1.544q0,25.321,0,50.643c0,2.361-.648,3.02-2.969,3.023q-3.329,0-6.657,0c-2.552,0-3.156-.593-3.156-3.1q0-25.255,0-50.509v-1.552H114.732c0,2.412,0,4.872,0,7.333,0,2.651-.547,3.206-3.163,3.207H108.43v4.253c1.228,0,2.5-.014,3.762,0,1.738.023,2.524.795,2.535,2.517.017,2.614.021,5.228,0,7.842a2.129,2.129,0,0,1-2.368,2.394c-1.194.025-2.388.005-3.7.005l3.932,27.283-4.25.613c-1.331-9.291-2.653-18.52-3.985-27.819h-26.1q-1.989,13.8-4.008,27.81l-4.252-.6,3.937-27.246c-1.267,0-2.44.015-3.612,0-1.689-.027-2.443-.763-2.455-2.43q-.028-3.921,0-7.842a2.2,2.2,0,0,1,2.454-2.478c1.274-.039,2.55-.008,3.864-.008v-4.255c-1.387,0-2.71.026-4.031-.007a2.077,2.077,0,0,1-2.284-2.327c-.025-2.7-.007-5.4-.007-8.2H55.078v1.507q0,25.189,0,50.377c0,2.685-.556,3.229-3.3,3.229H45.657c-2.83,0-3.363-.521-3.363-3.293V470.838c-1.317,0-2.585.011-3.854,0-1.742-.02-2.522-.782-2.533-2.507q-.024-3.854,0-7.709c.01-1.795.781-2.539,2.631-2.54q14.247-.009,28.494,0h.742v-4.253c-1.885,0-3.818.007-5.752,0s-2.681-.734-2.681-2.627q-.009-18.608,0-37.217c0-1.975.734-2.688,2.751-2.688q29.227,0,58.453,0c1.987,0,2.706.728,2.707,2.736q.006,18.476,0,36.952c0,1.935-.706,2.667-2.623,2.693s-3.815.006-5.81.006v4.165h12.695v-1.374q0-27.448,0-54.9c0-2.442.606-3.043,3.065-3.043q11.917,0,23.834,0c2.27,0,2.928.655,2.928,2.916q0,19.207,0,38.414v1.15l-2.114.1-2.194-.1V402.876H131.846V457.83h21.3v-4.194Zm.017,12.9h4.21v-4.112H114.841v4.112h40.327Zm-44.767-27.5H72.222v37.894H110.4ZM63.645,449.465H67.86c0-4.089,0-8.073,0-12.058,0-2.006.716-2.723,2.719-2.723q20.7-.006,41.393,0c2.064,0,2.754.712,2.757,2.822q.007,5.381,0,10.762V449.5h4.182V415.624H63.645Zm-17,21.23v50.8h4.08v-50.8Zm102.241,0v50.88h4.1V470.7Zm-38.455,19.174H72.208v4.038h38.224ZM67.8,462.2H40.164v4.147H67.8Zm10.752,23.251h25.439V481.35H78.555Z" fill="#010101"/>
      <path id="Trazado_633093" data-name="Trazado 633093" d="M329.481,461.54h-2.007v4.194h-21.3V410.779h21.187v38.126l2.194.1q-.027,2-.054,4.009l-2.007.19v4.133l2.041.125Q329.508,459.5,329.481,461.54Zm-12.776.177a6.374,6.374,0,1,0-6.335-6.493A6.406,6.406,0,0,0,316.705,461.717Zm6.4-46.715H310.45v4.1h12.658Zm-12.675,12.592h12.628v-4.075H310.433Z" transform="translate(-174.33 -7.903)" fill="#b6b5b6"/>
      <path id="Trazado_633094" data-name="Trazado 633094" d="M368.273,534.2l-2.041-.125v-4.133l2.007-.19,2.117.185v4.119Z" transform="translate(-213.066 -84.643)" fill="#050505"/>
      <path id="Trazado_633095" data-name="Trazado 633095" d="M176.4,512.624v37.894H138.223V512.624Z" transform="translate(-66.001 -73.593)" fill="#6f777f"/>
      <path id="Trazado_633096" data-name="Trazado 633096" d="M114.061,480.53V446.689h55.27v33.877h-4.182v-1.234q0-5.381,0-10.762c0-2.109-.693-2.822-2.757-2.822q-20.7-.005-41.393,0c-2,0-2.715.717-2.719,2.723-.007,3.985,0,7.969,0,12.058Z" transform="translate(-50.417 -31.065)" fill="#4a8bdc"/>
      <path id="Trazado_633097" data-name="Trazado 633097" d="M66.177,601.816h4.08v50.8h-4.08Z" transform="translate(-19.531 -131.122)" fill="#e4e3e2"/>
      <path id="Trazado_633098" data-name="Trazado 633098" d="M354.176,601.822h4.1V652.7h-4.1Z" transform="translate(-205.29 -131.126)" fill="#e4e3e2"/>
      <path id="Trazado_633099" data-name="Trazado 633099" d="M290.165,582.629H258.276v-4.112h44.536v4.112H298.6a21.364,21.364,0,0,0-2.306-.2C294.252,582.458,292.209,582.557,290.165,582.629Z" transform="translate(-143.435 -116.094)" fill="#464a4d"/>
      <path id="Trazado_633100" data-name="Trazado 633100" d="M176.407,655.834v4.038H138.183v-4.038Z" transform="translate(-65.975 -165.963)" fill="#6c747c"/>
      <path id="Trazado_633101" data-name="Trazado 633101" d="M75.558,577.9v4.147H47.919V577.9Z" transform="translate(-7.755 -115.697)" fill="#464a4d"/>
      <path id="Trazado_633102" data-name="Trazado 633102" d="M156.063,635.936v-4.105H181.5v4.105Z" transform="translate(-77.508 -150.481)" fill="#e4e3e2"/>
      <path id="Trazado_633103" data-name="Trazado 633103" d="M348.1,589.729c2.044-.072,4.087-.171,6.132-.2a21.38,21.38,0,0,1,2.306.2Z" transform="translate(-201.373 -123.194)" fill="#6c747c"/>
      <path id="Trazado_633104" data-name="Trazado 633104" d="M324.325,531.1a6.374,6.374,0,1,1,6.435-6.257A6.411,6.411,0,0,1,324.325,531.1Zm0-8.5a2.125,2.125,0,1,0,2.183,2.04A2.134,2.134,0,0,0,324.323,522.609Z" transform="translate(-181.95 -77.291)" fill="#010101"/>
      <path id="Trazado_633105" data-name="Trazado 633105" d="M330.873,422.676v4.1H318.215v-4.1Z" transform="translate(-182.095 -15.577)" fill="#010101"/>
      <path id="Trazado_633106" data-name="Trazado 633106" d="M318.168,450.742v-4.075H330.8v4.075Z" transform="translate(-182.065 -31.051)" fill="#010101"/>
      <path id="Trazado_633107" data-name="Trazado 633107" d="M332.059,530.333a2.125,2.125,0,1,1-2.075,2.144A2.142,2.142,0,0,1,332.059,530.333Z" transform="translate(-189.686 -85.015)" fill="#eecb57"/>
    </g>
  </g>
</svg>
