<svg xmlns="http://www.w3.org/2000/svg" width="230" height="230" viewBox="0 0 230 230">
  <g id="Grupo_906807" data-name="Grupo 906807" transform="translate(-265 -1354.355)">
    <circle id="Elipse_6750" data-name="Elipse 6750" cx="115" cy="115" r="115" transform="translate(265 1354.355)" fill="#fff"/>
    <g id="Grupo_904686" data-name="Grupo 904686" transform="translate(648.712 1391.486)">
      <path id="Trazado_633331" data-name="Trazado 633331" d="M-336.969,120.694c2.684-5.223,5.183-10.553,8.11-15.636a26.618,26.618,0,0,0,3.4-14.129c-.208-21.372-.088-42.748-.087-64.122,0-3.627,1.44-5.079,5.043-5.079q54.914,0,109.828,0c3.6,0,5.043,1.455,5.043,5.079q0,35.128.025,70.256a5.808,5.808,0,0,0,.6,2.5c3.379,6.752,6.814,13.475,10.238,20.2.164.321.374.619.563.927v7.25c-1.237,2.867-3.507,3.634-6.485,3.631q-64.893-.078-129.786,0c-2.979,0-5.248-.764-6.486-3.631Zm56.37-3.353-.6,1.917h31.209l-.6-1.917c-.344-1.292-.757-2.57-1.009-3.88-.184-.954-.586-1.236-1.568-1.23-7.037.048-14.076.016-21.114.033-1.651,0-3.822-.519-4.812.317C-280.161,113.49-280.141,115.7-280.6,117.342Zm58.214-91.386c-.324-.014-.649-.039-.973-.039q-48.427,0-96.854,0c-.357,0-.713.044-1.151.073v1.591q0,24.112,0,48.225,0,9.338.033,18.675v2.247H-209.9V25.955ZM-330.4,117.327l-1.031,1.921h45.945l.4-1.9c.554-1.907,1.115-3.813,1.66-5.722.727-2.545,1.976-3.548,4.6-3.552q13.232-.022,26.465,0c2.625,0,3.874,1.007,4.6,3.552.545,1.91,1.107,3.815,1.66,5.722l.4,1.866h45.941c-3.032-5.987-5.993-11.854-8.993-17.7a1.29,1.29,0,0,0-.973-.54c-4.407-.013-8.815.023-13.222.046-.463-.022-.926-.062-1.388-.062q-48.231,0-96.461,0c-.186,0-.4-.062-.551.012-.407.2-.97.368-1.148.715C-325.162,106.884-327.776,112.109-330.4,117.327Zm131.909,6.277H-332.766c0,.371,0,.646,0,.921.021,2.984-.373,2.808,2.73,2.807q64.1,0,128.208-.015C-198.188,127.316-198.275,128.2-198.493,123.6Z" fill="#020202"/>
      <path id="Trazado_633332" data-name="Trazado 633332" d="M-233.821,265.408c-.554-1.908-1.115-3.813-1.66-5.723-.727-2.545-1.976-3.548-4.6-3.552q-13.232-.022-26.465,0c-2.626,0-3.875,1.007-4.6,3.552-.545,1.91-1.106,3.815-1.66,5.723l-45.317-.025c2.626-5.218,5.24-10.443,7.906-15.641.177-.346.741-.512,1.148-.715.149-.074.366-.012.551-.012q48.231,0,96.461,0c.462,0,.925.041,1.388.062,2.008,3.963,4.032,7.918,6.019,11.891,1.343,2.685.247,4.431-2.751,4.432Q-220.612,265.41-233.821,265.408Z" transform="translate(-12.276 -148.055)" fill="#9dbdcb"/>
      <path id="Trazado_633333" data-name="Trazado 633333" d="M-292.157,102.308q-.017-9.337-.033-18.675-.007-24.113,0-48.225V33.817c.438-.029.795-.073,1.151-.073q48.427,0,96.854,0c.324,0,.649.025.973.039q.008,2.188.016,4.375c-.556.014-1.112.04-1.668.04q-44.284,0-88.568,0c-3.093,0-4.3,1.2-4.3,4.276,0,6.825.022,13.649-.018,20.474-.009,1.525.538,2.49,2.059,2.824q0,3.447-.006,6.895c-1.508.251-2.052,1.191-2.047,2.66.025,6.737.011,13.474.011,20.211,0,3.639.97,4.6,4.635,4.6q44.11,0,88.22,0c.556,0,1.113.031,1.669.047-.129,1.6-.81,2.152-2.713,2.152q-47.56,0-95.122,0C-291.416,102.343-291.787,102.321-292.157,102.308Z" transform="translate(-29.17 -7.827)" fill="#dee9ee"/>
      <path id="Trazado_633334" data-name="Trazado 633334" d="M-193.132,38.232q-.008-2.187-.016-4.375h12.481V104.63H-292.091v-2.247c.371.012.742.035,1.113.035q47.561,0,95.122,0c1.9,0,2.584-.547,2.713-2.152,1.434-.023,2.868-.043,4.3-.07,2.533-.048,3.776-1.249,3.782-3.756.018-7.044,0-14.089.014-21.133a2.261,2.261,0,0,0-2-2.551q0-3.462,0-6.925c1.5-.372,2.029-1.339,2.019-2.86-.045-6.907-.012-13.816-.023-20.723,0-2.644-1.271-3.91-3.908-3.958C-190.354,38.266-191.743,38.252-193.132,38.232Z" transform="translate(-29.237 -7.902)" fill="#9dbdcb"/>
      <path id="Trazado_633335" data-name="Trazado 633335" d="M-190.648,314.034c.217,4.6.3,3.711-3.335,3.713q-64.1.032-128.208.015c-3.1,0-2.709.177-2.73-2.807,0-.275,0-.55,0-.921Z" transform="translate(-7.845 -190.429)" fill="#83a9b7"/>
      <path id="Trazado_633336" data-name="Trazado 633336" d="M-76.236,265.484q13.209,0,26.417-.005c3,0,4.094-1.747,2.751-4.432-1.987-3.973-4.011-7.928-6.019-11.891,4.407-.023,8.815-.059,13.222-.046a1.29,1.29,0,0,1,.973.54c3,5.846,5.962,11.713,8.993,17.7H-75.839Z" transform="translate(-169.86 -148.131)" fill="#83a9b7"/>
      <path id="Trazado_633337" data-name="Trazado 633337" d="M-175.231,286.28c.458-1.642.438-3.851,1.514-4.759.991-.836,3.161-.313,4.812-.317,7.038-.017,14.076.015,21.114-.033.982-.007,1.384.276,1.568,1.23.252,1.309.665,2.588,1.009,3.879Z" transform="translate(-105.368 -168.938)" fill="#dde8ed"/>
      <path id="Trazado_633338" data-name="Trazado 633338" d="M-320.052,296.023l45.317.025-.4,1.9h-45.945Z" transform="translate(-10.349 -178.696)" fill="#83a9b7"/>
      <path id="Trazado_633339" data-name="Trazado 633339" d="M-176.345,296.063h30.017l.6,1.917h-31.209Z" transform="translate(-104.254 -178.722)" fill="#9dbdcb"/>
      <path id="Trazado_633340" data-name="Trazado 633340" d="M-273.559,88.827q0-3.447.006-6.895c1.842-.606,2.142-1.021,2.143-3.036q.006-9.407,0-18.815V58.544h1.294q43.964,0,87.928,0c.37,0,.741.032,1.111.049q.008,24.177.013,48.353c0,1.528-.268,1.756-1.964,1.756q-44.166,0-88.332,0-.025-8.593-.053-17.185C-271.42,89.788-271.9,89.213-273.559,88.827Z" transform="translate(-41.31 -23.985)" fill="#35e4e4"/>
      <path id="Trazado_633341" data-name="Trazado 633341" d="M-184.913,50.691c-.37-.017-.741-.049-1.111-.049q-43.964,0-87.928,0h-1.294v1.537q0,9.407,0,18.815c0,2.015-.3,2.43-2.143,3.036-1.52-.334-2.067-1.3-2.059-2.824.04-6.825.015-13.649.018-20.474,0-3.075,1.206-4.276,4.3-4.276q44.284,0,88.568,0c.556,0,1.112-.026,1.668-.04,1.389.019,2.778.033,4.167.059,2.637.048,3.9,1.314,3.908,3.958.011,6.908-.022,13.816.023,20.723.01,1.521-.52,2.488-2.018,2.86-1.807-.54-2.168-1-2.17-2.859q-.011-9.476,0-18.951V50.691Z" transform="translate(-37.472 -16.08)" fill="#020202"/>
      <path id="Trazado_633342" data-name="Trazado 633342" d="M-277.385,145.432c1.66.387,2.139.961,2.147,2.688q.039,8.593.053,17.185v3.338h94.206v-1.569q0-9.407,0-18.814c0-1.878.464-2.456,2.173-2.815a2.261,2.261,0,0,1,2,2.551c-.017,7.044,0,14.089-.014,21.133-.006,2.507-1.249,3.708-3.782,3.756-1.434.027-2.868.047-4.3.07-.556-.016-1.113-.047-1.669-.047q-44.11,0-88.22,0c-3.665,0-4.635-.963-4.635-4.6,0-6.737.014-13.474-.011-20.211C-279.437,146.623-278.893,145.683-277.385,145.432Z" transform="translate(-37.484 -80.59)" fill="#010303"/>
      <path id="Trazado_633343" data-name="Trazado 633343" d="M-170.864,88.935c-1.709.359-2.171.937-2.173,2.815q-.01,9.407,0,18.814v1.569h-94.206v-3.338q44.166,0,88.332,0c1.7,0,1.964-.227,1.964-1.756q0-24.177-.013-48.353h3.923V60.2q0,9.476,0,18.951c0,1.863.364,2.319,2.17,2.859Q-170.865,85.472-170.864,88.935Z" transform="translate(-45.423 -24.08)" fill="#28ccc8"/>
    </g>
  </g>
</svg>
