<svg xmlns="http://www.w3.org/2000/svg" width="295" height="222.739" viewBox="0 0 295 222.739">
  <g id="Grupo_906817" data-name="Grupo 906817" transform="translate(-180 -466.044)">
    <g id="Grupo_905929" data-name="Grupo 905929" transform="translate(180 411.091)">
      <g id="Background_Complete" data-name="Background Complete" transform="translate(0 54.953)">
        <g id="Grupo_905889" data-name="Grupo 905889" transform="translate(0 0)">
          <rect id="Rectángulo_303714" data-name="Rectángulo 303714" width="295" height="0.148" transform="translate(0 193.193)" fill="#ebebeb"/>
          <rect id="Rectángulo_303715" data-name="Rectángulo 303715" width="19.542" height="0.148" transform="translate(245.9 202.689)" fill="#ebebeb"/>
          <rect id="Rectángulo_303716" data-name="Rectángulo 303716" width="5.129" height="0.148" transform="translate(190.291 204.29)" fill="#ebebeb"/>
          <rect id="Rectángulo_303717" data-name="Rectángulo 303717" width="11.324" height="0.148" transform="translate(233.986 197.211)" fill="#ebebeb"/>
          <rect id="Rectángulo_303718" data-name="Rectángulo 303718" width="25.484" height="0.148" transform="translate(30.951 198.202)" fill="#ebebeb"/>
          <rect id="Rectángulo_303719" data-name="Rectángulo 303719" width="3.736" height="0.148" transform="translate(61.688 198.202)" fill="#ebebeb"/>
          <rect id="Rectángulo_303720" data-name="Rectángulo 303720" width="55.269" height="0.148" transform="translate(77.568 200.693)" fill="#ebebeb"/>
          <path id="Trazado_636321" data-name="Trazado 636321" d="M155.5,221.833H41.575a3.372,3.372,0,0,1-3.368-3.368V58.32a3.371,3.371,0,0,1,3.368-3.367H155.5a3.371,3.371,0,0,1,3.367,3.367V218.465A3.372,3.372,0,0,1,155.5,221.833ZM41.575,55.1a3.223,3.223,0,0,0-3.22,3.22V218.465a3.224,3.224,0,0,0,3.22,3.22H155.5a3.223,3.223,0,0,0,3.22-3.22V58.32a3.223,3.223,0,0,0-3.22-3.22Z" transform="translate(-15.665 -54.953)" fill="#ebebeb"/>
          <path id="Trazado_636322" data-name="Trazado 636322" d="M371.8,221.833H257.872a3.371,3.371,0,0,1-3.367-3.368V58.32a3.371,3.371,0,0,1,3.367-3.367H371.8a3.371,3.371,0,0,1,3.368,3.367V218.465A3.372,3.372,0,0,1,371.8,221.833ZM257.872,55.1a3.223,3.223,0,0,0-3.22,3.22V218.465a3.223,3.223,0,0,0,3.22,3.22H371.8a3.224,3.224,0,0,0,3.221-3.22V58.32A3.224,3.224,0,0,0,371.8,55.1Z" transform="translate(-104.347 -54.953)" fill="#ebebeb"/>
        </g>
        <g id="Grupo_905894" data-name="Grupo 905894" transform="translate(25.91 4.577)">
          <g id="Grupo_905891" data-name="Grupo 905891" transform="translate(219.621)">
            <g id="Grupo_905890" data-name="Grupo 905890">
              <path id="Trazado_636323" data-name="Trazado 636323" d="M432.1,71.95V69.417l-1.3-.123a6.772,6.772,0,0,0-.973-2.341l.838-1.012-1.791-1.792-1.012.838a6.776,6.776,0,0,0-2.34-.972L425.4,62.71h-2.533l-.123,1.305a6.774,6.774,0,0,0-2.341.972l-1.012-.838-1.792,1.792.838,1.012a6.764,6.764,0,0,0-.973,2.341l-1.305.123V71.95l1.3.123a6.779,6.779,0,0,0,.974,2.34l-.838,1.012,1.792,1.791,1.012-.838a6.764,6.764,0,0,0,2.341.973l.123,1.3H425.4l.123-1.3a6.777,6.777,0,0,0,2.34-.973l1.012.838,1.791-1.791-.838-1.012a6.774,6.774,0,0,0,.973-2.34Zm-7.973,2.164a3.43,3.43,0,1,1,3.43-3.43A3.43,3.43,0,0,1,424.128,74.114Z" transform="translate(-416.155 -62.71)" fill="#e0e0e0"/>
              <path id="Trazado_636324" data-name="Trazado 636324" d="M451.9,85.461V83.475l-1.022-.1a5.307,5.307,0,0,0-.762-1.834l.657-.793-1.4-1.4-.793.657a5.309,5.309,0,0,0-1.834-.762l-.1-1.022h-1.986l-.1,1.022a5.309,5.309,0,0,0-1.834.762l-.793-.657-1.4,1.4.657.793a5.312,5.312,0,0,0-.762,1.834l-1.022.1v1.986l1.022.1a5.312,5.312,0,0,0,.762,1.834l-.657.793,1.4,1.4.793-.657a5.31,5.31,0,0,0,1.834.762l.1,1.022h1.986l.1-1.022a5.309,5.309,0,0,0,1.834-.762l.793.657,1.4-1.4-.657-.793a5.307,5.307,0,0,0,.762-1.834Zm-6.247,1.694a2.687,2.687,0,1,1,2.688-2.687A2.687,2.687,0,0,1,445.656,87.156Z" transform="translate(-425.689 -69.069)" fill="#e0e0e0"/>
              <path id="Trazado_636325" data-name="Trazado 636325" d="M435.89,95.82V94.152l-.858-.081a4.453,4.453,0,0,0-.641-1.54l.552-.667-1.179-1.179-.666.552a4.453,4.453,0,0,0-1.54-.641l-.081-.858h-1.668l-.081.858a4.454,4.454,0,0,0-1.54.641l-.667-.552-1.179,1.179.552.667a4.452,4.452,0,0,0-.641,1.54l-.858.081V95.82l.858.081a4.452,4.452,0,0,0,.641,1.54l-.552.667,1.179,1.179.667-.552a4.442,4.442,0,0,0,1.54.641l.081.858h1.668l.081-.858a4.453,4.453,0,0,0,1.54-.641l.666.552,1.179-1.179-.552-.667a4.454,4.454,0,0,0,.641-1.54Zm-5.247,1.424a2.258,2.258,0,1,1,2.257-2.257A2.258,2.258,0,0,1,430.642,97.243Z" transform="translate(-419.943 -73.792)" fill="#e0e0e0"/>
            </g>
          </g>
          <g id="Grupo_905893" data-name="Grupo 905893" transform="translate(0 59.481)">
            <path id="Trazado_636326" data-name="Trazado 636326" d="M47.781,302.344l13.186-87.612v87.612h3.54V214.185l13.2,88.159H81.5L64.978,191.993l-.471.07v-3.588h-3.54v3.576l-.485-.058L43.916,302.344Z" transform="translate(-43.916 -173.755)" fill="#e0e0e0"/>
            <g id="Grupo_905892" data-name="Grupo 905892" transform="translate(0.489)">
              <path id="Trazado_636327" data-name="Trazado 636327" d="M81.217,194H44.744L47.7,163.526H78.265Z" transform="translate(-44.744 -163.526)" fill="#ebebeb"/>
            </g>
          </g>
          <text id="_1011100010101000101010101010101010000000111111001011110101" data-name="1011100010101000101010101010101010000000111111001011110101" transform="translate(11.917 5.767)" fill="#e0e0e0" font-size="3" font-family="Roboto-Regular, Roboto"><tspan x="0" y="0">1011100010101000101010101010101010000000111111001011110101</tspan></text>
          <text id="_1011100010101000101010101000111110101010000111010100000" data-name="1011100010101000101010101000111110101010000111010100000" transform="translate(58.201 147.893)" fill="#e0e0e0" font-size="3" font-family="Roboto-Regular, Roboto"><tspan x="0" y="0">1011100010101000101010101000111110101010000111010100000</tspan></text>
          <text id="_01010100010101010000000111111001011110101" data-name="01010100010101010000000111111001011110101" transform="translate(24.506 27.617)" fill="#e0e0e0" font-size="3" font-family="Roboto-Regular, Roboto"><tspan x="0" y="0">01010100010101010000000111111001011110101</tspan></text>
          <text id="_01010100010101010000000111111001011110101-2" data-name="01010100010101010000000111111001011110101" transform="translate(70.402 172.792)" fill="#e0e0e0" font-size="3" font-family="Roboto-Regular, Roboto"><tspan x="0" y="0">01010100010101010000000111111001011110101</tspan></text>
          <text id="_01010100010101010000000111111001011110101-3" data-name="01010100010101010000000111111001011110101" transform="translate(108.202 159.615)" fill="#e0e0e0" font-size="3" font-family="Roboto-Regular, Roboto"><tspan x="0" y="0">01010100010101010000000111111001011110101</tspan></text>
          <text id="_010101000101010101010101010000000111111001011110101" data-name="010101000101010101010101010000000111111001011110101" transform="translate(24.506 38.571)" fill="#e0e0e0" font-size="3" font-family="Roboto-Regular, Roboto"><tspan x="0" y="0">010101000101010101010101010000000111111001011110101</tspan></text>
        </g>
      </g>
      <g id="Shadow" transform="translate(33.106 261.43)">
        <ellipse id="_Path_" data-name="&lt;Path&gt;" cx="114.395" cy="6.681" rx="114.395" ry="6.681" fill="#f5f5f5"/>
      </g>
      <g id="Window" transform="translate(80.83 72.091)">
        <g id="Grupo_905895" data-name="Grupo 905895" transform="translate(0 0)">
          <path id="Trazado_636328" data-name="Trazado 636328" d="M318.13,89.08V207.817a5.521,5.521,0,0,1-5.328,5.393H141.95a5.2,5.2,0,0,1-4.95-5.393V89.08A4.931,4.931,0,0,1,141.95,84H312.8A5.254,5.254,0,0,1,318.13,89.08Z" transform="translate(-137 -84)" fill="#4dd0e1"/>
          <path id="Trazado_636329" data-name="Trazado 636329" d="M318.13,117.69V221.63a5.521,5.521,0,0,1-5.328,5.393H141.95A5.2,5.2,0,0,1,137,221.63V181.174c15.034-28.885,50.869-33.595,92.826-16.691C289.22,188.41,314.548,155.932,318.13,117.69Z" transform="translate(-137 -97.813)" fill="#4dd0e1" opacity="0.1" style="isolation: isolate"/>
        </g>
      </g>
      <g id="Bar" transform="translate(125.67 181.809)">
        <g id="Grupo_905896" data-name="Grupo 905896">
          <path id="Trazado_636330" data-name="Trazado 636330" d="M302.633,275.906H215.971A2.971,2.971,0,0,1,213,272.935h0a2.971,2.971,0,0,1,2.971-2.971h86.662a2.972,2.972,0,0,1,2.971,2.971h0A2.971,2.971,0,0,1,302.633,275.906Z" transform="translate(-213 -269.964)" opacity="0.2" style="isolation: isolate"/>
          <path id="Trazado_636331" data-name="Trazado 636331" d="M216.381,275.72a2.36,2.36,0,1,1,0-4.72h51.24a2.36,2.36,0,1,1,0,4.72Z" transform="translate(-213.41 -270.389)" fill="#407bff"/>
          <path id="Trazado_636332" data-name="Trazado 636332" d="M216.381,275.72a2.36,2.36,0,1,1,0-4.72h51.24a2.36,2.36,0,1,1,0,4.72Z" transform="translate(-213.41 -270.389)" fill="#fff" opacity="0.7" style="isolation: isolate"/>
        </g>
      </g>
      <g id="Character" transform="translate(50.416 164.984)">
        <g id="_Group_" data-name="&lt;Group&gt;">
          <g id="Grupo_905897" data-name="Grupo 905897" transform="translate(37.779 27.031)">
            <path id="Trazado_636333" data-name="Trazado 636333" d="M155.647,287.261c5.5,4.419,3.581,25.511,4.613,28.756s5.457,5.91,5.457,5.91l-6.174,7.227s-5.162-.894-9.082-9.3S155.647,287.261,155.647,287.261Z" transform="translate(-149.482 -287.261)" fill="#263238"/>
            <path id="Trazado_636334" data-name="Trazado 636334" d="M155.647,287.261c5.5,4.419,3.581,25.511,4.613,28.756s5.457,5.91,5.457,5.91l-6.174,7.227s-5.162-.894-9.082-9.3S155.647,287.261,155.647,287.261Z" transform="translate(-149.482 -287.261)" opacity="0.2" style="isolation: isolate"/>
          </g>
          <g id="Grupo_905898" data-name="Grupo 905898" transform="translate(7.852 69.185)">
            <path id="Trazado_636335" data-name="Trazado 636335" d="M129.01,362.866s39.512-11.027,44.475,2.84-30.909,24.923-50.764,25.6-27.954-13.245-22.1-26.477Z" transform="translate(-98.759 -358.709)" fill="#407bff"/>
            <path id="Trazado_636336" data-name="Trazado 636336" d="M129.01,362.866s39.512-11.027,44.475,2.84-30.909,24.923-50.764,25.6-27.954-13.245-22.1-26.477Z" transform="translate(-98.759 -358.709)" opacity="0.2" style="isolation: isolate"/>
          </g>
          <path id="Trazado_636337" data-name="Trazado 636337" d="M215.537,402.077a.127.127,0,0,1-.146-.008.1.1,0,0,1-.035-.123c.065-.221.722-2.13,1.387-2.331a.414.414,0,0,1,.4.116.678.678,0,0,1,.236.64,1.767,1.767,0,0,1-.623.9A7.185,7.185,0,0,1,215.537,402.077Zm.171-.366a2.841,2.841,0,0,0,1.415-1.363.434.434,0,0,0-.169-.437.142.142,0,0,0-.156-.045.445.445,0,0,0-.153.089A5.535,5.535,0,0,0,215.707,401.71Z" transform="translate(-138.709 -306.291)" fill="#407bff"/>
          <path id="Trazado_636338" data-name="Trazado 636338" d="M214.935,402.013a.109.109,0,0,1-.124-.036c-.062-.054-.978-1.21-.827-1.991a.737.737,0,0,1,.316-.479.426.426,0,0,1,.529-.049c.48.337.421,1.886.186,2.473l-.017.058A.121.121,0,0,1,214.935,402.013Zm-.521-2.268a.488.488,0,0,0-.159.278,2.682,2.682,0,0,0,.614,1.59c.151-.661.1-1.747-.179-1.942-.031-.016-.088-.061-.23.038l-.045.036Z" transform="translate(-138.143 -306.202)" fill="#407bff"/>
          <path id="Trazado_636339" data-name="Trazado 636339" d="M147.2,415.623a.128.128,0,0,1,.107-.1.1.1,0,0,1,.112.061c.113.2,1.016,2.007.694,2.621a.412.412,0,0,1-.36.2.677.677,0,0,1-.622-.28,1.765,1.765,0,0,1-.205-1.072A7.184,7.184,0,0,1,147.2,415.623Zm.142.378a2.839,2.839,0,0,0-.016,1.964.432.432,0,0,0,.43.186.142.142,0,0,0,.142-.08.434.434,0,0,0,.043-.172A5.519,5.519,0,0,0,147.345,416Z" transform="translate(-110.651 -312.817)" fill="#407bff"/>
          <path id="Trazado_636340" data-name="Trazado 636340" d="M156.435,393.069l-6.992,5.127-3.358,2.462,2.194,3.825,3.408-1.864,8.324-4.552Z" transform="translate(-110.311 -303.612)" fill="#ebb376"/>
          <path id="Trazado_636341" data-name="Trazado 636341" d="M145.506,408.783l-2.109-4.656a.506.506,0,0,0-.683-.245L140.44,405s-3.167,1.281-3.565,2.309c-1.162,3.007,3.24,13.424,4.614,13.427.5,0,.8-.779.871-1.275.222-1.578.26-5.544.463-6.858.235-1.536,1.788-2.718,2.505-3.188A.5.5,0,0,0,145.506,408.783Z" transform="translate(-106.455 -308.024)" fill="#263238"/>
          <path id="Trazado_636342" data-name="Trazado 636342" d="M147.4,415.576a.108.108,0,0,1,.112-.062c.081-.007,1.549.147,2,.8a.739.739,0,0,1,.12.561.427.427,0,0,1-.335.413c-.576.106-1.642-1.02-1.9-1.6l-.03-.053A.123.123,0,0,1,147.4,415.576Zm1.985,1.215a.488.488,0,0,0-.087-.309,2.675,2.675,0,0,0-1.565-.674c.366.57,1.176,1.3,1.513,1.231.033-.011.106-.02.133-.191l.007-.058Z" transform="translate(-110.837 -312.813)" fill="#407bff"/>
          <path id="Trazado_636343" data-name="Trazado 636343" d="M158.769,393.069l-6.992,5.127,2.243,4.423,8.324-4.552Z" transform="translate(-112.644 -303.612)" opacity="0.2" style="isolation: isolate"/>
          <g id="Grupo_905899" data-name="Grupo 905899" transform="translate(39.319 91.493)">
            <path id="Trazado_636344" data-name="Trazado 636344" d="M155.746,404.322l2.3-.511-3.822-7.293-2.131,2.176Z" transform="translate(-152.093 -396.518)" fill="#407bff"/>
            <path id="Trazado_636345" data-name="Trazado 636345" d="M155.746,404.322l2.3-.511-3.822-7.293-2.131,2.176Z" transform="translate(-152.093 -396.518)" fill="#fff" opacity="0.6" style="isolation: isolate"/>
          </g>
          <path id="Trazado_636346" data-name="Trazado 636346" d="M188.152,403.829l8.555,1.408,4.108.677,1.2-4.244-3.716-1.13-9.077-2.761Z" transform="translate(-127.558 -305.542)" fill="#ebb376"/>
          <path id="Trazado_636347" data-name="Trazado 636347" d="M208.917,399.271l-1.85,4.765a.505.505,0,0,0,.3.659l2.387.845s3.131,1.367,4.144.931c2.961-1.273,7.323-11.707,6.363-12.691-.351-.359-1.117-.028-1.52.27-1.283.945-4.144,3.693-5.223,4.469-1.263.906-3.193.624-4.031.441A.5.5,0,0,0,208.917,399.271Z" transform="translate(-135.299 -303.839)" fill="#263238"/>
          <path id="Trazado_636348" data-name="Trazado 636348" d="M188.152,403.829l8.555,1.408,1.591-4.7-9.077-2.761Z" transform="translate(-127.558 -305.542)" opacity="0.2" style="isolation: isolate"/>
          <path id="Trazado_636349" data-name="Trazado 636349" d="M162.189,386.758s-35.565-20.977-47.6-20.419-13.089,12.537-8.123,19.178,14.135,8.259,14.135,8.259-6.243-8.823-5.34-11.3,4.343,5.866,4.343,5.866,22.035,2.886,41.231,4.512Z" transform="translate(-92.922 -292.648)" fill="#407bff"/>
          <g id="Grupo_905900" data-name="Grupo 905900" transform="translate(65.318 92.245)">
            <path id="Trazado_636350" data-name="Trazado 636350" d="M200.67,399.12l-1.974-1.327-2.536,7.792h3.046Z" transform="translate(-196.16 -397.793)" fill="#407bff"/>
            <path id="Trazado_636351" data-name="Trazado 636351" d="M200.67,399.12l-1.974-1.327-2.536,7.792h3.046Z" transform="translate(-196.16 -397.793)" fill="#fff" opacity="0.6" style="isolation: isolate"/>
          </g>
          <path id="Trazado_636352" data-name="Trazado 636352" d="M132.319,334.656c-6.433-12.39-4.386-31.239,1.207-50-3.893-3.252-19.431-5.447-31.294-2,0,0-7.518,27.856-6.63,58.278Z" transform="translate(-89.583 -257.629)" fill="#263238"/>
          <path id="Trazado_636353" data-name="Trazado 636353" d="M128.793,282.018c-5.174,0-8.543-5.428-8.543-5.428,6.785-2.378,6.809-9.54,6.809-9.54l2.614,2.555,3.723,3.646c-3.1,2.195-1.634,4.095-.649,4.938a4.529,4.529,0,0,0,.649.484S133.968,282.018,128.793,282.018Z" transform="translate(-99.718 -251.944)" fill="#ebb376"/>
          <path id="Trazado_636354" data-name="Trazado 636354" d="M137.313,279.82c-6.348.714-5.918-8.791-5.918-8.791a16.17,16.17,0,0,1,2.844.207l3.723,3.646C134.865,277.077,136.328,278.976,137.313,279.82Z" transform="translate(-104.286 -253.575)" opacity="0.2" style="isolation: isolate"/>
          <g id="Grupo_905901" data-name="Grupo 905901" transform="translate(24.733)">
            <path id="Trazado_636355" data-name="Trazado 636355" d="M148.814,254.3c-2.405,1-1.945,3.62,2.044,8.4,2.456-2.115,3.786-6.928,2.5-8.474S150.909,253.437,148.814,254.3Z" transform="translate(-135.561 -246.319)" fill="#263238"/>
            <path id="Trazado_636356" data-name="Trazado 636356" d="M145.919,262.777a.045.045,0,0,1-.006.018,16.774,16.774,0,0,1-.767,1.876c-2.372,4.832-9.192,5.77-12.213.991-.012-.018-.024-.03-.035-.047-1.994-3.216-1.245-6.219-.413-11.422a7.2,7.2,0,0,1,11.234-4.826C147.677,252.115,147.441,258.334,145.919,262.777Z" transform="translate(-129.116 -244.16)" fill="#ebb376"/>
            <path id="Trazado_636357" data-name="Trazado 636357" d="M145.517,263.3c-.094.418.054.807.326.866s.565-.226.659-.643-.048-.8-.319-.869S145.638,262.891,145.517,263.3Z" transform="translate(-134.799 -250.136)" fill="#263238"/>
            <path id="Trazado_636358" data-name="Trazado 636358" d="M153.562,265.112c-.094.418.054.806.326.866s.571-.223.667-.646-.054-.806-.326-.866S153.656,264.695,153.562,265.112Z" transform="translate(-138.098 -250.881)" fill="#263238"/>
            <path id="Trazado_636359" data-name="Trazado 636359" d="M150.265,265.311a15.276,15.276,0,0,0,1.2,4.021,2.473,2.473,0,0,1-2.082-.077Z" transform="translate(-136.394 -251.231)" fill="#d58745"/>
            <path id="Trazado_636360" data-name="Trazado 636360" d="M143.762,259.986a.244.244,0,0,1-.148-.069.254.254,0,0,1,.024-.356,2.486,2.486,0,0,1,2.226-.565.243.243,0,0,1,.174.3l-.005.017a.261.261,0,0,1-.312.169h0a1.982,1.982,0,0,0-1.751.464A.26.26,0,0,1,143.762,259.986Z" transform="translate(-134.005 -248.615)" fill="#263238"/>
            <path id="Trazado_636361" data-name="Trazado 636361" d="M156.819,262.217a.26.26,0,0,1-.192-.189,2,2,0,0,0-1.132-1.42.253.253,0,0,1,.168-.477,2.508,2.508,0,0,1,1.452,1.781.249.249,0,0,1-.183.3h0A.292.292,0,0,1,156.819,262.217Z" transform="translate(-138.834 -249.102)" fill="#263238"/>
            <path id="Trazado_636362" data-name="Trazado 636362" d="M134.565,250.522c2.215,1.361,1.34,3.881-3.357,7.963-2.09-2.479-2.639-7.449-1.116-8.76S132.629,249.338,134.565,250.522Z" transform="translate(-128.131 -244.578)" fill="#263238"/>
            <path id="Trazado_636363" data-name="Trazado 636363" d="M127.375,262.715a5.015,5.015,0,0,0,1.67,3.446c1.322,1.153,2.735.152,3-1.488.238-1.48-.166-3.865-1.795-4.386A2.234,2.234,0,0,0,127.375,262.715Z" transform="translate(-127.371 -249.124)" fill="#ebb376"/>
            <path id="Trazado_636364" data-name="Trazado 636364" d="M142.526,272.091a3.687,3.687,0,0,0,3.058,2.31" transform="translate(-133.585 -254.01)" fill="none" stroke="#263238" stroke-linecap="round" stroke-linejoin="round" stroke-width="0.557"/>
            <path id="Trazado_636365" data-name="Trazado 636365" d="M147.7,264.127a1.788,1.788,0,1,1-1.788-1.788A1.788,1.788,0,0,1,147.7,264.127Z" transform="translate(-134.24 -250.012)" fill="none" stroke="#263238" stroke-linecap="round" stroke-linejoin="round" stroke-width="0.557"/>
            <path id="Trazado_636366" data-name="Trazado 636366" d="M155.875,265.805a1.788,1.788,0,1,1-1.788-1.788A1.788,1.788,0,0,1,155.875,265.805Z" transform="translate(-137.591 -250.7)" fill="none" stroke="#263238" stroke-linecap="round" stroke-linejoin="round" stroke-width="0.557"/>
            <path id="Trazado_636367" data-name="Trazado 636367" d="M150.187,266.111a.946.946,0,0,1,1.246.332" transform="translate(-136.725 -251.513)" fill="none" stroke="#263238" stroke-linecap="round" stroke-linejoin="round" stroke-width="0.557"/>
            <path id="Trazado_636368" data-name="Trazado 636368" d="M139.96,263.1s-5.128-2.158-6.085-2.372" transform="translate(-130.038 -249.352)" fill="none" stroke="#263238" stroke-linecap="round" stroke-linejoin="round" stroke-width="0.557"/>
            <path id="Trazado_636369" data-name="Trazado 636369" d="M130.6,246.663a4.313,4.313,0,0,1,3.721-4.855c4.252-.689,9.821.376,11.541-.362a2.724,2.724,0,0,1-1.218,1.811s3.244,1.2,5.8.163c0,0-1.111,3.073-2.545,4.253h1.221a9.1,9.1,0,0,1-5.364,2.36c-2.945.049-5.717-4.006-8.633-2.643A3.609,3.609,0,0,1,130.6,246.663Z" transform="translate(-128.685 -241.446)" fill="#263238"/>
            <path id="Trazado_636370" data-name="Trazado 636370" d="M146.257,268.449a.046.046,0,0,1-.006.018,16.779,16.779,0,0,1-.767,1.876c-2.372,4.832-9.192,5.77-12.213.991-.012-.018-.024-.029-.035-.047a7.227,7.227,0,0,1-.313-5.788l.909-2.944.661-.655a15.04,15.04,0,0,0,.62,3.835c.466.844,3.121,1.092,3.664,1.239s1.829,1.681,2.466,2.095,2.974.071,3.251.413S146.257,268.449,146.257,268.449Z" transform="translate(-129.454 -249.832)" opacity="0.4" style="isolation: isolate"/>
          </g>
          <path id="Trazado_636371" data-name="Trazado 636371" d="M110.889,353.5l12.234,13.566s13.527-.3,29.951,7.727c0,0,17.625-7.281,19.243-13.328s-37-1.77-37-1.77Z" transform="translate(-95.88 -287.388)" opacity="0.2" style="isolation: isolate"/>
          <path id="Trazado_636372" data-name="Trazado 636372" d="M115.11,346.75l19.617,6.416s7.006-1.549,8.26-1.549,6.094,3.936,3.355,5.31-10.213,1.549-11.025,1.106S112.75,352.5,112.75,352.5Z" transform="translate(-96.643 -284.621)" fill="#ebb376"/>
          <g id="Grupo_905902" data-name="Grupo 905902" transform="translate(0 25.011)">
            <path id="Trazado_636373" data-name="Trazado 636373" d="M98.1,283.857c4.439-.861-3.262,26.184-1.377,30.166s9.259,6.5,9.259,6.5l-3.393,7.488s-10.03-1.893-15.487-8.826S90.856,285.262,98.1,283.857Z" transform="translate(-85.451 -283.837)" fill="#263238"/>
            <path id="Trazado_636374" data-name="Trazado 636374" d="M98.1,283.857c4.439-.861-3.262,26.184-1.377,30.166s9.259,6.5,9.259,6.5l-3.393,7.488s-10.03-1.893-15.487-8.826S90.856,285.262,98.1,283.857Z" transform="translate(-85.451 -283.837)" opacity="0.2" style="isolation: isolate"/>
          </g>
          <g id="Grupo_905903" data-name="Grupo 905903" transform="translate(16.402 61.097)">
            <path id="Trazado_636375" data-name="Trazado 636375" d="M117.38,345l-4.13,8.089,3.54.761,3.245-7.449Z" transform="translate(-113.25 -345)" fill="#263238"/>
            <path id="Trazado_636376" data-name="Trazado 636376" d="M117.38,345l-4.13,8.089,3.54.761,3.245-7.449Z" transform="translate(-113.25 -345)" fill="#fff" opacity="0.2" style="isolation: isolate"/>
          </g>
          <g id="Grupo_905906" data-name="Grupo 905906" transform="translate(28.644 48.117)">
            <g id="Grupo_905904" data-name="Grupo 905904" transform="translate(0 24.19)">
              <path id="Trazado_636377" data-name="Trazado 636377" d="M134,364v1.286a1.669,1.669,0,0,0,1.595,1.664h47.43a1.777,1.777,0,0,0,1.715-1.664V364Z" transform="translate(-134 -364)" fill="#263238"/>
              <path id="Trazado_636378" data-name="Trazado 636378" d="M134,364v1.286a1.669,1.669,0,0,0,1.595,1.664h47.43a1.777,1.777,0,0,0,1.715-1.664V364Z" transform="translate(-134 -364)" fill="#fff" opacity="0.2" style="isolation: isolate"/>
              <path id="Trazado_636379" data-name="Trazado 636379" d="M164,364v1.286a1.679,1.679,0,0,0,1.6,1.664h29.724a1.777,1.777,0,0,0,1.715-1.664V364Z" transform="translate(-146.3 -364)" fill="#fff" opacity="0.2" style="isolation: isolate"/>
            </g>
            <g id="Grupo_905905" data-name="Grupo 905905" transform="translate(18.016)">
              <path id="Trazado_636380" data-name="Trazado 636380" d="M165.82,348.96h31.335a2.555,2.555,0,0,0,2.277-1.682l7.186-22.541a1.247,1.247,0,0,0-1.2-1.738H174.08a2.611,2.611,0,0,0-2.277,1.738l-7.186,22.513A1.226,1.226,0,0,0,165.82,348.96Z" transform="translate(-164.536 -323)" fill="#263238"/>
              <path id="Trazado_636381" data-name="Trazado 636381" d="M165.82,348.96h31.335a2.555,2.555,0,0,0,2.277-1.682l7.186-22.541a1.247,1.247,0,0,0-1.2-1.738H174.08a2.611,2.611,0,0,0-2.277,1.738l-7.186,22.513A1.226,1.226,0,0,0,165.82,348.96Z" transform="translate(-164.536 -323)" fill="#fff" opacity="0.2" style="isolation: isolate"/>
              <path id="Trazado_636382" data-name="Trazado 636382" d="M167.82,348.96h30.155a2.555,2.555,0,0,0,2.277-1.682l7.186-22.541a1.247,1.247,0,0,0-1.2-1.738H176.08a2.611,2.611,0,0,0-2.277,1.738l-7.186,22.513A1.226,1.226,0,0,0,167.82,348.96Z" transform="translate(-165.356 -323)" fill="#fff" opacity="0.2" style="isolation: isolate"/>
            </g>
            <path id="Trazado_636383" data-name="Trazado 636383" d="M202.306,340.81l-4.338,3.072,1.876,3.072,4.338-3.072Z" transform="translate(-160.227 -330.302)" fill="#fff" opacity="0.2" style="isolation: isolate"/>
          </g>
        </g>
      </g>
      <g id="Tab5" transform="translate(98.01 72.326)">
        <g id="Grupo_905910" data-name="Grupo 905910" transform="translate(0 0)">
          <rect id="Rectángulo_303721" data-name="Rectángulo 303721" width="49.993" height="49.993" rx="8.743" transform="translate(0 5.488)" opacity="0.2" style="isolation: isolate"/>
          <rect id="Rectángulo_303722" data-name="Rectángulo 303722" width="41.89" height="41.89" rx="7.326" transform="translate(14.02)" fill="#407bff" style="isolation: isolate"/>
          <g id="Grupo_905909" data-name="Grupo 905909" transform="translate(14.02)">
            <rect id="Rectángulo_303723" data-name="Rectángulo 303723" width="41.89" height="41.89" rx="7.326" fill="#fff" opacity="0.3" style="isolation: isolate"/>
            <g id="Grupo_905908" data-name="Grupo 905908" transform="translate(8.226 6.871)">
              <g id="Grupo_905907" data-name="Grupo 905907">
                <path id="Trazado_636384" data-name="Trazado 636384" d="M219.769,105.284V102.75l-1.3-.123a6.761,6.761,0,0,0-.973-2.34l.838-1.012-1.792-1.791-1.012.838a6.763,6.763,0,0,0-2.34-.973l-.123-1.3h-2.533l-.123,1.3a6.765,6.765,0,0,0-2.34.973l-1.012-.838-1.791,1.791.838,1.012a6.772,6.772,0,0,0-.973,2.34l-1.3.123v2.534l1.3.123a6.78,6.78,0,0,0,.973,2.341l-.838,1.012,1.791,1.792,1.012-.838a6.765,6.765,0,0,0,2.34.973l.123,1.3h2.533l.123-1.3a6.763,6.763,0,0,0,2.34-.973l1.012.838,1.792-1.792-.838-1.012a6.769,6.769,0,0,0,.973-2.341Zm-7.973,2.163a3.43,3.43,0,1,1,3.43-3.43A3.43,3.43,0,0,1,211.8,107.447Z" transform="translate(-203.822 -96.044)" fill="#fff"/>
                <path id="Trazado_636385" data-name="Trazado 636385" d="M239.571,118.794v-1.985l-1.022-.1a5.288,5.288,0,0,0-.762-1.834l.657-.793-1.4-1.4-.794.657a5.294,5.294,0,0,0-1.834-.763l-.1-1.022H232.33l-.1,1.022a5.294,5.294,0,0,0-1.834.763l-.794-.657-1.4,1.4.657.793a5.315,5.315,0,0,0-.762,1.834l-1.022.1v1.985l1.022.1a5.306,5.306,0,0,0,.762,1.834l-.657.794,1.4,1.4.794-.657a5.3,5.3,0,0,0,1.834.762l.1,1.022h1.985l.1-1.022a5.312,5.312,0,0,0,1.834-.762l.793.657,1.4-1.4-.657-.794a5.28,5.28,0,0,0,.762-1.834Zm-6.247,1.7a2.688,2.688,0,1,1,2.687-2.688A2.688,2.688,0,0,1,233.323,120.49Z" transform="translate(-213.356 -102.403)" fill="#fff"/>
                <path id="Trazado_636386" data-name="Trazado 636386" d="M223.557,129.153v-1.667l-.859-.081a4.451,4.451,0,0,0-.64-1.541l.552-.666-1.179-1.179-.666.552a4.449,4.449,0,0,0-1.54-.64l-.081-.859h-1.667l-.081.859a4.454,4.454,0,0,0-1.54.64l-.666-.552-1.179,1.179.552.666a4.451,4.451,0,0,0-.64,1.541l-.858.081v1.667l.858.081a4.45,4.45,0,0,0,.64,1.54l-.552.666,1.179,1.179.666-.552a4.454,4.454,0,0,0,1.54.64l.081.858h1.667l.081-.858a4.449,4.449,0,0,0,1.54-.64l.666.552,1.179-1.179-.552-.666a4.451,4.451,0,0,0,.64-1.54Zm-5.248,1.424a2.257,2.257,0,1,1,2.257-2.257A2.257,2.257,0,0,1,218.309,130.576Z" transform="translate(-207.61 -107.125)" fill="#fff"/>
              </g>
            </g>
          </g>
          <rect id="Rectángulo_303724" data-name="Rectángulo 303724" width="41.89" height="41.89" rx="7.326" transform="translate(15.791)" fill="#fff" opacity="0.2" style="isolation: isolate"/>
        </g>
      </g>
      <g id="Tab4" transform="translate(173.46 123.865)">
        <g id="Grupo_905913" data-name="Grupo 905913">
          <rect id="Rectángulo_303725" data-name="Rectángulo 303725" width="46.215" height="46.215" rx="8.082" transform="translate(0 2.473)" opacity="0.2" style="isolation: isolate"/>
          <rect id="Rectángulo_303726" data-name="Rectángulo 303726" width="38.725" height="38.725" rx="6.772" transform="translate(11.608)" fill="#407bff" style="isolation: isolate"/>
          <g id="Grupo_905912" data-name="Grupo 905912" transform="translate(11.608)">
            <rect id="Rectángulo_303727" data-name="Rectángulo 303727" width="38.725" height="38.725" rx="6.772" fill="#fff" opacity="0.2" style="isolation: isolate"/>
            <g id="Grupo_905911" data-name="Grupo 905911" transform="translate(5.44 11.633)">
              <path id="Trazado_636387" data-name="Trazado 636387" d="M347.052,214.138a1.4,1.4,0,1,1-1.4-1.4A1.4,1.4,0,0,1,347.052,214.138Z" transform="translate(-331.654 -200.191)" fill="#fff"/>
              <path id="Trazado_636388" data-name="Trazado 636388" d="M336.779,191.47A13.881,13.881,0,0,0,322.9,205.353h11.087a2.615,2.615,0,0,1,2.8-2.738,2.938,2.938,0,0,1,.834.16l5.2-6.034-3.67,7.138a2.628,2.628,0,0,1,.434,1.473h11.088A13.881,13.881,0,0,0,336.779,191.47Z" transform="translate(-322.896 -191.47)" fill="#fff"/>
            </g>
          </g>
          <rect id="Rectángulo_303728" data-name="Rectángulo 303728" width="38.724" height="38.725" rx="6.772" transform="translate(13.246)" fill="#fff" opacity="0.2" style="isolation: isolate"/>
        </g>
      </g>
      <g id="Tab3" transform="translate(189.805 85.825)">
        <g id="Grupo_905916" data-name="Grupo 905916" transform="translate(0 0)">
          <rect id="Rectángulo_303729" data-name="Rectángulo 303729" width="40.549" height="40.549" rx="7.091" transform="translate(0 3.573)" opacity="0.2" style="isolation: isolate"/>
          <rect id="Rectángulo_303730" data-name="Rectángulo 303730" width="33.977" height="33.977" rx="5.942" transform="translate(10.873)" fill="#407bff" style="isolation: isolate"/>
          <g id="Grupo_905915" data-name="Grupo 905915" transform="translate(10.873)">
            <rect id="Rectángulo_303731" data-name="Rectángulo 303731" width="33.977" height="33.977" rx="5.942" fill="#fff" opacity="0.1" style="isolation: isolate"/>
            <g id="Grupo_905914" data-name="Grupo 905914" transform="translate(7.592 7.506)">
              <path id="Trazado_636389" data-name="Trazado 636389" d="M371.88,121.116A1.116,1.116,0,0,0,370.764,120H354.116A1.116,1.116,0,0,0,353,121.116v3.667a1.116,1.116,0,0,0,1.116,1.116h16.647a1.116,1.116,0,0,0,1.116-1.116Zm-5.5,1.986h-.957v-.957h.957Zm2.552.479a.957.957,0,1,1,.958-.957A.957.957,0,0,1,368.936,123.581Z" transform="translate(-353 -120)" fill="#fff"/>
              <path id="Trazado_636390" data-name="Trazado 636390" d="M371.88,132.117A1.116,1.116,0,0,0,370.764,131H354.116A1.116,1.116,0,0,0,353,132.117v3.666a1.116,1.116,0,0,0,1.116,1.117h16.647a1.116,1.116,0,0,0,1.116-1.117Zm-5.5,2.355h-.957v-.958h.957Zm2.552.478a.957.957,0,1,1,.958-.957A.958.958,0,0,1,368.936,134.95Z" transform="translate(-353 -124.51)" fill="#fff"/>
              <path id="Trazado_636391" data-name="Trazado 636391" d="M371.88,143.116A1.116,1.116,0,0,0,370.764,142H354.116A1.116,1.116,0,0,0,353,143.116v3.667a1.116,1.116,0,0,0,1.116,1.116h16.647a1.116,1.116,0,0,0,1.116-1.116Zm-5.5,2.724h-.957v-.957h.957Zm2.552.478a.957.957,0,1,1,.958-.957A.957.957,0,0,1,368.936,146.319Z" transform="translate(-353 -129.02)" fill="#fff"/>
            </g>
          </g>
          <rect id="Rectángulo_303732" data-name="Rectángulo 303732" width="33.977" height="33.977" rx="5.942" transform="translate(12.309)" fill="#fff" opacity="0.2" style="isolation: isolate"/>
        </g>
      </g>
      <g id="Tab2" transform="translate(123.671 117.265)">
        <g id="Grupo_905920" data-name="Grupo 905920">
          <rect id="Rectángulo_303733" data-name="Rectángulo 303733" width="49.993" height="49.993" rx="8.743" transform="translate(0 3.538)" opacity="0.2" style="isolation: isolate"/>
          <rect id="Rectángulo_303734" data-name="Rectángulo 303734" width="41.89" height="41.89" rx="7.326" transform="translate(11.729)" fill="#407bff" style="isolation: isolate"/>
          <g id="Grupo_905919" data-name="Grupo 905919" transform="translate(11.729)">
            <rect id="Rectángulo_303735" data-name="Rectángulo 303735" width="41.89" height="41.89" rx="7.326" fill="#fff" opacity="0.5" style="isolation: isolate"/>
            <g id="Grupo_905918" data-name="Grupo 905918" transform="translate(8.346 8.473)">
              <g id="Grupo_905917" data-name="Grupo 905917" transform="translate(0.051 0.888)">
                <path id="Trazado_636392" data-name="Trazado 636392" d="M244.682,206.658h0a3.274,3.274,0,0,1,0-4.629l7.64-7.64a1.847,1.847,0,0,1,2.612,0l2.018,2.018a1.847,1.847,0,0,1,0,2.611l-7.64,7.64A3.274,3.274,0,0,1,244.682,206.658Z" transform="translate(-243.724 -183.574)" fill="#fff"/>
                <path id="Trazado_636393" data-name="Trazado 636393" d="M268.163,186.944l-1.5-1.5,8.632-8.633,1.878-.376-.376,1.877Z" transform="translate(-253.128 -176.434)" fill="#fff"/>
                <path id="Trazado_636394" data-name="Trazado 636394" d="M265.8,195.072l-2.659-2.659a.608.608,0,0,1,0-.86h0a.608.608,0,0,1,.86,0l2.658,2.659a.609.609,0,0,1,0,.86h0A.608.608,0,0,1,265.8,195.072Z" transform="translate(-251.613 -182.56)" fill="#fff"/>
              </g>
              <path id="Trazado_636395" data-name="Trazado 636395" d="M254.3,183.238l-3.642-3.651a4.005,4.005,0,0,0-2.185-4.658l-.029,2.811a1.2,1.2,0,0,1-1.195,1.191,1.181,1.181,0,0,1-1.192-1.169l0-2.785a3.882,3.882,0,0,0-2.423,3.4,3.61,3.61,0,0,0,3.15,3.519,3.13,3.13,0,0,0,1.758-.245l3.668,3.678Z" transform="translate(-243.637 -174.929)" fill="#fff"/>
              <path id="Trazado_636396" data-name="Trazado 636396" d="M276.527,207.022l-.005,2.786a3.879,3.879,0,0,0,2.422-3.394,3.62,3.62,0,0,0-3.072-3.6,2.829,2.829,0,0,0-1.68.168l-3.813-3.823-2.086,2.086,3.786,3.8c-1.1,2.24.613,4.144,2.107,4.736l-.009-2.771a1.175,1.175,0,1,1,2.351.013Z" transform="translate(-253.746 -184.865)" fill="#fff"/>
            </g>
          </g>
          <rect id="Rectángulo_303736" data-name="Rectángulo 303736" width="41.89" height="41.89" rx="7.326" transform="translate(13.5)" fill="#fff" opacity="0.2" style="isolation: isolate"/>
        </g>
      </g>
      <g id="Tab1" transform="translate(147.303 59.19)">
        <g id="Grupo_905922" data-name="Grupo 905922" transform="translate(0 0)">
          <rect id="Rectángulo_303737" data-name="Rectángulo 303737" width="50.493" height="50.493" rx="8.83" transform="translate(62.144 50.493) rotate(180)" fill="#407bff" style="isolation: isolate"/>
          <rect id="Rectángulo_303738" data-name="Rectángulo 303738" width="60.26" height="60.26" rx="10.538" transform="translate(0 8.021)" opacity="0.2" style="isolation: isolate"/>
          <g id="Grupo_905921" data-name="Grupo 905921" transform="translate(11.65)">
            <rect id="Rectángulo_303739" data-name="Rectángulo 303739" width="50.493" height="50.493" rx="8.83" transform="translate(50.493 50.493) rotate(180)" fill="#fff" opacity="0.5" style="isolation: isolate"/>
            <path id="Trazado_636397" data-name="Trazado 636397" d="M301.435,78.407l-15.468,6.069s1.956,21.241,15.468,25.223c13.512-3.983,15.468-25.223,15.468-25.223Zm-.395,20.567a1.077,1.077,0,0,1-.849.433h-.011a1.069,1.069,0,0,1-.853-.45L293.9,91.484a1.068,1.068,0,0,1,1.727-1.257l4.578,6.3,7.488-9.878a1.067,1.067,0,0,1,1.495-.205,1.144,1.144,0,0,1,.205,1.558Z" transform="translate(-276.2 -68.806)" fill="#fff"/>
          </g>
          <rect id="Rectángulo_303740" data-name="Rectángulo 303740" width="50.493" height="50.493" rx="8.83" transform="translate(64.278 50.493) rotate(180)" fill="#fff" opacity="0.2" style="isolation: isolate"/>
        </g>
      </g>
      <g id="Promt2" transform="translate(205.206 190.638)">
        <g id="Grupo_905925" data-name="Grupo 905925">
          <g id="Grupo_905923" data-name="Grupo 905923">
            <rect id="Rectángulo_303741" data-name="Rectángulo 303741" width="50.296" height="33.942" fill="#407bff"/>
            <rect id="Rectángulo_303742" data-name="Rectángulo 303742" width="50.296" height="33.942" fill="#fff" opacity="0.7" style="isolation: isolate"/>
          </g>
          <rect id="Rectángulo_303743" data-name="Rectángulo 303743" width="48.302" height="30.195" transform="translate(0.934 2.617)" fill="#263238"/>
          <g id="Grupo_905924" data-name="Grupo 905924" transform="translate(3.147 7.295)">
            <rect id="Rectángulo_303744" data-name="Rectángulo 303744" width="39.713" height="0.885" fill="#e0e0e0"/>
            <rect id="Rectángulo_303745" data-name="Rectángulo 303745" width="33.809" height="0.885" transform="translate(0 2.508)" fill="#e0e0e0"/>
            <rect id="Rectángulo_303746" data-name="Rectángulo 303746" width="39.713" height="0.885" transform="translate(0 5.015)" fill="#e0e0e0"/>
            <rect id="Rectángulo_303747" data-name="Rectángulo 303747" width="33.809" height="0.885" transform="translate(0 7.523)" fill="#e0e0e0"/>
            <rect id="Rectángulo_303748" data-name="Rectángulo 303748" width="4.29" height="0.885" transform="translate(0 10.03)" fill="#e0e0e0"/>
            <rect id="Rectángulo_303749" data-name="Rectángulo 303749" width="22.001" height="0.885" transform="translate(0 12.538)" fill="#e0e0e0"/>
            <rect id="Rectángulo_303750" data-name="Rectángulo 303750" width="33.809" height="0.885" transform="translate(0 15.045)" fill="#e0e0e0"/>
            <rect id="Rectángulo_303751" data-name="Rectángulo 303751" width="4.29" height="0.885" transform="translate(0 17.552)" fill="#e0e0e0"/>
            <rect id="Rectángulo_303752" data-name="Rectángulo 303752" width="4.29" height="0.885" transform="translate(0 20.06)" fill="#e0e0e0"/>
          </g>
        </g>
      </g>
      <g id="Promt1" transform="translate(60.169 120.02)">
        <g id="Grupo_905928" data-name="Grupo 905928">
          <g id="Grupo_905926" data-name="Grupo 905926">
            <rect id="Rectángulo_303753" data-name="Rectángulo 303753" width="50.296" height="33.942" fill="#407bff"/>
            <rect id="Rectángulo_303754" data-name="Rectángulo 303754" width="50.296" height="33.942" fill="#fff" opacity="0.7" style="isolation: isolate"/>
          </g>
          <rect id="Rectángulo_303755" data-name="Rectángulo 303755" width="48.302" height="30.195" transform="translate(0.934 2.617)" fill="#263238"/>
          <g id="Grupo_905927" data-name="Grupo 905927" transform="translate(3.147 7.295)">
            <rect id="Rectángulo_303756" data-name="Rectángulo 303756" width="39.713" height="0.885" fill="#e0e0e0"/>
            <rect id="Rectángulo_303757" data-name="Rectángulo 303757" width="33.809" height="0.885" transform="translate(0 2.508)" fill="#e0e0e0"/>
            <rect id="Rectángulo_303758" data-name="Rectángulo 303758" width="39.713" height="0.885" transform="translate(0 5.015)" fill="#e0e0e0"/>
            <rect id="Rectángulo_303759" data-name="Rectángulo 303759" width="33.809" height="0.885" transform="translate(0 7.523)" fill="#e0e0e0"/>
            <rect id="Rectángulo_303760" data-name="Rectángulo 303760" width="4.29" height="0.885" transform="translate(0 10.03)" fill="#e0e0e0"/>
            <rect id="Rectángulo_303761" data-name="Rectángulo 303761" width="22.001" height="0.885" transform="translate(0 12.538)" fill="#e0e0e0"/>
            <rect id="Rectángulo_303762" data-name="Rectángulo 303762" width="33.809" height="0.885" transform="translate(0 15.045)" fill="#e0e0e0"/>
            <rect id="Rectángulo_303763" data-name="Rectángulo 303763" width="4.29" height="0.885" transform="translate(0 17.552)" fill="#e0e0e0"/>
            <rect id="Rectángulo_303764" data-name="Rectángulo 303764" width="4.29" height="0.885" transform="translate(0 20.06)" fill="#e0e0e0"/>
          </g>
        </g>
      </g>
    </g>
  </g>
</svg>
