<svg xmlns="http://www.w3.org/2000/svg" width="400" height="291.323" viewBox="0 0 400 291.323">
  <g id="Grupo_906819" data-name="Grupo 906819" transform="translate(-180 -2809.677)">
    <g id="Grupo_906000" data-name="Grupo 906000" transform="translate(272.008 2824.624)">
      <g id="Background_Simple" data-name="Background Simple" transform="translate(18.622 33.11)">
        <g id="Grupo_905937" data-name="Grupo 905937">
          <path id="Trazado_636398" data-name="Trazado 636398" d="M245.094,67.851C232.762,46,207.05,34.8,181.364,33.3c-28.48-1.656-54.435,7.346-73.408,27.156-7.518,7.85-14.313,16.326-22.653,23.47-14.343,12.286-32.341,22.361-44.86,36.258-15.833,17.576-18.008,45.2.1,62.056,6.282,5.846,14.063,10.121,22.089,13.682,19.734,8.755,41.3,13.5,63,16.092,24.452,2.925,49.952,3.085,73.015-5.006,50.887-17.854,64.465-76.293,53.394-121.408A70.2,70.2,0,0,0,245.094,67.851Z" transform="translate(-27.753 -33.11)" fill="#4dd0e1"/>
          <path id="Trazado_636399" data-name="Trazado 636399" d="M245.094,67.851C232.762,46,207.05,34.8,181.364,33.3c-28.48-1.656-54.435,7.346-73.408,27.156-7.518,7.85-14.313,16.326-22.653,23.47-14.343,12.286-32.341,22.361-44.86,36.258-15.833,17.576-18.008,45.2.1,62.056,6.282,5.846,14.063,10.121,22.089,13.682,19.734,8.755,41.3,13.5,63,16.092,24.452,2.925,49.952,3.085,73.015-5.006,50.887-17.854,64.465-76.293,53.394-121.408A70.2,70.2,0,0,0,245.094,67.851Z" transform="translate(-27.753 -33.11)" fill="#4dd0e1" opacity="0.7"/>
        </g>
      </g>
      <g id="Plants" transform="translate(8.992 122.474)">
        <ellipse id="Elipse_6757" data-name="Elipse 6757" cx="15.127" cy="4.216" rx="15.127" ry="4.216" transform="translate(13.029 100.097)" fill="#263238"/>
        <g id="Grupo_905941" data-name="Grupo 905941">
          <path id="Trazado_636400" data-name="Trazado 636400" d="M45.754,379.895h7.416a8.911,8.911,0,0,0,8.875-8.111l2.232-24.759H34.647l2.232,24.759A8.911,8.911,0,0,0,45.754,379.895Z" transform="translate(-21.479 -275.266)" fill="#fff" stroke="#263238" stroke-linecap="round" stroke-linejoin="round" stroke-width="0.966"/>
          <g id="Grupo_905938" data-name="Grupo 905938" transform="translate(13.168 71.759)">
            <path id="Trazado_636401" data-name="Trazado 636401" d="M45.754,379.895h7.416a8.911,8.911,0,0,0,8.875-8.111l2.232-24.759H34.647l2.232,24.759A8.911,8.911,0,0,0,45.754,379.895Z" transform="translate(-34.647 -347.025)" fill="#fff" stroke="#263238" stroke-linecap="round" stroke-linejoin="round" stroke-width="0.966"/>
            <path id="Trazado_636402" data-name="Trazado 636402" d="M38.883,394.019l-.118-1.311,13.627,2.478L40.921,398.92A8.866,8.866,0,0,1,38.883,394.019Z" transform="translate(-36.651 -369.26)" fill="#263238" stroke="#263238" stroke-linecap="round" stroke-linejoin="round" stroke-width="0.966"/>
            <path id="Trazado_636403" data-name="Trazado 636403" d="M75.214,381.508l-13.508-5.789,14.817-8.738Z" transform="translate(-47.817 -356.738)" fill="#263238" stroke="#263238" stroke-linecap="round" stroke-linejoin="round" stroke-width="0.966"/>
            <path id="Trazado_636404" data-name="Trazado 636404" d="M52.449,359.07,36.32,365.59,35.077,351.8Z" transform="translate(-34.856 -349.348)" fill="#263238" stroke="#263238" stroke-linecap="round" stroke-linejoin="round" stroke-width="0.966"/>
          </g>
          <g id="Grupo_905939" data-name="Grupo 905939" transform="translate(13.517 69.773)">
            <path id="Trazado_636405" data-name="Trazado 636405" d="M35.328,345.149c0,1.1,6.461,1.993,14.432,1.993s14.431-.893,14.431-1.993-6.461-1.993-14.431-1.993S35.328,344.048,35.328,345.149Z" transform="translate(-35.328 -343.156)" fill="#fff" stroke="#263238" stroke-linecap="round" stroke-linejoin="round" stroke-width="0.966"/>
            <path id="Trazado_636406" data-name="Trazado 636406" d="M51.252,348.4A58.78,58.78,0,0,1,38.4,347.314c1.407-.9,7.185-1.569,14.1-1.569a58.783,58.783,0,0,1,12.857,1.088C63.946,347.73,58.169,348.4,51.252,348.4Z" transform="translate(-36.821 -344.416)" fill="#263238" stroke="#263238" stroke-linecap="round" stroke-linejoin="round" stroke-width="0.966"/>
          </g>
          <path id="Trazado_636407" data-name="Trazado 636407" d="M69.77,272.555a.5.5,0,0,0-.678-.181l-10.054,5.82,5.211-10.317a.5.5,0,0,0-.885-.448L58.7,276.673a190.026,190.026,0,0,0-1.258-23.39c-.179-1.768-.308-3.046-.308-3.474a.5.5,0,1,0-.992,0c0,.478.124,1.71.313,3.573.563,5.563,1.662,16.458,1.183,25.056l-9.092-10.8a.5.5,0,0,0-.759.639l9.682,11.5c.006.006.013.008.019.014s.012.018.02.026a.377.377,0,0,0,.035.023,30.787,30.787,0,0,1-1.121,6.584l-7.2-6.971a.5.5,0,1,0-.69.713l7.534,7.292a32.366,32.366,0,0,0-1.2,4.134l-.03.015-8.85-4.721a.5.5,0,0,0-.467.876l9.077,4.841a.534.534,0,0,0,.062.024,29.656,29.656,0,0,0-.474,6.84.5.5,0,0,0,.495.471h.025a.5.5,0,0,0,.471-.521,28.848,28.848,0,0,1,.566-7.152l7.783-3.892a.5.5,0,0,0-.443-.887l-7.061,3.53A31.627,31.627,0,0,1,57.1,287.5a29.706,29.706,0,0,0,1.445-7.872l11.047-6.4A.5.5,0,0,0,69.77,272.555Z" transform="translate(-26.638 -227.707)" fill="#263238"/>
          <path id="Trazado_636408" data-name="Trazado 636408" d="M61.29,244.039s5.558-4.863,6.253-9.379-1.737-7.642-1.042-9.726,2.779-5.558,1.042-8.337-10.421-9.379-10.421-9.379a16.544,16.544,0,0,1-2.084,6.253c-1.737,2.779-.694,6.253,0,8.684s-3.821,5.211-1.389,8.684,2.431,3.821,2.431,6.6S57.469,243.344,61.29,244.039Z" transform="translate(-30.374 -207.218)" fill="#fd9927"/>
          <path id="Trazado_636409" data-name="Trazado 636409" d="M39.6,272.416a5.99,5.99,0,0,0-.695-5.211c-1.737-2.431-3.473-1.042-4.168-3.821a10.015,10.015,0,0,0-3.474-5.905c-1.737-1.389-1.737-1.042-3.126-2.084s-1.736-2.431-3.126-3.474-4.516-1.389-4.516-1.389a17.043,17.043,0,0,1,1.042,4.515c0,1.737-1.389,4.516.694,6.6s3.821,1.389,5.211,3.821S30.919,272.068,39.6,272.416Z" transform="translate(-14.592 -228.3)" fill="#fd9927"/>
          <path id="Trazado_636410" data-name="Trazado 636410" d="M38.321,300.6s.347-4.516-3.821-6.253-4.863-6.6-9.379-7.642-7.99,0-8.337,2.779a60.268,60.268,0,0,0-.347,6.253s2.084-3.474,4.168-3.126,3.474,0,5.905,3.821S34.847,302.68,38.321,300.6Z" transform="translate(-12.616 -245.712)" fill="#fd9927"/>
          <path id="Trazado_636411" data-name="Trazado 636411" d="M32.961,321.684c-1.042-.347-3.126-6.948-9.379-7.642s-14.59,2.084-14.59,2.084,3.821,2.084,9.379,4.863S32.961,321.684,32.961,321.684Z" transform="translate(-8.992 -259.158)" fill="#fd9927"/>
          <path id="Trazado_636412" data-name="Trazado 636412" d="M70.578,320.353s2.779-6.6,7.3-7.99,5.905.695,8.337,2.432,4.168,2.779,4.168,2.779-2.779-1.042-5.558,1.737a12.215,12.215,0,0,1-10.073,3.126C71.273,322.09,70.578,320.353,70.578,320.353Z" transform="translate(-38.968 -258.175)" fill="#fd9927"/>
          <path id="Trazado_636413" data-name="Trazado 636413" d="M83.437,283.639s0-1.737,2.084-5.558,2.431-7.642,6.6-8.337,4.516-1.042,6.948-2.779,8.337,1.389,9.726,2.779a17.973,17.973,0,0,1,2.084,2.431s-4.516-.347-6.253,1.737-5.558,3.821-7.295,4.516-3.474-.694-5.211,2.084S88.995,284.333,83.437,283.639Z" transform="translate(-45.227 -236.05)" fill="#92e3a9"/>
          <path id="Trazado_636414" data-name="Trazado 636414" d="M76.038,265.1s-3.126-5.211-1.737-7.99,4.168-3.821,3.821-5.558-1.736-3.821,0-6.253,3.127-1.389,5.211-2.779a63.045,63.045,0,0,0,5.211-4.168s.694,7.295,0,10.768-2.779,3.821-2.779,6.6-1.389,4.516-3.126,6.6S76.038,265.1,76.038,265.1Z" transform="translate(-40.607 -222.371)" fill="#fd9927"/>
          <g id="Grupo_905940" data-name="Grupo 905940" transform="translate(2.676 4.69)">
            <line id="Línea_520" data-name="Línea 520" x1="1.66" y1="1.817" transform="translate(5.869 21.405)" fill="none" stroke="#263238" stroke-miterlimit="10" stroke-width="0.966"/>
            <line id="Línea_521" data-name="Línea 521" x1="12.423" y1="13.597" transform="translate(9.911 25.828)" fill="none" stroke="#263238" stroke-miterlimit="10" stroke-width="0.966"/>
            <path id="Trazado_636415" data-name="Trazado 636415" d="M65.235,218.413a18.64,18.64,0,0,0-.58-2.057" transform="translate(-38.761 -216.356)" fill="none" stroke="#263238" stroke-linecap="round" stroke-linejoin="round" stroke-width="0.966"/>
            <path id="Trazado_636416" data-name="Trazado 636416" d="M68.143,253.771s.28-16.377-1.142-26.558" transform="translate(-39.903 -221.64)" fill="none" stroke="#263238" stroke-linecap="round" stroke-linejoin="round" stroke-width="0.966"/>
            <line id="Línea_522" data-name="Línea 522" y1="2.22" x2="1.086" transform="translate(42.588 15.709)" fill="none" stroke="#263238" stroke-miterlimit="10" stroke-width="0.966"/>
            <line id="Línea_523" data-name="Línea 523" y1="16.915" x2="8.272" transform="translate(32.755 21.12)" fill="none" stroke="#263238" stroke-miterlimit="10" stroke-width="0.966"/>
            <path id="Trazado_636417" data-name="Trazado 636417" d="M120.461,273.952a9.04,9.04,0,0,1,1.22-.085H124.1" transform="translate(-65.924 -244.348)" fill="none" stroke="#263238" stroke-miterlimit="10" stroke-width="0.966"/>
            <path id="Trazado_636418" data-name="Trazado 636418" d="M83.437,288.334c.545.084,3.651-4.059,9-8.2A31.773,31.773,0,0,1,98.9,276.1" transform="translate(-47.903 -245.435)" fill="none" stroke="#263238" stroke-miterlimit="10" stroke-width="0.966"/>
            <path id="Trazado_636419" data-name="Trazado 636419" d="M17.961,296.322a4.315,4.315,0,0,0-.728,2.112" transform="translate(-15.679 -255.278)" fill="none" stroke="#263238" stroke-miterlimit="10" stroke-width="0.966"/>
            <path id="Trazado_636420" data-name="Trazado 636420" d="M40.728,303.6s-3-.478-8.356-6c-4.974-5.134-9.054-5.795-10.99-4.615" transform="translate(-17.699 -253.411)" fill="none" stroke="#263238" stroke-miterlimit="10" stroke-width="0.966"/>
            <path id="Trazado_636421" data-name="Trazado 636421" d="M96.317,318.981c.834.14,1.576.345,2.219.494" transform="translate(-54.172 -266.307)" fill="none" stroke="#263238" stroke-miterlimit="10" stroke-width="0.966"/>
            <path id="Trazado_636422" data-name="Trazado 636422" d="M70.578,323.7s1.1.513,5.418-2.766a10.07,10.07,0,0,1,4.978-2.144" transform="translate(-41.644 -266.215)" fill="none" stroke="#263238" stroke-miterlimit="10" stroke-width="0.966"/>
            <path id="Trazado_636423" data-name="Trazado 636423" d="M16.623,318.771c-1.494,0-2.417.084-2.417.084" transform="translate(-14.206 -266.204)" fill="none" stroke="#263238" stroke-miterlimit="10" stroke-width="0.966"/>
            <path id="Trazado_636424" data-name="Trazado 636424" d="M40.093,324.122s-.577-.7-7.31-3.287a31.759,31.759,0,0,0-9.137-1.9" transform="translate(-18.801 -266.286)" fill="none" stroke="#263238" stroke-miterlimit="10" stroke-width="0.966"/>
          </g>
        </g>
      </g>
      <g id="Graphics" transform="translate(47.65 40.761)">
        <g id="Grupo_905949" data-name="Grupo 905949" transform="translate(0)">
          <g id="Grupo_905942" data-name="Grupo 905942" transform="translate(182.86 135.746)">
            <path id="Trazado_636425" data-name="Trazado 636425" d="M455.7,314.3h-5.984v-1.63a.181.181,0,0,0-.181-.181h-6.532a.181.181,0,0,0-.181.181v1.63h-1.881a.371.371,0,0,0-.371.371v9.194h15.5v-9.194A.371.371,0,0,0,455.7,314.3Z" transform="translate(-440.574 -312.49)" fill="none" stroke="#b2b2b2" stroke-miterlimit="10" stroke-width="0.974"/>
            <path id="Trazado_636426" data-name="Trazado 636426" d="M455.7,341.9h-5.984v-1.63a.181.181,0,0,0-.181-.181h-6.532a.181.181,0,0,0-.181.181v1.63h-1.881a.37.37,0,0,0-.371.371v9.194h15.5V342.27A.37.37,0,0,0,455.7,341.9Z" transform="translate(-440.574 -325.923)" fill="none" stroke="#b2b2b2" stroke-miterlimit="10" stroke-width="0.974"/>
            <path id="Trazado_636427" data-name="Trazado 636427" d="M455.7,369.5h-5.984v-1.63a.181.181,0,0,0-.181-.181h-6.532a.181.181,0,0,0-.181.181v1.63h-1.881a.37.37,0,0,0-.371.371v9.194h15.5v-9.194A.37.37,0,0,0,455.7,369.5Z" transform="translate(-440.574 -339.356)" fill="none" stroke="#b2b2b2" stroke-miterlimit="10" stroke-width="0.974"/>
          </g>
          <g id="Grupo_905945" data-name="Grupo 905945" transform="translate(138.028)">
            <g id="Grupo_905943" data-name="Grupo 905943">
              <path id="Trazado_636428" data-name="Trazado 636428" d="M384.725,64.022l-2.153-.151a13.4,13.4,0,0,0-.207-2.168l2.083-.558a.615.615,0,0,0,.434-.752l-.26-.971a.614.614,0,0,0-.752-.434l-2.079.557a13.247,13.247,0,0,0-.906-1.981l1.787-1.205a.614.614,0,0,0,.166-.853l-.563-.834a.614.614,0,0,0-.853-.166l-1.788,1.206a13.46,13.46,0,0,0-1.5-1.58l1.3-1.723a.614.614,0,0,0-.121-.86l-.8-.6a.614.614,0,0,0-.86.121l-1.3,1.723a13.229,13.229,0,0,0-1.93-1.01l.665-2.046a.614.614,0,0,0-.394-.774l-.956-.311a.615.615,0,0,0-.774.395l-.666,2.051a13.239,13.239,0,0,0-1.922-.3V48.631a.614.614,0,0,0-.614-.614h-1.005a.614.614,0,0,0-.614.614V50.79a13.288,13.288,0,0,0-2.149.355l-.7-2.036a.615.615,0,0,0-.781-.381l-.95.327a.614.614,0,0,0-.381.781l.7,2.038a13.232,13.232,0,0,0-1.913,1.04l-1.328-1.7a.614.614,0,0,0-.862-.106l-.792.619a.614.614,0,0,0-.106.862l1.328,1.7a13.407,13.407,0,0,0-1.47,1.606l-1.81-1.175a.614.614,0,0,0-.849.18l-.548.843a.614.614,0,0,0,.181.849l1.806,1.173a13.26,13.26,0,0,0-.867,2l-2.091-.521a.615.615,0,0,0-.745.448l-.243.975a.615.615,0,0,0,.448.745l2.091.521a13.393,13.393,0,0,0-.171,2.128c0,.014,0,.029,0,.044l-2.148.188a.614.614,0,0,0-.558.665l.087,1a.614.614,0,0,0,.666.558l2.148-.188a13.294,13.294,0,0,0,.544,2.109l-1.968.877a.614.614,0,0,0-.311.811l.409.918a.614.614,0,0,0,.811.311l1.968-.876a13.352,13.352,0,0,0,1.206,1.814l-1.578,1.472a.614.614,0,0,0-.03.868l.685.735a.615.615,0,0,0,.868.03l1.576-1.47a13.4,13.4,0,0,0,1.729,1.325l-1.013,1.9a.615.615,0,0,0,.254.831l.887.472a.615.615,0,0,0,.831-.254l1.011-1.9a13.181,13.181,0,0,0,2.067.689l-.337,2.129a.614.614,0,0,0,.511.7l.993.157a.614.614,0,0,0,.7-.511l.338-2.132c.322.023.645.039.973.039.407,0,.808-.021,1.2-.056l.375,2.124a.614.614,0,0,0,.711.5l.99-.175a.614.614,0,0,0,.5-.711l-.374-2.121a13.166,13.166,0,0,0,2.053-.729l1.045,1.885a.615.615,0,0,0,.835.24l.879-.488a.614.614,0,0,0,.239-.835l-1.044-1.884a13.328,13.328,0,0,0,1.7-1.359l1.6,1.444a.614.614,0,0,0,.867-.046l.673-.747a.614.614,0,0,0-.046-.867l-1.6-1.443a13.3,13.3,0,0,0,1.171-1.836l1.984.842a.614.614,0,0,0,.805-.325l.393-.925a.614.614,0,0,0-.325-.806l-1.984-.842a13.2,13.2,0,0,0,.51-2.118l2.148.15a.614.614,0,0,0,.655-.57l.07-1A.614.614,0,0,0,384.725,64.022Zm-15.468,7.513a7.476,7.476,0,1,1,7.476-7.475A7.476,7.476,0,0,1,369.257,71.535Z" transform="translate(-353.229 -48.017)" fill="none" stroke="#b2b2b2" stroke-miterlimit="10" stroke-width="0.974"/>
            </g>
            <g id="Grupo_905944" data-name="Grupo 905944" transform="translate(30.18 16.36)">
              <path id="Trazado_636429" data-name="Trazado 636429" d="M432.671,90.38l-1.411-.1a8.749,8.749,0,0,0-.135-1.421l1.365-.366a.4.4,0,0,0,.285-.493l-.171-.636a.4.4,0,0,0-.493-.285l-1.363.365a8.665,8.665,0,0,0-.594-1.3l1.171-.79a.4.4,0,0,0,.108-.559l-.368-.546a.4.4,0,0,0-.558-.109l-1.172.79a8.8,8.8,0,0,0-.982-1.035l.851-1.129a.4.4,0,0,0-.08-.564l-.526-.4a.4.4,0,0,0-.564.079l-.85,1.129a8.683,8.683,0,0,0-1.265-.662l.436-1.342a.4.4,0,0,0-.259-.507l-.626-.2a.4.4,0,0,0-.508.259l-.436,1.344a8.778,8.778,0,0,0-1.26-.2V80.294a.4.4,0,0,0-.4-.4H422.2a.4.4,0,0,0-.4.4v1.414a8.719,8.719,0,0,0-1.408.233l-.459-1.335a.4.4,0,0,0-.512-.249l-.623.215a.4.4,0,0,0-.249.512l.46,1.336a8.667,8.667,0,0,0-1.254.682l-.87-1.114a.4.4,0,0,0-.565-.07l-.519.406a.4.4,0,0,0-.069.565L416.6,84a8.753,8.753,0,0,0-.964,1.053l-1.186-.77a.4.4,0,0,0-.557.119l-.359.552a.4.4,0,0,0,.118.557l1.184.769a8.674,8.674,0,0,0-.569,1.31l-1.37-.342a.4.4,0,0,0-.488.293l-.159.64a.4.4,0,0,0,.293.488l1.37.342a8.8,8.8,0,0,0-.112,1.395c0,.01,0,.019,0,.029l-1.407.123a.4.4,0,0,0-.366.436l.057.656a.4.4,0,0,0,.436.366l1.408-.123a8.649,8.649,0,0,0,.356,1.382l-1.29.575a.4.4,0,0,0-.2.531l.268.6a.4.4,0,0,0,.531.2l1.29-.574a8.773,8.773,0,0,0,.79,1.189l-1.034.964a.4.4,0,0,0-.02.569l.449.481a.4.4,0,0,0,.569.02l1.033-.963a8.786,8.786,0,0,0,1.133.868l-.664,1.248a.4.4,0,0,0,.166.545l.582.31a.4.4,0,0,0,.545-.167l.662-1.246a8.664,8.664,0,0,0,1.354.452l-.221,1.395a.4.4,0,0,0,.335.46l.65.1a.4.4,0,0,0,.461-.335l.221-1.4c.211.015.423.026.637.026.266,0,.529-.014.789-.037l.245,1.392a.4.4,0,0,0,.467.326l.649-.114a.4.4,0,0,0,.326-.466l-.245-1.39a8.661,8.661,0,0,0,1.345-.478l.685,1.235a.4.4,0,0,0,.548.157l.576-.319a.4.4,0,0,0,.157-.548l-.685-1.235a8.724,8.724,0,0,0,1.116-.891l1.051.946a.4.4,0,0,0,.569-.03l.44-.49a.4.4,0,0,0-.03-.568l-1.05-.946a8.726,8.726,0,0,0,.768-1.2l1.3.552a.4.4,0,0,0,.528-.214l.258-.606a.4.4,0,0,0-.214-.528l-1.3-.552a8.707,8.707,0,0,0,.334-1.388l1.408.1a.4.4,0,0,0,.43-.373l.046-.658A.4.4,0,0,0,432.671,90.38ZM422.533,95.3a4.9,4.9,0,1,1,4.9-4.9A4.9,4.9,0,0,1,422.533,95.3Z" transform="translate(-412.029 -79.891)" fill="none" stroke="#b2b2b2" stroke-miterlimit="10" stroke-width="0.974"/>
            </g>
          </g>
          <g id="Grupo_905948" data-name="Grupo 905948" transform="translate(0 3.801)">
            <g id="Grupo_905946" data-name="Grupo 905946" transform="translate(0 5.327)">
              <path id="Trazado_636430" data-name="Trazado 636430" d="M127.349,68.933h-41.5A1.537,1.537,0,0,1,84.309,67.4h0a1.537,1.537,0,0,1,1.537-1.537h41.5a1.537,1.537,0,0,1,1.537,1.537h0A1.537,1.537,0,0,1,127.349,68.933Z" transform="translate(-84.309 -65.829)" fill="none" stroke="#b2b2b2" stroke-miterlimit="10" stroke-width="0.974"/>
              <circle id="Elipse_6758" data-name="Elipse 6758" cx="1.567" cy="1.567" r="1.567" transform="translate(36.263)" fill="none" stroke="#b2b2b2" stroke-miterlimit="10" stroke-width="0.974"/>
            </g>
            <g id="Grupo_905947" data-name="Grupo 905947">
              <path id="Trazado_636431" data-name="Trazado 636431" d="M127.349,58.554h-41.5a1.537,1.537,0,0,1-1.537-1.537h0a1.537,1.537,0,0,1,1.537-1.537h41.5a1.537,1.537,0,0,1,1.537,1.537h0A1.537,1.537,0,0,1,127.349,58.554Z" transform="translate(-84.309 -55.451)" fill="none" stroke="#b2b2b2" stroke-miterlimit="10" stroke-width="0.974"/>
              <circle id="Elipse_6759" data-name="Elipse 6759" cx="1.567" cy="1.567" r="1.567" transform="translate(16.835)" fill="none" stroke="#b2b2b2" stroke-miterlimit="10" stroke-width="0.974"/>
            </g>
          </g>
        </g>
      </g>
      <g id="Device" transform="translate(46.086 64.357)">
        <ellipse id="Elipse_6760" data-name="Elipse 6760" cx="85.167" cy="6.778" rx="85.167" ry="6.778" transform="translate(6.19 158.214)" fill="#263238"/>
        <rect id="Rectángulo_303771" data-name="Rectángulo 303771" width="173.058" height="99.817" transform="translate(5.783 6.413)" fill="#0b5999" stroke="#263238" stroke-miterlimit="10" stroke-width="0.966"/>
        <g id="Grupo_905954" data-name="Grupo 905954" transform="translate(11.55 66.797)">
          <rect id="Rectángulo_303772" data-name="Rectángulo 303772" width="55.794" height="23.58" transform="translate(0 1.328)" fill="#fff"/>
          <g id="Grupo_905951" data-name="Grupo 905951">
            <rect id="Rectángulo_303773" data-name="Rectángulo 303773" width="55.794" height="3.985" fill="#263238"/>
            <g id="Grupo_905950" data-name="Grupo 905950" transform="translate(1.195 1.4)">
              <path id="Trazado_636432" data-name="Trazado 636432" d="M107.338,227.48a.623.623,0,1,1-.623-.623A.623.623,0,0,1,107.338,227.48Z" transform="translate(-106.093 -226.857)" fill="#92e3a9"/>
              <circle id="Elipse_6761" data-name="Elipse 6761" cx="0.623" cy="0.623" r="0.623" transform="translate(2.802)" fill="#92e3a9"/>
              <circle id="Elipse_6762" data-name="Elipse 6762" cx="0.623" cy="0.623" r="0.623" transform="translate(5.603 0)" fill="#92e3a9"/>
            </g>
          </g>
          <g id="Grupo_905952" data-name="Grupo 905952" transform="translate(2.989 6.915)">
            <rect id="Rectángulo_303774" data-name="Rectángulo 303774" width="11.956" height="4.982" transform="translate(3.653)" fill="#92e3a9"/>
            <rect id="Rectángulo_303775" data-name="Rectángulo 303775" width="19.262" height="9.963" transform="translate(0 3.487)" fill="#525252"/>
            <rect id="Rectángulo_303776" data-name="Rectángulo 303776" width="11.956" height="3.321" transform="translate(3.653 3.487)" fill="#757575"/>
            <rect id="Rectángulo_303777" data-name="Rectángulo 303777" width="11.956" height="4.982" transform="translate(3.653 8.469)" fill="#263238"/>
            <rect id="Rectángulo_303778" data-name="Rectángulo 303778" width="11.956" height="4.982" transform="translate(3.653 11.292)" fill="#92e3a9"/>
          </g>
          <rect id="Rectángulo_303779" data-name="Rectángulo 303779" width="12.288" height="4.317" transform="translate(25.905 15.052)" fill="#ccc"/>
          <rect id="Rectángulo_303780" data-name="Rectángulo 303780" width="12.288" height="4.317" transform="translate(40.185 15.052)" fill="#92e3a9"/>
          <g id="Grupo_905953" data-name="Grupo 905953" transform="translate(25.833 8.451)">
            <path id="Trazado_636433" data-name="Trazado 636433" d="M154.819,240.593c.539,0,.748.339.748.848v.379c0,.553-.255.828-.808.828h-.434v1.436H154.1v-3.491Zm-.06,1.846c.4,0,.578-.18.578-.6v-.409c0-.379-.13-.623-.519-.623h-.494v1.636Z" transform="translate(-154.096 -240.593)" fill="#263238"/>
            <path id="Trazado_636434" data-name="Trazado 636434" d="M158.363,240.593c.534,0,.748.295.748.788v.3a.764.764,0,0,0,0,1.437v.544a.781.781,0,0,0,.085.419h-.24a.822.822,0,0,1-.075-.419v-.549c0-.463-.254-.593-.653-.593h-.364v1.561h-.229v-3.491Zm-.13,1.721c.409,0,.648-.115.648-.584V241.4c0-.374-.144-.6-.524-.6h-.494v1.511Z" transform="translate(-155.819 -240.593)" fill="#263238"/>
            <path id="Trazado_636435" data-name="Trazado 636435" d="M161.616,240.593v3.491h-.229v-3.491Z" transform="translate(-157.645 -240.593)" fill="#263238"/>
            <path id="Trazado_636436" data-name="Trazado 636436" d="M162.821,244.084h-.209v-3.491h.3l1.047,2.948v-2.948h.209v3.491h-.254l-1.092-3.112Z" transform="translate(-158.241 -240.593)" fill="#263238"/>
            <path id="Trazado_636437" data-name="Trazado 636437" d="M166.888,244.084V240.8h-.708v-.21h1.651v.21h-.713v3.281Z" transform="translate(-159.978 -240.593)" fill="#263238"/>
            <path id="Trazado_636438" data-name="Trazado 636438" d="M171.134,242.209v.209h-.953v1.456h1.147v.209h-1.377v-3.491h1.377v.21h-1.147v1.406Z" transform="translate(-161.814 -240.593)" fill="#263238"/>
            <path id="Trazado_636439" data-name="Trazado 636439" d="M174.092,240.593c.534,0,.748.295.748.788v.3a.764.764,0,0,0,0,1.437v.544a.78.78,0,0,0,.085.419h-.24a.821.821,0,0,1-.075-.419v-.549c0-.463-.254-.593-.653-.593h-.364v1.561h-.229v-3.491Zm-.13,1.721c.409,0,.648-.115.648-.584V241.4c0-.374-.144-.6-.524-.6h-.494v1.511Z" transform="translate(-163.474 -240.593)" fill="#263238"/>
          </g>
        </g>
        <g id="Grupo_905963" data-name="Grupo 905963" transform="translate(80.303 11.245)">
          <rect id="Rectángulo_303781" data-name="Rectángulo 303781" width="71.908" height="44.673" transform="translate(0 0.924)" fill="#263238"/>
          <rect id="Rectángulo_303782" data-name="Rectángulo 303782" width="71.908" height="41.475" transform="translate(0 0.924)" fill="#fff"/>
          <rect id="Rectángulo_303783" data-name="Rectángulo 303783" width="16.809" height="41.475" transform="translate(0 0.924)" fill="#ccc"/>
          <g id="Grupo_905956" data-name="Grupo 905956">
            <rect id="Rectángulo_303784" data-name="Rectángulo 303784" width="71.908" height="11.636" fill="#263238"/>
            <g id="Grupo_905955" data-name="Grupo 905955" transform="translate(2.221 1.51)">
              <path id="Trazado_636440" data-name="Trazado 636440" d="M243.426,119.53a.692.692,0,1,1-.692-.692A.692.692,0,0,1,243.426,119.53Z" transform="translate(-242.042 -118.838)" fill="#92e3a9"/>
              <circle id="Elipse_6763" data-name="Elipse 6763" cx="0.692" cy="0.692" r="0.692" transform="translate(3.114 0)" fill="#92e3a9"/>
              <path id="Trazado_636441" data-name="Trazado 636441" d="M255.558,119.53a.692.692,0,1,1-.692-.692A.692.692,0,0,1,255.558,119.53Z" transform="translate(-247.947 -118.838)" fill="#92e3a9"/>
            </g>
          </g>
          <path id="Trazado_636442" data-name="Trazado 636442" d="M353.591,127.1h-15.1a2,2,0,0,1-2-2h0a2,2,0,0,1,2-2h15.1a2,2,0,0,1,2,2h0A2,2,0,0,1,353.591,127.1Z" transform="translate(-285.793 -119.402)" fill="#fff" stroke="#263238" stroke-miterlimit="10" stroke-width="0.966"/>
          <rect id="Rectángulo_303785" data-name="Rectángulo 303785" width="4.313" height="3.081" transform="translate(42.38 4.005)" fill="#696969" stroke="#263238" stroke-miterlimit="10" stroke-width="0.966"/>
          <rect id="Rectángulo_303786" data-name="Rectángulo 303786" width="4.313" height="3.081" transform="translate(33.797 4.005)" fill="#696969" stroke="#263238" stroke-miterlimit="10" stroke-width="0.966"/>
          <rect id="Rectángulo_303787" data-name="Rectángulo 303787" width="4.313" height="3.081" transform="translate(1.713 4.005)" fill="#696969" stroke="#263238" stroke-miterlimit="10" stroke-width="0.966"/>
          <rect id="Rectángulo_303788" data-name="Rectángulo 303788" width="4.313" height="3.081" transform="translate(6.334 4.005)" fill="#696969" stroke="#263238" stroke-miterlimit="10" stroke-width="0.966"/>
          <g id="Grupo_905957" data-name="Grupo 905957" transform="translate(19.465 15.165)">
            <path id="Rectángulo_303789" data-name="Rectángulo 303789" d="M.769,0h5.7a.769.769,0,0,1,.769.769V4.464a0,0,0,0,1,0,0H0a0,0,0,0,1,0,0V.769A.769.769,0,0,1,.769,0Z" transform="translate(0 0.845)" fill="#ccc"/>
            <rect id="Rectángulo_303790" data-name="Rectángulo 303790" width="3.218" height="1.676" rx="0.375" transform="translate(1.051)" fill="#ccc"/>
          </g>
          <g id="Grupo_905958" data-name="Grupo 905958" transform="translate(34.946 15.165)">
            <path id="Rectángulo_303791" data-name="Rectángulo 303791" d="M.769,0h5.7a.77.77,0,0,1,.77.77V4.464a0,0,0,0,1,0,0H0a0,0,0,0,1,0,0V.769A.769.769,0,0,1,.769,0Z" transform="translate(0 0.845)" fill="#ccc"/>
            <rect id="Rectángulo_303792" data-name="Rectángulo 303792" width="3.218" height="1.676" rx="0.375" transform="translate(1.051)" fill="#ccc"/>
          </g>
          <g id="Grupo_905959" data-name="Grupo 905959" transform="translate(50.428 15.165)">
            <path id="Rectángulo_303793" data-name="Rectángulo 303793" d="M.769,0h5.7a.769.769,0,0,1,.769.769V4.464a0,0,0,0,1,0,0H0a0,0,0,0,1,0,0V.769A.769.769,0,0,1,.769,0Z" transform="translate(0 0.845)" fill="#ccc"/>
            <rect id="Rectángulo_303794" data-name="Rectángulo 303794" width="3.218" height="1.676" rx="0.375" transform="translate(1.051)" fill="#ccc"/>
          </g>
          <g id="Grupo_905960" data-name="Grupo 905960" transform="translate(19.465 25.332)">
            <path id="Rectángulo_303795" data-name="Rectángulo 303795" d="M.769,0h5.7a.769.769,0,0,1,.769.769V4.464a0,0,0,0,1,0,0H0a0,0,0,0,1,0,0V.769A.769.769,0,0,1,.769,0Z" transform="translate(0 0.845)" fill="#ccc"/>
            <rect id="Rectángulo_303796" data-name="Rectángulo 303796" width="3.218" height="1.676" rx="0.375" transform="translate(1.051)" fill="#ccc"/>
          </g>
          <g id="Grupo_905961" data-name="Grupo 905961" transform="translate(34.946 25.332)">
            <path id="Rectángulo_303797" data-name="Rectángulo 303797" d="M.769,0h5.7a.77.77,0,0,1,.77.77V4.464a0,0,0,0,1,0,0H0a0,0,0,0,1,0,0V.769A.769.769,0,0,1,.769,0Z" transform="translate(0 0.845)" fill="#ccc"/>
            <rect id="Rectángulo_303798" data-name="Rectángulo 303798" width="3.218" height="1.676" rx="0.375" transform="translate(1.051)" fill="#ccc"/>
          </g>
          <g id="Grupo_905962" data-name="Grupo 905962" transform="translate(54.396 43.325)">
            <path id="Trazado_636443" data-name="Trazado 636443" d="M356.75,201.224H344.041a.347.347,0,0,1-.346-.347h0a.346.346,0,0,1,.346-.346H356.75a.346.346,0,0,1,.346.346h0A.347.347,0,0,1,356.75,201.224Z" transform="translate(-343.695 -200.416)" fill="#c4c4c4"/>
            <path id="Trazado_636444" data-name="Trazado 636444" d="M348.961,200.761a.455.455,0,1,1-.455-.455A.455.455,0,0,1,348.961,200.761Z" transform="translate(-345.815 -200.306)" fill="#263238"/>
          </g>
        </g>
        <g id="Grupo_905966" data-name="Grupo 905966" transform="translate(99.303 66.961)">
          <rect id="Rectángulo_303799" data-name="Rectángulo 303799" width="70.896" height="34.193" transform="translate(0 0.911)" fill="#263238"/>
          <rect id="Rectángulo_303800" data-name="Rectángulo 303800" width="70.896" height="31.04" transform="translate(0 0.911)" fill="#fff"/>
          <g id="Grupo_905965" data-name="Grupo 905965" transform="translate(0)">
            <rect id="Rectángulo_303801" data-name="Rectángulo 303801" width="70.896" height="11.473" fill="#263238"/>
            <g id="Grupo_905964" data-name="Grupo 905964" transform="translate(2.19 1.489)">
              <path id="Trazado_636445" data-name="Trazado 636445" d="M280.364,228.031a.682.682,0,1,1-.682-.682A.682.682,0,0,1,280.364,228.031Z" transform="translate(-279 -227.349)" fill="#92e3a9"/>
              <path id="Trazado_636446" data-name="Trazado 636446" d="M286.344,228.031a.682.682,0,1,1-.682-.682A.682.682,0,0,1,286.344,228.031Z" transform="translate(-281.911 -227.349)" fill="#92e3a9"/>
              <path id="Trazado_636447" data-name="Trazado 636447" d="M292.325,228.031a.682.682,0,1,1-.682-.682A.682.682,0,0,1,292.325,228.031Z" transform="translate(-284.822 -227.349)" fill="#92e3a9"/>
            </g>
          </g>
          <rect id="Rectángulo_303802" data-name="Rectángulo 303802" width="18.833" height="3.949" rx="1.974" transform="translate(49.986 3.645)" fill="#fff" stroke="#263238" stroke-miterlimit="10" stroke-width="0.966"/>
          <rect id="Rectángulo_303803" data-name="Rectángulo 303803" width="4.253" height="3.038" transform="translate(1.689 3.949)" fill="#696969" stroke="#263238" stroke-miterlimit="10" stroke-width="0.966"/>
          <rect id="Rectángulo_303804" data-name="Rectángulo 303804" width="4.253" height="3.038" transform="translate(6.245 3.949)" fill="#696969" stroke="#263238" stroke-miterlimit="10" stroke-width="0.966"/>
          <rect id="Rectángulo_303805" data-name="Rectángulo 303805" width="7.989" height="3.038" transform="translate(11.259 3.949)" fill="#696969" stroke="#263238" stroke-miterlimit="10" stroke-width="0.966"/>
          <path id="Trazado_636448" data-name="Trazado 636448" d="M305.391,277.843h-6.159l1.257-1.85v-1.682h3.645v1.748Z" transform="translate(-286.658 -248.718)" fill="#969696"/>
          <rect id="Rectángulo_303806" data-name="Rectángulo 303806" width="17.879" height="14.36" transform="translate(6.714 12.539)" fill="#ccc"/>
          <rect id="Rectángulo_303807" data-name="Rectángulo 303807" width="17.879" height="11.807" transform="translate(6.714 12.539)" fill="#263238"/>
          <rect id="Rectángulo_303808" data-name="Rectángulo 303808" width="15.745" height="9.254" transform="translate(7.781 13.815)" fill="#4dd0e1"/>
          <rect id="Rectángulo_303809" data-name="Rectángulo 303809" width="34.628" height="1.367" rx="0.683" transform="translate(31.5 17.855)" fill="#969696"/>
          <path id="Trazado_636449" data-name="Trazado 636449" d="M392.124,258.838a1.823,1.823,0,1,0-1.823,1.823A1.823,1.823,0,0,0,392.124,258.838Z" transform="translate(-330.097 -240.299)" fill="#ccc"/>
        </g>
        <g id="Grupo_905970" data-name="Grupo 905970" transform="translate(11.55 10.884)">
          <rect id="Rectángulo_303810" data-name="Rectángulo 303810" width="49.91" height="51.759" fill="#263238"/>
          <rect id="Rectángulo_303811" data-name="Rectángulo 303811" width="49.91" height="4.141" fill="#fff"/>
          <g id="Grupo_905968" data-name="Grupo 905968" transform="translate(2.777 6.857)">
            <g id="Grupo_905967" data-name="Grupo 905967">
              <path id="Trazado_636450" data-name="Trazado 636450" d="M110.992,129.329h-1.458a.36.36,0,0,1,0-.719h1.458a.36.36,0,0,1,0,.719Zm.359,1.306a.359.359,0,0,0-.359-.36h-1.458a.36.36,0,0,0,0,.719h1.458A.359.359,0,0,0,111.351,130.635Zm0,1.666a.359.359,0,0,0-.359-.36h-1.458a.36.36,0,0,0,0,.719h1.458A.359.359,0,0,0,111.351,132.3Zm0,1.666a.359.359,0,0,0-.359-.359h-1.458a.359.359,0,0,0,0,.719h1.458A.359.359,0,0,0,111.351,133.966Zm0,1.666a.359.359,0,0,0-.359-.359h-1.458a.36.36,0,0,0,0,.719h1.458A.359.359,0,0,0,111.351,135.632Zm0,1.666a.359.359,0,0,0-.359-.359h-1.458a.359.359,0,0,0,0,.719h1.458A.359.359,0,0,0,111.351,137.3Zm0,1.666a.359.359,0,0,0-.359-.359h-1.458a.36.36,0,0,0,0,.719h1.458A.359.359,0,0,0,111.351,138.964Zm0,1.666a.359.359,0,0,0-.359-.359h-1.458a.36.36,0,0,0,0,.719h1.458A.359.359,0,0,0,111.351,140.629Zm5.452-11.66a.359.359,0,0,0-.359-.359h-3.826a.36.36,0,0,0,0,.719h3.826A.359.359,0,0,0,116.8,128.969Zm0,1.666a.359.359,0,0,0-.359-.36h-3.826a.36.36,0,0,0,0,.719h3.826A.359.359,0,0,0,116.8,130.635Zm0,1.666a.359.359,0,0,0-.359-.36h-3.826a.36.36,0,0,0,0,.719h3.826A.359.359,0,0,0,116.8,132.3Zm0,1.666a.359.359,0,0,0-.359-.359h-3.826a.359.359,0,0,0,0,.719h3.826A.359.359,0,0,0,116.8,133.966Zm0,1.666a.359.359,0,0,0-.359-.359h-3.826a.36.36,0,0,0,0,.719h3.826A.359.359,0,0,0,116.8,135.632Zm4.581,1.666a.359.359,0,0,0-.36-.359H117.2a.359.359,0,0,0,0,.719h3.826A.359.359,0,0,0,121.385,137.3Zm0,1.666a.359.359,0,0,0-.36-.359H117.2a.36.36,0,0,0,0,.719h3.826A.36.36,0,0,0,121.385,138.964Zm0,1.666a.359.359,0,0,0-.36-.359H117.2a.36.36,0,0,0,0,.719h3.826A.36.36,0,0,0,121.385,140.629Zm-2.9-11.66a.417.417,0,1,0-.417.417A.417.417,0,0,0,118.488,128.969Zm1.249,0a.417.417,0,1,0-.417.417A.417.417,0,0,0,119.737,128.969Zm1.249,0a.417.417,0,1,0-.417.417A.417.417,0,0,0,120.986,128.969Zm1.249,0a.417.417,0,1,0-.417.417A.417.417,0,0,0,122.236,128.969Zm1.249,0a.417.417,0,1,0-.417.417A.417.417,0,0,0,123.485,128.969Zm1.249,0a.417.417,0,1,0-.417.417A.417.417,0,0,0,124.734,128.969Zm-6.246,3.332a.417.417,0,1,0-.417.416A.417.417,0,0,0,118.488,132.3Zm1.249,0a.417.417,0,1,0-.417.416A.417.417,0,0,0,119.737,132.3Zm1.249,0a.417.417,0,1,0-.417.416A.417.417,0,0,0,120.986,132.3Zm1.249,0a.417.417,0,1,0-.417.416A.417.417,0,0,0,122.236,132.3Zm1.249,0a.417.417,0,1,0-.417.416A.417.417,0,0,0,123.485,132.3Zm1.249,0a.417.417,0,1,0-.417.416A.417.417,0,0,0,124.734,132.3Zm-1.978,4.789a.417.417,0,1,0-.417.417A.416.416,0,0,0,122.756,137.09Zm1.249,0a.417.417,0,1,0-.417.417A.417.417,0,0,0,124.005,137.09Zm1.249,0a.417.417,0,1,0-.417.417A.417.417,0,0,0,125.255,137.09Zm1.249,0a.417.417,0,1,0-.417.417A.417.417,0,0,0,126.5,137.09Zm1.249,0a.417.417,0,1,0-.417.417A.417.417,0,0,0,127.753,137.09Zm1.249,0a.416.416,0,1,0-.416.417A.416.416,0,0,0,129,137.09Zm-6.246,3.435a.417.417,0,1,0-.417.417A.417.417,0,0,0,122.756,140.525Zm1.249,0a.417.417,0,1,0-.417.417A.417.417,0,0,0,124.005,140.525Zm1.249,0a.417.417,0,1,0-.417.417A.417.417,0,0,0,125.255,140.525Zm1.249,0a.417.417,0,1,0-.417.417A.417.417,0,0,0,126.5,140.525Zm1.249,0a.417.417,0,1,0-.417.417A.417.417,0,0,0,127.753,140.525Zm1.249,0a.416.416,0,1,0-.416.417A.417.417,0,0,0,129,140.525Z" transform="translate(-109.175 -128.553)" fill="#92e3a9"/>
              <path id="Trazado_636451" data-name="Trazado 636451" d="M110.992,155.3h-1.458a.36.36,0,0,1,0-.719h1.458a.36.36,0,0,1,0,.719Zm.359,1.306a.359.359,0,0,0-.359-.36h-1.458a.36.36,0,0,0,0,.719h1.458A.359.359,0,0,0,111.351,156.6Zm0,1.666a.359.359,0,0,0-.359-.359h-1.458a.359.359,0,0,0,0,.719h1.458A.359.359,0,0,0,111.351,158.27Zm0,1.666a.359.359,0,0,0-.359-.359h-1.458a.359.359,0,0,0,0,.719h1.458A.359.359,0,0,0,111.351,159.935Zm0,1.666a.359.359,0,0,0-.359-.359h-1.458a.36.36,0,0,0,0,.719h1.458A.359.359,0,0,0,111.351,161.6Zm0,1.666a.359.359,0,0,0-.359-.359h-1.458a.36.36,0,0,0,0,.719h1.458A.359.359,0,0,0,111.351,163.267Zm0,1.666a.359.359,0,0,0-.359-.359h-1.458a.36.36,0,0,0,0,.719h1.458A.359.359,0,0,0,111.351,164.933Zm0,1.666a.359.359,0,0,0-.359-.36h-1.458a.36.36,0,0,0,0,.719h1.458A.359.359,0,0,0,111.351,166.6Zm5.452-11.66a.359.359,0,0,0-.359-.359h-3.826a.36.36,0,0,0,0,.719h3.826A.359.359,0,0,0,116.8,154.938Zm0,1.666a.359.359,0,0,0-.359-.36h-3.826a.36.36,0,0,0,0,.719h3.826A.359.359,0,0,0,116.8,156.6Zm0,1.666a.359.359,0,0,0-.359-.359h-3.826a.359.359,0,0,0,0,.719h3.826A.359.359,0,0,0,116.8,158.27Zm0,1.666a.359.359,0,0,0-.359-.359h-3.826a.359.359,0,0,0,0,.719h3.826A.359.359,0,0,0,116.8,159.935Zm0,1.666a.359.359,0,0,0-.359-.359h-3.826a.36.36,0,0,0,0,.719h3.826A.359.359,0,0,0,116.8,161.6Zm4.581,1.666a.359.359,0,0,0-.36-.359H117.2a.36.36,0,0,0,0,.719h3.826A.36.36,0,0,0,121.385,163.267Zm0,1.666a.359.359,0,0,0-.36-.359H117.2a.36.36,0,0,0,0,.719h3.826A.36.36,0,0,0,121.385,164.933Zm0,1.666a.359.359,0,0,0-.36-.36H117.2a.36.36,0,0,0,0,.719h3.826A.359.359,0,0,0,121.385,166.6Zm-2.9-11.66a.417.417,0,1,0-.417.417A.417.417,0,0,0,118.488,154.938Zm1.249,0a.417.417,0,1,0-.417.417A.417.417,0,0,0,119.737,154.938Zm1.249,0a.417.417,0,1,0-.417.417A.417.417,0,0,0,120.986,154.938Zm1.249,0a.417.417,0,1,0-.417.417A.417.417,0,0,0,122.236,154.938Zm1.249,0a.417.417,0,1,0-.417.417A.417.417,0,0,0,123.485,154.938Zm1.249,0a.417.417,0,1,0-.417.417A.417.417,0,0,0,124.734,154.938Zm-6.246,3.332a.417.417,0,1,0-.417.416A.417.417,0,0,0,118.488,158.27Zm1.249,0a.417.417,0,1,0-.417.416A.417.417,0,0,0,119.737,158.27Zm1.249,0a.417.417,0,1,0-.417.416A.417.417,0,0,0,120.986,158.27Zm1.249,0a.417.417,0,1,0-.417.416A.417.417,0,0,0,122.236,158.27Zm1.249,0a.417.417,0,1,0-.417.416A.417.417,0,0,0,123.485,158.27Zm1.249,0a.417.417,0,1,0-.417.416A.417.417,0,0,0,124.734,158.27Zm-1.978,4.789a.417.417,0,1,0-.417.416A.416.416,0,0,0,122.756,163.059Zm1.249,0a.417.417,0,1,0-.417.416A.417.417,0,0,0,124.005,163.059Zm1.249,0a.417.417,0,1,0-.417.416A.417.417,0,0,0,125.255,163.059Zm1.249,0a.417.417,0,1,0-.417.416A.417.417,0,0,0,126.5,163.059Zm1.249,0a.417.417,0,1,0-.417.416A.417.417,0,0,0,127.753,163.059Zm1.249,0a.416.416,0,1,0-.416.416A.416.416,0,0,0,129,163.059Zm-6.246,3.435a.417.417,0,1,0-.417.417A.416.416,0,0,0,122.756,166.494Zm1.249,0a.417.417,0,1,0-.417.417A.417.417,0,0,0,124.005,166.494Zm1.249,0a.417.417,0,1,0-.417.417A.417.417,0,0,0,125.255,166.494Zm1.249,0a.417.417,0,1,0-.417.417A.417.417,0,0,0,126.5,166.494Zm1.249,0a.417.417,0,1,0-.417.417A.417.417,0,0,0,127.753,166.494Zm1.249,0a.416.416,0,1,0-.416.417A.416.416,0,0,0,129,166.494Z" transform="translate(-109.175 -141.193)" fill="#92e3a9"/>
              <path id="Trazado_636452" data-name="Trazado 636452" d="M110.992,181.894h-1.458a.36.36,0,0,1,0-.719h1.458a.36.36,0,0,1,0,.719Zm.359,1.306a.359.359,0,0,0-.359-.36h-1.458a.36.36,0,0,0,0,.719h1.458A.359.359,0,0,0,111.351,183.2Zm0,1.666a.359.359,0,0,0-.359-.359h-1.458a.359.359,0,0,0,0,.719h1.458A.359.359,0,0,0,111.351,184.866Zm0,1.666a.359.359,0,0,0-.359-.359h-1.458a.359.359,0,0,0,0,.719h1.458A.359.359,0,0,0,111.351,186.531Zm0,1.666a.359.359,0,0,0-.359-.359h-1.458a.36.36,0,0,0,0,.719h1.458A.359.359,0,0,0,111.351,188.2Zm0,1.666a.359.359,0,0,0-.359-.359h-1.458a.359.359,0,0,0,0,.719h1.458A.359.359,0,0,0,111.351,189.863Zm0,1.666a.359.359,0,0,0-.359-.359h-1.458a.359.359,0,1,0,0,.719h1.458A.359.359,0,0,0,111.351,191.529Zm0,1.666a.359.359,0,0,0-.359-.359h-1.458a.36.36,0,0,0,0,.719h1.458A.359.359,0,0,0,111.351,193.194Zm5.452-11.66a.359.359,0,0,0-.359-.359h-3.826a.36.36,0,0,0,0,.719h3.826A.359.359,0,0,0,116.8,181.534Zm0,1.666a.359.359,0,0,0-.359-.36h-3.826a.36.36,0,0,0,0,.719h3.826A.359.359,0,0,0,116.8,183.2Zm0,1.666a.359.359,0,0,0-.359-.359h-3.826a.359.359,0,0,0,0,.719h3.826A.359.359,0,0,0,116.8,184.866Zm0,1.666a.359.359,0,0,0-.359-.359h-3.826a.359.359,0,0,0,0,.719h3.826A.359.359,0,0,0,116.8,186.531Zm0,1.666a.359.359,0,0,0-.359-.359h-3.826a.36.36,0,0,0,0,.719h3.826A.359.359,0,0,0,116.8,188.2Zm4.581,1.666a.359.359,0,0,0-.36-.359H117.2a.359.359,0,0,0,0,.719h3.826A.359.359,0,0,0,121.385,189.863Zm0,1.666a.359.359,0,0,0-.36-.359H117.2a.359.359,0,1,0,0,.719h3.826A.359.359,0,0,0,121.385,191.529Zm0,1.666a.359.359,0,0,0-.36-.359H117.2a.36.36,0,0,0,0,.719h3.826A.36.36,0,0,0,121.385,193.194Zm-2.9-11.66a.417.417,0,1,0-.417.417A.417.417,0,0,0,118.488,181.534Zm1.249,0a.417.417,0,1,0-.417.417A.417.417,0,0,0,119.737,181.534Zm1.249,0a.417.417,0,1,0-.417.417A.417.417,0,0,0,120.986,181.534Zm1.249,0a.417.417,0,1,0-.417.417A.417.417,0,0,0,122.236,181.534Zm1.249,0a.417.417,0,1,0-.417.417A.417.417,0,0,0,123.485,181.534Zm1.249,0a.417.417,0,1,0-.417.417A.417.417,0,0,0,124.734,181.534Zm-6.246,3.332a.417.417,0,1,0-.417.416A.417.417,0,0,0,118.488,184.866Zm1.249,0a.417.417,0,1,0-.417.416A.417.417,0,0,0,119.737,184.866Zm1.249,0a.417.417,0,1,0-.417.416A.417.417,0,0,0,120.986,184.866Zm1.249,0a.417.417,0,1,0-.417.416A.417.417,0,0,0,122.236,184.866Zm1.249,0a.417.417,0,1,0-.417.416A.417.417,0,0,0,123.485,184.866Zm1.249,0a.417.417,0,1,0-.417.416A.417.417,0,0,0,124.734,184.866Zm-1.978,4.789a.417.417,0,1,0-.417.416A.416.416,0,0,0,122.756,189.655Zm1.249,0a.417.417,0,1,0-.417.416A.417.417,0,0,0,124.005,189.655Zm1.249,0a.417.417,0,1,0-.417.416A.417.417,0,0,0,125.255,189.655Zm1.249,0a.417.417,0,1,0-.417.416A.417.417,0,0,0,126.5,189.655Zm1.249,0a.417.417,0,1,0-.417.416A.417.417,0,0,0,127.753,189.655Zm1.249,0a.416.416,0,1,0-.416.416A.416.416,0,0,0,129,189.655Zm-6.246,3.436a.417.417,0,1,0-.417.416A.416.416,0,0,0,122.756,193.091Zm1.249,0a.417.417,0,1,0-.417.416A.417.417,0,0,0,124.005,193.091Zm1.249,0a.417.417,0,1,0-.417.416A.417.417,0,0,0,125.255,193.091Zm1.249,0a.417.417,0,1,0-.417.416A.417.417,0,0,0,126.5,193.091Zm1.249,0a.417.417,0,1,0-.417.416A.417.417,0,0,0,127.753,193.091Zm1.249,0a.416.416,0,1,0-.416.416A.416.416,0,0,0,129,193.091Z" transform="translate(-109.175 -154.138)" fill="#92e3a9"/>
              <path id="Trazado_636453" data-name="Trazado 636453" d="M154.589,129.329h-1.458a.36.36,0,0,1,0-.719h1.458a.36.36,0,0,1,0,.719Zm.359,1.306a.359.359,0,0,0-.359-.36h-1.458a.36.36,0,0,0,0,.719h1.458A.359.359,0,0,0,154.948,130.635Zm0,1.666a.359.359,0,0,0-.359-.36h-1.458a.36.36,0,0,0,0,.719h1.458A.359.359,0,0,0,154.948,132.3Zm0,1.666a.359.359,0,0,0-.359-.359h-1.458a.359.359,0,0,0,0,.719h1.458A.359.359,0,0,0,154.948,133.966Zm0,1.666a.359.359,0,0,0-.359-.359h-1.458a.36.36,0,0,0,0,.719h1.458A.359.359,0,0,0,154.948,135.632Zm0,1.666a.359.359,0,0,0-.359-.359h-1.458a.359.359,0,1,0,0,.719h1.458A.359.359,0,0,0,154.948,137.3Zm0,1.666a.359.359,0,0,0-.359-.359h-1.458a.36.36,0,0,0,0,.719h1.458A.359.359,0,0,0,154.948,138.964Zm0,1.666a.359.359,0,0,0-.359-.359h-1.458a.36.36,0,0,0,0,.719h1.458A.359.359,0,0,0,154.948,140.629Zm5.452-11.66a.359.359,0,0,0-.359-.359h-3.826a.36.36,0,1,0,0,.719h3.826A.359.359,0,0,0,160.4,128.969Zm0,1.666a.359.359,0,0,0-.359-.36h-3.826a.36.36,0,1,0,0,.719h3.826A.359.359,0,0,0,160.4,130.635Zm0,1.666a.359.359,0,0,0-.359-.36h-3.826a.36.36,0,1,0,0,.719h3.826A.359.359,0,0,0,160.4,132.3Zm0,1.666a.359.359,0,0,0-.359-.359h-3.826a.359.359,0,1,0,0,.719h3.826A.359.359,0,0,0,160.4,133.966Zm0,1.666a.359.359,0,0,0-.359-.359h-3.826a.36.36,0,1,0,0,.719h3.826A.359.359,0,0,0,160.4,135.632Zm4.581,1.666a.359.359,0,0,0-.36-.359H160.8a.359.359,0,1,0,0,.719h3.826A.359.359,0,0,0,164.982,137.3Zm0,1.666a.359.359,0,0,0-.36-.359H160.8a.36.36,0,0,0,0,.719h3.826A.36.36,0,0,0,164.982,138.964Zm0,1.666a.359.359,0,0,0-.36-.359H160.8a.36.36,0,0,0,0,.719h3.826A.36.36,0,0,0,164.982,140.629Zm-2.9-11.66a.417.417,0,1,0-.417.417A.417.417,0,0,0,162.085,128.969Zm1.249,0a.416.416,0,1,0-.416.417A.416.416,0,0,0,163.334,128.969Zm1.25,0a.417.417,0,1,0-.417.417A.417.417,0,0,0,164.583,128.969Zm1.249,0a.416.416,0,1,0-.416.417A.416.416,0,0,0,165.832,128.969Zm1.249,0a.416.416,0,1,0-.416.417A.416.416,0,0,0,167.081,128.969Zm1.25,0a.417.417,0,1,0-.417.417A.417.417,0,0,0,168.331,128.969Zm-6.246,3.332a.417.417,0,1,0-.417.416A.417.417,0,0,0,162.085,132.3Zm1.249,0a.416.416,0,1,0-.416.416A.416.416,0,0,0,163.334,132.3Zm1.25,0a.417.417,0,1,0-.417.416A.417.417,0,0,0,164.583,132.3Zm1.249,0a.416.416,0,1,0-.416.416A.416.416,0,0,0,165.832,132.3Zm1.249,0a.416.416,0,1,0-.416.416A.416.416,0,0,0,167.081,132.3Zm1.25,0a.417.417,0,1,0-.417.416A.417.417,0,0,0,168.331,132.3Zm-1.978,4.789a.417.417,0,1,0-.417.417A.417.417,0,0,0,166.353,137.09Zm1.249,0a.417.417,0,1,0-.417.417A.417.417,0,0,0,167.6,137.09Zm1.249,0a.416.416,0,1,0-.416.417A.416.416,0,0,0,168.851,137.09Zm1.25,0a.417.417,0,1,0-.417.417A.417.417,0,0,0,170.1,137.09Zm1.249,0a.416.416,0,1,0-.416.417A.416.416,0,0,0,171.35,137.09Zm1.249,0a.416.416,0,1,0-.416.417A.416.416,0,0,0,172.6,137.09Zm-6.246,3.435a.417.417,0,1,0-.417.417A.417.417,0,0,0,166.353,140.525Zm1.249,0a.417.417,0,1,0-.417.417A.417.417,0,0,0,167.6,140.525Zm1.249,0a.416.416,0,1,0-.416.417A.417.417,0,0,0,168.851,140.525Zm1.25,0a.417.417,0,1,0-.417.417A.417.417,0,0,0,170.1,140.525Zm1.249,0a.416.416,0,1,0-.416.417A.417.417,0,0,0,171.35,140.525Zm1.249,0a.416.416,0,1,0-.416.417A.417.417,0,0,0,172.6,140.525Z" transform="translate(-130.395 -128.553)" fill="#92e3a9"/>
              <path id="Trazado_636454" data-name="Trazado 636454" d="M154.589,155.925h-1.458a.36.36,0,0,1,0-.719h1.458a.36.36,0,0,1,0,.719Zm.359,1.306a.359.359,0,0,0-.359-.36h-1.458a.36.36,0,0,0,0,.719h1.458A.359.359,0,0,0,154.948,157.231Zm0,1.666a.359.359,0,0,0-.359-.36h-1.458a.36.36,0,0,0,0,.719h1.458A.359.359,0,0,0,154.948,158.9Zm0,1.666a.359.359,0,0,0-.359-.359h-1.458a.359.359,0,1,0,0,.719h1.458A.359.359,0,0,0,154.948,160.562Zm0,1.666a.359.359,0,0,0-.359-.359h-1.458a.36.36,0,0,0,0,.719h1.458A.359.359,0,0,0,154.948,162.228Zm0,1.666a.359.359,0,0,0-.359-.359h-1.458a.359.359,0,1,0,0,.719h1.458A.359.359,0,0,0,154.948,163.894Zm0,1.666a.359.359,0,0,0-.359-.359h-1.458a.359.359,0,0,0,0,.719h1.458A.359.359,0,0,0,154.948,165.56Zm0,1.666a.359.359,0,0,0-.359-.359h-1.458a.36.36,0,0,0,0,.719h1.458A.359.359,0,0,0,154.948,167.225Zm5.452-11.66a.359.359,0,0,0-.359-.359h-3.826a.36.36,0,1,0,0,.719h3.826A.359.359,0,0,0,160.4,155.565Zm0,1.666a.359.359,0,0,0-.359-.36h-3.826a.36.36,0,1,0,0,.719h3.826A.359.359,0,0,0,160.4,157.231Zm0,1.666a.359.359,0,0,0-.359-.36h-3.826a.36.36,0,1,0,0,.719h3.826A.359.359,0,0,0,160.4,158.9Zm0,1.666a.359.359,0,0,0-.359-.359h-3.826a.359.359,0,1,0,0,.719h3.826A.359.359,0,0,0,160.4,160.562Zm0,1.666a.359.359,0,0,0-.359-.359h-3.826a.36.36,0,1,0,0,.719h3.826A.359.359,0,0,0,160.4,162.228Zm4.581,1.666a.359.359,0,0,0-.36-.359H160.8a.359.359,0,1,0,0,.719h3.826A.359.359,0,0,0,164.982,163.894Zm0,1.666a.359.359,0,0,0-.36-.359H160.8a.359.359,0,1,0,0,.719h3.826A.359.359,0,0,0,164.982,165.56Zm0,1.666a.359.359,0,0,0-.36-.359H160.8a.36.36,0,0,0,0,.719h3.826A.36.36,0,0,0,164.982,167.225Zm-2.9-11.66a.417.417,0,1,0-.417.417A.417.417,0,0,0,162.085,155.565Zm1.249,0a.416.416,0,1,0-.416.417A.416.416,0,0,0,163.334,155.565Zm1.25,0a.417.417,0,1,0-.417.417A.417.417,0,0,0,164.583,155.565Zm1.249,0a.416.416,0,1,0-.416.417A.416.416,0,0,0,165.832,155.565Zm1.249,0a.416.416,0,1,0-.416.417A.416.416,0,0,0,167.081,155.565Zm1.25,0a.417.417,0,1,0-.417.417A.417.417,0,0,0,168.331,155.565Zm-6.246,3.332a.417.417,0,1,0-.417.416A.417.417,0,0,0,162.085,158.9Zm1.249,0a.416.416,0,1,0-.416.416A.416.416,0,0,0,163.334,158.9Zm1.25,0a.417.417,0,1,0-.417.416A.417.417,0,0,0,164.583,158.9Zm1.249,0a.416.416,0,1,0-.416.416A.416.416,0,0,0,165.832,158.9Zm1.249,0a.416.416,0,1,0-.416.416A.416.416,0,0,0,167.081,158.9Zm1.25,0a.417.417,0,1,0-.417.416A.417.417,0,0,0,168.331,158.9Zm-1.978,4.789a.417.417,0,1,0-.417.416A.417.417,0,0,0,166.353,163.686Zm1.249,0a.417.417,0,1,0-.417.416A.417.417,0,0,0,167.6,163.686Zm1.249,0a.416.416,0,1,0-.416.416A.416.416,0,0,0,168.851,163.686Zm1.25,0a.417.417,0,1,0-.417.416A.417.417,0,0,0,170.1,163.686Zm1.249,0a.416.416,0,1,0-.416.416A.416.416,0,0,0,171.35,163.686Zm1.249,0a.416.416,0,1,0-.416.416A.416.416,0,0,0,172.6,163.686Zm-6.246,3.436a.417.417,0,1,0-.417.416A.417.417,0,0,0,166.353,167.122Zm1.249,0a.417.417,0,1,0-.417.416A.417.417,0,0,0,167.6,167.122Zm1.249,0a.416.416,0,1,0-.416.416A.416.416,0,0,0,168.851,167.122Zm1.25,0a.417.417,0,1,0-.417.416A.417.417,0,0,0,170.1,167.122Zm1.249,0a.416.416,0,1,0-.416.416A.416.416,0,0,0,171.35,167.122Zm1.249,0a.416.416,0,1,0-.416.416A.416.416,0,0,0,172.6,167.122Z" transform="translate(-130.395 -141.498)" fill="#92e3a9"/>
            </g>
          </g>
          <g id="Grupo_905969" data-name="Grupo 905969" transform="translate(2.74 1.584)">
            <path id="Trazado_636455" data-name="Trazado 636455" d="M110.488,118.973a.692.692,0,1,1-.692-.692A.692.692,0,0,1,110.488,118.973Z" transform="translate(-109.104 -118.281)" fill="#263238"/>
            <path id="Trazado_636456" data-name="Trazado 636456" d="M116.554,118.973a.692.692,0,1,1-.692-.692A.692.692,0,0,1,116.554,118.973Z" transform="translate(-112.057 -118.281)" fill="#263238"/>
            <path id="Trazado_636457" data-name="Trazado 636457" d="M122.62,118.973a.692.692,0,1,1-.692-.692A.692.692,0,0,1,122.62,118.973Z" transform="translate(-115.009 -118.281)" fill="#263238"/>
          </g>
        </g>
        <g id="Grupo_905976" data-name="Grupo 905976" transform="translate(56.359 35.584)">
          <rect id="Rectángulo_303812" data-name="Rectángulo 303812" width="71.908" height="41.475" transform="translate(1.107 1.107)" opacity="0.3"/>
          <rect id="Rectángulo_303813" data-name="Rectángulo 303813" width="71.908" height="41.475" fill="#fff" stroke="#263238" stroke-miterlimit="10" stroke-width="0.966"/>
          <g id="Grupo_905971" data-name="Grupo 905971" transform="translate(25.785 17.89)">
            <path id="Trazado_636458" data-name="Trazado 636458" d="M252.336,203.777l-.754-.053a4.687,4.687,0,0,0-.073-.76l.73-.2a.215.215,0,0,0,.152-.263l-.091-.34a.215.215,0,0,0-.263-.152l-.728.2a4.7,4.7,0,0,0-.318-.694l.626-.422a.216.216,0,0,0,.058-.3l-.2-.292a.216.216,0,0,0-.3-.058l-.627.423a4.657,4.657,0,0,0-.525-.554l.455-.6a.216.216,0,0,0-.043-.3l-.281-.212a.215.215,0,0,0-.3.043l-.455.6a4.652,4.652,0,0,0-.676-.354l.233-.717a.215.215,0,0,0-.138-.271l-.335-.109a.215.215,0,0,0-.271.138l-.234.719a4.607,4.607,0,0,0-.673-.106v-.756a.215.215,0,0,0-.215-.215h-.352a.215.215,0,0,0-.216.215v.756a4.725,4.725,0,0,0-.753.124l-.245-.713a.215.215,0,0,0-.274-.133l-.333.114a.216.216,0,0,0-.133.274l.246.714a4.666,4.666,0,0,0-.67.364l-.465-.6a.215.215,0,0,0-.3-.037l-.278.217a.215.215,0,0,0-.037.3l.466.6a4.732,4.732,0,0,0-.515.563l-.634-.412a.215.215,0,0,0-.3.064l-.192.3a.215.215,0,0,0,.063.3l.633.411a4.647,4.647,0,0,0-.3.7l-.732-.183a.216.216,0,0,0-.261.157l-.085.342a.216.216,0,0,0,.157.261l.732.182a4.7,4.7,0,0,0-.06.746v.015l-.752.066a.215.215,0,0,0-.2.233l.031.351a.215.215,0,0,0,.233.2l.752-.066a4.668,4.668,0,0,0,.19.739l-.689.307a.215.215,0,0,0-.109.284l.143.322a.215.215,0,0,0,.284.109l.689-.307a4.7,4.7,0,0,0,.422.636l-.553.515a.215.215,0,0,0-.011.3l.24.258a.215.215,0,0,0,.3.01l.552-.515a4.676,4.676,0,0,0,.606.464l-.355.667a.215.215,0,0,0,.089.291l.311.165a.215.215,0,0,0,.291-.089l.354-.666a4.627,4.627,0,0,0,.724.241l-.118.746a.216.216,0,0,0,.179.246l.348.055a.215.215,0,0,0,.246-.179l.119-.747c.112.008.226.014.341.014.142,0,.283-.007.422-.02l.131.744a.215.215,0,0,0,.249.174l.347-.061a.215.215,0,0,0,.175-.249l-.131-.743a4.65,4.65,0,0,0,.719-.256l.366.661a.215.215,0,0,0,.293.084l.308-.171a.215.215,0,0,0,.084-.293l-.366-.66a4.689,4.689,0,0,0,.6-.476l.562.506a.215.215,0,0,0,.3-.016l.236-.262a.215.215,0,0,0-.016-.3l-.562-.506a4.64,4.64,0,0,0,.411-.644l.695.3a.215.215,0,0,0,.282-.114l.138-.324a.215.215,0,0,0-.114-.282l-.695-.3a4.628,4.628,0,0,0,.179-.742l.752.053a.215.215,0,0,0,.23-.2l.025-.352A.215.215,0,0,0,252.336,203.777Zm-5.42,2.633a2.619,2.619,0,1,1,2.619-2.619A2.619,2.619,0,0,1,246.917,206.41Z" transform="translate(-241.301 -198.17)" fill="#263238"/>
            <path id="Trazado_636459" data-name="Trazado 636459" d="M252.431,205.65a3.66,3.66,0,1,1-3.66-3.661A3.66,3.66,0,0,1,252.431,205.65Z" transform="translate(-243.155 -200.029)" fill="none" stroke="#fff" stroke-miterlimit="10" stroke-width="0.966"/>
          </g>
          <g id="Grupo_905972" data-name="Grupo 905972" transform="translate(36.358 23.621)">
            <path id="Trazado_636460" data-name="Trazado 636460" d="M269.134,213.012l-.494-.034a3.117,3.117,0,0,0-.048-.5l.478-.128a.14.14,0,0,0,.1-.172l-.06-.223a.141.141,0,0,0-.173-.1l-.477.128a3.039,3.039,0,0,0-.208-.455l.41-.277a.141.141,0,0,0,.038-.2l-.129-.191a.141.141,0,0,0-.2-.038l-.411.277a3.1,3.1,0,0,0-.344-.363l.3-.4a.141.141,0,0,0-.028-.2l-.184-.139a.141.141,0,0,0-.2.028l-.3.4a3.037,3.037,0,0,0-.443-.232l.153-.47a.141.141,0,0,0-.091-.178l-.219-.071a.141.141,0,0,0-.178.091l-.153.471a3.031,3.031,0,0,0-.441-.069v-.5a.141.141,0,0,0-.141-.141h-.231a.141.141,0,0,0-.141.141v.5a3.054,3.054,0,0,0-.493.081l-.161-.468a.141.141,0,0,0-.179-.087l-.219.075a.142.142,0,0,0-.087.18l.161.468a3.028,3.028,0,0,0-.439.239l-.3-.39a.141.141,0,0,0-.2-.025l-.182.142a.141.141,0,0,0-.024.2l.3.39a3.026,3.026,0,0,0-.338.369l-.416-.27a.141.141,0,0,0-.2.042l-.126.193a.141.141,0,0,0,.042.2l.415.269a3.063,3.063,0,0,0-.2.459l-.48-.12a.141.141,0,0,0-.171.1l-.055.224a.14.14,0,0,0,.1.171l.48.12a3.052,3.052,0,0,0-.039.488v.01l-.493.043a.141.141,0,0,0-.128.153l.021.23a.141.141,0,0,0,.152.128l.493-.044a3.035,3.035,0,0,0,.125.485l-.452.2a.141.141,0,0,0-.071.186l.094.211a.141.141,0,0,0,.186.071l.452-.2a3.026,3.026,0,0,0,.277.417l-.362.338a.141.141,0,0,0-.007.2l.158.169a.142.142,0,0,0,.2.007l.362-.338a3.014,3.014,0,0,0,.4.3l-.233.437a.142.142,0,0,0,.059.191l.2.108a.141.141,0,0,0,.19-.058l.233-.436a3.021,3.021,0,0,0,.474.158l-.077.489a.142.142,0,0,0,.117.162l.228.036a.14.14,0,0,0,.161-.118l.078-.489c.073.005.148.009.223.009.093,0,.185,0,.277-.013l.086.488a.141.141,0,0,0,.163.114l.227-.04a.141.141,0,0,0,.114-.163l-.086-.487a3.072,3.072,0,0,0,.471-.167l.24.433a.141.141,0,0,0,.191.055l.2-.112a.141.141,0,0,0,.055-.191l-.24-.433a3.133,3.133,0,0,0,.391-.312l.369.332a.142.142,0,0,0,.2-.01l.154-.172a.141.141,0,0,0-.011-.2l-.368-.331a2.979,2.979,0,0,0,.269-.422l.456.193a.141.141,0,0,0,.185-.075l.09-.213a.141.141,0,0,0-.075-.185l-.455-.193a3.048,3.048,0,0,0,.117-.486l.493.034a.14.14,0,0,0,.15-.131l.016-.23A.142.142,0,0,0,269.134,213.012Zm-3.552,1.726a1.717,1.717,0,1,1,1.716-1.717A1.717,1.717,0,0,1,265.583,214.738Z" transform="translate(-261.902 -209.337)" fill="#263238"/>
            <path id="Trazado_636461" data-name="Trazado 636461" d="M269.2,214.239a2.4,2.4,0,1,1-2.4-2.4A2.4,2.4,0,0,1,269.2,214.239Z" transform="translate(-263.117 -210.555)" fill="none" stroke="#fff" stroke-miterlimit="10" stroke-width="0.966"/>
          </g>
          <g id="Grupo_905973" data-name="Grupo 905973" transform="translate(4.486 8.458)">
            <path id="Trazado_636462" data-name="Trazado 636462" d="M199.8,181.7a1.811,1.811,0,1,1,3.618,0v3.942a1.811,1.811,0,1,1-3.618,0ZM201,185.719c0,.542.238.748.618.748s.617-.206.617-.748v-4.094c0-.541-.239-.747-.617-.747s-.618.206-.618.747Z" transform="translate(-199.805 -179.795)" fill="#263238"/>
            <path id="Trazado_636463" data-name="Trazado 636463" d="M211.884,181.837v.986c0,1.213-.585,1.873-1.776,1.873h-.563v2.849h-1.191v-7.582h1.754C211.3,179.963,211.884,180.624,211.884,181.837Zm-2.339-.79v2.567h.563c.379,0,.585-.174.585-.715v-1.137c0-.541-.206-.714-.585-.714Z" transform="translate(-203.966 -179.877)" fill="#263238"/>
            <path id="Trazado_636464" data-name="Trazado 636464" d="M217.607,183.159h1.635v1.083h-1.635v2.22h2.058v1.083h-3.249v-7.582h3.249v1.084h-2.058Z" transform="translate(-207.89 -179.877)" fill="#263238"/>
            <path id="Trazado_636465" data-name="Trazado 636465" d="M226.674,187.545a2.339,2.339,0,0,1-.108-.932v-1.191c0-.7-.238-.964-.78-.964h-.412v3.087h-1.191v-7.582h1.8c1.235,0,1.766.574,1.766,1.744v.6a1.511,1.511,0,0,1-.78,1.538c.6.249.791.823.791,1.614v1.17a2.234,2.234,0,0,0,.13.921Zm-1.3-6.5v2.329h.466c.444,0,.714-.2.714-.8v-.747c0-.542-.184-.78-.607-.78Z" transform="translate(-211.671 -179.877)" fill="#263238"/>
            <path id="Trazado_636466" data-name="Trazado 636466" d="M236.225,187.545h-1.2l-.206-1.376h-1.462l-.205,1.376h-1.094l1.213-7.582h1.744Zm-2.719-2.4h1.148l-.574-3.835Z" transform="translate(-215.502 -179.877)" fill="#263238"/>
            <path id="Trazado_636467" data-name="Trazado 636467" d="M240.582,179.963h3.683v1.084h-1.246v6.5h-1.191v-6.5h-1.246Z" transform="translate(-219.652 -179.877)" fill="#263238"/>
            <path id="Trazado_636468" data-name="Trazado 636468" d="M248.772,179.963h1.191v7.582h-1.191Z" transform="translate(-223.639 -179.877)" fill="#263238"/>
            <path id="Trazado_636469" data-name="Trazado 636469" d="M253.833,182.054v5.491h-1.072v-7.582h1.495l1.224,4.539v-4.539h1.061v7.582h-1.224Z" transform="translate(-225.58 -179.877)" fill="#263238"/>
            <path id="Trazado_636470" data-name="Trazado 636470" d="M263.489,183.239h1.668v2.4c0,1.213-.607,1.906-1.776,1.906s-1.776-.693-1.776-1.906V181.7c0-1.213.607-1.906,1.776-1.906s1.776.693,1.776,1.906v.737H264.03v-.813c0-.541-.238-.747-.617-.747s-.617.206-.617.747v4.094c0,.542.238.737.617.737s.617-.195.617-.737v-1.4h-.541Z" transform="translate(-229.884 -179.795)" fill="#263238"/>
            <path id="Trazado_636471" data-name="Trazado 636471" d="M274.725,179.795c1.159,0,1.755.693,1.755,1.906v.238h-1.127v-.314c0-.541-.217-.747-.6-.747s-.6.206-.6.747c0,1.56,2.329,1.852,2.329,4.018,0,1.213-.607,1.906-1.776,1.906s-1.776-.693-1.776-1.906v-.466h1.127v.541c0,.542.238.737.617.737s.617-.195.617-.737c0-1.559-2.329-1.852-2.329-4.018C272.971,180.488,273.566,179.795,274.725,179.795Z" transform="translate(-235.401 -179.795)" fill="#263238"/>
            <path id="Trazado_636472" data-name="Trazado 636472" d="M281.789,185.033l-1.505-5.07h1.245l.91,3.455.911-3.455h1.137l-1.505,5.07v2.512h-1.191Z" transform="translate(-238.977 -179.877)" fill="#263238"/>
            <path id="Trazado_636473" data-name="Trazado 636473" d="M290.682,179.795c1.159,0,1.755.693,1.755,1.906v.238H291.31v-.314c0-.541-.217-.747-.6-.747s-.6.206-.6.747c0,1.56,2.329,1.852,2.329,4.018,0,1.213-.607,1.906-1.776,1.906s-1.776-.693-1.776-1.906v-.466h1.127v.541c0,.542.239.737.617.737s.617-.195.617-.737c0-1.559-2.329-1.852-2.329-4.018C288.928,180.488,289.523,179.795,290.682,179.795Z" transform="translate(-243.168 -179.795)" fill="#263238"/>
            <path id="Trazado_636474" data-name="Trazado 636474" d="M296.473,179.963h3.682v1.084H298.91v6.5h-1.191v-6.5h-1.246Z" transform="translate(-246.856 -179.877)" fill="#263238"/>
            <path id="Trazado_636475" data-name="Trazado 636475" d="M305.853,183.159h1.635v1.083h-1.635v2.22h2.058v1.083h-3.249v-7.582h3.249v1.084h-2.058Z" transform="translate(-250.842 -179.877)" fill="#263238"/>
            <path id="Trazado_636476" data-name="Trazado 636476" d="M314.943,185.346l.812-5.383h1.657v7.582h-1.127v-5.437l-.823,5.437h-1.126l-.888-5.362v5.362h-1.039v-7.582h1.657Z" transform="translate(-254.612 -179.877)" fill="#263238"/>
          </g>
          <g id="Grupo_905975" data-name="Grupo 905975">
            <rect id="Rectángulo_303814" data-name="Rectángulo 303814" width="71.908" height="3.01" fill="#263238" stroke="#263238" stroke-miterlimit="10" stroke-width="0.966"/>
            <g id="Grupo_905974" data-name="Grupo 905974" transform="translate(1.988 0.586)">
              <circle id="Elipse_6764" data-name="Elipse 6764" cx="0.692" cy="0.692" r="0.692" fill="#92e3a9"/>
              <circle id="Elipse_6765" data-name="Elipse 6765" cx="0.692" cy="0.692" r="0.692" transform="translate(3.113)" fill="#92e3a9"/>
              <circle id="Elipse_6766" data-name="Elipse 6766" cx="0.692" cy="0.692" r="0.692" transform="translate(6.227)" fill="#92e3a9"/>
            </g>
          </g>
          <path id="Trazado_636477" data-name="Trazado 636477" d="M262.437,228.717H202.929a.766.766,0,0,1-.766-.766h0a.766.766,0,0,1,.766-.766h59.508a.766.766,0,0,1,.766.766h0A.766.766,0,0,1,262.437,228.717Z" transform="translate(-196.467 -194.403)" fill="#fff" stroke="#263238" stroke-miterlimit="10" stroke-width="0.966"/>
          <path id="Trazado_636478" data-name="Trazado 636478" d="M244.825,227.185h-41.9a.766.766,0,1,0,0,1.532h41.9Z" transform="translate(-196.467 -194.403)" fill="#fd9927" stroke="#263238" stroke-miterlimit="10" stroke-width="0.966"/>
        </g>
        <g id="Grupo_905977" data-name="Grupo 905977" transform="translate(2.302 5.083)">
          <path id="Trazado_636479" data-name="Trazado 636479" d="M107.005,210.182H85.747l53.927-106.29h21.258Z" transform="translate(-85.747 -103.892)" fill="#fff" opacity="0.3"/>
          <path id="Trazado_636480" data-name="Trazado 636480" d="M148.988,210.182H140.67L194.6,103.892h8.318Z" transform="translate(-112.48 -103.892)" fill="#fff" opacity="0.3"/>
        </g>
        <path id="Trazado_636481" data-name="Trazado 636481" d="M261.966,93.988H85.183a3.921,3.921,0,0,0-3.921,3.921V225.631a3.921,3.921,0,0,0,3.921,3.92H261.966a3.921,3.921,0,0,0,3.921-3.92V97.909A3.921,3.921,0,0,0,261.966,93.988ZM256.6,198.2H90.549V102.422H256.6Z" transform="translate(-81.262 -93.988)" fill="#263238" stroke="#263238" stroke-linecap="round" stroke-linejoin="round" stroke-width="0.966"/>
        <g id="Grupo_905978" data-name="Grupo 905978" transform="translate(62.453 130.749)">
          <path id="Trazado_636482" data-name="Trazado 636482" d="M255.767,364v-15.27H209.83V364a21.817,21.817,0,0,1-4.879,13.726l-2.011,2.487h59.719l-2.012-2.487A21.817,21.817,0,0,1,255.767,364Z" transform="translate(-202.939 -348.725)" fill="#a8a8a8" stroke="#263238" stroke-linecap="round" stroke-linejoin="round" stroke-width="0.966"/>
          <rect id="Rectángulo_303815" data-name="Rectángulo 303815" width="45.938" height="9.866" transform="translate(6.891 0)" fill="#263238"/>
          <rect id="Rectángulo_303816" data-name="Rectángulo 303816" width="59.731" height="2.727" transform="translate(0 31.484)" fill="#a8a8a8" stroke="#263238" stroke-linecap="round" stroke-linejoin="round" stroke-width="0.966"/>
        </g>
        <path id="Rectángulo_303817" data-name="Rectángulo 303817" d="M0,0H184.625a0,0,0,0,1,0,0V12.873a8.2,8.2,0,0,1-8.2,8.2H8.2a8.2,8.2,0,0,1-8.2-8.2V0A0,0,0,0,1,0,0Z" transform="translate(0 114.492)" fill="#fff" stroke="#263238" stroke-linecap="round" stroke-linejoin="round" stroke-width="0.966"/>
        <g id="Grupo_905979" data-name="Grupo 905979" transform="translate(161.237 11.765)">
          <path id="Trazado_636483" data-name="Trazado 636483" d="M395.4,124.413h7.622l-.762-7.5h-6.1Z" transform="translate(-395.4 -116.91)" fill="#263238"/>
          <rect id="Rectángulo_303818" data-name="Rectángulo 303818" width="7.622" height="1.752" rx="0.28" transform="translate(0 7.138)" fill="#fff"/>
        </g>
        <g id="Grupo_905981" data-name="Grupo 905981" transform="translate(161.237 22.505)">
          <g id="Grupo_905980" data-name="Grupo 905980">
            <path id="Trazado_636484" data-name="Trazado 636484" d="M395.4,145.336h7.622l-.762-7.5h-6.1Z" transform="translate(-395.4 -137.834)" fill="#263238"/>
            <rect id="Rectángulo_303819" data-name="Rectángulo 303819" width="7.622" height="1.752" rx="0.45" transform="translate(0 7.138)" fill="#fff"/>
          </g>
          <rect id="Rectángulo_303820" data-name="Rectángulo 303820" width="3.451" height="0.706" transform="translate(0.49 7.652)" fill="#263238"/>
          <path id="Trazado_636485" data-name="Trazado 636485" d="M403.137,142.636a2.689,2.689,0,1,1-2.627-2.118A2.414,2.414,0,0,1,403.137,142.636Z" transform="translate(-396.608 -139.14)" fill="#263238" stroke="#595959" stroke-miterlimit="10" stroke-width="0.483"/>
        </g>
        <g id="Grupo_905982" data-name="Grupo 905982" transform="translate(161.693 35.883)">
          <path id="Rectángulo_303821" data-name="Rectángulo 303821" d="M.77,0h5.7a.77.77,0,0,1,.77.77V4.464a0,0,0,0,1,0,0H0a0,0,0,0,1,0,0V.77A.77.77,0,0,1,.77,0Z" transform="translate(0 0.845)" fill="#fff"/>
          <rect id="Rectángulo_303822" data-name="Rectángulo 303822" width="3.218" height="1.676" rx="0.375" transform="translate(1.051)" fill="#fff"/>
        </g>
        <g id="Grupo_905983" data-name="Grupo 905983" transform="translate(161.693 46.512)">
          <path id="Rectángulo_303823" data-name="Rectángulo 303823" d="M.77,0h5.7a.77.77,0,0,1,.77.77V4.464a0,0,0,0,1,0,0H0a0,0,0,0,1,0,0V.77A.77.77,0,0,1,.77,0Z" transform="translate(0 0.845)" fill="#fff"/>
          <rect id="Rectángulo_303824" data-name="Rectángulo 303824" width="3.218" height="1.676" rx="0.375" transform="translate(1.051)" fill="#fff"/>
        </g>
        <g id="Grupo_905984" data-name="Grupo 905984" transform="translate(161.693 57.141)">
          <path id="Rectángulo_303825" data-name="Rectángulo 303825" d="M.77,0h5.7a.77.77,0,0,1,.77.77V4.464a0,0,0,0,1,0,0H0a0,0,0,0,1,0,0V.77A.77.77,0,0,1,.77,0Z" transform="translate(0 0.845)" fill="#fff"/>
          <rect id="Rectángulo_303826" data-name="Rectángulo 303826" width="3.218" height="1.676" rx="0.375" transform="translate(1.051)" fill="#fff"/>
        </g>
      </g>
      <g id="Keyboard" transform="translate(40.586 233.68)">
        <g id="Grupo_905993" data-name="Grupo 905993">
          <g id="Grupo_905986" data-name="Grupo 905986">
            <g id="Grupo_905985" data-name="Grupo 905985" transform="translate(0 18.501)">
              <path id="Rectángulo_303827" data-name="Rectángulo 303827" d="M1.984,0H150.093a1.984,1.984,0,0,1,1.984,1.984v0a1.984,1.984,0,0,1-1.984,1.984H1.984A1.984,1.984,0,0,1,0,1.984v0A1.984,1.984,0,0,1,1.984,0Z" fill="#3c464c"/>
            </g>
            <path id="Trazado_636486" data-name="Trazado 636486" d="M222.367,442.9,206.71,424.66a4.783,4.783,0,0,0-2.966-.781H89.455a4.781,4.781,0,0,0-2.966.781L70.832,442.9a.722.722,0,0,0-.165.806c.222.481,1.029.758,2.214.758H220.317c1.186,0,1.993-.276,2.214-.758A.721.721,0,0,0,222.367,442.9Z" transform="translate(-70.576 -423.879)" fill="#263238"/>
          </g>
          <g id="Grupo_905987" data-name="Grupo 905987" transform="translate(15.958 0.654)">
            <path id="Trazado_636487" data-name="Trazado 636487" d="M214.446,425.153h-6.768l-.19,2.385h7Z" transform="translate(-153.158 -425.153)" fill="#fff" stroke="#263238" stroke-linecap="round" stroke-linejoin="round" stroke-width="1.059"/>
            <path id="Trazado_636488" data-name="Trazado 636488" d="M182.1,425.153h-6.768l-.751,2.385h7Z" transform="translate(-137.141 -425.153)" fill="#fff" stroke="#263238" stroke-linecap="round" stroke-linejoin="round" stroke-width="1.059"/>
            <path id="Trazado_636489" data-name="Trazado 636489" d="M230.534,425.153h-6.768l.09,2.385h7Z" transform="translate(-161.081 -425.153)" fill="#fff" stroke="#263238" stroke-linecap="round" stroke-linejoin="round" stroke-width="1.059"/>
            <path id="Trazado_636490" data-name="Trazado 636490" d="M149.751,425.153h-6.768l-1.311,2.385h7Z" transform="translate(-121.124 -425.153)" fill="#fff" stroke="#263238" stroke-linecap="round" stroke-linejoin="round" stroke-width="1.059"/>
            <path id="Trazado_636491" data-name="Trazado 636491" d="M165.925,425.153h-6.768l-1.031,2.385h7Z" transform="translate(-129.132 -425.153)" fill="#fff" stroke="#263238" stroke-linecap="round" stroke-linejoin="round" stroke-width="1.059"/>
            <path id="Trazado_636492" data-name="Trazado 636492" d="M125.219,427.539h7l1.359-2.385H126.81Z" transform="translate(-113.115 -425.153)" fill="#fff" stroke="#263238" stroke-linecap="round" stroke-linejoin="round" stroke-width="1.059"/>
            <path id="Trazado_636493" data-name="Trazado 636493" d="M198.272,425.153H191.5l-.471,2.385h7Z" transform="translate(-145.149 -425.153)" fill="#fff" stroke="#263238" stroke-linecap="round" stroke-linejoin="round" stroke-width="1.059"/>
            <path id="Trazado_636494" data-name="Trazado 636494" d="M246.442,425.153h-6.768l.37,2.385h7Z" transform="translate(-168.824 -425.153)" fill="#fff" stroke="#263238" stroke-linecap="round" stroke-linejoin="round" stroke-width="1.059"/>
            <path id="Trazado_636495" data-name="Trazado 636495" d="M113.935,425.153h-10.3l-1.993,2.385H112.3Z" transform="translate(-101.637 -425.153)" fill="#fff" stroke="#263238" stroke-linecap="round" stroke-linejoin="round" stroke-width="1.059"/>
            <path id="Trazado_636496" data-name="Trazado 636496" d="M319.213,425.153l1.772,2.385h7.226l-2.011-2.385Z" transform="translate(-207.538 -425.153)" fill="#fff" stroke="#263238" stroke-linecap="round" stroke-linejoin="round" stroke-width="1.059"/>
            <path id="Trazado_636497" data-name="Trazado 636497" d="M310.073,425.153h-6.768l1.491,2.385h7Z" transform="translate(-199.796 -425.153)" fill="#fff" stroke="#263238" stroke-linecap="round" stroke-linejoin="round" stroke-width="1.059"/>
            <path id="Trazado_636498" data-name="Trazado 636498" d="M294.165,425.153H287.4l1.211,2.385h7Z" transform="translate(-192.053 -425.153)" fill="#fff" stroke="#263238" stroke-linecap="round" stroke-linejoin="round" stroke-width="1.059"/>
            <path id="Trazado_636499" data-name="Trazado 636499" d="M262.35,425.153h-6.768l.65,2.385h7Z" transform="translate(-176.567 -425.153)" fill="#fff" stroke="#263238" stroke-linecap="round" stroke-linejoin="round" stroke-width="1.059"/>
            <path id="Trazado_636500" data-name="Trazado 636500" d="M278.258,425.153H271.49l.931,2.385h7Z" transform="translate(-184.31 -425.153)" fill="#fff" stroke="#263238" stroke-linecap="round" stroke-linejoin="round" stroke-width="1.059"/>
          </g>
          <g id="Grupo_905988" data-name="Grupo 905988" transform="translate(13.612 3.275)">
            <path id="Trazado_636501" data-name="Trazado 636501" d="M172.174,430.26h-7.038l-.963,2.572h7.289Z" transform="translate(-129.729 -430.26)" fill="#fff" stroke="#263238" stroke-linecap="round" stroke-linejoin="round" stroke-width="1.059"/>
            <path id="Trazado_636502" data-name="Trazado 636502" d="M189,430.26H181.96l-.66,2.572h7.289Z" transform="translate(-138.065 -430.26)" fill="#fff" stroke="#263238" stroke-linecap="round" stroke-linejoin="round" stroke-width="1.059"/>
            <path id="Trazado_636503" data-name="Trazado 636503" d="M205.822,430.26h-7.038l-.358,2.572h7.289Z" transform="translate(-146.401 -430.26)" fill="#fff" stroke="#263238" stroke-linecap="round" stroke-linejoin="round" stroke-width="1.059"/>
            <path id="Trazado_636504" data-name="Trazado 636504" d="M138.525,430.26h-7.038l-1.569,2.572h7.289Z" transform="translate(-113.056 -430.26)" fill="#fff" stroke="#263238" stroke-linecap="round" stroke-linejoin="round" stroke-width="1.059"/>
            <path id="Trazado_636505" data-name="Trazado 636505" d="M112.791,432.833h7.289l1.62-2.572h-7.038Z" transform="translate(-104.72 -430.26)" fill="#fff" stroke="#263238" stroke-linecap="round" stroke-linejoin="round" stroke-width="1.059"/>
            <path id="Trazado_636506" data-name="Trazado 636506" d="M222.647,430.26h-7.038l-.055,2.572h7.289Z" transform="translate(-154.738 -430.26)" fill="#fff" stroke="#263238" stroke-linecap="round" stroke-linejoin="round" stroke-width="1.059"/>
            <path id="Trazado_636507" data-name="Trazado 636507" d="M155.35,430.26h-7.038l-1.266,2.572h7.289Z" transform="translate(-121.393 -430.26)" fill="#fff" stroke="#263238" stroke-linecap="round" stroke-linejoin="round" stroke-width="1.059"/>
            <path id="Trazado_636508" data-name="Trazado 636508" d="M305.385,430.26h-7.038l1.459,2.572h7.289Z" transform="translate(-195.036 -430.26)" fill="#fff" stroke="#263238" stroke-linecap="round" stroke-linejoin="round" stroke-width="1.059"/>
            <path id="Trazado_636509" data-name="Trazado 636509" d="M105.559,430.26H99.216l-2.149,2.572h6.57Z" transform="translate(-97.066 -430.26)" fill="#fff" stroke="#263238" stroke-linecap="round" stroke-linejoin="round" stroke-width="1.059"/>
            <path id="Trazado_636510" data-name="Trazado 636510" d="M314.884,430.26l1.761,2.572h11.825L326.3,430.26Z" transform="translate(-203.085 -430.26)" fill="#fff" stroke="#263238" stroke-linecap="round" stroke-linejoin="round" stroke-width="1.059"/>
            <path id="Trazado_636511" data-name="Trazado 636511" d="M288.848,430.26H281.81l1.156,2.572h7.289Z" transform="translate(-186.987 -430.26)" fill="#fff" stroke="#263238" stroke-linecap="round" stroke-linejoin="round" stroke-width="1.059"/>
            <path id="Trazado_636512" data-name="Trazado 636512" d="M239.236,430.26H232.2l.248,2.572h7.289Z" transform="translate(-162.839 -430.26)" fill="#fff" stroke="#263238" stroke-linecap="round" stroke-linejoin="round" stroke-width="1.059"/>
            <path id="Trazado_636513" data-name="Trazado 636513" d="M255.773,430.26h-7.038l.551,2.572h7.289Z" transform="translate(-170.888 -430.26)" fill="#fff" stroke="#263238" stroke-linecap="round" stroke-linejoin="round" stroke-width="1.059"/>
            <path id="Trazado_636514" data-name="Trazado 636514" d="M272.311,430.26h-7.038l.853,2.572h7.289Z" transform="translate(-178.937 -430.26)" fill="#fff" stroke="#263238" stroke-linecap="round" stroke-linejoin="round" stroke-width="1.059"/>
          </g>
          <g id="Grupo_905989" data-name="Grupo 905989" transform="translate(2.054 16.089)">
            <path id="Trazado_636515" data-name="Trazado 636515" d="M209.306,455.225H161.02l-1.225,3.59h50.327Z" transform="translate(-116.04 -455.225)" fill="#fff" stroke="#263238" stroke-linecap="round" stroke-linejoin="round" stroke-width="1.059"/>
            <path id="Trazado_636516" data-name="Trazado 636516" d="M146.976,455.225H136.2l-1.753,3.59h11.23Z" transform="translate(-103.703 -455.225)" fill="#fff" stroke="#263238" stroke-linecap="round" stroke-linejoin="round" stroke-width="1.059"/>
            <path id="Trazado_636517" data-name="Trazado 636517" d="M268.432,455.225h-8.849l.888,3.59h9.223Z" transform="translate(-164.61 -455.225)" fill="#fff" stroke="#263238" stroke-linecap="round" stroke-linejoin="round" stroke-width="1.059"/>
            <path id="Trazado_636518" data-name="Trazado 636518" d="M94.542,458.816h8.739l2.229-3.59H97.126Z" transform="translate(-84.28 -455.225)" fill="#fff" stroke="#263238" stroke-linecap="round" stroke-linejoin="round" stroke-width="1.059"/>
            <path id="Trazado_636519" data-name="Trazado 636519" d="M125.045,455.225h-7.853l-2.157,3.59h8.185Z" transform="translate(-94.254 -455.225)" fill="#fff" stroke="#263238" stroke-linecap="round" stroke-linejoin="round" stroke-width="1.059"/>
            <path id="Trazado_636520" data-name="Trazado 636520" d="M85.687,455.225H77.548l-3,3.59h8.483Z" transform="translate(-74.548 -455.225)" fill="#fff" stroke="#263238" stroke-linecap="round" stroke-linejoin="round" stroke-width="1.059"/>
            <path id="Trazado_636521" data-name="Trazado 636521" d="M289,455.225H280.15l1.334,3.59h9.223Z" transform="translate(-174.621 -455.225)" fill="#fff" stroke="#263238" stroke-linecap="round" stroke-linejoin="round" stroke-width="1.059"/>
            <path id="Trazado_636522" data-name="Trazado 636522" d="M341.851,455.225l2.673,3.59h8.735l-3.027-3.59Z" transform="translate(-204.653 -455.225)" fill="#fff" stroke="#263238" stroke-linecap="round" stroke-linejoin="round" stroke-width="1.059"/>
            <path id="Trazado_636523" data-name="Trazado 636523" d="M309.566,455.225h-8.849l1.78,3.59h9.223Z" transform="translate(-184.632 -455.225)" fill="#fff" stroke="#263238" stroke-linecap="round" stroke-linejoin="round" stroke-width="1.059"/>
            <path id="Trazado_636524" data-name="Trazado 636524" d="M330.133,455.225h-8.849l2.227,3.59h9.223Z" transform="translate(-194.642 -455.225)" fill="#fff" stroke="#263238" stroke-linecap="round" stroke-linejoin="round" stroke-width="1.059"/>
          </g>
          <g id="Grupo_905990" data-name="Grupo 905990" transform="translate(5.327 12.477)">
            <path id="Trazado_636525" data-name="Trazado 636525" d="M190.51,448.188h-7.9l-.733,3.285H190.1Z" transform="translate(-130.061 -448.188)" fill="#fff" stroke="#263238" stroke-linecap="round" stroke-linejoin="round" stroke-width="1.059"/>
            <path id="Trazado_636526" data-name="Trazado 636526" d="M228.36,448.188h-7.9l.037,3.285h8.22Z" transform="translate(-148.841 -448.188)" fill="#fff" stroke="#263238" stroke-linecap="round" stroke-linejoin="round" stroke-width="1.059"/>
            <path id="Trazado_636527" data-name="Trazado 636527" d="M171.567,448.188h-7.9l-1.118,3.285h8.22Z" transform="translate(-120.654 -448.188)" fill="#fff" stroke="#263238" stroke-linecap="round" stroke-linejoin="round" stroke-width="1.059"/>
            <path id="Trazado_636528" data-name="Trazado 636528" d="M133.682,448.188h-7.9l-1.889,3.285h8.219Z" transform="translate(-101.839 -448.188)" fill="#fff" stroke="#263238" stroke-linecap="round" stroke-linejoin="round" stroke-width="1.059"/>
            <path id="Trazado_636529" data-name="Trazado 636529" d="M104.565,451.473h8.219l1.955-3.285h-7.9Z" transform="translate(-92.431 -448.188)" fill="#fff" stroke="#263238" stroke-linecap="round" stroke-linejoin="round" stroke-width="1.059"/>
            <path id="Trazado_636530" data-name="Trazado 636530" d="M152.625,448.188h-7.9l-1.5,3.285h8.22Z" transform="translate(-111.246 -448.188)" fill="#fff" stroke="#263238" stroke-linecap="round" stroke-linejoin="round" stroke-width="1.059"/>
            <path id="Trazado_636531" data-name="Trazado 636531" d="M209.453,448.188h-7.9l-.348,3.285h8.22Z" transform="translate(-139.469 -448.188)" fill="#fff" stroke="#263238" stroke-linecap="round" stroke-linejoin="round" stroke-width="1.059"/>
            <path id="Trazado_636532" data-name="Trazado 636532" d="M93.7,448.188H83.67l-2.745,3.285H91.357Z" transform="translate(-80.925 -448.188)" fill="#fff" stroke="#263238" stroke-linecap="round" stroke-linejoin="round" stroke-width="1.059"/>
            <path id="Trazado_636533" data-name="Trazado 636533" d="M302.67,448.188h-7.9l1.578,3.285h8.219Z" transform="translate(-185.01 -448.188)" fill="#fff" stroke="#263238" stroke-linecap="round" stroke-linejoin="round" stroke-width="1.059"/>
            <path id="Trazado_636534" data-name="Trazado 636534" d="M313.347,448.188l1.963,3.285h20.772l-2.77-3.285Z" transform="translate(-194.052 -448.188)" fill="#fff" stroke="#263238" stroke-linecap="round" stroke-linejoin="round" stroke-width="1.059"/>
            <path id="Trazado_636535" data-name="Trazado 636535" d="M246.938,448.188h-7.9l.422,3.285h8.22Z" transform="translate(-157.883 -448.188)" fill="#fff" stroke="#263238" stroke-linecap="round" stroke-linejoin="round" stroke-width="1.059"/>
            <path id="Trazado_636536" data-name="Trazado 636536" d="M265.515,448.188h-7.9l.808,3.285h8.22Z" transform="translate(-166.925 -448.188)" fill="#fff" stroke="#263238" stroke-linecap="round" stroke-linejoin="round" stroke-width="1.059"/>
            <path id="Trazado_636537" data-name="Trazado 636537" d="M284.093,448.188h-7.9l1.193,3.285h8.22Z" transform="translate(-175.968 -448.188)" fill="#fff" stroke="#263238" stroke-linecap="round" stroke-linejoin="round" stroke-width="1.059"/>
          </g>
          <g id="Grupo_905991" data-name="Grupo 905991" transform="translate(8.323 9.159)">
            <path id="Trazado_636538" data-name="Trazado 636538" d="M200.774,441.724h-7.6l-.5,3.018h7.9Z" transform="translate(-138.313 -441.724)" fill="#fff" stroke="#263238" stroke-linecap="round" stroke-linejoin="round" stroke-width="1.059"/>
            <path id="Trazado_636539" data-name="Trazado 636539" d="M218.976,441.724h-7.6l-.142,3.018h7.9Z" transform="translate(-147.345 -441.724)" fill="#fff" stroke="#263238" stroke-linecap="round" stroke-linejoin="round" stroke-width="1.059"/>
            <path id="Trazado_636540" data-name="Trazado 636540" d="M182.573,441.724h-7.6l-.852,3.018h7.9Z" transform="translate(-129.281 -441.724)" fill="#fff" stroke="#263238" stroke-linecap="round" stroke-linejoin="round" stroke-width="1.059"/>
            <path id="Trazado_636541" data-name="Trazado 636541" d="M164.371,441.724h-7.6l-1.206,3.018h7.9Z" transform="translate(-120.249 -441.724)" fill="#fff" stroke="#263238" stroke-linecap="round" stroke-linejoin="round" stroke-width="1.059"/>
            <path id="Trazado_636542" data-name="Trazado 636542" d="M146.169,441.724h-7.6l-1.561,3.018h7.9Z" transform="translate(-111.217 -441.724)" fill="#fff" stroke="#263238" stroke-linecap="round" stroke-linejoin="round" stroke-width="1.059"/>
            <path id="Trazado_636543" data-name="Trazado 636543" d="M118.45,444.742h7.9l1.622-3.018h-7.6Z" transform="translate(-102.185 -441.724)" fill="#fff" stroke="#263238" stroke-linecap="round" stroke-linejoin="round" stroke-width="1.059"/>
            <path id="Trazado_636544" data-name="Trazado 636544" d="M236.976,441.724h-7.6l.213,3.018h7.9Z" transform="translate(-156.176 -441.724)" fill="#fff" stroke="#263238" stroke-linecap="round" stroke-linejoin="round" stroke-width="1.059"/>
            <path id="Trazado_636545" data-name="Trazado 636545" d="M103.374,441.724H89.283l-2.522,3.018H101.4Z" transform="translate(-86.761 -441.724)" fill="#fff" stroke="#263238" stroke-linecap="round" stroke-linejoin="round" stroke-width="1.059"/>
            <path id="Trazado_636546" data-name="Trazado 636546" d="M326.3,441.724h-7.6l1.987,3.018h7.9Z" transform="translate(-199.653 -441.724)" fill="#fff" stroke="#263238" stroke-linecap="round" stroke-linejoin="round" stroke-width="1.059"/>
            <path id="Trazado_636547" data-name="Trazado 636547" d="M254.841,441.724h-7.6l.567,3.018h7.9Z" transform="translate(-164.871 -441.724)" fill="#fff" stroke="#263238" stroke-linecap="round" stroke-linejoin="round" stroke-width="1.059"/>
            <path id="Trazado_636548" data-name="Trazado 636548" d="M308.437,441.724h-7.6l1.632,3.018h7.9Z" transform="translate(-190.958 -441.724)" fill="#fff" stroke="#263238" stroke-linecap="round" stroke-linejoin="round" stroke-width="1.059"/>
            <path id="Trazado_636549" data-name="Trazado 636549" d="M272.706,441.724h-7.6l.922,3.018h7.9Z" transform="translate(-173.567 -441.724)" fill="#fff" stroke="#263238" stroke-linecap="round" stroke-linejoin="round" stroke-width="1.059"/>
            <path id="Trazado_636550" data-name="Trazado 636550" d="M290.572,441.724h-7.6l1.277,3.018h7.9Z" transform="translate(-182.262 -441.724)" fill="#fff" stroke="#263238" stroke-linecap="round" stroke-linejoin="round" stroke-width="1.059"/>
          </g>
          <g id="Grupo_905992" data-name="Grupo 905992" transform="translate(11.075 6.102)">
            <path id="Trazado_636551" data-name="Trazado 636551" d="M188.027,438.549h7.423l.3-2.782h-7.157Z" transform="translate(-138.802 -435.768)" fill="#fff" stroke="#263238" stroke-linecap="round" stroke-linejoin="round" stroke-width="1.059"/>
            <path id="Trazado_636552" data-name="Trazado 636552" d="M170.52,438.549h7.423l.619-2.782H171.4Z" transform="translate(-130.281 -435.768)" fill="#fff" stroke="#263238" stroke-linecap="round" stroke-linejoin="round" stroke-width="1.059"/>
            <path id="Trazado_636553" data-name="Trazado 636553" d="M205.533,438.549h7.423l-.024-2.782h-7.157Z" transform="translate(-147.323 -435.768)" fill="#fff" stroke="#263238" stroke-linecap="round" stroke-linejoin="round" stroke-width="1.059"/>
            <path id="Trazado_636554" data-name="Trazado 636554" d="M118,438.549h7.423l1.583-2.782h-7.157Z" transform="translate(-104.719 -435.768)" fill="#fff" stroke="#263238" stroke-linecap="round" stroke-linejoin="round" stroke-width="1.059"/>
            <path id="Trazado_636555" data-name="Trazado 636555" d="M135.508,438.549h7.423l1.262-2.782h-7.157Z" transform="translate(-113.24 -435.768)" fill="#fff" stroke="#263238" stroke-linecap="round" stroke-linejoin="round" stroke-width="1.059"/>
            <path id="Trazado_636556" data-name="Trazado 636556" d="M222.962,438.549h7.423l-.346-2.782h-7.157Z" transform="translate(-155.768 -435.768)" fill="#fff" stroke="#263238" stroke-linecap="round" stroke-linejoin="round" stroke-width="1.059"/>
            <path id="Trazado_636557" data-name="Trazado 636557" d="M153.014,438.549h7.423l.94-2.782H154.22Z" transform="translate(-121.761 -435.768)" fill="#fff" stroke="#263238" stroke-linecap="round" stroke-linejoin="round" stroke-width="1.059"/>
            <path id="Trazado_636558" data-name="Trazado 636558" d="M334.629,435.768H327.1l2.066,2.781H331a1.058,1.058,0,0,1,.687.19l2.423,3.134h5.551Z" transform="translate(-206.491 -435.768)" fill="#fff" stroke="#263238" stroke-linecap="round" stroke-linejoin="round" stroke-width="1.059"/>
            <path id="Trazado_636559" data-name="Trazado 636559" d="M291.767,438.549h7.423l-1.632-2.782H290.4Z" transform="translate(-188.631 -435.768)" fill="#fff" stroke="#263238" stroke-linecap="round" stroke-linejoin="round" stroke-width="1.059"/>
            <path id="Trazado_636560" data-name="Trazado 636560" d="M308.969,438.549h8.985l-2.01-2.782H307.28Z" transform="translate(-196.847 -435.768)" fill="#fff" stroke="#263238" stroke-linecap="round" stroke-linejoin="round" stroke-width="1.059"/>
            <path id="Trazado_636561" data-name="Trazado 636561" d="M92.123,438.549h11.72l1.9-2.782h-11.3Z" transform="translate(-92.123 -435.768)" fill="#fff" stroke="#263238" stroke-linecap="round" stroke-linejoin="round" stroke-width="1.059"/>
            <path id="Trazado_636562" data-name="Trazado 636562" d="M240.164,438.549h7.423l-.668-2.782h-7.157Z" transform="translate(-163.983 -435.768)" fill="#fff" stroke="#263238" stroke-linecap="round" stroke-linejoin="round" stroke-width="1.059"/>
            <path id="Trazado_636563" data-name="Trazado 636563" d="M274.566,438.549h7.423l-1.311-2.782h-7.157Z" transform="translate(-180.415 -435.768)" fill="#fff" stroke="#263238" stroke-linecap="round" stroke-linejoin="round" stroke-width="1.059"/>
            <path id="Trazado_636564" data-name="Trazado 636564" d="M257.365,438.549h7.423l-.989-2.782h-7.157Z" transform="translate(-172.199 -435.768)" fill="#fff" stroke="#263238" stroke-linecap="round" stroke-linejoin="round" stroke-width="1.059"/>
          </g>
        </g>
      </g>
      <g id="CD" transform="translate(117.985 231.596)">
        <g id="Grupo_905999" data-name="Grupo 905999">
          <g id="Grupo_905994" data-name="Grupo 905994" transform="translate(71.982 3.71)">
            <path id="Trazado_636565" data-name="Trazado 636565" d="M387.33,427.061c-14.1-.29-25.629,4.03-25.745,9.649s11.223,10.409,25.326,10.7,25.629-4.03,25.744-9.649S401.432,427.351,387.33,427.061Zm-.289,14.059c-5.385-.111-9.714-1.94-9.669-4.086s4.445-3.795,9.829-3.684,9.714,1.94,9.67,4.085S392.425,441.23,387.04,441.12Z" transform="translate(-361.584 -427.047)" fill="#fff" stroke="#263238" stroke-linecap="round" stroke-linejoin="round" stroke-width="0.966"/>
            <path id="Trazado_636566" data-name="Trazado 636566" d="M399.689,437.273c-6.842-.141-12.434,1.955-12.49,4.682s5.445,5.05,12.287,5.191,12.434-1.955,12.49-4.681S406.531,437.413,399.689,437.273Zm-.149,7.233c-3.184-.065-5.744-1.147-5.718-2.415s2.628-2.244,5.812-2.178,5.743,1.147,5.718,2.415S402.724,444.571,399.54,444.506Z" transform="translate(-374.051 -432.021)" fill="#263238" stroke="#263238" stroke-linecap="round" stroke-linejoin="round" stroke-width="0.966"/>
            <line id="Línea_524" data-name="Línea 524" x2="14.771" y2="0.678" transform="translate(35.745 11.632)" fill="none" stroke="#263238" stroke-linecap="round" stroke-linejoin="round" stroke-width="0.966"/>
            <line id="Línea_525" data-name="Línea 525" x2="13.22" y2="3.266" transform="translate(34.989 11.991)" fill="none" stroke="#263238" stroke-linecap="round" stroke-linejoin="round" stroke-width="0.966"/>
            <path id="Trazado_636567" data-name="Trazado 636567" d="M373.438,454.866l11.679-3.69-7.785,5.454" transform="translate(-367.354 -438.792)" fill="none" stroke="#263238" stroke-linecap="round" stroke-linejoin="round" stroke-width="0.966"/>
            <line id="Línea_526" data-name="Línea 526" x2="5.122" y2="5.72" transform="translate(16.883 0.576)" fill="none" stroke="#263238" stroke-linecap="round" stroke-linejoin="round" stroke-width="0.966"/>
            <line id="Línea_527" data-name="Línea 527" x2="3.057" y2="6.052" transform="translate(20.071 0.268)" fill="none" stroke="#263238" stroke-linecap="round" stroke-linejoin="round" stroke-width="0.966"/>
          </g>
          <g id="Grupo_905995" data-name="Grupo 905995" transform="translate(10.422 2.289)">
            <path id="Trazado_636568" data-name="Trazado 636568" d="M267.466,424.289c-14.1-.29-25.661,5.6-25.816,13.151s11.151,13.911,25.253,14.2,25.661-5.6,25.816-13.15S281.568,424.579,267.466,424.289Zm-.389,18.9c-5.385-.111-9.7-2.539-9.642-5.422s4.473-5.132,9.857-5.021,9.7,2.539,9.642,5.422S272.462,443.3,267.077,443.187Z" transform="translate(-241.648 -424.279)" fill="#fff" stroke="#263238" stroke-linecap="round" stroke-linejoin="round" stroke-width="0.966"/>
            <path id="Trazado_636569" data-name="Trazado 636569" d="M279.788,438.012c-6.842-.141-12.449,2.716-12.525,6.38s5.41,6.749,12.252,6.89,12.449-2.716,12.525-6.38S286.63,438.153,279.788,438.012Zm-.2,9.722c-3.184-.066-5.737-1.5-5.7-3.206s2.644-3.034,5.828-2.969,5.737,1.5,5.7,3.206S282.772,447.8,279.588,447.735Z" transform="translate(-254.115 -430.961)" fill="#263238" stroke="#263238" stroke-linecap="round" stroke-linejoin="round" stroke-width="0.966"/>
            <line id="Línea_528" data-name="Línea 528" x2="14.768" y2="0.807" transform="translate(35.737 15.555)" fill="none" stroke="#263238" stroke-linecap="round" stroke-linejoin="round" stroke-width="0.966"/>
            <line id="Línea_529" data-name="Línea 529" x2="13.199" y2="4.297" transform="translate(34.978 16.042)" fill="none" stroke="#263238" stroke-linecap="round" stroke-linejoin="round" stroke-width="0.966"/>
            <path id="Trazado_636570" data-name="Trazado 636570" d="M253.416,461.846l11.707-5.042L257.3,464.19" transform="translate(-247.376 -440.11)" fill="none" stroke="#263238" stroke-linecap="round" stroke-linejoin="round" stroke-width="0.966"/>
            <line id="Línea_530" data-name="Línea 530" x2="5.083" y2="7.651" transform="translate(16.951 0.829)" fill="none" stroke="#263238" stroke-linecap="round" stroke-linejoin="round" stroke-width="0.966"/>
            <line id="Línea_531" data-name="Línea 531" x2="3.015" y2="8.112" transform="translate(20.141 0.392)" fill="none" stroke="#263238" stroke-linecap="round" stroke-linejoin="round" stroke-width="0.966"/>
          </g>
          <path id="Trazado_636571" data-name="Trazado 636571" d="M261.945,419.819l-40.6,1.783,6.495,30.783,46.976-2.621Z" transform="translate(-221.342 -419.819)" fill="#fff" stroke="#263238" stroke-miterlimit="10" stroke-width="0.966"/>
          <g id="Grupo_905998" data-name="Grupo 905998" transform="translate(8.736 5.982)">
            <g id="Grupo_905996" data-name="Grupo 905996">
              <path id="Trazado_636572" data-name="Trazado 636572" d="M258.792,438.241l-1.384-.022a5.279,5.279,0,0,0-.4-.979l1.244-.294c.2-.046.275-.2.178-.346l-.285-.428a.524.524,0,0,0-.526-.178l-1.238.289a7.556,7.556,0,0,0-.807-.863l.974-.566c.152-.089.152-.258,0-.377l-.45-.354a.533.533,0,0,0-.55-.056l-.975.561a10.357,10.357,0,0,0-1.118-.664l.613-.771c.1-.121.018-.286-.173-.369l-.566-.246a.466.466,0,0,0-.52.067l-.618.767a12.227,12.227,0,0,0-1.314-.4l.2-.893c.031-.14-.115-.285-.326-.324l-.625-.117c-.211-.039-.408.042-.44.181l-.2.892q-.609-.078-1.233-.1l-.215-.927a.433.433,0,0,0-.443-.252l-.626.016c-.212.006-.357.128-.324.273l.208.928a11.147,11.147,0,0,0-1.319.191l-.63-.867a.519.519,0,0,0-.526-.15l-.568.157c-.192.053-.268.207-.17.343l.627.872a8.468,8.468,0,0,0-1.121.49l-.993-.72a.537.537,0,0,0-.557-.031l-.452.284a.214.214,0,0,0,.005.38l.994.725a5.938,5.938,0,0,0-.806.742l-1.263-.489a.48.48,0,0,0-.533.1l-.285.387c-.1.131-.014.3.185.377l1.267.492a4.385,4.385,0,0,0-.4.924l-1.406-.194c-.222-.031-.423.068-.451.22l-.082.452c-.028.153.13.3.353.333l1.415.2a4.4,4.4,0,0,0,.066.991l0,.02-1.4.137c-.221.022-.363.167-.316.324l.139.469a.457.457,0,0,0,.488.248l1.41-.14a5.762,5.762,0,0,0,.544.987l-1.238.467c-.2.074-.259.251-.14.4l.352.433a.535.535,0,0,0,.571.13l1.24-.472a8.507,8.507,0,0,0,.972.845l-.925.758a.252.252,0,0,0,.059.427l.531.343a.53.53,0,0,0,.589-.008L244,443.5a11.25,11.25,0,0,0,1.289.6l-.493.967c-.078.153.035.335.254.406l.648.211a.45.45,0,0,0,.535-.15l.485-.97a12.57,12.57,0,0,0,1.459.284l0,1.066c0,.169.188.32.42.337l.687.051c.232.017.418-.107.417-.276l-.01-1.068c.218,0,.436,0,.654-.007.272-.011.537-.033.8-.061l.495,1.041a.511.511,0,0,0,.535.228l.642-.115c.217-.039.327-.2.248-.368l-.5-1.035a9.416,9.416,0,0,0,1.273-.412l.921.9a.544.544,0,0,0,.584.095l.52-.264a.241.241,0,0,0,.053-.416l-.922-.889a6.679,6.679,0,0,0,.947-.7l1.231.654a.49.49,0,0,0,.562-.045l.342-.377c.115-.127.051-.313-.142-.415l-1.226-.648a4.707,4.707,0,0,0,.527-.9l1.389.349c.219.055.433-.023.477-.173l.131-.444c.044-.149-.1-.315-.314-.37l-1.381-.346a4.208,4.208,0,0,0,.059-.994l1.389.021c.218,0,.372-.121.343-.277l-.086-.46A.447.447,0,0,0,258.792,438.241Zm-9.1,3.869c-2.727.1-5.272-1.411-5.662-3.346-.382-1.9,1.458-3.471,4.09-3.551s5.107,1.347,5.583,3.22C254.193,440.345,252.408,442.007,249.7,442.11Z" transform="translate(-238.362 -431.474)" fill="#263238"/>
              <path id="Trazado_636573" data-name="Trazado 636573" d="M259.08,440.666c.707,2.677-1.771,5.025-5.583,5.175-3.843.152-7.414-1.99-7.935-4.713-.506-2.646,2.081-4.823,5.737-4.929C254.928,436.093,258.392,438.064,259.08,440.666Z" transform="translate(-241.836 -433.772)" fill="none" stroke="#fff" stroke-miterlimit="10" stroke-width="0.966"/>
            </g>
            <g id="Grupo_905997" data-name="Grupo 905997" transform="translate(20.856 6.724)">
              <path id="Trazado_636574" data-name="Trazado 636574" d="M292.384,449.2l-.909-.011a4.006,4.006,0,0,0-.316-.667l.8-.205a.145.145,0,0,0,.1-.238l-.21-.293a.358.358,0,0,0-.355-.121l-.8.2a5.7,5.7,0,0,0-.579-.591l.61-.393c.1-.062.087-.178-.021-.26l-.316-.243a.347.347,0,0,0-.366-.037l-.611.391a7.471,7.471,0,0,0-.776-.455l.359-.536c.056-.084,0-.2-.136-.256l-.388-.168a.286.286,0,0,0-.34.048l-.362.534a8.42,8.42,0,0,0-.891-.275l.073-.621c.012-.1-.094-.2-.236-.224l-.421-.079c-.142-.027-.267.031-.279.128l-.078.621a8.212,8.212,0,0,0-.819-.063l-.2-.644a.315.315,0,0,0-.309-.173l-.413.014c-.139,0-.227.09-.2.191l.2.644a6.653,6.653,0,0,0-.854.138l-.475-.6a.355.355,0,0,0-.357-.1l-.363.111a.144.144,0,0,0-.087.239l.474.6a4.853,4.853,0,0,0-.7.342l-.7-.493a.341.341,0,0,0-.368-.019l-.275.2c-.093.067-.079.184.031.262l.7.5a3.379,3.379,0,0,0-.473.512l-.862-.331a.285.285,0,0,0-.34.068l-.157.267c-.053.09.014.205.15.258l.863.333a2.79,2.79,0,0,0-.189.632l-.929-.128c-.146-.02-.27.047-.277.151l-.018.307c-.006.1.108.2.255.225l.933.128a3.189,3.189,0,0,0,.117.67l0,.014-.9.1c-.142.015-.222.113-.18.22l.125.316a.329.329,0,0,0,.334.166l.9-.1a4.525,4.525,0,0,0,.423.662l-.765.315a.157.157,0,0,0-.061.266l.259.288a.358.358,0,0,0,.377.086l.766-.318a6.406,6.406,0,0,0,.686.563l-.542.506c-.086.08-.055.207.068.283l.365.227a.331.331,0,0,0,.378-.006l.54-.508a8.05,8.05,0,0,0,.872.4l-.253.642c-.04.1.046.222.19.268l.43.138a.265.265,0,0,0,.334-.1l.249-.643a8.317,8.317,0,0,0,.958.186l.068.7a.3.3,0,0,0,.292.222l.444.032c.15.011.262-.071.251-.182l-.072-.706c.14,0,.281,0,.421-.006.175-.008.344-.023.511-.042l.381.689a.355.355,0,0,0,.358.15l.407-.076c.138-.026.2-.135.139-.243l-.383-.686a5.4,5.4,0,0,0,.8-.276l.646.594a.356.356,0,0,0,.382.062l.322-.176c.109-.059.114-.183.012-.276l-.646-.591a3.846,3.846,0,0,0,.576-.469l.835.435a.305.305,0,0,0,.362-.03l.2-.253c.068-.085.017-.209-.114-.277l-.831-.433a2.9,2.9,0,0,0,.3-.605l.924.233c.145.036.281-.016.3-.118l.063-.3c.022-.1-.079-.212-.224-.249l-.92-.231a2.937,2.937,0,0,0-.014-.673l.911.011c.143,0,.238-.083.21-.188l-.08-.313A.319.319,0,0,0,292.384,449.2Zm-5.711,2.634c-1.758.074-3.507-.936-3.894-2.241-.381-1.287.711-2.37,2.43-2.434s3.433.908,3.854,2.184C289.491,450.637,288.426,451.76,286.673,451.833Z" transform="translate(-278.996 -444.574)" fill="#263238"/>
              <path id="Trazado_636575" data-name="Trazado 636575" d="M292.6,450.886c.609,1.811-.871,3.39-3.33,3.5s-4.922-1.317-5.452-3.148c-.52-1.8,1.014-3.3,3.407-3.387S292,449.109,292.6,450.886Z" transform="translate(-281.294 -446.166)" fill="none" stroke="#fff" stroke-miterlimit="10" stroke-width="0.966"/>
            </g>
          </g>
        </g>
      </g>
    </g>
    <g id="Grupo_906309" data-name="Grupo 906309" transform="translate(180 2809.677)">
      <path id="Trazado_116791" data-name="Trazado 116791" d="M217.857,0V187.066s3.254,65.111-61.434,64.754S0,251.82,0,251.82" transform="translate(239.741 265.769) rotate(180)" fill="none" stroke="#0b5999" stroke-width="4"/>
      <path id="Trazado_116792" data-name="Trazado 116792" d="M42.914,28.239l-14.757,14.8a7.834,7.834,0,0,1-11.1,0L2.3,28.239a7.89,7.89,0,0,1,0-11.133l14.757-14.8a7.834,7.834,0,0,1,11.1,0l14.757,14.8A7.888,7.888,0,0,1,42.914,28.239Z" transform="translate(45.213 291.323) rotate(180)" fill="#0b5999" opacity="0.999"/>
      <path id="Trazado_116793" data-name="Trazado 116793" d="M26.4,17.373l-9.079,9.105a4.82,4.82,0,0,1-6.83,0L1.414,17.373a4.854,4.854,0,0,1,0-6.85l9.079-9.105a4.82,4.82,0,0,1,6.83,0L26.4,10.523A4.853,4.853,0,0,1,26.4,17.373Z" transform="translate(253.65 27.897) rotate(180)" fill="#0b5999" opacity="0.999"/>
    </g>
    <g id="Rectángulo_303872" data-name="Rectángulo 303872" transform="translate(229.33 2843.6)" fill="none" stroke="#4dd0e1" stroke-width="4">
      <rect width="350.67" height="257.4" rx="38" stroke="none"/>
      <rect x="2" y="2" width="346.67" height="253.4" rx="36" fill="none"/>
    </g>
  </g>
</svg>
