<svg xmlns="http://www.w3.org/2000/svg" width="105" height="75.011" viewBox="0 0 105 75.011">
  <g id="Grupo_901624" data-name="Grupo 901624" transform="translate(-68.43 -26.703)">
    <path id="Trazado_629073" data-name="Trazado 629073" d="M173.431,86.633l-71.353-41.2L68.43,64.853l71.355,41.2Z" transform="translate(0 -4.337)" opacity="0.3"/>
    <g id="Grupo_901590" data-name="Grupo 901590" transform="translate(88.663 72.434)">
      <g id="Grupo_901588" data-name="Grupo 901588" transform="translate(27.371 10.489)">
        <path id="Trazado_629074" data-name="Trazado 629074" d="M133.074,104.046l-2.692-1.556v1.883l2.692,1.551Z" transform="translate(-130.382 -100.474)" fill="#ff4d75"/>
        <path id="Trazado_629075" data-name="Trazado 629075" d="M137.376,101.893l-2.681.959-.81,1.055v1.878l3.491-2.005Z" transform="translate(-131.193 -100.336)" fill="#121214"/>
        <path id="Trazado_629076" data-name="Trazado 629076" d="M136.565,101.424l-2.7-1.557-3.481,2.016,2.692,1.556Z" transform="translate(-130.382 -99.867)" fill="#303033"/>
      </g>
      <g id="Grupo_901589" data-name="Grupo 901589" transform="translate(22.116 12.021)">
        <path id="Trazado_629077" data-name="Trazado 629077" d="M127.224,107.575l-3.681-2.133v2.588l3.681,2.124Z" transform="translate(-123.543 -102.69)" fill="#ff4d75"/>
        <path id="Trazado_629078" data-name="Trazado 629078" d="M133.115,104.618l-3.65,1.321-1.131,1.445v2.579l4.781-2.764Z" transform="translate(-124.653 -102.499)" fill="#ab183a"/>
        <path id="Trazado_629079" data-name="Trazado 629079" d="M132.006,103.979l-3.687-2.118-4.776,2.752,3.681,2.133Z" transform="translate(-123.543 -101.861)" fill="#ff2456"/>
      </g>
      <path id="Trazado_629080" data-name="Trazado 629080" d="M119.623,104.373s.313-.455-.143-1.238a3.1,3.1,0,0,0-1.453-1.044c-6.479,4.536-12.845,5.8-17.049,3.358a6.589,6.589,0,0,1-3.388-6.412c.39-4.179,4.3-7.976,10.482-10.18l-.947-2.639a22.456,22.456,0,0,0-8.957,5.516A12.036,12.036,0,0,0,94.8,98.781,9.318,9.318,0,0,0,95.82,104a9.7,9.7,0,0,0,3.75,3.867,13.41,13.41,0,0,0,8.716,1.411A26.416,26.416,0,0,0,119.623,104.373Z" transform="translate(-94.761 -86.217)" fill="#0f2034"/>
    </g>
    <g id="Grupo_901593" data-name="Grupo 901593" transform="translate(97.474 77.566)">
      <g id="Grupo_901591" data-name="Grupo 901591" transform="translate(27.386 10.459)">
        <path id="Trazado_629081" data-name="Trazado 629081" d="M144.56,110.674l-2.693-1.543v1.876l2.693,1.56Z" transform="translate(-141.867 -107.114)" fill="#ff4d75"/>
        <path id="Trazado_629082" data-name="Trazado 629082" d="M148.849,108.529l-2.662.957-.814,1.048v1.894l3.477-2.016Z" transform="translate(-142.679 -106.974)" fill="#121214"/>
        <path id="Trazado_629083" data-name="Trazado 629083" d="M148.037,108.061l-2.695-1.555-3.475,2.017,2.693,1.543Z" transform="translate(-141.867 -106.506)" fill="#303033"/>
      </g>
      <g id="Grupo_901592" data-name="Grupo 901592" transform="translate(22.129 11.98)">
        <path id="Trazado_629084" data-name="Trazado 629084" d="M138.73,114.2l-3.7-2.116.017,2.571,3.68,2.134Z" transform="translate(-135.026 -109.318)" fill="#ff4d75"/>
        <path id="Trazado_629085" data-name="Trazado 629085" d="M144.606,111.262l-3.654,1.309-1.109,1.436-.007,2.59,4.77-2.752Z" transform="translate(-136.14 -109.129)" fill="#ab183a"/>
        <path id="Trazado_629086" data-name="Trazado 629086" d="M143.492,110.619l-3.69-2.133-4.776,2.762,3.7,2.116Z" transform="translate(-135.026 -108.486)" fill="#ff2456"/>
      </g>
      <path id="Trazado_629087" data-name="Trazado 629087" d="M131.086,111.056s.314-.461-.143-1.253a3.136,3.136,0,0,0-1.445-1.04c-6.478,4.541-12.857,5.794-17.058,3.36a6.614,6.614,0,0,1-3.4-6.412c.39-4.174,4.31-7.978,10.488-10.175l-.932-2.641a22.245,22.245,0,0,0-8.953,5.5,12.008,12.008,0,0,0-3.38,7.054,9.452,9.452,0,0,0,1.014,5.221,9.6,9.6,0,0,0,3.758,3.864,13.279,13.279,0,0,0,8.714,1.416A26.445,26.445,0,0,0,131.086,111.056Z" transform="translate(-106.228 -92.895)" fill="#1d374e"/>
    </g>
    <g id="Grupo_901601" data-name="Grupo 901601" transform="translate(78.339 45.197)">
      <path id="Trazado_629088" data-name="Trazado 629088" d="M171.875,93.141V91.347L81.326,72.568v1.8L142.858,109.9Z" transform="translate(-81.326 -55.819)" fill="#0a8074"/>
      <path id="Trazado_629089" data-name="Trazado 629089" d="M171.875,86.3,110.339,50.771,81.326,67.52l61.532,35.538Z" transform="translate(-81.326 -50.771)" fill="#16a89f"/>
      <path id="Trazado_629090" data-name="Trazado 629090" d="M182.969,101.776l-3.327-1.92-3.9,2.243,3.33,1.933Z" transform="translate(-103.192 -62.138)" fill="#0a8074"/>
      <path id="Trazado_629091" data-name="Trazado 629091" d="M156.13,91.7,142.1,83.6l-16.433,9.487,14.04,8.091Z" transform="translate(-91.595 -58.373)" fill="#24d2c1"/>
      <path id="Trazado_629092" data-name="Trazado 629092" d="M114.795,68.515l-14.046-8.1L84.335,69.892,98.372,78Z" transform="translate(-82.023 -53.003)" fill="#24d2c1"/>
      <g id="Grupo_901594" data-name="Grupo 901594" transform="translate(67.699 40.259)">
        <path id="Trazado_629093" data-name="Trazado 629093" d="M172.288,107.315l-2.86-1.653.013.694L172.3,108Z" transform="translate(-169.429 -103.742)" fill="#535359"/>
        <path id="Trazado_629094" data-name="Trazado 629094" d="M176.505,105.3l-3.229,1.249-.126.681.011.688,3.347-1.92Z" transform="translate(-170.291 -103.658)" fill="#121214"/>
        <path id="Trazado_629095" data-name="Trazado 629095" d="M175.644,104.806l-2.87-1.643-3.345,1.92,2.86,1.653Z" transform="translate(-169.429 -103.163)" fill="#303033"/>
        <path id="Trazado_629096" data-name="Trazado 629096" d="M174.04,106.061l-.542-.312,1.435-.828.547.311Z" transform="translate(-170.371 -103.57)" fill="#e6dab0"/>
      </g>
      <g id="Grupo_901595" data-name="Grupo 901595" transform="translate(76.111 32.272)">
        <path id="Trazado_629097" data-name="Trazado 629097" d="M185.061,99.587l-4.685-2.7.022,1.134,4.68,2.7Z" transform="translate(-180.375 -93.722)" fill="#535359"/>
        <path id="Trazado_629098" data-name="Trazado 629098" d="M185.076,100.379l-4.687-2.7.011.525,4.68,2.7Z" transform="translate(-180.379 -93.906)" fill="#bcbec0"/>
        <path id="Trazado_629099" data-name="Trazado 629099" d="M191.954,96.291l-5.282,2.044-.2,1.113.016,1.136,5.475-3.16Z" transform="translate(-181.788 -93.585)" fill="#121214"/>
        <path id="Trazado_629100" data-name="Trazado 629100" d="M191.958,97.069l-5.469,3.169,0,.527,5.475-3.16Z" transform="translate(-181.791 -93.765)" fill="#939598"/>
        <path id="Trazado_629101" data-name="Trazado 629101" d="M190.542,95.476l-4.686-2.707-5.481,3.163,4.685,2.7Z" transform="translate(-180.375 -92.769)" fill="#303033"/>
        <path id="Trazado_629102" data-name="Trazado 629102" d="M185.861,98.2l-1.54-.9,4.015-2.3,1.538.881Z" transform="translate(-181.289 -93.286)" fill="#e6dab0"/>
      </g>
      <g id="Grupo_901596" data-name="Grupo 901596" transform="translate(50.67 39.777)">
        <path id="Trazado_629103" data-name="Trazado 629103" d="M151.952,109.345l-4.685-2.7.029,1.13,4.673,2.7Z" transform="translate(-147.268 -103.487)" fill="#303033"/>
        <path id="Trazado_629104" data-name="Trazado 629104" d="M158.841,106.037l-5.279,2.053-.2,1.115.018,1.13,5.473-3.161Z" transform="translate(-148.68 -103.347)"/>
        <path id="Trazado_629105" data-name="Trazado 629105" d="M157.43,105.226l-4.694-2.69-5.468,3.155,4.685,2.7Z" transform="translate(-147.268 -102.536)" fill="#121214"/>
        <path id="Trazado_629106" data-name="Trazado 629106" d="M152.885,105.668l-1.536-.885,2.3-1.316,1.542.88Z" transform="translate(-148.213 -102.752)" fill="#e6dab0"/>
      </g>
      <g id="Grupo_901597" data-name="Grupo 901597" transform="translate(26.377 26.688)">
        <path id="Trazado_629107" data-name="Trazado 629107" d="M120.323,92.318l-4.672-2.706.016,1.126,4.68,2.7Z" transform="translate(-115.652 -86.454)" fill="#303033"/>
        <path id="Trazado_629108" data-name="Trazado 629108" d="M127.214,89.015l-5.27,2.041-.212,1.124.025,1.124,5.482-3.154Z" transform="translate(-117.06 -86.316)"/>
        <path id="Trazado_629109" data-name="Trazado 629109" d="M125.806,88.2l-4.684-2.7-5.47,3.158,4.672,2.706Z" transform="translate(-115.652 -85.502)" fill="#121214"/>
        <path id="Trazado_629110" data-name="Trazado 629110" d="M121.262,88.642l-1.531-.894,2.288-1.332,1.54.886Z" transform="translate(-116.597 -85.714)" fill="#e6dab0"/>
      </g>
      <g id="Grupo_901598" data-name="Grupo 901598" transform="translate(58.322 43.155)">
        <path id="Trazado_629111" data-name="Trazado 629111" d="M160.087,112.659,157.226,111l.021.7,2.856,1.647Z" transform="translate(-157.226 -107.875)" fill="#303033"/>
        <path id="Trazado_629112" data-name="Trazado 629112" d="M166.376,109.083l-4.543,2.022-.885,1.108.016.691,5.425-3.125Z" transform="translate(-158.088 -107.43)"/>
        <path id="Trazado_629113" data-name="Trazado 629113" d="M165.514,108.585l-2.864-1.653-5.425,3.13,2.861,1.654Z" transform="translate(-157.226 -106.932)" fill="#121214"/>
      </g>
      <g id="Grupo_901599" data-name="Grupo 901599" transform="translate(20.892 24.092)">
        <path id="Trazado_629114" data-name="Trazado 629114" d="M111.376,87.852,108.514,86.2l0,.693,2.863,1.65Z" transform="translate(-108.514 -83.067)" fill="#303033"/>
        <path id="Trazado_629115" data-name="Trazado 629115" d="M117.658,84.278l-4.547,2.012-.872,1.117,0,.688,5.428-3.13Z" transform="translate(-109.377 -82.623)"/>
        <path id="Trazado_629116" data-name="Trazado 629116" d="M116.795,83.779l-2.864-1.655-5.417,3.129,2.863,1.655Z" transform="translate(-108.514 -82.124)" fill="#121214"/>
      </g>
      <g id="Grupo_901600" data-name="Grupo 901600" transform="translate(17.172 21.905)">
        <path id="Trazado_629117" data-name="Trazado 629117" d="M106.531,85.011l-2.857-1.655,0,.688,2.862,1.649Z" transform="translate(-103.674 -80.222)" fill="#303033"/>
        <path id="Trazado_629118" data-name="Trazado 629118" d="M112.805,81.429l-4.552,2.022-.862,1.114.01.682,5.41-3.125Z" transform="translate(-104.535 -79.776)"/>
        <path id="Trazado_629119" data-name="Trazado 629119" d="M111.944,80.931l-2.86-1.653-5.41,3.133,2.857,1.655Z" transform="translate(-103.674 -79.278)" fill="#121214"/>
      </g>
      <path id="Trazado_629120" data-name="Trazado 629120" d="M170.276,110.573l-1.34-.774-4.23,2.442,1.346.769Z" transform="translate(-100.636 -64.441)" fill="#0a8074"/>
    </g>
    <g id="Grupo_901623" data-name="Grupo 901623" transform="translate(69.154 26.703)">
      <path id="Trazado_629121" data-name="Trazado 629121" d="M127.491,87.49,155.9,71.095l-6.245-13.038-48.4-27.843L69.4,41.158V51.2l.008.006c-.18,1.586.771,3.2,2.852,4.413Zm13.33-11.642a18.139,18.139,0,0,1-3.973,1.635L115.955,68.2A8.441,8.441,0,0,1,120,63.823c5.75-3.328,15.068-3.328,20.823,0C146.577,67.131,146.57,72.524,140.822,75.848ZM111.931,63.1,91.037,53.82a8.435,8.435,0,0,1,4.044-4.383c5.748-3.33,15.068-3.33,20.822,0a10.216,10.216,0,0,1,3.08,2.593A12.018,12.018,0,0,0,111.931,63.1Z" transform="translate(-69.375 -27.516)" fill="#121214"/>
      <path id="Trazado_629122" data-name="Trazado 629122" d="M177.964,95.147l-15.97-.823L145,91.7v10.033l16.989,2.635Z" transform="translate(-86.888 -41.754)"/>
      <g id="Grupo_901611" data-name="Grupo 901611" transform="translate(45.001 28.331)">
        <g id="Grupo_901602" data-name="Grupo 901602" transform="translate(10.012)">
          <path id="Trazado_629123" data-name="Trazado 629123" d="M140.965,64.519l.117-.947h7.405l-.139.947-1.754,4.843a9.834,9.834,0,0,0-3.878,0Z" transform="translate(-140.965 -63.572)" fill="#535359"/>
          <path id="Trazado_629124" data-name="Trazado 629124" d="M141.117,63.572h7.405l-1.766,4.849a9.492,9.492,0,0,0-3.876,0Z" transform="translate(-141 -63.572)" fill="#939598"/>
        </g>
        <g id="Grupo_901603" data-name="Grupo 901603" transform="translate(16.089 0.801)">
          <path id="Trazado_629125" data-name="Trazado 629125" d="M158.925,68.548l-.132.955-7.182,2.7a4.976,4.976,0,0,0-2.737-1.584l.129-.951Z" transform="translate(-148.874 -65.525)" fill="#535359"/>
          <path id="Trazado_629126" data-name="Trazado 629126" d="M153.733,64.614l5.231,3.023-7.185,2.712a4.957,4.957,0,0,0-2.737-1.589Z" transform="translate(-148.913 -64.614)" fill="#939598"/>
        </g>
        <g id="Grupo_901604" data-name="Grupo 901604" transform="translate(1.403 0.808)">
          <path id="Trazado_629127" data-name="Trazado 629127" d="M129.762,69.5l.123-.955,9.918,1.123-.12.951a5.711,5.711,0,0,0-2.751,1.584Z" transform="translate(-129.762 -65.532)" fill="#535359"/>
          <path id="Trazado_629128" data-name="Trazado 629128" d="M129.922,67.639l5.226-3.016,4.692,4.139a5.752,5.752,0,0,0-2.745,1.589Z" transform="translate(-129.799 -64.623)" fill="#939598"/>
        </g>
        <g id="Grupo_901605" data-name="Grupo 901605" transform="translate(8.048 2.817)">
          <path id="Trazado_629129" data-name="Trazado 629129" d="M148.073,78.349a8.852,8.852,0,0,1-8.012,0,2.738,2.738,0,0,1-1.636-2.383l-.013.007V71.326l11.3.3.018,4.317h-.016A2.722,2.722,0,0,1,148.073,78.349Z" transform="translate(-138.41 -68.185)"/>
          <path id="Trazado_629130" data-name="Trazado 629130" d="M148.066,72.815c2.217-1.272,2.217-3.336,0-4.627a8.9,8.9,0,0,0-8.005,0c-2.2,1.29-2.2,3.354,0,4.627A8.828,8.828,0,0,0,148.066,72.815Z" transform="translate(-138.409 -67.238)" fill="#303033"/>
        </g>
        <g id="Grupo_901606" data-name="Grupo 901606" transform="translate(19.008 5.771)">
          <path id="Trazado_629131" data-name="Trazado 629131" d="M161.2,76.338l-.126.951-8.4-1.018.134-.948S160.707,75.547,161.2,76.338Z" transform="translate(-152.673 -72.064)" fill="#535359"/>
          <path id="Trazado_629132" data-name="Trazado 629132" d="M161.237,71.082v4.274l-8.389-1.015a9.946,9.946,0,0,0,.2-2.264Z" transform="translate(-152.714 -71.082)" fill="#939598"/>
        </g>
        <g id="Grupo_901607" data-name="Grupo 901607" transform="translate(0 5.771)">
          <path id="Trazado_629133" data-name="Trazado 629133" d="M127.936,76.307v-4.27l.128-.955,7.922.969a1.85,1.85,0,0,0,.467,2.29l-.124.948Z" transform="translate(-127.936 -71.082)" fill="#535359"/>
          <path id="Trazado_629134" data-name="Trazado 629134" d="M128.1,75.356V71.082l7.922.969a4.888,4.888,0,0,0,.467,2.29Z" transform="translate(-127.974 -71.082)" fill="#939598"/>
        </g>
        <g id="Grupo_901608" data-name="Grupo 901608" transform="translate(1.403 9.29)">
          <path id="Trazado_629135" data-name="Trazado 629135" d="M134.983,82.806,129.762,79.8l.123-.951,9.918-1.121-.124.948Z" transform="translate(-129.762 -76.139)" fill="#535359"/>
          <path id="Trazado_629136" data-name="Trazado 629136" d="M135.148,81.378l-5.226-3.011,7.173-2.706a5.039,5.039,0,0,0,2.745,1.584Z" transform="translate(-129.799 -75.662)" fill="#939598"/>
        </g>
        <g id="Grupo_901609" data-name="Grupo 901609" transform="translate(16.089 9.29)">
          <path id="Trazado_629137" data-name="Trazado 629137" d="M158.792,79.8l-5.229,3.009-4.689-4.134.129-.948,9.922,1.121Z" transform="translate(-148.874 -76.139)" fill="#535359"/>
          <path id="Trazado_629138" data-name="Trazado 629138" d="M158.964,78.368l-5.231,3.021-4.691-4.142a5.811,5.811,0,0,0,2.743-1.584Z" transform="translate(-148.913 -75.662)" fill="#939598"/>
        </g>
        <g id="Grupo_901610" data-name="Grupo 901610" transform="translate(10.012 10.974)">
          <path id="Trazado_629139" data-name="Trazado 629139" d="M148.348,84.982h-7.383l.117-.952s4.876-.988,7.405,0Z" transform="translate(-140.965 -79.183)" fill="#535359"/>
          <path id="Trazado_629140" data-name="Trazado 629140" d="M148.522,82.7h-7.405l1.763-4.843a9.78,9.78,0,0,0,3.876,0Z" transform="translate(-141 -77.854)" fill="#939598"/>
        </g>
      </g>
      <g id="Grupo_901621" data-name="Grupo 901621" transform="translate(20.085 13.941)">
        <g id="Grupo_901612" data-name="Grupo 901612" transform="translate(10.011)">
          <path id="Trazado_629141" data-name="Trazado 629141" d="M108.539,45.792l.117-.947h7.4l-.139.947-1.753,4.845a9.761,9.761,0,0,0-3.877,0Z" transform="translate(-108.539 -44.845)" fill="#535359"/>
          <path id="Trazado_629142" data-name="Trazado 629142" d="M108.691,44.845h7.4l-1.766,4.846a9.54,9.54,0,0,0-3.876,0Z" transform="translate(-108.574 -44.845)" fill="#939598"/>
        </g>
        <g id="Grupo_901613" data-name="Grupo 901613" transform="translate(16.087 0.803)">
          <path id="Trazado_629143" data-name="Trazado 629143" d="M126.5,49.821l-.134.957-7.18,2.7a4.979,4.979,0,0,0-2.738-1.587l.13-.951Z" transform="translate(-116.447 -46.8)" fill="#535359"/>
          <path id="Trazado_629144" data-name="Trazado 629144" d="M121.309,45.89l5.23,3.021-7.185,2.714a4.943,4.943,0,0,0-2.737-1.591Z" transform="translate(-116.486 -45.89)" fill="#939598"/>
        </g>
        <g id="Grupo_901614" data-name="Grupo 901614" transform="translate(1.402 0.807)">
          <path id="Trazado_629145" data-name="Trazado 629145" d="M97.335,50.778l.124-.957,9.917,1.123-.118.951a5.678,5.678,0,0,0-2.751,1.587Z" transform="translate(-97.335 -46.804)" fill="#535359"/>
          <path id="Trazado_629146" data-name="Trazado 629146" d="M97.5,48.912l5.225-3.017,4.692,4.14a5.735,5.735,0,0,0-2.744,1.591Z" transform="translate(-97.372 -45.895)" fill="#939598"/>
        </g>
        <g id="Grupo_901615" data-name="Grupo 901615" transform="translate(8.046 2.817)">
          <path id="Trazado_629147" data-name="Trazado 629147" d="M115.647,59.622a8.842,8.842,0,0,1-8.013,0A2.75,2.75,0,0,1,106,57.237l-.013.006V52.6l11.3.3.018,4.318h-.015A2.723,2.723,0,0,1,115.647,59.622Z" transform="translate(-105.982 -49.458)"/>
          <path id="Trazado_629148" data-name="Trazado 629148" d="M115.639,54.089c2.218-1.276,2.218-3.337,0-4.627a8.9,8.9,0,0,0-8.005,0c-2.2,1.289-2.2,3.35,0,4.627A8.847,8.847,0,0,0,115.639,54.089Z" transform="translate(-105.982 -48.511)" fill="#303033"/>
        </g>
        <g id="Grupo_901616" data-name="Grupo 901616" transform="translate(19.007 5.768)">
          <path id="Trazado_629149" data-name="Trazado 629149" d="M128.769,57.608l-.125.95-8.4-1.013.134-.953S128.282,56.822,128.769,57.608Z" transform="translate(-120.247 -53.334)" fill="#535359"/>
          <path id="Trazado_629150" data-name="Trazado 629150" d="M128.81,52.352v4.274l-8.389-1.016a9.764,9.764,0,0,0,.2-2.262Z" transform="translate(-120.287 -52.352)" fill="#939598"/>
        </g>
        <g id="Grupo_901617" data-name="Grupo 901617" transform="translate(0 5.768)">
          <path id="Trazado_629151" data-name="Trazado 629151" d="M95.511,57.576V53.309l.127-.957,7.92.974a1.844,1.844,0,0,0,.469,2.284l-.127.953Z" transform="translate(-95.511 -52.352)" fill="#535359"/>
          <path id="Trazado_629152" data-name="Trazado 629152" d="M95.676,56.626V52.352l7.92.974a4.889,4.889,0,0,0,.47,2.284Z" transform="translate(-95.549 -52.352)" fill="#939598"/>
        </g>
        <g id="Grupo_901618" data-name="Grupo 901618" transform="translate(1.402 9.289)">
          <path id="Trazado_629153" data-name="Trazado 629153" d="M102.557,64.079l-5.222-3.01.123-.95L107.376,59l-.123.944Z" transform="translate(-97.335 -57.412)" fill="#535359"/>
          <path id="Trazado_629154" data-name="Trazado 629154" d="M102.721,62.65,97.5,59.64l7.173-2.706a5.057,5.057,0,0,0,2.744,1.587Z" transform="translate(-97.373 -56.934)" fill="#939598"/>
        </g>
        <g id="Grupo_901619" data-name="Grupo 901619" transform="translate(16.088 9.289)">
          <path id="Trazado_629155" data-name="Trazado 629155" d="M126.365,61.069l-5.228,3.01-4.69-4.136.129-.944,9.923,1.119Z" transform="translate(-116.447 -57.412)" fill="#535359"/>
          <path id="Trazado_629156" data-name="Trazado 629156" d="M126.538,59.64l-5.23,3.021-4.693-4.14a5.835,5.835,0,0,0,2.743-1.587Z" transform="translate(-116.486 -56.934)" fill="#939598"/>
        </g>
        <g id="Grupo_901620" data-name="Grupo 901620" transform="translate(10.011 10.976)">
          <path id="Trazado_629157" data-name="Trazado 629157" d="M115.921,66.257h-7.382l.117-.951s4.876-.992,7.4,0Z" transform="translate(-108.539 -60.457)" fill="#535359"/>
          <path id="Trazado_629158" data-name="Trazado 629158" d="M116.1,63.978h-7.4l1.763-4.845a9.767,9.767,0,0,0,3.876,0Z" transform="translate(-108.574 -59.129)" fill="#939598"/>
        </g>
      </g>
      <path id="Trazado_629159" data-name="Trazado 629159" d="M127.489,76.643l28.408-16.4L100.659,28.371a15.525,15.525,0,0,0-14,0l-14.4,8.313c-3.843,2.225-3.843,5.867.009,8.084Zm10.6-10.069c-5.755,3.327-15.069,3.327-20.824,0s-5.741-8.7-.006-12.02,15.075-3.318,20.83,0S143.843,63.258,138.086,66.574ZM113.623,52.441c-5.755,3.331-15.068,3.331-20.822,0s-5.742-8.694-.009-12.016c5.748-3.33,15.076-3.32,20.831,0S119.38,49.124,113.623,52.441Z" transform="translate(-69.373 -26.703)" fill="#303033"/>
      <path id="Trazado_629160" data-name="Trazado 629160" d="M107.475,31.445l-1.239-.708L85.575,42.668c-3.768,2.181-3.768,5.72,0,7.9l45.919,26.5,1.24-.717L86.83,49.85c-3.091-1.789-3.091-4.68,0-6.462Z" transform="translate(-72.471 -27.637)" fill="#ff8400"/>
      <path id="Trazado_629161" data-name="Trazado 629161" d="M177.964,80.165l-4.551-9.815L145,86.752l16.989,2.629Z" transform="translate(-86.888 -36.811)" fill="#121214"/>
      <path id="Trazado_629162" data-name="Trazado 629162" d="M173.517,67.918,164.05,62.46,163,63.067l9.469,5.456Z" transform="translate(-91.056 -34.984)" fill="#e6dab0"/>
      <path id="Trazado_629163" data-name="Trazado 629163" d="M167.114,102.379l15.97-9.216V83.123l-15.97,9.216Z" transform="translate(-92.009 -39.769)"/>
      <path id="Trazado_629164" data-name="Trazado 629164" d="M161.994,104.364V94.324L145,91.7v10.033Z" transform="translate(-86.888 -41.754)" fill="#303033"/>
      <g id="Grupo_901622" data-name="Grupo 901622" transform="translate(5.513 12.397)">
        <path id="Trazado_629165" data-name="Trazado 629165" d="M77.069,45.485a2.77,2.77,0,0,0,2.527,0,.769.769,0,0,0,0-1.457,2.742,2.742,0,0,0-2.527,0A.769.769,0,0,0,77.069,45.485Z" transform="translate(-76.547 -43.04)" opacity="0.3"/>
        <path id="Trazado_629166" data-name="Trazado 629166" d="M78.41,43.868h1.438v.841h0a.711.711,0,0,1-.42.577,2.234,2.234,0,0,1-2.024,0,.683.683,0,0,1-.42-.592h0l-.011-.826Z" transform="translate(-76.646 -43.075)" fill="#ff2456"/>
        <path id="Trazado_629167" data-name="Trazado 629167" d="M77.4,44.257a2.3,2.3,0,0,0,2.029,0c.556-.333.556-.858,0-1.176a2.22,2.22,0,0,0-2.029,0A.622.622,0,0,0,77.4,44.257Z" transform="translate(-76.648 -42.835)" fill="#ff4d75"/>
      </g>
    </g>
  </g>
</svg>
