<svg xmlns="http://www.w3.org/2000/svg" width="191" height="191" viewBox="0 0 191 191">
  <g id="Grupo_906775" data-name="Grupo 906775" transform="translate(-389.376 -7374)">
    <circle id="Elipse_6506" data-name="Elipse 6506" cx="95.5" cy="95.5" r="95.5" transform="translate(389.376 7374)" fill="#4dd0e1"/>
    <g id="Grupo_901818" data-name="Grupo 901818" transform="translate(808.388 7208.632)">
      <path id="Trazado_630063" data-name="Trazado 630063" d="M-306.238,197.423c.325-1.6.856-2.063,2.442-2.064q10.261-.01,20.522,0c1.7,0,2.377.657,2.394,2.337.025,2.424-.01,4.848.013,7.272a2.151,2.151,0,0,1-1.861,2.4c-2.347.549-4.675,1.181-7.214,1.831,3.608,2.232,7.055,4.359,10.5,6.5a6.286,6.286,0,0,1,3.181,5.966c-.176,4.457-5.678,7.313-9.259,5.079-6.924-4.321-13.992-8.412-21.031-12.546a3.264,3.264,0,0,0-2.019-.315,27.824,27.824,0,0,0-3.887.988,1.173,1.173,0,0,0-.678.827c-.076,1.247-.032,2.5-.032,3.8.775.151,1.5.261,2.2.435A13.312,13.312,0,0,1-300.746,233.1c.029,11.125.008,22.25.008,33.375v1.538c.777,0,1.462-.036,2.142.008a1.752,1.752,0,0,1,1.841,1.8q.08,4.153,0,8.308a1.729,1.729,0,0,1-1.739,1.763c-.685.065-1.381.012-2.241.012v1.446q0,18.376-.006,36.752a9.989,9.989,0,0,1-7.157,9.855c-.47.14-.938.287-1.407.43h-19.75c-.118-.1-.219-.248-.355-.3-5.363-2-7.494-5.06-7.494-10.777q0-17.924,0-35.848v-1.456h-8.45c-.022.278-.05.529-.062.781-.351,7.383.578,14.684,1.4,21.993.861,7.609,1.663,15.223,2.525,22.832a2.414,2.414,0,0,1-1.341,2.775h-17.411a2.946,2.946,0,0,1-1.108-3.01c1.325-11.644,2.674-23.286,3.823-34.949.337-3.42.052-6.9.052-10.48-.527,0-.993.008-1.458,0-1.862-.039-2.518-.674-2.532-2.507-.018-2.294-.014-4.588,0-6.882.011-1.924.639-2.535,2.589-2.567.428-.007.855,0,1.349,0a30.03,30.03,0,0,0-.7-9.424q-3.115-14.437-6.057-28.911c-2.7-13.322,6.3-26.784,19.789-29.592,2.437-.507,4.949-.653,7.544-.981.249-1.336-.58-3.7,2.017-3.655,2.442.041,1.788,2.264,1.973,3.843h7.826c0-.6-.028-1.237.006-1.867a1.923,1.923,0,0,1,2.045-2.037q5.129-.047,10.259,0c1.311.01,1.926.81,2.052,2.052a2.129,2.129,0,0,1-2.405,1.846c-2.664-.033-5.329-.01-7.982-.01v12.328c2.315-.106,4.622.118,6.766-.371,7.317-1.669,14.578-3.589,21.86-5.414,2.58-.647,5.16-1.3,7.7-1.933v-4.61h-1.335c-5.84,0-11.68-.018-17.52.013A2.209,2.209,0,0,1-306.238,197.423Zm-20.983,42.227h-5.731v4.058h5.72q11.148.015,22.3.025c.068,0,.137-.078.21-.122V239.65Zm-.013,64.591h-5.722v4.078h5.728c.905.014,1.811.034,2.716.041,1.8.013,2.17.276,2.666,1.91-.432,1.609-.9,1.972-2.534,1.994-.951.012-1.9.03-2.853.046h-5.761c0,2.2-.054,4.314.013,6.419a6,6,0,0,0,5.754,5.75c.861.04,1.726-.018,2.59-.031,4.718.012,9.437.067,14.155.017a5.588,5.588,0,0,0,5.5-4.33,68.876,68.876,0,0,0,.453-7.871c-3.594,0-6.883,0-10.171,0-1.721,0-2.165-.352-2.655-2.03a2.207,2.207,0,0,1,2.516-1.886c3.364.045,6.729.015,10.125.015v-4.12Zm-.009-24.212h-5.65v20.214H-304.7v-4.116h-1.446c-4.023,0-8.045.006-12.068,0-1.92,0-2.553-.647-2.556-2.579q-.01-6.033,0-12.066v-1.451Zm.03-12.119h6.442v-1.436c0-4.063-.007-8.127,0-12.19,0-1.77.646-2.429,2.424-2.439,3.545-.02,7.091-.006,10.636-.006h2.983v-4.173c-3.579,0-7.074-.011-10.568,0-3.975.016-7.949.054-11.923.082h-5.725v20.16Zm-.023-32.279q11.157.009,22.315.012c.067,0,.133-.088.275-.188,0-.894.024-1.84,0-2.785a9.1,9.1,0,0,0-7.817-8.992,91.373,91.373,0,0,0-9.837-.194c-6.269-.725-12.056,4.482-10.492,12.146Zm-24.432,4.724c-1.7,0-2.21-.414-2.557-2.087q-.224-1.079-.43-2.161c-.641-3.395-1.635-6.768-1.848-10.19-.6-9.7,7.581-17.512,16.87-18.336,2.754-.245,2.709-.174,2.763-3.024.021-1.095-.331-1.417-1.4-1.385a22.659,22.659,0,0,0-17.788,8.768c-3.833,4.787-5.56,10.309-4.441,16.394,1.445,7.859,3.223,15.657,4.8,23.494,1.027,5.113,2.6,10.156,2.191,15.475a1.714,1.714,0,0,0,.154.564h3.832a44.211,44.211,0,0,0-.059-6.775c-.717-4.519-1.768-8.986-2.682-13.474-.3-1.477,0-2.056,1.443-2.747a2.091,2.091,0,0,1,2.376,2.011c.4,2.165.912,4.31,1.33,6.472.8,4.147,2.058,8.233,1.7,12.54-.056.669-.008,1.347-.008,2.02h8.512v-1.484c0-11.082-.019-22.163.008-33.244a13.223,13.223,0,0,1,9.248-12.993c.809-.262,1.65-.424,2.446-.625v-8.149h-7.772c-.107,3.107-.5,3.887-1.908,3.954s-1.82-.669-2.122-4.148a37.125,37.125,0,0,0-4.7.537c-7.352,1.77-12.466,9.082-10.584,16.626.762,3.057,1.286,6.173,1.931,9.26C-350.095,238.9-350.34,239.884-351.668,240.355Zm6.128,84.078c-1.191-10.794-2.376-21.522-3.565-32.287h-4.647c-1.19,10.784-2.374,21.511-3.564,32.287Zm44.879-52.469h-56.815v4.011h56.815ZM-316.83,267.9h12.1V255.843h-12.1Zm.026,24.246h12.1V280.024h-12.1Zm14.674-79.909c6.247,3.718,12.178,7.251,18.111,10.779,1.427.848,2.757.634,3.5-.545.768-1.221.373-2.595-1.081-3.5q-6.427-4.015-12.885-7.978a1.829,1.829,0,0,0-1.179-.326C-297.719,211.12-299.755,211.654-302.13,212.242Zm-30.8-4.806h7.722v-4.143h-7.722ZM-349.374,280.1h-4.045v7.938h4.045Zm32.2-60.631v-3.978h-3.964v3.978Z" fill="#030303"/>
      <path id="Trazado_630064" data-name="Trazado 630064" d="M-224.2,201.323a2.209,2.209,0,0,0,2.543,1.846c5.84-.031,11.68-.013,17.52-.013h1.335v4.61c-2.538.637-5.117,1.286-7.7,1.933-7.282,1.825-14.542,3.745-21.86,5.414-2.144.489-4.451.264-6.766.371V203.156c2.653,0,5.318-.024,7.982.01a2.129,2.129,0,0,0,2.405-1.846Z" transform="translate(-82.034 -3.9)" fill="#d1ddfd"/>
      <path id="Trazado_630065" data-name="Trazado 630065" d="M-344.266,255.076l.85,4.517c-1.441.691-1.745,1.269-1.444,2.747.914,4.488,1.965,8.954,2.682,13.474a44.215,44.215,0,0,1,.059,6.775h-3.832a1.714,1.714,0,0,1-.154-.564c.406-5.32-1.164-10.362-2.191-15.475-1.575-7.837-3.353-15.634-4.8-23.494-1.119-6.085.608-11.607,4.441-16.394a22.659,22.659,0,0,1,17.788-8.768c1.065-.032,1.417.29,1.4,1.385-.054,2.85-.01,2.779-2.763,3.024-9.289.824-17.475,8.632-16.87,18.336.213,3.422,1.208,6.8,1.848,10.19q.2,1.082.43,2.161C-346.476,254.662-345.97,255.072-344.266,255.076Z" transform="translate(-7.403 -14.721)" fill="#5762a6"/>
      <path id="Trazado_630066" data-name="Trazado 630066" d="M-256.693,528.45c.951-.016,1.9-.033,2.853-.046,1.638-.022,2.1-.385,2.534-1.994l4.494-.038c.49,1.678.934,2.026,2.655,2.03,3.289.006,6.577,0,10.171,0a68.868,68.868,0,0,1-.453,7.871,5.588,5.588,0,0,1-5.5,4.33c-4.718.05-9.437-.006-14.155-.017a9.4,9.4,0,0,1-2.571-5.661C-256.8,532.775-256.694,530.609-256.693,528.45Z" transform="translate(-70.539 -216.14)" fill="#f07954"/>
      <path id="Trazado_630067" data-name="Trazado 630067" d="M-331.522,506.546H-343.3c1.19-10.776,2.374-21.5,3.564-32.287h4.647C-333.9,485.024-332.713,495.753-331.522,506.546Z" transform="translate(-14.018 -182.114)" fill="#d1ddfd"/>
      <path id="Trazado_630068" data-name="Trazado 630068" d="M-286.943,416.107v4.011h-56.815v-4.011Z" transform="translate(-13.717 -144.144)" fill="#ccd7f6"/>
      <path id="Trazado_630069" data-name="Trazado 630069" d="M-251.794,276.358a91.373,91.373,0,0,1,9.837.194,9.1,9.1,0,0,1,7.817,8.992c.027.945,0,1.891,0,2.785-.142.1-.209.188-.275.188q-11.158,0-22.315-.012C-257.05,283.657-255.942,279.39-251.794,276.358Z" transform="translate(-70.509 -52.873)" fill="#f07954"/>
      <path id="Trazado_630070" data-name="Trazado 630070" d="M-256.571,346.174c3.974-.028,7.949-.066,11.923-.082,3.495-.014,6.989,0,10.568,0v4.173h-2.983c-3.545,0-7.091-.013-10.636.006-1.778.01-2.419.668-2.424,2.439-.01,4.063,0,8.127,0,12.19v1.436h-6.442Q-256.57,356.254-256.571,346.174Z" transform="translate(-70.645 -98.423)" fill="#f07954"/>
      <path id="Trazado_630071" data-name="Trazado 630071" d="M-256.647,439.347h6.472V440.8q0,6.033,0,12.066c0,1.932.636,2.575,2.556,2.579,4.023.009,8.045,0,12.068,0h1.446v4.116H-256.63Q-256.638,449.454-256.647,439.347Z" transform="translate(-70.596 -159.318)" fill="#f07954"/>
      <path id="Trazado_630072" data-name="Trazado 630072" d="M-226.644,381.721V369.659h12.1v12.062Z" transform="translate(-90.186 -113.816)" fill="#fee07c"/>
      <path id="Trazado_630073" data-name="Trazado 630073" d="M-226.568,451.459V439.332h12.1v12.127Z" transform="translate(-90.235 -159.308)" fill="#fee07c"/>
      <path id="Trazado_630074" data-name="Trazado 630074" d="M-267.342,346.341q0,10.08,0,20.16h-5.729v-20.16Z" transform="translate(-59.874 -98.591)" fill="#e15b40"/>
      <path id="Trazado_630075" data-name="Trazado 630075" d="M-267.277,439.347q.009,10.107.017,20.214h-5.667V439.347Z" transform="translate(-59.966 -159.318)" fill="#e15b40"/>
      <path id="Trazado_630076" data-name="Trazado 630076" d="M-246.738,515.1l-4.494.038c-.5-1.634-.867-1.9-2.665-1.91-.906-.006-1.811-.027-2.716-.041q0-2.039-.006-4.078H-234.1v4.12c-3.4,0-6.761.031-10.125-.015A2.207,2.207,0,0,0-246.738,515.1Z" transform="translate(-70.613 -204.87)" fill="#fee07c"/>
      <path id="Trazado_630077" data-name="Trazado 630077" d="M-184.288,241.039c2.374-.588,4.41-1.122,6.465-1.572a1.829,1.829,0,0,1,1.179.326q6.458,3.964,12.885,7.978c1.453.908,1.849,2.282,1.081,3.5-.742,1.179-2.072,1.393-3.5.545C-172.11,248.29-178.041,244.758-184.288,241.039Z" transform="translate(-117.842 -28.797)" fill="#ccd7f6"/>
      <path id="Trazado_630078" data-name="Trazado 630078" d="M-256.606,323h22.495v3.962c-.073.044-.142.122-.21.122q-11.148-.007-22.3-.025Q-256.611,325.03-256.606,323Z" transform="translate(-70.615 -83.351)" fill="#fee07c"/>
      <path id="Trazado_630079" data-name="Trazado 630079" d="M-267.493,532.359c0,2.159-.105,4.325.024,6.477A9.4,9.4,0,0,0-264.9,544.5c-.863.013-1.729.07-2.59.031a6,6,0,0,1-5.754-5.75c-.067-2.1-.013-4.214-.013-6.418Z" transform="translate(-59.739 -220.049)" fill="#e15b40"/>
      <path id="Trazado_630080" data-name="Trazado 630080" d="M-262.64,276.3c-4.148,3.032-5.256,7.3-4.933,12.146h-5.559C-274.7,280.782-268.909,275.574-262.64,276.3Z" transform="translate(-59.663 -52.814)" fill="#e15b40"/>
      <path id="Trazado_630081" data-name="Trazado 630081" d="M-273.037,222.387v-4.142h7.722v4.142Z" transform="translate(-59.894 -14.952)" fill="#5762a6"/>
      <path id="Trazado_630082" data-name="Trazado 630082" d="M-328.023,439.544v7.938h-4.045v-7.938Z" transform="translate(-21.35 -159.447)" fill="#5b66ac"/>
      <path id="Trazado_630083" data-name="Trazado 630083" d="M-267.366,323q-.006,2.029-.011,4.058h-5.72V323Z" transform="translate(-59.855 -83.351)" fill="#e9c15f"/>
      <path id="Trazado_630084" data-name="Trazado 630084" d="M-267.385,509.111l.006,4.078h-5.728v-4.078Z" transform="translate(-59.848 -204.87)" fill="#e9c15f"/>
      <path id="Trazado_630085" data-name="Trazado 630085" d="M-235.1,257.36h-3.964v-3.978h3.964Z" transform="translate(-82.078 -37.894)" fill="#ccd7f6"/>
    </g>
  </g>
</svg>
