<svg xmlns="http://www.w3.org/2000/svg" xmlns:xlink="http://www.w3.org/1999/xlink" width="368.609" height="279.839" viewBox="0 0 368.609 279.839">
  <defs>
    <linearGradient id="linear-gradient" x1="0.766" y1="0.268" x2="0.351" y2="0.899" gradientUnits="objectBoundingBox">
      <stop offset="0" stop-color="#636363"/>
      <stop offset="0.494" stop-color="#e6e6e6"/>
      <stop offset="1" stop-color="#e6e6e6"/>
    </linearGradient>
    <linearGradient id="linear-gradient-2" x1="0.626" y1="0.246" x2="0.156" y2="1.195" gradientUnits="objectBoundingBox">
      <stop offset="0" stop-color="#fff"/>
      <stop offset="1" stop-color="#999"/>
    </linearGradient>
  </defs>
  <g id="Grupo_906781" data-name="Grupo 906781" transform="translate(-179.623 -1007.818)">
    <g id="Grupo_902112" data-name="Grupo 902112" transform="translate(256.702 731.816)">
      <g id="Grupo_902004" data-name="Grupo 902004" transform="translate(70.148 322.008)">
        <g id="Grupo_902003" data-name="Grupo 902003">
          <g id="Grupo_901983" data-name="Grupo 901983" transform="translate(39.317 113.304)">
            <path id="Trazado_630571" data-name="Trazado 630571" d="M99.178,386.5v27.724a1.808,1.808,0,0,1-1.071,1.651L85.179,422.23v-.195l-4.02.288.016,2.631a1.315,1.315,0,0,0,.752,1.01l29.727,17.162a3.984,3.984,0,0,0,3.9-.134l12.455-9.306a3.07,3.07,0,0,0,1.235-2.461v-27.36Z" transform="translate(-81.158 -385.683)" fill="#636363"/>
            <path id="Trazado_630572" data-name="Trazado 630572" d="M96.894,386.04v27.723a1.808,1.808,0,0,1-1.071,1.651L82.161,421.52c-1.237.554-1.347,1.61-.234,2.254l29.727,17.162a3.993,3.993,0,0,0,3.9-.134l10.171-7.58a3.07,3.07,0,0,0,1.235-2.461V403.4Z" transform="translate(-81.158 -386.04)" fill="url(#linear-gradient)"/>
          </g>
          <g id="Grupo_902002" data-name="Grupo 902002">
            <path id="Trazado_630573" data-name="Trazado 630573" d="M177.161,386.628,66.377,322.666a3.575,3.575,0,0,0-3.477-.352l0,0,0,0-.058.034-2.714,1.577.687,1.24.25-.069a8.105,8.105,0,0,0-.179,1.727V412.48c0,4.05,2.461,8.754,5.5,10.507l110.784,63.962c.073.041.143.071.214.108l.377,1.915,3.123-1.814c1.1-.71,1.785-2.228,1.785-4.367V397.135C182.661,393.087,180.2,388.381,177.161,386.628Z" transform="translate(-58.029 -322.008)" fill="#636363"/>
            <g id="Grupo_902001" data-name="Grupo 902001" transform="translate(0 1.647)">
              <path id="Trazado_630574" data-name="Trazado 630574" d="M175.223,466.027,64.439,402.065c-3.038-1.754-5.5-6.457-5.5-10.507V351.341l121.783,70.311v40.217C180.722,465.919,178.259,467.781,175.223,466.027Z" transform="translate(-58.939 -301.084)" fill="#e1e2e4"/>
              <path id="Trazado_630575" data-name="Trazado 630575" d="M180.722,475.351,58.939,405.04V327.757c0-4.05,2.461-5.912,5.5-4.158l110.784,63.962c3.036,1.754,5.5,6.457,5.5,10.507Z" transform="translate(-58.939 -322.939)" fill="#13131c"/>
              <path id="Trazado_630576" data-name="Trazado 630576" d="M170.258,461.389,63.976,400.027a3.674,3.674,0,0,1-1.837-3.18v-67.4a1.349,1.349,0,0,1,2.024-1.168l106.284,61.362a3.67,3.67,0,0,1,1.835,3.18v67.4A1.349,1.349,0,0,1,170.258,461.389Z" transform="translate(-56.477 -318.968)" fill="#9fdbf5"/>
              <g id="Grupo_901990" data-name="Grupo 901990" transform="translate(15.837 28.872)">
                <path id="Trazado_630577" data-name="Trazado 630577" d="M88.387,374.728,69.011,363.541a2.036,2.036,0,0,1-.849-1.624V340c0-.626.38-.913.849-.642l19.376,11.187a2.035,2.035,0,0,1,.849,1.623v21.919C89.237,374.71,88.856,375,88.387,374.728Z" transform="translate(-67.679 -339.255)" fill="#fff"/>
                <g id="Grupo_901988" data-name="Grupo 901988" transform="translate(0 27.946)">
                  <g id="Grupo_901984" data-name="Grupo 901984">
                    <path id="Trazado_630578" data-name="Trazado 630578" d="M84.968,392.208l-15.747-9.092a2.941,2.941,0,0,1-1.332-2.3V355.991c0-.842.6-1.184,1.332-.759l15.747,9.092a2.938,2.938,0,0,1,1.332,2.3v24.829C86.3,392.292,85.7,392.633,84.968,392.208ZM69.221,356.337c-.2-.119-.368-.023-.368.209v24.829a.81.81,0,0,0,.368.635L84.968,391.1c.2.117.368.023.368-.211V366.063a.809.809,0,0,0-.368-.633Z" transform="translate(-67.889 -355.049)" fill="#fff"/>
                  </g>
                  <g id="Grupo_901985" data-name="Grupo 901985" transform="translate(23.087 13.328)">
                    <path id="Trazado_630579" data-name="Trazado 630579" d="M98.015,399.74l-15.748-9.092a2.936,2.936,0,0,1-1.331-2.3V363.523c0-.842.6-1.184,1.331-.759l15.748,9.092a2.936,2.936,0,0,1,1.331,2.3v24.829C99.346,399.824,98.749,400.165,98.015,399.74ZM82.267,363.869c-.2-.117-.368-.023-.368.211v24.828a.814.814,0,0,0,.368.635l15.748,9.092c.2.117.366.023.366-.211V373.6a.813.813,0,0,0-.366-.635Z" transform="translate(-80.936 -362.581)" fill="#fff"/>
                  </g>
                  <g id="Grupo_901986" data-name="Grupo 901986" transform="translate(46.171 26.656)">
                    <path id="Trazado_630580" data-name="Trazado 630580" d="M111.061,407.273l-15.748-9.09a2.947,2.947,0,0,1-1.331-2.3V371.055c0-.842.6-1.184,1.331-.759l15.748,9.092a2.941,2.941,0,0,1,1.332,2.3v24.828C112.394,407.356,111.8,407.7,111.061,407.273ZM95.313,371.4c-.2-.117-.366-.023-.366.211v24.83a.812.812,0,0,0,.366.633l15.748,9.092c.2.119.368.023.368-.209V381.128a.817.817,0,0,0-.368-.635Z" transform="translate(-93.982 -370.113)" fill="#fff"/>
                  </g>
                  <g id="Grupo_901987" data-name="Grupo 901987" transform="translate(69.256 39.984)">
                    <path id="Trazado_630581" data-name="Trazado 630581" d="M124.107,414.806l-15.747-9.092a2.944,2.944,0,0,1-1.332-2.3v-24.83c0-.842.6-1.182,1.332-.759l15.747,9.092a2.944,2.944,0,0,1,1.332,2.3v24.829C125.44,414.889,124.841,415.229,124.107,414.806ZM108.36,378.933c-.2-.117-.368-.021-.368.211v24.829a.815.815,0,0,0,.368.635l15.747,9.092c.2.117.368.021.368-.211V388.66a.809.809,0,0,0-.368-.633Z" transform="translate(-107.028 -377.645)" fill="#fff"/>
                  </g>
                </g>
                <path id="Trazado_630582" data-name="Trazado 630582" d="M143.6,385.146l-61.06-35.254a1.87,1.87,0,0,1-.851-1.465v-.768c0-.538.38-.756.851-.483l61.06,35.252a1.879,1.879,0,0,1,.849,1.467v.766C144.452,385.2,144.072,385.417,143.6,385.146Z" transform="translate(-57.268 -333.251)" fill="#fff"/>
                <path id="Trazado_630583" data-name="Trazado 630583" d="M143.6,389.19l-61.06-35.254a1.87,1.87,0,0,1-.851-1.465V351.7c0-.538.38-.756.851-.485l61.06,35.254a1.873,1.873,0,0,1,.849,1.467v.766C144.452,389.245,144.072,389.461,143.6,389.19Z" transform="translate(-57.268 -330.139)" fill="#fff"/>
                <path id="Trazado_630584" data-name="Trazado 630584" d="M143.6,393.234l-61.06-35.254a1.87,1.87,0,0,1-.851-1.467v-.766c0-.538.38-.756.851-.485l61.06,35.254a1.873,1.873,0,0,1,.849,1.465v.768C144.452,393.287,144.072,393.5,143.6,393.234Z" transform="translate(-57.268 -327.027)" fill="#fff"/>
                <path id="Trazado_630585" data-name="Trazado 630585" d="M143.6,397.278l-61.06-35.254a1.87,1.87,0,0,1-.851-1.467v-.766c0-.54.38-.756.851-.485L143.6,394.56a1.873,1.873,0,0,1,.849,1.465v.768C144.452,397.331,144.072,397.549,143.6,397.278Z" transform="translate(-57.268 -323.916)" fill="#fff"/>
                <g id="Grupo_901989" data-name="Grupo 901989" transform="translate(4.624 7.849)">
                  <path id="Trazado_630586" data-name="Trazado 630586" d="M74.779,343.785s-4.1-1.456-3.447,7.136a1.85,1.85,0,0,0,.83,1.341l4.054,2.341Z" transform="translate(-69.917 -343.691)" fill="#636363"/>
                  <path id="Trazado_630587" data-name="Trazado 630587" d="M75.552,344.713s4.1,3.275,3.447,11.116c-.039.467-.4.632-.828.384l-4.054-2.339Z" transform="translate(-67.72 -342.905)" fill="#636363"/>
                  <path id="Trazado_630588" data-name="Trazado 630588" d="M79.759,352.141c0,3.017-1.769,4.441-3.953,3.182s-3.953-4.73-3.953-7.747,1.77-4.441,3.953-3.182S79.759,349.124,79.759,352.141Z" transform="translate(-69.462 -343.503)" fill="#fad3aa"/>
                  <path id="Trazado_630589" data-name="Trazado 630589" d="M79.508,350.4l-.566-.326-.338-1.053v.856l-.777-.448-.288-.876-.039.687-.931-.538-.487-.977v.7l-1.037-.6-.175-1.577-.161,1.384-.058-.034-.173-.543-.12.373-.832-.481-.157-.547-.223.327-.055-.032v-1.409l-.439,1.156-.7-.405a2.276,2.276,0,0,1,.964-2.113,2.335,2.335,0,0,1,2.33.237l.97.561A7.247,7.247,0,0,1,79.508,350.4Z" transform="translate(-69.387 -343.676)" fill="#636363"/>
                  <path id="Trazado_630590" data-name="Trazado 630590" d="M75.869,354.235,73.35,352.78v-3.952l2.519,1.455Z" transform="translate(-68.31 -339.738)" fill="#fad3aa"/>
                  <path id="Trazado_630591" data-name="Trazado 630591" d="M83.3,361.51,70.5,354.124h0c0-3.36,2.044-4.907,4.565-3.451l3.663,2.115c2.522,1.456,4.565,5.362,4.565,8.722Z" transform="translate(-70.502 -338.74)" fill="#fff642"/>
                  <path id="Trazado_630592" data-name="Trazado 630592" d="M73.35,350.59l1.26,3.472,1.26-2.017Z" transform="translate(-68.31 -338.383)" fill="#fad3aa"/>
                  <path id="Trazado_630593" data-name="Trazado 630593" d="M76.309,352.045l-1.26,2.017-1.26-3.471-1.01,1.352,2.27,5.461,2.27-2.84Z" transform="translate(-68.75 -338.383)" fill="#ff7d41"/>
                </g>
              </g>
              <g id="Grupo_901992" data-name="Grupo 901992" transform="translate(17.166 73.856)">
                <g id="Grupo_901991" data-name="Grupo 901991">
                  <path id="Trazado_630594" data-name="Trazado 630594" d="M72.795,376.6l-1.674-2.888c-.377-.648-.377-1.347,0-1.561l12.47-7.08c.377-.214.986.138,1.361.786l1.676,2.888c.375.648.375,1.347,0,1.561l-12.471,7.08C73.78,377.6,73.17,377.244,72.795,376.6Z" transform="translate(-66.948 -364.425)" fill="#506aa6"/>
                  <path id="Trazado_630595" data-name="Trazado 630595" d="M77.516,376.677l-1.674.954c-.377.214-.986-.136-1.361-.784l-5.56-9.591c-.375-.648-.375-1.347,0-1.561l1.674-.955c.377-.214.986.138,1.361.786l5.56,9.591C77.893,375.764,77.893,376.463,77.516,376.677Z" transform="translate(-68.64 -364.678)" fill="#506aa6"/>
                </g>
              </g>
              <g id="Grupo_901994" data-name="Grupo 901994" transform="translate(40.764 87.651)">
                <g id="Grupo_901993" data-name="Grupo 901993">
                  <path id="Trazado_630596" data-name="Trazado 630596" d="M86.13,384.393l-1.674-2.89c-.375-.648-.375-1.346,0-1.561l12.47-7.08c.377-.214.986.138,1.361.786l1.676,2.89c.375.648.375,1.347,0,1.561l-12.471,7.08C87.116,385.393,86.507,385.041,86.13,384.393Z" transform="translate(-80.284 -372.222)" fill="#506aa6"/>
                  <path id="Trazado_630597" data-name="Trazado 630597" d="M90.854,384.472l-1.676.956c-.375.214-.984-.138-1.361-.786l-5.56-9.591c-.375-.648-.375-1.347,0-1.561l1.676-.954c.375-.214.984.136,1.359.784l5.562,9.591C91.229,383.559,91.229,384.257,90.854,384.472Z" transform="translate(-81.976 -372.473)" fill="#506aa6"/>
                </g>
              </g>
              <g id="Grupo_901996" data-name="Grupo 901996" transform="translate(63.877 101.127)">
                <g id="Grupo_901995" data-name="Grupo 901995">
                  <path id="Trazado_630598" data-name="Trazado 630598" d="M99.192,392.009l-1.674-2.89c-.375-.648-.375-1.346,0-1.561l12.47-7.08c.377-.212.986.138,1.361.786l1.676,2.89c.375.648.375,1.347,0,1.561l-12.471,7.08C100.178,393.009,99.569,392.657,99.192,392.009Z" transform="translate(-93.346 -379.837)" fill="#506aa6"/>
                  <path id="Trazado_630599" data-name="Trazado 630599" d="M103.916,392.088l-1.676.956c-.375.214-.984-.138-1.361-.786l-5.56-9.589c-.375-.649-.375-1.348,0-1.562L97,380.152c.375-.214.984.136,1.359.786l5.562,9.589C104.291,391.174,104.291,391.874,103.916,392.088Z" transform="translate(-95.038 -380.09)" fill="#506aa6"/>
                </g>
              </g>
              <g id="Grupo_901998" data-name="Grupo 901998" transform="translate(86.123 113.968)">
                <g id="Grupo_901997" data-name="Grupo 901997">
                  <path id="Trazado_630600" data-name="Trazado 630600" d="M111.764,399.266l-1.674-2.888c-.375-.649-.375-1.347,0-1.561l12.471-7.08c.375-.214.984.136,1.359.786l1.676,2.888c.375.648.375,1.347,0,1.561l-12.471,7.08C112.75,400.265,112.141,399.913,111.764,399.266Z" transform="translate(-105.918 -387.094)" fill="#506aa6"/>
                  <path id="Trazado_630601" data-name="Trazado 630601" d="M116.488,399.346l-1.676.954c-.375.214-.984-.136-1.361-.786l-5.56-9.589c-.375-.648-.375-1.347,0-1.561l1.676-.956c.375-.214.984.138,1.359.786l5.562,9.589C116.863,398.433,116.863,399.13,116.488,399.346Z" transform="translate(-107.61 -387.347)" fill="#506aa6"/>
                </g>
              </g>
              <g id="Grupo_902000" data-name="Grupo 902000" transform="translate(5.652 9.133)">
                <g id="Grupo_901999" data-name="Grupo 901999">
                  <path id="Trazado_630602" data-name="Trazado 630602" d="M172.277,392.819v8.463L62.133,337.694v-8.253a1.359,1.359,0,0,1,2.046-1.156L170.44,389.643A3.626,3.626,0,0,1,172.277,392.819Z" transform="translate(-62.133 -328.1)" fill="#ff7d41"/>
                  <path id="Trazado_630603" data-name="Trazado 630603" d="M68.555,335.053c0,1.363-.963,1.913-2.152,1.226a4.745,4.745,0,0,1-2.152-3.711c0-1.364.964-1.913,2.152-1.226A4.735,4.735,0,0,1,68.555,335.053Z" transform="translate(-60.502 -325.833)" fill="#fff"/>
                  <path id="Trazado_630604" data-name="Trazado 630604" d="M71.448,336.752c0,1.364-.963,1.913-2.152,1.226a4.738,4.738,0,0,1-2.15-3.711c0-1.362.963-1.911,2.15-1.226A4.74,4.74,0,0,1,71.448,336.752Z" transform="translate(-58.276 -324.525)" fill="#fff"/>
                  <path id="Trazado_630605" data-name="Trazado 630605" d="M74.459,338.487c0,1.363-.963,1.913-2.152,1.226A4.741,4.741,0,0,1,70.157,336c0-1.363.963-1.913,2.15-1.226A4.737,4.737,0,0,1,74.459,338.487Z" transform="translate(-55.959 -323.19)" fill="#fff"/>
                  <path id="Trazado_630606" data-name="Trazado 630606" d="M77.571,340.277c0,1.364-.963,1.913-2.152,1.228a4.745,4.745,0,0,1-2.152-3.711c0-1.364.964-1.913,2.152-1.228A4.74,4.74,0,0,1,77.571,340.277Z" transform="translate(-53.565 -321.813)" fill="#fff"/>
                </g>
              </g>
              <path id="Trazado_630607" data-name="Trazado 630607" d="M148.383,361.6,72.937,389.893l-8.959-5.176a3.658,3.658,0,0,1-1.839-3.174V371.5l62.672-23.506Z" transform="translate(-56.476 -303.663)" fill="#668c6d" style="mix-blend-mode: screen;isolation: isolate"/>
              <path id="Trazado_630608" data-name="Trazado 630608" d="M159.024,366.656v16.32L102.941,404,79.37,390.4l75.458-28.292,2.359,1.359A3.677,3.677,0,0,1,159.024,366.656Z" transform="translate(-43.218 -292.797)" fill="#668c6d" style="mix-blend-mode: screen;isolation: isolate"/>
            </g>
          </g>
        </g>
      </g>
      <g id="Grupo_902083" data-name="Grupo 902083" transform="translate(44.372 465.605)">
        <path id="Trazado_630609" data-name="Trazado 630609" d="M136.161,439.6l-60.2-34.756a5.122,5.122,0,0,0-2.447-.572l-9.332-.021v2.058H68L50.012,416.7c-1.731,1-1.92,2.513-.421,3.376l56.219,32.458h-.987v2.845h6.873a6.974,6.974,0,0,0,1.246,0h.1v-.009a6.566,6.566,0,0,0,2.592-.78l20.1-11.608C137.473,441.981,137.66,440.468,136.161,439.6Z" transform="translate(-41.134 -402.317)" fill="#d9f5ff"/>
        <g id="Grupo_902082" data-name="Grupo 902082">
          <path id="Trazado_630610" data-name="Trazado 630610" d="M132.965,439.188H131.8v.317L71.757,404.839a6.5,6.5,0,0,0-5.848.244l-20,11.544H44.372l0,1.987a1.743,1.743,0,0,0,1.01,1.453l60.2,34.755a6.5,6.5,0,0,0,5.848-.242l20.1-11.608a2.344,2.344,0,0,0,1.428-1.982h0Z" transform="translate(-44.371 -402.317)" fill="#999"/>
          <path id="Trazado_630611" data-name="Trazado 630611" d="M105.581,453.725l-60.2-34.755c-1.5-.865-1.311-2.376.419-3.376l20.1-11.608a6.5,6.5,0,0,1,5.848-.242l60.2,34.755c1.5.865,1.311,2.378-.419,3.376l-20.1,11.608A6.5,6.5,0,0,1,105.581,453.725Z" transform="translate(-44.372 -403.16)" fill="#e6e6e6"/>
          <g id="Grupo_902081" data-name="Grupo 902081" transform="translate(1.853 1.047)">
            <g id="Grupo_902018" data-name="Grupo 902018" transform="translate(21.699)">
              <g id="Grupo_902005" data-name="Grupo 902005">
                <path id="Trazado_630612" data-name="Trazado 630612" d="M62.359,405.65v.071l-2.58-1.488a1.73,1.73,0,0,0-1.561.064l-.133.078v-.041h-.4l.005.267a.456.456,0,0,0,.264.391l2.741,1.582a1.736,1.736,0,0,0,1.561-.064l.154-.09a.628.628,0,0,0,.377-.515l.005-.255Z" transform="translate(-57.681 -403.502)" fill="#999"/>
                <path id="Trazado_630613" data-name="Trazado 630613" d="M60.692,406.543l-2.741-1.58c-.4-.232-.349-.635.113-.9l.154-.088a1.736,1.736,0,0,1,1.561-.066l2.741,1.582c.4.232.349.635-.113.9l-.154.088A1.73,1.73,0,0,1,60.692,406.543Z" transform="translate(-57.682 -403.751)" fill="#fff"/>
              </g>
              <g id="Grupo_902006" data-name="Grupo 902006" transform="translate(4.769 2.772)">
                <path id="Trazado_630614" data-name="Trazado 630614" d="M65.054,407.215v.072l-2.58-1.49a1.732,1.732,0,0,0-1.559.065l-.134.076V405.9h-.4l.005.269a.455.455,0,0,0,.265.391l2.739,1.582a1.736,1.736,0,0,0,1.561-.065l.154-.089a.633.633,0,0,0,.379-.515l0-.257Z" transform="translate(-60.377 -405.068)" fill="#999"/>
                <path id="Trazado_630615" data-name="Trazado 630615" d="M63.387,408.11l-2.739-1.582c-.4-.23-.35-.634.111-.9l.156-.09a1.732,1.732,0,0,1,1.559-.064l2.741,1.582c.4.23.349.633-.113.9l-.154.09A1.741,1.741,0,0,1,63.387,408.11Z" transform="translate(-60.377 -405.318)" fill="#fff"/>
              </g>
              <g id="Grupo_902007" data-name="Grupo 902007" transform="translate(9.602 5.544)">
                <path id="Trazado_630616" data-name="Trazado 630616" d="M67.787,408.782v.073l-2.58-1.49a1.736,1.736,0,0,0-1.561.064l-.134.078v-.041h-.4l.005.267a.458.458,0,0,0,.265.391l2.741,1.582a1.726,1.726,0,0,0,1.559-.064l.156-.09a.632.632,0,0,0,.377-.515l.005-.255Z" transform="translate(-63.108 -406.635)" fill="#999"/>
                <path id="Trazado_630617" data-name="Trazado 630617" d="M66.119,409.676l-2.741-1.582c-.4-.23-.35-.633.111-.9l.156-.09a1.736,1.736,0,0,1,1.561-.066l2.739,1.582c.4.232.35.635-.111.9l-.156.088A1.727,1.727,0,0,1,66.119,409.676Z" transform="translate(-63.108 -406.884)" fill="#fff"/>
              </g>
              <g id="Grupo_902008" data-name="Grupo 902008" transform="translate(14.404 8.316)">
                <path id="Trazado_630618" data-name="Trazado 630618" d="M70.5,410.348v.072l-2.58-1.49a1.736,1.736,0,0,0-1.561.065l-.133.076v-.041h-.4l0,.269a.464.464,0,0,0,.265.391l2.741,1.582a1.733,1.733,0,0,0,1.559-.066l.156-.088a.631.631,0,0,0,.377-.515l.005-.257Z" transform="translate(-65.822 -408.201)" fill="#999"/>
                <path id="Trazado_630619" data-name="Trazado 630619" d="M68.832,411.244l-2.741-1.582c-.4-.23-.349-.634.113-.9l.154-.09a1.735,1.735,0,0,1,1.561-.064l2.739,1.582c.4.23.35.633-.111.9l-.156.09A1.738,1.738,0,0,1,68.832,411.244Z" transform="translate(-65.822 -408.451)" fill="#fff"/>
              </g>
              <g id="Grupo_902009" data-name="Grupo 902009" transform="translate(19.204 11.062)">
                <path id="Trazado_630620" data-name="Trazado 630620" d="M73.212,411.9v.073l-2.58-1.49a1.736,1.736,0,0,0-1.561.065l-.133.076v-.041h-.4l0,.269a.459.459,0,0,0,.265.389l2.741,1.584a1.736,1.736,0,0,0,1.561-.066l.154-.09a.626.626,0,0,0,.377-.513l.005-.257Z" transform="translate(-68.534 -409.753)" fill="#999"/>
                <path id="Trazado_630621" data-name="Trazado 630621" d="M71.545,412.8,68.8,411.214c-.4-.232-.349-.635.113-.9l.154-.09a1.735,1.735,0,0,1,1.561-.064l2.741,1.582c.4.23.349.633-.113.9l-.154.089A1.736,1.736,0,0,1,71.545,412.8Z" transform="translate(-68.535 -410.003)" fill="#fff"/>
              </g>
              <g id="Grupo_902010" data-name="Grupo 902010" transform="translate(24.005 13.86)">
                <path id="Trazado_630622" data-name="Trazado 630622" d="M75.925,413.481v.073l-2.58-1.49a1.733,1.733,0,0,0-1.559.065l-.134.076v-.041h-.4l.005.269a.455.455,0,0,0,.265.391l2.739,1.582a1.736,1.736,0,0,0,1.561-.066l.156-.088a.628.628,0,0,0,.375-.515l.005-.257Z" transform="translate(-71.248 -411.334)" fill="#999"/>
                <path id="Trazado_630623" data-name="Trazado 630623" d="M74.258,414.377l-2.739-1.582c-.4-.23-.35-.634.111-.9l.156-.09a1.732,1.732,0,0,1,1.559-.064l2.741,1.582c.4.232.35.633-.111.9l-.156.09A1.736,1.736,0,0,1,74.258,414.377Z" transform="translate(-71.248 -411.584)" fill="#fff"/>
              </g>
              <g id="Grupo_902011" data-name="Grupo 902011" transform="translate(28.806 16.633)">
                <path id="Trazado_630624" data-name="Trazado 630624" d="M78.64,415.049v.073l-2.58-1.49a1.736,1.736,0,0,0-1.561.064l-.134.078v-.041h-.4l.005.267a.458.458,0,0,0,.265.391l2.741,1.584a1.738,1.738,0,0,0,1.559-.065l.156-.09a.632.632,0,0,0,.377-.513l.005-.257Z" transform="translate(-73.961 -412.901)" fill="#999"/>
                <path id="Trazado_630625" data-name="Trazado 630625" d="M76.972,415.945l-2.741-1.582c-.4-.232-.35-.635.111-.9l.156-.09a1.733,1.733,0,0,1,1.559-.065l2.741,1.582c.4.232.35.635-.111.9l-.156.088A1.733,1.733,0,0,1,76.972,415.945Z" transform="translate(-73.961 -413.151)" fill="#fff"/>
              </g>
              <g id="Grupo_902012" data-name="Grupo 902012" transform="translate(33.608 19.404)">
                <path id="Trazado_630626" data-name="Trazado 630626" d="M81.352,416.614v.073l-2.58-1.49a1.736,1.736,0,0,0-1.561.065l-.133.076V415.3h-.4l0,.269a.464.464,0,0,0,.265.391l2.741,1.582a1.732,1.732,0,0,0,1.559-.065l.156-.09a.626.626,0,0,0,.377-.513l.005-.257Z" transform="translate(-76.674 -414.468)" fill="#999"/>
                <path id="Trazado_630627" data-name="Trazado 630627" d="M79.685,417.509l-2.741-1.582c-.4-.23-.349-.634.113-.9l.154-.09a1.741,1.741,0,0,1,1.561-.064l2.739,1.582c.4.23.35.633-.111.9l-.156.09A1.732,1.732,0,0,1,79.685,417.509Z" transform="translate(-76.675 -414.717)" fill="#fff"/>
              </g>
              <g id="Grupo_902013" data-name="Grupo 902013" transform="translate(38.409 22.175)">
                <path id="Trazado_630628" data-name="Trazado 630628" d="M84.065,418.181v.071l-2.58-1.488a1.736,1.736,0,0,0-1.561.064l-.133.078v-.041h-.4l.005.267a.455.455,0,0,0,.265.391l2.739,1.582a1.736,1.736,0,0,0,1.561-.064l.154-.09a.628.628,0,0,0,.377-.515l.005-.255Z" transform="translate(-79.388 -416.033)" fill="#999"/>
                <path id="Trazado_630629" data-name="Trazado 630629" d="M82.4,419.077l-2.739-1.584c-.4-.23-.35-.633.111-.9l.154-.09a1.736,1.736,0,0,1,1.561-.065l2.741,1.582c.4.232.349.635-.113.9l-.154.09A1.736,1.736,0,0,1,82.4,419.077Z" transform="translate(-79.388 -416.283)" fill="#fff"/>
              </g>
              <g id="Grupo_902014" data-name="Grupo 902014" transform="translate(43.21 24.948)">
                <path id="Trazado_630630" data-name="Trazado 630630" d="M86.778,419.747v.073l-2.58-1.49a1.732,1.732,0,0,0-1.559.065l-.134.076v-.041h-.4l.005.269a.458.458,0,0,0,.265.391l2.739,1.58a1.73,1.73,0,0,0,1.561-.064l.154-.089A.627.627,0,0,0,87.2,420l.005-.257Z" transform="translate(-82.101 -417.601)" fill="#999"/>
                <path id="Trazado_630631" data-name="Trazado 630631" d="M85.111,420.642l-2.739-1.582c-.4-.23-.35-.633.111-.9l.156-.09a1.738,1.738,0,0,1,1.559-.064l2.741,1.582c.4.23.35.633-.113.9l-.154.09A1.741,1.741,0,0,1,85.111,420.642Z" transform="translate(-82.101 -417.85)" fill="#fff"/>
              </g>
              <g id="Grupo_902015" data-name="Grupo 902015" transform="translate(48.01 27.719)">
                <path id="Trazado_630632" data-name="Trazado 630632" d="M89.493,421.314v.072l-2.58-1.49a1.736,1.736,0,0,0-1.561.064l-.133.078V420h-.405l.005.267a.458.458,0,0,0,.265.391l2.741,1.582a1.732,1.732,0,0,0,1.559-.064l.156-.09a.632.632,0,0,0,.377-.515l.005-.255Z" transform="translate(-84.814 -419.167)" fill="#999"/>
                <path id="Trazado_630633" data-name="Trazado 630633" d="M87.825,422.21l-2.741-1.584c-.4-.23-.35-.633.111-.9l.156-.09a1.736,1.736,0,0,1,1.561-.065l2.739,1.582c.4.232.35.635-.111.9l-.156.09A1.733,1.733,0,0,1,87.825,422.21Z" transform="translate(-84.814 -419.416)" fill="#fff"/>
              </g>
              <g id="Grupo_902016" data-name="Grupo 902016" transform="translate(52.812 30.46)">
                <path id="Trazado_630634" data-name="Trazado 630634" d="M92.2,422.863v.073l-2.58-1.49a1.736,1.736,0,0,0-1.561.064l-.133.078v-.041h-.4l0,.267a.462.462,0,0,0,.265.391l2.741,1.582a1.732,1.732,0,0,0,1.559-.064l.156-.09a.628.628,0,0,0,.377-.513l.005-.257Z" transform="translate(-87.528 -420.715)" fill="#999"/>
                <path id="Trazado_630635" data-name="Trazado 630635" d="M90.538,423.759,87.8,422.177c-.4-.232-.349-.635.113-.9l.154-.09a1.736,1.736,0,0,1,1.561-.065l2.739,1.582c.4.232.35.635-.111.9l-.156.09A1.732,1.732,0,0,1,90.538,423.759Z" transform="translate(-87.528 -420.965)" fill="#fff"/>
              </g>
              <g id="Grupo_902017" data-name="Grupo 902017" transform="translate(57.613 33.263)">
                <path id="Trazado_630636" data-name="Trazado 630636" d="M94.918,424.447v.071l-2.58-1.488a1.736,1.736,0,0,0-1.561.064l-.133.078v-.041h-.4l.005.267a.455.455,0,0,0,.265.391l2.739,1.582a1.736,1.736,0,0,0,1.561-.064l.154-.09a.628.628,0,0,0,.377-.515l.005-.255Z" transform="translate(-90.241 -422.3)" fill="#999"/>
                <path id="Trazado_630637" data-name="Trazado 630637" d="M93.251,425.343l-2.739-1.582c-.4-.232-.35-.635.111-.9l.154-.09a1.73,1.73,0,0,1,1.561-.064l2.741,1.58c.4.232.349.635-.113.9l-.154.09A1.736,1.736,0,0,1,93.251,425.343Z" transform="translate(-90.241 -422.549)" fill="#fff"/>
              </g>
            </g>
            <g id="Grupo_902032" data-name="Grupo 902032" transform="translate(17.172 1.179)">
              <g id="Grupo_902019" data-name="Grupo 902019">
                <path id="Trazado_630638" data-name="Trazado 630638" d="M61.974,406.344v.223l-2.87-1.658a.962.962,0,0,0-.865.037L55.9,406.3v-.108h-.771v.3h0a.247.247,0,0,0,.147.241l3.385,1.954a.956.956,0,0,0,.865-.035l2.9-1.676a.325.325,0,0,0,.2-.3l.012-.255Z" transform="translate(-55.123 -404.105)" fill="#999"/>
                <path id="Trazado_630639" data-name="Trazado 630639" d="M58.658,408.67l-3.385-1.954c-.221-.129-.195-.354.062-.5l2.9-1.676a.956.956,0,0,1,.865-.035l3.385,1.953c.221.127.193.352-.064.5l-2.9,1.674A.962.962,0,0,1,58.658,408.67Z" transform="translate(-55.123 -404.418)" fill="#fff"/>
              </g>
              <g id="Grupo_902020" data-name="Grupo 902020" transform="translate(4.801 2.769)">
                <path id="Trazado_630640" data-name="Trazado 630640" d="M64.687,407.908v.225l-2.868-1.656a.959.959,0,0,0-.867.035l-2.343,1.352v-.108h-.771v.3h0a.246.246,0,0,0,.147.241l3.385,1.953a.96.96,0,0,0,.867-.035l2.9-1.676a.323.323,0,0,0,.2-.3l.012-.255Z" transform="translate(-57.837 -405.67)" fill="#999"/>
                <path id="Trazado_630641" data-name="Trazado 630641" d="M61.371,410.235l-3.385-1.953c-.221-.129-.193-.352.064-.5l2.9-1.676a.959.959,0,0,1,.867-.035l3.383,1.953c.221.127.195.352-.062.5l-2.9,1.676A.965.965,0,0,1,61.371,410.235Z" transform="translate(-57.837 -405.983)" fill="#fff"/>
              </g>
              <g id="Grupo_902021" data-name="Grupo 902021" transform="translate(9.602 5.544)">
                <path id="Trazado_630642" data-name="Trazado 630642" d="M67.4,409.477v.223l-2.87-1.658a.965.965,0,0,0-.867.037l-2.343,1.352v-.108H60.55v.3h0a.252.252,0,0,0,.149.241l3.383,1.955a.965.965,0,0,0,.867-.037l2.9-1.676a.328.328,0,0,0,.2-.3l.011-.255Z" transform="translate(-60.55 -407.238)" fill="#999"/>
                <path id="Trazado_630643" data-name="Trazado 630643" d="M64.084,411.8,60.7,409.85c-.223-.129-.195-.352.062-.5l2.9-1.676a.96.96,0,0,1,.867-.035l3.383,1.954c.223.127.195.352-.062.5l-2.9,1.674A.966.966,0,0,1,64.084,411.8Z" transform="translate(-60.55 -407.551)" fill="#fff"/>
              </g>
              <g id="Grupo_902022" data-name="Grupo 902022" transform="translate(14.403 8.352)">
                <path id="Trazado_630644" data-name="Trazado 630644" d="M70.114,411.063v.223l-2.87-1.656a.96.96,0,0,0-.867.035l-2.343,1.354v-.11h-.772v.3h0a.253.253,0,0,0,.149.241L66.8,413.4a.971.971,0,0,0,.867-.035l2.9-1.676a.33.33,0,0,0,.2-.3l.011-.253Z" transform="translate(-63.263 -408.826)" fill="#999"/>
                <path id="Trazado_630645" data-name="Trazado 630645" d="M66.8,413.389l-3.383-1.953c-.221-.127-.195-.352.062-.5l2.9-1.676a.966.966,0,0,1,.867-.037l3.383,1.954c.223.129.195.352-.062.5l-2.9,1.676A.965.965,0,0,1,66.8,413.389Z" transform="translate(-63.263 -409.138)" fill="#fff"/>
              </g>
              <g id="Grupo_902023" data-name="Grupo 902023" transform="translate(19.205 11.116)">
                <path id="Trazado_630646" data-name="Trazado 630646" d="M72.827,412.625v.223l-2.87-1.656a.962.962,0,0,0-.865.037l-2.343,1.352v-.11h-.772v.3h0a.247.247,0,0,0,.147.241l3.385,1.953a.956.956,0,0,0,.865-.035l2.9-1.676a.325.325,0,0,0,.2-.3l.011-.255Z" transform="translate(-65.977 -410.387)" fill="#999"/>
                <path id="Trazado_630647" data-name="Trazado 630647" d="M69.511,414.953,66.126,413c-.221-.127-.193-.352.064-.5l2.9-1.676a.962.962,0,0,1,.865-.037l3.385,1.955c.221.127.195.352-.062.5l-2.9,1.676A.962.962,0,0,1,69.511,414.953Z" transform="translate(-65.977 -410.699)" fill="#fff"/>
              </g>
              <g id="Grupo_902024" data-name="Grupo 902024" transform="translate(24.006 13.857)">
                <path id="Trazado_630648" data-name="Trazado 630648" d="M75.54,414.175v.223l-2.868-1.658a.965.965,0,0,0-.867.037l-2.343,1.352v-.108H68.69v.3h0a.247.247,0,0,0,.147.241l3.385,1.954a.959.959,0,0,0,.867-.035l2.9-1.676a.325.325,0,0,0,.2-.3l.012-.255Z" transform="translate(-68.69 -411.937)" fill="#999"/>
                <path id="Trazado_630649" data-name="Trazado 630649" d="M72.224,416.5l-3.385-1.954c-.221-.129-.193-.352.064-.5l2.9-1.676a.965.965,0,0,1,.867-.035l3.383,1.953c.221.127.195.352-.062.5l-2.9,1.676A.966.966,0,0,1,72.224,416.5Z" transform="translate(-68.69 -412.249)" fill="#fff"/>
              </g>
              <g id="Grupo_902025" data-name="Grupo 902025" transform="translate(28.807 16.639)">
                <path id="Trazado_630650" data-name="Trazado 630650" d="M78.254,415.747v.223l-2.87-1.656a.959.959,0,0,0-.867.035L72.174,415.7v-.108H71.4v.3h0a.25.25,0,0,0,.149.241l3.383,1.955a.97.97,0,0,0,.867-.035l2.9-1.676a.331.331,0,0,0,.2-.3l.011-.255Z" transform="translate(-71.403 -413.509)" fill="#999"/>
                <path id="Trazado_630651" data-name="Trazado 630651" d="M74.937,418.073l-3.383-1.954c-.223-.127-.195-.352.062-.5l2.9-1.676a.965.965,0,0,1,.867-.035l3.383,1.954c.223.129.195.352-.062.5l-2.9,1.676A.971.971,0,0,1,74.937,418.073Z" transform="translate(-71.403 -413.821)" fill="#fff"/>
              </g>
              <g id="Grupo_902026" data-name="Grupo 902026" transform="translate(33.607 19.404)">
                <path id="Trazado_630652" data-name="Trazado 630652" d="M80.967,417.309v.223l-2.87-1.656a.961.961,0,0,0-.865.035l-2.345,1.352v-.108h-.771v.3h0a.253.253,0,0,0,.149.241l3.383,1.954a.971.971,0,0,0,.867-.035l2.9-1.676a.331.331,0,0,0,.2-.3l.011-.255Z" transform="translate(-74.116 -415.071)" fill="#999"/>
                <path id="Trazado_630653" data-name="Trazado 630653" d="M77.649,419.635l-3.383-1.954c-.221-.127-.195-.352.062-.5l2.9-1.677a.967.967,0,0,1,.865-.035l3.385,1.955c.221.127.193.35-.064.5l-2.9,1.676A.959.959,0,0,1,77.649,419.635Z" transform="translate(-74.116 -415.383)" fill="#fff"/>
              </g>
              <g id="Grupo_902027" data-name="Grupo 902027" transform="translate(38.408 22.175)">
                <path id="Trazado_630654" data-name="Trazado 630654" d="M83.68,418.876v.223l-2.87-1.658a.962.962,0,0,0-.865.037L77.6,418.83v-.108h-.773v.3h0a.247.247,0,0,0,.147.241l3.385,1.953a.956.956,0,0,0,.865-.035l2.9-1.676a.325.325,0,0,0,.2-.3l.011-.255Z" transform="translate(-76.829 -416.637)" fill="#999"/>
                <path id="Trazado_630655" data-name="Trazado 630655" d="M80.364,421.2l-3.385-1.953c-.221-.129-.195-.352.062-.5l2.9-1.676a.956.956,0,0,1,.865-.035l3.385,1.954c.221.127.195.352-.062.5l-2.9,1.676A.962.962,0,0,1,80.364,421.2Z" transform="translate(-76.829 -416.95)" fill="#fff"/>
              </g>
              <g id="Grupo_902028" data-name="Grupo 902028" transform="translate(43.21 24.942)">
                <path id="Trazado_630656" data-name="Trazado 630656" d="M86.393,420.439v.223l-2.868-1.656a.97.97,0,0,0-.867.035l-2.343,1.354v-.11h-.771v.3h0a.246.246,0,0,0,.149.241l3.383,1.953a.959.959,0,0,0,.867-.035l2.9-1.676a.325.325,0,0,0,.2-.3l.012-.255Z" transform="translate(-79.543 -418.201)" fill="#999"/>
                <path id="Trazado_630657" data-name="Trazado 630657" d="M83.077,422.765l-3.383-1.954c-.223-.127-.195-.352.062-.5l2.9-1.674a.965.965,0,0,1,.867-.037l3.383,1.953c.221.129.195.352-.062.5l-2.9,1.676A.959.959,0,0,1,83.077,422.765Z" transform="translate(-79.543 -418.513)" fill="#fff"/>
              </g>
              <g id="Grupo_902029" data-name="Grupo 902029" transform="translate(48.011 27.719)">
                <path id="Trazado_630658" data-name="Trazado 630658" d="M89.107,422.009v.223l-2.87-1.658a.965.965,0,0,0-.867.037l-2.343,1.352v-.108h-.771v.3h0a.252.252,0,0,0,.149.241l3.383,1.953a.959.959,0,0,0,.867-.035l2.9-1.676a.327.327,0,0,0,.2-.3l.011-.255Z" transform="translate(-82.256 -419.77)" fill="#999"/>
                <path id="Trazado_630659" data-name="Trazado 630659" d="M85.79,424.335l-3.383-1.953c-.223-.129-.195-.352.062-.5l2.9-1.676a.959.959,0,0,1,.867-.035l3.383,1.954c.223.127.195.352-.062.5l-2.9,1.674A.965.965,0,0,1,85.79,424.335Z" transform="translate(-82.256 -420.083)" fill="#fff"/>
              </g>
              <g id="Grupo_902030" data-name="Grupo 902030" transform="translate(52.812 30.492)">
                <path id="Trazado_630660" data-name="Trazado 630660" d="M91.82,423.575v.223l-2.87-1.656a.959.959,0,0,0-.867.035l-2.341,1.354v-.11h-.773v.3h0a.252.252,0,0,0,.149.241l3.385,1.953a.967.967,0,0,0,.865-.035l2.9-1.676a.33.33,0,0,0,.2-.3l.011-.255Z" transform="translate(-84.969 -421.338)" fill="#999"/>
                <path id="Trazado_630661" data-name="Trazado 630661" d="M88.5,425.9l-3.385-1.953c-.221-.127-.195-.352.062-.5l2.9-1.674a.966.966,0,0,1,.867-.037l3.383,1.953c.223.129.195.352-.062.5l-2.9,1.676A.956.956,0,0,1,88.5,425.9Z" transform="translate(-84.969 -421.65)" fill="#fff"/>
              </g>
              <g id="Grupo_902031" data-name="Grupo 902031" transform="translate(57.612 33.263)">
                <path id="Trazado_630662" data-name="Trazado 630662" d="M94.533,425.142v.223l-2.87-1.658a.962.962,0,0,0-.865.037L88.455,425.1v-.108h-.773v.3h0a.247.247,0,0,0,.147.241l3.385,1.954a.956.956,0,0,0,.865-.035l2.9-1.676a.325.325,0,0,0,.2-.3l.011-.255Z" transform="translate(-87.682 -422.903)" fill="#999"/>
                <path id="Trazado_630663" data-name="Trazado 630663" d="M91.217,427.468l-3.385-1.953c-.221-.129-.193-.352.064-.5l2.9-1.676a.956.956,0,0,1,.865-.035l3.385,1.953c.221.127.195.352-.062.5l-2.9,1.676A.967.967,0,0,1,91.217,427.468Z" transform="translate(-87.681 -423.216)" fill="#fff"/>
              </g>
            </g>
            <g id="Grupo_902044" data-name="Grupo 902044" transform="translate(12.935 3.603)">
              <g id="Grupo_902033" data-name="Grupo 902033">
                <path id="Trazado_630664" data-name="Trazado 630664" d="M64.381,410.507v.225l-7.671-4.45a.959.959,0,0,0-.867.035L53.5,407.668v-.108h-.771v.3h0a.254.254,0,0,0,.149.242l8.186,4.746a.956.956,0,0,0,.865-.035l2.9-1.676a.325.325,0,0,0,.2-.3l.011-.255Z" transform="translate(-52.729 -405.475)" fill="#999"/>
                <path id="Trazado_630665" data-name="Trazado 630665" d="M61.065,412.834l-8.186-4.747c-.221-.129-.195-.352.062-.5l2.9-1.676a.96.96,0,0,1,.867-.035l8.186,4.748c.221.127.195.352-.062.5l-2.9,1.676A.961.961,0,0,1,61.065,412.834Z" transform="translate(-52.729 -405.788)" fill="#fff"/>
              </g>
              <g id="Grupo_902034" data-name="Grupo 902034" transform="translate(9.603 5.566)">
                <path id="Trazado_630666" data-name="Trazado 630666" d="M65.006,410.859v.223l-2.87-1.656a.956.956,0,0,0-.865.035l-2.343,1.354v-.11h-.771v.3h0a.249.249,0,0,0,.147.241L61.69,413.2a.966.966,0,0,0,.867-.037l2.9-1.676a.324.324,0,0,0,.2-.3l.012-.255Z" transform="translate(-58.156 -408.622)" fill="#999"/>
                <path id="Trazado_630667" data-name="Trazado 630667" d="M61.69,413.185,58.3,411.231c-.221-.129-.193-.352.064-.5l2.9-1.676a.967.967,0,0,1,.865-.035l3.385,1.953c.221.129.195.352-.062.5l-2.9,1.676A.96.96,0,0,1,61.69,413.185Z" transform="translate(-58.156 -408.933)" fill="#fff"/>
              </g>
              <g id="Grupo_902035" data-name="Grupo 902035" transform="translate(14.404 8.338)">
                <path id="Trazado_630668" data-name="Trazado 630668" d="M67.72,412.425v.225l-2.87-1.658a.965.965,0,0,0-.867.037l-2.343,1.352v-.11h-.771v.3h0a.246.246,0,0,0,.149.241l3.383,1.954a.959.959,0,0,0,.867-.035l2.9-1.676a.323.323,0,0,0,.2-.3l.012-.255Z" transform="translate(-60.869 -410.187)" fill="#999"/>
                <path id="Trazado_630669" data-name="Trazado 630669" d="M64.4,414.752,61.019,412.8c-.223-.129-.195-.352.062-.5l2.9-1.676a.959.959,0,0,1,.867-.035l3.383,1.953c.223.127.195.352-.062.5l-2.9,1.676A.965.965,0,0,1,64.4,414.752Z" transform="translate(-60.869 -410.5)" fill="#fff"/>
              </g>
              <g id="Grupo_902036" data-name="Grupo 902036" transform="translate(19.204 11.11)">
                <path id="Trazado_630670" data-name="Trazado 630670" d="M70.433,413.992v.223l-2.87-1.656a.959.959,0,0,0-.867.035l-2.343,1.354v-.11h-.771v.3h0a.253.253,0,0,0,.149.241l3.383,1.954a.965.965,0,0,0,.867-.037l2.9-1.676a.326.326,0,0,0,.2-.3l.011-.255Z" transform="translate(-63.582 -411.755)" fill="#999"/>
                <path id="Trazado_630671" data-name="Trazado 630671" d="M67.115,416.318l-3.383-1.954c-.221-.127-.195-.352.062-.5l2.9-1.676a.971.971,0,0,1,.867-.035l3.383,1.954c.223.127.195.352-.062.5l-2.9,1.676A.959.959,0,0,1,67.115,416.318Z" transform="translate(-63.582 -412.066)" fill="#fff"/>
              </g>
              <g id="Grupo_902037" data-name="Grupo 902037" transform="translate(24.005 13.874)">
                <path id="Trazado_630672" data-name="Trazado 630672" d="M73.146,415.554v.223l-2.87-1.656a.956.956,0,0,0-.865.035l-2.343,1.354v-.11H66.3v.3h0a.248.248,0,0,0,.147.241l3.385,1.954a.962.962,0,0,0,.865-.037l2.9-1.676a.327.327,0,0,0,.2-.3l.011-.255Z" transform="translate(-66.295 -413.317)" fill="#999"/>
                <path id="Trazado_630673" data-name="Trazado 630673" d="M69.83,417.88l-3.385-1.954c-.221-.129-.195-.352.062-.5l2.9-1.676a.967.967,0,0,1,.865-.035l3.383,1.954c.223.127.195.352-.06.5l-2.9,1.676A.956.956,0,0,1,69.83,417.88Z" transform="translate(-66.295 -413.628)" fill="#fff"/>
              </g>
              <g id="Grupo_902038" data-name="Grupo 902038" transform="translate(28.807 16.654)">
                <path id="Trazado_630674" data-name="Trazado 630674" d="M75.859,417.125v.223l-2.868-1.656a.959.959,0,0,0-.867.035l-2.343,1.354v-.11h-.771v.3h0a.248.248,0,0,0,.149.241l3.383,1.954a.966.966,0,0,0,.867-.037l2.9-1.676a.321.321,0,0,0,.2-.3l.012-.255Z" transform="translate(-69.009 -414.888)" fill="#999"/>
                <path id="Trazado_630675" data-name="Trazado 630675" d="M72.543,419.451,69.159,417.5c-.223-.127-.195-.352.062-.5l2.9-1.676a.97.97,0,0,1,.867-.035l3.383,1.954c.221.129.195.352-.062.5l-2.9,1.676A.96.96,0,0,1,72.543,419.451Z" transform="translate(-69.009 -415.199)" fill="#fff"/>
              </g>
              <g id="Grupo_902039" data-name="Grupo 902039" transform="translate(33.608 19.425)">
                <path id="Trazado_630676" data-name="Trazado 630676" d="M78.573,418.691v.225l-2.87-1.658a.965.965,0,0,0-.867.037l-2.343,1.352v-.108h-.771v.3h0a.246.246,0,0,0,.149.241l3.383,1.954a.959.959,0,0,0,.867-.035l2.9-1.676a.322.322,0,0,0,.2-.3l.012-.255Z" transform="translate(-71.722 -416.453)" fill="#999"/>
                <path id="Trazado_630677" data-name="Trazado 630677" d="M75.256,421.018l-3.383-1.954c-.223-.129-.195-.354.062-.5l2.9-1.676a.96.96,0,0,1,.867-.035l3.383,1.954c.223.127.195.352-.062.5l-2.9,1.676A.966.966,0,0,1,75.256,421.018Z" transform="translate(-71.722 -416.766)" fill="#fff"/>
              </g>
              <g id="Grupo_902040" data-name="Grupo 902040" transform="translate(38.409 22.198)">
                <path id="Trazado_630678" data-name="Trazado 630678" d="M81.286,420.258v.223l-2.87-1.656a.959.959,0,0,0-.867.035l-2.343,1.354v-.11h-.772v.3h0a.253.253,0,0,0,.149.241l3.383,1.954a.965.965,0,0,0,.867-.037l2.9-1.676a.328.328,0,0,0,.2-.3l.011-.255Z" transform="translate(-74.435 -418.021)" fill="#999"/>
                <path id="Trazado_630679" data-name="Trazado 630679" d="M77.969,422.584l-3.383-1.953c-.223-.129-.195-.352.062-.5l2.9-1.676a.97.97,0,0,1,.867-.035l3.383,1.954c.223.129.195.352-.062.5l-2.9,1.676A.959.959,0,0,1,77.969,422.584Z" transform="translate(-74.435 -418.332)" fill="#fff"/>
              </g>
              <g id="Grupo_902041" data-name="Grupo 902041" transform="translate(43.209 24.969)">
                <path id="Trazado_630680" data-name="Trazado 630680" d="M84,421.825v.223l-2.87-1.658a.967.967,0,0,0-.865.035l-2.343,1.354v-.11h-.773v.3h0a.247.247,0,0,0,.147.241l3.383,1.953a.959.959,0,0,0,.867-.035l2.9-1.676a.328.328,0,0,0,.2-.3l.011-.255Z" transform="translate(-77.148 -419.586)" fill="#999"/>
                <path id="Trazado_630681" data-name="Trazado 630681" d="M80.681,424.151,77.3,422.2c-.221-.127-.193-.352.062-.5l2.9-1.676a.956.956,0,0,1,.865-.035l3.383,1.954c.223.127.195.352-.06.5l-2.9,1.676A.966.966,0,0,1,80.681,424.151Z" transform="translate(-77.147 -419.899)" fill="#fff"/>
              </g>
              <g id="Grupo_902042" data-name="Grupo 902042" transform="translate(48.012 27.736)">
                <path id="Trazado_630682" data-name="Trazado 630682" d="M86.712,423.388v.223l-2.868-1.658a.965.965,0,0,0-.867.037l-2.343,1.352v-.108h-.771v.3h0a.245.245,0,0,0,.149.241l3.383,1.955a.965.965,0,0,0,.867-.037l2.9-1.676a.322.322,0,0,0,.2-.3l.012-.255Z" transform="translate(-79.862 -421.151)" fill="#999"/>
                <path id="Trazado_630683" data-name="Trazado 630683" d="M83.4,425.714l-3.383-1.953c-.223-.129-.195-.352.062-.5l2.9-1.676a.97.97,0,0,1,.867-.035l3.383,1.954c.221.127.195.352-.062.5l-2.9,1.676A.96.96,0,0,1,83.4,425.714Z" transform="translate(-79.862 -421.462)" fill="#fff"/>
              </g>
              <g id="Grupo_902043" data-name="Grupo 902043" transform="translate(52.786 30.476)">
                <path id="Trazado_630684" data-name="Trazado 630684" d="M94.212,427.73v.223l-7.671-4.45a.971.971,0,0,0-.867.035l-2.343,1.354v-.11H82.56v.3h0a.246.246,0,0,0,.149.241l8.184,4.747a.97.97,0,0,0,.867-.035l2.9-1.676a.324.324,0,0,0,.2-.3l.012-.257Z" transform="translate(-82.56 -422.698)" fill="#999"/>
                <path id="Trazado_630685" data-name="Trazado 630685" d="M90.894,430.056l-8.184-4.748c-.223-.127-.195-.352.062-.5l2.9-1.676a.965.965,0,0,1,.867-.037l8.184,4.748c.223.129.195.352-.062.5l-2.9,1.676A.959.959,0,0,1,90.894,430.056Z" transform="translate(-82.56 -423.01)" fill="#fff"/>
              </g>
            </g>
            <g id="Grupo_902055" data-name="Grupo 902055" transform="translate(8.663 6.065)">
              <g id="Grupo_902045" data-name="Grupo 902045">
                <path id="Trazado_630686" data-name="Trazado 630686" d="M64.674,413.464v.223L54.3,407.67a.97.97,0,0,0-.867.035l-2.343,1.354v-.11h-.771v.3h0a.246.246,0,0,0,.149.241L61.358,415.8a.967.967,0,0,0,.865-.035l2.9-1.676a.327.327,0,0,0,.2-.3l.011-.255Z" transform="translate(-50.315 -406.866)" fill="#999"/>
                <path id="Trazado_630687" data-name="Trazado 630687" d="M61.358,415.79l-10.893-6.312c-.223-.129-.195-.354.062-.5l2.9-1.676a.965.965,0,0,1,.867-.037l10.893,6.314c.221.129.193.352-.064.5l-2.9,1.676A.956.956,0,0,1,61.358,415.79Z" transform="translate(-50.315 -407.178)" fill="#fff"/>
              </g>
              <g id="Grupo_902046" data-name="Grupo 902046" transform="translate(12.316 7.138)">
                <path id="Trazado_630688" data-name="Trazado 630688" d="M64.125,413.138v.223L61.256,411.7a.966.966,0,0,0-.867.037l-2.343,1.352v-.11h-.771v.3h0a.246.246,0,0,0,.149.241l3.383,1.954a.965.965,0,0,0,.867-.035l2.9-1.676a.323.323,0,0,0,.2-.3l.012-.253Z" transform="translate(-57.275 -410.9)" fill="#999"/>
                <path id="Trazado_630689" data-name="Trazado 630689" d="M60.809,415.464l-3.383-1.954c-.223-.127-.195-.352.062-.5l2.9-1.676a.959.959,0,0,1,.867-.035l3.383,1.952c.223.129.195.354-.062.5l-2.9,1.676A.959.959,0,0,1,60.809,415.464Z" transform="translate(-57.275 -411.213)" fill="#fff"/>
              </g>
              <g id="Grupo_902047" data-name="Grupo 902047" transform="translate(17.139 9.909)">
                <path id="Trazado_630690" data-name="Trazado 630690" d="M66.851,414.705v.223l-2.87-1.656a.956.956,0,0,0-.865.035l-2.343,1.352v-.108H60v.3h0a.248.248,0,0,0,.147.241l3.385,1.952a.956.956,0,0,0,.865-.035l2.9-1.676a.325.325,0,0,0,.2-.3l.012-.255Z" transform="translate(-60.001 -412.466)" fill="#999"/>
                <path id="Trazado_630691" data-name="Trazado 630691" d="M63.535,417.031l-3.385-1.953c-.221-.129-.193-.352.064-.5l2.9-1.676a.956.956,0,0,1,.865-.035l3.385,1.954c.221.127.195.352-.062.5L64.4,417A.967.967,0,0,1,63.535,417.031Z" transform="translate(-60.001 -412.779)" fill="#fff"/>
              </g>
              <g id="Grupo_902048" data-name="Grupo 902048" transform="translate(21.918 12.682)">
                <path id="Trazado_630692" data-name="Trazado 630692" d="M69.552,416.271v.223l-2.87-1.656a.971.971,0,0,0-.867.035l-2.341,1.354v-.11H62.7v.3h0a.247.247,0,0,0,.147.241l3.385,1.953a.956.956,0,0,0,.865-.035L70,416.9a.329.329,0,0,0,.2-.3l.011-.255Z" transform="translate(-62.702 -414.033)" fill="#999"/>
                <path id="Trazado_630693" data-name="Trazado 630693" d="M66.236,418.6l-3.385-1.953c-.221-.128-.193-.352.062-.5l2.9-1.676a.96.96,0,0,1,.867-.035l3.385,1.952c.221.129.193.354-.064.5l-2.9,1.676A.956.956,0,0,1,66.236,418.6Z" transform="translate(-62.702 -414.346)" fill="#fff"/>
              </g>
              <g id="Grupo_902049" data-name="Grupo 902049" transform="translate(26.719 15.454)">
                <path id="Trazado_630694" data-name="Trazado 630694" d="M72.265,417.838v.223L69.4,416.405a.96.96,0,0,0-.867.035l-2.343,1.352v-.108h-.771v.3h0a.245.245,0,0,0,.149.241l3.383,1.955a.965.965,0,0,0,.867-.037l2.9-1.676a.322.322,0,0,0,.2-.3l.012-.255Z" transform="translate(-65.415 -415.6)" fill="#999"/>
                <path id="Trazado_630695" data-name="Trazado 630695" d="M68.949,420.164l-3.383-1.953c-.223-.129-.195-.352.062-.5l2.9-1.676A.965.965,0,0,1,69.4,416l3.383,1.954c.223.127.195.352-.062.5l-2.9,1.676A.96.96,0,0,1,68.949,420.164Z" transform="translate(-65.415 -415.912)" fill="#fff"/>
              </g>
              <g id="Grupo_902050" data-name="Grupo 902050" transform="translate(31.52 18.226)">
                <path id="Trazado_630696" data-name="Trazado 630696" d="M74.978,419.4v.223l-2.868-1.656a.971.971,0,0,0-.867.035L68.9,419.359v-.11h-.772v.3h0a.249.249,0,0,0,.149.241l3.383,1.954a.96.96,0,0,0,.867-.035l2.9-1.676a.323.323,0,0,0,.2-.3l.012-.253Z" transform="translate(-68.128 -417.166)" fill="#999"/>
                <path id="Trazado_630697" data-name="Trazado 630697" d="M71.662,421.73l-3.383-1.954c-.223-.127-.195-.352.062-.5l2.9-1.676a.959.959,0,0,1,.867-.035l3.383,1.954c.223.127.195.352-.062.5l-2.9,1.676A.959.959,0,0,1,71.662,421.73Z" transform="translate(-68.128 -417.479)" fill="#fff"/>
              </g>
              <g id="Grupo_902051" data-name="Grupo 902051" transform="translate(36.321 20.998)">
                <path id="Trazado_630698" data-name="Trazado 630698" d="M77.692,420.971v.223l-2.87-1.658a.966.966,0,0,0-.867.037l-2.343,1.352v-.108h-.771v.3h0a.255.255,0,0,0,.149.242l3.383,1.952a.959.959,0,0,0,.867-.035l2.9-1.676a.327.327,0,0,0,.2-.3l.011-.255Z" transform="translate(-70.841 -418.734)" fill="#999"/>
                <path id="Trazado_630699" data-name="Trazado 630699" d="M74.374,423.3l-3.383-1.953c-.221-.129-.195-.352.062-.5l2.9-1.676a.971.971,0,0,1,.867-.035l3.383,1.954c.223.127.195.352-.062.5l-2.9,1.676A.965.965,0,0,1,74.374,423.3Z" transform="translate(-70.841 -419.045)" fill="#fff"/>
              </g>
              <g id="Grupo_902052" data-name="Grupo 902052" transform="translate(41.122 23.77)">
                <path id="Trazado_630700" data-name="Trazado 630700" d="M80.4,422.537v.225l-2.87-1.658a.967.967,0,0,0-.865.035l-2.345,1.354v-.11h-.77v.3h0a.247.247,0,0,0,.147.241l3.385,1.953a.956.956,0,0,0,.865-.035l2.9-1.676a.325.325,0,0,0,.2-.3l.011-.255Z" transform="translate(-73.554 -420.299)" fill="#999"/>
                <path id="Trazado_630701" data-name="Trazado 630701" d="M77.089,424.863,73.7,422.909c-.221-.127-.195-.352.062-.5l2.9-1.676a.961.961,0,0,1,.865-.037l3.385,1.953c.221.129.193.354-.064.5l-2.9,1.676A.955.955,0,0,1,77.089,424.863Z" transform="translate(-73.554 -420.611)" fill="#fff"/>
              </g>
              <g id="Grupo_902053" data-name="Grupo 902053" transform="translate(45.676 26.402)">
                <path id="Trazado_630702" data-name="Trazado 630702" d="M82.979,424.025v.223l-2.87-1.656a.959.959,0,0,0-.867.035L76.9,423.979v-.108h-.771v.3h0a.254.254,0,0,0,.149.242l3.383,1.954a.966.966,0,0,0,.867-.037l2.9-1.676a.322.322,0,0,0,.2-.3l.012-.255Z" transform="translate(-76.128 -421.787)" fill="#999"/>
                <path id="Trazado_630703" data-name="Trazado 630703" d="M79.662,426.351,76.278,424.4c-.223-.129-.195-.352.062-.5l2.9-1.676a.965.965,0,0,1,.867-.035l3.383,1.953c.221.129.195.352-.062.5l-2.9,1.676A.971.971,0,0,1,79.662,426.351Z" transform="translate(-76.128 -422.099)" fill="#fff"/>
              </g>
              <g id="Grupo_902054" data-name="Grupo 902054" transform="translate(50.105 28.931)">
                <path id="Trazado_630704" data-name="Trazado 630704" d="M92.99,429.814v.223l-10.378-6.016a.965.965,0,0,0-.867.035L79.4,425.41v-.11h-.771v.3h0a.247.247,0,0,0,.147.241l10.893,6.314a.965.965,0,0,0,.867-.037l2.9-1.676a.328.328,0,0,0,.2-.3l.011-.255Z" transform="translate(-78.631 -423.216)" fill="#999"/>
                <path id="Trazado_630705" data-name="Trazado 630705" d="M89.673,432.14,78.78,425.826c-.221-.127-.193-.352.064-.5l2.9-1.674a.965.965,0,0,1,.867-.037L93.5,429.928c.223.127.195.352-.062.5l-2.9,1.676A.959.959,0,0,1,89.673,432.14Z" transform="translate(-78.631 -423.529)" fill="#fff"/>
              </g>
            </g>
            <g id="Grupo_902068" data-name="Grupo 902068" transform="translate(4.445 8.528)">
              <g id="Grupo_902056" data-name="Grupo 902056">
                <path id="Trazado_630706" data-name="Trazado 630706" d="M54.781,410.5v.223l-2.868-1.656a.97.97,0,0,0-.867.035L48.7,410.452v-.11h-.771v.3h0a.252.252,0,0,0,.149.241l3.383,1.954a.97.97,0,0,0,.867-.035l2.9-1.676a.327.327,0,0,0,.2-.3l.011-.255Z" transform="translate(-47.931 -408.258)" fill="#999"/>
                <path id="Trazado_630707" data-name="Trazado 630707" d="M51.465,412.822l-3.383-1.954c-.223-.127-.195-.352.062-.5l2.9-1.676a.965.965,0,0,1,.867-.037L55.3,410.61c.223.129.195.354-.062.5l-2.9,1.676A.959.959,0,0,1,51.465,412.822Z" transform="translate(-47.931 -408.57)" fill="#fff"/>
              </g>
              <g id="Grupo_902057" data-name="Grupo 902057" transform="translate(4.801 2.771)">
                <path id="Trazado_630708" data-name="Trazado 630708" d="M57.5,412.063v.223l-2.87-1.656a.955.955,0,0,0-.865.035l-2.345,1.352v-.108h-.772v.3h0a.251.251,0,0,0,.147.242l3.383,1.952a.959.959,0,0,0,.867-.035l2.9-1.676a.327.327,0,0,0,.2-.3l.011-.255Z" transform="translate(-50.644 -409.824)" fill="#999"/>
                <path id="Trazado_630709" data-name="Trazado 630709" d="M54.178,414.389l-3.383-1.953c-.223-.129-.195-.352.062-.5l2.9-1.676a.956.956,0,0,1,.865-.035l3.385,1.954c.221.127.193.352-.064.5l-2.9,1.676A.97.97,0,0,1,54.178,414.389Z" transform="translate(-50.644 -410.137)" fill="#fff"/>
              </g>
              <g id="Grupo_902058" data-name="Grupo 902058" transform="translate(9.489 5.61)">
                <path id="Trazado_630710" data-name="Trazado 630710" d="M60.144,413.666v.223l-2.87-1.656a.961.961,0,0,0-.865.035l-2.345,1.354v-.11h-.77v.3h0a.247.247,0,0,0,.147.241L56.826,416a.97.97,0,0,0,.867-.035l2.9-1.676a.328.328,0,0,0,.2-.3l.011-.255Z" transform="translate(-53.294 -411.429)" fill="#999"/>
                <path id="Trazado_630711" data-name="Trazado 630711" d="M56.826,415.993l-3.383-1.955c-.221-.127-.193-.352.064-.5l2.9-1.676a.956.956,0,0,1,.865-.035l3.385,1.952c.221.129.193.352-.064.5l-2.9,1.676A.965.965,0,0,1,56.826,415.993Z" transform="translate(-53.294 -411.741)" fill="#fff"/>
              </g>
              <g id="Grupo_902059" data-name="Grupo 902059" transform="translate(14.29 8.381)">
                <path id="Trazado_630712" data-name="Trazado 630712" d="M62.857,415.233v.223L59.988,413.8a.959.959,0,0,0-.867.035l-2.343,1.352v-.108h-.771v.3h0a.246.246,0,0,0,.147.241l3.385,1.955a.961.961,0,0,0,.865-.037l2.9-1.676a.323.323,0,0,0,.2-.3l.012-.255Z" transform="translate(-56.007 -412.994)" fill="#999"/>
                <path id="Trazado_630713" data-name="Trazado 630713" d="M59.541,417.559l-3.385-1.954c-.221-.129-.193-.352.064-.5l2.9-1.676a.959.959,0,0,1,.867-.035l3.383,1.954c.221.127.195.352-.062.5l-2.9,1.676A.966.966,0,0,1,59.541,417.559Z" transform="translate(-56.007 -413.307)" fill="#fff"/>
              </g>
              <g id="Grupo_902060" data-name="Grupo 902060" transform="translate(19.091 11.153)">
                <path id="Trazado_630714" data-name="Trazado 630714" d="M65.57,416.8v.223L62.7,415.366a.965.965,0,0,0-.867.035l-2.343,1.354v-.11H58.72v.3h0a.246.246,0,0,0,.149.241l3.383,1.953a.965.965,0,0,0,.867-.035l2.9-1.676a.325.325,0,0,0,.2-.3l.012-.255Z" transform="translate(-58.72 -414.561)" fill="#999"/>
                <path id="Trazado_630715" data-name="Trazado 630715" d="M62.254,419.125l-3.383-1.954c-.223-.127-.195-.352.062-.5l2.9-1.674a.965.965,0,0,1,.867-.037l3.383,1.954c.223.129.195.354-.062.5l-2.9,1.676A.959.959,0,0,1,62.254,419.125Z" transform="translate(-58.72 -414.874)" fill="#fff"/>
              </g>
              <g id="Grupo_902061" data-name="Grupo 902061" transform="translate(23.892 13.924)">
                <path id="Trazado_630716" data-name="Trazado 630716" d="M68.284,418.366v.223l-2.87-1.656a.959.959,0,0,0-.867.035L62.2,418.32v-.108h-.771v.3h0a.252.252,0,0,0,.149.241l3.383,1.954a.959.959,0,0,0,.867-.035l2.9-1.676a.328.328,0,0,0,.2-.3l.011-.255Z" transform="translate(-61.433 -416.127)" fill="#999"/>
                <path id="Trazado_630717" data-name="Trazado 630717" d="M64.967,420.692l-3.383-1.953c-.223-.129-.195-.352.062-.5l2.9-1.676a.959.959,0,0,1,.867-.035l3.383,1.953c.223.127.195.352-.062.5l-2.9,1.676A.97.97,0,0,1,64.967,420.692Z" transform="translate(-61.433 -416.44)" fill="#fff"/>
              </g>
              <g id="Grupo_902062" data-name="Grupo 902062" transform="translate(28.694 16.697)">
                <path id="Trazado_630718" data-name="Trazado 630718" d="M71,419.932v.223l-2.87-1.656a.956.956,0,0,0-.865.035l-2.343,1.354v-.11h-.771v.3h0a.247.247,0,0,0,.147.241l3.385,1.954a.956.956,0,0,0,.865-.035l2.9-1.676a.327.327,0,0,0,.2-.3L71.66,420Z" transform="translate(-64.147 -417.695)" fill="#999"/>
                <path id="Trazado_630719" data-name="Trazado 630719" d="M67.681,422.258,64.3,420.3c-.221-.127-.193-.352.062-.5l2.9-1.674a.962.962,0,0,1,.865-.037l3.385,1.954c.221.129.193.352-.062.5l-2.9,1.676A.956.956,0,0,1,67.681,422.258Z" transform="translate(-64.147 -418.007)" fill="#fff"/>
              </g>
              <g id="Grupo_902063" data-name="Grupo 902063" transform="translate(33.494 19.468)">
                <path id="Trazado_630720" data-name="Trazado 630720" d="M73.71,421.5v.223l-2.868-1.656a.959.959,0,0,0-.867.035l-2.343,1.352v-.108H66.86v.3h0a.246.246,0,0,0,.147.241l3.385,1.954a.956.956,0,0,0,.865-.035l2.9-1.676a.325.325,0,0,0,.2-.3l.012-.255Z" transform="translate(-66.86 -419.26)" fill="#999"/>
                <path id="Trazado_630721" data-name="Trazado 630721" d="M70.394,423.825l-3.385-1.954c-.221-.129-.193-.352.064-.5l2.9-1.676a.96.96,0,0,1,.867-.035l3.383,1.954c.223.127.195.352-.062.5l-2.9,1.676A.967.967,0,0,1,70.394,423.825Z" transform="translate(-66.86 -419.573)" fill="#fff"/>
              </g>
              <g id="Grupo_902064" data-name="Grupo 902064" transform="translate(38.302 22.237)">
                <path id="Trazado_630722" data-name="Trazado 630722" d="M76.428,423.063v.225l-2.87-1.658a.966.966,0,0,0-.865.035l-2.343,1.354v-.11h-.773v.3h0a.247.247,0,0,0,.147.241l3.385,1.954a.956.956,0,0,0,.865-.035l2.9-1.676a.325.325,0,0,0,.2-.3l.011-.255Z" transform="translate(-69.577 -420.825)" fill="#999"/>
                <path id="Trazado_630723" data-name="Trazado 630723" d="M73.112,425.389l-3.385-1.952c-.221-.129-.193-.354.064-.5l2.9-1.676a.962.962,0,0,1,.865-.037l3.385,1.955c.221.127.195.352-.062.5l-2.9,1.676A.956.956,0,0,1,73.112,425.389Z" transform="translate(-69.576 -421.137)" fill="#fff"/>
              </g>
              <g id="Grupo_902065" data-name="Grupo 902065" transform="translate(43.096 25.012)">
                <path id="Trazado_630724" data-name="Trazado 630724" d="M79.137,424.632v.223l-2.87-1.658a.965.965,0,0,0-.867.037l-2.343,1.352v-.108h-.771v.3h0a.247.247,0,0,0,.147.241l3.383,1.953a.959.959,0,0,0,.867-.035l2.9-1.676a.328.328,0,0,0,.2-.3l.011-.255Z" transform="translate(-72.286 -422.393)" fill="#999"/>
                <path id="Trazado_630725" data-name="Trazado 630725" d="M75.82,426.958,72.436,425c-.223-.129-.195-.352.062-.5l2.9-1.676a.96.96,0,0,1,.867-.035l3.383,1.954c.223.127.195.352-.062.5l-2.9,1.676A.96.96,0,0,1,75.82,426.958Z" transform="translate(-72.286 -422.706)" fill="#fff"/>
              </g>
              <g id="Grupo_902066" data-name="Grupo 902066" transform="translate(47.897 27.785)">
                <path id="Trazado_630726" data-name="Trazado 630726" d="M81.85,426.2v.223l-2.87-1.656a.961.961,0,0,0-.865.035l-2.343,1.354v-.11H75v.3h0a.249.249,0,0,0,.147.241l3.385,1.954a.956.956,0,0,0,.865-.035l2.9-1.676a.328.328,0,0,0,.2-.3l.011-.255Z" transform="translate(-74.999 -423.96)" fill="#999"/>
                <path id="Trazado_630727" data-name="Trazado 630727" d="M78.534,428.524l-3.385-1.953c-.221-.127-.195-.352.062-.5l2.9-1.674a.962.962,0,0,1,.865-.037l3.385,1.954c.221.129.193.352-.064.5l-2.9,1.676A.956.956,0,0,1,78.534,428.524Z" transform="translate(-74.999 -424.272)" fill="#fff"/>
              </g>
              <g id="Grupo_902067" data-name="Grupo 902067" transform="translate(52.672 30.519)">
                <path id="Trazado_630728" data-name="Trazado 630728" d="M89.348,430.538v.223l-7.671-4.452a.962.962,0,0,0-.865.037L78.47,427.7v-.108H77.7v.3h0a.247.247,0,0,0,.147.241l8.186,4.747a.959.959,0,0,0,.867-.035l2.9-1.676a.323.323,0,0,0,.2-.3l.012-.255Z" transform="translate(-77.698 -425.505)" fill="#999"/>
                <path id="Trazado_630729" data-name="Trazado 630729" d="M86.033,432.864l-8.186-4.747c-.221-.129-.193-.352.062-.5l2.9-1.676a.956.956,0,0,1,.865-.035l8.186,4.747c.221.127.195.352-.062.5l-2.9,1.676A.961.961,0,0,1,86.033,432.864Z" transform="translate(-77.698 -425.818)" fill="#fff"/>
              </g>
            </g>
            <g id="Grupo_902080" data-name="Grupo 902080" transform="translate(0 11.094)">
              <g id="Grupo_902069" data-name="Grupo 902069">
                <path id="Trazado_630730" data-name="Trazado 630730" d="M52.27,411.946v.225l-2.87-1.658a.965.965,0,0,0-.867.037L46.191,411.9v-.108h-.772v.3h0a.249.249,0,0,0,.149.241l3.383,1.953a.959.959,0,0,0,.867-.035l2.9-1.676a.323.323,0,0,0,.2-.3l.012-.255Z" transform="translate(-45.419 -409.708)" fill="#999"/>
                <path id="Trazado_630731" data-name="Trazado 630731" d="M48.953,414.273l-3.383-1.954c-.223-.129-.195-.352.062-.5l2.9-1.676a.959.959,0,0,1,.867-.035l3.383,1.954c.223.127.195.352-.062.5l-2.9,1.677A.971.971,0,0,1,48.953,414.273Z" transform="translate(-45.419 -410.021)" fill="#fff"/>
              </g>
              <g id="Grupo_902070" data-name="Grupo 902070" transform="translate(4.801 2.772)">
                <path id="Trazado_630732" data-name="Trazado 630732" d="M54.983,413.513v.223l-2.87-1.656a.96.96,0,0,0-.867.035L48.9,413.469v-.11h-.771v.3h0a.252.252,0,0,0,.149.241l3.383,1.954a.971.971,0,0,0,.867-.035l2.9-1.676a.33.33,0,0,0,.2-.3l.011-.255Z" transform="translate(-48.132 -411.276)" fill="#999"/>
                <path id="Trazado_630733" data-name="Trazado 630733" d="M51.665,415.839l-3.383-1.953c-.221-.127-.195-.352.062-.5l2.9-1.674a.965.965,0,0,1,.867-.037l3.383,1.953c.223.129.195.352-.062.5l-2.9,1.676A.959.959,0,0,1,51.665,415.839Z" transform="translate(-48.132 -411.587)" fill="#fff"/>
              </g>
              <g id="Grupo_902071" data-name="Grupo 902071" transform="translate(9.603 5.544)">
                <path id="Trazado_630734" data-name="Trazado 630734" d="M57.7,415.079v.225l-2.87-1.658a.962.962,0,0,0-.865.037l-2.343,1.352v-.108h-.771v.3h0a.247.247,0,0,0,.147.241l3.385,1.953a.956.956,0,0,0,.865-.035l2.9-1.676a.325.325,0,0,0,.2-.3l.011-.255Z" transform="translate(-50.846 -412.841)" fill="#999"/>
                <path id="Trazado_630735" data-name="Trazado 630735" d="M54.38,417.406l-3.385-1.955c-.221-.127-.193-.35.062-.5l2.9-1.676a.956.956,0,0,1,.865-.035l3.385,1.954c.221.127.193.352-.064.5l-2.9,1.676A.962.962,0,0,1,54.38,417.406Z" transform="translate(-50.846 -413.154)" fill="#fff"/>
              </g>
              <g id="Grupo_902072" data-name="Grupo 902072" transform="translate(14.404 8.316)">
                <path id="Trazado_630736" data-name="Trazado 630736" d="M60.409,416.646v.223l-2.868-1.656a.959.959,0,0,0-.867.035L54.331,416.6v-.11h-.771v.3h0a.248.248,0,0,0,.149.241l3.383,1.954a.962.962,0,0,0,.865-.037l2.9-1.676a.324.324,0,0,0,.2-.3l.012-.255Z" transform="translate(-53.559 -414.409)" fill="#999"/>
                <path id="Trazado_630737" data-name="Trazado 630737" d="M57.093,418.972l-3.383-1.953c-.223-.127-.195-.352.062-.5l2.9-1.676a.97.97,0,0,1,.867-.035l3.383,1.953c.223.129.195.352-.062.5l-2.9,1.676A.955.955,0,0,1,57.093,418.972Z" transform="translate(-53.559 -414.72)" fill="#fff"/>
              </g>
              <g id="Grupo_902073" data-name="Grupo 902073" transform="translate(19.204 11.063)">
                <path id="Trazado_630738" data-name="Trazado 630738" d="M82.328,429.31v.225L60.253,416.766a.96.96,0,0,0-.867.035l-2.343,1.352v-.108h-.771v.3h0a.249.249,0,0,0,.149.239L79.01,431.647a.959.959,0,0,0,.867-.035l2.9-1.676a.328.328,0,0,0,.2-.3l.011-.253Z" transform="translate(-56.272 -415.961)" fill="#999"/>
                <path id="Trazado_630739" data-name="Trazado 630739" d="M79.01,431.638,56.422,418.572c-.223-.129-.195-.352.062-.5l2.9-1.676a.965.965,0,0,1,.867-.035l22.588,13.066c.223.127.195.352-.062.5l-2.9,1.676A.965.965,0,0,1,79.01,431.638Z" transform="translate(-56.272 -416.273)" fill="#fff"/>
              </g>
              <g id="Grupo_902074" data-name="Grupo 902074" transform="translate(43.209 24.948)">
                <path id="Trazado_630740" data-name="Trazado 630740" d="M76.689,426.045v.223l-2.87-1.656a.96.96,0,0,0-.867.035L70.61,426v-.11h-.772v.3h0a.253.253,0,0,0,.149.241l3.383,1.953a.965.965,0,0,0,.867-.037l2.9-1.676a.326.326,0,0,0,.2-.3l.011-.255Z" transform="translate(-69.838 -423.808)" fill="#999"/>
                <path id="Trazado_630741" data-name="Trazado 630741" d="M73.371,428.371l-3.383-1.953c-.221-.127-.195-.352.062-.5l2.9-1.676a.971.971,0,0,1,.867-.035l3.383,1.953c.223.129.195.352-.062.5l-2.9,1.676A.959.959,0,0,1,73.371,428.371Z" transform="translate(-69.838 -424.119)" fill="#fff"/>
              </g>
              <g id="Grupo_902075" data-name="Grupo 902075" transform="translate(48.01 27.719)">
                <path id="Trazado_630742" data-name="Trazado 630742" d="M79.4,427.612v.223l-2.87-1.658a.961.961,0,0,0-.865.037l-2.343,1.352v-.11h-.773v.3h0a.247.247,0,0,0,.147.241l3.385,1.954a.956.956,0,0,0,.865-.035l2.9-1.676a.325.325,0,0,0,.2-.3l.011-.255Z" transform="translate(-72.551 -425.373)" fill="#999"/>
                <path id="Trazado_630743" data-name="Trazado 630743" d="M76.086,429.938,72.7,427.985c-.221-.129-.195-.354.062-.5l2.9-1.676a.956.956,0,0,1,.865-.035l3.385,1.954c.221.127.195.352-.062.5l-2.9,1.676A.961.961,0,0,1,76.086,429.938Z" transform="translate(-72.551 -425.686)" fill="#fff"/>
              </g>
              <g id="Grupo_902076" data-name="Grupo 902076" transform="translate(54.757 30.409)">
                <path id="Trazado_630744" data-name="Trazado 630744" d="M81.09,429.132v.223L78.22,427.7a.962.962,0,0,0-.865.037l-.219.1v-.108h-.771v.3h0a.246.246,0,0,0,.147.241l3.385,1.953a.959.959,0,0,0,.867-.035l.777-.428a.324.324,0,0,0,.2-.3l.011-.255Z" transform="translate(-76.364 -426.893)" fill="#999"/>
                <path id="Trazado_630745" data-name="Trazado 630745" d="M79.9,430.211l-3.385-1.954c-.221-.129-.193-.352.064-.5l.779-.428a.956.956,0,0,1,.865-.035l3.385,1.954c.221.127.193.352-.064.5l-.777.428A.965.965,0,0,1,79.9,430.211Z" transform="translate(-76.364 -427.206)" fill="#fff"/>
              </g>
              <g id="Grupo_902077" data-name="Grupo 902077" transform="translate(52.633 31.635)">
                <path id="Trazado_630746" data-name="Trazado 630746" d="M79.89,429.825v.223l-2.87-1.658a.965.965,0,0,0-.867.037l-.218.1v-.108h-.772v.3h0a.247.247,0,0,0,.147.241l3.385,1.954a.956.956,0,0,0,.865-.035l.779-.428a.327.327,0,0,0,.2-.3l.011-.255Z" transform="translate(-75.164 -427.586)" fill="#999"/>
                <path id="Trazado_630747" data-name="Trazado 630747" d="M78.7,430.9l-3.385-1.953c-.221-.129-.193-.354.064-.5l.777-.428a.959.959,0,0,1,.867-.035L80.4,429.94c.223.127.195.352-.062.5l-.779.426A.961.961,0,0,1,78.7,430.9Z" transform="translate(-75.164 -427.899)" fill="#fff"/>
              </g>
              <g id="Grupo_902078" data-name="Grupo 902078" transform="translate(59.71 33.268)">
                <path id="Trazado_630748" data-name="Trazado 630748" d="M83.889,430.748v.223l-2.868-1.658a.965.965,0,0,0-.867.037l-.219.1v-.108h-.771v.3h0a.248.248,0,0,0,.149.242l3.383,1.954a.966.966,0,0,0,.867-.037l.779-.428a.325.325,0,0,0,.2-.3l.012-.255Z" transform="translate(-79.163 -428.509)" fill="#999"/>
                <path id="Trazado_630749" data-name="Trazado 630749" d="M82.7,431.827l-3.383-1.954c-.223-.127-.195-.352.062-.5l.779-.428a.959.959,0,0,1,.867-.035l3.383,1.954c.223.129.195.352-.062.5l-.779.428A.97.97,0,0,1,82.7,431.827Z" transform="translate(-79.163 -428.822)" fill="#fff"/>
              </g>
              <g id="Grupo_902079" data-name="Grupo 902079" transform="translate(57.586 34.494)">
                <path id="Trazado_630750" data-name="Trazado 630750" d="M82.689,431.441v.223l-2.868-1.656a.96.96,0,0,0-.867.035l-.219.1v-.108h-.772v.3h0a.246.246,0,0,0,.147.239l3.385,1.955a.965.965,0,0,0,.867-.037l.779-.428a.322.322,0,0,0,.2-.3l.012-.255Z" transform="translate(-77.963 -429.202)" fill="#999"/>
                <path id="Trazado_630751" data-name="Trazado 630751" d="M81.5,432.52l-3.385-1.954c-.221-.129-.193-.352.064-.5l.779-.428a.959.959,0,0,1,.867-.035l3.383,1.954c.221.127.195.352-.062.5l-.779.428A.971.971,0,0,1,81.5,432.52Z" transform="translate(-77.963 -429.515)" fill="#fff"/>
              </g>
            </g>
          </g>
        </g>
      </g>
      <path id="Trazado_630752" data-name="Trazado 630752" d="M167.984,434.685l-41.261-23.823a8.753,8.753,0,0,0-7.943,0l-20.362,11.8c-2.189,1.27-2.176,3.332.019,4.6L135.7,448.779h-.313l2.008,3.258h6.02v-.014a8.185,8.185,0,0,0,4.222-.941L168,439.286C170.192,438.014,170.181,435.952,167.984,434.685Z" transform="translate(40.33 67.641)" fill="#d9f5ff"/>
      <g id="Grupo_902108" data-name="Grupo 902108" transform="translate(130.883 429.595)">
        <g id="Grupo_902092" data-name="Grupo 902092" transform="translate(0 12.353)">
          <g id="Grupo_902091" data-name="Grupo 902091" style="isolation: isolate">
            <g id="Grupo_902084" data-name="Grupo 902084" transform="translate(1.267)">
              <path id="Trazado_630753" data-name="Trazado 630753" d="M93.978,397.665l13.087-7.605a2.8,2.8,0,0,1,2.831.276l-13.089,7.605A2.8,2.8,0,0,0,93.978,397.665Z" transform="translate(-93.978 -389.791)" fill="#fff642"/>
            </g>
            <g id="Grupo_902085" data-name="Grupo 902085" transform="translate(48.059 67.294)">
              <path id="Trazado_630754" data-name="Trazado 630754" d="M133.511,430.38l-13.089,7.607a2.792,2.792,0,0,0,1.164-2.561l13.089-7.605A2.791,2.791,0,0,1,133.511,430.38Z" transform="translate(-120.422 -427.821)" fill="#fc912d"/>
            </g>
            <g id="Grupo_902086" data-name="Grupo 902086" transform="translate(49.224 31.248)">
              <path id="Trazado_630755" data-name="Trazado 630755" d="M121.182,415.056l13.088-7.606-.1,36.046L121.08,451.1Z" transform="translate(-121.08 -407.45)" fill="#fc912d"/>
            </g>
            <g id="Grupo_902087" data-name="Grupo 902087" transform="translate(4.097 0.545)">
              <path id="Trazado_630756" data-name="Trazado 630756" d="M95.577,397.7l13.088-7.606,41.261,23.822-13.088,7.606Z" transform="translate(-95.577 -390.099)" fill="#fff642"/>
            </g>
            <path id="Trazado_630757" data-name="Trazado 630757" d="M119.994,398.08H100.437v-7.047h7.35Z" transform="translate(-87.741 -388.835)" fill="#fcaa2d"/>
            <path id="Trazado_630758" data-name="Trazado 630758" d="M131.563,404.759l-7.389,4.291h-4.731V402h7.34Z" transform="translate(-73.116 -380.394)" fill="#fcaa2d"/>
            <g id="Grupo_902088" data-name="Grupo 902088" transform="translate(45.357 24.366)">
              <path id="Trazado_630759" data-name="Trazado 630759" d="M118.9,411.168l13.089-7.607a8.758,8.758,0,0,1,3.967,6.882l-13.087,7.605A8.752,8.752,0,0,0,118.9,411.168Z" transform="translate(-118.895 -403.561)" fill="#ffe042"/>
            </g>
            <g id="Grupo_902089" data-name="Grupo 902089" transform="translate(0 7.606)">
              <path id="Trazado_630760" data-name="Trazado 630760" d="M138.619,418.456a8.752,8.752,0,0,1,3.969,6.88l-.1,36.046c-.007,2.532-1.8,3.553-3.994,2.284L97.231,439.844a8.754,8.754,0,0,1-3.969-6.88l.1-36.046c.007-2.532,1.8-3.551,3.994-2.284Z" transform="translate(-93.262 -394.089)" fill="#fcaa2d"/>
            </g>
            <g id="Grupo_902090" data-name="Grupo 902090" transform="translate(10.757 26.333)">
              <path id="Trazado_630761" data-name="Trazado 630761" d="M113.293,406.579c7.678,4.434,13.885,15.186,13.86,24.01s-6.273,12.385-13.952,7.95-13.885-15.186-13.86-24.009S105.614,402.146,113.293,406.579Z" transform="translate(-99.341 -404.673)" fill="#fc912d"/>
            </g>
          </g>
        </g>
        <g id="Grupo_902100" data-name="Grupo 902100" transform="translate(9.226)">
          <g id="Grupo_902099" data-name="Grupo 902099" style="isolation: isolate">
            <g id="Grupo_902093" data-name="Grupo 902093" transform="translate(3.469 15.142)">
              <path id="Trazado_630762" data-name="Trazado 630762" d="M100.447,394.169l4.822-2.8-.01,3.65-4.822,2.8Z" transform="translate(-100.437 -391.367)" fill="#ffe042"/>
            </g>
            <g id="Grupo_902094" data-name="Grupo 902094" transform="translate(3.479 5.471)">
              <path id="Trazado_630763" data-name="Trazado 630763" d="M104.846,388.7l4.822-2.8c-2.709,1.575-4.39,4.921-4.4,9.672l-4.824,2.8C100.456,393.625,102.137,390.279,104.846,388.7Z" transform="translate(-100.442 -385.901)" fill="#fc912d"/>
            </g>
            <g id="Grupo_902095" data-name="Grupo 902095" transform="translate(37.098 34.557)">
              <path id="Trazado_630764" data-name="Trazado 630764" d="M119.452,405.141l4.822-2.8-.01,3.65-4.822,2.8Z" transform="translate(-119.441 -402.339)" fill="#fc912d"/>
            </g>
            <g id="Grupo_902096" data-name="Grupo 902096" transform="translate(5.425)">
              <path id="Trazado_630765" data-name="Trazado 630765" d="M101.542,386.866l4.824-2.8c3.374-1.962,8.046-1.69,13.19,1.279l-4.822,2.8C109.588,385.176,104.918,384.906,101.542,386.866Z" transform="translate(-101.542 -382.809)" fill="#fff642"/>
            </g>
            <g id="Grupo_902097" data-name="Grupo 902097" transform="translate(18.617 2.535)">
              <path id="Trazado_630766" data-name="Trazado 630766" d="M109,387.045l4.822-2.8c10.228,5.9,18.525,20.269,18.491,32.022l-4.822,2.8C127.522,407.314,119.225,392.95,109,387.045Z" transform="translate(-108.997 -384.242)" fill="#ffe042"/>
            </g>
            <g id="Grupo_902098" data-name="Grupo 902098" transform="translate(0 2.802)">
              <path id="Trazado_630767" data-name="Trazado 630767" d="M117.093,386.929c10.228,5.9,18.525,20.27,18.491,32.022l-.011,3.649-3.468-2,.009-3.65c.028-9.557-6.715-21.236-15.034-26.038s-15.1-.933-15.126,8.626l-.009,3.65-3.47-2,.011-3.65C98.518,385.779,106.87,381.027,117.093,386.929Z" transform="translate(-98.476 -384.393)" fill="#fcaa2d"/>
            </g>
          </g>
        </g>
        <g id="Grupo_902107" data-name="Grupo 902107" transform="translate(7.77 36.396)">
          <g id="Grupo_902105" data-name="Grupo 902105">
            <g id="Grupo_902104" data-name="Grupo 902104" style="isolation: isolate">
              <g id="Grupo_902101" data-name="Grupo 902101" transform="translate(3.902)">
                <path id="Trazado_630768" data-name="Trazado 630768" d="M99.858,405.866l2.727-1.585c2.431-1.412,5.8-1.214,9.516.931l-2.727,1.585C105.658,404.65,102.291,404.452,99.858,405.866Z" transform="translate(-99.858 -403.378)" fill="#f2f2f2"/>
              </g>
              <g id="Grupo_902102" data-name="Grupo 902102" transform="translate(13.418 1.833)">
                <path id="Trazado_630769" data-name="Trazado 630769" d="M117.391,436.081l-2.727,1.584c2.4-1.394,3.889-4.362,3.9-8.577.025-8.485-5.946-18.826-13.33-23.088l2.727-1.585c7.384,4.264,13.353,14.6,13.33,23.09C121.28,431.719,119.792,434.685,117.391,436.081Z" transform="translate(-105.236 -404.414)" fill="#f2f2f2"/>
              </g>
              <g id="Grupo_902103" data-name="Grupo 902103" transform="translate(0 1.584)">
                <path id="Trazado_630770" data-name="Trazado 630770" d="M111.071,406.108c7.384,4.263,13.354,14.6,13.33,23.088s-6.032,11.91-13.416,7.646-13.354-14.6-13.331-23.088S103.685,401.843,111.071,406.108Z" transform="translate(-97.653 -404.273)" fill="#e6e6e6"/>
              </g>
            </g>
          </g>
          <g id="Grupo_902106" data-name="Grupo 902106" transform="translate(3.757 13.539)">
            <path id="Trazado_630771" data-name="Trazado 630771" d="M104.626,424.428l-1.955-3.371c-.439-.757-.439-1.573,0-1.823l12.42-7.082c.439-.249,1.15.161,1.587.917l1.955,3.373c.439.756.439,1.571,0,1.821l-12.42,7.082C105.775,425.594,105.063,425.183,104.626,424.428Z" transform="translate(-97.802 -410.222)" fill="#56aa39"/>
            <path id="Trazado_630772" data-name="Trazado 630772" d="M110.136,425.034l-1.955,1.115c-.439.249-1.148-.161-1.587-.917l-6.489-11.192c-.439-.757-.439-1.573,0-1.823l1.954-1.115c.439-.25,1.15.161,1.589.917l6.489,11.194C110.575,423.969,110.575,424.784,110.136,425.034Z" transform="translate(-99.776 -411.03)" fill="#56aa39"/>
          </g>
        </g>
      </g>
      <g id="Grupo_902111" data-name="Grupo 902111" transform="translate(119.287 508.453)">
        <path id="Trazado_630773" data-name="Trazado 630773" d="M105.209,457.163l-17.337-10.01c-1.722-.994-1.506-2.73.483-3.879l25.895-14.95a7.466,7.466,0,0,1,6.719-.278l17.337,10.008c1.724.994,1.508,2.732-.481,3.88l-25.895,14.95A7.47,7.47,0,0,1,105.209,457.163Z" transform="translate(-86.709 -427.374)" fill="#636363"/>
        <g id="Grupo_902110" data-name="Grupo 902110" transform="translate(15.029 8.094)">
          <path id="Trazado_630774" data-name="Trazado 630774" d="M99.584,444.547l7.554-.031,9.676-5.618v-2.716l-6.627-3.829-5.858-.065-5.4,2.618-.278,4.614Z" transform="translate(-92.549 -431.688)" fill="#4367c7" style="mix-blend-mode: multiply;isolation: isolate"/>
          <g id="Grupo_902109" data-name="Grupo 902109">
            <path id="Trazado_630775" data-name="Trazado 630775" d="M99.254,443.035s7.687-4.206,14.055-8.456l-7.418-.326-4.93,1.2-1.877,2.532Z" transform="translate(-92.216 -430.175)" fill="#747474"/>
            <path id="Trazado_630776" data-name="Trazado 630776" d="M116.349,436.3c.154-.3-.49-.867-.669-1.058a10.7,10.7,0,0,0-8.706-3.219,14.067,14.067,0,0,0-6.814,3.2,25.225,25.225,0,0,0-4.165,4.3c-.2.264-.4.529-.589.8-.027.041-.214.246-.2.3,0,0,.9,4.249,7.037,4.183a46.147,46.147,0,0,1,5.1-4.072,31.816,31.816,0,0,1,7.552-4.024,5.3,5.3,0,0,1,1.311-.338A.156.156,0,0,0,116.349,436.3Z" transform="translate(-95.203 -431.948)" fill="url(#linear-gradient-2)"/>
          </g>
        </g>
      </g>
    </g>
    <g id="Grupo_109292" data-name="Grupo 109292" transform="translate(179.623 1007.817)">
      <path id="Trazado_116791" data-name="Trazado 116791" d="M200.761,0V172.385s3,60-56.613,59.673S0,232.058,0,232.058" transform="translate(220.927 244.913) rotate(180)" fill="none" stroke="#4dd0e1" stroke-width="4"/>
      <path id="Trazado_116792" data-name="Trazado 116792" d="M39.546,26.022l-13.6,13.638a7.219,7.219,0,0,1-10.23,0L2.118,26.022a7.27,7.27,0,0,1,0-10.26l13.6-13.638a7.219,7.219,0,0,1,10.23,0l13.6,13.638A7.269,7.269,0,0,1,39.546,26.022Z" transform="translate(41.665 268.462) rotate(180)" fill="#4dd0e1" opacity="0.999"/>
      <path id="Trazado_116793" data-name="Trazado 116793" d="M24.33,16.01,15.963,24.4a4.441,4.441,0,0,1-6.294,0L1.3,16.01A4.473,4.473,0,0,1,1.3,9.7L9.67,1.307a4.441,4.441,0,0,1,6.294,0L24.33,9.7A4.472,4.472,0,0,1,24.33,16.01Z" transform="translate(233.744 25.708) rotate(180)" fill="#4dd0e1" opacity="0.999"/>
    </g>
    <g id="Rectngulo_303868" data-name="Rectngulo 303868" transform="translate(225.082 1039.079)" fill="none" stroke="#0b5999" stroke-width="4">
      <rect width="323.151" height="248.578" rx="38" stroke="none"/>
      <rect x="2" y="2" width="319.151" height="244.578" rx="36" fill="none"/>
    </g>
  </g>
</svg>
