<svg xmlns="http://www.w3.org/2000/svg" xmlns:xlink="http://www.w3.org/1999/xlink" width="201" height="201" viewBox="0 0 201 201">
  <defs>
    <clipPath id="clip-path">
      <path id="Trazado_636877" data-name="Trazado 636877" d="M148.051,134l-.092,54.893a.925.925,0,0,1-.545.76,2.9,2.9,0,0,1-2.635,0,.929.929,0,0,1-.551-.766l.093-54.893a.936.936,0,0,0,.55.769,2.911,2.911,0,0,0,2.634,0A.932.932,0,0,0,148.051,134Z" fill="#2d3e50"/>
    </clipPath>
  </defs>
  <g id="Grupo_906823" data-name="Grupo 906823" transform="translate(-405 -1327)">
    <circle id="Elipse_6769" data-name="Elipse 6769" cx="100.5" cy="100.5" r="100.5" transform="translate(405 1327)" fill="#0b5999"/>
    <g id="Grupo_906193" data-name="Grupo 906193" transform="translate(391.941 1240.92)">
      <path id="Trazado_636857" data-name="Trazado 636857" d="M106.367,173.393,60.1,200.279l-.007,3.053,54.9,31.7,46.264-26.888" fill="#1e2935"/>
      <g id="Grupo_906170" data-name="Grupo 906170">
        <path id="Trazado_636858" data-name="Trazado 636858" d="M116.53,231.207l-.009,3.054-54.9-31.693.009-3.054Z" fill="#171f26"/>
      </g>
      <g id="Grupo_906171" data-name="Grupo 906171">
        <path id="Trazado_636859" data-name="Trazado 636859" d="M115,231.973l46.265-26.885-.009,3.052-46.264,26.888Z" fill="#495866"/>
      </g>
      <g id="Grupo_906172" data-name="Grupo 906172">
        <path id="Trazado_636860" data-name="Trazado 636860" d="M60.1,200.279l46.264-26.887,54.9,31.7L115,231.973Z" fill="#516272"/>
      </g>
      <g id="Grupo_906173" data-name="Grupo 906173">
        <path id="Trazado_636861" data-name="Trazado 636861" d="M121.252,217.293a13.932,13.932,0,0,1,6.307,10.936l-.036,12.509c-.011,4.018-2.862,5.633-6.349,3.619L53.883,205.506a13.9,13.9,0,0,1-6.309-10.926l.036-12.52c.012-4.007,2.855-5.637,6.35-3.619Zm-6.263,17.734.008-3.054L60.1,200.279l-.007,3.053,54.895,31.695" fill="#2d3e50"/>
      </g>
      <path id="Trazado_636862" data-name="Trazado 636862" d="M173.712,199.947c-.02-.139-.049-.279-.076-.422-.065-.347-.144-.695-.243-1.046-.04-.145-.079-.288-.125-.434-.133-.419-.286-.838-.461-1.252-.025-.057-.043-.115-.069-.174l-.011-.029c-.2-.445-.424-.88-.664-1.307-.065-.117-.132-.228-.2-.343-.228-.382-.47-.757-.73-1.116-.039-.054-.073-.113-.114-.166-.239-.322-.488-.635-.748-.931-.066-.077-.138-.143-.205-.218s-.13-.139-.195-.206a11.652,11.652,0,0,0-1.024-.96c-.055-.045-.11-.086-.165-.13a9.877,9.877,0,0,0-1.165-.807l-67.292-38.85c-1.759-1.016-3.351-1.108-4.5-.439L49.456,178c1.152-.669,2.746-.577,4.5.438l67.292,38.852a9.444,9.444,0,0,1,1.167.811c.053.041.107.08.16.123a12.2,12.2,0,0,1,1.034.97c.061.062.12.125.18.189a14.239,14.239,0,0,1,.963,1.16c.036.051.07.1.105.155.264.364.508.742.739,1.131.066.11.133.221.2.334.244.438.474.883.677,1.338.027.062.045.125.07.187.175.409.326.821.457,1.234.048.149.088.3.131.45.094.344.174.688.236,1.027.027.147.058.291.079.434a9.645,9.645,0,0,1,.112,1.393l-.036,12.509c0,1.994-.712,3.4-1.845,4.059q23.131-13.446,46.263-26.888c1.137-.661,1.842-2.061,1.848-4.055l.036-12.512A9.842,9.842,0,0,0,173.712,199.947Z" fill="#3e566b"/>
      <g id="Grupo_906184" data-name="Grupo 906184">
        <g id="Grupo_906175" data-name="Grupo 906175">
          <path id="Trazado_636863" data-name="Trazado 636863" d="M70.009,195.21c-.011-.083-.029-.163-.044-.244-.036-.2-.08-.39-.135-.586-.024-.083-.046-.165-.071-.247a7.672,7.672,0,0,0-.272-.735c-.009-.021-.014-.043-.024-.065s0-.017-.009-.023c-.057-.129-.138-.249-.2-.375a7.788,7.788,0,0,0-.383-.715c-.086-.14-.187-.261-.284-.394a7.35,7.35,0,0,0-.454-.609c-.022-.027-.039-.058-.061-.082-.141-.161-.3-.3-.447-.442-.09-.086-.173-.183-.265-.261a5.584,5.584,0,0,0-.853-.614,2.513,2.513,0,0,0-2.538-.25l-1.852,1.076a2.514,2.514,0,0,1,2.54.25,5.468,5.468,0,0,1,.855.618c.092.078.173.173.261.258a6.6,6.6,0,0,1,.508.522c.169.2.32.414.472.631.089.126.185.241.268.372a8.4,8.4,0,0,1,.431.805c.051.1.113.2.158.3.015.033.025.065.04.1.1.235.185.473.261.711.025.081.048.161.068.241a5.823,5.823,0,0,1,.138.6c.016.078.031.156.042.235a5.355,5.355,0,0,1,.065.788,2.5,2.5,0,0,1-1.041,2.288l1.85-1.075A2.494,2.494,0,0,0,70.072,196,5.322,5.322,0,0,0,70.009,195.21Z" fill="#ff7676"/>
          <g id="Grupo_906174" data-name="Grupo 906174">
            <path id="Trazado_636864" data-name="Trazado 636864" d="M64.655,190.894a7.862,7.862,0,0,1,3.567,6.176c-.006,2.266-1.614,3.18-3.591,2.038a7.834,7.834,0,0,1-3.559-6.164C61.078,190.671,62.677,189.75,64.655,190.894Z" fill="#eb4b48"/>
          </g>
        </g>
        <g id="Grupo_906177" data-name="Grupo 906177">
          <path id="Trazado_636865" data-name="Trazado 636865" d="M81.878,201.994c-.011-.082-.029-.163-.044-.243-.035-.194-.08-.39-.135-.586-.023-.083-.045-.165-.071-.247a7.677,7.677,0,0,0-.271-.736c-.009-.022-.016-.043-.025-.065a.135.135,0,0,0-.009-.023c-.057-.129-.138-.248-.2-.373a7.569,7.569,0,0,0-.385-.716c-.085-.14-.188-.261-.282-.4-.149-.209-.293-.417-.456-.609-.02-.024-.038-.056-.06-.08-.141-.161-.3-.3-.447-.441-.091-.086-.174-.184-.266-.262a5.5,5.5,0,0,0-.853-.615,2.515,2.515,0,0,0-2.538-.25l-1.851,1.076a2.519,2.519,0,0,1,2.54.25,5.6,5.6,0,0,1,.854.617c.092.08.174.174.263.258.174.168.347.336.507.523s.32.415.472.632c.088.125.186.241.268.372a8.389,8.389,0,0,1,.43.8c.05.1.114.2.16.3.014.033.023.064.038.1.1.236.186.473.262.71.025.082.047.16.069.242.056.2.1.4.137.6.015.078.031.156.042.234a5.357,5.357,0,0,1,.065.789,2.5,2.5,0,0,1-1.041,2.289l1.85-1.076a2.5,2.5,0,0,0,1.041-2.287A5.489,5.489,0,0,0,81.878,201.994Z" fill="#ffc38d"/>
          <g id="Grupo_906176" data-name="Grupo 906176">
            <path id="Trazado_636866" data-name="Trazado 636866" d="M76.525,197.678a7.858,7.858,0,0,1,3.567,6.177c-.007,2.266-1.613,3.179-3.591,2.039a7.837,7.837,0,0,1-3.559-6.164C72.948,197.456,74.547,196.535,76.525,197.678Z" fill="#f9991f"/>
          </g>
        </g>
        <g id="Grupo_906179" data-name="Grupo 906179">
          <path id="Trazado_636867" data-name="Trazado 636867" d="M93.832,208.832c-.012-.082-.03-.163-.044-.243-.036-.194-.08-.39-.136-.586-.023-.083-.045-.166-.07-.247a7.252,7.252,0,0,0-.273-.736l-.023-.065a.109.109,0,0,1-.009-.023c-.057-.129-.138-.248-.2-.375a8.039,8.039,0,0,0-.383-.715c-.086-.14-.188-.262-.284-.395-.147-.209-.291-.418-.454-.608-.023-.026-.039-.057-.061-.081-.141-.162-.3-.3-.447-.443-.091-.085-.173-.182-.265-.262a5.646,5.646,0,0,0-.853-.613,2.516,2.516,0,0,0-2.538-.25l-1.852,1.076a2.512,2.512,0,0,1,2.539.25,5.513,5.513,0,0,1,.856.617c.091.078.173.174.261.258.175.167.347.336.508.523s.32.414.471.631c.09.126.186.242.269.373a8.5,8.5,0,0,1,.431.805c.05.1.112.2.158.3.015.034.025.065.039.1.1.233.186.472.261.71q.037.12.069.24c.055.2.1.4.138.6.016.078.031.157.042.235a5.471,5.471,0,0,1,.064.789A2.5,2.5,0,0,1,91,212.981l1.849-1.077a2.487,2.487,0,0,0,1.042-2.285A5.208,5.208,0,0,0,93.832,208.832Z" fill="#ffc38d"/>
          <g id="Grupo_906178" data-name="Grupo 906178">
            <path id="Trazado_636868" data-name="Trazado 636868" d="M88.477,204.516a7.856,7.856,0,0,1,3.567,6.177c0,2.264-1.613,3.179-3.591,2.038a7.843,7.843,0,0,1-3.559-6.165C84.9,204.294,86.5,203.373,88.477,204.516Z" fill="#f9991f"/>
          </g>
        </g>
        <g id="Grupo_906181" data-name="Grupo 906181">
          <path id="Trazado_636869" data-name="Trazado 636869" d="M106.113,216.16c-.011-.082-.03-.162-.043-.244-.037-.194-.082-.39-.136-.586-.025-.082-.045-.164-.071-.246a7.6,7.6,0,0,0-.273-.736c-.009-.021-.014-.042-.024-.065l-.009-.022c-.057-.13-.136-.249-.2-.375-.121-.241-.238-.486-.383-.716-.086-.139-.188-.261-.284-.4-.147-.209-.292-.418-.455-.607-.022-.027-.038-.059-.061-.082-.139-.162-.3-.3-.447-.443-.089-.086-.172-.181-.265-.261a5.666,5.666,0,0,0-.853-.613,2.511,2.511,0,0,0-2.538-.25l-1.852,1.075a2.518,2.518,0,0,1,2.541.25,5.72,5.72,0,0,1,.855.618c.091.078.172.173.262.258.174.167.346.334.507.522s.321.414.472.631c.088.127.185.242.268.373a8.988,8.988,0,0,1,.431.8c.049.1.112.2.158.3.014.032.024.064.039.1.1.236.186.473.262.711.025.08.047.161.068.241q.084.3.138.6c.015.078.03.155.042.234a5.225,5.225,0,0,1,.064.791,2.491,2.491,0,0,1-1.041,2.286l1.85-1.076a2.491,2.491,0,0,0,1.041-2.286A5.47,5.47,0,0,0,106.113,216.16Z" fill="#ff7676"/>
          <g id="Grupo_906180" data-name="Grupo 906180">
            <path id="Trazado_636870" data-name="Trazado 636870" d="M100.759,211.844a7.858,7.858,0,0,1,3.566,6.179c-.006,2.262-1.612,3.178-3.591,2.036a7.838,7.838,0,0,1-3.559-6.164C97.182,211.621,98.78,210.7,100.759,211.844Z" fill="#eb4b48"/>
          </g>
        </g>
        <g id="Grupo_906183" data-name="Grupo 906183">
          <path id="Trazado_636871" data-name="Trazado 636871" d="M118.2,223.108c-.011-.083-.028-.163-.043-.244q-.054-.291-.137-.586c-.023-.083-.044-.165-.07-.247a7.677,7.677,0,0,0-.271-.736c-.01-.021-.016-.043-.025-.065l-.009-.023c-.058-.129-.136-.248-.2-.373a7.922,7.922,0,0,0-.385-.715c-.085-.14-.188-.262-.283-.4-.146-.209-.292-.417-.455-.609-.022-.025-.038-.055-.06-.081-.14-.161-.3-.3-.448-.441-.089-.086-.173-.183-.266-.262a5.623,5.623,0,0,0-.852-.615,2.518,2.518,0,0,0-2.538-.25l-1.851,1.076a2.521,2.521,0,0,1,2.54.25,5.784,5.784,0,0,1,.855.617c.09.08.172.174.262.258.174.168.346.336.507.524s.32.415.472.631c.088.125.186.242.268.372a8.747,8.747,0,0,1,.43.805c.05.1.114.2.16.3.013.033.024.064.038.1q.149.353.262.71c.025.082.047.16.069.242.055.2.1.4.138.6.014.078.029.157.041.235a5.211,5.211,0,0,1,.064.789,2.491,2.491,0,0,1-1.041,2.288l1.85-1.075a2.492,2.492,0,0,0,1.041-2.287A5.335,5.335,0,0,0,118.2,223.108Z" fill="#ffc38d"/>
          <g id="Grupo_906182" data-name="Grupo 906182">
            <path id="Trazado_636872" data-name="Trazado 636872" d="M112.848,218.791a7.858,7.858,0,0,1,3.566,6.178c-.006,2.265-1.612,3.179-3.591,2.038a7.839,7.839,0,0,1-3.559-6.163C109.271,218.569,110.869,217.648,112.848,218.791Z" fill="#f9991f"/>
          </g>
        </g>
      </g>
      <g id="Grupo_906186" data-name="Grupo 906186">
        <path id="Trazado_636873" data-name="Trazado 636873" d="M153.191,190.668l-4.323,2.512a6.133,6.133,0,0,1-5.565,0l-4.349-2.512a1.969,1.969,0,0,1-1.162-1.624l-.014,4.281a1.976,1.976,0,0,0,1.164,1.624l4.35,2.51a6.119,6.119,0,0,0,5.564,0l4.323-2.51a1.955,1.955,0,0,0,1.143-1.6l.012-4.282A1.957,1.957,0,0,1,153.191,190.668Z" fill="#2d3e50"/>
        <g id="Grupo_906185" data-name="Grupo 906185">
          <path id="Trazado_636874" data-name="Trazado 636874" d="M153.172,187.445c1.543.891,1.551,2.332.019,3.223l-4.323,2.512a6.133,6.133,0,0,1-5.565,0l-4.349-2.512c-1.543-.891-1.551-2.332-.019-3.223l4.323-2.512a6.119,6.119,0,0,1,5.564,0Z" fill="#587a93"/>
        </g>
      </g>
      <g id="Grupo_906192" data-name="Grupo 906192">
        <g id="Grupo_906191" data-name="Grupo 906191" style="isolation: isolate">
          <g id="Grupo_906189" data-name="Grupo 906189" style="isolation: isolate">
            <path id="Trazado_636875" data-name="Trazado 636875" d="M148.051,134l-.092,54.893a.925.925,0,0,1-.545.76,2.9,2.9,0,0,1-2.635,0,.929.929,0,0,1-.551-.766l.093-54.893a.936.936,0,0,0,.55.769,2.911,2.911,0,0,0,2.634,0A.932.932,0,0,0,148.051,134Z" fill="#2d3e50"/>
            <g id="Grupo_906188" data-name="Grupo 906188" clip-path="url(#clip-path)">
              <g id="Grupo_906187" data-name="Grupo 906187" style="isolation: isolate">
                <path id="Trazado_636876" data-name="Trazado 636876" d="M148.051,134l-.092,54.893a.925.925,0,0,1-.545.76,2.9,2.9,0,0,1-2.635,0,.929.929,0,0,1-.551-.766l.093-54.893a.936.936,0,0,0,.55.769,2.911,2.911,0,0,0,2.634,0,.932.932,0,0,0,.546-.763" fill="#2d3e50"/>
              </g>
            </g>
          </g>
          <g id="Grupo_906190" data-name="Grupo 906190">
            <path id="Trazado_636878" data-name="Trazado 636878" d="M147.5,133.232a.808.808,0,0,1,0,1.53,2.911,2.911,0,0,1-2.634,0,.808.808,0,0,1-.008-1.528A2.9,2.9,0,0,1,147.5,133.232Z" fill="#2d3e50"/>
          </g>
        </g>
      </g>
      <path id="Trazado_636879" data-name="Trazado 636879" d="M150.367,132.952a4.31,4.31,0,1,1-4.308-4.311A4.311,4.311,0,0,1,150.367,132.952Z" fill="#f9991f"/>
    </g>
  </g>
</svg>
