<svg xmlns="http://www.w3.org/2000/svg" xmlns:xlink="http://www.w3.org/1999/xlink" width="201" height="201" viewBox="0 0 201 201">
  <defs>
    <clipPath id="clip-path">
      <path id="Trazado_636890" data-name="Trazado 636890" d="M191.7,489.736a5.261,5.261,0,0,1,1.409-.543,7.226,7.226,0,0,1,3.2,0,5.2,5.2,0,0,1,1.405.542h0v0a6.635,6.635,0,0,0-6.015,0v0h0Z" fill="none"/>
    </clipPath>
    <clipPath id="clip-path-2">
      <path id="Trazado_636893" data-name="Trazado 636893" d="M197.71,489.734a2.98,2.98,0,0,1,.926.811,1.626,1.626,0,0,1,.311.923v-.009a2.119,2.119,0,0,0-1.237-1.731v0h0Z" fill="none"/>
    </clipPath>
    <clipPath id="clip-path-3">
      <path id="Trazado_636895" data-name="Trazado 636895" d="M190.438,491.493a1.611,1.611,0,0,1,.313-.934,3.008,3.008,0,0,1,.944-.823h0v0a2.13,2.13,0,0,0-1.257,1.754Z" fill="none"/>
    </clipPath>
    <clipPath id="clip-path-4">
      <path id="Trazado_636898" data-name="Trazado 636898" d="M200.282,488.811a4.567,4.567,0,0,1,1.208,1.221,2.685,2.685,0,0,1,.447,1.456v-.006A3.366,3.366,0,0,0,200.282,488.811Z" fill="none"/>
    </clipPath>
    <clipPath id="clip-path-5">
      <path id="Trazado_636900" data-name="Trazado 636900" d="M198.947,491.468a2.455,2.455,0,0,1-.309.928,4.223,4.223,0,0,1-.932.818,5.392,5.392,0,0,1-2.194.682c-2,.233-4-.388-4.76-1.478a2.5,2.5,0,0,1-.314-.927l0,.539a2.113,2.113,0,0,0,1.237,1.73,6.627,6.627,0,0,0,6.014,0,2.127,2.127,0,0,0,1.257-1.755C198.947,491.845,198.947,491.628,198.947,491.468Z" fill="none"/>
    </clipPath>
    <clipPath id="clip-path-6">
      <path id="Trazado_636902" data-name="Trazado 636902" d="M190.438,491.491v-.009a2.115,2.115,0,0,0,1.236,1.732,6.643,6.643,0,0,0,6.016,0,2.135,2.135,0,0,0,1.257-1.755v.009a2.455,2.455,0,0,1-.309.928,4.223,4.223,0,0,1-.932.818,5.392,5.392,0,0,1-2.194.682c-2,.233-4-.388-4.76-1.478A2.123,2.123,0,0,1,190.438,491.491Z" fill="none"/>
    </clipPath>
    <clipPath id="clip-path-7">
      <path id="Trazado_636904" data-name="Trazado 636904" d="M189.458,494.512v-.018a10.5,10.5,0,0,0,5.154,1.237v.015a12.354,12.354,0,0,1-2.745-.306A8.853,8.853,0,0,1,189.458,494.512Z" fill="none"/>
    </clipPath>
    <clipPath id="clip-path-8">
      <path id="Trazado_636908" data-name="Trazado 636908" d="M185.953,491.525v.545c0,1.281.845,2.559,2.525,3.534a13.533,13.533,0,0,0,12.283,0c1.712-.988,2.567-2.287,2.563-3.583v-.547c0,1.3-.851,2.6-2.564,3.583a13.534,13.534,0,0,1-12.282,0C186.8,494.083,185.955,492.8,185.953,491.525Z" fill="none"/>
    </clipPath>
  </defs>
  <g id="Grupo_906822" data-name="Grupo 906822" transform="translate(-1000 -1075)">
    <circle id="Elipse_6770" data-name="Elipse 6770" cx="100.5" cy="100.5" r="100.5" transform="translate(1000 1075)" fill="#0b5999"/>
    <g id="Grupo_906169" data-name="Grupo 906169" transform="translate(711.414 854.131)">
      <path id="Trazado_636840" data-name="Trazado 636840" d="M397.811,278.275a.4.4,0,0,0,.239.333l12.326,7.119a1.265,1.265,0,0,0,1.143,0l24.779-14.4c1.837-1.068,2.757-2.465,2.761-3.865l-.016,5.761c0,1.4-.924,2.8-2.761,3.867l-24.78,14.4a1.263,1.263,0,0,1-1.142,0l-12.326-7.116a.4.4,0,0,1-.238-.333Q397.8,281.154,397.811,278.275Z" fill="#72acd1"/>
      <g id="Grupo_906157" data-name="Grupo 906157">
        <path id="Trazado_636841" data-name="Trazado 636841" d="M436.26,263.546c3.718,2.147,3.734,5.633.038,7.78l-24.779,14.4a1.265,1.265,0,0,1-1.143,0l-12.326-7.119a.349.349,0,0,1,0-.66l24.779-14.4A14.814,14.814,0,0,1,436.26,263.546Z" fill="#5e9bc7"/>
      </g>
      <path id="Trazado_636842" data-name="Trazado 636842" d="M371.231,296.435c0,1.417.93,2.834,2.8,3.914a14.786,14.786,0,0,0,13.432,0l6.265-3.641a.4.4,0,0,0,.234-.328l-.016,5.763a.4.4,0,0,1-.235.328l-6.264,3.64a14.792,14.792,0,0,1-13.432,0c-1.872-1.08-2.806-2.5-2.8-3.912Z" fill="#72acd1"/>
      <g id="Grupo_906158" data-name="Grupo 906158">
        <path id="Trazado_636843" data-name="Trazado 636843" d="M393.727,296.047a.35.35,0,0,1,0,.661l-6.265,3.641a14.786,14.786,0,0,1-13.432,0c-3.719-2.147-3.739-5.629-.04-7.779l6.264-3.64a1.264,1.264,0,0,1,1.144,0Z" fill="#5e9bc7"/>
      </g>
      <g id="Grupo_906159" data-name="Grupo 906159">
        <path id="Trazado_636844" data-name="Trazado 636844" d="M399.176,288.772l-.007,2.3-1.435.834.007-2.3Z" fill="#6d6d6d"/>
      </g>
      <g id="Grupo_906160" data-name="Grupo 906160">
        <path id="Trazado_636845" data-name="Trazado 636845" d="M401.567,290.153l-.005,2.3-2.393-1.38.007-2.3Z" fill="#a8a8a8"/>
      </g>
      <path id="Trazado_636846" data-name="Trazado 636846" d="M405.279,288.658l-10.048-5.811,3.985-2.315,10.025,5.821h0l-.01,3.148-3.985,2.316.009-3.147Z" fill="#565140"/>
      <g id="Grupo_906161" data-name="Grupo 906161">
        <path id="Trazado_636847" data-name="Trazado 636847" d="M405.3,288.651l-.009,3.147L395.222,286l.009-3.149Z" fill="#2e2c22"/>
      </g>
      <g id="Grupo_906162" data-name="Grupo 906162">
        <path id="Trazado_636848" data-name="Trazado 636848" d="M393.511,285.5l-.006,2.306-1.435.834.006-2.307Z" fill="#6d6d6d"/>
      </g>
      <g id="Grupo_906163" data-name="Grupo 906163">
        <path id="Trazado_636849" data-name="Trazado 636849" d="M395.9,286.882l-.007,2.306-2.392-1.38.006-2.306Z" fill="#a8a8a8"/>
      </g>
      <g id="Grupo_906164" data-name="Grupo 906164">
        <path id="Trazado_636850" data-name="Trazado 636850" d="M395.648,283.588l9.158,5.288-7.477,4.363-9.158-5.289Zm-1.18,4.128,1.435-.834-2.392-1.38-1.435.832,2.392,1.382Zm5.664,3.271,1.435-.834-2.391-1.38-1.435.833,2.391,1.381Z" fill="#e8e8e8"/>
      </g>
      <path id="Trazado_636851" data-name="Trazado 636851" d="M388.386,290.12l1.447-.906-1.441-.838Z" fill="#6d6d6d"/>
      <path id="Trazado_636852" data-name="Trazado 636852" d="M388.171,287.95l9.157,5.289,7.478-4.363-.006,2.3-7.477,4.362-9.158-5.286Z" fill="#d3d3d3"/>
      <g id="Grupo_906165" data-name="Grupo 906165">
        <path id="Trazado_636853" data-name="Trazado 636853" d="M397.112,293.4l-.007,1.745-8.719-5.03.006-1.745Z" fill="#8f8f8f"/>
      </g>
      <g id="Grupo_906166" data-name="Grupo 906166">
        <path id="Trazado_636854" data-name="Trazado 636854" d="M395.991,293.685v.379l-7.022-4.055v-.378Z" fill="#302e23"/>
      </g>
      <g id="Grupo_906167" data-name="Grupo 906167">
        <path id="Trazado_636855" data-name="Trazado 636855" d="M395.98,293.685l.8-.474.331.2-1.133.653Z" fill="#24221a"/>
      </g>
      <g id="Grupo_906168" data-name="Grupo 906168">
        <path id="Trazado_636856" data-name="Trazado 636856" d="M388.957,289.631l.79-.473,7.022,4.053-.789.473Z" fill="#403d2e"/>
      </g>
    </g>
    <g id="Grupo_906253" data-name="Grupo 906253" transform="translate(870.955 690.32)">
      <path id="Trazado_636880" data-name="Trazado 636880" d="M247.247,503.293c0,1.3,1.7,2.347,3.8,2.347s3.8-1.051,3.8-2.347-1.7-2.346-3.8-2.346S247.247,502,247.247,503.293Z" fill="#455563"/>
      <path id="Trazado_636881" data-name="Trazado 636881" d="M189.707,470.11c0,1.3,1.7,2.347,3.8,2.347s3.8-1.051,3.8-2.347-1.7-2.346-3.8-2.346S189.707,468.815,189.707,470.11Z" fill="#455563"/>
      <path id="Trazado_636882" data-name="Trazado 636882" d="M208.7,525.19c0,1.3,1.7,2.347,3.8,2.347s3.8-1.051,3.8-2.347-1.7-2.343-3.8-2.343S208.7,523.9,208.7,525.19Z" fill="#455563"/>
      <path id="Trazado_636883" data-name="Trazado 636883" d="M151.831,492.008c0,1.3,1.7,2.345,3.8,2.345s3.8-1.048,3.8-2.345-1.7-2.346-3.8-2.346S151.831,490.714,151.831,492.008Z" fill="#455563"/>
      <g id="Grupo_906194" data-name="Grupo 906194">
        <path id="Trazado_636884" data-name="Trazado 636884" d="M191.364,470.037a1.283,1.283,0,0,0-.014,2.427,4.617,4.617,0,0,0,4.185,0,1.28,1.28,0,0,0,.017-2.422A4.608,4.608,0,0,0,191.364,470.037Z" fill="#e3e5e5"/>
      </g>
      <g id="Grupo_906195" data-name="Grupo 906195">
        <path id="Trazado_636885" data-name="Trazado 636885" d="M248.681,503.107a1.282,1.282,0,0,0-.014,2.426,4.615,4.615,0,0,0,4.184,0,1.282,1.282,0,0,0,.018-2.425A4.627,4.627,0,0,0,248.681,503.107Z" fill="#e3e5e5"/>
      </g>
      <g id="Grupo_906196" data-name="Grupo 906196">
        <path id="Trazado_636886" data-name="Trazado 636886" d="M210.023,525.006a1.282,1.282,0,0,0-.013,2.426,4.618,4.618,0,0,0,4.184,0,1.281,1.281,0,0,0,.017-2.424A4.614,4.614,0,0,0,210.023,525.006Z" fill="#e3e5e5"/>
      </g>
      <g id="Grupo_906197" data-name="Grupo 906197">
        <path id="Trazado_636887" data-name="Trazado 636887" d="M153.377,491.711a1.283,1.283,0,0,0-.014,2.428,4.625,4.625,0,0,0,4.184,0,1.281,1.281,0,0,0,.018-2.424A4.614,4.614,0,0,0,153.377,491.711Z" fill="#e3e5e5"/>
      </g>
      <path id="Trazado_636888" data-name="Trazado 636888" d="M150.216,494.158l59.532,34.594a6.267,6.267,0,0,0,5.685,0l40.9-23.614c1.576-.91,1.58-2.385.015-3.294l-59.532-34.6a6.267,6.267,0,0,0-5.685,0l-40.9,23.612C148.655,491.773,148.651,493.247,150.216,494.158Zm98.8,8.056a4.618,4.618,0,0,1,4.187,0,1.281,1.281,0,0,1-.018,2.424,4.616,4.616,0,0,1-4.183,0A1.281,1.281,0,0,1,249.016,502.214Zm-38.658,21.9a4.62,4.62,0,0,1,4.188,0,1.282,1.282,0,0,1-.017,2.425,4.618,4.618,0,0,1-4.184,0A1.282,1.282,0,0,1,210.358,524.111ZM191.7,469.144a4.614,4.614,0,0,1,4.188,0,1.28,1.28,0,0,1-.018,2.422,4.621,4.621,0,0,1-4.184,0A1.281,1.281,0,0,1,191.7,469.144Zm-37.987,21.674a4.612,4.612,0,0,1,4.187,0,1.281,1.281,0,0,1-.018,2.424,4.616,4.616,0,0,1-4.183,0A1.282,1.282,0,0,1,153.713,490.818Z" fill="#4b5151"/>
      <g id="Grupo_906231" data-name="Grupo 906231">
        <g id="Grupo_906200" data-name="Grupo 906200" style="isolation: isolate">
          <g id="Grupo_906199" data-name="Grupo 906199" clip-path="url(#clip-path)">
            <g id="Grupo_906198" data-name="Grupo 906198" style="isolation: isolate">
              <path id="Trazado_636889" data-name="Trazado 636889" d="M190.438,491.482l0,.548a2.129,2.129,0,0,1,1.256-1.754,6.625,6.625,0,0,1,6.016,0,2.11,2.11,0,0,1,1.236,1.729v-.546a2.119,2.119,0,0,0-1.237-1.731,6.635,6.635,0,0,0-6.015,0,2.13,2.13,0,0,0-1.257,1.754" fill="#bdd4de"/>
            </g>
          </g>
        </g>
        <path id="Trazado_636891" data-name="Trazado 636891" d="M190.438,491.482c0-.014,0-.03,0-.044,0-.036.005-.07.009-.114a1.8,1.8,0,0,1,.032-.188.213.213,0,0,0,.008-.027,1.68,1.68,0,0,1,.083-.238l.01-.023a2.605,2.605,0,0,1,1.111-1.12c.064-.037.14-.063.208-.1.085-.043.174-.084.262-.124.125-.054.252-.106.384-.15.088-.031.189-.06.293-.089.146-.042.292-.08.444-.113.126-.024.271-.052.452-.078.127-.016.253-.027.382-.038.071-.008.146-.009.221-.012.24-.011.477-.012.717,0,.084,0,.167.005.244.013.122.011.242.021.362.037.2.027.355.057.487.085s.248.06.37.093.256.072.363.11.19.068.283.108c.133.055.257.117.379.178.052.029.113.049.164.078a2.337,2.337,0,0,1,1.187,1.381l0,.015a1.373,1.373,0,0,1,.046.335v.012c0,.16,0,.374,0,.534a2.11,2.11,0,0,0-1.236-1.729,6.625,6.625,0,0,0-6.016,0,3.248,3.248,0,0,0-.295.188,1.967,1.967,0,0,0-.961,1.566l0-.537h0Z" fill="#bdd4de"/>
        <g id="Grupo_906203" data-name="Grupo 906203" style="isolation: isolate">
          <g id="Grupo_906202" data-name="Grupo 906202" clip-path="url(#clip-path-2)">
            <g id="Grupo_906201" data-name="Grupo 906201" style="isolation: isolate">
              <path id="Trazado_636892" data-name="Trazado 636892" d="M190.438,491.482l0,.548a2.129,2.129,0,0,1,1.256-1.754,6.625,6.625,0,0,1,6.016,0,2.11,2.11,0,0,1,1.236,1.729v-.546a2.119,2.119,0,0,0-1.237-1.731,6.635,6.635,0,0,0-6.015,0,2.13,2.13,0,0,0-1.257,1.754" fill="#bdd4de"/>
            </g>
          </g>
        </g>
        <g id="Grupo_906206" data-name="Grupo 906206" style="isolation: isolate">
          <g id="Grupo_906205" data-name="Grupo 906205" clip-path="url(#clip-path-3)">
            <g id="Grupo_906204" data-name="Grupo 906204" style="isolation: isolate">
              <path id="Trazado_636894" data-name="Trazado 636894" d="M190.438,491.482l0,.548a2.129,2.129,0,0,1,1.256-1.754,6.625,6.625,0,0,1,6.016,0,2.11,2.11,0,0,1,1.236,1.729v-.546a2.119,2.119,0,0,0-1.237-1.731,6.635,6.635,0,0,0-6.015,0,2.13,2.13,0,0,0-1.257,1.754" fill="#bdd4de"/>
            </g>
          </g>
        </g>
        <g id="Grupo_906207" data-name="Grupo 906207">
          <path id="Trazado_636896" data-name="Trazado 636896" d="M201.906,491.889a2.755,2.755,0,0,0-.665-2.209l-.009-.005A2.761,2.761,0,0,1,201.906,491.889Z" fill="#c84234"/>
        </g>
        <g id="Grupo_906210" data-name="Grupo 906210" style="isolation: isolate">
          <g id="Grupo_906209" data-name="Grupo 906209" clip-path="url(#clip-path-4)">
            <g id="Grupo_906208" data-name="Grupo 906208" style="isolation: isolate">
              <path id="Trazado_636897" data-name="Trazado 636897" d="M199.816,488.513l0,.547a3.628,3.628,0,0,1,2.121,2.969l0-.547a3.625,3.625,0,0,0-2.121-2.969" fill="#bdd4de"/>
            </g>
          </g>
        </g>
        <g id="Grupo_906213" data-name="Grupo 906213" style="isolation: isolate">
          <g id="Grupo_906212" data-name="Grupo 906212" clip-path="url(#clip-path-5)">
            <g id="Grupo_906211" data-name="Grupo 906211" style="isolation: isolate">
              <path id="Trazado_636899" data-name="Trazado 636899" d="M190.438,491.482l0,.548a2.113,2.113,0,0,0,1.237,1.73,6.627,6.627,0,0,0,6.014,0,2.125,2.125,0,0,0,1.257-1.755v-.546a2.135,2.135,0,0,1-1.257,1.755,6.643,6.643,0,0,1-6.016,0,2.115,2.115,0,0,1-1.236-1.732" fill="#2b3a42"/>
            </g>
          </g>
        </g>
        <g id="Grupo_906216" data-name="Grupo 906216" style="isolation: isolate">
          <g id="Grupo_906215" data-name="Grupo 906215" clip-path="url(#clip-path-6)">
            <g id="Grupo_906214" data-name="Grupo 906214" style="isolation: isolate">
              <path id="Trazado_636901" data-name="Trazado 636901" d="M190.438,491.482l0,.548a2.113,2.113,0,0,0,1.237,1.73,6.627,6.627,0,0,0,6.014,0,2.125,2.125,0,0,0,1.257-1.755v-.546a2.135,2.135,0,0,1-1.257,1.755,6.643,6.643,0,0,1-6.016,0,2.115,2.115,0,0,1-1.236-1.732" fill="#2b3a42"/>
            </g>
          </g>
        </g>
        <g id="Grupo_906219" data-name="Grupo 906219" style="isolation: isolate">
          <g id="Grupo_906218" data-name="Grupo 906218" clip-path="url(#clip-path-7)">
            <g id="Grupo_906217" data-name="Grupo 906217" style="isolation: isolate">
              <path id="Trazado_636903" data-name="Trazado 636903" d="M189.458,494.494v.545a11.381,11.381,0,0,0,10.325,0,3.65,3.65,0,0,0,2.155-3.009l0-.548a3.647,3.647,0,0,1-2.155,3.01,11.373,11.373,0,0,1-10.324,0" fill="#bdd4de"/>
            </g>
          </g>
        </g>
        <g id="Grupo_906220" data-name="Grupo 906220">
          <path id="Trazado_636905" data-name="Trazado 636905" d="M194.006,487.291a10.794,10.794,0,0,1,5.81,1.222c2.84,1.65,2.829,4.327-.034,5.979a11.373,11.373,0,0,1-10.324,0c-2.841-1.651-2.826-4.331.034-5.981A10.247,10.247,0,0,1,194.006,487.291Zm3.684,5.923c1.67-.964,1.674-2.524.02-3.486a6.635,6.635,0,0,0-6.015,0c-1.666.962-1.678,2.522-.021,3.486a6.643,6.643,0,0,0,6.016,0" fill="#80afcd"/>
        </g>
        <g id="Grupo_906221" data-name="Grupo 906221">
          <path id="Trazado_636906" data-name="Trazado 636906" d="M201.232,489.675l.009.005c-.019-.022-.037-.044-.057-.065l-.01-.007Z" fill="#c84234"/>
        </g>
        <g id="Grupo_906224" data-name="Grupo 906224" style="isolation: isolate">
          <g id="Grupo_906223" data-name="Grupo 906223" clip-path="url(#clip-path-8)">
            <g id="Grupo_906222" data-name="Grupo 906222" style="isolation: isolate">
              <path id="Trazado_636907" data-name="Trazado 636907" d="M185.953,491.525v.545c0,1.281.845,2.559,2.525,3.534a13.533,13.533,0,0,0,12.283,0c1.712-.988,2.567-2.287,2.563-3.583v-.547c0,1.3-.851,2.6-2.564,3.583a13.534,13.534,0,0,1-12.282,0c-1.681-.976-2.523-2.255-2.525-3.534" fill="#2b3a42"/>
            </g>
          </g>
        </g>
        <g id="Grupo_906225" data-name="Grupo 906225">
          <path id="Trazado_636909" data-name="Trazado 636909" d="M212.506,481.186a15.425,15.425,0,0,1,6.376,6.309c1.835,3.775.992,7.9-2.521,11.362a19.573,19.573,0,0,1-3.971,2.963c-9.871,5.7-25.821,5.7-35.622,0s-9.754-14.935.116-20.634S202.7,475.488,212.506,481.186ZM200.76,495.061c3.4-1.963,3.421-5.152.041-7.116a13.543,13.543,0,0,0-12.286,0c-3.4,1.965-3.417,5.151-.037,7.115a13.534,13.534,0,0,0,12.282,0" fill="#e0e2e4"/>
        </g>
        <g id="Grupo_906226" data-name="Grupo 906226">
          <path id="Trazado_636910" data-name="Trazado 636910" d="M200.8,487.945c3.38,1.964,3.362,5.153-.041,7.116a13.534,13.534,0,0,1-12.282,0c-3.38-1.964-3.366-5.15.037-7.115A13.543,13.543,0,0,1,200.8,487.945Zm-1.019,6.547a3.906,3.906,0,0,0,2.124-2.61c.195-1.2-.5-2.448-2.085-3.371a10.8,10.8,0,0,0-5.815-1.22,10.247,10.247,0,0,0-4.514,1.222c-2.86,1.65-2.875,4.33-.034,5.981a11.373,11.373,0,0,0,10.324,0" fill="#253239"/>
        </g>
        <g id="Grupo_906227" data-name="Grupo 906227">
          <path id="Trazado_636911" data-name="Trazado 636911" d="M194.006,487.291a11.99,11.99,0,0,1,3.979.446l-.009-.006A12,12,0,0,0,194.006,487.291Z" fill="#c84234"/>
        </g>
        <g id="Grupo_906228" data-name="Grupo 906228">
          <path id="Trazado_636912" data-name="Trazado 636912" d="M197.985,487.737l.117.035-.012,0c-.037-.012-.075-.026-.114-.037Z" fill="#c84234"/>
        </g>
        <g id="Grupo_906230" data-name="Grupo 906230" style="isolation: isolate">
          <g id="Grupo_906229" data-name="Grupo 906229" style="isolation: isolate">
            <path id="Trazado_636913" data-name="Trazado 636913" d="M169.447,491.575l0,.545c.01,3.711,2.449,7.415,7.321,10.245,9.8,5.7,25.751,5.7,35.622,0a19.451,19.451,0,0,0,3.971-2.962,10.43,10.43,0,0,0,3.465-7.424l0-.545a10.432,10.432,0,0,1-3.464,7.423,19.573,19.573,0,0,1-3.971,2.963c-9.871,5.7-25.821,5.7-35.622,0-4.872-2.831-7.31-6.536-7.321-10.245" fill="#cdd1d3"/>
          </g>
        </g>
      </g>
      <g id="Grupo_906233" data-name="Grupo 906233">
        <g id="Grupo_906232" data-name="Grupo 906232">
          <path id="Trazado_636914" data-name="Trazado 636914" d="M229.922,520.821l.014,4.635,12.8-7.394-.012-4.633Z" fill="#a3b7bf"/>
        </g>
      </g>
      <g id="Grupo_906235" data-name="Grupo 906235">
        <g id="Grupo_906234" data-name="Grupo 906234">
          <path id="Trazado_636915" data-name="Trazado 636915" d="M230.117,520.849l.01,2.556,10.678-6.239-.011-2.554Z" fill="#273545"/>
        </g>
      </g>
      <path id="Trazado_636916" data-name="Trazado 636916" d="M149.045,492.52c.011,3.642.022,1.833.032,5.475a2,2,0,0,0,1.17,1.639l59.531,34.6a6.271,6.271,0,0,0,5.687,0l40.9-23.613a2.01,2.01,0,0,0,1.184-1.657l-.03-5.477a2.015,2.015,0,0,1-1.186,1.657l-40.9,23.614a6.267,6.267,0,0,1-5.685,0l-59.532-34.594A2,2,0,0,1,149.045,492.52Zm81.332,29.316,11.745-6.782.011,2.435-11.744,6.781Z" fill="#939393"/>
      <g id="Grupo_906252" data-name="Grupo 906252">
        <g id="Grupo_906241" data-name="Grupo 906241">
          <g id="Grupo_906238" data-name="Grupo 906238">
            <g id="Grupo_906236" data-name="Grupo 906236">
              <path id="Trazado_636917" data-name="Trazado 636917" d="M249.5,523.67l.009,3.279-1.26-.733-2.1,1.214-.009-3.277,2.1-1.215Z" fill="#707070"/>
              <path id="Trazado_636918" data-name="Trazado 636918" d="M243.265,525.81l1.259.731.009,3.279-1.259-.731-2.1,1.213-.009-3.278Z" fill="#707070"/>
            </g>
            <path id="Trazado_636919" data-name="Trazado 636919" d="M245.66,530.127l8.042-4.644.009,3.28-8.042,4.643-8.5-4.943-.01-3.278Z" fill="#a1a1a1"/>
            <g id="Grupo_906237" data-name="Grupo 906237">
              <path id="Trazado_636920" data-name="Trazado 636920" d="M253.7,525.483l-8.042,4.644-8.5-4.942,8.042-4.644Zm-11.279,2.271,2.1-1.213-1.259-.731-2.1,1.213,1.259.731m4.973-2.87,2.1-1.214-1.259-.732-2.1,1.214,1.259.732" fill="#b4b4b4"/>
            </g>
          </g>
          <g id="Grupo_906240" data-name="Grupo 906240">
            <path id="Trazado_636921" data-name="Trazado 636921" d="M247.279,531.164a7.561,7.561,0,0,0,2.2.818l1.986.425a3.285,3.285,0,0,0,2.2-.282l5.551-3.2a1.054,1.054,0,0,0,.617-.865l.016,5.465a1.057,1.057,0,0,1-.618.865l-5.551,3.2a3.294,3.294,0,0,1-2.2.281l-1.985-.425a7.6,7.6,0,0,1-2.2-.817l-5.119-2.977-.016-5.462Z" fill="#6999b1"/>
            <g id="Grupo_906239" data-name="Grupo 906239">
              <path id="Trazado_636922" data-name="Trazado 636922" d="M242.159,528.19l5.12,2.974a7.561,7.561,0,0,0,2.2.818l1.986.425a3.285,3.285,0,0,0,2.2-.282l5.551-3.2c.578-.334.768-.831.493-1.274l-.728-1.153a4.027,4.027,0,0,0-1.4-1.277l-5.12-2.977Z" fill="#80afcd"/>
            </g>
          </g>
        </g>
        <g id="Grupo_906247" data-name="Grupo 906247">
          <g id="Grupo_906244" data-name="Grupo 906244">
            <g id="Grupo_906242" data-name="Grupo 906242">
              <path id="Trazado_636923" data-name="Trazado 636923" d="M194.082,534.284l.009,3.277-1.258-.73-2.1,1.213-.009-3.278,2.1-1.214Z" fill="#707070"/>
              <path id="Trazado_636924" data-name="Trazado 636924" d="M187.85,536.424l1.258.732.009,3.277-1.258-.73-2.1,1.213-.009-3.278Z" fill="#707070"/>
            </g>
            <path id="Trazado_636925" data-name="Trazado 636925" d="M190.244,540.74l8.042-4.642.01,3.279-8.042,4.642-8.5-4.942-.009-3.28Z" fill="#a1a1a1"/>
            <g id="Grupo_906243" data-name="Grupo 906243">
              <path id="Trazado_636926" data-name="Trazado 636926" d="M198.286,536.1l-8.042,4.642-8.5-4.943,8.042-4.641Zm-11.279,2.271,2.1-1.213-1.258-.732-2.1,1.214,1.259.731m4.973-2.872,2.1-1.213-1.259-.731-2.1,1.214,1.258.73" fill="#b4b4b4"/>
            </g>
          </g>
          <g id="Grupo_906246" data-name="Grupo 906246">
            <path id="Trazado_636927" data-name="Trazado 636927" d="M191.864,541.778a7.611,7.611,0,0,0,2.2.818l1.986.426a3.3,3.3,0,0,0,2.2-.282l5.552-3.206a1.051,1.051,0,0,0,.616-.865l.016,5.465a1.054,1.054,0,0,1-.617.865l-5.551,3.206a3.287,3.287,0,0,1-2.2.28l-1.986-.425a7.585,7.585,0,0,1-2.2-.817l-5.119-2.974-.015-5.466Z" fill="#6999b1"/>
            <g id="Grupo_906245" data-name="Grupo 906245">
              <path id="Trazado_636928" data-name="Trazado 636928" d="M186.745,538.8l5.119,2.975a7.611,7.611,0,0,0,2.2.818l1.986.426a3.3,3.3,0,0,0,2.2-.282l5.552-3.206c.577-.333.768-.831.493-1.274l-.729-1.153a4.027,4.027,0,0,0-1.4-1.277l-5.119-2.976Z" fill="#80afcd"/>
            </g>
          </g>
        </g>
        <g id="Grupo_906251" data-name="Grupo 906251">
          <g id="Grupo_906248" data-name="Grupo 906248">
            <path id="Trazado_636929" data-name="Trazado 636929" d="M256.673,531.868a2.027,2.027,0,0,0-.983,1.544c-.024.584.377.84.9.568a2.02,2.02,0,0,0,.984-1.546C257.6,531.855,257.194,531.6,256.673,531.868Z" fill="#80afcd"/>
          </g>
          <g id="Grupo_906249" data-name="Grupo 906249">
            <path id="Trazado_636930" data-name="Trazado 636930" d="M236.483,564.242a23.469,23.469,0,0,0,13.616-3.62l12.424-8.309c4.314-2.741,10.984-11.956-3.725-19.8l-1.57-.743-1.315,2.2,1.738.967c11.917,5.116,7.144,12.756,3.436,15.111l-12.425,8.31a20.868,20.868,0,0,1-22.317-.016l-24.687-15.727-1.565,2.018L224.9,560.6A23.445,23.445,0,0,0,236.483,564.242Z" fill="#80afcd"/>
          </g>
          <g id="Grupo_906250" data-name="Grupo 906250">
            <path id="Trazado_636931" data-name="Trazado 636931" d="M200.956,542.6a2.02,2.02,0,0,0-.983,1.542c-.024.584.377.838.9.569a2.027,2.027,0,0,0,.983-1.548C201.877,542.58,201.476,542.323,200.956,542.6Z" fill="#80afcd"/>
          </g>
        </g>
      </g>
    </g>
  </g>
</svg>
