<svg xmlns="http://www.w3.org/2000/svg" xmlns:xlink="http://www.w3.org/1999/xlink" width="201" height="201" viewBox="0 0 201 201">
  <defs>
    <clipPath id="clip-path">
      <path id="Trazado_636826" data-name="Trazado 636826" d="M68.661,468.869v.375a1.679,1.679,0,0,1-.981,1.374,5.287,5.287,0,0,1-4.794,0,1.7,1.7,0,0,1-1-1.4v-.374a1.7,1.7,0,0,0,1,1.4,5.284,5.284,0,0,0,4.794,0A1.676,1.676,0,0,0,68.661,468.869Z" transform="translate(-61.884 -468.844)" fill="none"/>
    </clipPath>
  </defs>
  <g id="Grupo_906821" data-name="Grupo 906821" transform="translate(-402 -798)">
    <circle id="Elipse_6768" data-name="Elipse 6768" cx="100.5" cy="100.5" r="100.5" transform="translate(402 798)" fill="#0b5999"/>
    <g id="Grupo_906156" data-name="Grupo 906156" transform="translate(371.873 493.745)">
      <g id="Grupo_906141" data-name="Grupo 906141" transform="translate(97.042 356.657)">
        <g id="Grupo_906131" data-name="Grupo 906131" transform="translate(0 31.823)">
          <path id="Trazado_636805" data-name="Trazado 636805" d="M276.717,427.818c-3.471-.907-5.161-.284-7.154,1.142-1.216.869.679,2.229,2.229,3.129l69.218,40.364a8.42,8.42,0,0,0,4.209,1.521,8.958,8.958,0,0,0,4.414-1.088l49.054-28.322c1.571-.906,3.165-2.153-1.641-4.128Z" transform="translate(-269.175 -427.393)" fill="#91793d" opacity="0.33" style="mix-blend-mode: multiply;isolation: isolate"/>
        </g>
        <path id="Trazado_636806" data-name="Trazado 636806" d="M395.773,417.9c-.708.118-66.408-40.222-66.408-40.222L283.954,405.04l5.543,3.421,39.986-23.826,60.274,38.335Z" transform="translate(-275.218 -375.24)" fill="#3d3d3d"/>
        <g id="Grupo_906132" data-name="Grupo 906132" transform="translate(11.501 6.781)">
          <path id="Trazado_636807" data-name="Trazado 636807" d="M288.632,409.758l64.591,37.536,42.836-24.731-64.591-37.537Z" transform="translate(-288.632 -385.026)" fill="#282828"/>
        </g>
        <path id="Trazado_636808" data-name="Trazado 636808" d="M272.264,406.558l70.928,41.219a7.379,7.379,0,0,0,6.695,0l49.054-28.32c1.855-1.072,1.865-2.811.021-3.883l-70.928-41.219a7.4,7.4,0,0,0-6.7,0L272.28,402.68C270.424,403.751,270.419,405.487,272.264,406.558Zm9.11-2.552,42.836-24.732L388.8,416.81l-42.836,24.732Z" transform="translate(-269.874 -373.555)" fill="#686868"/>
        <path id="Trazado_636809" data-name="Trazado 636809" d="M272.264,428.054l70.928,41.219a7.379,7.379,0,0,0,6.695,0l49.054-28.32a2.373,2.373,0,0,0,1.4-1.955l.018,2.309a2.369,2.369,0,0,1-1.4,1.955l-49.053,28.321a7.376,7.376,0,0,1-6.7,0l-70.928-41.219a2.351,2.351,0,0,1-1.379-1.93c-.007-2.051-.012-.258-.019-2.309A2.358,2.358,0,0,0,272.264,428.054Z" transform="translate(-269.873 -395.052)" fill="#ddd"/>
        <g id="Grupo_906137" data-name="Grupo 906137" transform="translate(98.838 55.984)">
          <g id="Grupo_906136" data-name="Grupo 906136" style="isolation: isolate">
            <g id="Grupo_906134" data-name="Grupo 906134" transform="translate(0 1.421)" style="isolation: isolate">
              <g id="Grupo_906133" data-name="Grupo 906133">
                <path id="Trazado_636810" data-name="Trazado 636810" d="M436.39,470.692v.274a1.222,1.222,0,0,0,.715,1,3.851,3.851,0,0,0,3.5,0,1.238,1.238,0,0,0,.73-1.02v-.274a1.238,1.238,0,0,1-.729,1.02,3.854,3.854,0,0,1-3.5,0,1.22,1.22,0,0,1-.715-1Z" transform="translate(-436.39 -470.674)" fill="#3d3d3d"/>
              </g>
            </g>
            <g id="Grupo_906135" data-name="Grupo 906135" transform="translate(0)">
              <path id="Trazado_636811" data-name="Trazado 636811" d="M437.121,468.688a1.069,1.069,0,0,0-.015,2.023,3.854,3.854,0,0,0,3.5,0,1.07,1.07,0,0,0,.011-2.024A3.853,3.853,0,0,0,437.121,468.688Z" transform="translate(-436.39 -468.269)" fill="#565656"/>
            </g>
          </g>
        </g>
        <g id="Grupo_906138" data-name="Grupo 906138" transform="translate(102.655 58.978)">
          <path id="Trazado_636812" data-name="Trazado 636812" d="M447.611,474.358l-.059-1.022-4.7,2.719.036,1.022Z" transform="translate(-442.848 -473.336)" fill="#686867"/>
          <path id="Trazado_636813" data-name="Trazado 636813" d="M447.611,474.651l-.829-.6-3.934,2.294.036,1.022Z" transform="translate(-442.848 -473.629)" fill="#4c4c4c"/>
        </g>
        <path id="Trazado_636814" data-name="Trazado 636814" d="M291.838,441.966a.213.213,0,0,1,.208.018l10.155,5.881a.511.511,0,0,1,.094.072.706.706,0,0,1,.2.437.206.206,0,0,1-.085.188L302,448.8a.2.2,0,0,0,.086-.187.691.691,0,0,0-.189-.424.5.5,0,0,0-.105-.085l-10.155-5.88a.209.209,0,0,0-.208-.019Z" transform="translate(-278.273 -401.522)" fill="#bfc1c1"/>
        <g id="Grupo_906139" data-name="Grupo 906139" transform="translate(13.066 40.664)">
          <path id="Trazado_636815" data-name="Trazado 636815" d="M291.574,442.389c-.16-.09-.293-.017-.294.17a.644.644,0,0,0,.292.506l10.155,5.88c.162.094.295.02.3-.167a.652.652,0,0,0-.294-.509Z" transform="translate(-291.28 -442.351)" fill="#838484"/>
        </g>
        <g id="Grupo_906140" data-name="Grupo 906140" transform="translate(28.173 15.749)">
          <path id="Trazado_636816" data-name="Trazado 636816" d="M317.3,400.461c-.6.348-.611.914-.013,1.262a2.415,2.415,0,0,0,2.186,0,.667.667,0,0,0,0-1.262A2.389,2.389,0,0,0,317.3,400.461Z" transform="translate(-316.838 -400.199)" fill="#3d3d3d"/>
        </g>
      </g>
      <g id="Grupo_906155" data-name="Grupo 906155" transform="translate(37.775 395.859)">
        <path id="Trazado_636817" data-name="Trazado 636817" d="M137.455,417.742l9.493,6.3,1.234-2.5-9.148-6.53Z" transform="translate(-78.537 -410.243)" fill="#545453"/>
        <path id="Trazado_636818" data-name="Trazado 636818" d="M147.683,424.474a.749.749,0,0,1-1.022.272l-7.388-4.348a.746.746,0,1,1,.751-1.29l7.387,4.347A.748.748,0,0,1,147.683,424.474Z" transform="translate(-79.129 -411.875)" fill="#3d3d3d"/>
        <path id="Trazado_636819" data-name="Trazado 636819" d="M53.556,436.984l39.095-22.72,25.338,14.629-.013,4.493L92.637,418.758,53.544,441.477Z" transform="translate(-44.224 -409.936)" fill="#3d3d3d"/>
        <g id="Grupo_906142" data-name="Grupo 906142" transform="translate(9.319 27.048)">
          <path id="Trazado_636820" data-name="Trazado 636820" d="M78.895,467.33l-.013,4.493L53.544,457.195l.012-4.493Z" transform="translate(-53.544 -452.702)" fill="#c1c1c1"/>
        </g>
        <g id="Grupo_906143" data-name="Grupo 906143" transform="translate(34.657 18.958)">
          <path id="Trazado_636821" data-name="Trazado 636821" d="M135.519,439.015l-.013,4.493-39.1,22.719.013-4.493Z" transform="translate(-96.411 -439.015)" fill="gray"/>
        </g>
        <g id="Grupo_906144" data-name="Grupo 906144" transform="translate(9.332 5.247)">
          <path id="Trazado_636822" data-name="Trazado 636822" d="M118,430.448,78.9,453.167,53.564,438.539l39.095-22.72Z" transform="translate(-53.564 -415.818)" fill="#dbdddd"/>
        </g>
        <g id="Grupo_906145" data-name="Grupo 906145" transform="translate(9.332 5.247)">
          <path id="Trazado_636823" data-name="Trazado 636823" d="M118,430.448,78.9,453.167,53.564,438.539l39.095-22.72Z" transform="translate(-53.564 -415.818)" fill="#353535"/>
        </g>
        <path id="Trazado_636824" data-name="Trazado 636824" d="M37.79,448.885a2.3,2.3,0,0,0,1.357,1.894l24.27,14.013a7.161,7.161,0,0,0,6.5,0l47.748-27.748A2.283,2.283,0,0,0,119,435.175q-.005,2.247-.012,4.492a2.284,2.284,0,0,1-1.336,1.87L69.906,469.285a7.161,7.161,0,0,1-6.5,0L39.135,455.274a2.3,2.3,0,0,1-1.357-1.9Q37.783,451.13,37.79,448.885Z" transform="translate(-37.777 -418.487)" fill="#d6d6d6"/>
        <g id="Grupo_906148" data-name="Grupo 906148" transform="translate(14.249 36.59)" style="isolation: isolate">
          <g id="Grupo_906147" data-name="Grupo 906147" clip-path="url(#clip-path)">
            <g id="Grupo_906146" data-name="Grupo 906146">
              <path id="Trazado_636825" data-name="Trazado 636825" d="M68.661,468.869v.375a1.679,1.679,0,0,1-.981,1.374,5.287,5.287,0,0,1-4.794,0,1.7,1.7,0,0,1-1-1.4v-.374a1.7,1.7,0,0,0,1,1.4,5.284,5.284,0,0,0,4.794,0,1.676,1.676,0,0,0,.981-1.374Z" transform="translate(-61.884 -468.844)" fill="#212121"/>
            </g>
          </g>
        </g>
        <path id="Trazado_636827" data-name="Trazado 636827" d="M117.654,421.733,93.383,407.721a7.166,7.166,0,0,0-6.5,0L39.134,435.469c-1.789,1.039-1.779,2.726.022,3.765l24.27,14.013a7.16,7.16,0,0,0,6.5,0L117.675,425.5C119.464,424.459,119.454,422.774,117.654,421.733Zm-19.725-7.691a.746.746,0,0,1,1.021-.268l7.367,4.382a.747.747,0,0,1-.754,1.29L98.2,415.064A.748.748,0,0,1,97.929,414.042Zm-40.108,31.19a5.282,5.282,0,0,1-4.788,0c-1.326-.766-1.339-2.009-.021-2.774a5.282,5.282,0,0,1,4.794,0C59.131,443.221,59.145,444.462,57.821,445.233Zm14.635,3.385L47.118,433.99,86.212,411.27,111.551,425.9Z" transform="translate(-37.786 -406.941)" fill="#4c4c4c"/>
        <path id="Trazado_636828" data-name="Trazado 636828" d="M52.941,473.568l.1-1.645L60.61,476.3l-.057,1.646Z" transform="translate(-43.978 -433.513)" fill="#545453"/>
        <path id="Trazado_636829" data-name="Trazado 636829" d="M52.941,474.041l1.335-.962,6.334,3.694-.057,1.646Z" transform="translate(-43.978 -433.986)" fill="#4c4c4c"/>
        <g id="Grupo_906150" data-name="Grupo 906150" transform="translate(63.549 27.589)">
          <path id="Trazado_636830" data-name="Trazado 636830" d="M146.59,453.8a.925.925,0,0,1,.932-.092l.472.274-.932.093a2.857,2.857,0,0,0-1.3,2.25.917.917,0,0,0,.382.839l-.472-.274a.915.915,0,0,1-.382-.84A2.863,2.863,0,0,1,146.59,453.8Z" transform="translate(-145.29 -453.617)" fill="#a0a5a6"/>
          <g id="Grupo_906149" data-name="Grupo 906149" transform="translate(0.472 0.274)">
            <path id="Trazado_636831" data-name="Trazado 636831" d="M147.388,454.262a2.857,2.857,0,0,0-1.3,2.25c0,.83.589,1.164,1.308.75A2.874,2.874,0,0,0,148.7,455C148.7,454.173,148.109,453.844,147.388,454.262Z" transform="translate(-146.088 -454.081)" fill="#d6d8d8"/>
          </g>
        </g>
        <g id="Grupo_906152" data-name="Grupo 906152" transform="translate(57.391 31.12)">
          <path id="Trazado_636832" data-name="Trazado 636832" d="M136.172,459.772a.924.924,0,0,1,.932-.093l.472.274-.932.093a2.858,2.858,0,0,0-1.3,2.25.919.919,0,0,0,.382.84l-.472-.275a.916.916,0,0,1-.382-.839A2.86,2.86,0,0,1,136.172,459.772Z" transform="translate(-134.872 -459.591)" fill="#a0a5a6"/>
          <g id="Grupo_906151" data-name="Grupo 906151" transform="translate(0.472 0.274)">
            <path id="Trazado_636833" data-name="Trazado 636833" d="M136.97,460.235a2.858,2.858,0,0,0-1.3,2.25c0,.829.589,1.164,1.308.75a2.875,2.875,0,0,0,1.3-2.257C138.278,460.147,137.691,459.817,136.97,460.235Z" transform="translate(-135.67 -460.054)" fill="#d6d8d8"/>
          </g>
        </g>
        <path id="Trazado_636834" data-name="Trazado 636834" d="M166.565,442.691l-1.659.983a.146.146,0,0,0-.07.138l.064,2.524a.059.059,0,0,0,.089.047l1.584-.874Z" transform="translate(-89.734 -421.56)" fill="#505151"/>
        <path id="Trazado_636835" data-name="Trazado 636835" d="M164.837,443.865a.146.146,0,0,1,.07-.138l1.529-.907.009,2.7-1.544.852Z" transform="translate(-89.734 -421.612)"/>
        <path id="Trazado_636836" data-name="Trazado 636836" d="M167.2,442.984a.175.175,0,0,1,.172-.017l.64.372a.17.17,0,0,0-.172.016.537.537,0,0,0-.243.42l.006,2.218a.165.165,0,0,0,.072.154l-.64-.371a.17.17,0,0,1-.072-.155l-.006-2.217A.541.541,0,0,1,167.2,442.984Z" transform="translate(-90.6 -421.666)" fill="#a0a5a6"/>
        <g id="Grupo_906153" data-name="Grupo 906153" transform="translate(76.993 21.656)">
          <path id="Trazado_636837" data-name="Trazado 636837" d="M168.278,443.612a.537.537,0,0,0-.243.42l.006,2.218c0,.152.112.216.244.138a.539.539,0,0,0,.244-.42l-.007-2.216C168.521,443.6,168.411,443.535,168.278,443.612Z" transform="translate(-168.035 -443.579)" fill="#dbdddd"/>
        </g>
        <path id="Trazado_636838" data-name="Trazado 636838" d="M165.577,443.683l.024,2.655-.7.387-.064-2.506a.146.146,0,0,1,.07-.138Z" transform="translate(-89.734 -421.966)" fill="#db4d4d"/>
        <g id="Grupo_906154" data-name="Grupo 906154" transform="translate(14.25 34.639)">
          <path id="Trazado_636839" data-name="Trazado 636839" d="M67.659,466.119c1.326.766,1.339,2.008.022,2.774a5.284,5.284,0,0,1-4.794,0c-1.325-.766-1.338-2.008-.015-2.777A5.284,5.284,0,0,1,67.659,466.119Z" transform="translate(-61.886 -465.544)" fill="#686867"/>
        </g>
      </g>
    </g>
  </g>
</svg>
