<svg xmlns="http://www.w3.org/2000/svg" xmlns:xlink="http://www.w3.org/1999/xlink" width="842.121" height="621.468" viewBox="0 0 842.121 621.468">
  <defs>
    <linearGradient id="linear-gradient" y1="0.5" x2="1" y2="0.5" gradientUnits="objectBoundingBox">
      <stop offset="0" stop-color="#d5e3ed"/>
      <stop offset="0.795" stop-color="#f8fafc"/>
      <stop offset="0.924" stop-color="#fff"/>
    </linearGradient>
  </defs>
  <g id="Grupo_906771" data-name="Grupo 906771" transform="translate(-367.879 -5811.937)">
    <path id="Trazado_630025" data-name="Trazado 630025" d="M311.378,163.167V141.993A160.705,160.705,0,0,0,158,295.373h21.174A139.566,139.566,0,0,1,311.378,163.167Z" transform="translate(264.418 5819.545)" fill="#4dd0e1" opacity="0.8"/>
    <path id="Trazado_630026" data-name="Trazado 630026" d="M400.241,295.339h21.174a160.711,160.711,0,0,0-151.332-153.28v21.228A139.545,139.545,0,0,1,400.241,295.339Z" transform="translate(322.094 5819.58)" fill="#4dd0e1" opacity="0.8"/>
    <path id="Trazado_630027" data-name="Trazado 630027" d="M179.294,254.077H158.066A160.711,160.711,0,0,0,311.345,405.409V384.235A139.546,139.546,0,0,1,179.294,254.077Z" transform="translate(264.453 5877.222)" fill="#4dd0e1" opacity="0.8"/>
    <path id="Trazado_630028" data-name="Trazado 630028" d="M270.083,384.079v21.23A160.716,160.716,0,0,0,421.315,254.077H400.087A139.524,139.524,0,0,1,270.083,384.079Z" transform="translate(322.094 5877.222)" fill="#4dd0e1" opacity="0.8"/>
    <path id="Trazado_630029" data-name="Trazado 630029" d="M307.167,490.236a181.765,181.765,0,0,1,0-361.623" transform="translate(257.214 5812.661)" fill="#fff" stroke="#4dd0e1" stroke-miterlimit="10" stroke-width="1"/>
    <path id="Trazado_630030" data-name="Trazado 630030" d="M264,127.993a181.75,181.75,0,0,1,0,363.5" transform="translate(318.964 5812.341)" fill="#fff" stroke="#4dd0e1" stroke-miterlimit="10" stroke-width="1"/>
    <path id="Trazado_638383" data-name="Trazado 638383" d="M150.588,0A150.588,150.588,0,1,1,0,150.588,150.588,150.588,0,0,1,150.588,0Z" transform="translate(370 6122.084) rotate(-45)" fill="#fff" stroke="#0b5999" stroke-width="3"/>
    <path id="Trazado_638384" data-name="Trazado 638384" d="M-108.541-19.906l6.508,16.242,6.508-16.242h3.4V0h-2.625V-7.752l.246-8.367L-101.035,0h-2.01l-6.521-16.078.26,8.326V0h-2.625V-19.906ZM-78.75,0a5.313,5.313,0,0,1-.355-1.559A5.643,5.643,0,0,1-83.316.273,5.222,5.222,0,0,1-86.905-.964a4,4,0,0,1-1.4-3.138A4.182,4.182,0,0,1-86.55-7.69a8.283,8.283,0,0,1,4.942-1.278h2.461v-1.162a2.841,2.841,0,0,0-.793-2.112,3.187,3.187,0,0,0-2.338-.786,3.688,3.688,0,0,0-2.27.684,2.014,2.014,0,0,0-.916,1.654h-2.543a3.491,3.491,0,0,1,.786-2.14,5.365,5.365,0,0,1,2.133-1.634,7.175,7.175,0,0,1,2.96-.6,5.848,5.848,0,0,1,4.006,1.278,4.611,4.611,0,0,1,1.5,3.521v6.809a8.324,8.324,0,0,0,.52,3.24V0Zm-4.2-1.928a4.445,4.445,0,0,0,2.256-.615,3.721,3.721,0,0,0,1.545-1.6V-7.178h-1.982q-4.648,0-4.648,2.721A2.3,2.3,0,0,0-84.984-2.6,3.048,3.048,0,0,0-82.947-1.928Zm13.727-16.447v3.582h2.762v1.955h-2.762v9.185a2.053,2.053,0,0,0,.369,1.335,1.554,1.554,0,0,0,1.258.445,6.124,6.124,0,0,0,1.2-.164V0a7.376,7.376,0,0,1-1.941.272A3.15,3.15,0,0,1-70.889-.752a4.405,4.405,0,0,1-.861-2.912v-9.174h-2.693v-1.955h2.693v-3.582ZM-57.367.273A6.463,6.463,0,0,1-62.262-1.7a7.332,7.332,0,0,1-1.887-5.284v-.465a8.877,8.877,0,0,1,.841-3.931,6.559,6.559,0,0,1,2.352-2.707,5.912,5.912,0,0,1,3.274-.978,5.54,5.54,0,0,1,4.484,1.9,8.228,8.228,0,0,1,1.6,5.441v1.053H-61.619a5.258,5.258,0,0,0,1.278,3.534,4.018,4.018,0,0,0,3.11,1.347,4.405,4.405,0,0,0,2.27-.547,5.7,5.7,0,0,0,1.627-1.449l1.545,1.2A6.212,6.212,0,0,1-57.367.273Zm-.314-13.262a3.374,3.374,0,0,0-2.57,1.114A5.416,5.416,0,0,0-61.537-8.75h7.41v-.191a4.817,4.817,0,0,0-1.039-2.987A3.176,3.176,0,0,0-57.682-12.988Zm16.16.465a7.58,7.58,0,0,0-1.244-.1A3.333,3.333,0,0,0-46.143-10.5V0h-2.529V-14.793h2.461l.041,1.709a3.938,3.938,0,0,1,3.527-1.982,2.584,2.584,0,0,1,1.121.191ZM-36.449,0h-2.529V-14.793h2.529Zm-2.734-18.717a1.51,1.51,0,0,1,.376-1.039,1.412,1.412,0,0,1,1.114-.424,1.434,1.434,0,0,1,1.121.424,1.494,1.494,0,0,1,.383,1.039,1.445,1.445,0,0,1-.383,1.025,1.46,1.46,0,0,1-1.121.41,1.437,1.437,0,0,1-1.114-.41A1.46,1.46,0,0,1-39.184-18.717ZM-23.27,0a5.313,5.313,0,0,1-.355-1.559A5.643,5.643,0,0,1-27.836.273,5.222,5.222,0,0,1-31.425-.964a4,4,0,0,1-1.4-3.138A4.182,4.182,0,0,1-31.069-7.69a8.283,8.283,0,0,1,4.942-1.278h2.461v-1.162a2.841,2.841,0,0,0-.793-2.112,3.187,3.187,0,0,0-2.338-.786,3.688,3.688,0,0,0-2.27.684,2.014,2.014,0,0,0-.916,1.654h-2.543a3.491,3.491,0,0,1,.786-2.14,5.365,5.365,0,0,1,2.133-1.634,7.175,7.175,0,0,1,2.96-.6,5.848,5.848,0,0,1,4.006,1.278,4.611,4.611,0,0,1,1.5,3.521v6.809a8.324,8.324,0,0,0,.52,3.24V0Zm-4.2-1.928a4.445,4.445,0,0,0,2.256-.615,3.721,3.721,0,0,0,1.545-1.6V-7.178h-1.982q-4.648,0-4.648,2.721A2.3,2.3,0,0,0-29.5-2.6,3.048,3.048,0,0,0-27.467-1.928ZM-14.424,0h-2.529V-21h2.529ZM-4.238.273A6.463,6.463,0,0,1-9.133-1.7,7.332,7.332,0,0,1-11.02-6.986v-.465a8.877,8.877,0,0,1,.841-3.931,6.559,6.559,0,0,1,2.352-2.707,5.912,5.912,0,0,1,3.274-.978,5.54,5.54,0,0,1,4.484,1.9,8.228,8.228,0,0,1,1.6,5.441v1.053H-8.49A5.258,5.258,0,0,0-7.212-3.138,4.018,4.018,0,0,0-4.1-1.791a4.405,4.405,0,0,0,2.27-.547A5.7,5.7,0,0,0-.205-3.787l1.545,1.2A6.212,6.212,0,0,1-4.238.273Zm-.314-13.262a3.374,3.374,0,0,0-2.57,1.114A5.416,5.416,0,0,0-8.408-8.75H-1v-.191a4.817,4.817,0,0,0-1.039-2.987A3.176,3.176,0,0,0-4.553-12.988ZM13.07-3.924A1.862,1.862,0,0,0,12.3-5.517,7.435,7.435,0,0,0,9.6-6.494a12.734,12.734,0,0,1-3.049-.984A4.337,4.337,0,0,1,4.888-8.846a3.27,3.27,0,0,1-.54-1.887,3.837,3.837,0,0,1,1.538-3.076,6.007,6.007,0,0,1,3.931-1.258,6.181,6.181,0,0,1,4.081,1.3,4.125,4.125,0,0,1,1.565,3.322H12.92a2.283,2.283,0,0,0-.882-1.791,3.3,3.3,0,0,0-2.222-.752,3.458,3.458,0,0,0-2.16.6,1.894,1.894,0,0,0-.779,1.572A1.534,1.534,0,0,0,7.6-9.434a8.915,8.915,0,0,0,2.618.889,13.642,13.642,0,0,1,3.069,1.012,4.477,4.477,0,0,1,1.743,1.415A3.479,3.479,0,0,1,15.6-4.1,3.786,3.786,0,0,1,14.014-.923,6.652,6.652,0,0,1,9.9.273,7.449,7.449,0,0,1,6.754-.355a5.114,5.114,0,0,1-2.14-1.757,4.234,4.234,0,0,1-.772-2.44H6.371A2.619,2.619,0,0,0,7.39-2.536,3.951,3.951,0,0,0,9.9-1.791a4.079,4.079,0,0,0,2.3-.581A1.785,1.785,0,0,0,13.07-3.924Zm12.141-3.6A8.666,8.666,0,0,1,26.824-13a5.1,5.1,0,0,1,4.225-2.071,5.13,5.13,0,0,1,4.115,1.777V-21h2.529V0H35.369l-.123-1.586A5.151,5.151,0,0,1,31.021.273a5.053,5.053,0,0,1-4.19-2.105,8.764,8.764,0,0,1-1.62-5.5Zm2.529.287a6.561,6.561,0,0,0,1.039,3.938A3.359,3.359,0,0,0,31.65-1.873a3.69,3.69,0,0,0,3.514-2.16v-6.795a3.718,3.718,0,0,0-3.486-2.092,3.375,3.375,0,0,0-2.9,1.436A7.224,7.224,0,0,0,27.74-7.232ZM47.756.273A6.463,6.463,0,0,1,42.861-1.7a7.332,7.332,0,0,1-1.887-5.284v-.465a8.877,8.877,0,0,1,.841-3.931,6.559,6.559,0,0,1,2.352-2.707,5.912,5.912,0,0,1,3.274-.978,5.54,5.54,0,0,1,4.484,1.9,8.228,8.228,0,0,1,1.6,5.441v1.053H43.5a5.258,5.258,0,0,0,1.278,3.534,4.018,4.018,0,0,0,3.11,1.347,4.405,4.405,0,0,0,2.27-.547,5.7,5.7,0,0,0,1.627-1.449l1.545,1.2A6.212,6.212,0,0,1,47.756.273Zm-.314-13.262a3.374,3.374,0,0,0-2.57,1.114A5.416,5.416,0,0,0,43.586-8.75H51v-.191a4.817,4.817,0,0,0-1.039-2.987A3.176,3.176,0,0,0,47.441-12.988ZM72.516-1.463A5.372,5.372,0,0,1,68.182.273a4.6,4.6,0,0,1-3.6-1.374,5.947,5.947,0,0,1-1.251-4.067v-9.625h2.529v9.557q0,3.363,2.734,3.363,2.9,0,3.855-2.16v-10.76h2.529V0H72.57ZM87.432-3.924a1.862,1.862,0,0,0-.772-1.593,7.435,7.435,0,0,0-2.693-.978,12.734,12.734,0,0,1-3.049-.984,4.337,4.337,0,0,1-1.668-1.367,3.27,3.27,0,0,1-.54-1.887,3.837,3.837,0,0,1,1.538-3.076,6.007,6.007,0,0,1,3.931-1.258,6.181,6.181,0,0,1,4.081,1.3,4.125,4.125,0,0,1,1.565,3.322H87.281a2.283,2.283,0,0,0-.882-1.791,3.3,3.3,0,0,0-2.222-.752,3.458,3.458,0,0,0-2.16.6,1.894,1.894,0,0,0-.779,1.572,1.534,1.534,0,0,0,.725,1.381,8.915,8.915,0,0,0,2.618.889A13.642,13.642,0,0,1,87.65-7.533a4.477,4.477,0,0,1,1.743,1.415A3.479,3.479,0,0,1,89.961-4.1,3.786,3.786,0,0,1,88.375-.923,6.652,6.652,0,0,1,84.26.273a7.449,7.449,0,0,1-3.145-.629,5.114,5.114,0,0,1-2.14-1.757,4.234,4.234,0,0,1-.772-2.44h2.529a2.619,2.619,0,0,0,1.019,2.017,3.951,3.951,0,0,0,2.509.745,4.079,4.079,0,0,0,2.3-.581A1.785,1.785,0,0,0,87.432-3.924Zm5.154-3.609a8.737,8.737,0,0,1,.854-3.91,6.374,6.374,0,0,1,2.379-2.68,6.476,6.476,0,0,1,3.479-.943,6.238,6.238,0,0,1,4.888,2.092,8.048,8.048,0,0,1,1.866,5.564v.178a8.814,8.814,0,0,1-.827,3.876A6.281,6.281,0,0,1,102.86-.684a6.55,6.55,0,0,1-3.534.957,6.223,6.223,0,0,1-4.874-2.092,8.007,8.007,0,0,1-1.866-5.537Zm2.543.3a6.329,6.329,0,0,0,1.142,3.951,3.654,3.654,0,0,0,3.056,1.49A3.631,3.631,0,0,0,102.389-3.3a6.92,6.92,0,0,0,1.135-4.231,6.318,6.318,0,0,0-1.155-3.944A3.673,3.673,0,0,0,99.3-12.988a3.632,3.632,0,0,0-3.021,1.49A6.869,6.869,0,0,0,95.129-7.232Zm-202.05,38.441a3.643,3.643,0,0,0,2.365-.82,2.886,2.886,0,0,0,1.121-2.051h2.393a4.587,4.587,0,0,1-.875,2.42,5.763,5.763,0,0,1-2.153,1.832,6.213,6.213,0,0,1-2.851.684,6.094,6.094,0,0,1-4.806-2.017,8.032,8.032,0,0,1-1.784-5.517v-.424a8.906,8.906,0,0,1,.793-3.842,6.04,6.04,0,0,1,2.276-2.611,6.466,6.466,0,0,1,3.507-.93,5.933,5.933,0,0,1,4.136,1.49,5.326,5.326,0,0,1,1.757,3.869h-2.393a3.486,3.486,0,0,0-1.087-2.358,3.381,3.381,0,0,0-2.413-.923,3.54,3.54,0,0,0-2.987,1.388,6.517,6.517,0,0,0-1.06,4.013v.479a6.387,6.387,0,0,0,1.053,3.938A3.557,3.557,0,0,0-106.921,31.209Zm8.053-5.742a8.737,8.737,0,0,1,.854-3.91,6.374,6.374,0,0,1,2.379-2.68,6.476,6.476,0,0,1,3.479-.943,6.238,6.238,0,0,1,4.888,2.092A8.048,8.048,0,0,1-85.4,25.59v.178a8.814,8.814,0,0,1-.827,3.876,6.281,6.281,0,0,1-2.365,2.673,6.55,6.55,0,0,1-3.534.957A6.223,6.223,0,0,1-97,31.182a8.007,8.007,0,0,1-1.866-5.537Zm2.543.3a6.329,6.329,0,0,0,1.142,3.951,3.654,3.654,0,0,0,3.056,1.49A3.631,3.631,0,0,0-89.065,29.7a6.92,6.92,0,0,0,1.135-4.231,6.318,6.318,0,0,0-1.155-3.944,3.673,3.673,0,0,0-3.069-1.511,3.632,3.632,0,0,0-3.021,1.49A6.869,6.869,0,0,0-96.325,25.768Zm16.475-7.561.068,1.641a5.463,5.463,0,0,1,4.389-1.914,4.229,4.229,0,0,1,4.225,2.379,5.6,5.6,0,0,1,1.921-1.723,5.673,5.673,0,0,1,2.8-.656q4.867,0,4.949,5.154V33h-2.529V23.238a3.4,3.4,0,0,0-.725-2.372,3.191,3.191,0,0,0-2.434-.786,3.354,3.354,0,0,0-2.338.841,3.411,3.411,0,0,0-1.08,2.263V33h-2.543V23.307q0-3.227-3.158-3.227a3.384,3.384,0,0,0-3.4,2.119V33h-2.529V18.207Zm31.295,13.33a5.372,5.372,0,0,1-4.334,1.736,4.6,4.6,0,0,1-3.6-1.374,5.947,5.947,0,0,1-1.251-4.067V18.207h2.529v9.557q0,3.363,2.734,3.363,2.9,0,3.855-2.16V18.207h2.529V33H-48.5ZM-50.606,12h3.063l-3.664,4.02-2.037-.007Zm10.746,6.207.082,1.859a5.391,5.391,0,0,1,4.43-2.133q4.689,0,4.73,5.291V33h-2.529V23.211a3.405,3.405,0,0,0-.731-2.365,2.931,2.931,0,0,0-2.235-.766,3.65,3.65,0,0,0-2.16.656,4.456,4.456,0,0,0-1.449,1.723V33h-2.529V18.207Zm19.373,7.273a8.683,8.683,0,0,1,1.6-5.517,5.183,5.183,0,0,1,4.293-2.03A5.18,5.18,0,0,1-10.452,19.7l.109-1.49h2.324v20.48h-2.529V31.633a5.308,5.308,0,0,1-4.074,1.641,5.1,5.1,0,0,1-4.272-2.085,8.876,8.876,0,0,1-1.593-5.53Zm2.529.287a6.582,6.582,0,0,0,1.073,3.992,3.414,3.414,0,0,0,2.892,1.449,3.787,3.787,0,0,0,3.445-2V21.967a3.8,3.8,0,0,0-3.418-1.955,3.439,3.439,0,0,0-2.912,1.456A7.165,7.165,0,0,0-17.958,25.768Zm23.133,5.77A5.372,5.372,0,0,1,.841,33.273a4.6,4.6,0,0,1-3.6-1.374,5.947,5.947,0,0,1-1.251-4.067V18.207h2.529v9.557q0,3.363,2.734,3.363,2.9,0,3.855-2.16V18.207H7.636V33H5.229Zm12.441,1.736A6.463,6.463,0,0,1,12.722,31.3a7.332,7.332,0,0,1-1.887-5.284v-.465a8.877,8.877,0,0,1,.841-3.931,6.559,6.559,0,0,1,2.352-2.707,5.912,5.912,0,0,1,3.274-.978,5.54,5.54,0,0,1,4.484,1.9,8.228,8.228,0,0,1,1.6,5.441v1.053H13.364a5.258,5.258,0,0,0,1.278,3.534,4.018,4.018,0,0,0,3.11,1.347,4.405,4.405,0,0,0,2.27-.547,5.7,5.7,0,0,0,1.627-1.449l1.545,1.2A6.212,6.212,0,0,1,17.616,33.273ZM17.3,20.012a3.374,3.374,0,0,0-2.57,1.114,5.416,5.416,0,0,0-1.285,3.124h7.41v-.191a4.817,4.817,0,0,0-1.039-2.987A3.176,3.176,0,0,0,17.3,20.012Zm19.373-5.387v3.582h2.762v1.955H36.675v9.185a2.053,2.053,0,0,0,.369,1.335,1.554,1.554,0,0,0,1.258.445,6.124,6.124,0,0,0,1.2-.164V33a7.376,7.376,0,0,1-1.941.272,3.15,3.15,0,0,1-2.557-1.025,4.405,4.405,0,0,1-.861-2.912V20.162H31.452V18.207h2.693V14.625ZM45.138,33H42.608V18.207h2.529ZM42.4,14.283a1.51,1.51,0,0,1,.376-1.039,1.412,1.412,0,0,1,1.114-.424,1.434,1.434,0,0,1,1.121.424,1.494,1.494,0,0,1,.383,1.039,1.445,1.445,0,0,1-.383,1.025,1.46,1.46,0,0,1-1.121.41,1.437,1.437,0,0,1-1.114-.41A1.46,1.46,0,0,1,42.4,14.283Zm12.92,18.99A6.463,6.463,0,0,1,50.429,31.3a7.332,7.332,0,0,1-1.887-5.284v-.465a8.877,8.877,0,0,1,.841-3.931,6.559,6.559,0,0,1,2.352-2.707,5.912,5.912,0,0,1,3.274-.978,5.54,5.54,0,0,1,4.484,1.9,8.228,8.228,0,0,1,1.6,5.441v1.053H51.071a5.258,5.258,0,0,0,1.278,3.534,4.018,4.018,0,0,0,3.11,1.347,4.405,4.405,0,0,0,2.27-.547,5.7,5.7,0,0,0,1.627-1.449l1.545,1.2A6.212,6.212,0,0,1,55.323,33.273Zm-.314-13.262a3.374,3.374,0,0,0-2.57,1.114,5.416,5.416,0,0,0-1.285,3.124h7.41v-.191a4.817,4.817,0,0,0-1.039-2.987A3.176,3.176,0,0,0,55.009,20.012Zm11.4-1.8.082,1.859a5.391,5.391,0,0,1,4.43-2.133q4.689,0,4.73,5.291V33H73.124V23.211a3.405,3.405,0,0,0-.731-2.365,2.931,2.931,0,0,0-2.235-.766,3.65,3.65,0,0,0-2.16.656,4.456,4.456,0,0,0-1.449,1.723V33H64.019V18.207Zm19.2,15.066A6.463,6.463,0,0,1,80.712,31.3a7.332,7.332,0,0,1-1.887-5.284v-.465a8.877,8.877,0,0,1,.841-3.931,6.559,6.559,0,0,1,2.352-2.707,5.912,5.912,0,0,1,3.274-.978,5.54,5.54,0,0,1,4.484,1.9,8.228,8.228,0,0,1,1.6,5.441v1.053H81.354a5.258,5.258,0,0,0,1.278,3.534,4.018,4.018,0,0,0,3.11,1.347,4.405,4.405,0,0,0,2.27-.547,5.7,5.7,0,0,0,1.627-1.449l1.545,1.2A6.212,6.212,0,0,1,85.606,33.273Zm-.314-13.262a3.374,3.374,0,0,0-2.57,1.114,5.416,5.416,0,0,0-1.285,3.124h7.41v-.191a4.817,4.817,0,0,0-1.039-2.987A3.176,3.176,0,0,0,85.292,20.012Zm11.4-1.8.082,1.859a5.391,5.391,0,0,1,4.43-2.133q4.689,0,4.73,5.291V33h-2.529V23.211a3.405,3.405,0,0,0-.731-2.365,2.931,2.931,0,0,0-2.235-.766,3.65,3.65,0,0,0-2.16.656,4.456,4.456,0,0,0-1.449,1.723V33H94.3V18.207ZM-78.757,58.768A8.858,8.858,0,0,1-80.3,64.209a4.952,4.952,0,0,1-4.184,2.064,5.425,5.425,0,0,1-4.238-1.709v7.123h-2.529V51.207h2.311l.123,1.641a5.21,5.21,0,0,1,4.293-1.914,5.044,5.044,0,0,1,4.218,2.01,8.954,8.954,0,0,1,1.552,5.592Zm-2.529-.287a6.536,6.536,0,0,0-1.066-3.951,3.435,3.435,0,0,0-2.926-1.449,3.718,3.718,0,0,0-3.445,2.037v7.068a3.725,3.725,0,0,0,3.473,2.023,3.419,3.419,0,0,0,2.892-1.442A7.135,7.135,0,0,0-81.286,58.48Zm12.893-5a7.58,7.58,0,0,0-1.244-.1A3.333,3.333,0,0,0-73.015,55.5V66h-2.529V51.207h2.461l.041,1.709a3.938,3.938,0,0,1,3.527-1.982,2.584,2.584,0,0,1,1.121.191Zm8.463,12.8A6.463,6.463,0,0,1-64.825,64.3a7.332,7.332,0,0,1-1.887-5.284v-.465a8.877,8.877,0,0,1,.841-3.931,6.559,6.559,0,0,1,2.352-2.707,5.912,5.912,0,0,1,3.274-.978,5.54,5.54,0,0,1,4.484,1.9,8.228,8.228,0,0,1,1.6,5.441v1.053H-64.183A5.258,5.258,0,0,0-62.9,62.862a4.018,4.018,0,0,0,3.11,1.347,4.405,4.405,0,0,0,2.27-.547A5.7,5.7,0,0,0-55.9,62.213l1.545,1.2A6.212,6.212,0,0,1-59.931,66.273Zm-.314-13.262a3.374,3.374,0,0,0-2.57,1.114A5.416,5.416,0,0,0-64.1,57.25h7.41v-.191a4.817,4.817,0,0,0-1.039-2.987A3.176,3.176,0,0,0-60.245,53.012Zm13.713,9.557,3.664-11.361h2.584L-45.589,66h-1.928l-5.359-14.793h2.584ZM-28.923,66a5.313,5.313,0,0,1-.355-1.559,5.643,5.643,0,0,1-4.211,1.832,5.222,5.222,0,0,1-3.589-1.237,4,4,0,0,1-1.4-3.138,4.182,4.182,0,0,1,1.757-3.589,8.283,8.283,0,0,1,4.942-1.278h2.461V55.869a2.841,2.841,0,0,0-.793-2.112,3.187,3.187,0,0,0-2.338-.786,3.688,3.688,0,0,0-2.27.684,2.014,2.014,0,0,0-.916,1.654h-2.543a3.491,3.491,0,0,1,.786-2.14,5.365,5.365,0,0,1,2.133-1.634,7.175,7.175,0,0,1,2.96-.6,5.848,5.848,0,0,1,4.006,1.278,4.611,4.611,0,0,1,1.5,3.521v6.809a8.324,8.324,0,0,0,.52,3.24V66Zm-4.2-1.928a4.445,4.445,0,0,0,2.256-.615,3.721,3.721,0,0,0,1.545-1.6V58.822H-31.3q-4.648,0-4.648,2.721a2.3,2.3,0,0,0,.793,1.859A3.048,3.048,0,0,0-33.12,64.072ZM-20.077,66h-2.529V45h2.529Zm10.186.273A6.463,6.463,0,0,1-14.786,64.3a7.332,7.332,0,0,1-1.887-5.284v-.465a8.877,8.877,0,0,1,.841-3.931,6.559,6.559,0,0,1,2.352-2.707,5.912,5.912,0,0,1,3.274-.978,5.54,5.54,0,0,1,4.484,1.9,8.228,8.228,0,0,1,1.6,5.441v1.053H-14.144a5.258,5.258,0,0,0,1.278,3.534,4.018,4.018,0,0,0,3.11,1.347,4.405,4.405,0,0,0,2.27-.547,5.7,5.7,0,0,0,1.627-1.449l1.545,1.2A6.212,6.212,0,0,1-9.892,66.273Zm-.314-13.262a3.374,3.374,0,0,0-2.57,1.114,5.416,5.416,0,0,0-1.285,3.124h7.41v-.191A4.817,4.817,0,0,0-7.69,54.071,3.176,3.176,0,0,0-10.206,53.012Zm11.4-1.8.082,1.859a5.391,5.391,0,0,1,4.43-2.133q4.689,0,4.73,5.291V66H7.909V56.211a3.405,3.405,0,0,0-.731-2.365,2.931,2.931,0,0,0-2.235-.766,3.65,3.65,0,0,0-2.16.656,4.456,4.456,0,0,0-1.449,1.723V66H-1.2V51.207Zm18.99,13a3.643,3.643,0,0,0,2.365-.82,2.886,2.886,0,0,0,1.121-2.051h2.393a4.587,4.587,0,0,1-.875,2.42,5.763,5.763,0,0,1-2.153,1.832,6.213,6.213,0,0,1-2.851.684,6.094,6.094,0,0,1-4.806-2.017A8.032,8.032,0,0,1,13.6,58.74v-.424a8.906,8.906,0,0,1,.793-3.842,6.04,6.04,0,0,1,2.276-2.611,6.466,6.466,0,0,1,3.507-.93,5.933,5.933,0,0,1,4.136,1.49,5.326,5.326,0,0,1,1.757,3.869H23.673a3.486,3.486,0,0,0-1.087-2.358,3.381,3.381,0,0,0-2.413-.923A3.54,3.54,0,0,0,17.186,54.4a6.517,6.517,0,0,0-1.06,4.013v.479a6.387,6.387,0,0,0,1.053,3.938A3.557,3.557,0,0,0,20.187,64.209ZM31.657,66H29.128V51.207h2.529ZM28.923,47.283a1.51,1.51,0,0,1,.376-1.039,1.412,1.412,0,0,1,1.114-.424,1.434,1.434,0,0,1,1.121.424,1.494,1.494,0,0,1,.383,1.039,1.445,1.445,0,0,1-.383,1.025,1.46,1.46,0,0,1-1.121.41,1.437,1.437,0,0,1-1.114-.41A1.46,1.46,0,0,1,28.923,47.283ZM44.837,66a5.313,5.313,0,0,1-.355-1.559,5.643,5.643,0,0,1-4.211,1.832,5.222,5.222,0,0,1-3.589-1.237,4,4,0,0,1-1.4-3.138,4.182,4.182,0,0,1,1.757-3.589,8.283,8.283,0,0,1,4.942-1.278H44.44V55.869a2.841,2.841,0,0,0-.793-2.112,3.187,3.187,0,0,0-2.338-.786,3.688,3.688,0,0,0-2.27.684,2.014,2.014,0,0,0-.916,1.654H35.581a3.491,3.491,0,0,1,.786-2.14A5.365,5.365,0,0,1,38.5,51.535a7.175,7.175,0,0,1,2.96-.6,5.848,5.848,0,0,1,4.006,1.278,4.611,4.611,0,0,1,1.5,3.521v6.809a8.324,8.324,0,0,0,.52,3.24V66Zm-4.2-1.928a4.445,4.445,0,0,0,2.256-.615,3.721,3.721,0,0,0,1.545-1.6V58.822H42.458q-4.648,0-4.648,2.721A2.3,2.3,0,0,0,38.6,63.4,3.048,3.048,0,0,0,40.64,64.072ZM64,66.273A6.463,6.463,0,0,1,59.11,64.3a7.332,7.332,0,0,1-1.887-5.284v-.465a8.877,8.877,0,0,1,.841-3.931,6.559,6.559,0,0,1,2.352-2.707,5.912,5.912,0,0,1,3.274-.978,5.54,5.54,0,0,1,4.484,1.9,8.228,8.228,0,0,1,1.6,5.441v1.053H59.753a5.258,5.258,0,0,0,1.278,3.534,4.018,4.018,0,0,0,3.11,1.347,4.405,4.405,0,0,0,2.27-.547,5.7,5.7,0,0,0,1.627-1.449l1.545,1.2A6.212,6.212,0,0,1,64,66.273ZM63.69,53.012a3.374,3.374,0,0,0-2.57,1.114,5.416,5.416,0,0,0-1.285,3.124h7.41v-.191a4.817,4.817,0,0,0-1.039-2.987A3.176,3.176,0,0,0,63.69,53.012Zm11.4-1.8.082,1.859a5.391,5.391,0,0,1,4.43-2.133q4.689,0,4.73,5.291V66H81.806V56.211a3.405,3.405,0,0,0-.731-2.365,2.931,2.931,0,0,0-2.235-.766,3.65,3.65,0,0,0-2.16.656,4.456,4.456,0,0,0-1.449,1.723V66H72.7V51.207ZM-80.958,99h-2.529V78h2.529Zm3.377-7.533a8.738,8.738,0,0,1,.854-3.91,6.374,6.374,0,0,1,2.379-2.68,6.476,6.476,0,0,1,3.479-.943,6.238,6.238,0,0,1,4.888,2.092,8.048,8.048,0,0,1,1.866,5.564v.178a8.814,8.814,0,0,1-.827,3.876,6.281,6.281,0,0,1-2.365,2.673,6.55,6.55,0,0,1-3.534.957,6.223,6.223,0,0,1-4.874-2.092,8.007,8.007,0,0,1-1.866-5.537Zm2.543.3A6.329,6.329,0,0,0-73.9,95.719a3.654,3.654,0,0,0,3.056,1.49A3.631,3.631,0,0,0-67.778,95.7a6.92,6.92,0,0,0,1.135-4.231A6.318,6.318,0,0,0-67.8,87.522a3.673,3.673,0,0,0-3.069-1.511A3.632,3.632,0,0,0-73.89,87.5,6.869,6.869,0,0,0-75.038,91.768Zm22.709,3.309a1.862,1.862,0,0,0-.772-1.593,7.435,7.435,0,0,0-2.693-.978,12.734,12.734,0,0,1-3.049-.984,4.337,4.337,0,0,1-1.668-1.367,3.27,3.27,0,0,1-.54-1.887,3.837,3.837,0,0,1,1.538-3.076,6.007,6.007,0,0,1,3.931-1.258,6.181,6.181,0,0,1,4.081,1.3,4.125,4.125,0,0,1,1.565,3.322h-2.543a2.283,2.283,0,0,0-.882-1.791,3.3,3.3,0,0,0-2.222-.752,3.458,3.458,0,0,0-2.16.6,1.894,1.894,0,0,0-.779,1.572,1.534,1.534,0,0,0,.725,1.381,8.915,8.915,0,0,0,2.618.889,13.642,13.642,0,0,1,3.069,1.012,4.477,4.477,0,0,1,1.743,1.415A3.479,3.479,0,0,1-49.8,94.9a3.786,3.786,0,0,1-1.586,3.179,6.652,6.652,0,0,1-4.115,1.2,7.449,7.449,0,0,1-3.145-.629,5.114,5.114,0,0,1-2.14-1.757,4.234,4.234,0,0,1-.772-2.44h2.529a2.619,2.619,0,0,0,1.019,2.017,3.951,3.951,0,0,0,2.509.745,4.079,4.079,0,0,0,2.3-.581A1.785,1.785,0,0,0-52.329,95.076ZM-36.825,99h-2.529V84.207h2.529ZM-39.56,80.283a1.51,1.51,0,0,1,.376-1.039,1.412,1.412,0,0,1,1.114-.424,1.434,1.434,0,0,1,1.121.424,1.494,1.494,0,0,1,.383,1.039,1.445,1.445,0,0,1-.383,1.025,1.46,1.46,0,0,1-1.121.41,1.437,1.437,0,0,1-1.114-.41A1.46,1.46,0,0,1-39.56,80.283Zm9.174,3.924.082,1.859a5.391,5.391,0,0,1,4.43-2.133q4.689,0,4.73,5.291V99h-2.529V89.211a3.405,3.405,0,0,0-.731-2.365,2.931,2.931,0,0,0-2.235-.766,3.65,3.65,0,0,0-2.16.656,4.456,4.456,0,0,0-1.449,1.723V99h-2.529V84.207Zm18.99,13a3.643,3.643,0,0,0,2.365-.82,2.886,2.886,0,0,0,1.121-2.051h2.393a4.587,4.587,0,0,1-.875,2.42A5.763,5.763,0,0,1-8.545,98.59a6.213,6.213,0,0,1-2.851.684A6.094,6.094,0,0,1-16.2,97.257a8.032,8.032,0,0,1-1.784-5.517v-.424a8.906,8.906,0,0,1,.793-3.842,6.04,6.04,0,0,1,2.276-2.611,6.466,6.466,0,0,1,3.507-.93,5.933,5.933,0,0,1,4.136,1.49,5.326,5.326,0,0,1,1.757,3.869H-7.909A3.486,3.486,0,0,0-9,86.935a3.381,3.381,0,0,0-2.413-.923A3.54,3.54,0,0,0-14.4,87.4a6.517,6.517,0,0,0-1.06,4.013v.479A6.387,6.387,0,0,0-14.4,95.828,3.557,3.557,0,0,0-11.4,97.209ZM3.466,99.273A6.463,6.463,0,0,1-1.429,97.3a7.332,7.332,0,0,1-1.887-5.284v-.465a8.877,8.877,0,0,1,.841-3.931A6.559,6.559,0,0,1-.123,84.911a5.912,5.912,0,0,1,3.274-.978,5.54,5.54,0,0,1,4.484,1.9,8.228,8.228,0,0,1,1.6,5.441v1.053H-.786A5.258,5.258,0,0,0,.492,95.862,4.018,4.018,0,0,0,3.6,97.209a4.405,4.405,0,0,0,2.27-.547A5.7,5.7,0,0,0,7.5,95.213l1.545,1.2A6.212,6.212,0,0,1,3.466,99.273ZM3.151,86.012a3.374,3.374,0,0,0-2.57,1.114A5.416,5.416,0,0,0-.7,90.25h7.41v-.191a4.817,4.817,0,0,0-1.039-2.987A3.176,3.176,0,0,0,3.151,86.012Zm11.4-1.8.082,1.859a5.391,5.391,0,0,1,4.43-2.133q4.689,0,4.73,5.291V99H21.267V89.211a3.405,3.405,0,0,0-.731-2.365A2.931,2.931,0,0,0,18.3,86.08a3.65,3.65,0,0,0-2.16.656,4.456,4.456,0,0,0-1.449,1.723V99H12.161V84.207ZM27,91.48A8.666,8.666,0,0,1,28.608,86a5.1,5.1,0,0,1,4.225-2.071,5.13,5.13,0,0,1,4.115,1.777V78h2.529V99H37.153l-.123-1.586a5.151,5.151,0,0,1-4.225,1.859,5.053,5.053,0,0,1-4.19-2.105,8.764,8.764,0,0,1-1.62-5.5Zm2.529.287a6.561,6.561,0,0,0,1.039,3.938,3.359,3.359,0,0,0,2.871,1.422,3.69,3.69,0,0,0,3.514-2.16V88.172a3.718,3.718,0,0,0-3.486-2.092,3.375,3.375,0,0,0-2.9,1.436A7.224,7.224,0,0,0,29.524,91.768ZM46.149,99H43.62V84.207h2.529ZM43.415,80.283a1.51,1.51,0,0,1,.376-1.039,1.412,1.412,0,0,1,1.114-.424,1.434,1.434,0,0,1,1.121.424,1.494,1.494,0,0,1,.383,1.039,1.445,1.445,0,0,1-.383,1.025,1.46,1.46,0,0,1-1.121.41,1.437,1.437,0,0,1-1.114-.41A1.46,1.46,0,0,1,43.415,80.283Zm6.111,11.184a8.738,8.738,0,0,1,.854-3.91,6.374,6.374,0,0,1,2.379-2.68,6.476,6.476,0,0,1,3.479-.943,6.238,6.238,0,0,1,4.888,2.092,8.048,8.048,0,0,1,1.866,5.564v.178a8.814,8.814,0,0,1-.827,3.876A6.281,6.281,0,0,1,59.8,98.316a6.55,6.55,0,0,1-3.534.957,6.223,6.223,0,0,1-4.874-2.092,8.007,8.007,0,0,1-1.866-5.537Zm2.543.3a6.329,6.329,0,0,0,1.142,3.951,3.869,3.869,0,0,0,6.118-.021,6.92,6.92,0,0,0,1.135-4.231,6.318,6.318,0,0,0-1.155-3.944,3.673,3.673,0,0,0-3.069-1.511,3.632,3.632,0,0,0-3.021,1.49A6.869,6.869,0,0,0,52.069,91.768Zm22.709,3.309a1.862,1.862,0,0,0-.772-1.593,7.435,7.435,0,0,0-2.693-.978,12.734,12.734,0,0,1-3.049-.984A4.337,4.337,0,0,1,66.6,90.154a3.27,3.27,0,0,1-.54-1.887,3.837,3.837,0,0,1,1.538-3.076,6.007,6.007,0,0,1,3.931-1.258,6.181,6.181,0,0,1,4.081,1.3,4.125,4.125,0,0,1,1.565,3.322H74.628a2.283,2.283,0,0,0-.882-1.791,3.3,3.3,0,0,0-2.222-.752,3.458,3.458,0,0,0-2.16.6,1.894,1.894,0,0,0-.779,1.572,1.534,1.534,0,0,0,.725,1.381,8.915,8.915,0,0,0,2.618.889A13.642,13.642,0,0,1,75,91.467a4.477,4.477,0,0,1,1.743,1.415,3.479,3.479,0,0,1,.567,2.017,3.786,3.786,0,0,1-1.586,3.179,6.652,6.652,0,0,1-4.115,1.2,7.449,7.449,0,0,1-3.145-.629,5.114,5.114,0,0,1-2.14-1.757,4.234,4.234,0,0,1-.772-2.44h2.529A2.619,2.619,0,0,0,69.1,96.464a3.951,3.951,0,0,0,2.509.745,4.079,4.079,0,0,0,2.3-.581A1.785,1.785,0,0,0,74.778,95.076Z" transform="translate(586 6087.329)" fill="#0b5999"/>
    <path id="Trazado_638385" data-name="Trazado 638385" d="M0,0H298.759a28,28,0,0,1,28,28V56.816a28,28,0,0,1-28,28H0Z" transform="translate(753.354 6333.369)" fill="#4dd0e1" opacity="0.8"/>
    <path id="Trazado_638386" data-name="Trazado 638386" d="M14.389,0A14.389,14.389,0,1,1,0,14.389,14.389,14.389,0,0,1,14.389,0Z" transform="translate(648.091 6270.514)" stroke="#fff" stroke-width="0.285" fill="url(#linear-gradient)"/>
    <path id="Trazado_638387" data-name="Trazado 638387" d="M0,0H298.759a28,28,0,0,1,28,28V57.574a28,28,0,0,1-28,28H0Z" transform="translate(883.241 5996.375)" fill="#4dd0e1" opacity="0.8"/>
    <path id="Trazado_638388" data-name="Trazado 638388" d="M14.389,0A14.389,14.389,0,1,1,0,14.389,14.389,14.389,0,0,1,14.389,0Z" transform="translate(731.393 6025.151)" stroke="#fff" stroke-width="0.285" fill="url(#linear-gradient)"/>
    <path id="Trazado_638389" data-name="Trazado 638389" d="M0,0H298.759a28,28,0,0,1,28,28V56.816a28,28,0,0,1-28,28H0Z" transform="translate(753.354 5825.984)" fill="#4dd0e1" opacity="0.8"/>
    <path id="Trazado_638390" data-name="Trazado 638390" d="M14.389,0A14.389,14.389,0,1,1,0,14.389,14.389,14.389,0,0,1,14.389,0Z" transform="translate(648.091 5944.879)" stroke="#fff" stroke-width="0.285" fill="url(#linear-gradient)"/>
    <path id="Trazado_638391" data-name="Trazado 638391" d="M-112.31-3.757V0h-2.2V-10.664h4.16a4.813,4.813,0,0,1,2.113.439,3.238,3.238,0,0,1,1.4,1.249,3.482,3.482,0,0,1,.491,1.842,3.062,3.062,0,0,1-1.073,2.472,4.469,4.469,0,0,1-2.97.9Zm0-1.78h1.963a1.93,1.93,0,0,0,1.329-.41,1.492,1.492,0,0,0,.458-1.172,1.759,1.759,0,0,0-.461-1.267,1.724,1.724,0,0,0-1.274-.5h-2.014ZM-99.709,0a2.351,2.351,0,0,1-.212-.71,2.561,2.561,0,0,1-2,.857,2.814,2.814,0,0,1-1.93-.674,2.167,2.167,0,0,1-.765-1.7,2.24,2.24,0,0,1,.934-1.934,4.608,4.608,0,0,1,2.7-.681h.974V-5.3a1.306,1.306,0,0,0-.282-.879,1.109,1.109,0,0,0-.89-.33,1.261,1.261,0,0,0-.839.256.871.871,0,0,0-.3.7h-2.117a2.126,2.126,0,0,1,.425-1.274,2.808,2.808,0,0,1,1.2-.919,4.378,4.378,0,0,1,1.743-.333,3.459,3.459,0,0,1,2.325.736,2.575,2.575,0,0,1,.861,2.069v3.435A3.789,3.789,0,0,0-97.57-.125V0Zm-1.75-1.472a1.823,1.823,0,0,0,.864-.209,1.371,1.371,0,0,0,.586-.56V-3.6h-.791q-1.589,0-1.692,1.1l-.007.125a.847.847,0,0,0,.278.652A1.081,1.081,0,0,0-101.459-1.472Zm13.084-2.417a4.753,4.753,0,0,1-.831,2.933,2.665,2.665,0,0,1-2.245,1.1,2.469,2.469,0,0,1-1.941-.835V3.047h-2.117V-7.925h1.963l.073.776a2.488,2.488,0,0,1,2.007-.923,2.683,2.683,0,0,1,2.278,1.084A4.882,4.882,0,0,1-88.375-4Zm-2.117-.154a3.119,3.119,0,0,0-.392-1.707,1.276,1.276,0,0,0-1.139-.6,1.386,1.386,0,0,0-1.37.762v3.245a1.41,1.41,0,0,0,1.384.784Q-90.492-1.56-90.492-4.043ZM-82.667.146A3.89,3.89,0,0,1-85.505-.923,3.8,3.8,0,0,1-86.6-3.772v-.205a4.787,4.787,0,0,1,.461-2.135,3.386,3.386,0,0,1,1.307-1.45,3.669,3.669,0,0,1,1.93-.509,3.289,3.289,0,0,1,2.56,1.025,4.167,4.167,0,0,1,.934,2.908v.864h-5.046a1.966,1.966,0,0,0,.619,1.245,1.871,1.871,0,0,0,1.307.469,2.285,2.285,0,0,0,1.912-.886l1.04,1.165A3.178,3.178,0,0,1-80.865-.231,4.229,4.229,0,0,1-82.667.146Zm-.242-6.511a1.323,1.323,0,0,0-1.022.427,2.209,2.209,0,0,0-.5,1.221h2.944v-.169a1.576,1.576,0,0,0-.381-1.092A1.365,1.365,0,0,0-82.909-6.365ZM-75.223,0h-2.124V-11.25h2.124Zm3.042,2.673-1.106-.579.264-.476a3.806,3.806,0,0,0,.505-1.78V-1.8h1.787l-.007,1.465a3.805,3.805,0,0,1-.41,1.641A4.206,4.206,0,0,1-72.18,2.673Zm10.333-10.6.066.886A2.785,2.785,0,0,1-59.5-8.071a2.114,2.114,0,0,1,2.1,1.208,2.721,2.721,0,0,1,2.38-1.208,2.364,2.364,0,0,1,1.919.751,3.451,3.451,0,0,1,.63,2.26V0H-54.6V-5.054a1.509,1.509,0,0,0-.264-.985,1.169,1.169,0,0,0-.93-.311,1.321,1.321,0,0,0-1.318.908L-57.1,0h-2.117V-5.046a1.491,1.491,0,0,0-.271-1,1.18,1.18,0,0,0-.923-.308,1.372,1.372,0,0,0-1.3.747V0h-2.117V-7.925ZM-45.5,0a2.351,2.351,0,0,1-.212-.71,2.561,2.561,0,0,1-2,.857,2.814,2.814,0,0,1-1.93-.674,2.167,2.167,0,0,1-.765-1.7,2.24,2.24,0,0,1,.934-1.934,4.608,4.608,0,0,1,2.7-.681h.974V-5.3a1.306,1.306,0,0,0-.282-.879,1.109,1.109,0,0,0-.89-.33,1.261,1.261,0,0,0-.839.256.871.871,0,0,0-.3.7h-2.117a2.126,2.126,0,0,1,.425-1.274,2.808,2.808,0,0,1,1.2-.919,4.378,4.378,0,0,1,1.743-.333,3.459,3.459,0,0,1,2.325.736,2.575,2.575,0,0,1,.861,2.069v3.435a3.789,3.789,0,0,0,.315,1.707V0Zm-1.75-1.472a1.823,1.823,0,0,0,.864-.209,1.371,1.371,0,0,0,.586-.56V-3.6H-46.6q-1.589,0-1.692,1.1l-.007.125a.847.847,0,0,0,.278.652A1.081,1.081,0,0,0-47.254-1.472Zm5.621-2.549A4.776,4.776,0,0,1-40.8-6.973a2.7,2.7,0,0,1,2.274-1.1,2.427,2.427,0,0,1,1.912.864V-11.25h2.124V0H-36.4l-.1-.842a2.491,2.491,0,0,1-2.036.989,2.69,2.69,0,0,1-2.245-1.1A4.93,4.93,0,0,1-41.634-4.021Zm2.117.158a3.128,3.128,0,0,0,.388,1.709A1.265,1.265,0,0,0-38-1.56a1.416,1.416,0,0,0,1.384-.829V-5.521a1.4,1.4,0,0,0-1.37-.829Q-39.517-6.35-39.517-3.863ZM-28.455.146A3.89,3.89,0,0,1-31.293-.923a3.8,3.8,0,0,1-1.095-2.849v-.205a4.787,4.787,0,0,1,.461-2.135,3.386,3.386,0,0,1,1.307-1.45,3.669,3.669,0,0,1,1.93-.509,3.289,3.289,0,0,1,2.56,1.025A4.167,4.167,0,0,1-25.2-4.138v.864h-5.046a1.966,1.966,0,0,0,.619,1.245,1.871,1.871,0,0,0,1.307.469A2.285,2.285,0,0,0-26.4-2.446l1.04,1.165A3.178,3.178,0,0,1-26.653-.231,4.229,4.229,0,0,1-28.455.146ZM-28.7-6.365a1.323,1.323,0,0,0-1.022.427,2.209,2.209,0,0,0-.5,1.221h2.944v-.169a1.576,1.576,0,0,0-.381-1.092A1.365,1.365,0,0,0-28.7-6.365Zm9.905.425A5.751,5.751,0,0,0-19.553-6a1.55,1.55,0,0,0-1.575.813V0h-2.117V-7.925h2l.059.945a1.961,1.961,0,0,1,1.765-1.091,2.218,2.218,0,0,1,.659.1ZM-12.65,0a2.351,2.351,0,0,1-.212-.71,2.561,2.561,0,0,1-2,.857,2.814,2.814,0,0,1-1.93-.674,2.167,2.167,0,0,1-.765-1.7,2.24,2.24,0,0,1,.934-1.934,4.608,4.608,0,0,1,2.7-.681h.974V-5.3a1.306,1.306,0,0,0-.282-.879,1.109,1.109,0,0,0-.89-.33,1.261,1.261,0,0,0-.839.256.871.871,0,0,0-.3.7h-2.117a2.126,2.126,0,0,1,.425-1.274,2.808,2.808,0,0,1,1.2-.919,4.378,4.378,0,0,1,1.743-.333,3.459,3.459,0,0,1,2.325.736,2.575,2.575,0,0,1,.861,2.069v3.435a3.789,3.789,0,0,0,.315,1.707V0ZM-14.4-1.472a1.823,1.823,0,0,0,.864-.209,1.371,1.371,0,0,0,.586-.56V-3.6h-.791q-1.589,0-1.692,1.1l-.007.125a.847.847,0,0,0,.278.652A1.081,1.081,0,0,0-14.4-1.472Zm6.5,4.146-1.106-.579.264-.476a3.806,3.806,0,0,0,.505-1.78V-1.8h1.787L-6.458-.337A3.805,3.805,0,0,1-6.869,1.3,4.206,4.206,0,0,1-7.9,2.673ZM7.581-3.889A4.753,4.753,0,0,1,6.749-.956,2.665,2.665,0,0,1,4.5.146,2.469,2.469,0,0,1,2.563-.688V3.047H.447V-7.925H2.41l.073.776A2.488,2.488,0,0,1,4.49-8.071,2.683,2.683,0,0,1,6.768-6.987,4.882,4.882,0,0,1,7.581-4ZM5.464-4.043A3.119,3.119,0,0,0,5.072-5.75a1.276,1.276,0,0,0-1.139-.6,1.386,1.386,0,0,0-1.37.762v3.245a1.41,1.41,0,0,0,1.384.784Q5.464-1.56,5.464-4.043ZM11.875,0H9.751V-11.25h2.124Zm7.085,0a2.351,2.351,0,0,1-.212-.71,2.561,2.561,0,0,1-2,.857,2.814,2.814,0,0,1-1.93-.674,2.167,2.167,0,0,1-.765-1.7,2.24,2.24,0,0,1,.934-1.934,4.608,4.608,0,0,1,2.7-.681h.974V-5.3a1.306,1.306,0,0,0-.282-.879,1.109,1.109,0,0,0-.89-.33,1.261,1.261,0,0,0-.839.256.871.871,0,0,0-.3.7H14.229a2.126,2.126,0,0,1,.425-1.274,2.808,2.808,0,0,1,1.2-.919A4.378,4.378,0,0,1,17.6-8.071a3.459,3.459,0,0,1,2.325.736,2.575,2.575,0,0,1,.861,2.069v3.435A3.789,3.789,0,0,0,21.1-.125V0ZM17.21-1.472a1.823,1.823,0,0,0,.864-.209,1.371,1.371,0,0,0,.586-.56V-3.6H17.87q-1.589,0-1.692,1.1l-.007.125a.847.847,0,0,0,.278.652A1.081,1.081,0,0,0,17.21-1.472Zm.806-9.778h2.307L18.294-8.979H16.573Zm9.437,9.06a.682.682,0,0,0-.385-.612,4.368,4.368,0,0,0-1.234-.4q-2.827-.593-2.827-2.4a2.178,2.178,0,0,1,.875-1.761,3.531,3.531,0,0,1,2.289-.707,3.8,3.8,0,0,1,2.413.71,2.239,2.239,0,0,1,.9,1.846H27.372a1.024,1.024,0,0,0-.293-.751,1.24,1.24,0,0,0-.916-.3,1.267,1.267,0,0,0-.828.242.763.763,0,0,0-.293.615.652.652,0,0,0,.333.568,3.428,3.428,0,0,0,1.124.374,9.183,9.183,0,0,1,1.333.355,2.19,2.19,0,0,1,1.677,2.131,2.067,2.067,0,0,1-.93,1.754,4.013,4.013,0,0,1-2.4.67,4.191,4.191,0,0,1-1.769-.355A2.968,2.968,0,0,1,23.2-1.183a2.263,2.263,0,0,1-.439-1.337h2.007a1.105,1.105,0,0,0,.417.864,1.656,1.656,0,0,0,1.04.3,1.533,1.533,0,0,0,.919-.231A.718.718,0,0,0,27.453-2.19Zm6.7-7.683v1.948h1.355v1.553H34.157v3.955a.944.944,0,0,0,.168.63.846.846,0,0,0,.645.19,3.376,3.376,0,0,0,.623-.051v1.6a4.358,4.358,0,0,1-1.282.19A2.021,2.021,0,0,1,32.041-2.1v-4.27H30.883V-7.925h1.157V-9.873ZM39.675,0H37.551V-7.925h2.124ZM37.427-9.976a1.042,1.042,0,0,1,.319-.784,1.2,1.2,0,0,1,.868-.308,1.2,1.2,0,0,1,.864.308,1.036,1.036,0,0,1,.322.784,1.039,1.039,0,0,1-.326.791,1.2,1.2,0,0,1-.861.308,1.2,1.2,0,0,1-.861-.308A1.039,1.039,0,0,1,37.427-9.976ZM45.464-1.56a1.388,1.388,0,0,0,.952-.322,1.129,1.129,0,0,0,.381-.857h1.985a2.715,2.715,0,0,1-.439,1.476A2.9,2.9,0,0,1,47.16-.223,3.7,3.7,0,0,1,45.5.146,3.44,3.44,0,0,1,42.82-.934a4.275,4.275,0,0,1-.981-2.985v-.139a4.226,4.226,0,0,1,.974-2.922,3.4,3.4,0,0,1,2.673-1.091,3.333,3.333,0,0,1,2.384.846,3,3,0,0,1,.912,2.252H46.8a1.455,1.455,0,0,0-.381-1.005,1.27,1.27,0,0,0-.967-.387,1.275,1.275,0,0,0-1.117.539,3.125,3.125,0,0,0-.377,1.749v.22A3.164,3.164,0,0,0,44.329-2.1,1.291,1.291,0,0,0,45.464-1.56Zm4.947-2.476a4.7,4.7,0,0,1,.454-2.1,3.324,3.324,0,0,1,1.307-1.428,3.814,3.814,0,0,1,1.981-.505,3.609,3.609,0,0,1,2.618.981A3.939,3.939,0,0,1,57.9-4.424l.015.542A4.142,4.142,0,0,1,56.9-.956a3.539,3.539,0,0,1-2.732,1.1,3.556,3.556,0,0,1-2.736-1.1A4.215,4.215,0,0,1,50.411-3.94Zm2.117.15a2.962,2.962,0,0,0,.425,1.727,1.4,1.4,0,0,0,1.216.6,1.4,1.4,0,0,0,1.2-.591A3.241,3.241,0,0,0,55.8-4.039a2.933,2.933,0,0,0-.432-1.716,1.4,1.4,0,0,0-1.216-.609,1.382,1.382,0,0,0-1.2.605A3.3,3.3,0,0,0,52.528-3.885Zm7.994,6.559-1.106-.579.264-.476a3.806,3.806,0,0,0,.505-1.78V-1.8h1.787L61.964-.337a3.805,3.805,0,0,1-.41,1.641A4.206,4.206,0,0,1,60.521,2.673ZM72.166-1.56a1.388,1.388,0,0,0,.952-.322,1.129,1.129,0,0,0,.381-.857h1.985a2.715,2.715,0,0,1-.439,1.476,2.9,2.9,0,0,1-1.183,1.04A3.7,3.7,0,0,1,72.2.146a3.44,3.44,0,0,1-2.681-1.08,4.275,4.275,0,0,1-.981-2.985v-.139a4.226,4.226,0,0,1,.974-2.922,3.4,3.4,0,0,1,2.673-1.091,3.333,3.333,0,0,1,2.384.846,3,3,0,0,1,.912,2.252H73.5a1.455,1.455,0,0,0-.381-1.005,1.27,1.27,0,0,0-.967-.387,1.275,1.275,0,0,0-1.117.539,3.125,3.125,0,0,0-.377,1.749v.22A3.164,3.164,0,0,0,71.03-2.1,1.291,1.291,0,0,0,72.166-1.56ZM82.034,0a2.351,2.351,0,0,1-.212-.71,2.561,2.561,0,0,1-2,.857,2.814,2.814,0,0,1-1.93-.674,2.167,2.167,0,0,1-.765-1.7,2.24,2.24,0,0,1,.934-1.934,4.608,4.608,0,0,1,2.7-.681h.974V-5.3a1.306,1.306,0,0,0-.282-.879,1.109,1.109,0,0,0-.89-.33,1.261,1.261,0,0,0-.839.256.871.871,0,0,0-.3.7H77.3a2.126,2.126,0,0,1,.425-1.274,2.808,2.808,0,0,1,1.2-.919,4.378,4.378,0,0,1,1.743-.333A3.459,3.459,0,0,1,83-7.335a2.575,2.575,0,0,1,.861,2.069v3.435a3.789,3.789,0,0,0,.315,1.707V0Zm-1.75-1.472a1.823,1.823,0,0,0,.864-.209,1.371,1.371,0,0,0,.586-.56V-3.6h-.791q-1.589,0-1.692,1.1l-.007.125a.847.847,0,0,0,.278.652A1.081,1.081,0,0,0,80.284-1.472Zm10.4-4.468A5.751,5.751,0,0,0,89.925-6a1.55,1.55,0,0,0-1.575.813V0H86.234V-7.925h2l.059.945a1.961,1.961,0,0,1,1.765-1.091,2.218,2.218,0,0,1,.659.1Zm4.668-3.933v1.948H96.71v1.553H95.355v3.955a.944.944,0,0,0,.168.63.846.846,0,0,0,.645.19,3.376,3.376,0,0,0,.623-.051v1.6a4.358,4.358,0,0,1-1.282.19A2.021,2.021,0,0,1,93.239-2.1v-4.27H92.082V-7.925h1.157V-9.873ZM98.31-4.036a4.7,4.7,0,0,1,.454-2.1,3.324,3.324,0,0,1,1.307-1.428,3.814,3.814,0,0,1,1.981-.505,3.609,3.609,0,0,1,2.618.981A3.939,3.939,0,0,1,105.8-4.424l.015.542A4.142,4.142,0,0,1,104.8-.956a3.539,3.539,0,0,1-2.732,1.1,3.556,3.556,0,0,1-2.736-1.1A4.215,4.215,0,0,1,98.31-3.94Zm2.117.15a2.962,2.962,0,0,0,.425,1.727,1.4,1.4,0,0,0,1.216.6,1.4,1.4,0,0,0,1.2-.591,3.241,3.241,0,0,0,.432-1.889,2.933,2.933,0,0,0-.432-1.716,1.4,1.4,0,0,0-1.216-.609,1.382,1.382,0,0,0-1.2.605A3.3,3.3,0,0,0,100.427-3.885Zm2.043-7.365h2.307l-2.029,2.271h-1.721Zm7.349,3.325.066.916a2.767,2.767,0,0,1,2.278-1.062,2.3,2.3,0,0,1,1.875.74,3.451,3.451,0,0,1,.63,2.212V0h-2.117V-5.068a1.373,1.373,0,0,0-.293-.978,1.312,1.312,0,0,0-.974-.3,1.456,1.456,0,0,0-1.34.762V0h-2.117V-7.925Z" transform="translate(933 5871.393)" fill="#0b5999"/>
    <path id="Trazado_638392" data-name="Trazado 638392" d="M-119.949-1.348a3.814,3.814,0,0,1-1.677,1.1,7.024,7.024,0,0,1-2.4.392,4.759,4.759,0,0,1-2.428-.6,4.03,4.03,0,0,1-1.611-1.754,6.174,6.174,0,0,1-.582-2.7V-5.64a6.557,6.557,0,0,1,.538-2.765,3.982,3.982,0,0,1,1.553-1.787,4.473,4.473,0,0,1,2.377-.619,4.454,4.454,0,0,1,2.966.9,3.866,3.866,0,0,1,1.267,2.633h-2.139a2.126,2.126,0,0,0-.648-1.34,2.07,2.07,0,0,0-1.381-.425,1.948,1.948,0,0,0-1.707.842,4.429,4.429,0,0,0-.593,2.5v.681a4.216,4.216,0,0,0,.637,2.534,2.182,2.182,0,0,0,1.868.857,2.437,2.437,0,0,0,1.765-.527V-3.984h-2V-5.6h4.2ZM-112.967,0a2.351,2.351,0,0,1-.212-.71,2.561,2.561,0,0,1-2,.857,2.814,2.814,0,0,1-1.93-.674,2.167,2.167,0,0,1-.765-1.7,2.24,2.24,0,0,1,.934-1.934,4.608,4.608,0,0,1,2.7-.681h.974V-5.3a1.306,1.306,0,0,0-.282-.879,1.109,1.109,0,0,0-.89-.33,1.261,1.261,0,0,0-.839.256.871.871,0,0,0-.3.7H-117.7a2.126,2.126,0,0,1,.425-1.274,2.808,2.808,0,0,1,1.2-.919,4.378,4.378,0,0,1,1.743-.333A3.459,3.459,0,0,1-112-7.335a2.575,2.575,0,0,1,.861,2.069v3.435a3.789,3.789,0,0,0,.315,1.707V0Zm-1.75-1.472a1.823,1.823,0,0,0,.864-.209,1.371,1.371,0,0,0,.586-.56V-3.6h-.791q-1.589,0-1.692,1.1l-.007.125a.847.847,0,0,0,.278.652A1.081,1.081,0,0,0-114.717-1.472Zm10.242-.718a.682.682,0,0,0-.385-.612,4.368,4.368,0,0,0-1.234-.4q-2.827-.593-2.827-2.4a2.178,2.178,0,0,1,.875-1.761,3.531,3.531,0,0,1,2.289-.707,3.8,3.8,0,0,1,2.413.71,2.239,2.239,0,0,1,.9,1.846h-2.117a1.024,1.024,0,0,0-.293-.751,1.24,1.24,0,0,0-.916-.3,1.267,1.267,0,0,0-.828.242.763.763,0,0,0-.293.615.652.652,0,0,0,.333.568,3.428,3.428,0,0,0,1.124.374,9.183,9.183,0,0,1,1.333.355,2.19,2.19,0,0,1,1.677,2.131,2.067,2.067,0,0,1-.93,1.754,4.013,4.013,0,0,1-2.4.67,4.191,4.191,0,0,1-1.769-.355,2.968,2.968,0,0,1-1.212-.974,2.263,2.263,0,0,1-.439-1.337h2.007a1.105,1.105,0,0,0,.417.864,1.656,1.656,0,0,0,1.04.3,1.533,1.533,0,0,0,.919-.231A.718.718,0,0,0-104.475-2.19Zm3.841-1.846a4.7,4.7,0,0,1,.454-2.1,3.324,3.324,0,0,1,1.307-1.428,3.814,3.814,0,0,1,1.981-.505,3.609,3.609,0,0,1,2.618.981,3.939,3.939,0,0,1,1.132,2.666l.015.542A4.142,4.142,0,0,1-94.145-.956a3.539,3.539,0,0,1-2.732,1.1,3.556,3.556,0,0,1-2.736-1.1,4.215,4.215,0,0,1-1.022-2.988Zm2.117.15a2.962,2.962,0,0,0,.425,1.727,1.4,1.4,0,0,0,1.216.6,1.4,1.4,0,0,0,1.2-.591,3.241,3.241,0,0,0,.432-1.889,2.933,2.933,0,0,0-.432-1.716,1.4,1.4,0,0,0-1.216-.609,1.382,1.382,0,0,0-1.2.605A3.3,3.3,0,0,0-98.517-3.885ZM-88.839,0h-2.124V-11.25h2.124Zm4.727,0h-2.124V-7.925h2.124Zm-2.249-9.976a1.042,1.042,0,0,1,.319-.784,1.2,1.2,0,0,1,.868-.308,1.2,1.2,0,0,1,.864.308,1.036,1.036,0,0,1,.322.784,1.039,1.039,0,0,1-.326.791,1.2,1.2,0,0,1-.861.308,1.2,1.2,0,0,1-.861-.308A1.039,1.039,0,0,1-86.361-9.976Zm6.69,2.051.066.916a2.767,2.767,0,0,1,2.278-1.062,2.3,2.3,0,0,1,1.875.74,3.451,3.451,0,0,1,.63,2.212V0h-2.117V-5.068a1.373,1.373,0,0,0-.293-.978,1.312,1.312,0,0,0-.974-.3,1.456,1.456,0,0,0-1.34.762V0h-2.117V-7.925ZM-67.876,0a2.351,2.351,0,0,1-.212-.71,2.561,2.561,0,0,1-2,.857,2.814,2.814,0,0,1-1.93-.674,2.167,2.167,0,0,1-.765-1.7,2.24,2.24,0,0,1,.934-1.934,4.608,4.608,0,0,1,2.7-.681h.974V-5.3a1.306,1.306,0,0,0-.282-.879,1.109,1.109,0,0,0-.89-.33,1.261,1.261,0,0,0-.839.256.871.871,0,0,0-.3.7h-2.117a2.126,2.126,0,0,1,.425-1.274,2.808,2.808,0,0,1,1.2-.919,4.378,4.378,0,0,1,1.743-.333,3.459,3.459,0,0,1,2.325.736,2.575,2.575,0,0,1,.861,2.069v3.435a3.789,3.789,0,0,0,.315,1.707V0Zm-1.75-1.472a1.823,1.823,0,0,0,.864-.209,1.371,1.371,0,0,0,.586-.56V-3.6h-.791q-1.589,0-1.692,1.1l-.007.125a.847.847,0,0,0,.278.652A1.081,1.081,0,0,0-69.626-1.472Zm6.5,4.146-1.106-.579.264-.476a3.806,3.806,0,0,0,.505-1.78V-1.8h1.787l-.007,1.465a3.805,3.805,0,0,1-.41,1.641A4.206,4.206,0,0,1-63.127,2.673Zm8.019-6.709a4.737,4.737,0,0,1,.831-2.952A2.718,2.718,0,0,1-52-8.071a2.433,2.433,0,0,1,2.029.974l.139-.828h1.86V3.047h-2.124V-.681A2.44,2.44,0,0,1-52.01.146a2.7,2.7,0,0,1-2.256-1.1A4.969,4.969,0,0,1-55.108-4.036Zm2.117.15a3.107,3.107,0,0,0,.4,1.731,1.278,1.278,0,0,0,1.124.594,1.423,1.423,0,0,0,1.377-.778V-5.617a1.412,1.412,0,0,0-1.362-.748,1.293,1.293,0,0,0-1.135.594A3.432,3.432,0,0,0-52.991-3.885Zm12.183,3.08a2.654,2.654,0,0,1-2.168.952,2.5,2.5,0,0,1-1.945-.732,3.127,3.127,0,0,1-.685-2.146V-7.925h2.117V-2.8q0,1.239,1.128,1.239a1.528,1.528,0,0,0,1.479-.748V-7.925h2.124V0H-40.75Zm8.045.952A3.89,3.89,0,0,1-35.6-.923,3.8,3.8,0,0,1-36.7-3.772v-.205a4.787,4.787,0,0,1,.461-2.135,3.386,3.386,0,0,1,1.307-1.45A3.669,3.669,0,0,1-33-8.071a3.289,3.289,0,0,1,2.56,1.025A4.167,4.167,0,0,1-29.5-4.138v.864h-5.046a1.966,1.966,0,0,0,.619,1.245,1.871,1.871,0,0,0,1.307.469,2.285,2.285,0,0,0,1.912-.886l1.04,1.165A3.178,3.178,0,0,1-30.962-.231,4.229,4.229,0,0,1-32.763.146Zm-.242-6.511a1.323,1.323,0,0,0-1.022.427,2.209,2.209,0,0,0-.5,1.221h2.944v-.169a1.576,1.576,0,0,0-.381-1.092A1.365,1.365,0,0,0-33.005-6.365Zm9.905.425A5.751,5.751,0,0,0-23.862-6a1.55,1.55,0,0,0-1.575.813V0h-2.117V-7.925h2l.059.945A1.961,1.961,0,0,1-23.73-8.071a2.218,2.218,0,0,1,.659.1Zm1.175,1.9a4.7,4.7,0,0,1,.454-2.1,3.324,3.324,0,0,1,1.307-1.428,3.814,3.814,0,0,1,1.981-.505,3.609,3.609,0,0,1,2.618.981,3.939,3.939,0,0,1,1.132,2.666l.015.542A4.142,4.142,0,0,1-15.436-.956a3.539,3.539,0,0,1-2.732,1.1A3.556,3.556,0,0,1-20.9-.952,4.215,4.215,0,0,1-21.925-3.94Zm2.117.15a2.962,2.962,0,0,0,.425,1.727,1.4,1.4,0,0,0,1.216.6,1.4,1.4,0,0,0,1.2-.591,3.241,3.241,0,0,0,.432-1.889,2.933,2.933,0,0,0-.432-1.716,1.4,1.4,0,0,0-1.216-.609,1.382,1.382,0,0,0-1.2.605A3.3,3.3,0,0,0-19.808-3.885Zm11.736,1.7A.682.682,0,0,0-8.457-2.8a4.368,4.368,0,0,0-1.234-.4q-2.827-.593-2.827-2.4a2.178,2.178,0,0,1,.875-1.761,3.531,3.531,0,0,1,2.289-.707,3.8,3.8,0,0,1,2.413.71,2.239,2.239,0,0,1,.9,1.846H-8.153a1.024,1.024,0,0,0-.293-.751,1.24,1.24,0,0,0-.916-.3,1.267,1.267,0,0,0-.828.242.763.763,0,0,0-.293.615.652.652,0,0,0,.333.568,3.428,3.428,0,0,0,1.124.374,9.183,9.183,0,0,1,1.333.355A2.19,2.19,0,0,1-6.014-2.278a2.067,2.067,0,0,1-.93,1.754,4.013,4.013,0,0,1-2.4.67,4.191,4.191,0,0,1-1.769-.355,2.968,2.968,0,0,1-1.212-.974,2.263,2.263,0,0,1-.439-1.337h2.007a1.105,1.105,0,0,0,.417.864,1.656,1.656,0,0,0,1.04.3,1.533,1.533,0,0,0,.919-.231A.718.718,0,0,0-8.072-2.19ZM-.254.146A3.89,3.89,0,0,1-3.092-.923,3.8,3.8,0,0,1-4.187-3.772v-.205a4.787,4.787,0,0,1,.461-2.135,3.386,3.386,0,0,1,1.307-1.45,3.669,3.669,0,0,1,1.93-.509,3.289,3.289,0,0,1,2.56,1.025,4.167,4.167,0,0,1,.934,2.908v.864H-2.041a1.966,1.966,0,0,0,.619,1.245A1.871,1.871,0,0,0-.115-1.56,2.285,2.285,0,0,0,1.8-2.446l1.04,1.165A3.178,3.178,0,0,1,1.548-.231,4.229,4.229,0,0,1-.254.146ZM-.5-6.365a1.323,1.323,0,0,0-1.022.427,2.209,2.209,0,0,0-.5,1.221H.925v-.169A1.576,1.576,0,0,0,.544-5.979,1.365,1.365,0,0,0-.5-6.365Zm7.4-1.56.066.916A2.767,2.767,0,0,1,9.248-8.071a2.3,2.3,0,0,1,1.875.74,3.451,3.451,0,0,1,.63,2.212V0H9.636V-5.068a1.373,1.373,0,0,0-.293-.978,1.312,1.312,0,0,0-.974-.3,1.456,1.456,0,0,0-1.34.762V0H4.912V-7.925Zm6.873,3.889a4.7,4.7,0,0,1,.454-2.1,3.324,3.324,0,0,1,1.307-1.428,3.814,3.814,0,0,1,1.981-.505,3.609,3.609,0,0,1,2.618.981A3.939,3.939,0,0,1,21.27-4.424l.015.542A4.142,4.142,0,0,1,20.267-.956a3.539,3.539,0,0,1-2.732,1.1A3.556,3.556,0,0,1,14.8-.952,4.215,4.215,0,0,1,13.778-3.94Zm2.117.15a2.962,2.962,0,0,0,.425,1.727,1.4,1.4,0,0,0,1.216.6,1.4,1.4,0,0,0,1.2-.591,3.241,3.241,0,0,0,.432-1.889,2.933,2.933,0,0,0-.432-1.716,1.4,1.4,0,0,0-1.216-.609,1.382,1.382,0,0,0-1.2.605A3.3,3.3,0,0,0,15.894-3.885ZM30.783-3l1.465-4.929h2.271L31.332,1.23l-.176.417A2.416,2.416,0,0,1,28.813,3.2a3.33,3.33,0,0,1-.937-.139v-1.6l.322.007a1.741,1.741,0,0,0,.9-.183A1.2,1.2,0,0,0,29.56.674l.249-.652L27.033-7.925h2.278Zm9.476-1.025a4.776,4.776,0,0,1,.831-2.952,2.7,2.7,0,0,1,2.274-1.1,2.427,2.427,0,0,1,1.912.864V-11.25H47.4V0H45.489l-.1-.842A2.491,2.491,0,0,1,43.35.146,2.69,2.69,0,0,1,41.1-.956,4.93,4.93,0,0,1,40.259-4.021Zm2.117.158a3.128,3.128,0,0,0,.388,1.709,1.265,1.265,0,0,0,1.128.594,1.416,1.416,0,0,0,1.384-.829V-5.521a1.4,1.4,0,0,0-1.37-.829Q42.376-6.35,42.376-3.863ZM52.025,0H49.9V-7.925h2.124ZM49.776-9.976a1.042,1.042,0,0,1,.319-.784,1.2,1.2,0,0,1,.868-.308,1.2,1.2,0,0,1,.864.308,1.036,1.036,0,0,1,.322.784,1.039,1.039,0,0,1-.326.791,1.2,1.2,0,0,1-.861.308,1.2,1.2,0,0,1-.861-.308A1.039,1.039,0,0,1,49.776-9.976ZM58.81-2.19a.682.682,0,0,0-.385-.612,4.368,4.368,0,0,0-1.234-.4q-2.827-.593-2.827-2.4a2.178,2.178,0,0,1,.875-1.761,3.531,3.531,0,0,1,2.289-.707,3.8,3.8,0,0,1,2.413.71,2.239,2.239,0,0,1,.9,1.846H58.729a1.024,1.024,0,0,0-.293-.751,1.24,1.24,0,0,0-.916-.3,1.267,1.267,0,0,0-.828.242.763.763,0,0,0-.293.615.652.652,0,0,0,.333.568,3.428,3.428,0,0,0,1.124.374,9.183,9.183,0,0,1,1.333.355,2.19,2.19,0,0,1,1.677,2.131,2.067,2.067,0,0,1-.93,1.754,4.013,4.013,0,0,1-2.4.67,4.191,4.191,0,0,1-1.769-.355,2.968,2.968,0,0,1-1.212-.974,2.263,2.263,0,0,1-.439-1.337h2.007a1.105,1.105,0,0,0,.417.864,1.656,1.656,0,0,0,1.04.3,1.533,1.533,0,0,0,.919-.231A.718.718,0,0,0,58.81-2.19Zm3.841-1.846a4.7,4.7,0,0,1,.454-2.1,3.324,3.324,0,0,1,1.307-1.428,3.814,3.814,0,0,1,1.981-.505,3.609,3.609,0,0,1,2.618.981,3.939,3.939,0,0,1,1.132,2.666l.015.542A4.142,4.142,0,0,1,69.14-.956a3.539,3.539,0,0,1-2.732,1.1,3.556,3.556,0,0,1-2.736-1.1A4.215,4.215,0,0,1,62.651-3.94Zm2.117.15a2.962,2.962,0,0,0,.425,1.727,1.4,1.4,0,0,0,1.216.6,1.4,1.4,0,0,0,1.2-.591,3.241,3.241,0,0,0,.432-1.889,2.933,2.933,0,0,0-.432-1.716,1.4,1.4,0,0,0-1.216-.609,1.382,1.382,0,0,0-1.2.605A3.3,3.3,0,0,0,64.767-3.885ZM74.446,0H72.322V-11.25h2.124Zm5.459-2.585,1.472-5.339h2.212L80.916,0H78.894L76.221-7.925h2.212ZM88.917.146A3.89,3.89,0,0,1,86.079-.923a3.8,3.8,0,0,1-1.095-2.849v-.205a4.787,4.787,0,0,1,.461-2.135,3.386,3.386,0,0,1,1.307-1.45,3.669,3.669,0,0,1,1.93-.509,3.289,3.289,0,0,1,2.56,1.025,4.167,4.167,0,0,1,.934,2.908v.864H87.13a1.966,1.966,0,0,0,.619,1.245,1.871,1.871,0,0,0,1.307.469,2.285,2.285,0,0,0,1.912-.886l1.04,1.165A3.178,3.178,0,0,1,90.719-.231,4.229,4.229,0,0,1,88.917.146Zm-.242-6.511a1.323,1.323,0,0,0-1.022.427,2.209,2.209,0,0,0-.5,1.221H90.1v-.169a1.576,1.576,0,0,0-.381-1.092A1.365,1.365,0,0,0,88.675-6.365Zm7.4-1.56.066.916a2.767,2.767,0,0,1,2.278-1.062,2.3,2.3,0,0,1,1.875.74,3.451,3.451,0,0,1,.63,2.212V0H98.807V-5.068a1.373,1.373,0,0,0-.293-.978,1.312,1.312,0,0,0-.974-.3,1.456,1.456,0,0,0-1.34.762V0H94.083V-7.925Zm9.737-1.948v1.948h1.355v1.553h-1.355v3.955a.944.944,0,0,0,.168.63.846.846,0,0,0,.645.19,3.376,3.376,0,0,0,.623-.051v1.6a4.358,4.358,0,0,1-1.282.19A2.021,2.021,0,0,1,103.7-2.1v-4.27h-1.157V-7.925H103.7V-9.873ZM112.744.146a3.89,3.89,0,0,1-2.838-1.069,3.8,3.8,0,0,1-1.095-2.849v-.205a4.787,4.787,0,0,1,.461-2.135,3.386,3.386,0,0,1,1.307-1.45,3.669,3.669,0,0,1,1.93-.509,3.289,3.289,0,0,1,2.56,1.025A4.167,4.167,0,0,1,116-4.138v.864h-5.046a1.966,1.966,0,0,0,.619,1.245,1.871,1.871,0,0,0,1.307.469,2.285,2.285,0,0,0,1.912-.886l1.04,1.165a3.178,3.178,0,0,1-1.289,1.051A4.229,4.229,0,0,1,112.744.146ZM112.5-6.365a1.323,1.323,0,0,0-1.022.427,2.209,2.209,0,0,0-.5,1.221h2.944v-.169a1.576,1.576,0,0,0-.381-1.092A1.365,1.365,0,0,0,112.5-6.365Zm9.744,4.175a.682.682,0,0,0-.385-.612,4.368,4.368,0,0,0-1.234-.4Q117.8-3.794,117.8-5.6a2.178,2.178,0,0,1,.875-1.761,3.531,3.531,0,0,1,2.289-.707,3.8,3.8,0,0,1,2.413.71,2.239,2.239,0,0,1,.9,1.846h-2.117a1.024,1.024,0,0,0-.293-.751,1.24,1.24,0,0,0-.916-.3,1.267,1.267,0,0,0-.828.242.763.763,0,0,0-.293.615.652.652,0,0,0,.333.568,3.428,3.428,0,0,0,1.124.374,9.183,9.183,0,0,1,1.333.355A2.19,2.19,0,0,1,124.3-2.278a2.067,2.067,0,0,1-.93,1.754,4.013,4.013,0,0,1-2.4.67A4.191,4.191,0,0,1,119.2-.209a2.968,2.968,0,0,1-1.212-.974,2.263,2.263,0,0,1-.439-1.337h2.007a1.105,1.105,0,0,0,.417.864,1.656,1.656,0,0,0,1.04.3,1.533,1.533,0,0,0,.919-.231A.718.718,0,0,0,122.246-2.19ZM-35.992,13.964a4.7,4.7,0,0,1,.454-2.1,3.324,3.324,0,0,1,1.307-1.428,3.814,3.814,0,0,1,1.981-.505,3.609,3.609,0,0,1,2.618.981A3.939,3.939,0,0,1-28.5,13.576l.015.542A4.142,4.142,0,0,1-29.5,17.044a3.539,3.539,0,0,1-2.732,1.1,3.556,3.556,0,0,1-2.736-1.1,4.215,4.215,0,0,1-1.022-2.988Zm2.117.15a2.962,2.962,0,0,0,.425,1.727,1.4,1.4,0,0,0,1.216.6,1.4,1.4,0,0,0,1.2-.591,3.241,3.241,0,0,0,.432-1.889,2.933,2.933,0,0,0-.432-1.716,1.4,1.4,0,0,0-1.216-.609,1.382,1.382,0,0,0-1.2.605A3.3,3.3,0,0,0-33.875,14.115Zm11.9-2.055A5.751,5.751,0,0,0-22.74,12a1.55,1.55,0,0,0-1.575.813V18h-2.117V10.075h2l.059.945a1.961,1.961,0,0,1,1.765-1.091,2.218,2.218,0,0,1,.659.1Zm1.46,1.919a4.644,4.644,0,0,1,.868-2.937,2.812,2.812,0,0,1,2.34-1.113,2.466,2.466,0,0,1,2.029.894l.088-.747h1.919v7.661a3.387,3.387,0,0,1-.472,1.809,3.034,3.034,0,0,1-1.329,1.172,4.673,4.673,0,0,1-2.007.4,4.346,4.346,0,0,1-1.7-.348,3.016,3.016,0,0,1-1.252-.9l.938-1.289a2.48,2.48,0,0,0,1.919.886,1.815,1.815,0,0,0,1.311-.45,1.69,1.69,0,0,0,.469-1.278v-.425a2.448,2.448,0,0,1-1.926.828,2.8,2.8,0,0,1-2.311-1.117,4.643,4.643,0,0,1-.883-2.963Zm2.117.158a2.892,2.892,0,0,0,.432,1.691,1.375,1.375,0,0,0,1.187.612,1.47,1.47,0,0,0,1.384-.726V12.376a1.466,1.466,0,0,0-1.37-.726,1.383,1.383,0,0,0-1.2.624A3.26,3.26,0,0,0-18.4,14.137ZM-6.305,18a2.351,2.351,0,0,1-.212-.71,2.561,2.561,0,0,1-2,.857,2.814,2.814,0,0,1-1.93-.674,2.167,2.167,0,0,1-.765-1.7,2.24,2.24,0,0,1,.934-1.934,4.608,4.608,0,0,1,2.7-.681h.974V12.7a1.306,1.306,0,0,0-.282-.879,1.109,1.109,0,0,0-.89-.33,1.261,1.261,0,0,0-.839.256.871.871,0,0,0-.3.7h-2.117a2.126,2.126,0,0,1,.425-1.274,2.808,2.808,0,0,1,1.2-.919,4.378,4.378,0,0,1,1.743-.333,3.459,3.459,0,0,1,2.325.736,2.575,2.575,0,0,1,.861,2.069v3.435a3.789,3.789,0,0,0,.315,1.707V18Zm-1.75-1.472a1.823,1.823,0,0,0,.864-.209,1.371,1.371,0,0,0,.586-.56V14.4H-7.4q-1.589,0-1.692,1.1l-.007.125a.847.847,0,0,0,.278.652A1.081,1.081,0,0,0-8.056,16.528ZM-7.25,6.75h2.307L-6.972,9.021H-8.693Zm7.093,3.325.066.916A2.767,2.767,0,0,1,2.186,9.929a2.3,2.3,0,0,1,1.875.74,3.451,3.451,0,0,1,.63,2.212V18H2.574V12.932a1.373,1.373,0,0,0-.293-.978,1.312,1.312,0,0,0-.974-.3,1.456,1.456,0,0,0-1.34.762V18H-2.15V10.075ZM9.279,18H7.155V10.075H9.279ZM7.031,8.024a1.042,1.042,0,0,1,.319-.784,1.2,1.2,0,0,1,.868-.308,1.2,1.2,0,0,1,.864.308,1.118,1.118,0,0,1,0,1.575,1.2,1.2,0,0,1-.861.308,1.2,1.2,0,0,1-.861-.308A1.039,1.039,0,0,1,7.031,8.024Zm8.038,8.416a1.388,1.388,0,0,0,.952-.322,1.129,1.129,0,0,0,.381-.857h1.985a2.715,2.715,0,0,1-.439,1.476,2.9,2.9,0,0,1-1.183,1.04,3.7,3.7,0,0,1-1.659.37,3.44,3.44,0,0,1-2.681-1.08,4.275,4.275,0,0,1-.981-2.985v-.139a4.226,4.226,0,0,1,.974-2.922A3.4,3.4,0,0,1,15.09,9.929a3.333,3.333,0,0,1,2.384.846,3,3,0,0,1,.912,2.252H16.4a1.455,1.455,0,0,0-.381-1.005,1.416,1.416,0,0,0-2.084.153,3.125,3.125,0,0,0-.377,1.749v.22a3.164,3.164,0,0,0,.374,1.761A1.291,1.291,0,0,0,15.068,16.44Zm4.947-2.476a4.7,4.7,0,0,1,.454-2.1,3.324,3.324,0,0,1,1.307-1.428,3.814,3.814,0,0,1,1.981-.505,3.609,3.609,0,0,1,2.618.981,3.939,3.939,0,0,1,1.132,2.666l.015.542A4.142,4.142,0,0,1,26.5,17.044a3.539,3.539,0,0,1-2.732,1.1,3.556,3.556,0,0,1-2.736-1.1,4.215,4.215,0,0,1-1.022-2.988Zm2.117.15a2.962,2.962,0,0,0,.425,1.727,1.526,1.526,0,0,0,2.417.007,3.241,3.241,0,0,0,.432-1.889,2.933,2.933,0,0,0-.432-1.716,1.4,1.4,0,0,0-1.216-.609,1.382,1.382,0,0,0-1.2.605A3.3,3.3,0,0,0,22.132,14.115Zm11.736,1.7a.682.682,0,0,0-.385-.612,4.368,4.368,0,0,0-1.234-.4q-2.827-.593-2.827-2.4a2.178,2.178,0,0,1,.875-1.761,3.531,3.531,0,0,1,2.289-.707,3.8,3.8,0,0,1,2.413.71,2.239,2.239,0,0,1,.9,1.846H33.787a1.024,1.024,0,0,0-.293-.751,1.24,1.24,0,0,0-.916-.3,1.267,1.267,0,0,0-.828.242.763.763,0,0,0-.293.615.652.652,0,0,0,.333.568,3.428,3.428,0,0,0,1.124.374,9.183,9.183,0,0,1,1.333.355,2.19,2.19,0,0,1,1.677,2.131A2.067,2.067,0,0,1,35,17.476a4.013,4.013,0,0,1-2.4.67,4.191,4.191,0,0,1-1.769-.355,2.968,2.968,0,0,1-1.212-.974,2.263,2.263,0,0,1-.439-1.337H31.18a1.105,1.105,0,0,0,.417.864,1.656,1.656,0,0,0,1.04.3,1.533,1.533,0,0,0,.919-.231A.718.718,0,0,0,33.868,15.81Z" transform="translate(1068.5 6036.442)" fill="#0b5999"/>
    <path id="Trazado_638393" data-name="Trazado 638393" d="M0,0H298.759a28,28,0,0,1,28,28V57.574a28,28,0,0,1-28,28H0Z" transform="translate(883.241 6161.842)" fill="#4dd0e1" opacity="0.8"/>
    <path id="Trazado_638394" data-name="Trazado 638394" d="M14.389,0A14.389,14.389,0,1,1,0,14.389,14.389,14.389,0,0,1,14.389,0Z" transform="translate(731.393 6190.241)" stroke="#fff" stroke-width="0.285" fill="url(#linear-gradient)"/>
    <path id="Trazado_638395" data-name="Trazado 638395" d="M45.989,0A45.989,45.989,0,1,1,0,45.989,45.989,45.989,0,0,1,45.989,0Z" transform="translate(703.37 5827.384) rotate(-9.306)" fill="#fff" stroke="#0b5999" stroke-width="1"/>
    <path id="Trazado_630031" data-name="Trazado 630031" d="M419.328,123.384a46,46,0,0,0-51.637-72.35" transform="translate(372.321 5771.234)" fill="none" stroke="#4dd0e1" stroke-miterlimit="10" stroke-width="5"/>
    <path id="Trazado_630032" data-name="Trazado 630032" d="M345.56,66.863a54.168,54.168,0,0,0,60.4,70.926" transform="translate(359.429 5780.885)" fill="none" stroke="#0b5999" stroke-miterlimit="10" stroke-width="5"/>
    <path id="Trazado_638396" data-name="Trazado 638396" d="M4.662,0H-.969V-37.327L-12.261-33.18v-5.086L3.784-44.29h.878Z" transform="translate(756.19 5886.831)" fill="none" stroke="#0b5999" stroke-width="1"/>
    <path id="Trazado_638397" data-name="Trazado 638397" d="M49.467,0A49.467,49.467,0,1,1,0,49.467,49.467,49.467,0,0,1,49.467,0Z" transform="translate(820.048 5997.008) rotate(-8.681)" fill="#fff" stroke="#0b5999" stroke-width="1"/>
    <path id="Trazado_630033" data-name="Trazado 630033" d="M501.8,241.079a49.485,49.485,0,0,0-55.543-77.824" transform="translate(412.751 5828.867)" fill="none" stroke="#4dd0e1" stroke-miterlimit="10" stroke-width="5"/>
    <path id="Trazado_630034" data-name="Trazado 630034" d="M422.455,180.282a58.265,58.265,0,0,0,64.971,76.291" transform="translate(398.885 5839.248)" fill="none" stroke="#0b5999" stroke-miterlimit="10" stroke-width="5"/>
    <path id="Trazado_638398" data-name="Trazado 638398" d="M15.869,0H-14.409V-4.221l16-17.773a38,38,0,0,0,4.9-6.554A10.938,10.938,0,0,0,7.839-33.77,8.291,8.291,0,0,0,5.649-39.7,7.657,7.657,0,0,0-.19-42.021,9.068,9.068,0,0,0-7-39.53,9.517,9.517,0,0,0-9.426-32.6H-15.3a13.63,13.63,0,0,1,4.11-10.315q4.11-3.936,11-3.936,6.443,0,10.188,3.38a11.53,11.53,0,0,1,3.745,9q0,6.824-8.7,16.25L-7.332-4.792h23.2Z" transform="translate(877 6061.54)" fill="none" stroke="#0b5999" stroke-width="1"/>
    <path id="Trazado_638399" data-name="Trazado 638399" d="M47.372,0A47.372,47.372,0,1,1,0,47.372,47.372,47.372,0,0,1,47.372,0Z" transform="translate(809.509 6199.922) rotate(-45)" fill="#fff" stroke="#0b5999" stroke-width="1"/>
    <path id="Trazado_630035" data-name="Trazado 630035" d="M500,345.648a47.389,47.389,0,0,0-53.19-74.526" transform="translate(413.032 5884.442)" fill="none" stroke="#4dd0e1" stroke-miterlimit="10" stroke-width="5"/>
    <path id="Trazado_630036" data-name="Trazado 630036" d="M424.008,287.427a55.8,55.8,0,0,0,62.22,73.06" transform="translate(399.753 5894.383)" fill="none" stroke="#0b5999" stroke-miterlimit="10" stroke-width="5"/>
    <path id="Trazado_638400" data-name="Trazado 638400" d="M-5.872-25.962H-1.46a9.7,9.7,0,0,0,6.538-2.19A7.317,7.317,0,0,0,7.458-33.9q0-8.125-8.093-8.125a8.418,8.418,0,0,0-6.078,2.174,7.609,7.609,0,0,0-2.269,5.76h-5.872a11.788,11.788,0,0,1,4.015-9.125,14.626,14.626,0,0,1,10.2-3.634q6.538,0,10.251,3.459T13.33-33.77a10.144,10.144,0,0,1-1.952,5.84,11.785,11.785,0,0,1-5.316,4.221,11.356,11.356,0,0,1,5.887,4,11.106,11.106,0,0,1,2.079,6.824A12.606,12.606,0,0,1,9.966-3.015,15.213,15.213,0,0,1-.6.635,15.615,15.615,0,0,1-11.188-2.888a11.687,11.687,0,0,1-4.078-9.3h5.9a7.553,7.553,0,0,0,2.38,5.84A9.054,9.054,0,0,0-.6-4.158q4.253,0,6.506-2.222a8.562,8.562,0,0,0,2.253-6.379,7.769,7.769,0,0,0-2.476-6.189Q3.206-21.106-1.46-21.169H-5.872Z" transform="translate(877 6224.369)" fill="none" stroke="#0b5999" stroke-width="1"/>
    <path id="Trazado_638401" data-name="Trazado 638401" d="M47.093,0A47.093,47.093,0,1,1,0,47.093,47.093,47.093,0,0,1,47.093,0Z" transform="translate(699.786 6338.205) rotate(-10.963)" fill="#fff" stroke="#0b5999" stroke-width="1"/>
    <path id="Trazado_630037" data-name="Trazado 630037" d="M419.51,461.291A47.111,47.111,0,0,0,366.633,387.2" transform="translate(371.777 5944.183)" fill="none" stroke="#4dd0e1" stroke-miterlimit="10" stroke-width="5"/>
    <path id="Trazado_630038" data-name="Trazado 630038" d="M343.969,403.411a55.466,55.466,0,0,0,61.852,72.63" transform="translate(358.575 5954.065)" fill="none" stroke="#0b5999" stroke-miterlimit="10" stroke-width="5"/>
    <path id="Trazado_638402" data-name="Trazado 638402" d="M10.378-15.52H16.79v4.792H10.378V0h-5.9V-10.728H-16.567v-3.459L4.126-46.211h6.252Zm-20.281,0H4.475V-38.181l-.7,1.27Z" transform="translate(754.976 6396.835)" fill="none" stroke="#0b5999" stroke-width="1"/>
    <path id="Trazado_630039" data-name="Trazado 630039" d="M317,367.206v31.558c0,5.992,5.933,10.85,13.251,10.85h28.73" transform="translate(346.237 5935.436)" fill="none" stroke="#4dd0e1" stroke-linecap="round" stroke-linejoin="round" stroke-width="2" stroke-dasharray="0 7"/>
    <path id="Trazado_630040" data-name="Trazado 630040" d="M317.331,141.883V112.477c0-5.992,5.861-10.85,13.094-10.85h28.386" transform="translate(346.407 5798.774)" fill="none" stroke="#4dd0e1" stroke-linecap="round" stroke-linejoin="round" stroke-width="2" stroke-dasharray="0 7"/>
    <path id="Trazado_638403" data-name="Trazado 638403" d="M0,0H46.952" transform="translate(764.713 6040.619)" fill="none" stroke="#4dd0e1" stroke-linecap="round" stroke-width="2" stroke-dasharray="0 7"/>
    <path id="Trazado_638404" data-name="Trazado 638404" d="M0,0H46.952" transform="translate(764.713 6204.194)" fill="none" stroke="#4dd0e1" stroke-linecap="round" stroke-width="2" stroke-dasharray="0 7"/>
    <path id="Trazado_638405" data-name="Trazado 638405" d="M-61.583-4.622H-65.8v2.856h4.951V0H-68V-10.664h7.134v1.78H-65.8v2.542h4.219ZM-56.717,0h-2.124V-11.25h2.124Zm6.141.146A3.89,3.89,0,0,1-53.415-.923,3.8,3.8,0,0,1-54.51-3.772v-.205a4.787,4.787,0,0,1,.461-2.135,3.386,3.386,0,0,1,1.307-1.45,3.669,3.669,0,0,1,1.93-.509,3.289,3.289,0,0,1,2.56,1.025,4.167,4.167,0,0,1,.934,2.908v.864h-5.046a1.966,1.966,0,0,0,.619,1.245,1.871,1.871,0,0,0,1.307.469,2.285,2.285,0,0,0,1.912-.886l1.04,1.165A3.178,3.178,0,0,1-48.775-.231,4.229,4.229,0,0,1-50.577.146Zm-.242-6.511a1.323,1.323,0,0,0-1.022.427,2.209,2.209,0,0,0-.5,1.221H-49.4v-.169a1.576,1.576,0,0,0-.381-1.092A1.365,1.365,0,0,0-50.818-6.365Zm8.748,4.8a1.388,1.388,0,0,0,.952-.322,1.129,1.129,0,0,0,.381-.857h1.985a2.715,2.715,0,0,1-.439,1.476,2.9,2.9,0,0,1-1.183,1.04,3.7,3.7,0,0,1-1.659.37,3.44,3.44,0,0,1-2.681-1.08A4.275,4.275,0,0,1-45.7-3.918v-.139a4.226,4.226,0,0,1,.974-2.922,3.4,3.4,0,0,1,2.673-1.091,3.333,3.333,0,0,1,2.384.846,3,3,0,0,1,.912,2.252h-1.985a1.455,1.455,0,0,0-.381-1.005,1.27,1.27,0,0,0-.967-.387,1.275,1.275,0,0,0-1.117.539,3.125,3.125,0,0,0-.377,1.749v.22A3.164,3.164,0,0,0-43.206-2.1,1.291,1.291,0,0,0-42.07-1.56Zm7.811-8.313v1.948H-32.9v1.553H-34.26v3.955a.944.944,0,0,0,.168.63.846.846,0,0,0,.645.19,3.376,3.376,0,0,0,.623-.051v1.6a4.358,4.358,0,0,1-1.282.19A2.021,2.021,0,0,1-36.376-2.1v-4.27h-1.157V-7.925h1.157V-9.873Zm7.737,3.933A5.751,5.751,0,0,0-27.284-6a1.55,1.55,0,0,0-1.575.813V0h-2.117V-7.925h2l.059.945a1.961,1.961,0,0,1,1.765-1.091,2.218,2.218,0,0,1,.659.1Zm1.175,1.9a4.7,4.7,0,0,1,.454-2.1,3.324,3.324,0,0,1,1.307-1.428A3.814,3.814,0,0,1-21.6-8.071a3.609,3.609,0,0,1,2.618.981,3.939,3.939,0,0,1,1.132,2.666l.015.542A4.142,4.142,0,0,1-18.858-.956,3.539,3.539,0,0,1-21.59.146a3.556,3.556,0,0,1-2.736-1.1A4.215,4.215,0,0,1-25.348-3.94Zm2.117.15a2.962,2.962,0,0,0,.425,1.727,1.4,1.4,0,0,0,1.216.6,1.4,1.4,0,0,0,1.2-.591,3.241,3.241,0,0,0,.432-1.889,2.933,2.933,0,0,0-.432-1.716A1.4,1.4,0,0,0-21.6-6.365a1.382,1.382,0,0,0-1.2.605A3.3,3.3,0,0,0-23.231-3.885Zm7.115-.136a4.776,4.776,0,0,1,.831-2.952,2.7,2.7,0,0,1,2.274-1.1,2.427,2.427,0,0,1,1.912.864V-11.25h2.124V0h-1.912l-.1-.842a2.491,2.491,0,0,1-2.036.989,2.69,2.69,0,0,1-2.245-1.1A4.93,4.93,0,0,1-16.116-4.021ZM-14-3.863a3.128,3.128,0,0,0,.388,1.709,1.265,1.265,0,0,0,1.128.594A1.416,1.416,0,0,0-11.1-2.389V-5.521a1.4,1.4,0,0,0-1.37-.829Q-14-6.35-14-3.863Zm7.085-.172a4.7,4.7,0,0,1,.454-2.1A3.324,3.324,0,0,1-5.153-7.566a3.814,3.814,0,0,1,1.981-.505A3.609,3.609,0,0,1-.553-7.09,3.939,3.939,0,0,1,.579-4.424l.015.542A4.142,4.142,0,0,1-.425-.956,3.539,3.539,0,0,1-3.157.146a3.556,3.556,0,0,1-2.736-1.1A4.215,4.215,0,0,1-6.914-3.94Zm2.117.15a2.962,2.962,0,0,0,.425,1.727,1.4,1.4,0,0,0,1.216.6,1.4,1.4,0,0,0,1.2-.591,3.241,3.241,0,0,0,.432-1.889,2.933,2.933,0,0,0-.432-1.716,1.4,1.4,0,0,0-1.216-.609,1.382,1.382,0,0,0-1.2.605A3.3,3.3,0,0,0-4.8-3.885ZM4.632-7.925l.066.886A2.785,2.785,0,0,1,6.976-8.071a2.114,2.114,0,0,1,2.1,1.208,2.721,2.721,0,0,1,2.38-1.208,2.364,2.364,0,0,1,1.919.751,3.451,3.451,0,0,1,.63,2.26V0H11.883V-5.054a1.509,1.509,0,0,0-.264-.985,1.169,1.169,0,0,0-.93-.311,1.321,1.321,0,0,0-1.318.908L9.378,0H7.261V-5.046a1.491,1.491,0,0,0-.271-1,1.18,1.18,0,0,0-.923-.308,1.372,1.372,0,0,0-1.3.747V0H2.647V-7.925ZM20.03.146A3.89,3.89,0,0,1,17.192-.923,3.8,3.8,0,0,1,16.1-3.772v-.205a4.787,4.787,0,0,1,.461-2.135,3.386,3.386,0,0,1,1.307-1.45,3.669,3.669,0,0,1,1.93-.509,3.289,3.289,0,0,1,2.56,1.025,4.167,4.167,0,0,1,.934,2.908v.864H18.243a1.966,1.966,0,0,0,.619,1.245,1.871,1.871,0,0,0,1.307.469,2.285,2.285,0,0,0,1.912-.886l1.04,1.165A3.178,3.178,0,0,1,21.832-.231,4.229,4.229,0,0,1,20.03.146Zm-.242-6.511a1.323,1.323,0,0,0-1.022.427,2.209,2.209,0,0,0-.5,1.221h2.944v-.169a1.576,1.576,0,0,0-.381-1.092A1.365,1.365,0,0,0,19.789-6.365Zm.19-4.885h2.307L20.257-8.979H18.536Zm9.554,9.06a.682.682,0,0,0-.385-.612,4.368,4.368,0,0,0-1.234-.4q-2.827-.593-2.827-2.4a2.178,2.178,0,0,1,.875-1.761,3.531,3.531,0,0,1,2.289-.707,3.8,3.8,0,0,1,2.413.71,2.239,2.239,0,0,1,.9,1.846H29.452a1.024,1.024,0,0,0-.293-.751,1.24,1.24,0,0,0-.916-.3,1.267,1.267,0,0,0-.828.242.763.763,0,0,0-.293.615.652.652,0,0,0,.333.568,3.428,3.428,0,0,0,1.124.374,9.183,9.183,0,0,1,1.333.355,2.19,2.19,0,0,1,1.677,2.131,2.067,2.067,0,0,1-.93,1.754,4.013,4.013,0,0,1-2.4.67A4.191,4.191,0,0,1,26.49-.209a2.968,2.968,0,0,1-1.212-.974,2.263,2.263,0,0,1-.439-1.337h2.007a1.105,1.105,0,0,0,.417.864,1.656,1.656,0,0,0,1.04.3,1.533,1.533,0,0,0,.919-.231A.718.718,0,0,0,29.533-2.19Zm6.7-7.683v1.948h1.355v1.553H36.237v3.955a.944.944,0,0,0,.168.63.846.846,0,0,0,.645.19,3.376,3.376,0,0,0,.623-.051v1.6a4.358,4.358,0,0,1-1.282.19A2.021,2.021,0,0,1,34.121-2.1v-4.27H32.963V-7.925h1.157V-9.873ZM41.755,0H39.631V-7.925h2.124ZM39.507-9.976a1.042,1.042,0,0,1,.319-.784,1.2,1.2,0,0,1,.868-.308,1.2,1.2,0,0,1,.864.308,1.036,1.036,0,0,1,.322.784,1.039,1.039,0,0,1-.326.791,1.2,1.2,0,0,1-.861.308,1.2,1.2,0,0,1-.861-.308A1.039,1.039,0,0,1,39.507-9.976ZM47.544-1.56a1.388,1.388,0,0,0,.952-.322,1.129,1.129,0,0,0,.381-.857h1.985a2.715,2.715,0,0,1-.439,1.476A2.9,2.9,0,0,1,49.24-.223a3.7,3.7,0,0,1-1.659.37A3.44,3.44,0,0,1,44.9-.934a4.275,4.275,0,0,1-.981-2.985v-.139a4.226,4.226,0,0,1,.974-2.922,3.4,3.4,0,0,1,2.673-1.091,3.333,3.333,0,0,1,2.384.846,3,3,0,0,1,.912,2.252H48.877A1.455,1.455,0,0,0,48.5-5.978a1.27,1.27,0,0,0-.967-.387,1.275,1.275,0,0,0-1.117.539,3.125,3.125,0,0,0-.377,1.749v.22A3.164,3.164,0,0,0,46.409-2.1,1.291,1.291,0,0,0,47.544-1.56Zm4.947-2.476a4.7,4.7,0,0,1,.454-2.1,3.324,3.324,0,0,1,1.307-1.428,3.814,3.814,0,0,1,1.981-.505,3.609,3.609,0,0,1,2.618.981,3.939,3.939,0,0,1,1.132,2.666L60-3.882A4.142,4.142,0,0,1,58.98-.956a3.539,3.539,0,0,1-2.732,1.1,3.556,3.556,0,0,1-2.736-1.1A4.215,4.215,0,0,1,52.491-3.94Zm2.117.15a2.962,2.962,0,0,0,.425,1.727,1.4,1.4,0,0,0,1.216.6,1.4,1.4,0,0,0,1.2-.591,3.241,3.241,0,0,0,.432-1.889,2.933,2.933,0,0,0-.432-1.716,1.4,1.4,0,0,0-1.216-.609,1.382,1.382,0,0,0-1.2.605A3.3,3.3,0,0,0,54.608-3.885Zm11.736,1.7A.682.682,0,0,0,65.96-2.8a4.368,4.368,0,0,0-1.234-.4Q61.9-3.794,61.9-5.6a2.178,2.178,0,0,1,.875-1.761,3.531,3.531,0,0,1,2.289-.707,3.8,3.8,0,0,1,2.413.71,2.239,2.239,0,0,1,.9,1.846H66.264a1.024,1.024,0,0,0-.293-.751,1.24,1.24,0,0,0-.916-.3,1.267,1.267,0,0,0-.828.242.763.763,0,0,0-.293.615.652.652,0,0,0,.333.568,3.428,3.428,0,0,0,1.124.374,9.183,9.183,0,0,1,1.333.355A2.19,2.19,0,0,1,68.4-2.278a2.067,2.067,0,0,1-.93,1.754,4.013,4.013,0,0,1-2.4.67A4.191,4.191,0,0,1,63.3-.209a2.968,2.968,0,0,1-1.212-.974,2.263,2.263,0,0,1-.439-1.337h2.007a1.105,1.105,0,0,0,.417.864,1.656,1.656,0,0,0,1.04.3,1.533,1.533,0,0,0,.919-.231A.718.718,0,0,0,66.344-2.19Z" transform="translate(1058.499 6210.629)" fill="#0b5999"/>
    <path id="Trazado_638406" data-name="Trazado 638406" d="M-77.811-10.664l2.739,7.734,2.725-7.734h2.886V0h-2.2V-2.915l.22-5.032L-74.325,0h-1.509L-78.7-7.939l.22,5.024V0h-2.2V-10.664ZM-63.284.146A3.89,3.89,0,0,1-66.122-.923a3.8,3.8,0,0,1-1.095-2.849v-.205a4.787,4.787,0,0,1,.461-2.135,3.386,3.386,0,0,1,1.307-1.45,3.669,3.669,0,0,1,1.93-.509,3.289,3.289,0,0,1,2.56,1.025,4.167,4.167,0,0,1,.934,2.908v.864h-5.046a1.966,1.966,0,0,0,.619,1.245,1.871,1.871,0,0,0,1.307.469,2.285,2.285,0,0,0,1.912-.886l1.04,1.165A3.178,3.178,0,0,1-61.482-.231,4.229,4.229,0,0,1-63.284.146Zm-.242-6.511a1.323,1.323,0,0,0-1.022.427,2.209,2.209,0,0,0-.5,1.221H-62.1v-.169a1.576,1.576,0,0,0-.381-1.092A1.365,1.365,0,0,0-63.526-6.365Zm7.986-3.508v1.948h1.355v1.553H-55.54v3.955a.944.944,0,0,0,.168.63.846.846,0,0,0,.645.19,3.376,3.376,0,0,0,.623-.051v1.6a4.358,4.358,0,0,1-1.282.19A2.021,2.021,0,0,1-57.656-2.1v-4.27h-1.157V-7.925h1.157V-9.873ZM-47.663,0a2.351,2.351,0,0,1-.212-.71,2.561,2.561,0,0,1-2,.857A2.814,2.814,0,0,1-51.8-.527a2.167,2.167,0,0,1-.765-1.7,2.24,2.24,0,0,1,.934-1.934,4.608,4.608,0,0,1,2.7-.681h.974V-5.3a1.306,1.306,0,0,0-.282-.879,1.109,1.109,0,0,0-.89-.33,1.261,1.261,0,0,0-.839.256.871.871,0,0,0-.3.7h-2.117a2.126,2.126,0,0,1,.425-1.274,2.808,2.808,0,0,1,1.2-.919,4.378,4.378,0,0,1,1.743-.333,3.459,3.459,0,0,1,2.325.736,2.575,2.575,0,0,1,.861,2.069v3.435a3.789,3.789,0,0,0,.315,1.707V0Zm-1.75-1.472a1.823,1.823,0,0,0,.864-.209,1.371,1.371,0,0,0,.586-.56V-3.6h-.791q-1.589,0-1.692,1.1l-.007.125a.847.847,0,0,0,.278.652A1.081,1.081,0,0,0-49.414-1.472ZM-41.229,0h-2.124V-11.25h2.124Zm6.141.146A3.89,3.89,0,0,1-37.927-.923a3.8,3.8,0,0,1-1.095-2.849v-.205a4.787,4.787,0,0,1,.461-2.135,3.386,3.386,0,0,1,1.307-1.45,3.669,3.669,0,0,1,1.93-.509,3.289,3.289,0,0,1,2.56,1.025,4.167,4.167,0,0,1,.934,2.908v.864h-5.046a1.966,1.966,0,0,0,.619,1.245,1.871,1.871,0,0,0,1.307.469,2.285,2.285,0,0,0,1.912-.886L-32-1.282A3.178,3.178,0,0,1-33.287-.231,4.229,4.229,0,0,1-35.089.146Zm-.242-6.511a1.323,1.323,0,0,0-1.022.427,2.209,2.209,0,0,0-.5,1.221h2.944v-.169a1.576,1.576,0,0,0-.381-1.092A1.365,1.365,0,0,0-35.331-6.365Zm9.744,4.175a.682.682,0,0,0-.385-.612,4.368,4.368,0,0,0-1.234-.4q-2.827-.593-2.827-2.4a2.178,2.178,0,0,1,.875-1.761,3.531,3.531,0,0,1,2.289-.707,3.8,3.8,0,0,1,2.413.71,2.239,2.239,0,0,1,.9,1.846h-2.117a1.024,1.024,0,0,0-.293-.751,1.24,1.24,0,0,0-.916-.3,1.267,1.267,0,0,0-.828.242A.763.763,0,0,0-28-5.706a.652.652,0,0,0,.333.568,3.428,3.428,0,0,0,1.124.374,9.183,9.183,0,0,1,1.333.355,2.19,2.19,0,0,1,1.677,2.131,2.067,2.067,0,0,1-.93,1.754,4.013,4.013,0,0,1-2.4.67A4.191,4.191,0,0,1-28.63-.209a2.968,2.968,0,0,1-1.212-.974,2.263,2.263,0,0,1-.439-1.337h2.007a1.105,1.105,0,0,0,.417.864,1.656,1.656,0,0,0,1.04.3,1.533,1.533,0,0,0,.919-.231A.718.718,0,0,0-25.586-2.19Zm11.952.63a1.388,1.388,0,0,0,.952-.322,1.129,1.129,0,0,0,.381-.857h1.985a2.715,2.715,0,0,1-.439,1.476,2.9,2.9,0,0,1-1.183,1.04A3.7,3.7,0,0,1-13.6.146a3.44,3.44,0,0,1-2.681-1.08,4.275,4.275,0,0,1-.981-2.985v-.139a4.226,4.226,0,0,1,.974-2.922,3.4,3.4,0,0,1,2.673-1.091,3.333,3.333,0,0,1,2.384.846,3,3,0,0,1,.912,2.252H-12.3a1.455,1.455,0,0,0-.381-1.005,1.27,1.27,0,0,0-.967-.387,1.275,1.275,0,0,0-1.117.539,3.125,3.125,0,0,0-.377,1.749v.22A3.164,3.164,0,0,0-14.77-2.1,1.291,1.291,0,0,0-13.635-1.56Zm4.947-2.476a4.7,4.7,0,0,1,.454-2.1A3.324,3.324,0,0,1-6.927-7.566a3.814,3.814,0,0,1,1.981-.505,3.609,3.609,0,0,1,2.618.981A3.939,3.939,0,0,1-1.2-4.424l.015.542A4.142,4.142,0,0,1-2.2-.956,3.539,3.539,0,0,1-4.931.146a3.556,3.556,0,0,1-2.736-1.1A4.215,4.215,0,0,1-8.688-3.94Zm2.117.15a2.962,2.962,0,0,0,.425,1.727,1.4,1.4,0,0,0,1.216.6,1.4,1.4,0,0,0,1.2-.591A3.241,3.241,0,0,0-3.3-4.039a2.933,2.933,0,0,0-.432-1.716,1.4,1.4,0,0,0-1.216-.609,1.382,1.382,0,0,0-1.2.605A3.3,3.3,0,0,0-6.571-3.885ZM2.858-7.925l.066.886A2.785,2.785,0,0,1,5.2-8.071,2.114,2.114,0,0,1,7.3-6.863a2.721,2.721,0,0,1,2.38-1.208,2.364,2.364,0,0,1,1.919.751,3.451,3.451,0,0,1,.63,2.26V0H10.109V-5.054a1.509,1.509,0,0,0-.264-.985,1.169,1.169,0,0,0-.93-.311A1.321,1.321,0,0,0,7.6-5.442L7.6,0H5.487V-5.046a1.491,1.491,0,0,0-.271-1,1.18,1.18,0,0,0-.923-.308,1.372,1.372,0,0,0-1.3.747V0H.873V-7.925ZM21.75-3.889a4.8,4.8,0,0,1-.813,2.97A2.693,2.693,0,0,1,18.667.146a2.474,2.474,0,0,1-2.058-.989l-.1.842h-1.9V-11.25h2.117v4.036a2.411,2.411,0,0,1,1.926-.857,2.715,2.715,0,0,1,2.274,1.066,4.806,4.806,0,0,1,.824,3Zm-2.117-.154A3.153,3.153,0,0,0,19.252-5.8a1.288,1.288,0,0,0-1.135-.553,1.4,1.4,0,0,0-1.392.828V-2.4a1.415,1.415,0,0,0,1.406.835,1.307,1.307,0,0,0,1.348-1.011A5.214,5.214,0,0,0,19.633-4.043ZM28.55-.806a2.654,2.654,0,0,1-2.168.952,2.5,2.5,0,0,1-1.945-.732,3.127,3.127,0,0,1-.685-2.146V-7.925h2.117V-2.8Q25.869-1.56,27-1.56a1.528,1.528,0,0,0,1.479-.748V-7.925H30.6V0H28.608ZM37.239-2.19a.682.682,0,0,0-.385-.612,4.368,4.368,0,0,0-1.234-.4q-2.827-.593-2.827-2.4a2.178,2.178,0,0,1,.875-1.761,3.531,3.531,0,0,1,2.289-.707,3.8,3.8,0,0,1,2.413.71,2.239,2.239,0,0,1,.9,1.846H37.159a1.024,1.024,0,0,0-.293-.751,1.24,1.24,0,0,0-.916-.3,1.267,1.267,0,0,0-.828.242.763.763,0,0,0-.293.615.652.652,0,0,0,.333.568,3.428,3.428,0,0,0,1.124.374,9.183,9.183,0,0,1,1.333.355A2.19,2.19,0,0,1,39.3-2.278a2.067,2.067,0,0,1-.93,1.754,4.013,4.013,0,0,1-2.4.67A4.191,4.191,0,0,1,34.2-.209a2.968,2.968,0,0,1-1.212-.974,2.263,2.263,0,0,1-.439-1.337h2.007a1.105,1.105,0,0,0,.417.864,1.656,1.656,0,0,0,1.04.3,1.533,1.533,0,0,0,.919-.231A.718.718,0,0,0,37.239-2.19Zm6.7-7.683v1.948H45.3v1.553H43.944v3.955a.944.944,0,0,0,.168.63.846.846,0,0,0,.645.19,3.376,3.376,0,0,0,.623-.051v1.6A4.358,4.358,0,0,1,44.1.146,2.021,2.021,0,0,1,41.827-2.1v-4.27H40.67V-7.925h1.157V-9.873ZM49.462,0H47.338V-7.925h2.124ZM47.213-9.976a1.042,1.042,0,0,1,.319-.784,1.2,1.2,0,0,1,.868-.308,1.2,1.2,0,0,1,.864.308,1.036,1.036,0,0,1,.322.784,1.039,1.039,0,0,1-.326.791,1.2,1.2,0,0,1-.861.308,1.2,1.2,0,0,1-.861-.308A1.039,1.039,0,0,1,47.213-9.976ZM59.1-3.889a4.8,4.8,0,0,1-.813,2.97A2.693,2.693,0,0,1,56.013.146a2.474,2.474,0,0,1-2.058-.989l-.1.842h-1.9V-11.25h2.117v4.036A2.411,2.411,0,0,1,56-8.071a2.715,2.715,0,0,1,2.274,1.066,4.806,4.806,0,0,1,.824,3Zm-2.117-.154A3.153,3.153,0,0,0,56.6-5.8a1.288,1.288,0,0,0-1.135-.553,1.4,1.4,0,0,0-1.392.828V-2.4a1.415,1.415,0,0,0,1.406.835,1.307,1.307,0,0,0,1.348-1.011A5.214,5.214,0,0,0,56.979-4.043ZM63.384,0H61.26V-11.25h2.124Zm6.141.146A3.89,3.89,0,0,1,66.686-.923a3.8,3.8,0,0,1-1.095-2.849v-.205a4.787,4.787,0,0,1,.461-2.135,3.386,3.386,0,0,1,1.307-1.45,3.669,3.669,0,0,1,1.93-.509,3.289,3.289,0,0,1,2.56,1.025,4.167,4.167,0,0,1,.934,2.908v.864H67.737a1.966,1.966,0,0,0,.619,1.245,1.871,1.871,0,0,0,1.307.469,2.285,2.285,0,0,0,1.912-.886l1.04,1.165A3.178,3.178,0,0,1,71.326-.231,4.229,4.229,0,0,1,69.524.146Zm-.242-6.511a1.323,1.323,0,0,0-1.022.427,2.209,2.209,0,0,0-.5,1.221H70.7v-.169a1.576,1.576,0,0,0-.381-1.092A1.365,1.365,0,0,0,69.283-6.365ZM79.027-2.19a.682.682,0,0,0-.385-.612,4.368,4.368,0,0,0-1.234-.4q-2.827-.593-2.827-2.4a2.178,2.178,0,0,1,.875-1.761,3.531,3.531,0,0,1,2.289-.707,3.8,3.8,0,0,1,2.413.71,2.239,2.239,0,0,1,.9,1.846H78.946a1.024,1.024,0,0,0-.293-.751,1.24,1.24,0,0,0-.916-.3,1.267,1.267,0,0,0-.828.242.763.763,0,0,0-.293.615.652.652,0,0,0,.333.568,3.428,3.428,0,0,0,1.124.374,9.183,9.183,0,0,1,1.333.355,2.19,2.19,0,0,1,1.677,2.131,2.067,2.067,0,0,1-.93,1.754,4.013,4.013,0,0,1-2.4.67,4.191,4.191,0,0,1-1.769-.355,2.968,2.968,0,0,1-1.212-.974,2.263,2.263,0,0,1-.439-1.337h2.007a1.105,1.105,0,0,0,.417.864,1.656,1.656,0,0,0,1.04.3,1.533,1.533,0,0,0,.919-.231A.718.718,0,0,0,79.027-2.19Z" transform="translate(933.753 6379.835)" fill="#0b5999"/>
  </g>
</svg>
