<svg xmlns="http://www.w3.org/2000/svg" width="230" height="230" viewBox="0 0 230 230">
  <g id="Grupo_906808" data-name="Grupo 906808" transform="translate(-682.521 -1354.355)">
    <circle id="Elipse_6749" data-name="Elipse 6749" cx="115" cy="115" r="115" transform="translate(682.521 1354.355)" fill="#fff"/>
    <g id="Grupo_904684" data-name="Grupo 904684" transform="translate(682.5 1445.761)">
      <path id="Trazado_633154" data-name="Trazado 633154" d="M49-27.543a6.3,6.3,0,0,0,.461-.749,6.329,6.329,0,0,1,6.173-4.063c2.229-.021,4.458,0,6.688,0h77.844c4.812,0,7.3,2.505,7.3,7.345q0,24.812,0,49.624c0,4.718-2.539,7.251-7.265,7.252q-15.983,0-31.967,0H106.82c0,3.187-.1,6.3.035,9.4a3.788,3.788,0,0,0,3.938,3.441c1.114.031,2.229.007,3.344.007h3.281v4.2H74.773v-4.2c1.985,0,4.016,0,6.048,0,3.057-.005,4.566-1.527,4.57-4.609,0-2.708,0-5.417,0-8.234H83.857c-9.184,0-18.369-.035-27.553.018-3.42.02-5.827-1.307-7.04-4.581-.038-.1-.174-.17-.264-.254Zm4.281,37.917h89.906V9.241q0-17.191,0-34.383c0-2.276-.662-2.935-2.944-2.935q-42.007,0-84.013,0c-2.289,0-2.946.654-2.947,2.931q0,10.97,0,21.941Zm89.9,4.442h-89.9c0,3.24,0,6.4,0,9.561,0,2.64.565,3.2,3.211,3.2h83.482c.312,0,.625.011.936,0a2.123,2.123,0,0,0,2.264-2.264C143.207,21.84,143.185,18.367,143.185,14.816Zm-39.8,29.861c-1.643-4.225-.454-8.555-.974-12.728H98.168v8.914H93.913v-8.94H89.767c-.475,4.269.651,8.586-.947,12.754Z" transform="translate(0 -0.133)"/>
      <path id="Trazado_633155" data-name="Trazado 633155" d="M49,308.328c.246-.452.487-.905.737-1.354a6.248,6.248,0,0,1,5.63-3.449c2.585-.05,5.172-.013,7.758-.013,25.594,0,51.189.063,76.783-.059,4.571-.022,7.817,2.9,7.61,7.686-.22,5.074-.046,10.164-.05,15.248,0,4.519-2.6,7.094-7.156,7.094q-42.07,0-84.14.014c-3.374,0-5.717-1.368-6.907-4.576-.038-.1-.174-.17-.264-.254Zm49.283-.535q-21.128,0-42.255,0c-2.018,0-2.742.721-2.745,2.727q-.01,7.957,0,15.913c0,2.07.717,2.763,2.846,2.763q42.121,0,84.242,0c2.1,0,2.812-.706,2.814-2.8q.008-7.756,0-15.512c0-2.477-.609-3.1-3.051-3.1Z" transform="translate(0 -246.093)"/>
      <path id="Trazado_633156" data-name="Trazado 633156" d="M467.249,48.855H433.064c-.024-.433-.062-.817-.062-1.2q0-36.586,0-73.172c0-4.345,2.642-6.969,7.005-6.972,6.332,0,12.667.131,18.993-.049,4.03-.115,6.885,1.191,8.249,5.132Zm-4.334-4.321c.026-.263.049-.393.049-.523q0-34.85,0-69.7c0-1.738-.8-2.514-2.552-2.517q-10.1-.016-20.2,0c-2.275,0-2.929.66-2.929,2.948q0,34.248,0,68.5v1.3Z" transform="translate(-281.249 0)"/>
      <path id="Trazado_633157" data-name="Trazado 633157" d="M448.633,318.494a52.488,52.488,0,0,1,.347-6.118,10.653,10.653,0,0,1,21.13,1.715,74.093,74.093,0,0,1-.262,10.8,10.4,10.4,0,0,1-11.35,8.7,10.739,10.739,0,0,1-9.755-10.41c-.035-1.558-.005-3.118-.005-4.677Zm8.673-10.023a6.01,6.01,0,0,0-4.268,5.667c-.063,3.031-.079,6.066,0,9.1a6.4,6.4,0,0,0,12.761.274c.153-3.2.115-6.422.005-9.629-.089-2.613-2.093-5-4.285-5.314v7.845h-4.215Z" transform="translate(-292.7 -246.229)" fill="#030202"/>
      <path id="Trazado_633158" data-name="Trazado 633158" d="M65,22.11V8.53q0-10.971,0-21.941c0-2.276.658-2.93,2.947-2.931q42.007,0,84.013,0c2.282,0,2.944.66,2.944,2.935q0,17.191,0,34.383V22.11ZM69.336-1.446h4.275v-6.4h6.28v-4.094H69.336Zm81.17,19.355V7.31h-4.2v6.367h-6.282v4.164c.409.028.715.066,1.021.066C144.161,17.911,147.274,17.909,150.506,17.909Z" transform="translate(-11.718 -11.869)" fill="#90e7ec"/>
      <path id="Trazado_633159" data-name="Trazado 633159" d="M154.9,143.961c0,3.552.021,7.025-.01,10.5a2.123,2.123,0,0,1-2.264,2.264c-.311.015-.624,0-.936,0H68.211c-2.647,0-3.211-.563-3.211-3.2,0-3.161,0-6.322,0-9.561ZM109.885,152.4v-4.173H105.74V152.4Z" transform="translate(-11.719 -129.278)" fill="#e3e7ec"/>
      <path id="Trazado_633160" data-name="Trazado 633160" d="M212.382,220.648H197.816c1.6-4.169.472-8.485.947-12.754h4.146v8.94h4.256V207.92h4.244C211.928,212.093,210.739,216.423,212.382,220.648Z" transform="translate(-108.996 -176.104)" fill="#c7d0d9"/>
      <path id="Trazado_633161" data-name="Trazado 633161" d="M110,319.671h41.853c2.442,0,3.05.619,3.051,3.1q0,7.756,0,15.512c0,2.092-.711,2.8-2.814,2.8q-42.121,0-84.242,0c-2.129,0-2.844-.693-2.846-2.763q-.009-7.957,0-15.913c0-2.006.727-2.727,2.745-2.727Q88.868,319.668,110,319.671Zm-36.5,4.35H69.355v4.12H73.5Zm8.519,4.164v-4.167h-4.1v4.167Zm8.554.022V324.04H86.5v4.167Zm8.646-4.146H95.05v4.072h4.167Zm8.479,4.146V324.04h-4.072v4.167Zm8.611-4.182h-4.135v4.112h4.135Zm4.446-.027v4.167h4.1V324Zm8.549.013v4.12h4.123v-4.12Zm8.556-.034v4.16h4.089v-4.16Zm8.588,0v4.167h4.072v-4.167ZM69.3,336.687h4.167v-4.072H69.3Zm8.617-4.15V336.7h4.1v-4.167Zm12.659,4.214v-4.167h-4.1v4.167Zm8.563,0v-4.167h-4.1v4.167Zm4.473-4.174v4.12h4.129v-4.12Zm8.534,4.129h4.12v-4.123h-4.12Zm12.708.065V332.6h-4.1v4.167Zm4.419-.047h4.135v-4.112h-4.135ZM142,332.606h-4.12v4.123H142Zm8.527,4.135v-4.12h-4.116v4.12Z" transform="translate(-11.712 -257.972)" fill="#00c2fe"/>
      <path id="Trazado_633162" data-name="Trazado 633162" d="M474.635,56.4H449V55.1q0-34.248,0-68.5c0-2.288.655-2.947,2.929-2.948q10.1,0,20.2,0c1.757,0,2.552.779,2.552,2.517q.01,34.85,0,69.7C474.684,56,474.66,56.134,474.635,56.4ZM459.7,30.785c0,1.24-.045,2.351.015,3.456a1.247,1.247,0,0,1-.961,1.436,8.173,8.173,0,0,0-5.451,7.671,8.519,8.519,0,0,0,7.35,8.767,8.637,8.637,0,0,0,9.432-6.152,8.5,8.5,0,0,0-5.055-10.251,1.379,1.379,0,0,1-1.064-1.632c.068-1.09.016-2.187.016-3.3ZM453.343-7.906H470.3v-4.063H453.343ZM470.31.718V-3.42H453.4V.718Zm.033,4.463H453.391V9.243h16.953Z" transform="translate(-292.968 -11.863)" fill="#90e7ec"/>
      <path id="Trazado_633163" data-name="Trazado 633163" d="M469.217,321.7v7.939h4.215v-7.845c2.192.313,4.2,2.7,4.285,5.314.11,3.207.148,6.426-.005,9.629a6.4,6.4,0,0,1-12.761-.274c-.081-3.03-.064-6.065,0-9.1A6.01,6.01,0,0,1,469.217,321.7Z" transform="translate(-304.611 -259.458)" fill="#fde800"/>
      <path id="Trazado_633164" data-name="Trazado 633164" d="M81.21,10.605V.112H91.765V4.206h-6.28v6.4Z" transform="translate(-23.591 -23.92)" fill="#fefefe"/>
      <path id="Trazado_633165" data-name="Trazado 633165" d="M355.877,82.65c-3.232,0-6.345,0-9.458,0-.306,0-.611-.039-1.021-.066V78.418h6.282V72.051h4.2Z" transform="translate(-217.089 -76.61)" fill="#fefefe"/>
      <path id="Trazado_633166" data-name="Trazado 633166" d="M221.4,164.093h-4.145V159.92H221.4Z" transform="translate(-123.234 -140.967)"/>
      <path id="Trazado_633167" data-name="Trazado 633167" d="M85.445,335.93v4.12H81.3v-4.12Z" transform="translate(-23.658 -269.88)" fill="#fefefe"/>
      <path id="Trazado_633168" data-name="Trazado 633168" d="M117.392,340.084h-4.1v-4.167h4.1Z" transform="translate(-47.087 -269.871)" fill="#fefefe"/>
      <path id="Trazado_633169" data-name="Trazado 633169" d="M149.445,340.168h-4.072V336h4.072Z" transform="translate(-70.586 -269.932)" fill="#fefefe"/>
      <path id="Trazado_633170" data-name="Trazado 633170" d="M181.5,336.082v4.072h-4.167v-4.072Z" transform="translate(-93.99 -269.992)" fill="#fefefe"/>
      <path id="Trazado_633171" data-name="Trazado 633171" d="M213.445,340.168h-4.072V336h4.072Z" transform="translate(-117.461 -269.932)" fill="#fefefe"/>
      <path id="Trazado_633172" data-name="Trazado 633172" d="M245.452,335.945v4.112h-4.135v-4.112Z" transform="translate(-140.857 -269.891)" fill="#fefefe"/>
      <path id="Trazado_633173" data-name="Trazado 633173" d="M273.389,335.843h4.1v4.167h-4.1Z" transform="translate(-164.347 -269.817)" fill="#fefefe"/>
      <path id="Trazado_633174" data-name="Trazado 633174" d="M305.339,335.893h4.123v4.12h-4.123Z" transform="translate(-187.748 -269.853)" fill="#fefefe"/>
      <path id="Trazado_633175" data-name="Trazado 633175" d="M337.315,335.767H341.4v4.16h-4.089Z" transform="translate(-211.168 -269.761)" fill="#fefefe"/>
      <path id="Trazado_633176" data-name="Trazado 633176" d="M369.409,335.771h4.072v4.167h-4.072Z" transform="translate(-234.675 -269.764)" fill="#fefefe"/>
      <path id="Trazado_633177" data-name="Trazado 633177" d="M81.1,372.119v-4.072h4.167v4.072Z" transform="translate(-23.509 -293.404)" fill="#fefefe"/>
      <path id="Trazado_633178" data-name="Trazado 633178" d="M113.3,367.756h4.1v4.167h-4.1Z" transform="translate(-47.097 -293.191)" fill="#fefefe"/>
      <path id="Trazado_633179" data-name="Trazado 633179" d="M149.4,372.1h-4.1v-4.167h4.1Z" transform="translate(-70.533 -293.319)" fill="#fefefe"/>
      <path id="Trazado_633180" data-name="Trazado 633180" d="M181.4,372.1h-4.1v-4.167h4.1Z" transform="translate(-93.97 -293.319)" fill="#fefefe"/>
      <path id="Trazado_633181" data-name="Trazado 633181" d="M209.328,367.9h4.129v4.12h-4.129Z" transform="translate(-117.428 -293.3)" fill="#fefefe"/>
      <path id="Trazado_633182" data-name="Trazado 633182" d="M241.22,372.048v-4.123h4.12v4.123Z" transform="translate(-140.786 -293.314)" fill="#fefefe"/>
      <path id="Trazado_633183" data-name="Trazado 633183" d="M277.48,372.173h-4.1v-4.167h4.1Z" transform="translate(-164.338 -293.374)" fill="#fefefe"/>
      <path id="Trazado_633184" data-name="Trazado 633184" d="M305.228,372.147v-4.112h4.135v4.112Z" transform="translate(-187.667 -293.395)" fill="#fefefe"/>
      <path id="Trazado_633185" data-name="Trazado 633185" d="M341.5,368.013v4.123h-4.12v-4.123Z" transform="translate(-211.218 -293.379)" fill="#fefefe"/>
      <path id="Trazado_633186" data-name="Trazado 633186" d="M373.38,372.19h-4.116v-4.12h4.116Z" transform="translate(-234.568 -293.421)" fill="#fefefe"/>
      <path id="Trazado_633187" data-name="Trazado 633187" d="M471.465,159.8h4.283c0,1.109.052,2.206-.016,3.3a1.379,1.379,0,0,0,1.064,1.632,8.5,8.5,0,0,1,5.055,10.251,8.637,8.637,0,0,1-9.432,6.152,8.519,8.519,0,0,1-7.35-8.767,8.173,8.173,0,0,1,5.451-7.671,1.247,1.247,0,0,0,.961-1.436C471.42,162.155,471.465,161.044,471.465,159.8Zm-.033,9.328a3.886,3.886,0,0,0-1.91,4.679A4.253,4.253,0,0,0,474,176.875a4.317,4.317,0,0,0,3.87-3.818,3.587,3.587,0,0,0-2.173-3.852v3.324h-4.26Z" transform="translate(-304.732 -140.882)" fill="#030202"/>
      <path id="Trazado_633188" data-name="Trazado 633188" d="M465.233,4.087V.024h16.953V4.087Z" transform="translate(-304.858 -23.856)" fill="#fefefe"/>
      <path id="Trazado_633189" data-name="Trazado 633189" d="M482.356,36.111h-16.91V31.973h16.91Z" transform="translate(-305.014 -47.256)" fill="#fefefe"/>
      <path id="Trazado_633190" data-name="Trazado 633190" d="M482.363,64.115v4.062H465.41V64.115Z" transform="translate(-304.988 -70.797)" fill="#fefefe"/>
      <path id="Trazado_633191" data-name="Trazado 633191" d="M483.122,194.666v3.4h4.26v-3.324a3.587,3.587,0,0,1,2.173,3.852,4.317,4.317,0,0,1-3.87,3.818,4.253,4.253,0,0,1-4.473-3.063A3.886,3.886,0,0,1,483.122,194.666Z" transform="translate(-316.422 -166.416)" fill="#f8e400"/>
    </g>
  </g>
</svg>
