<svg xmlns="http://www.w3.org/2000/svg" width="230" height="230" viewBox="0 0 230 230">
  <g id="Grupo_906804" data-name="Grupo 906804" transform="translate(-265 -929)">
    <circle id="Elipse_6745" data-name="Elipse 6745" cx="115" cy="115" r="115" transform="translate(265 929)" fill="#fff"/>
    <g id="Grupo_904683" data-name="Grupo 904683" transform="translate(292.474 805.939)">
      <path id="Trazado_633108" data-name="Trazado 633108" d="M140.369,181.71q9.575,0,19.173,0c3.182,0,4.818,1.557,4.972,4.722.02.408.009.819.009,1.228q0,48.82-.007,97.64a12.561,12.561,0,0,1-.173,2.6c-.462,2.17-2.141,3.337-4.664,3.338q-24.942,0-49.883,0h-1.7v11.726c1.646,0,3.221-.011,4.8,0,3.321.027,5.72,2.242,5.75,5.294a5.365,5.365,0,0,1-5.645,5.4q-25.939.026-51.879,0a5.369,5.369,0,0,1-5.681-5.362c.008-3.057,2.4-5.3,5.71-5.331,1.58-.015,3.16,0,4.825,0V291.237H64.327c-16.372,0-32.745-.083-49.115.057-4.213.036-5.694-2.262-5.686-5.795q.086-40.529.032-81.059,0-8.6,0-17.195c.008-4.068,1.489-5.533,5.547-5.535q9.209,0,18.418-.014a2.129,2.129,0,0,0,.426-.127c0-3.369,0-6.782,0-10.194,0-3.536,1.5-5.047,5.024-5.047q48.041,0,96.082,0c3.6,0,5.066,1.5,5.073,5.155q.008,4.989.025,9.978C140.155,181.5,140.218,181.538,140.369,181.71ZM86.985,310.562q12.88.02,25.76.03c1.747,0,2.736-.839,2.8-2.2.061-1.406-.991-2.351-2.8-2.353-8.587-.008-17.173.016-25.76.03q-12.878-.015-25.757-.023c-1.69,0-2.713.9-2.712,2.268s1.021,2.271,2.712,2.273Q74.106,310.595,86.985,310.562Zm.059-110.479q9.2.008,18.409.016c2.966,0,5.932.028,8.9-.032.419-.009,1.16-.421,1.186-.7.125-1.345.056-2.708.056-4.155h-56.8v4.946c1.52,0,2.938,0,4.356,0Q75.1,200.122,87.044,200.083ZM87,267.9h28.6c0-1.324-.066-2.445.018-3.555s-.405-1.361-1.427-1.357c-9.051.036-18.1.029-27.152.034a5.084,5.084,0,0,0-.606-.071q-13.335-.006-26.67,0a6.232,6.232,0,0,0-1,.161V267.9Zm-.047-38.855H58.8v5.014H86.955q12.406.038,24.813.073c4,.009,3.972,0,3.86-3.959-.027-.946-.338-1.238-1.255-1.218-2.195.049-4.391.01-6.587.017Q97.37,229,86.955,229.045Zm.08-36.992a4.2,4.2,0,0,0,.456.048q23.927,0,47.853.026c1.4,0,1.737-.593,1.73-1.853-.036-6.239-.015-12.477-.017-18.716,0-2.055-.105-2.159-2.177-2.159q-16.411,0-32.822,0c-5.009,0-10.017.036-15.026.055a3.914,3.914,0,0,0-.456-.051q-23.921,0-47.842-.023c-1.39,0-1.733.616-1.726,1.875.037,6.288.014,12.577.018,18.865,0,1.87.115,1.98,2.017,1.98q12.958,0,25.915,0Q76,192.091,87.035,192.053Zm-.014,67.7a3.808,3.808,0,0,0,.6.094q23.852.007,47.7.022c1.357,0,1.761-.561,1.752-1.852-.043-6.188-.018-12.376-.019-18.564,0-2.292,0-2.294-2.322-2.294q-23.085,0-46.17,0c-.509,0-1.018.046-1.526.071a5.168,5.168,0,0,0-.606-.069q-23.843-.006-47.687-.023c-1.373,0-1.75.551-1.74,1.836.043,6.186.018,12.372.019,18.558,0,2.266.048,2.315,2.321,2.315q23.077,0,46.154,0C86.007,259.845,86.514,259.785,87.021,259.752Zm.019-33.88a5.091,5.091,0,0,0,.606.07q23.853.006,47.7.026c1.394,0,1.734-.575,1.726-1.844-.041-6.188-.018-12.377-.019-18.564,0-2.222-.085-2.308-2.346-2.308q-23.086,0-46.171,0c-.507,0-1.014.063-1.521.1a6.064,6.064,0,0,0-.754-.092q-23.69-.007-47.38-.022c-1.376,0-1.9.473-1.884,1.885.054,6.237.022,12.474.024,18.711,0,2.078.035,2.11,2.181,2.11q22.847,0,45.694,0C85.614,225.942,86.327,225.9,87.04,225.872Zm-.015,52.936c-.612-.021-1.223-.062-1.836-.062q-33.911,0-67.823,0c-2.048,0-2.468-.319-2.469-2.013q-.012-43.128,0-86.256c0-1.612.472-2.064,2.122-2.071,3.274-.014,6.547,0,9.821,0h7.034v-3.612H32.3q-8.67,0-17.339,0c-2.112,0-2.323.2-2.323,2.395q-.006,49.267,0,98.534c0,2.261.2,2.445,2.426,2.445q35.216,0,70.431,0c.51,0,1.02-.037,1.53-.057.612.021,1.224.061,1.836.061q21.791.006,43.582,0,13.428,0,26.855,0c1.841,0,2.094-.255,2.141-2.123.007-.307,0-.614,0-.921q0-48.658,0-97.315c0-.358-.013-.717,0-1.075.049-1.4-.516-1.993-2.011-1.976-5.984.066-11.969.027-17.954.027h-1.24v3.62c5.526,0,10.943,0,16.36,0,2.274,0,2.586.306,2.586,2.539q0,42.595,0,85.189c0,2.4-.216,2.608-2.649,2.608q-33.837,0-67.675,0C88.249,278.741,87.637,278.785,87.025,278.807Zm.009-7.75-28.85-.051c-2.343,0-2.615-.28-2.62-2.679,0-1.767,0-3.533,0-5.391-5.727,0-11.244.009-16.761,0-3.321-.007-4.854-1.563-4.857-4.906q-.009-9.518,0-19.036c0-3.431,1.49-4.908,4.971-4.915,5.014-.011,10.027,0,15.041,0h1.529v-5.041H53.911c-5.065,0-10.129.009-15.194,0-3.249-.008-4.766-1.538-4.77-4.8q-.012-9.518,0-19.036c0-3.514,1.51-5.017,5.058-5.025,4.962-.01,9.925,0,14.887,0h1.573v-4.982c-5.261,0-10.424-.094-15.582.036-2.948.074-5.3-.476-5.99-3.638H18.062v84.073h.992q33.458,0,66.916,0c.356,0,.712-.041,1.068-.063.3.024.609.07.913.07q33.607,0,67.215,0c.287,0,.575-.035.885-.055v-84.07c-5.315,0-10.567,0-15.819,0-1.256,3.125-2.044,3.644-5.536,3.644q-7.212,0-14.425,0c-.485,0-.97.046-1.41.069v4.925c5.53,0,10.947-.012,16.365,0,3.351.011,4.9,1.558,4.9,4.868q.012,9.593,0,19.186c0,3.256-1.523,4.775-4.786,4.783-4.962.012-9.923,0-14.885,0h-1.618v5.058h1.586q7.366,0,14.732,0c3.491.006,4.969,1.468,4.972,4.91q.009,9.516,0,19.033c0,3.333-1.541,4.886-4.871,4.9-4.911.015-9.821,0-14.732,0h-1.778c0,1.851,0,3.528,0,5.205,0,2.7-.166,2.863-2.868,2.868Q101.457,271.026,87.035,271.057Zm17.777,20.3H69.317V302.82h35.495Z" transform="translate(0)" fill="#040405"/>
      <path id="Trazado_633109" data-name="Trazado 633109" d="M99.321,311.94c-.356.022-.712.063-1.068.063q-33.458,0-66.916,0h-.992V227.932h15.83c.695,3.161,3.043,3.712,5.99,3.638,5.157-.13,10.32-.036,15.582-.036v4.982H66.173c-4.962,0-9.925-.007-14.887,0-3.548.007-5.055,1.511-5.058,5.025q-.006,9.517,0,19.036c0,3.258,1.522,4.789,4.77,4.8,5.065.013,10.129,0,15.194,0h1.575v5.041H66.241c-5.014,0-10.027-.008-15.041,0-3.481.007-4.968,1.484-4.971,4.915q-.007,9.517,0,19.036c0,3.343,1.536,4.9,4.857,4.906,5.517.012,11.035,0,16.761,0,0,1.858,0,3.624,0,5.391.005,2.4.277,2.675,2.62,2.679l28.85.051Q99.319,309.672,99.321,311.94Z" transform="translate(-12.283 -36.347)" fill="#fcfcfc"/>
      <path id="Trazado_633110" data-name="Trazado 633110" d="M198.57,311.871q0-2.268,0-4.536,14.423-.029,28.845-.057c2.7,0,2.867-.166,2.868-2.868,0-1.677,0-3.355,0-5.205h1.778c4.911,0,9.821.011,14.732,0,3.33-.011,4.867-1.563,4.871-4.9q.011-9.517,0-19.033c0-3.442-1.481-4.9-4.972-4.91q-7.365-.013-14.732,0h-1.586V265.3h1.618c4.962,0,9.924.009,14.885,0,3.263-.008,4.782-1.527,4.786-4.783q.014-9.593,0-19.186c0-3.31-1.552-4.857-4.9-4.868-5.417-.017-10.835,0-16.365,0v-4.925c.44-.023.925-.068,1.41-.069q7.213-.009,14.425,0c3.491,0,4.279-.519,5.536-3.643h15.819v84.07c-.31.02-.6.055-.885.055q-33.607,0-67.215,0C199.179,311.94,198.875,311.895,198.57,311.871Z" transform="translate(-111.532 -36.278)" fill="#e4e4e4"/>
      <path id="Trazado_633111" data-name="Trazado 633111" d="M91.507,314.665c-.51.02-1.02.057-1.53.057q-35.216,0-70.431,0c-2.228,0-2.426-.185-2.426-2.445q-.006-49.267,0-98.534c0-2.2.211-2.395,2.323-2.395q8.669,0,17.339,0h1.569v3.612H31.318c-3.274,0-6.547-.01-9.821,0-1.649.007-2.121.459-2.122,2.071q-.009,43.128,0,86.256c0,1.694.421,2.013,2.469,2.013q33.911,0,67.823,0c.612,0,1.224.041,1.836.062Z" transform="translate(-4.479 -26.563)" fill="#65cbfd"/>
      <path id="Trazado_633112" data-name="Trazado 633112" d="M126.577,278.988c-.713.025-1.426.07-2.139.07q-22.847.006-45.694,0c-2.146,0-2.18-.033-2.181-2.11,0-6.237.03-12.474-.024-18.711-.012-1.412.507-1.887,1.884-1.885q23.69.041,47.38.022a6.064,6.064,0,0,1,.754.092Q126.566,267.728,126.577,278.988Zm-39.985-8.967c-1.227,0-2.454.013-3.681,0-1.057-.014-1.82.537-1.636,1.521a2.251,2.251,0,0,0,1.524,1.489c2.442.165,4.9.094,7.356.062a1.474,1.474,0,0,0,1.614-1.645,1.433,1.433,0,0,0-1.65-1.426C88.943,270.035,87.767,270.022,86.592,270.021Zm14.785.005a23.789,23.789,0,0,0-3.823.064,2.23,2.23,0,0,0-1.474,1.349,1.307,1.307,0,0,0,1.381,1.628c2.553.059,5.115.109,7.659-.059.522-.034,1.26-.985,1.364-1.6.062-.37-.864-1.215-1.438-1.316A21.479,21.479,0,0,0,101.377,270.026Zm-.186-4.505c1.227,0,2.454-.009,3.68,0,1.048.01,1.7-.492,1.7-1.533s-.7-1.543-1.716-1.548c-2.4-.011-4.8-.019-7.206.006a1.461,1.461,0,0,0-1.614,1.634,1.428,1.428,0,0,0,1.634,1.44C98.84,265.51,100.015,265.521,101.191,265.521Zm-14.7-.008c1.225,0,2.45,0,3.675,0a1.526,1.526,0,1,0,.085-3.05c-2.5-.04-5.008-.106-7.5.058a2.254,2.254,0,0,0-1.474,1.526c-.167.879.541,1.467,1.536,1.464C84.04,265.509,85.265,265.512,86.49,265.513Zm29.6,7.589c1.175,0,2.349.024,3.523-.007,1.064-.028,1.8-.516,1.732-1.676-.06-1.094-.809-1.414-1.806-1.406q-3.447.027-6.893,0c-1-.008-1.736.3-1.8,1.408-.065,1.173.649,1.65,1.719,1.674C113.744,273.123,114.919,273.1,116.093,273.1Zm-.015-7.589h3.672a1.522,1.522,0,1,0,.109-3.042c-2.5-.052-5-.046-7.5-.006a1.4,1.4,0,0,0-1.51,1.554,1.38,1.38,0,0,0,1.553,1.491C113.63,265.519,114.854,265.513,116.078,265.514Z" transform="translate(-39.537 -53.116)" fill="#fcd7b1"/>
      <path id="Trazado_633113" data-name="Trazado 633113" d="M126.564,361.651c-.507.032-1.014.093-1.521.093q-23.077.007-46.154,0c-2.274,0-2.321-.048-2.321-2.314,0-6.186.023-12.372-.019-18.558-.009-1.285.367-1.839,1.74-1.836q23.844.047,47.687.023a5.174,5.174,0,0,1,.606.069Q126.573,350.392,126.564,361.651ZM86.536,348.175c1.227,0,2.453.016,3.68,0a1.53,1.53,0,1,0,.006-3.059q-3.679-.047-7.359,0a1.466,1.466,0,0,0-1.639,1.612,1.451,1.451,0,0,0,1.633,1.457C84.083,348.188,85.309,348.178,86.536,348.175Zm14.736,0c1.226,0,2.453.012,3.679,0a1.448,1.448,0,0,0,1.627-1.462,1.468,1.468,0,0,0-1.645-1.606q-3.677-.044-7.356.005a1.53,1.53,0,1,0,.017,3.06C98.82,348.191,100.046,348.176,101.272,348.178Zm14.877,0c1.173,0,2.347.012,3.521,0,1.007-.014,1.695-.456,1.69-1.542s-.73-1.524-1.713-1.533c-2.4-.023-4.8-.027-7.194.008a1.433,1.433,0,0,0-1.6,1.624c.041,1.019.688,1.426,1.622,1.442C113.7,348.2,114.925,348.18,116.15,348.181ZM101.2,355.709c1.276,0,2.553.023,3.828-.007a1.527,1.527,0,1,0-.036-3.054c-2.45-.014-4.9-.007-7.35,0a1.421,1.421,0,0,0-1.6,1.474,1.446,1.446,0,0,0,1.635,1.593C98.857,355.716,100.03,355.712,101.2,355.709Zm-14.741,0c1.226,0,2.451.007,3.676,0a1.537,1.537,0,1,0,0-3.068q-3.6,0-7.2,0c-1.046,0-1.7.515-1.7,1.537s.664,1.543,1.7,1.538C84.115,355.708,85.289,355.712,86.463,355.711Zm29.6,0c1.225,0,2.449.015,3.673,0a1.438,1.438,0,0,0,1.615-1.608,1.422,1.422,0,0,0-1.613-1.454c-2.4-.008-4.8,0-7.194,0-1.028,0-1.678.447-1.679,1.533s.654,1.535,1.678,1.538Q114.3,355.716,116.061,355.711Z" transform="translate(-39.543 -101.899)" fill="#fcd7b1"/>
      <path id="Trazado_633114" data-name="Trazado 633114" d="M126.58,196.453q-11.038.026-22.077.05-12.957.013-25.915,0c-1.9,0-2.016-.109-2.017-1.98,0-6.289.019-12.577-.018-18.865-.007-1.26.336-1.878,1.726-1.875q23.921.043,47.842.023a3.917,3.917,0,0,1,.456.051Q126.578,185.154,126.58,196.453Zm-25.232-5.993v-.005c1.226,0,2.453.017,3.679-.005.976-.018,1.7-.61,1.5-1.505a2.279,2.279,0,0,0-1.515-1.491c-2.442-.164-4.9-.088-7.353-.064a1.455,1.455,0,0,0-1.62,1.622,1.434,1.434,0,0,0,1.632,1.448C98.9,190.462,100.122,190.46,101.349,190.46Zm-14.825-3.079c-1.227,0-2.454-.021-3.68.007a1.466,1.466,0,0,0-1.617,1.486,1.451,1.451,0,0,0,1.652,1.585c2.4.009,4.8,0,7.207,0,1.039,0,1.7-.51,1.693-1.549s-.712-1.525-1.727-1.533C88.875,187.37,87.7,187.378,86.524,187.381Zm29.571,3.077c1.225,0,2.45.015,3.674,0a1.525,1.525,0,1,0,.091-3.048c-2.5-.049-5-.045-7.5,0a1.525,1.525,0,1,0,.062,3.05C113.646,190.469,114.87,190.456,116.095,190.458ZM86.608,179.891c-1.225,0-2.45.014-3.675,0-1.057-.016-1.7.507-1.7,1.531s.693,1.539,1.715,1.542c2.4.007,4.8.015,7.2-.007a1.463,1.463,0,0,0,1.618-1.628,1.432,1.432,0,0,0-1.638-1.437C88.957,179.9,87.783,179.892,86.608,179.891Zm14.749,3.07c1.174,0,2.348.012,3.522,0,1.022-.014,1.7-.53,1.689-1.565s-.674-1.514-1.72-1.507c-2.348.017-4.7.023-7.043,0-1.041-.011-1.727.428-1.756,1.469-.031,1.128.695,1.619,1.787,1.614C99.01,182.959,100.184,182.964,101.358,182.961Zm14.826-3.066a23.846,23.846,0,0,0-3.816.063,2.235,2.235,0,0,0-1.449,1.35,1.268,1.268,0,0,0,1.354,1.622q3.824.084,7.65,0a1.29,1.29,0,0,0,1.379-1.614,2.242,2.242,0,0,0-1.457-1.355A21.526,21.526,0,0,0,116.184,179.895Z" transform="translate(-39.545 -4.4)" fill="#fcd7b1"/>
      <path id="Trazado_633115" data-name="Trazado 633115" d="M198.547,314.619l0-9.294c.612-.023,1.224-.066,1.836-.066q33.838,0,67.675,0c2.433,0,2.649-.212,2.649-2.608q0-42.595,0-85.189c0-2.233-.313-2.538-2.586-2.539-5.417,0-10.834,0-16.36,0V211.3H253c5.985,0,11.97.039,17.954-.027,1.5-.016,2.06.581,2.011,1.976-.013.358,0,.716,0,1.075q0,48.658,0,97.315c0,.307.006.614,0,.921-.047,1.867-.3,2.122-2.141,2.123q-13.428,0-26.855,0-21.791,0-43.582,0C199.771,314.68,199.159,314.64,198.547,314.619Zm66.356-2.936h4.139c.969,0,1.738-.516,1.576-1.426-.109-.608-.916-1.52-1.454-1.551-2.75-.159-5.514-.1-8.272-.061a1.421,1.421,0,0,0-1.536,1.551c.02,1.085.685,1.506,1.716,1.493C262.348,311.673,263.625,311.685,264.9,311.683Zm-14.924,0a31.285,31.285,0,0,0,4.285-.066,2,2,0,0,0,1.378-1.365c.011-.524-.759-1.5-1.228-1.526-2.854-.146-5.724-.15-8.579-.01-.5.024-1.262.9-1.362,1.482-.155.9.514,1.489,1.518,1.488Q247.985,311.681,249.979,311.68Z" transform="translate(-111.519 -26.517)" fill="#4ca2f7"/>
      <path id="Trazado_633116" data-name="Trazado 633116" d="M198.563,196.472q0-11.3,0-22.6c5.009-.019,10.017-.051,15.026-.055q16.411-.012,32.822,0c2.072,0,2.177.1,2.177,2.159,0,6.239-.019,12.477.017,18.716.007,1.26-.33,1.856-1.73,1.853q-23.927-.052-47.853-.026A4.2,4.2,0,0,1,198.563,196.472ZM224.83,179.3q-8.659,0-17.317,0c-1.72,0-2.169.452-2.178,2.168-.013,2.554.016,5.11-.011,7.664-.014,1.332.561,1.991,1.916,1.99q17.471-.009,34.941,0c1.348,0,1.961-.614,1.95-1.955-.02-2.555.009-5.11-.009-7.664-.013-1.867-.371-2.205-2.282-2.207Q233.335,179.29,224.83,179.3Z" transform="translate(-111.528 -4.419)" fill="#f9b796"/>
      <path id="Trazado_633117" data-name="Trazado 633117" d="M198.551,279.007q-.01-11.26-.02-22.52c.507-.034,1.014-.1,1.521-.1q23.085-.007,46.171,0c2.26,0,2.346.086,2.346,2.308,0,6.188-.022,12.377.019,18.564.008,1.269-.331,1.847-1.726,1.844q-23.852-.052-47.7-.026A5.091,5.091,0,0,1,198.551,279.007Zm26.152-5.275q8.586,0,17.171,0c1.772,0,2.215-.422,2.23-2.136.023-2.606,0-5.214.009-7.821.006-1.345-.646-1.943-1.978-1.943q-17.4.014-34.8,0c-1.411,0-2.043.657-2.027,2.065.03,2.5,0,5.009.011,7.514.006,1.877.453,2.318,2.369,2.32Q216.194,273.739,224.7,273.732Z" transform="translate(-111.511 -53.135)" fill="#f9b796"/>
      <path id="Trazado_633118" data-name="Trazado 633118" d="M198.534,361.677q.009-11.26.019-22.52c.509-.025,1.018-.071,1.526-.071q23.085-.005,46.17,0c2.32,0,2.321,0,2.322,2.294,0,6.188-.023,12.376.019,18.564.009,1.291-.395,1.854-1.752,1.852q-23.851-.039-47.7-.022A3.812,3.812,0,0,1,198.534,361.677Zm26.184-5.314c5.774,0,11.548-.017,17.322.013,1.407.007,2.088-.561,2.077-1.991q-.033-3.987,0-7.973c.009-1.368-.7-1.935-2-1.935q-17.4,0-34.8,0c-1.39,0-2.039.663-2.015,2.085.041,2.452.007,4.906.012,7.359,0,2.039.389,2.438,2.386,2.44Q216.211,356.369,224.718,356.363Z" transform="translate(-111.513 -101.925)" fill="#f9b796"/>
      <path id="Trazado_633119" data-name="Trazado 633119" d="M190.849,471.276v11.462H155.354V471.276Z" transform="translate(-86.037 -179.918)" fill="#53433f"/>
      <path id="Trazado_633120" data-name="Trazado 633120" d="M198.373,319.165q10.415-.038,20.83-.073c2.2-.007,4.392.032,6.587-.017.917-.02,1.228.271,1.255,1.218.112,3.962.143,3.969-3.86,3.959q-12.406-.029-24.813-.073Q198.373,321.672,198.373,319.165Z" transform="translate(-111.417 -90.12)" fill="#3b3b3b"/>
      <path id="Trazado_633121" data-name="Trazado 633121" d="M157.863,319.3q0,2.507,0,5.014H129.71V319.3Z" transform="translate(-70.907 -90.251)" fill="#8b8b8b"/>
      <path id="Trazado_633122" data-name="Trazado 633122" d="M198.53,402.115c9.051-.005,18.1,0,27.152-.034,1.022,0,1.513.232,1.427,1.357s-.018,2.231-.018,3.555h-28.6Q198.509,404.554,198.53,402.115Z" transform="translate(-111.486 -139.093)" fill="#3b3b3b"/>
      <path id="Trazado_633123" data-name="Trazado 633123" d="M198.469,236.781h28.6c0,1.447.068,2.81-.056,4.155-.026.278-.768.69-1.186.7-2.964.061-5.931.034-8.9.032q-9.2-.006-18.409-.016Z" transform="translate(-111.475 -41.568)" fill="#3b3b3b"/>
      <path id="Trazado_633124" data-name="Trazado 633124" d="M157.9,402.058q-.021,2.439-.042,4.878H129.621v-4.785a6.229,6.229,0,0,1,1-.161q13.335-.013,26.67,0A5.09,5.09,0,0,1,157.9,402.058Z" transform="translate(-70.855 -139.036)" fill="#8b8b8b"/>
      <path id="Trazado_633125" data-name="Trazado 633125" d="M157.89,236.781l.05,4.87q-11.947.038-23.894.075c-1.418,0-2.836,0-4.356,0v-4.946Z" transform="translate(-70.896 -41.568)" fill="#8b8b8b"/>
      <path id="Trazado_633126" data-name="Trazado 633126" d="M157.479,511.609q-12.879.015-25.757.023c-1.691,0-2.711-.907-2.712-2.273s1.021-2.267,2.712-2.268q12.879-.009,25.757.023Q157.479,509.361,157.479,511.609Z" transform="translate(-70.494 -201.047)" fill="#898989"/>
      <path id="Trazado_633127" data-name="Trazado 633127" d="M198.445,511.6q0-2.248,0-4.5c8.587-.013,17.173-.038,25.76-.03,1.805,0,2.857.947,2.8,2.353-.059,1.363-1.048,2.2-2.8,2.2Q211.325,511.64,198.445,511.6Z" transform="translate(-111.46 -201.037)" fill="#3b3b3b"/>
      <path id="Trazado_633128" data-name="Trazado 633128" d="M93.368,289.682c1.176,0,2.351.014,3.527,0a1.433,1.433,0,0,1,1.65,1.426,1.474,1.474,0,0,1-1.614,1.645c-2.453.032-4.914.1-7.356-.061a2.251,2.251,0,0,1-1.524-1.489c-.184-.984.58-1.535,1.636-1.521C90.914,289.694,92.14,289.681,93.368,289.682Z" transform="translate(-46.313 -72.776)" fill="#0d0b09"/>
      <path id="Trazado_633129" data-name="Trazado 633129" d="M129.428,289.629a21.476,21.476,0,0,1,3.668.063c.574.1,1.5.945,1.438,1.316-.1.618-.842,1.569-1.364,1.6-2.544.168-5.105.118-7.659.059a1.307,1.307,0,0,1-1.381-1.628,2.23,2.23,0,0,1,1.474-1.349A23.789,23.789,0,0,1,129.428,289.629Z" transform="translate(-67.588 -72.719)" fill="#0d0b09"/>
      <path id="Trazado_633130" data-name="Trazado 633130" d="M129.236,274.268c-1.175,0-2.351-.011-3.526,0a1.428,1.428,0,0,1-1.634-1.44,1.461,1.461,0,0,1,1.614-1.634c2.4-.025,4.8-.017,7.206-.006,1.017,0,1.709.508,1.716,1.548s-.648,1.543-1.7,1.533C131.689,274.259,130.463,274.268,129.236,274.268Z" transform="translate(-67.582 -61.863)" fill="#0d0b09"/>
      <path id="Trazado_633131" data-name="Trazado 633131" d="M93.276,274.237c-1.225,0-2.45,0-3.675,0-1,0-1.7-.585-1.536-1.464a2.254,2.254,0,0,1,1.474-1.526c2.49-.164,5-.1,7.5-.058a1.526,1.526,0,1,1-.085,3.05C95.727,274.233,94.5,274.237,93.276,274.237Z" transform="translate(-46.323 -61.84)" fill="#040405"/>
      <path id="Trazado_633132" data-name="Trazado 633132" d="M165.462,292.758c-1.174,0-2.349.02-3.523-.006-1.07-.025-1.784-.5-1.719-1.674.062-1.11.8-1.416,1.8-1.408q3.447.025,6.893,0c1-.008,1.746.313,1.806,1.406.063,1.16-.667,1.648-1.732,1.676C167.811,292.782,166.637,292.758,165.462,292.758Z" transform="translate(-88.906 -72.771)" fill="#0d0b09"/>
      <path id="Trazado_633133" data-name="Trazado 633133" d="M165.456,274.263c-1.224,0-2.449.006-3.672,0a1.38,1.38,0,0,1-1.553-1.491,1.4,1.4,0,0,1,1.51-1.554c2.5-.04,5-.046,7.5.006a1.522,1.522,0,1,1-.109,3.042Z" transform="translate(-88.914 -61.865)" fill="#040405"/>
      <path id="Trazado_633134" data-name="Trazado 633134" d="M93.261,356.879c-1.227,0-2.453.011-3.68,0a1.451,1.451,0,0,1-1.633-1.457,1.466,1.466,0,0,1,1.639-1.612q3.68-.042,7.359,0a1.53,1.53,0,1,1-.006,3.059C95.714,356.893,94.487,356.877,93.261,356.879Z" transform="translate(-46.267 -110.601)" fill="#0d0b09"/>
      <path id="Trazado_633135" data-name="Trazado 633135" d="M129.3,356.878c-1.226,0-2.452.014-3.678-.006a1.53,1.53,0,1,1-.017-3.06q3.678-.048,7.356-.005a1.468,1.468,0,0,1,1.645,1.606,1.448,1.448,0,0,1-1.627,1.462C131.756,356.892,130.53,356.88,129.3,356.878Z" transform="translate(-67.574 -110.601)" fill="#0d0b09"/>
      <path id="Trazado_633136" data-name="Trazado 633136" d="M165.51,356.878c-1.225,0-2.449.016-3.674-.005-.935-.016-1.581-.423-1.622-1.442a1.433,1.433,0,0,1,1.6-1.624c2.4-.035,4.8-.031,7.194-.008.983.009,1.709.44,1.713,1.533s-.683,1.529-1.69,1.542C167.857,356.89,166.683,356.878,165.51,356.878Z" transform="translate(-88.903 -110.597)" fill="#0d0b09"/>
      <path id="Trazado_633137" data-name="Trazado 633137" d="M129.263,375.281c-1.174,0-2.348.005-3.522,0a1.446,1.446,0,0,1-1.635-1.593,1.421,1.421,0,0,1,1.6-1.474c2.45,0,4.9-.009,7.35,0a1.527,1.527,0,1,1,.036,3.054C131.815,375.3,130.539,375.279,129.263,375.281Z" transform="translate(-67.601 -121.47)" fill="#040405"/>
      <path id="Trazado_633138" data-name="Trazado 633138" d="M93.208,375.281c-1.174,0-2.348,0-3.522,0-1.041,0-1.7-.515-1.7-1.538s.658-1.54,1.7-1.537q3.6.012,7.2,0a1.537,1.537,0,1,1,0,3.068C95.659,375.288,94.434,375.281,93.208,375.281Z" transform="translate(-46.288 -121.468)" fill="#040405"/>
      <path id="Trazado_633139" data-name="Trazado 633139" d="M165.439,375.283c-1.173,0-2.347,0-3.52,0-1.025,0-1.679-.45-1.678-1.538s.651-1.534,1.679-1.533c2.4,0,4.8,0,7.194,0a1.422,1.422,0,0,1,1.613,1.454,1.438,1.438,0,0,1-1.615,1.608C167.888,375.3,166.663,375.282,165.439,375.283Z" transform="translate(-88.92 -121.471)" fill="#040405"/>
      <path id="Trazado_633140" data-name="Trazado 633140" d="M129.385,209.983c-1.226,0-2.453,0-3.679,0a1.434,1.434,0,0,1-1.632-1.448,1.455,1.455,0,0,1,1.62-1.622c2.452-.024,4.912-.1,7.353.064a2.279,2.279,0,0,1,1.515,1.491c.2.9-.523,1.488-1.5,1.505-1.226.022-2.452.005-3.679.005Z" transform="translate(-67.581 -23.923)" fill="#0d0b09"/>
      <path id="Trazado_633141" data-name="Trazado 633141" d="M93.249,206.935c1.175,0,2.351-.009,3.527,0,1.015.009,1.718.488,1.727,1.533s-.654,1.549-1.693,1.549c-2.4,0-4.8.005-7.207,0a1.451,1.451,0,0,1-1.652-1.585,1.466,1.466,0,0,1,1.617-1.486C90.8,206.915,92.023,206.937,93.249,206.935Z" transform="translate(-46.271 -23.955)" fill="#0d0b09"/>
      <path id="Trazado_633142" data-name="Trazado 633142" d="M165.449,210.007c-1.225,0-2.449.012-3.674-.006a1.525,1.525,0,1,1-.061-3.05c2.5-.041,5-.045,7.5,0a1.525,1.525,0,1,1-.091,3.048C167.9,210.023,166.674,210.008,165.449,210.007Z" transform="translate(-88.899 -23.95)" fill="#0d0b09"/>
      <path id="Trazado_633143" data-name="Trazado 633143" d="M93.35,188.674c1.174,0,2.349.013,3.522,0a1.432,1.432,0,0,1,1.638,1.437,1.463,1.463,0,0,1-1.618,1.628c-2.4.022-4.8.014-7.2.007-1.022,0-1.711-.51-1.715-1.542s.638-1.547,1.7-1.531C90.9,188.688,92.125,188.674,93.35,188.674Z" transform="translate(-46.287 -13.182)" fill="#040405"/>
      <path id="Trazado_633144" data-name="Trazado 633144" d="M129.412,191.738c-1.173,0-2.347,0-3.521,0-1.092,0-1.818-.486-1.787-1.614.029-1.04.715-1.48,1.756-1.469,2.347.026,4.7.021,7.043,0,1.046-.007,1.709.472,1.72,1.507s-.667,1.552-1.689,1.565C131.76,191.749,130.585,191.737,129.412,191.738Z" transform="translate(-67.599 -13.176)" fill="#040405"/>
      <path id="Trazado_633145" data-name="Trazado 633145" d="M165.552,188.62a21.483,21.483,0,0,1,3.662.064,2.242,2.242,0,0,1,1.457,1.355,1.29,1.29,0,0,1-1.379,1.614q-3.824.09-7.65,0a1.268,1.268,0,0,1-1.354-1.622,2.235,2.235,0,0,1,1.449-1.35A23.8,23.8,0,0,1,165.552,188.62Z" transform="translate(-88.914 -13.124)" fill="#040405"/>
      <path id="Trazado_633146" data-name="Trazado 633146" d="M352.407,451.736c-1.278,0-2.555-.011-3.832,0-1.031.013-1.7-.408-1.716-1.493a1.421,1.421,0,0,1,1.536-1.551c2.758-.044,5.522-.1,8.272.061.538.031,1.346.943,1.454,1.551.163.911-.606,1.427-1.576,1.426Z" transform="translate(-199.023 -166.57)" fill="#040405"/>
      <path id="Trazado_633147" data-name="Trazado 633147" d="M316.039,451.749l-3.987,0c-1,0-1.673-.592-1.518-1.488.1-.578.862-1.458,1.362-1.482a85.786,85.786,0,0,1,8.579.01c.468.024,1.239,1,1.228,1.526a2,2,0,0,1-1.378,1.365A31.474,31.474,0,0,1,316.039,451.749Z" transform="translate(-177.579 -166.585)" fill="#040405"/>
      <path id="Trazado_633148" data-name="Trazado 633148" d="M234.562,187.181q8.506,0,17.011,0c1.911,0,2.269.34,2.282,2.207.018,2.555-.011,5.11.009,7.664.01,1.341-.6,1.956-1.95,1.955q-17.471-.018-34.941,0c-1.355,0-1.931-.658-1.916-1.99.027-2.554,0-5.11.011-7.664.009-1.716.457-2.165,2.178-2.168Q225.9,187.172,234.562,187.181Zm16.169,3.183H218.216V195.8h32.515Z" transform="translate(-121.261 -12.304)" fill="#040405"/>
      <path id="Trazado_633149" data-name="Trazado 633149" d="M234.451,281.565q-8.509,0-17.017,0c-1.915,0-2.362-.444-2.369-2.32-.009-2.5.019-5.01-.011-7.514-.017-1.408.616-2.066,2.027-2.065q17.4.012,34.8,0c1.332,0,1.984.6,1.978,1.943-.013,2.607.014,5.214-.009,7.821-.015,1.714-.458,2.132-2.23,2.136Q243.036,281.576,234.451,281.565Zm16.249-8.722H218.235v5.567H250.7Z" transform="translate(-121.26 -60.967)" fill="#040405"/>
      <path id="Trazado_633150" data-name="Trazado 633150" d="M234.461,364.125q-8.507,0-17.015,0c-2,0-2.382-.4-2.386-2.44,0-2.453.029-4.907-.012-7.359-.024-1.422.624-2.085,2.015-2.085q17.4,0,34.8,0c1.3,0,2.007.567,2,1.935q-.025,3.986,0,7.973c.011,1.43-.67,2-2.077,1.991C246.009,364.107,240.234,364.125,234.461,364.125ZM218.179,361h32.494v-5.6H218.179Z" transform="translate(-121.255 -109.686)" fill="#040405"/>
      <path id="Trazado_633151" data-name="Trazado 633151" d="M255.278,194.947v5.437H222.763v-5.437Z" transform="translate(-125.808 -16.886)" fill="#4da5fe"/>
      <path id="Trazado_633152" data-name="Trazado 633152" d="M255.277,277.42v5.567H222.811V277.42Z" transform="translate(-125.836 -65.545)" fill="#4ca2f7"/>
      <path id="Trazado_633153" data-name="Trazado 633153" d="M222.687,365.558v-5.6h32.494v5.6Z" transform="translate(-125.763 -114.243)" fill="#4ca2f7"/>
    </g>
  </g>
</svg>
