<svg xmlns="http://www.w3.org/2000/svg" width="230" height="230" viewBox="0 0 230 230">
  <g id="Grupo_906805" data-name="Grupo 906805" transform="translate(-682.521 -929)">
    <circle id="Elipse_6746" data-name="Elipse 6746" cx="115" cy="115" r="115" transform="translate(682.521 929)" fill="#fff"/>
    <g id="Grupo_904685" data-name="Grupo 904685" transform="translate(1176.945 997.273)">
      <path id="Trazado_633192" data-name="Trazado 633192" d="M-441.657-18.323H-314.9a10.785,10.785,0,0,1,1.366.583,4.7,4.7,0,0,1,2.383,4.384q-.021,63.056-.011,126.112c0,.263,0,.528-.02.79a3.253,3.253,0,0,1-2.937,3.045,10.661,10.661,0,0,1-1.187.025q-62.717,0-125.434,0a10.34,10.34,0,0,1-1.187-.027,3.253,3.253,0,0,1-2.916-3.064c-.027-.394-.019-.79-.019-1.185q0-62.6,0-125.19,0-.461,0-.922a4.532,4.532,0,0,1,2.379-3.987C-442.2-17.935-441.932-18.135-441.657-18.323Zm83.186,72.984a5.226,5.226,0,0,0,.522.05q17.366,0,34.733,0a5.742,5.742,0,0,0,.649-.073l.3-2.5h-46.416v2.528Zm35.918,46.418a7.305,7.305,0,0,0,.212-1.224c.018-3.248.01-6.5.01-9.745V85.9H-368.7v15.266c.443.024.83.062,1.216.062q21.9.017,43.806.02a7.679,7.679,0,0,0,1.134-.166Zm-33.274-53.01q12.987.022,25.974.038a2.291,2.291,0,0,0,.578-.151V27.11a3.888,3.888,0,0,0-.573-.093q-12.987.015-25.974.038h-6V48.07Zm-31.494-22.093a7.332,7.332,0,0,0-1.337-.248q-16.885-.021-33.77-.01-5.013,0-10.025.034c-.538,0-1.235-.174-1.236.74,0,2.927,0,5.855,0,8.845.437.037.734.085,1.031.085q22.161.021,44.323.021a4.1,4.1,0,0,0,1.037-.28Q-387.311,30.571-387.321,25.977Zm.012,42.129q0-4.595.005-9.19a6.433,6.433,0,0,0-1.308-.274q-21.848-.006-43.7.022c-.424,0-.847.044-1.284.068v9.551c.357.029.615.067.873.067q22.178.02,44.356.021A4.4,4.4,0,0,0-387.31,68.106Zm-36.128-46.353c.261.024.522.069.783.069q17.277,0,34.554,0c.249,0,.5-.031.747-.047V12.24c-5.8,0-11.512-.006-17.224,0q-9.428.012-18.856.045H-433.6v9.466Zm0,60.055c.262.018.524.052.786.052q17.269,0,34.538,0c.25,0,.5-.027.75-.042V72.294c-9.673,0-19.252,0-28.83,0-2.415,0-4.83.037-7.245.056h-10.179v9.455Zm64.968,0c.175.016.35.046.524.046q17.283,0,34.566,0c.3,0,.593-.048.955-.079V72.3h-1.487q-11.28,0-22.56,0c-4,0-8,.033-12,.051h-10.2v9.458Zm-.013-88.831h-10.193V8.229h46.25a4.1,4.1,0,0,0,.086-.563q.008-6.978,0-13.956a2.472,2.472,0,0,0-.22-.7c-.478-.035-.956-.1-1.433-.1q-16.589-.008-33.177,0C-357.607-7.088-358.044-7.045-358.48-7.021Zm-42.513,108.34,1.122,1.332c.019,1.938-.569,2.519-2.636,2.521q-11.2.012-22.407.007c-1.886,0-3.772.049-5.658.076-1.052-.025-2.1-.055-3.156-.074-2.625-.048-3.879-1.288-3.909-3.883-.012-1.008,0-2.017,0-3.026V93.186h-3.208v19.436h10.288c.219.014.438.042.657.042q24.471,0,48.942,0c.3,0,.6-.052.883-.078V93.2H-383.3c0,2.8.012,5.513,0,8.227-.013,2.384-1.258,3.679-3.627,3.738-1.714.043-3.43.031-5.145,0-1.81-.029-2.391-.669-2.372-2.52l1.121-1.33h5.968V85.9h-46.25v15.319h1.482q13.46,0,26.92.013C-403.8,101.233-402.4,101.288-400.993,101.318ZM-423.438-7.023h-10.144V8.218H-387.3V4.613a1.984,1.984,0,0,1,1.6-1.9c1.869.055,2.4.661,2.4,2.773q0,40.977,0,81.953v1.611h3.139V-14.37h-1.68q-19.8,0-39.6,0c-3.035,0-6.071.026-9.107.041-2.859-.014-5.718-.033-8.577-.041-1.752,0-1.757,0-1.757,1.749q0,50.126,0,100.253v1.443h3.227v-1.8q0-46.9,0-93.8c0-3.449,1.026-4.479,4.465-4.479l47.253,0c1.953.733,2.623,1.669,2.641,3.7q.009,1.045,0,2.09c-.019,1.807-.62,2.425-2.4,2.474-2.442-.7-1.164-2.87-1.692-4.34-.281-.013-.543-.036-.8-.036q-17.163,0-34.326,0C-422.829-7.1-423.134-7.05-423.438-7.023Zm.007,46.449h-10.18V54.661h10.179c.218.018.437.051.655.051q17.292,0,34.585,0a8.462,8.462,0,0,0,.85-.081V39.376c-4.69,0-9.3-.006-13.917,0Q-412.345,39.395-423.432,39.426Zm64.963-27.139H-368.68V48.071h2.811V46.605q0-9.817,0-19.633c0-2.679,1.254-3.9,3.97-3.918,1.143-.006,2.286-.027,3.429-.042l29.136.044c2.863,0,4.083,1.216,4.086,4.077q.008,9.738,0,19.476v1.425h2.891c0-2.409.01-4.727,0-7.045a1.981,1.981,0,0,1,1.371-2.143c2.009-.027,2.608.58,2.609,2.685q0,22.995,0,45.989v1.553h3.242v-1.4q0-50.14,0-100.28c0-1.758,0-1.761-1.741-1.762q-23.832,0-47.663,0c-.439,0-.879.029-1.318.044h-10V89.069h3.129V87.256q0-46.978,0-93.956c0-3.295,1.012-4.3,4.348-4.3q23.7,0,47.4.012a3.5,3.5,0,0,1,2.6,3.794q.012,19,0,38c0,1.952-.655,2.573-2.607,2.544-1.17-.4-1.378-1.312-1.375-2.4.017-5.743.008-11.485.008-17.228V12.24c-3.407,0-6.651,0-9.9,0Q-345.359,12.261-358.469,12.287Zm-7.405,92.97c-.92-.026-1.841-.066-2.761-.076-2.9-.032-4.087-1.207-4.091-4.083,0-2.621,0-5.242,0-7.9h-3.214v19.417h10.08c.263.015.526.044.789.044q24.551,0,49.1,0c.252,0,.5-.035.784-.055V93.2h-3.206c0,.654,0,1.219,0,1.784.048,11.05.8,10.207-10.137,10.191q-17.885-.027-35.771,0C-364.824,105.178-365.349,105.23-365.874,105.257Zm43.418-36.978V58.748h-46.231v9.531Z"/>
      <path id="Trazado_633193" data-name="Trazado 633193" d="M-175.609,40.631c1.952.029,2.606-.592,2.607-2.544q.008-19,0-38a3.5,3.5,0,0,0-2.6-3.793,12.089,12.089,0,0,0-1.649-.224q-20.085-.019-40.17-.01c-3.092,0-3.092,0-3.057-3.106.439-.015.878-.044,1.318-.044q23.832,0,47.663,0c1.738,0,1.741,0,1.741,1.762q0,50.14,0,100.28v1.4H-173V94.795q0-22.994,0-45.989c0-2.105-.6-2.712-2.609-2.685.186-.309.517-.61.533-.928a34.749,34.749,0,0,0,0-3.634C-175.093,41.241-175.423,40.939-175.609,40.631Z" transform="translate(-145.377 -7.275)" fill="#596c75"/>
      <path id="Trazado_633194" data-name="Trazado 633194" d="M-404.221-7.054c3.035-.014,6.071-.04,9.107-.041q19.8-.007,39.6,0h1.68V96.326h-3.139V94.714q0-40.977,0-81.953c0-2.113-.529-2.719-2.4-2.773V4.546c1.778-.049,2.379-.667,2.4-2.474q.011-1.045,0-2.09c-.018-2.034-.688-2.971-2.641-3.7a10.861,10.861,0,0,0-1.521-.213q-20.677-.017-41.353-.009h-1.736Z" transform="translate(-26.335 -7.273)" fill="#586b75"/>
      <path id="Trazado_633195" data-name="Trazado 633195" d="M-368.147,307.862c-.019,1.851.561,2.491,2.372,2.52,1.714.028,3.43.04,5.145,0,2.369-.059,3.614-1.355,3.627-3.738.015-2.715,0-5.429,0-8.227h3.226V317.8c-.287.026-.585.078-.883.078q-24.471.005-48.942,0c-.219,0-.438-.027-.657-.042l-.013-7.368c1.886-.026,3.772-.074,5.658-.076q11.2-.013,22.407-.007c2.067,0,2.655-.583,2.636-2.521.318.176.63.486.957.5a33.132,33.132,0,0,0,3.509,0C-368.775,308.35-368.465,308.038-368.147,307.862Z" transform="translate(-26.305 -205.214)" fill="#b5c3ce"/>
      <path id="Trazado_633196" data-name="Trazado 633196" d="M-220.516,310.479c.525-.027,1.05-.079,1.574-.079q17.886-.006,35.771,0c10.934.016,10.184.859,10.137-10.191,0-.565,0-1.131,0-1.784h3.206V317.83c-.279.02-.532.054-.784.055q-24.551,0-49.1,0c-.263,0-.526-.029-.789-.044Q-220.509,314.16-220.516,310.479Z" transform="translate(-145.358 -205.222)" fill="#b5c3ce"/>
      <path id="Trazado_633197" data-name="Trazado 633197" d="M-162.052,89.594c.186.309.517.611.533.928a34.741,34.741,0,0,1,0,3.634c-.017.318-.347.619-.533.928a1.981,1.981,0,0,0-1.371,2.143c.014,2.317,0,4.635,0,7.045h-2.891v-1.425q0-9.738,0-19.476c0-2.861-1.223-4.072-4.086-4.077l-29.136-.044q-.014-1.451-.028-2.9a5.976,5.976,0,0,0,0-5.706l.026-2.117q13.11-.023,26.219-.046c3.245,0,6.489,0,9.9,0v1.483c0,5.743.009,11.485-.008,17.228C-163.43,88.281-163.221,89.2-162.052,89.594Zm-8.043-18.044v.006c-1.1,0-2.193-.05-3.285.014A1.793,1.793,0,0,0-175.2,73.43a1.735,1.735,0,0,0,1.7,1.965c2.184.1,4.378.1,6.562.014a1.777,1.777,0,0,0,1.751-2.044,1.807,1.807,0,0,0-1.877-1.806C-168.077,71.507-169.087,71.55-170.094,71.55ZM-193.7,73.506c0-.437.023-.875,0-1.31a1.888,1.888,0,0,0-1.876-1.949,1.912,1.912,0,0,0-2.039,1.8,16.9,16.9,0,0,0,0,2.878,1.915,1.915,0,0,0,2.019,1.821,1.887,1.887,0,0,0,1.9-1.927C-193.677,74.381-193.7,73.942-193.7,73.506Zm5.245.022h.01c0-.437.023-.875,0-1.31a1.938,1.938,0,0,0-2-1.975,1.923,1.923,0,0,0-1.935,1.908,16.064,16.064,0,0,0,.024,2.878,1.8,1.8,0,0,0,1.974,1.7,1.835,1.835,0,0,0,1.921-1.766A11.155,11.155,0,0,0-188.455,73.528Zm4.589-1.933a1.907,1.907,0,0,0-1.957,1.876,1.977,1.977,0,0,0,1.951,2.048,2.054,2.054,0,0,0,1.987-2.043A1.981,1.981,0,0,0-183.866,71.594Zm7.216,1.9a1.977,1.977,0,0,0-1.914-1.943,1.889,1.889,0,0,0-2.01,1.943,1.882,1.882,0,0,0,1.877,1.943A1.979,1.979,0,0,0-176.65,73.494Z" transform="translate(-158.935 -56.237)" fill="#b5c3ce"/>
      <path id="Trazado_633198" data-name="Trazado 633198" d="M-423.238-7.05v3.109h1.735q20.676,0,41.353.009a10.861,10.861,0,0,1,1.521.213l-47.253,0c-3.439,0-4.465,1.03-4.465,4.479q0,46.9,0,93.8v1.8h-3.227V94.91q0-50.126,0-100.253c0-1.746,0-1.753,1.757-1.749C-428.956-7.083-426.1-7.064-423.238-7.05Z" transform="translate(-7.318 -7.277)" fill="#465a61"/>
      <path id="Trazado_633199" data-name="Trazado 633199" d="M-238.872-6.965c-.035,3.106-.035,3.106,3.057,3.106q20.085,0,40.17.01A12.088,12.088,0,0,1-194-3.625q-23.7-.006-47.4-.012c-3.336,0-4.348,1-4.348,4.3q0,46.978,0,93.956v1.813h-3.129V-6.965Z" transform="translate(-126.985 -7.359)" fill="#455960"/>
      <path id="Trazado_633200" data-name="Trazado 633200" d="M-384.086,145.6q11.086-.025,22.173-.049c4.613-.007,9.227,0,13.917,0V160.8a8.454,8.454,0,0,1-.85.081q-17.293.006-34.585,0c-.218,0-.437-.033-.655-.051a5.11,5.11,0,0,0-.01-.785c-.2-1.266.315-1.656,1.58-1.592,2.05.1,4.11.049,6.166.018.856-.013,1.709-.14,2.564-.216a1.956,1.956,0,0,0,1.685-2.27c-.131-1.113-.975-1.689-2.408-1.7-3.192-.024-6.385-.036-9.577-.052q0-1.018,0-2.035,4.733-.022,9.467-.045c1.631-.009,2.565-.736,2.568-1.982s-.928-1.962-2.568-1.97q-4.733-.024-9.467-.044Zm33.549,10.622a1.988,1.988,0,0,0-1.944-1.928,2.031,2.031,0,0,0-2,2.03,1.992,1.992,0,0,0,2.1,1.9A1.945,1.945,0,0,0-350.537,156.218Zm-6.73,2.01a1.944,1.944,0,0,0,1.974-1.877,1.982,1.982,0,0,0-1.941-2.061,2.038,2.038,0,0,0-2,1.9A1.992,1.992,0,0,0-357.267,158.228Zm-11.476-1.983a2,2,0,0,0,1.9,1.98,1.948,1.948,0,0,0,2.049-1.933,1.984,1.984,0,0,0-1.87-2A2.037,2.037,0,0,0-368.743,156.245Zm8.7.013a1.985,1.985,0,0,0-1.9-1.967,2.034,2.034,0,0,0-2.04,1.988,1.991,1.991,0,0,0,2.06,1.946A1.944,1.944,0,0,0-360.043,156.258Zm7.72-8.049a2.011,2.011,0,0,0-2.154,1.855,2.021,2.021,0,0,0,1.806,2.074,1.984,1.984,0,0,0,2.123-1.727A1.971,1.971,0,0,0-352.323,148.209Zm-4.881,3.935a1.966,1.966,0,0,0,1.91-2.084,1.961,1.961,0,0,0-2-1.857,2.015,2.015,0,0,0-1.938,1.949A2.021,2.021,0,0,0-357.2,152.144Zm-4.755-3.939a2.01,2.01,0,0,0-2.029,1.988,2.029,2.029,0,0,0,1.94,1.952,1.975,1.975,0,0,0,2.005-1.995A1.96,1.96,0,0,0-361.959,148.205Zm-2.838,2a1.958,1.958,0,0,0-1.857-2,2.007,2.007,0,0,0-2.086,1.928,2.017,2.017,0,0,0,2.013,2.009A1.967,1.967,0,0,0-364.8,150.209Z" transform="translate(-39.346 -106.169)" fill="#b5c3ce"/>
      <path id="Trazado_633201" data-name="Trazado 633201" d="M-346.27,17.916v5.442a1.984,1.984,0,0,0-1.6,1.9,7.536,7.536,0,0,0-.194,1.779c.17,1.352-.34,1.679-1.672,1.671-10.628-.056-21.256-.031-31.885-.031-2.383,0-2.383,0-2.38-2.349,3.153-.018,6.306-.048,9.458-.049,1.139,0,2.122-.237,2.468-1.476a1.974,1.974,0,0,0-1.364-2.484c-.81-.079-1.62-.217-2.432-.225-2.658-.029-5.316-.011-8.132-.011V20.243q4.791-.033,9.582-.064c1.152-.006,2.1-.337,2.377-1.594a1.948,1.948,0,0,0-1.394-2.35c-1.209-.074-2.418-.193-3.628-.212-2.265-.035-4.532-.01-6.939-.01V13.621c.3-.027.609-.078.914-.078q17.163-.006,34.326,0c.262,0,.524.023.8.036C-347.434,15.046-348.712,17.216-346.27,17.916Zm-20.335,8.343a1.987,1.987,0,0,0,1.892-2.11,1.931,1.931,0,0,0-2.019-1.822,1.987,1.987,0,0,0-1.922,1.949A2.045,2.045,0,0,0-366.606,26.259Zm6.65-1.943a1.925,1.925,0,0,0-1.856-1.987,1.985,1.985,0,0,0-2.089,1.909,2.049,2.049,0,0,0,2.011,2.023A2,2,0,0,0-359.955,24.317Zm4.75-.1a1.922,1.922,0,0,0-1.954-1.89,1.985,1.985,0,0,0-1.988,2.014,2.064,2.064,0,0,0,1.981,1.924A1.991,1.991,0,0,0-355.2,24.216Zm4.754.023a1.924,1.924,0,0,0-1.932-1.912,1.989,1.989,0,0,0-2.013,1.991,2.075,2.075,0,0,0,1.96,1.947A1.993,1.993,0,0,0-350.451,24.238Zm-14.259-6a1.908,1.908,0,0,0-1.836-2,1.976,1.976,0,0,0-2.107,1.884,2.047,2.047,0,0,0,1.994,2.038A1.985,1.985,0,0,0-364.71,18.235Zm4.752-.082a1.908,1.908,0,0,0-1.917-1.919A1.978,1.978,0,0,0-363.9,18.2a2.064,2.064,0,0,0,1.946,1.958A1.985,1.985,0,0,0-359.958,18.153Zm2.829-1.92a1.979,1.979,0,0,0-2.019,1.979,2.067,2.067,0,0,0,1.954,1.951,1.986,1.986,0,0,0,1.989-2.018A1.908,1.908,0,0,0-357.129,16.234Zm4.656,0a1.977,1.977,0,0,0-1.921,1.945,2.043,2.043,0,0,0,2.05,1.978,1.971,1.971,0,0,0,1.893-1.976A1.917,1.917,0,0,0-352.473,16.233Z" transform="translate(-39.432 -20.644)" fill="#e7ecf1"/>
      <path id="Trazado_633202" data-name="Trazado 633202" d="M-355.147,294.673c-.318.176-.628.488-.955.506a33.141,33.141,0,0,1-3.509,0c-.327-.017-.638-.327-.957-.5l-1.122-1.332a8.939,8.939,0,0,0-1.5-.255q-9.606-.026-19.213-.012c-1.915,0-2.134-.336-1.442-2.338,2.991,0,6.014.012,9.036-.012a9.414,9.414,0,0,0,1.5-.25,2.037,2.037,0,0,0,1.07-2.539c-.406-1.159-1.374-1.321-2.446-1.325-3.151-.011-6.3-.049-9.453-.076l.093-1.868c3.128,0,6.107.01,9.086-.01a9.166,9.166,0,0,0,1.388-.215,1.96,1.96,0,0,0,1.395-2.353c-.272-1.255-1.221-1.594-2.373-1.6q-4.792-.025-9.585-.059a10.123,10.123,0,0,0-.008-1.183c-.112-.933.291-1.189,1.2-1.187q16.75.039,33.5,0c1.02,0,1.252.343,1.242,1.294-.045,4.124-.058,8.249.007,12.372.018,1.129-.361,1.4-1.428,1.382-1.467-.025-2.937.149-4.405.238Zm-4.938-12.2a1.974,1.974,0,0,0-1.908-1.962,2.043,2.043,0,0,0-2.034,1.995,1.977,1.977,0,0,0,2.067,1.927A1.914,1.914,0,0,0-360.085,282.478Zm4.753.011a1.973,1.973,0,0,0-1.9-1.973,2.044,2.044,0,0,0-2.046,1.983,1.977,1.977,0,0,0,2.056,1.939A1.914,1.914,0,0,0-355.332,282.489Zm4.753.021a1.983,1.983,0,0,0-2.006-2,2.057,2.057,0,0,0-1.937,1.964,1.978,1.978,0,0,0,2.035,1.962A1.911,1.911,0,0,0-350.579,282.51Zm-14.259-.057a1.982,1.982,0,0,0-1.933-1.939,2.043,2.043,0,0,0-2.01,2.02,1.976,1.976,0,0,0,2.091,1.9A1.914,1.914,0,0,0-364.837,282.454Zm-1.989,8.093a1.924,1.924,0,0,0,1.986-1.854,1.943,1.943,0,0,0-1.925-2.058,2.012,2.012,0,0,0-2.015,2A2,2,0,0,0-366.826,290.547Zm4.789,0a1.918,1.918,0,0,0,1.95-1.888,1.946,1.946,0,0,0-1.961-2.025,2.021,2.021,0,0,0-1.979,2.035A1.99,1.99,0,0,0-362.037,290.544Zm6.7-1.918a1.949,1.949,0,0,0-1.99-2,2.026,2.026,0,0,0-1.95,1.935,1.981,1.981,0,0,0,2.02,1.977A1.912,1.912,0,0,0-355.333,288.627Zm2.845,1.915a1.911,1.911,0,0,0,1.908-1.927,1.946,1.946,0,0,0-2-1.984,2.024,2.024,0,0,0-1.938,1.947A1.982,1.982,0,0,0-352.488,290.542Z" transform="translate(-39.305 -192.025)" fill="#e7ecf1"/>
      <path id="Trazado_633203" data-name="Trazado 633203" d="M-199.517,13.647c.437-.023.873-.067,1.31-.067q16.588-.006,33.177,0c.477,0,.955.066,1.433.1,0,4.523-.045,9.047.017,13.57.016,1.155-.291,1.483-1.468,1.478-10.692-.046-21.385-.027-32.077-.027-2.392,0-2.392,0-2.383-2.353q4.784-.027,9.568-.052c1.165,0,2.1-.382,2.321-1.641a1.916,1.916,0,0,0-1.588-2.328c-.725-.074-1.45-.2-2.175-.212-2.658-.026-5.316-.01-8.129-.01v-1.84c3.146-.02,6.293-.045,9.439-.058,1.08,0,2.059-.244,2.4-1.4a1.967,1.967,0,0,0-1.273-2.534c-1.076-.079-2.152-.212-3.229-.227-2.4-.035-4.8-.011-7.345-.011Zm19.259,10.643a1.976,1.976,0,0,0-2.06-1.935,1.936,1.936,0,0,0-1.884,1.962,1.994,1.994,0,0,0,1.909,1.966A2.037,2.037,0,0,0-180.258,24.29Zm4.755.048a1.982,1.982,0,0,0-1.882-1.983,1.933,1.933,0,0,0-2.062,1.913,1.992,1.992,0,0,0,1.859,2.012A2.039,2.039,0,0,0-175.5,24.338Zm2.767,1.948a2.04,2.04,0,0,0,1.983-2.045,1.981,1.981,0,0,0-1.976-1.889,1.941,1.941,0,0,0-1.965,2.014A2,2,0,0,0-172.736,26.286ZM-166,24.334a1.982,1.982,0,0,0-1.886-1.978,1.935,1.935,0,0,0-2.057,1.918,1.992,1.992,0,0,0,1.864,2.008A2.038,2.038,0,0,0-166,24.334Zm-14.263-6.163a1.97,1.97,0,0,0-1.948-1.909,1.93,1.93,0,0,0-1.994,1.976,1.993,1.993,0,0,0,1.927,1.946A2.053,2.053,0,0,0-180.259,18.171Zm4.754.024a1.965,1.965,0,0,0-1.925-1.931,1.926,1.926,0,0,0-2.017,1.951,1.983,1.983,0,0,0,1.9,1.968A2.049,2.049,0,0,0-175.506,18.195Zm9.507.043a1.966,1.966,0,0,0-1.883-1.971,1.925,1.925,0,0,0-2.059,1.907,1.986,1.986,0,0,0,1.86,2.006A2.047,2.047,0,0,0-166,18.237Zm-4.754-.01a1.965,1.965,0,0,0-1.892-1.963,1.924,1.924,0,0,0-2.05,1.916,1.985,1.985,0,0,0,1.87,2A2.044,2.044,0,0,0-170.752,18.228Z" transform="translate(-158.963 -20.669)" fill="#8c9ba7"/>
      <path id="Trazado_633204" data-name="Trazado 633204" d="M-199.556,239.1c4-.018,8-.047,12-.051q11.28-.013,22.56,0h1.487v9.479c-.362.031-.658.079-.955.079q-17.283.005-34.566,0c-.175,0-.349-.03-.524-.046l-.04-1.876a6.016,6.016,0,0,0,.01-5.712Zm29.312,6.658v0c1.056,0,2.114.043,3.167-.012a1.772,1.772,0,0,0,1.854-1.829,1.712,1.712,0,0,0-1.669-1.988c-2.192-.1-4.395-.1-6.588-.017a1.785,1.785,0,0,0-1.755,1.943,1.91,1.91,0,0,0,1.957,1.9C-172.27,245.8-171.256,245.759-170.244,245.759Zm-18.224-1.927c0-.439.026-.88,0-1.317a1.9,1.9,0,0,0-1.918-1.929,1.891,1.891,0,0,0-2.01,1.837,20.175,20.175,0,0,0,0,2.764,1.906,1.906,0,0,0,1.983,1.872,1.928,1.928,0,0,0,1.946-1.909C-188.44,244.713-188.468,244.271-188.468,243.832Zm-5.256.016c0-.439.023-.88,0-1.317a1.865,1.865,0,0,0-1.89-1.945,1.906,1.906,0,0,0-2.027,1.827,16.079,16.079,0,0,0,.01,2.894,1.875,1.875,0,0,0,2.095,1.739,1.811,1.811,0,0,0,1.81-1.881C-193.7,244.728-193.726,244.287-193.724,243.848Zm9.864,1.989a2.049,2.049,0,0,0,1.953-2.071,1.978,1.978,0,0,0-2.017-1.834,1.885,1.885,0,0,0-1.917,2.031A1.965,1.965,0,0,0-183.86,245.837Zm5.163-.089a1.968,1.968,0,0,0,2.029-1.951,2.051,2.051,0,0,0-1.938-1.945,1.928,1.928,0,0,0-1.983,1.982A1.855,1.855,0,0,0-178.7,245.748Z" transform="translate(-158.914 -166.75)" fill="#798b97"/>
      <path id="Trazado_633205" data-name="Trazado 633205" d="M-384.013,239.1c2.415-.019,4.83-.054,7.245-.056,9.578-.007,19.157,0,28.83,0v9.524c-.251.014-.5.042-.75.042q-17.269,0-34.538,0c-.262,0-.524-.034-.786-.052l-.008-1.843a5.76,5.76,0,0,0,.006-5.777Zm29.338,6.667v.018q1.445,0,2.89,0a2.619,2.619,0,0,0,.262-.016,1.89,1.89,0,0,0,1.921-1.912,1.83,1.83,0,0,0-1.843-1.977c-2.1-.076-4.2-.074-6.3,0a1.928,1.928,0,0,0-1.889,1.968,1.945,1.945,0,0,0,1.942,1.912C-356.692,245.812-355.682,245.764-354.675,245.764Zm-18.21-1.944h.011c0-.436.024-.874,0-1.309a1.864,1.864,0,0,0-1.877-1.94,1.8,1.8,0,0,0-2,1.674,12.77,12.77,0,0,0,.032,3.256,1.75,1.75,0,0,0,2.085,1.541,1.776,1.776,0,0,0,1.745-1.782C-372.851,244.783-372.885,244.3-372.885,243.82Zm-5.18-.026a13.858,13.858,0,0,0-.109-1.693,1.749,1.749,0,0,0-1.844-1.526,1.667,1.667,0,0,0-1.9,1.439,15.331,15.331,0,0,0,.011,3.638,1.661,1.661,0,0,0,1.924,1.4,1.747,1.747,0,0,0,1.813-1.56A15.65,15.65,0,0,0-378.065,243.794Zm11.749.044a1.917,1.917,0,0,0-1.916-1.921,1.963,1.963,0,0,0-2.025,1.962,2.03,2.03,0,0,0,1.936,1.952A1.979,1.979,0,0,0-366.316,243.838Zm5.257-.046a1.99,1.99,0,0,0-2.065-1.933A1.953,1.953,0,0,0-365,243.835a1.928,1.928,0,0,0,2.051,1.919A1.959,1.959,0,0,0-361.059,243.792Z" transform="translate(-39.423 -166.744)" fill="#01cffa"/>
      <path id="Trazado_633206" data-name="Trazado 633206" d="M-384.038,68.523q9.428-.023,18.856-.045c5.712-.008,11.424,0,17.224,0v9.535c-.25.017-.5.047-.747.047q-17.277,0-34.554,0c-.261,0-.522-.045-.783-.069q-.011-1.356-.021-2.711a2.154,2.154,0,0,0,1.578-1.982,2.019,2.019,0,0,0-1.556-1.983Q-384.039,69.918-384.038,68.523ZM-364,73.243c0,.437-.021.876,0,1.311a1.942,1.942,0,0,0,1.858,1.988,1.957,1.957,0,0,0,2.057-1.8,15.9,15.9,0,0,0-.013-3.011,1.863,1.863,0,0,0-2.117-1.693,1.824,1.824,0,0,0-1.782,1.9C-364.022,72.367-364,72.806-364,73.243Zm-1.321.02h.019c0-.437.029-.877-.006-1.312a1.932,1.932,0,0,0-2.05-1.928,1.9,1.9,0,0,0-1.888,1.944,22.309,22.309,0,0,0,.012,2.753,1.82,1.82,0,0,0,1.893,1.8,1.855,1.855,0,0,0,2-1.692A9.3,9.3,0,0,0-365.323,73.263Zm6.573,0c0,.48-.029.963.006,1.44a1.8,1.8,0,0,0,1.863,1.82,1.73,1.73,0,0,0,1.959-1.552,14.167,14.167,0,0,0,0-3.386,1.729,1.729,0,0,0-2.075-1.545,1.774,1.774,0,0,0-1.746,1.782C-358.783,72.3-358.748,72.782-358.75,73.262Zm9.18.016-.074,0a12.45,12.45,0,0,0-.011-1.568,1.761,1.761,0,0,0-1.844-1.677,1.7,1.7,0,0,0-1.951,1.537,15.441,15.441,0,0,0,.029,3.515,1.688,1.688,0,0,0,1.907,1.443,1.771,1.771,0,0,0,1.836-1.552A15.5,15.5,0,0,0-349.569,73.278Zm-29.505-1.948a1.962,1.962,0,0,0-1.979,1.877,2.038,2.038,0,0,0,1.982,2.042,1.961,1.961,0,0,0,1.944-2.045A1.879,1.879,0,0,0-379.074,71.33Zm7.2,1.939a1.929,1.929,0,0,0-1.979-2,2,2,0,0,0-1.96,1.912,1.986,1.986,0,0,0,1.877,1.987A1.921,1.921,0,0,0-371.879,73.269Z" transform="translate(-39.395 -56.237)" fill="#98e5fb"/>
      <path id="Trazado_633207" data-name="Trazado 633207" d="M-347.97,201.045q0,4.6-.005,9.19h-36.11v-1.773a5.582,5.582,0,0,0-.072-5.773l.162-1.644Zm-6.693,2.625c-1.051,0-2.1-.043-3.152.012a1.915,1.915,0,0,0-1.9,1.949,1.846,1.846,0,0,0,1.773,1.94c2.142.089,4.291.08,6.434.01a1.866,1.866,0,0,0,1.811-2.015,1.887,1.887,0,0,0-1.94-1.889C-352.647,203.632-353.656,203.666-354.663,203.67Zm-18.314,2h-.006a14.154,14.154,0,0,0-.01-1.571,1.81,1.81,0,0,0-1.828-1.72,1.659,1.659,0,0,0-1.929,1.405,14.433,14.433,0,0,0,.025,3.755,1.653,1.653,0,0,0,1.965,1.353,1.827,1.827,0,0,0,1.776-1.782C-372.943,206.632-372.977,206.148-372.977,205.668Zm-5.241.083h.008c0-.48.029-.962-.006-1.439a1.893,1.893,0,0,0-1.883-1.945,1.809,1.809,0,0,0-1.966,1.711,15.387,15.387,0,0,0,0,3.126,1.775,1.775,0,0,0,1.982,1.685,1.818,1.818,0,0,0,1.857-1.829C-378.188,206.626-378.218,206.187-378.218,205.751Zm9.88-2.058a2.027,2.027,0,0,0-2.006,1.88,1.985,1.985,0,0,0,1.946,2.054,1.957,1.957,0,0,0,1.991-1.862A1.994,1.994,0,0,0-368.338,203.693Zm5.24,3.911a2.008,2.008,0,0,0,1.949-2.063,2,2,0,0,0-2-1.873,1.979,1.979,0,0,0-1.939,2.056A1.991,1.991,0,0,0-363.1,207.6Z" transform="translate(-39.335 -142.129)" fill="#798b97"/>
      <path id="Trazado_633208" data-name="Trazado 633208" d="M-347.888,107.494q.011,4.594.022,9.188l-33.493.024c-2.665,0-2.665,0-2.634-2.615.518-.641,1.306-1.215,1.489-1.94.256-1.014-.611-1.632-1.5-2.039v-2.618Zm-21.32,4.591h-.008c0,.437-.025.876,0,1.312a1.967,1.967,0,0,0,2,1.986,1.951,1.951,0,0,0,1.928-1.931,16.5,16.5,0,0,0-.028-2.881,1.822,1.822,0,0,0-1.976-1.719,1.859,1.859,0,0,0-1.915,1.793A11.848,11.848,0,0,0-369.208,112.085Zm5.249.063c0,.437-.021.875,0,1.311a1.831,1.831,0,0,0,1.785,1.9,1.765,1.765,0,0,0,2.07-1.579,12.769,12.769,0,0,0-.023-3.386,1.751,1.751,0,0,0-1.979-1.541,1.839,1.839,0,0,0-1.847,1.852C-363.986,111.184-363.955,111.667-363.959,112.148Zm5.256-.052h-.01c0,.437-.012.874,0,1.31a1.852,1.852,0,0,0,1.727,1.959,1.83,1.83,0,0,0,2.134-1.662,13.2,13.2,0,0,0-.023-3.255,1.776,1.776,0,0,0-2.068-1.585,1.8,1.8,0,0,0-1.756,1.794C-358.731,111.133-358.7,111.615-358.7,112.1Zm9.1.134c0-.524.036-1.05-.007-1.57a1.811,1.811,0,0,0-1.881-1.8,1.738,1.738,0,0,0-1.928,1.591,15.177,15.177,0,0,0,.014,3.38,1.706,1.706,0,0,0,1.953,1.539,1.8,1.8,0,0,0,1.845-1.829C-349.569,113.1-349.6,112.666-349.6,112.23Zm-22.239-.193a1.961,1.961,0,0,0-1.932-1.925,2.008,2.008,0,0,0-2.009,2,2.029,2.029,0,0,0,1.954,1.934A1.981,1.981,0,0,0-371.842,112.037Zm-7.234,2.034a1.923,1.923,0,0,0,1.978-1.853,1.97,1.97,0,0,0-1.9-2.079,2.068,2.068,0,0,0-2.017,1.877A1.983,1.983,0,0,0-379.076,114.071Z" transform="translate(-39.433 -81.517)" fill="#798b97"/>
      <path id="Trazado_633209" data-name="Trazado 633209" d="M-191.986,110.486q12.987-.021,25.974-.038a3.889,3.889,0,0,1,.573.093v20.847a2.291,2.291,0,0,1-.578.151q-12.987-.011-25.974-.038c.026-2.775-.348-2.329,2.372-2.34,6.01-.023,12.02,0,18.031-.018a10.311,10.311,0,0,0,1.516-.224,2.728,2.728,0,0,0,2.075-2.97c-.005-3.161,0-6.323,0-9.484,0-2.537-.858-3.384-3.4-3.39l-20.586-.045Q-191.986,111.758-191.986,110.486Z" transform="translate(-163.837 -83.431)" fill="#596c75"/>
      <path id="Trazado_633210" data-name="Trazado 633210" d="M-218.3,76.436q.014,1.451.028,2.9c-1.143.014-2.286.036-3.429.042-2.716.014-3.968,1.238-3.97,3.918q-.007,9.817,0,19.633V104.4h-2.811V68.613h10.211l-.026,2.117c-2.121-.89-3.3-.112-3.336,2.194q-.009.658,0,1.316C-221.6,76.547-220.419,77.326-218.3,76.436Zm-8.556-2.931h.052c0,.523-.042,1.05.009,1.568a1.756,1.756,0,0,0,1.784,1.739,1.726,1.726,0,0,0,2.032-1.593A14.985,14.985,0,0,0-223,71.838a1.7,1.7,0,0,0-1.987-1.49,1.743,1.743,0,0,0-1.784,1.593A14.909,14.909,0,0,0-226.857,73.505Z" transform="translate(-140.195 -56.326)" fill="#9eabb9"/>
      <path id="Trazado_633211" data-name="Trazado 633211" d="M-182.4,292.852a7.681,7.681,0,0,1-1.134.166q-21.9,0-43.806-.02c-.386,0-.773-.039-1.216-.062V277.67h46.373v4.216c0,3.248.008,6.5-.01,9.745a7.3,7.3,0,0,1-.212,1.224V277.91h-35.919v2.271c-1.8.02-3.6.034-5.4.062a2.037,2.037,0,0,0-2.244,1.618c-.292,1.332.67,2.324,2.266,2.327,5.313.007,10.627-.007,15.94-.013-.988.082-1.974.222-2.963.236-2.489.034-4.978.011-7.611.011v1.864c-1.754.025-3.508.038-5.261.078-1.582.036-2.415.742-2.4,2s.835,1.946,2.438,1.946c5.267,0,10.535-.031,15.8-.05-1.077.08-2.153.214-3.232.23-2.4.035-4.8.011-7.231.011v2.317h1.664Z" transform="translate(-140.149 -191.775)" fill="#9eabb9"/>
      <path id="Trazado_633212" data-name="Trazado 633212" d="M-372.618,293.1c1.469-.089,2.939-.263,4.405-.238,1.066.018,1.445-.254,1.428-1.382-.065-4.123-.051-8.249-.007-12.372.01-.951-.222-1.3-1.242-1.294q-16.75.05-33.5,0c-.908,0-1.311.254-1.2,1.187a10.124,10.124,0,0,1,.008,1.183c-1.8.021-3.6.014-5.4.072-1.484.047-2.484,1.1-2.2,2.324a2.062,2.062,0,0,0,2.35,1.63c5.271-.028,10.542-.012,15.813-.013a9.17,9.17,0,0,1-1.388.215c-2.978.02-5.957.01-9.086.01l-.093,1.868c-1.8.027-3.6.037-5.393.088a2.03,2.03,0,0,0-2.239,1.914,1.965,1.965,0,0,0,2.125,2.01c5.445,0,10.891-.044,16.336-.073a9.41,9.41,0,0,1-1.5.25c-3.022.024-6.046.012-9.036.012-.692,2-.473,2.337,1.442,2.338q9.606,0,19.213.012a8.944,8.944,0,0,1,1.5.255c-1.406-.03-2.811-.085-4.217-.087q-13.46-.016-26.92-.013H-412.9V277.683h46.25V293.1Z" transform="translate(-20.712 -191.783)" fill="#d8e6eb"/>
      <path id="Trazado_633213" data-name="Trazado 633213" d="M-218.274,13.775v2.392c2.546,0,4.946-.024,7.345.011,1.077.015,2.152.148,3.229.227q-7.9-.011-15.806-.018c-1.607,0-2.429.675-2.432,1.932s.848,1.981,2.406,2.014c1.755.037,3.509.043,5.264.062v1.84c2.814,0,5.472-.015,8.129.01.726.007,1.45.138,2.175.212q-7.771.008-15.542.019c-1.576,0-2.432.7-2.433,1.943s.865,1.981,2.409,2.006c1.755.028,3.51.037,5.265.054-.009,2.353-.009,2.353,2.383,2.353,10.692,0,21.385-.019,32.077.027,1.177,0,1.484-.324,1.468-1.478-.063-4.522-.02-9.046-.017-13.57a2.471,2.471,0,0,1,.22.7q.018,6.978,0,13.956a4.1,4.1,0,0,1-.086.563h-46.25V13.775Z" transform="translate(-140.207 -20.796)" fill="#798b97"/>
      <path id="Trazado_633214" data-name="Trazado 633214" d="M-423.175,310.444l.013,7.368H-433.45V298.376h3.208v5.085c0,1.009-.01,2.018,0,3.026.03,2.595,1.284,3.834,3.909,3.883C-425.279,310.389-424.227,310.419-423.175,310.444Z" transform="translate(-7.397 -205.19)" fill="#9eabb9"/>
      <path id="Trazado_633215" data-name="Trazado 633215" d="M-402.669,20.392v1.838c2.816,0,5.474-.018,8.132.011.811.009,1.621.146,2.432.225q-7.841,0-15.682,0c-1.583,0-2.467.677-2.514,1.883-.049,1.251.9,2.044,2.5,2.066,1.712.024,3.423.038,5.135.056,0,2.349,0,2.349,2.38,2.349,10.628,0,21.257-.025,31.885.031,1.332.007,1.842-.319,1.672-1.671a7.536,7.536,0,0,1,.194-1.779v3.606h-46.278V13.77h10.144v2.393c2.407,0,4.674-.025,6.939.01,1.21.018,2.419.138,3.628.212q-7.841-.006-15.681-.009c-1.574,0-2.47.686-2.517,1.879-.049,1.243.907,2.042,2.5,2.07C-406.091,20.355-404.38,20.37-402.669,20.392Z" transform="translate(-20.767 -20.793)" fill="#d8e6eb"/>
      <path id="Trazado_633216" data-name="Trazado 633216" d="M-239.041,310.478q.006,3.681.012,7.362h-10.08V298.424h3.214c0,2.653,0,5.274,0,7.9,0,2.876,1.191,4.052,4.091,4.083C-240.882,310.413-239.962,310.452-239.041,310.478Z" transform="translate(-126.833 -205.221)" fill="#9eabb9"/>
      <path id="Trazado_633217" data-name="Trazado 633217" d="M-392.42,158.351c-.855.076-1.709.2-2.564.216-2.055.032-4.115.086-6.166-.018-1.265-.064-1.784.326-1.58,1.592a5.118,5.118,0,0,1,.009.785H-412.9V145.692h10.18v2.562c-1.755.015-3.51.024-5.266.045-1.44.018-2.331.741-2.373,1.9-.044,1.209.887,2.023,2.373,2.045,1.755.026,3.51.032,5.266.046q0,1.017,0,2.035c-1.888.019-3.778,0-5.664.069a1.926,1.926,0,0,0-1.963,1.908,1.891,1.891,0,0,0,1.719,1.993,7.164,7.164,0,0,0,1.184.032Q-399.932,158.344-392.42,158.351Z" transform="translate(-20.712 -106.266)" fill="#9eabb9"/>
      <path id="Trazado_633218" data-name="Trazado 633218" d="M-402.86,113.613c-.032,2.616-.032,2.617,2.634,2.615l33.493-.024a4.1,4.1,0,0,1-1.037.28q-22.162.006-44.323-.021c-.3,0-.594-.048-1.031-.085,0-2.99,0-5.918,0-8.845,0-.914.7-.737,1.236-.74q5.012-.031,10.025-.034,16.885-.005,33.77.009a7.332,7.332,0,0,1,1.337.248h-36.117v2.618c-2.062,0-4.124-.008-6.186.018-1.429.018-2.27.781-2.279,1.993s.839,1.936,2.29,1.949C-406.984,113.614-404.922,113.608-402.86,113.613Z" transform="translate(-20.567 -81.04)" fill="#586b75"/>
      <path id="Trazado_633219" data-name="Trazado 633219" d="M-163.589,184.62a5.743,5.743,0,0,1-.649.073q-17.367,0-34.733,0a5.23,5.23,0,0,1-.522-.05c-.01-2.347-.01-2.347,2.381-2.347h33.523Z" transform="translate(-158.978 -129.982)" fill="#8c9ba6"/>
      <path id="Trazado_633220" data-name="Trazado 633220" d="M-203.005,110.555q0,1.272,0,2.545c-2.823.166-3.442.815-3.443,3.607q0,4.467,0,8.934c0,2.6.776,3.341,3.374,3.338q10.992-.014,21.984.011a10.313,10.313,0,0,1-1.516.224c-6.01.016-12.021-.006-18.031.018-2.721.011-2.346-.434-2.372,2.34H-209V110.555Z" transform="translate(-152.817 -83.5)" fill="#465a61"/>
      <path id="Trazado_633221" data-name="Trazado 633221" d="M-182.275,210.1h-46.231v-9.531h46.231Zm-36.007-7.578c-2-1-3.32-.21-3.364,2.017q-.015.782,0,1.565c.044,2.223,1.36,3.015,3.36,2.027v1.627a2.734,2.734,0,0,0,.543.16q17.216.013,34.432.029c.811,0,.935-.382.928-1.055-.023-2.238-.072-4.479.018-6.714.047-1.156-.287-1.483-1.464-1.478-10.906.046-21.812.027-32.717.027C-218.3,200.727-218.3,200.728-218.282,202.522Zm-8.6,2.738h.042c0,.481-.037.965.007,1.441a1.916,1.916,0,0,0,1.947,1.895,1.83,1.83,0,0,0,1.924-1.772,16.072,16.072,0,0,0-.062-3.264,1.7,1.7,0,0,0-1.868-1.5,1.8,1.8,0,0,0-1.9,1.628A13.815,13.815,0,0,0-226.878,205.261Z" transform="translate(-140.181 -141.821)" fill="#d8e6eb"/>
      <path id="Trazado_633222" data-name="Trazado 633222" d="M-402.67,207.957v1.773h36.11a4.4,4.4,0,0,1-1.053.266q-22.178,0-44.356-.021c-.258,0-.517-.039-.873-.067v-9.551c.436-.024.86-.068,1.284-.068q21.848-.021,43.7-.022a6.434,6.434,0,0,1,1.308.274H-402.58l-.162,1.644c-2.047-.737-3.143.006-3.165,2.15-.006.569-.009,1.139,0,1.708C-405.872,208.137-404.577,208.9-402.67,207.957Zm-8.493-2.935c0,.393-.01.787,0,1.18a2.019,2.019,0,0,0,1.915,2.208,2.027,2.027,0,0,0,2.031-2.125,16.925,16.925,0,0,0-.016-2.489,1.978,1.978,0,0,0-2.063-1.942,2,2,0,0,0-1.866,2.119C-411.173,204.323-411.162,204.673-411.163,205.023Z" transform="translate(-20.749 -141.624)" fill="#596b75"/>
      <path id="Trazado_633223" data-name="Trazado 633223" d="M-402.73,75.368q.011,1.355.021,2.711h-10.165V68.613H-402.7l0,2.79c-2.017,0-4.035,0-6.052.01-1.607.011-2.418.673-2.422,1.939,0,1.249.845,1.985,2.4,2.006C-406.764,75.383-404.747,75.366-402.73,75.368Z" transform="translate(-20.729 -56.326)" fill="#61dafa"/>
      <path id="Trazado_633224" data-name="Trazado 633224" d="M-402.736,246.819l.008,1.843h-10.179v-9.455h10.179q0,.917,0,1.835c-2.1-.835-3.216-.094-3.243,2.153q-.009.725,0,1.449C-405.947,246.9-404.841,247.637-402.736,246.819Zm-8.468-2.96c0,.48-.029.962.006,1.44a1.8,1.8,0,0,0,1.815,1.856,1.766,1.766,0,0,0,2.047-1.6,12.249,12.249,0,0,0,0-3.258,1.771,1.771,0,0,0-2.046-1.6,1.8,1.8,0,0,0-1.817,1.857C-411.228,242.984-411.2,243.422-411.2,243.859Z" transform="translate(-20.707 -166.854)" fill="#01bff8"/>
      <path id="Trazado_633225" data-name="Trazado 633225" d="M-218.3,246.786l.04,1.876h-10.2V239.2h10.2q-.014.935-.027,1.87c-2.111-.872-3.307-.092-3.355,2.191q-.014.655,0,1.312C-221.6,246.886-220.463,247.635-218.3,246.786ZM-222.774,244c-.062-.612-.075-1.141-.175-1.653a1.8,1.8,0,0,0-2.147-1.621,1.7,1.7,0,0,0-1.672,1.833c-.025.963-.032,1.93.015,2.892a1.674,1.674,0,0,0,1.69,1.681A1.725,1.725,0,0,0-223,245.736,15.191,15.191,0,0,0-222.774,244Z" transform="translate(-140.21 -166.853)" fill="#586b75"/>
      <path id="Trazado_633226" data-name="Trazado 633226" d="M-182.378,184.287v-2.323H-215.9c-2.39,0-2.39,0-2.381,2.347h-10.212v-2.528h46.416Z" transform="translate(-140.189 -129.649)" fill="#798b97"/>
      <path id="Trazado_633227" data-name="Trazado 633227" d="M-125.277,77.176c1.008,0,2.018-.043,3.022.011a1.807,1.807,0,0,1,1.877,1.806,1.777,1.777,0,0,1-1.751,2.044c-2.184.091-4.378.083-6.562-.014a1.735,1.735,0,0,1-1.7-1.965,1.793,1.793,0,0,1,1.825-1.861c1.091-.064,2.189-.014,3.285-.014Z" transform="translate(-203.752 -61.863)" fill="#010101"/>
      <path id="Trazado_633228" data-name="Trazado 633228" d="M-190.244,76.762c0,.437.024.875-.006,1.31a1.887,1.887,0,0,1-1.9,1.927,1.915,1.915,0,0,1-2.019-1.821,16.9,16.9,0,0,1,0-2.878,1.912,1.912,0,0,1,2.039-1.8,1.888,1.888,0,0,1,1.876,1.949C-190.22,75.887-190.243,76.326-190.244,76.762Z" transform="translate(-162.392 -59.494)" fill="#010101"/>
      <path id="Trazado_633229" data-name="Trazado 633229" d="M-205.707,79.671c-2.118.89-3.3.111-3.335-2.2q-.009-.659,0-1.316c.032-2.307,1.215-3.084,3.336-2.194A5.976,5.976,0,0,1-205.707,79.671Z" transform="translate(-152.789 -59.561)" fill="#010101"/>
      <path id="Trazado_633230" data-name="Trazado 633230" d="M-175.346,76.777a11.15,11.15,0,0,1-.01,1.44,1.835,1.835,0,0,1-1.921,1.766,1.8,1.8,0,0,1-1.974-1.7,16.063,16.063,0,0,1-.024-2.878,1.923,1.923,0,0,1,1.935-1.908,1.938,1.938,0,0,1,2,1.975c.027.435,0,.874,0,1.31Z" transform="translate(-172.044 -59.487)"/>
      <path id="Trazado_633231" data-name="Trazado 633231" d="M-158.588,77.332a1.981,1.981,0,0,1,1.981,1.881,2.054,2.054,0,0,1-1.987,2.043,1.977,1.977,0,0,1-1.951-2.048A1.907,1.907,0,0,1-158.588,77.332Z" transform="translate(-184.213 -61.975)" fill="#020202"/>
      <path id="Trazado_633232" data-name="Trazado 633232" d="M-141.712,79.148a1.979,1.979,0,0,1-2.046,1.943,1.882,1.882,0,0,1-1.877-1.943,1.889,1.889,0,0,1,2.01-1.943A1.977,1.977,0,0,1-141.712,79.148Z" transform="translate(-193.873 -61.892)" fill="#010102"/>
      <path id="Trazado_633233" data-name="Trazado 633233" d="M-398.041,157.009c-1.755-.015-3.511-.02-5.266-.046-1.486-.022-2.416-.836-2.373-2.045.042-1.162.933-1.885,2.373-1.9,1.755-.022,3.51-.031,5.266-.045q4.733.022,9.467.044c1.64.008,2.57.724,2.568,1.97s-.937,1.973-2.568,1.982Q-393.308,156.992-398.041,157.009Z" transform="translate(-25.389 -110.981)"/>
      <path id="Trazado_633234" data-name="Trazado 633234" d="M-387.723,174.246q-7.512-.009-15.024-.019a7.167,7.167,0,0,1-1.184-.032,1.891,1.891,0,0,1-1.719-1.993,1.926,1.926,0,0,1,1.963-1.908c1.886-.068,3.776-.051,5.664-.069,3.192.017,6.385.029,9.577.052,1.433.011,2.277.587,2.408,1.7A1.956,1.956,0,0,1-387.723,174.246Z" transform="translate(-25.409 -122.16)"/>
      <path id="Trazado_633235" data-name="Trazado 633235" d="M-295.959,172.311a1.945,1.945,0,0,1-1.843,2.006,1.992,1.992,0,0,1-2.1-1.9,2.031,2.031,0,0,1,2-2.03A1.988,1.988,0,0,1-295.959,172.311Z" transform="translate(-93.923 -122.263)" fill="#020202"/>
      <path id="Trazado_633236" data-name="Trazado 633236" d="M-311.437,174.322a1.991,1.991,0,0,1-1.965-2.042,2.038,2.038,0,0,1,2-1.9,1.982,1.982,0,0,1,1.941,2.061A1.944,1.944,0,0,1-311.437,174.322Z" transform="translate(-85.175 -122.264)" fill="#020202"/>
      <path id="Trazado_633237" data-name="Trazado 633237" d="M-340.411,172.341a2.037,2.037,0,0,1,2.076-1.953,1.984,1.984,0,0,1,1.87,2,1.948,1.948,0,0,1-2.049,1.933A2,2,0,0,1-340.411,172.341Z" transform="translate(-67.677 -122.265)" fill="#020202"/>
      <path id="Trazado_633238" data-name="Trazado 633238" d="M-322.961,172.354a1.944,1.944,0,0,1-1.885,1.967,1.991,1.991,0,0,1-2.06-1.946,2.034,2.034,0,0,1,2.04-1.988A1.985,1.985,0,0,1-322.961,172.354Z" transform="translate(-76.428 -122.265)" fill="#020202"/>
      <path id="Trazado_633239" data-name="Trazado 633239" d="M-297.746,153.1a1.971,1.971,0,0,1,1.775,2.2,1.984,1.984,0,0,1-2.123,1.727,2.021,2.021,0,0,1-1.806-2.074A2.011,2.011,0,0,1-297.746,153.1Z" transform="translate(-93.923 -111.062)" fill="#020202"/>
      <path id="Trazado_633240" data-name="Trazado 633240" d="M-311.376,157.038a2.021,2.021,0,0,1-2.031-1.992,2.015,2.015,0,0,1,1.938-1.948,1.961,1.961,0,0,1,2,1.857A1.966,1.966,0,0,1-311.376,157.038Z" transform="translate(-85.173 -111.064)" fill="#020202"/>
      <path id="Trazado_633241" data-name="Trazado 633241" d="M-324.879,153.1a1.96,1.96,0,0,1,1.916,1.945,1.975,1.975,0,0,1-2.005,1.995,2.029,2.029,0,0,1-1.94-1.952A2.01,2.01,0,0,1-324.879,153.1Z" transform="translate(-76.426 -111.067)" fill="#020202"/>
      <path id="Trazado_633242" data-name="Trazado 633242" d="M-336.462,155.106a1.967,1.967,0,0,1-1.931,1.935,2.018,2.018,0,0,1-2.013-2.009,2.007,2.007,0,0,1,2.087-1.928A1.958,1.958,0,0,1-336.462,155.106Z" transform="translate(-67.681 -111.067)" fill="#020202"/>
      <path id="Trazado_633243" data-name="Trazado 633243" d="M-398.048,42.478c-1.712-.018-3.423-.032-5.135-.056-1.595-.022-2.548-.815-2.5-2.066.048-1.207.932-1.882,2.514-1.883q7.841-.009,15.682,0a1.974,1.974,0,0,1,1.364,2.484c-.346,1.239-1.329,1.476-2.468,1.476C-391.742,42.431-394.895,42.46-398.048,42.478Z" transform="translate(-25.388 -36.795)"/>
      <path id="Trazado_633244" data-name="Trazado 633244" d="M-398.049,25.186c-1.711-.022-3.422-.038-5.133-.068-1.594-.028-2.549-.827-2.5-2.07.047-1.193.943-1.878,2.517-1.879q7.84-.005,15.681.009a1.948,1.948,0,0,1,1.394,2.35c-.273,1.257-1.224,1.588-2.377,1.594Q-393.258,25.148-398.049,25.186Z" transform="translate(-25.387 -25.587)" fill="#010101"/>
      <path id="Trazado_633245" data-name="Trazado 633245" d="M-338.357,42.426a2.045,2.045,0,0,1-2.049-1.984,1.987,1.987,0,0,1,1.922-1.949,1.931,1.931,0,0,1,2.019,1.822A1.987,1.987,0,0,1-338.357,42.426Z" transform="translate(-67.681 -36.811)" fill="#020202"/>
      <path id="Trazado_633246" data-name="Trazado 633246" d="M-322.958,40.488a2,2,0,0,1-1.934,1.945A2.049,2.049,0,0,1-326.9,40.41a1.985,1.985,0,0,1,2.089-1.909A1.925,1.925,0,0,1-322.958,40.488Z" transform="translate(-76.429 -36.815)" fill="#020202"/>
      <path id="Trazado_633247" data-name="Trazado 633247" d="M-309.464,40.383a1.991,1.991,0,0,1-1.962,2.047,2.064,2.064,0,0,1-1.981-1.924,1.985,1.985,0,0,1,1.988-2.014A1.922,1.922,0,0,1-309.464,40.383Z" transform="translate(-85.173 -36.811)" fill="#020202"/>
      <path id="Trazado_633248" data-name="Trazado 633248" d="M-295.965,40.407a1.993,1.993,0,0,1-1.985,2.026,2.075,2.075,0,0,1-1.96-1.947,1.989,1.989,0,0,1,2.013-1.991A1.924,1.924,0,0,1-295.965,40.407Z" transform="translate(-93.918 -36.812)" fill="#020202"/>
      <path id="Trazado_633249" data-name="Trazado 633249" d="M-336.459,23.2a1.985,1.985,0,0,1-1.949,1.925,2.047,2.047,0,0,1-1.994-2.038A1.976,1.976,0,0,1-338.3,21.2,1.908,1.908,0,0,1-336.459,23.2Z" transform="translate(-67.683 -25.605)" fill="#030303"/>
      <path id="Trazado_633250" data-name="Trazado 633250" d="M-322.963,23.111a1.985,1.985,0,0,1-2,2.009,2.064,2.064,0,0,1-1.946-1.958,1.978,1.978,0,0,1,2.026-1.971A1.908,1.908,0,0,1-322.963,23.111Z" transform="translate(-76.427 -25.601)" fill="#030303"/>
      <path id="Trazado_633251" data-name="Trazado 633251" d="M-311.388,21.191a1.908,1.908,0,0,1,1.924,1.912,1.986,1.986,0,0,1-1.989,2.018,2.067,2.067,0,0,1-1.954-1.951A1.979,1.979,0,0,1-311.388,21.191Z" transform="translate(-85.174 -25.601)" fill="#030303"/>
      <path id="Trazado_633252" data-name="Trazado 633252" d="M-297.983,21.188a1.917,1.917,0,0,1,2.022,1.947,1.971,1.971,0,0,1-1.893,1.976,2.043,2.043,0,0,1-2.05-1.978A1.977,1.977,0,0,1-297.983,21.188Z" transform="translate(-93.922 -25.599)" fill="#030303"/>
      <path id="Trazado_633253" data-name="Trazado 633253" d="M-387.506,288.813c-5.271,0-10.542-.015-15.813.013a2.062,2.062,0,0,1-2.35-1.63c-.282-1.219.718-2.277,2.2-2.324,1.8-.057,3.6-.05,5.4-.071q4.792.03,9.585.059c1.153.006,2.1.345,2.373,1.6A1.96,1.96,0,0,1-387.506,288.813Z" transform="translate(-25.366 -196.395)" fill="#000001"/>
      <path id="Trazado_633254" data-name="Trazado 633254" d="M-387.222,306.083c-5.445.029-10.891.078-16.336.073a1.965,1.965,0,0,1-2.125-2.01,2.03,2.03,0,0,1,2.239-1.914c1.8-.051,3.6-.061,5.393-.088,3.151.027,6.3.065,9.453.076,1.072,0,2.04.166,2.446,1.325A2.037,2.037,0,0,1-387.222,306.083Z" transform="translate(-25.387 -207.632)" fill="#010101"/>
      <path id="Trazado_633255" data-name="Trazado 633255" d="M-322.959,287a1.914,1.914,0,0,1-1.876,1.96,1.977,1.977,0,0,1-2.067-1.927,2.043,2.043,0,0,1,2.034-1.995A1.974,1.974,0,0,1-322.959,287Z" transform="translate(-76.43 -196.549)" fill="#020202"/>
      <path id="Trazado_633256" data-name="Trazado 633256" d="M-309.46,287.012a1.914,1.914,0,0,1-1.887,1.949,1.977,1.977,0,0,1-2.056-1.939,2.044,2.044,0,0,1,2.046-1.983A1.973,1.973,0,0,1-309.46,287.012Z" transform="translate(-85.176 -196.549)" fill="#020202"/>
      <path id="Trazado_633257" data-name="Trazado 633257" d="M-295.962,287.028a1.911,1.911,0,0,1-1.908,1.929,1.978,1.978,0,0,1-2.035-1.962,2.057,2.057,0,0,1,1.937-1.964A1.983,1.983,0,0,1-295.962,287.028Z" transform="translate(-93.921 -196.543)" fill="#020202"/>
      <path id="Trazado_633258" data-name="Trazado 633258" d="M-336.459,286.975a1.914,1.914,0,0,1-1.852,1.983,1.976,1.976,0,0,1-2.091-1.9,2.044,2.044,0,0,1,2.01-2.02A1.982,1.982,0,0,1-336.459,286.975Z" transform="translate(-67.683 -196.547)" fill="#020202"/>
      <path id="Trazado_633259" data-name="Trazado 633259" d="M-338.446,306.33a2,2,0,0,1-1.954-1.915,2.012,2.012,0,0,1,2.015-2,1.943,1.943,0,0,1,1.925,2.058A1.924,1.924,0,0,1-338.446,306.33Z" transform="translate(-67.685 -207.809)" fill="#020202"/>
      <path id="Trazado_633260" data-name="Trazado 633260" d="M-324.912,306.322a1.99,1.99,0,0,1-1.99-1.877,2.021,2.021,0,0,1,1.979-2.035,1.946,1.946,0,0,1,1.961,2.025A1.918,1.918,0,0,1-324.912,306.322Z" transform="translate(-76.43 -207.804)" fill="#020202"/>
      <path id="Trazado_633261" data-name="Trazado 633261" d="M-309.46,304.4a1.912,1.912,0,0,1-1.921,1.916,1.981,1.981,0,0,1-2.02-1.977,2.026,2.026,0,0,1,1.95-1.935A1.949,1.949,0,0,1-309.46,304.4Z" transform="translate(-85.178 -207.8)" fill="#020202"/>
      <path id="Trazado_633262" data-name="Trazado 633262" d="M-297.868,306.317a1.982,1.982,0,0,1-2.032-1.964,2.023,2.023,0,0,1,1.938-1.947,1.946,1.946,0,0,1,2,1.984A1.911,1.911,0,0,1-297.868,306.317Z" transform="translate(-93.925 -207.801)" fill="#020202"/>
      <path id="Trazado_633263" data-name="Trazado 633263" d="M-213.612,42.456c-1.755-.017-3.51-.026-5.265-.054-1.544-.025-2.41-.756-2.409-2.006s.858-1.939,2.433-1.943q7.771-.019,15.542-.019a1.916,1.916,0,0,1,1.588,2.328c-.22,1.259-1.156,1.636-2.321,1.641Q-208.828,42.425-213.612,42.456Z" transform="translate(-144.859 -36.774)"/>
      <path id="Trazado_633264" data-name="Trazado 633264" d="M-213.613,25.2c-1.755-.019-3.51-.025-5.264-.062-1.557-.033-2.408-.763-2.406-2.014s.825-1.931,2.432-1.932q7.9,0,15.806.018a1.967,1.967,0,0,1,1.273,2.534c-.342,1.154-1.321,1.393-2.4,1.4C-207.321,25.157-210.467,25.182-213.613,25.2Z" transform="translate(-144.861 -25.603)"/>
      <path id="Trazado_633265" data-name="Trazado 633265" d="M-152.076,40.44a2.037,2.037,0,0,1-2.034,1.993,1.994,1.994,0,0,1-1.909-1.966,1.936,1.936,0,0,1,1.884-1.962A1.976,1.976,0,0,1-152.076,40.44Z" transform="translate(-187.146 -36.818)" fill="#010202"/>
      <path id="Trazado_633266" data-name="Trazado 633266" d="M-138.571,40.486a2.039,2.039,0,0,1-2.084,1.943,1.992,1.992,0,0,1-1.859-2.012,1.933,1.933,0,0,1,2.062-1.913A1.982,1.982,0,0,1-138.571,40.486Z" transform="translate(-195.895 -36.817)" fill="#010202"/>
      <path id="Trazado_633267" data-name="Trazado 633267" d="M-127.061,42.432a2,2,0,0,1-1.958-1.92,1.941,1.941,0,0,1,1.965-2.014,1.981,1.981,0,0,1,1.976,1.889A2.04,2.04,0,0,1-127.061,42.432Z" transform="translate(-204.638 -36.814)" fill="#010202"/>
      <path id="Trazado_633268" data-name="Trazado 633268" d="M-111.572,40.482a2.038,2.038,0,0,1-2.079,1.947,1.992,1.992,0,0,1-1.864-2.008,1.935,1.935,0,0,1,2.057-1.918A1.982,1.982,0,0,1-111.572,40.482Z" transform="translate(-213.388 -36.817)" fill="#010202"/>
      <path id="Trazado_633269" data-name="Trazado 633269" d="M-152.077,23.11a2.053,2.053,0,0,1-2.014,2.013,1.993,1.993,0,0,1-1.927-1.946,1.93,1.93,0,0,1,1.994-1.976A1.97,1.97,0,0,1-152.077,23.11Z" transform="translate(-187.146 -25.607)" fill="#020202"/>
      <path id="Trazado_633270" data-name="Trazado 633270" d="M-138.575,23.135a2.049,2.049,0,0,1-2.038,1.988,1.983,1.983,0,0,1-1.9-1.968A1.926,1.926,0,0,1-140.5,21.2,1.965,1.965,0,0,1-138.575,23.135Z" transform="translate(-195.894 -25.609)" fill="#020202"/>
      <path id="Trazado_633271" data-name="Trazado 633271" d="M-111.574,23.18a2.047,2.047,0,0,1-2.081,1.941,1.986,1.986,0,0,1-1.86-2.006,1.925,1.925,0,0,1,2.059-1.907A1.966,1.966,0,0,1-111.574,23.18Z" transform="translate(-213.388 -25.611)" fill="#020202"/>
      <path id="Trazado_633272" data-name="Trazado 633272" d="M-125.074,23.17a2.044,2.044,0,0,1-2.072,1.952,1.985,1.985,0,0,1-1.87-2,1.924,1.924,0,0,1,2.05-1.916A1.965,1.965,0,0,1-125.074,23.17Z" transform="translate(-204.641 -25.61)" fill="#020202"/>
      <path id="Trazado_633273" data-name="Trazado 633273" d="M-125.424,250.91c-1.012,0-2.026.04-3.035-.011a1.91,1.91,0,0,1-1.957-1.9,1.785,1.785,0,0,1,1.755-1.943c2.193-.088,4.4-.087,6.588.017a1.712,1.712,0,0,1,1.669,1.988,1.772,1.772,0,0,1-1.854,1.829c-1.053.055-2.111.012-3.167.012Z" transform="translate(-203.734 -171.901)" fill="#010101"/>
      <path id="Trazado_633274" data-name="Trazado 633274" d="M-175.321,246.666c0,.439.027.881-.005,1.317a1.928,1.928,0,0,1-1.946,1.909,1.906,1.906,0,0,1-1.983-1.872,20.175,20.175,0,0,1,0-2.764,1.891,1.891,0,0,1,2.01-1.837,1.9,1.9,0,0,1,1.918,1.929C-175.3,245.786-175.321,246.227-175.321,246.666Z" transform="translate(-172.061 -169.583)"/>
      <path id="Trazado_633275" data-name="Trazado 633275" d="M-190.253,246.683c0,.439.023.88-.006,1.317a1.811,1.811,0,0,1-1.81,1.881,1.875,1.875,0,0,1-2.095-1.739,16.079,16.079,0,0,1-.01-2.894,1.906,1.906,0,0,1,2.027-1.827,1.865,1.865,0,0,1,1.89,1.945C-190.229,245.8-190.252,246.244-190.253,246.683Z" transform="translate(-162.386 -169.584)" fill="#000001"/>
      <path id="Trazado_633276" data-name="Trazado 633276" d="M-205.762,249.586c-2.166.849-3.3.1-3.346-2.209q-.013-.655,0-1.312c.048-2.283,1.244-3.063,3.355-2.191A6.017,6.017,0,0,1-205.762,249.586Z" transform="translate(-152.746 -169.653)" fill="#000101"/>
      <path id="Trazado_633277" data-name="Trazado 633277" d="M-158.558,251.149a1.965,1.965,0,0,1-1.981-1.874,1.885,1.885,0,0,1,1.917-2.031,1.978,1.978,0,0,1,2.017,1.834A2.049,2.049,0,0,1-158.558,251.149Z" transform="translate(-184.216 -172.061)" fill="#010101"/>
      <path id="Trazado_633278" data-name="Trazado 633278" d="M-143.724,250.911A1.855,1.855,0,0,1-145.616,249a1.928,1.928,0,0,1,1.983-1.982,2.051,2.051,0,0,1,1.938,1.945A1.968,1.968,0,0,1-143.724,250.911Z" transform="translate(-193.886 -171.913)" fill="#010101"/>
      <path id="Trazado_633279" data-name="Trazado 633279" d="M-309.8,250.885c-1.007,0-2.017.048-3.02-.013a1.945,1.945,0,0,1-1.942-1.912,1.929,1.929,0,0,1,1.889-1.968c2.1-.07,4.2-.072,6.3,0a1.83,1.83,0,0,1,1.843,1.977,1.89,1.89,0,0,1-1.921,1.912,2.618,2.618,0,0,1-.262.016q-1.445,0-2.89,0Z" transform="translate(-84.293 -171.865)" fill="#000101"/>
      <path id="Trazado_633280" data-name="Trazado 633280" d="M-359.675,246.643c0,.48.034.963-.007,1.439a1.776,1.776,0,0,1-1.745,1.782,1.75,1.75,0,0,1-2.085-1.541,12.77,12.77,0,0,1-.032-3.256,1.8,1.8,0,0,1,2-1.674,1.864,1.864,0,0,1,1.877,1.94c.029.435,0,.873,0,1.309Z" transform="translate(-52.633 -169.567)" fill="#000101"/>
      <path id="Trazado_633281" data-name="Trazado 633281" d="M-374.378,246.624a15.386,15.386,0,0,1-.1,1.7,1.747,1.747,0,0,1-1.813,1.56,1.661,1.661,0,0,1-1.924-1.4,15.33,15.33,0,0,1-.011-3.638,1.667,1.667,0,0,1,1.9-1.439,1.749,1.749,0,0,1,1.844,1.526A13.666,13.666,0,0,1-374.378,246.624Z" transform="translate(-43.11 -169.573)" fill="#000101"/>
      <path id="Trazado_633282" data-name="Trazado 633282" d="M-389.985,249.582c-2.1.818-3.21.076-3.237-2.175q-.008-.725,0-1.449c.027-2.247,1.145-2.988,3.243-2.153A5.76,5.76,0,0,1-389.985,249.582Z" transform="translate(-33.459 -169.618)" fill="#000101"/>
      <path id="Trazado_633283" data-name="Trazado 633283" d="M-340.99,249.138A1.979,1.979,0,0,1-343,251.13a2.03,2.03,0,0,1-1.936-1.952,1.963,1.963,0,0,1,2.025-1.962A1.917,1.917,0,0,1-340.99,249.138Z" transform="translate(-64.749 -172.044)" fill="#000202"/>
      <path id="Trazado_633284" data-name="Trazado 633284" d="M-326.061,248.981a1.959,1.959,0,0,1-1.892,1.962A1.928,1.928,0,0,1-330,249.023a1.953,1.953,0,0,1,1.877-1.976A1.99,1.99,0,0,1-326.061,248.981Z" transform="translate(-74.42 -171.933)" fill="#000202"/>
      <path id="Trazado_633285" data-name="Trazado 633285" d="M-399.615,80.5c-2.017,0-4.035.015-6.052-.011-1.555-.02-2.4-.756-2.4-2.006,0-1.266.815-1.928,2.422-1.939,2.018-.014,4.035-.007,6.052-.01a2.019,2.019,0,0,1,1.556,1.983A2.154,2.154,0,0,1-399.615,80.5Z" transform="translate(-23.844 -61.459)" fill="#000101"/>
      <path id="Trazado_633286" data-name="Trazado 633286" d="M-327.1,76.093c0-.437-.021-.876.006-1.311a1.824,1.824,0,0,1,1.782-1.9,1.863,1.863,0,0,1,2.117,1.693,15.9,15.9,0,0,1,.013,3.011,1.957,1.957,0,0,1-2.057,1.8A1.942,1.942,0,0,1-327.1,77.4C-327.124,76.968-327.1,76.53-327.1,76.093Z" transform="translate(-76.295 -59.086)" fill="#010101"/>
      <path id="Trazado_633287" data-name="Trazado 633287" d="M-338.125,76.112a9.3,9.3,0,0,1-.015,1.57,1.855,1.855,0,0,1-2,1.692,1.82,1.82,0,0,1-1.893-1.8,22.309,22.309,0,0,1-.012-2.753,1.9,1.9,0,0,1,1.888-1.944,1.932,1.932,0,0,1,2.05,1.928c.035.434.006.874.006,1.312Z" transform="translate(-66.593 -59.085)" fill="#000101"/>
      <path id="Trazado_633288" data-name="Trazado 633288" d="M-312.191,76.122c0-.48-.034-.964.008-1.44a1.774,1.774,0,0,1,1.746-1.782,1.729,1.729,0,0,1,2.075,1.545,14.165,14.165,0,0,1,0,3.386,1.73,1.73,0,0,1-1.959,1.552,1.8,1.8,0,0,1-1.863-1.82C-312.221,77.085-312.192,76.6-312.191,76.122Z" transform="translate(-85.953 -59.096)" fill="#010101"/>
      <path id="Trazado_633289" data-name="Trazado 633289" d="M-293.4,76.14a15.491,15.491,0,0,1-.108,1.7,1.771,1.771,0,0,1-1.836,1.552,1.688,1.688,0,0,1-1.907-1.443,15.439,15.439,0,0,1-.029-3.515,1.7,1.7,0,0,1,1.951-1.537,1.761,1.761,0,0,1,1.844,1.677,12.456,12.456,0,0,1,.011,1.568Z" transform="translate(-95.569 -59.098)" fill="#010101"/>
      <path id="Trazado_633290" data-name="Trazado 633290" d="M-373.539,76.585a1.879,1.879,0,0,1,1.947,1.874,1.961,1.961,0,0,1-1.944,2.045,2.038,2.038,0,0,1-1.982-2.042A1.962,1.962,0,0,1-373.539,76.585Z" transform="translate(-44.931 -61.491)" fill="#010202"/>
      <path id="Trazado_633291" data-name="Trazado 633291" d="M-356.708,78.419a1.921,1.921,0,0,1-2.063,1.9,1.986,1.986,0,0,1-1.877-1.987,2,2,0,0,1,1.96-1.912A1.929,1.929,0,0,1-356.708,78.419Z" transform="translate(-54.566 -61.387)" fill="#010202"/>
      <path id="Trazado_633292" data-name="Trazado 633292" d="M-309.7,208.468c1.007,0,2.016-.036,3.021.007a1.887,1.887,0,0,1,1.94,1.889,1.866,1.866,0,0,1-1.811,2.015c-2.143.07-4.292.08-6.434-.01a1.846,1.846,0,0,1-1.773-1.94,1.915,1.915,0,0,1,1.9-1.949C-311.805,208.427-310.752,208.47-309.7,208.468Z" transform="translate(-84.296 -146.929)"/>
      <path id="Trazado_633293" data-name="Trazado 633293" d="M-359.551,208.108c0,.481.034.964-.007,1.441a1.827,1.827,0,0,1-1.776,1.782,1.653,1.653,0,0,1-1.965-1.353,14.431,14.431,0,0,1-.025-3.755,1.659,1.659,0,0,1,1.929-1.405,1.81,1.81,0,0,1,1.828,1.72,14.146,14.146,0,0,1,.01,1.571Z" transform="translate(-52.761 -144.57)" fill="#010101"/>
      <path id="Trazado_633294" data-name="Trazado 633294" d="M-389.92,210.979c-1.907.944-3.2.179-3.237-1.916-.009-.569-.007-1.139,0-1.708.023-2.144,1.118-2.887,3.165-2.15A5.582,5.582,0,0,1-389.92,210.979Z" transform="translate(-33.5 -144.646)" fill="#010101"/>
      <path id="Trazado_633295" data-name="Trazado 633295" d="M-374.513,208.182c0,.436.03.875-.006,1.308a1.818,1.818,0,0,1-1.857,1.829,1.775,1.775,0,0,1-1.982-1.685,15.384,15.384,0,0,1,0-3.126,1.809,1.809,0,0,1,1.966-1.711,1.893,1.893,0,0,1,1.883,1.945c.035.477.006.959.006,1.439Z" transform="translate(-43.039 -144.56)" fill="#010101"/>
      <path id="Trazado_633296" data-name="Trazado 633296" d="M-342.925,208.565a1.994,1.994,0,0,1,1.931,2.072,1.957,1.957,0,0,1-1.991,1.862,1.985,1.985,0,0,1-1.946-2.054A2.027,2.027,0,0,1-342.925,208.565Z" transform="translate(-64.747 -147.002)" fill="#010101"/>
      <path id="Trazado_633297" data-name="Trazado 633297" d="M-328.012,212.432a1.991,1.991,0,0,1-1.99-1.88,1.979,1.979,0,0,1,1.939-2.056,2,2,0,0,1,2,1.873A2.008,2.008,0,0,1-328.012,212.432Z" transform="translate(-74.42 -146.956)" fill="#010101"/>
      <path id="Trazado_633298" data-name="Trazado 633298" d="M-399.57,118.908c-2.062,0-4.124,0-6.186-.018-1.452-.013-2.3-.75-2.29-1.949s.85-1.975,2.279-1.993c2.062-.027,4.124-.014,6.186-.018.889.406,1.756,1.025,1.5,2.039C-398.264,117.693-399.052,118.267-399.57,118.908Z" transform="translate(-23.857 -86.334)"/>
      <path id="Trazado_633299" data-name="Trazado 633299" d="M-342.015,114.581a11.842,11.842,0,0,1,.01-1.441,1.859,1.859,0,0,1,1.915-1.793,1.822,1.822,0,0,1,1.976,1.719,16.5,16.5,0,0,1,.028,2.881,1.951,1.951,0,0,1-1.928,1.931,1.967,1.967,0,0,1-2-1.986c-.029-.436,0-.874,0-1.312Z" transform="translate(-66.626 -84.013)" fill="#000001"/>
      <path id="Trazado_633300" data-name="Trazado 633300" d="M-327.085,114.643c0-.481-.029-.963.008-1.441a1.839,1.839,0,0,1,1.847-1.852,1.751,1.751,0,0,1,1.979,1.541,12.768,12.768,0,0,1,.023,3.386,1.765,1.765,0,0,1-2.07,1.579,1.831,1.831,0,0,1-1.785-1.9C-327.108,115.518-327.087,115.08-327.085,114.643Z" transform="translate(-76.305 -84.012)" fill="#010101"/>
      <path id="Trazado_633301" data-name="Trazado 633301" d="M-312.171,114.592c0-.48-.028-.963.006-1.44a1.8,1.8,0,0,1,1.756-1.794,1.777,1.777,0,0,1,2.068,1.585,13.2,13.2,0,0,1,.023,3.255,1.83,1.83,0,0,1-2.134,1.662,1.852,1.852,0,0,1-1.727-1.959c-.014-.436,0-.873,0-1.31Z" transform="translate(-85.965 -84.014)" fill="#010101"/>
      <path id="Trazado_633302" data-name="Trazado 633302" d="M-293.481,114.734c0,.436.033.875,0,1.308a1.8,1.8,0,0,1-1.845,1.829,1.706,1.706,0,0,1-1.953-1.539,15.174,15.174,0,0,1-.014-3.38,1.738,1.738,0,0,1,1.928-1.591,1.811,1.811,0,0,1,1.881,1.8C-293.446,113.684-293.483,114.211-293.481,114.734Z" transform="translate(-95.554 -84.022)" fill="#010101"/>
      <path id="Trazado_633303" data-name="Trazado 633303" d="M-356.714,116.854a1.981,1.981,0,0,1-1.987,2.013,2.029,2.029,0,0,1-1.954-1.934,2.008,2.008,0,0,1,2.009-2A1.961,1.961,0,0,1-356.714,116.854Z" transform="translate(-54.561 -86.335)" fill="#010101"/>
      <path id="Trazado_633304" data-name="Trazado 633304" d="M-373.585,118.937a1.983,1.983,0,0,1-1.941-2.056A2.068,2.068,0,0,1-373.509,115a1.97,1.97,0,0,1,1.9,2.079A1.923,1.923,0,0,1-373.585,118.937Z" transform="translate(-44.924 -86.383)" fill="#010202"/>
      <path id="Trazado_633305" data-name="Trazado 633305" d="M-176.394,133.671q-10.992-.008-21.984-.011c-2.6,0-3.373-.733-3.374-3.338q0-4.467,0-8.934c0-2.792.62-3.441,3.443-3.607l20.586.045c2.544.006,3.4.853,3.4,3.39,0,3.161,0,6.323,0,9.484A2.728,2.728,0,0,1-176.394,133.671Zm-15.322-4.006h13.357v-7.84h-19.352v7.84Z" transform="translate(-157.515 -88.183)"/>
      <path id="Trazado_633306" data-name="Trazado 633306" d="M-223.86,76.691a14.912,14.912,0,0,1,.081-1.565,1.743,1.743,0,0,1,1.784-1.593,1.7,1.7,0,0,1,1.987,1.49,14.983,14.983,0,0,1,.024,3.382A1.726,1.726,0,0,1-222.015,80,1.756,1.756,0,0,1-223.8,78.26c-.05-.518-.009-1.045-.009-1.568Z" transform="translate(-143.191 -59.512)" fill="#010101"/>
      <path id="Trazado_633307" data-name="Trazado 633307" d="M-199.517,286.728v-1.864c2.633,0,5.122.023,7.611-.011.988-.014,1.975-.154,2.963-.236.444-.5,1.108-.933,1.288-1.515.419-1.357-.6-2.39-2.278-2.413-3.191-.043-6.384-.047-9.575-.066v-2.271h35.919V293.3l0,0-34.154-.035H-199.4V290.94c2.427,0,4.829.024,7.231-.011,1.078-.015,2.154-.15,3.232-.23.444-.5,1.111-.928,1.287-1.507.414-1.364-.6-2.356-2.293-2.379C-193.137,286.768-196.327,286.755-199.517,286.728Zm33.519-4.02a2.037,2.037,0,0,0-2.024-2,1.986,1.986,0,0,0-1.92,1.954,1.926,1.926,0,0,0,1.874,1.967A1.964,1.964,0,0,0-166,282.708Zm-6.689-2a1.99,1.99,0,0,0-2.006,1.866,1.929,1.929,0,0,0,1.914,2.058,1.963,1.963,0,0,0,2.025-1.833A2.036,2.036,0,0,0-172.687,280.705Zm-2.817,2a2.037,2.037,0,0,0-2.027-2,1.985,1.985,0,0,0-1.917,1.956,1.926,1.926,0,0,0,1.876,1.965A1.964,1.964,0,0,0-175.5,282.705Zm-4.754.036a2.04,2.04,0,0,0-1.991-2.036,2,2,0,0,0-1.953,1.923,1.93,1.93,0,0,0,1.841,2A1.967,1.967,0,0,0-180.259,282.741Zm0,6.08a2,2,0,0,0-1.882-1.99,1.945,1.945,0,0,0-2.059,1.921,1.916,1.916,0,0,0,1.86,1.975A1.975,1.975,0,0,0-180.259,288.821Zm2.794,1.913a1.984,1.984,0,0,0,1.96-1.9,2,2,0,0,0-2-2.006,1.949,1.949,0,0,0-1.939,1.916A1.93,1.93,0,0,0-177.466,290.733Zm4.753,0a1.984,1.984,0,0,0,1.96-1.9,2,2,0,0,0-2-2.006,1.949,1.949,0,0,0-1.939,1.916A1.93,1.93,0,0,0-172.713,290.733Zm6.713-1.971a2,2,0,0,0-2.071-1.931,1.937,1.937,0,0,0-1.871,1.978,1.921,1.921,0,0,0,2.049,1.918A1.966,1.966,0,0,0-166,288.763Z" transform="translate(-158.963 -192.216)" fill="#b5c3ce"/>
      <path id="Trazado_633308" data-name="Trazado 633308" d="M-213.65,284.8c3.192.02,6.384.024,9.575.067,1.674.022,2.7,1.055,2.278,2.413-.18.582-.844,1.014-1.288,1.515-5.313.006-10.627.02-15.94.013-1.6,0-2.558-.994-2.266-2.327a2.037,2.037,0,0,1,2.244-1.618C-217.248,284.836-215.449,284.822-213.65,284.8Z" transform="translate(-144.823 -196.396)"/>
      <path id="Trazado_633309" data-name="Trazado 633309" d="M-213.623,302.142c3.19.027,6.38.04,9.57.085,1.7.024,2.706,1.015,2.293,2.379-.175.579-.843,1.009-1.287,1.507-5.268.019-10.535.048-15.8.05-1.6,0-2.428-.7-2.438-1.946s.823-1.96,2.4-2C-217.13,302.18-215.376,302.167-213.623,302.142Z" transform="translate(-144.858 -207.63)"/>
      <path id="Trazado_633310" data-name="Trazado 633310" d="M-199.475,202.763c-.021-1.795-.021-1.8,1.737-1.8,10.906,0,21.811.019,32.717-.027,1.177,0,1.511.321,1.464,1.478-.09,2.235-.041,4.476-.018,6.714.007.673-.117,1.057-.928,1.055q-17.216-.033-34.432-.029a2.736,2.736,0,0,1-.543-.16v-1.627A5.974,5.974,0,0,0-199.475,202.763Zm29.305.834c-.965,0-1.931-.023-2.9.006a1.993,1.993,0,0,0-2.108,1.89,1.986,1.986,0,0,0,2.1,2.044c1.929.041,3.861.036,5.791,0a1.968,1.968,0,0,0,2.157-1.968,1.958,1.958,0,0,0-2.144-1.97C-168.239,203.577-169.2,203.6-170.17,203.6Zm-18.223,1.986c0-.438.024-.878,0-1.314a1.979,1.979,0,0,0-1.884-1.98,1.961,1.961,0,0,0-2.053,1.944,23.106,23.106,0,0,0,0,2.627,1.982,1.982,0,0,0,2.018,1.989A1.988,1.988,0,0,0-188.4,206.9C-188.368,206.461-188.395,206.021-188.393,205.583Zm-5.256-.02c0-.438.024-.877,0-1.313a1.926,1.926,0,0,0-1.889-1.954,1.844,1.844,0,0,0-2,1.7,12.783,12.783,0,0,0,0,3.142,1.853,1.853,0,0,0,2,1.7,1.941,1.941,0,0,0,1.886-1.962C-193.625,206.44-193.648,206-193.649,205.563Zm9.868-1.941a1.988,1.988,0,0,0-1.99,1.882,1.939,1.939,0,0,0,1.922,2.058,1.992,1.992,0,0,0,2.015-1.858A2.042,2.042,0,0,0-183.781,203.621Zm5.2,3.916a2.028,2.028,0,0,0,1.99-2.032,2,2,0,0,0-1.976-1.907,1.941,1.941,0,0,0-1.956,2.025A1.949,1.949,0,0,0-178.583,207.537Z" transform="translate(-158.988 -142.061)" fill="#e7ecf1"/>
      <path id="Trazado_633311" data-name="Trazado 633311" d="M-205.672,205.329a5.974,5.974,0,0,1,0,5.609c-2,.988-3.316.2-3.36-2.027q-.016-.782,0-1.565C-208.992,205.119-207.668,204.326-205.672,205.329Z" transform="translate(-152.791 -144.627)" fill="#010101"/>
      <path id="Trazado_633312" data-name="Trazado 633312" d="M-223.881,208.011a13.815,13.815,0,0,1,.086-1.569,1.8,1.8,0,0,1,1.9-1.628,1.7,1.7,0,0,1,1.868,1.5,16.075,16.075,0,0,1,.062,3.264,1.83,1.83,0,0,1-1.924,1.772,1.916,1.916,0,0,1-1.947-1.895c-.044-.477-.007-.961-.007-1.441Z" transform="translate(-143.178 -144.571)" fill="#010101"/>
      <path id="Trazado_633313" data-name="Trazado 633313" d="M-408.079,207.94c0-.35-.011-.7,0-1.049a2,2,0,0,1,1.866-2.119,1.978,1.978,0,0,1,2.063,1.942,16.925,16.925,0,0,1,.015,2.489,2.027,2.027,0,0,1-2.031,2.125,2.019,2.019,0,0,1-1.915-2.208C-408.089,208.727-408.079,208.333-408.079,207.94Z" transform="translate(-23.833 -144.542)" fill="#000101"/>
      <path id="Trazado_633314" data-name="Trazado 633314" d="M-408.09,246.579c0-.436-.024-.874,0-1.309a1.8,1.8,0,0,1,1.817-1.857,1.771,1.771,0,0,1,2.046,1.6,12.25,12.25,0,0,1,0,3.258,1.766,1.766,0,0,1-2.047,1.6,1.8,1.8,0,0,1-1.815-1.856C-408.12,247.541-408.091,247.059-408.09,246.579Z" transform="translate(-23.821 -169.575)" fill="#000101"/>
      <path id="Trazado_633315" data-name="Trazado 633315" d="M-219.695,246.764a15.2,15.2,0,0,1-.224,1.738,1.725,1.725,0,0,1-2.066,1.393,1.674,1.674,0,0,1-1.69-1.681c-.047-.962-.039-1.928-.015-2.892a1.7,1.7,0,0,1,1.672-1.833,1.8,1.8,0,0,1,2.147,1.621C-219.77,245.623-219.757,246.152-219.695,246.764Z" transform="translate(-143.289 -169.618)" fill="#010101"/>
      <path id="Trazado_633316" data-name="Trazado 633316" d="M-173.246,129.264h13.356v7.84h-13.357Z" transform="translate(-175.984 -95.622)" fill="#01cffa"/>
      <path id="Trazado_633317" data-name="Trazado 633317" d="M-184.277,129.264q0,3.92,0,7.84h-5.995v-7.84Z" transform="translate(-164.953 -95.622)" fill="#01bff9"/>
      <path id="Trazado_633318" data-name="Trazado 633318" d="M-111.577,287.042a1.964,1.964,0,0,1-2.07,1.919,1.926,1.926,0,0,1-1.874-1.967,1.986,1.986,0,0,1,1.92-1.954A2.037,2.037,0,0,1-111.577,287.042Z" transform="translate(-213.384 -196.55)" fill="#020202"/>
      <path id="Trazado_633319" data-name="Trazado 633319" d="M-127.015,285.037a2.036,2.036,0,0,1,1.933,2.091,1.963,1.963,0,0,1-2.025,1.833,1.929,1.929,0,0,1-1.914-2.058A1.99,1.99,0,0,1-127.015,285.037Z" transform="translate(-204.636 -196.547)" fill="#020202"/>
      <path id="Trazado_633320" data-name="Trazado 633320" d="M-138.577,287.039a1.964,1.964,0,0,1-2.068,1.922A1.926,1.926,0,0,1-142.521,287a1.985,1.985,0,0,1,1.917-1.956A2.037,2.037,0,0,1-138.577,287.039Z" transform="translate(-195.891 -196.55)" fill="#020202"/>
      <path id="Trazado_633321" data-name="Trazado 633321" d="M-152.081,287.071a1.967,1.967,0,0,1-2.1,1.885,1.93,1.93,0,0,1-1.841-2,2,2,0,0,1,1.953-1.923A2.04,2.04,0,0,1-152.081,287.071Z" transform="translate(-187.142 -196.547)" fill="#020202"/>
      <path id="Trazado_633322" data-name="Trazado 633322" d="M-152.076,304.419a1.975,1.975,0,0,1-2.081,1.905,1.916,1.916,0,0,1-1.86-1.975,1.945,1.945,0,0,1,2.059-1.921A2,2,0,0,1-152.076,304.419Z" transform="translate(-187.147 -207.814)" fill="#020202"/>
      <path id="Trazado_633323" data-name="Trazado 633323" d="M-140.536,306.325a1.93,1.93,0,0,1-1.981-1.992,1.949,1.949,0,0,1,1.939-1.916,2,2,0,0,1,2,2.006A1.984,1.984,0,0,1-140.536,306.325Z" transform="translate(-195.894 -207.808)" fill="#020202"/>
      <path id="Trazado_633324" data-name="Trazado 633324" d="M-127.036,306.325a1.93,1.93,0,0,1-1.981-1.992,1.949,1.949,0,0,1,1.939-1.916,2,2,0,0,1,2,2.006A1.984,1.984,0,0,1-127.036,306.325Z" transform="translate(-204.64 -207.808)" fill="#020202"/>
      <path id="Trazado_633325" data-name="Trazado 633325" d="M-111.575,304.363a1.966,1.966,0,0,1-1.892,1.965,1.921,1.921,0,0,1-2.049-1.918,1.937,1.937,0,0,1,1.871-1.978A2,2,0,0,1-111.575,304.363Z" transform="translate(-213.388 -207.817)" fill="#020202"/>
      <path id="Trazado_633326" data-name="Trazado 633326" d="M-125.448,208.469c.965,0,1.931-.019,2.9,0a1.958,1.958,0,0,1,2.144,1.97,1.968,1.968,0,0,1-2.157,1.968c-1.93.032-3.861.037-5.791,0a1.986,1.986,0,0,1-2.1-2.044,1.993,1.993,0,0,1,2.108-1.89C-127.379,208.447-126.413,208.469-125.448,208.469Z" transform="translate(-203.71 -146.934)"/>
      <path id="Trazado_633327" data-name="Trazado 633327" d="M-175.317,208.061c0,.438.026.878-.006,1.314a1.988,1.988,0,0,1-1.919,1.952,1.982,1.982,0,0,1-2.018-1.989,23.1,23.1,0,0,1,0-2.627,1.961,1.961,0,0,1,2.053-1.944,1.979,1.979,0,0,1,1.884,1.98C-175.292,207.183-175.316,207.623-175.317,208.061Z" transform="translate(-172.064 -144.539)" fill="#010101"/>
      <path id="Trazado_633328" data-name="Trazado 633328" d="M-190.261,208.057c0,.438.024.877,0,1.313a1.94,1.94,0,0,1-1.886,1.962,1.853,1.853,0,0,1-2-1.7,12.783,12.783,0,0,1,0-3.142,1.844,1.844,0,0,1,2-1.7,1.926,1.926,0,0,1,1.889,1.954C-190.238,207.18-190.262,207.62-190.261,208.057Z" transform="translate(-162.375 -144.556)" fill="#010101"/>
      <path id="Trazado_633329" data-name="Trazado 633329" d="M-158.559,208.555a2.042,2.042,0,0,1,1.947,2.082,1.992,1.992,0,0,1-2.015,1.858,1.939,1.939,0,0,1-1.922-2.058A1.988,1.988,0,0,1-158.559,208.555Z" transform="translate(-184.21 -146.995)" fill="#020202"/>
      <path id="Trazado_633330" data-name="Trazado 633330" d="M-143.7,212.428a1.949,1.949,0,0,1-1.941-1.915,1.941,1.941,0,0,1,1.956-2.025,2,2,0,0,1,1.976,1.907A2.028,2.028,0,0,1-143.7,212.428Z" transform="translate(-193.866 -146.952)" fill="#030303"/>
    </g>
  </g>
</svg>
