<svg xmlns="http://www.w3.org/2000/svg" width="230" height="230" viewBox="0 0 230 230">
  <g id="Grupo_906806" data-name="Grupo 906806" transform="translate(-1105.521 -929)">
    <circle id="Elipse_6747" data-name="Elipse 6747" cx="115" cy="115" r="115" transform="translate(1105.521 929)" fill="#fff"/>
    <g id="Grupo_904687" data-name="Grupo 904687" transform="translate(1094.598 967.262)">
      <path id="Trazado_633344" data-name="Trazado 633344" d="M330.429,114.774c-1.228,1.889-3.006,2.263-5.163,2.246-10.464-.084-20.93-.038-31.395-.038h-1.8c.858,3.86,1.671,7.625,2.568,11.368.074.307.708.653,1.1.678,1.335.084,2.68,0,4.019.041a3.4,3.4,0,0,1,3.6,3.443c.094,2.058.089,4.126,0,6.184a3.388,3.388,0,0,1-3.4,3.491c-.46.044-.927.025-1.391.025q-19.8,0-39.592,0c-3.715,0-4.732-1.034-4.734-4.8,0-1.5-.017-2.991,0-4.485.037-2.58,1.325-3.839,3.944-3.865,1.492-.015,2.985,0,4.62,0l2.728-12.078h-1.731q-16.007,0-32.014,0c-3.495,0-4.658-1.146-4.658-4.59q0-30.779,0-61.558c0-3.382,1.149-4.517,4.572-4.517q47.093,0,94.186-.032c2.126,0,3.644.63,4.531,2.587Zm-44.593,16.4c.5-2.2,2.256-2.222,4.165-2.128-.848-3.743-1.7-7.278-2.424-10.84-.217-1.073-.7-1.261-1.664-1.251-4.117.045-8.235.019-12.353.019-3.235,0-3.25,0-3.971,3.16-.665,2.921-1.3,5.85-1.971,8.912,3.153,0,6.082.036,9.01-.015,1.6-.028,2.7.51,3.1,2.141-.382,2.012-.953,2.51-3.007,2.515q-8.037.017-16.075,0h-1.676v3.751h39.683V133.7c-3.343,0-6.579.01-9.814,0C286.784,133.685,286.21,133.187,285.836,131.179ZM315.57,51.041c-.256-.02-.512-.058-.768-.058q-40.889,0-81.777,0c-.387,0-.775.075-1.225.121v1.638q0,27.132,0,54.264c0,.514.038,1.027.058,1.542v3.7h93.832V51.041Z" transform="translate(-123.026 -12.913)" fill="#040505"/>
      <path id="Trazado_633345" data-name="Trazado 633345" d="M49,33.792c.266-.532.525-1.068.8-1.6a7.645,7.645,0,0,1,7-4.558q17.477-.109,34.956-.01A7.9,7.9,0,0,1,99.5,34.836c.06.614.076,1.235.076,1.853q.006,41.765,0,83.53c0,4.522-1.993,7.588-5.749,8.661a13.031,13.031,0,0,1-3.51.4c-10.672.029-21.345-.019-32.017.035-4.33.022-7.471-1.595-8.99-5.823-.042-.116-.206-.189-.313-.282Zm31.251,77.941c2.627.016,5.254.047,7.881.046,4.448,0,6.765-2.3,6.766-6.761q.011-34.244,0-68.489c0-.257,0-.516-.01-.773a3.365,3.365,0,0,0-3.519-3.5c-2.163-.039-4.327.018-6.49.032Q71.439,32.267,58,32.243c-3.17,0-4.359,1.2-4.359,4.391q0,19.087,0,38.174,0,15.3,0,30.6a6.025,6.025,0,0,0,4.859,6.265,19.452,19.452,0,0,0,2.927.116c1.773.05,2.44.628,2.781,2.422-.27,1.594-1.247,2.177-2.822,2.225a13.078,13.078,0,0,1-7.757-1.85c0,.72,0,1.13,0,1.54,0,1.649-.028,3.3.019,4.947.06,2.061,1.274,3.512,3.335,3.524,11.542.066,23.084.049,34.626.012a2.855,2.855,0,0,0,3.078-2.336,72,72,0,0,0,.072-7.6,12.54,12.54,0,0,1-7.505,1.767q-6.955-.1-13.912-.01a2.615,2.615,0,0,1-2.992-2.241c.486-1.9,1.074-2.379,2.976-2.4C75.634,111.768,77.943,111.752,80.251,111.733Z" fill="#020203"/>
      <path id="Trazado_633346" data-name="Trazado 633346" d="M242.267,119.035c-.02-.514-.058-1.027-.058-1.541q0-27.132,0-54.264V61.591c.45-.046.838-.121,1.225-.121q40.889-.008,81.777,0c.256,0,.512.038.768.058q.005,1.716.01,3.432c-.616.025-1.232.073-1.848.073q-36.885.006-73.77,0c-3.664,0-4.52.869-4.52,4.581q0,20.88,0,41.76c0,3.508.89,4.416,4.346,4.417q13.532,0,27.064,0,19.254.012,38.507.034a6.182,6.182,0,0,1-.936.743,21.121,21.121,0,0,1-9.772,2.445C284.127,119.074,263.2,119.039,242.267,119.035Z" transform="translate(-133.432 -23.398)" fill="#fdfdfd"/>
      <path id="Trazado_633347" data-name="Trazado 633347" d="M326.122,65.093q0-1.716-.01-3.432h10.124v61.211H242.4v-3.7c20.93,0,41.86.039,62.79-.018a21.121,21.121,0,0,0,9.772-2.445,6.183,6.183,0,0,0,.936-.743c4.37-.02,8.741-.028,13.111-.065,2.586-.022,3.635-1.087,3.637-3.682.009-8.694-.017-17.388.022-26.082.007-1.628-.559-2.667-2.2-3q-.008-3-.016-6c1.737-.523,2.347-1.7,2.223-3.478-.114-1.63-.011-3.275-.028-4.913-.024-2.352-1.1-3.449-3.47-3.547C328.161,65.154,327.141,65.127,326.122,65.093Zm-4.363,54.388a2.382,2.382,0,0,0-2.323-2.4,2.342,2.342,0,0,0-2.293,2.251,2.279,2.279,0,0,0,2.149,2.361A2.316,2.316,0,0,0,321.76,119.481Zm5.5-2.395A2.385,2.385,0,0,0,325,119.538a2.3,2.3,0,0,0,2.36,2.16,2.239,2.239,0,0,0,2.225-2.417A2.314,2.314,0,0,0,327.258,117.086Z" transform="translate(-133.569 -23.533)" fill="#b8e1ea"/>
      <path id="Trazado_633348" data-name="Trazado 633348" d="M370.092,288.947c-.4-1.631-1.5-2.169-3.1-2.141-2.928.051-5.857.015-9.01.015.676-3.062,1.306-5.991,1.971-8.912.721-3.163.735-3.16,3.971-3.16,4.118,0,8.236.026,12.353-.019.963-.01,1.447.178,1.664,1.251.72,3.562,1.575,7.1,2.424,10.84-1.909-.095-3.666-.073-4.165,2.128Z" transform="translate(-213.389 -170.681)" fill="#4071c9"/>
      <path id="Trazado_633349" data-name="Trazado 633349" d="M350.787,320.686h6.107c.374,2.008.949,2.506,3,2.515,3.235.014,6.47,0,9.813,0v3.751H330.029V323.2h1.677q8.038,0,16.075,0C349.834,323.2,350.4,322.7,350.787,320.686Z" transform="translate(-194.084 -202.421)" fill="#6489cd"/>
      <path id="Trazado_633350" data-name="Trazado 633350" d="M74.552,124.606c-.341-1.794-1.008-2.373-2.781-2.422a19.456,19.456,0,0,1-2.927-.116,6.025,6.025,0,0,1-4.859-6.265q-.017-15.3,0-30.6,0-19.087,0-38.174c0-3.193,1.189-4.4,4.359-4.391q13.443.018,26.886.05,0,2.771.008,5.543c-.564.025-1.127.072-1.691.073-6.9,0-13.791-.009-20.686.009-2.954.008-4.924,1.712-5.006,4.526-.108,3.7-.1,7.411,0,11.114a4.5,4.5,0,0,0,4.555,4.51c.615.039,1.234.014,1.852.017l20.986.084c0,12.967-.048,25.934.013,38.9a23.646,23.646,0,0,1-4.66,14.665c-2.309.019-4.617.034-6.926.059-1.9.02-2.49.5-2.976,2.4ZM92.223,87.931a7.6,7.6,0,0,0-7.6-7.714,7.643,7.643,0,1,0,7.6,7.714Zm-7.494,12.517a7.605,7.605,0,1,0,7.5,7.612A7.506,7.506,0,0,0,84.729,100.449Z" transform="translate(-10.345 -10.394)" fill="#6489cd"/>
      <path id="Trazado_633351" data-name="Trazado 633351" d="M150.013,122.137a23.646,23.646,0,0,0,4.66-14.665c-.061-12.967-.015-25.934-.013-38.9.359-.02.718-.047,1.078-.058,3.375-.1,5.1-1.868,5.106-5.245.007-3.4.023-6.806-.007-10.209a4.582,4.582,0,0,0-4.335-4.746c-.614-.058-1.234-.052-1.851-.075q0-2.771-.008-5.543c2.163-.015,4.328-.071,6.49-.032a3.365,3.365,0,0,1,3.519,3.5c.014.257.01.515.01.773q0,34.245,0,68.489c0,4.457-2.318,6.759-6.766,6.761C155.267,122.184,152.64,122.153,150.013,122.137Z" transform="translate(-69.762 -10.404)" fill="#4171ca"/>
      <path id="Trazado_633352" data-name="Trazado 633352" d="M74.524,307.538l6.142-.02a2.615,2.615,0,0,0,2.992,2.24q6.955-.076,13.912.01A12.54,12.54,0,0,0,105.075,308a71.992,71.992,0,0,1-.072,7.6,2.855,2.855,0,0,1-3.078,2.336c-11.542.037-23.084.053-34.626-.012-2.061-.012-3.276-1.462-3.335-3.524-.047-1.648-.016-3.3-.019-4.947,0-.41,0-.82,0-1.54a13.078,13.078,0,0,0,7.757,1.85C73.277,309.715,74.254,309.133,74.524,307.538Zm10.2,3.74v.01c-2.209,0-4.419-.016-6.628.006-1.641.016-2.677.952-2.659,2.34a2.33,2.33,0,0,0,2.578,2.271q6.628.04,13.256,0a2.317,2.317,0,1,0-.072-4.617C89.038,311.259,86.88,311.279,84.721,311.279Z" transform="translate(-10.316 -193.326)" fill="#b8e1ea"/>
      <path id="Trazado_633353" data-name="Trazado 633353" d="M338.464,90.792c1.642.337,2.207,1.376,2.2,3-.039,8.694-.013,17.388-.022,26.082,0,2.594-1.052,3.66-3.637,3.682-4.37.037-8.741.045-13.111.065q-19.253-.018-38.507-.034-13.532-.008-27.064,0c-3.455,0-4.346-.908-4.346-4.417q0-20.88,0-41.76c0-3.712.856-4.581,4.52-4.581q36.885,0,73.77,0c.616,0,1.232-.048,1.848-.073,1.019.034,2.039.06,3.057.1,2.366.1,3.446,1.2,3.47,3.547.017,1.638-.086,3.283.028,4.913.124,1.776-.485,2.955-2.223,3.478-2.155-.8-2.43-1.213-2.432-3.634,0-1.2,0-2.409,0-3.719l-1.916.144c-.358-.028-.716-.082-1.073-.082q-36.581-.006-73.162,0c-.391,0-.782.069-1.144.1v41.31h1.3q34.261,0,68.522,0c.41,0,.821-.045,1.231-.07h6.245v-1.739q0-11.6,0-23.2C336.02,91.868,336.5,91.273,338.464,90.792Z" transform="translate(-141.562 -31.194)" fill="#040505"/>
      <path id="Trazado_633354" data-name="Trazado 633354" d="M507.655,101.259c-1.96.48-2.444,1.076-2.446,3.113q-.01,11.6,0,23.2v1.739h-6.245c2.319-3.266,4.243-6.79,4.3-10.844.145-10.136.035-20.276.028-30.414l1.916-.144c0,1.31,0,2.514,0,3.719,0,2.42.277,2.829,2.432,3.634Q507.647,98.261,507.655,101.259Z" transform="translate(-310.753 -41.661)" fill="#6cc0e5"/>
      <path id="Trazado_633355" data-name="Trazado 633355" d="M488.594,243.2a2.316,2.316,0,0,1-2.468,2.215,2.279,2.279,0,0,1-2.149-2.361,2.342,2.342,0,0,1,2.293-2.251A2.382,2.382,0,0,1,488.594,243.2Z" transform="translate(-300.403 -147.252)" fill="#040505"/>
      <path id="Trazado_633356" data-name="Trazado 633356" d="M511.627,240.809a2.314,2.314,0,0,1,2.327,2.2,2.239,2.239,0,0,1-2.225,2.417,2.3,2.3,0,0,1-2.36-2.16A2.385,2.385,0,0,1,511.627,240.809Z" transform="translate(-317.938 -147.255)" fill="#040505"/>
      <path id="Trazado_633357" data-name="Trazado 633357" d="M103.7,60.714c.617.023,1.237.017,1.851.075a4.582,4.582,0,0,1,4.335,4.746c.03,3.4.014,6.806.007,10.209-.007,3.377-1.731,5.14-5.106,5.245-.36.011-.719.039-1.078.058l-20.986-.084c-.618,0-1.237.023-1.852-.017a4.5,4.5,0,0,1-4.555-4.51c-.1-3.7-.107-7.412,0-11.114.082-2.814,2.053-4.518,5.006-4.526,6.9-.019,13.791,0,20.686-.009C102.576,60.786,103.14,60.739,103.7,60.714Zm-22.73,15.5h24.175V65.534H80.974Z" transform="translate(-18.813 -22.879)" fill="#040505"/>
      <path id="Trazado_633358" data-name="Trazado 633358" d="M121.288,171.82a7.613,7.613,0,1,1-7.6-7.714A7.63,7.63,0,0,1,121.288,171.82Zm-4.641-.08a2.919,2.919,0,0,0-2.883-2.977,3.025,3.025,0,0,0-3.061,2.993,3.081,3.081,0,0,0,2.922,3A2.978,2.978,0,0,0,116.647,171.74Z" transform="translate(-39.409 -94.283)" fill="#020203"/>
      <path id="Trazado_633359" data-name="Trazado 633359" d="M113.792,229.5a7.605,7.605,0,0,1-.2,15.209,7.605,7.605,0,1,1,.2-15.209Zm-.161,4.635a2.961,2.961,0,0,0-2.93,2.937,3.012,3.012,0,0,0,3.048,3,2.942,2.942,0,0,0,2.892-3.112A2.886,2.886,0,0,0,113.631,234.136Z" transform="translate(-39.407 -139.445)" fill="#020203"/>
      <path id="Trazado_633360" data-name="Trazado 633360" d="M110.385,319.658c2.158,0,4.316-.02,6.474.007a2.317,2.317,0,1,1,.072,4.617q-6.628.049-13.256,0a2.33,2.33,0,0,1-2.578-2.271c-.018-1.388,1.018-2.324,2.659-2.34,2.209-.022,4.419-.006,6.628-.006Z" transform="translate(-35.979 -201.706)" fill="#020203"/>
      <path id="Trazado_633361" data-name="Trazado 633361" d="M344.687,88.187c.008,10.138.118,20.278-.028,30.414-.058,4.055-1.983,7.578-4.3,10.844-.41.024-.821.069-1.231.07q-34.261.005-68.522,0h-1.3V88.209c.362-.034.753-.1,1.144-.1q36.581-.008,73.162,0C343.972,88.105,344.33,88.159,344.687,88.187Z" transform="translate(-152.149 -41.793)" fill="#92dbfb"/>
      <path id="Trazado_633362" data-name="Trazado 633362" d="M91.538,86.977V76.294h24.175V86.977Z" transform="translate(-29.378 -33.638)" fill="#b8e1ea"/>
      <path id="Trazado_633363" data-name="Trazado 633363" d="M127,182.136a2.978,2.978,0,0,1-3.022,3.012,3.081,3.081,0,0,1-2.922-3,3.025,3.025,0,0,1,3.061-2.993A2.919,2.919,0,0,1,127,182.136Z" transform="translate(-49.766 -104.679)" fill="#23ccaf"/>
      <path id="Trazado_633364" data-name="Trazado 633364" d="M123.99,244.483A2.886,2.886,0,0,1,127,247.3a2.942,2.942,0,0,1-2.892,3.112,3.012,3.012,0,0,1-3.048-3A2.961,2.961,0,0,1,123.99,244.483Z" transform="translate(-49.766 -149.793)" fill="#e5558f"/>
    </g>
  </g>
</svg>
