<svg xmlns="http://www.w3.org/2000/svg" width="191" height="191" viewBox="0 0 191 191">
  <g id="Grupo_906774" data-name="Grupo 906774" transform="translate(-966.376 -7104)">
    <circle id="Elipse_6505" data-name="Elipse 6505" cx="95.5" cy="95.5" r="95.5" transform="translate(966.376 7104)" fill="#4dd0e1"/>
    <g id="Grupo_901819" data-name="Grupo 901819" transform="translate(1234.556 6963.355)">
      <path id="Trazado_630086" data-name="Trazado 630086" d="M-133.8,167.528a7.414,7.414,0,0,1,.757,2.221c.013,4.455.69,3.883-3.818,4.958q-11.533,2.751-23.057,5.537c-.256.062-.5.162-.815.265v1.529l9.917,2.384c5.38,1.292,10.752,2.62,16.146,3.85a1.832,1.832,0,0,1,1.677,2.2c-.063.964-.007,1.936-.014,2.9-.011,1.678-.6,2.167-2.2,1.785q-7.174-1.719-14.343-3.459-6.083-1.464-12.17-2.911a13.137,13.137,0,0,0-1.381-.173v4.591c.33.1.7.2,1.062.328a7.554,7.554,0,0,1,5.021,4.692,2.959,2.959,0,0,0,2.518,2.229c6.354,1.455,10.39,6.847,10.392,13.617q.011,37.5,0,75c0,3.917.024,7.835-.024,11.751a8.162,8.162,0,0,1-.506,1.933h-47.023a8.881,8.881,0,0,1-.507-2.063q-.043-24.4-.022-48.793v-1.638c-1.648,0-3.254.007-4.861,0-1.708-.01-2-.3-2.006-1.989-.006-2.33.025-4.66-.012-6.989-.02-1.232.517-1.757,1.737-1.751,2.151.01,4.3-.04,6.453-.064.348.031.7.089,1.046.089q17.83.007,35.659,0c.349,0,.7-.054,1.048-.083h6.29a5.272,5.272,0,0,0,.079-.6c0-8.627.031-17.255-.046-25.882a9.91,9.91,0,0,0-.862-3.689c-1.992-4.661-6.167-6.946-11.781-6.6-6.2-.017-12.4-.047-18.6-.047-6.858,0-11.494,4.649-11.5,11.512q-.01,9.959,0,19.918v1.435l-1.322.133-1.258-.14c-.021-.372-.062-.755-.062-1.137q-.006-10.167,0-20.333c.013-7.192,4.364-12.433,11.44-13.855.356-.071.872-.358.95-.644a8.455,8.455,0,0,1,6.617-6.326v-4.449c-1.837-.26-1.837-.26-2.229-3.254a34.4,34.4,0,0,0-14.289,3.591q-17.383,8.9-20.642,28.209a17.736,17.736,0,0,0-.282,2.888c-.022,8.446-.013,16.892-.013,25.284.692.242,1.626.287,1.955.756a4.3,4.3,0,0,1,.364,2.256c.038,2.5.014,5,.014,7.57.456,0,.8.025,1.146,0,1.272-.109,1.8.551,2.009,1.735q2.184,12.128,4.425,24.245c.273,1.494-.168,2.082-1.694,2.1-2.773.031-5.546.01-8.32.01q-7.725,0-15.451,0c-2.353,0-2.634-.327-2.225-2.62.569-3.2,1.149-6.391,1.737-9.651l1.438-.089c.362.431,1.341.306,1.084,1.309-.386,1.506-.7,3.03-1.041,4.547-.128,1.2-.257,2.393-.384,3.577h22.019c-1.233-6.657-2.421-13.17-3.652-19.674-.536-2.835-.576-2.828-3.206-2.643l-1.439-.01c-2.616-.018-5.241.09-7.846-.094-1.942-.137-2.045-.214-2.069,1.694l-.5,2.357a21.472,21.472,0,0,0-.532,2.648c-.085,1.054-.53,1.492-1.57,1.317l-1.3-.525c.561-3.024,1.084-6.085,1.739-9.117.095-.438.778-.866,1.28-1.066a5.035,5.035,0,0,1,1.663-.038c0-2.7,0-5.337,0-7.97,0-2.155.165-2.333,2.377-2.452v-1.416q0-10.63,0-21.26A45.016,45.016,0,0,1-181.3,178.174c1.294-.237,2.623-.279,3.929-.463.97-.137,2.111.154,2.683-1.1.112-.245.691-.312,1.07-.4q18.971-4.218,37.944-8.427a2.858,2.858,0,0,0,.561-.26Zm-33.573,25.584h1.584v-4.454c-1.406,0-2.581.04-3.752-.013-.912-.041-1.036.4-.849,1.128v3.339Zm-50.909,62.074c.162.276.317.788.485.792,2.252.054,4.507.036,6.853.036,0-2.45-.012-4.715.006-6.98.007-.893-.587-.658-1.085-.637h-6.259Zm52.769-69.209h2v-5.443l-2-.279-7.034-1.089v6.811Zm2.357,10.127a2.4,2.4,0,0,0-.738-.264c-2.9-.014-5.809-.143-8.7.048a4.946,4.946,0,0,0-4.392,4.1h17.87C-159.868,197.875-160.989,196.446-163.152,196.1ZM-215.7,245.682h2.389c0-.743,0-1.267,0-1.79.087-8.706.037-17.415.32-26.115a30.823,30.823,0,0,1,3.964-13.27A40.058,40.058,0,0,1-194.4,188.64a35.169,35.169,0,0,1,11.64-4.753c2.435-.475,4.891-.843,7.47-1.282v-1.883c-.334-.164-.693-.507-1-.466-2.512.347-5.051.609-7.513,1.19a40.606,40.606,0,0,0-22.48,14.288,41.275,41.275,0,0,0-9.646,26.414c-.09,7.388-.023,14.778-.008,22.168A8,8,0,0,0-215.7,245.682Zm62.623-3.407q-19.727,0-39.454,0c-1.222,0-2.966-.381-3.528.25-.654.734-.23,2.394-.354,3.645-.106,1.076.249,1.426,1.373,1.423q20.981-.06,41.961-.033c1.75,0,3.5-.022,5.25.014.747.016,1.147-.161,1.1-1.013a32.545,32.545,0,0,1,0-3.28c.043-.85-.352-1.031-1.1-1.016C-149.579,242.3-151.329,242.275-153.08,242.275Zm-36.448,50.97c0,1.8.061,3.608-.031,5.406-.058,1.137.25,1.512,1.45,1.5,5.231-.068,10.464-.029,15.7-.029,8.134,0,16.269-.014,24.4.019.958,0,1.308-.232,1.291-1.247-.058-3.472-.043-6.946-.008-10.419.008-.827-.3-1.061-1.084-1.043-1.846.042-3.693.017-5.54.019h-36.177Zm36.419-42.92c-.262-.023-.524-.066-.786-.067q-17.288-.005-34.576,0a9.219,9.219,0,0,0-.977.1V284.8c1.266,0,2.447,0,3.628,0l32.726-.042h6.256V250.325Zm-13.025-73.048.024.3c1.463.132,3.009.64,4.373.334,8.438-1.889,16.834-3.963,25.246-5.97.726-.173,1.112-.489.609-1.38Zm5.591,7.531c-.454,1.191-.041,1.547.876,1.76,4.787,1.113,9.562,2.277,14.34,3.426q4.772,1.147,9.535,2.3c.388-1.139.05-1.583-1.033-1.831-5.133-1.172-10.245-2.436-15.366-3.663C-154.958,186.134-157.728,185.478-160.543,184.808Z" fill="#090f1c"/>
      <path id="Trazado_630087" data-name="Trazado 630087" d="M-121.525,300.29l1.322-.133v-1.435q0-9.959,0-19.918c.007-6.863,4.643-11.512,11.5-11.512,6.2,0,12.4.03,18.6.047.415.319.823.646,1.245.956a11.425,11.425,0,0,1,5.043,9.142c.175,8.887.04,17.78.031,26.671-.349.029-.7.083-1.048.083q-17.83.007-35.66,0c-.349,0-.7-.058-1.046-.089Q-121.53,302.2-121.525,300.29Zm15.326-27.985c-1.844,0-3.688-.016-5.531,0a2.467,2.467,0,0,0-2.685,2.577,2.472,2.472,0,0,0,2.7,2.695q5.4.026,10.8,0a2.65,2.65,0,0,0,2.9-2.578,2.655,2.655,0,0,0-2.914-2.7C-102.687,272.29-104.443,272.305-106.2,272.305Z" transform="translate(-69.331 -64.63)" fill="#da3328"/>
      <path id="Trazado_630088" data-name="Trazado 630088" d="M-215.631,428.312c.024-1.908.126-1.831,2.069-1.694,2.6.184,5.229.076,7.846.094l1.439.01c.041.346.075.694.125,1.039.4,2.742,1.262,5.4.964,8.257-.423,4.048-3.605,8.14-7.638,8.9a65.805,65.805,0,0,1-8.228.549c.343-1.516.655-3.041,1.041-4.546.257-1-.722-.878-1.084-1.309l.865-4.971c1.04.175,1.485-.263,1.57-1.317a21.534,21.534,0,0,1,.532-2.648c.159.128.372.223.47.387,1.029,1.713,4.992,2.2,6.4.765a2.425,2.425,0,0,0,.49-.758c.776-1.882-.488-3.622-2.64-3.831A6.944,6.944,0,0,0-215.631,428.312Z" transform="translate(-6.127 -167.807)" fill="#323d2c"/>
      <path id="Trazado_630089" data-name="Trazado 630089" d="M-81.151,436.937l-32.726.042c-1.18,0-2.361,0-3.628,0V402.538a9.215,9.215,0,0,1,.977-.1q17.288-.008,34.576,0c.262,0,.524.044.786.067Q-81.158,419.721-81.151,436.937Z" transform="translate(-71.943 -152.181)" fill="#da3328"/>
      <path id="Trazado_630090" data-name="Trazado 630090" d="M-81.626,508.011c1.847,0,3.694.023,5.54-.019.78-.018,1.093.216,1.084,1.043-.035,3.473-.05,6.946.008,10.419.017,1.015-.333,1.251-1.291,1.247-8.134-.033-16.269-.019-24.4-.019-5.233,0-10.465-.039-15.7.029-1.2.016-1.507-.36-1.45-1.5.092-1.8.029-3.6.031-5.406q14.875,0,29.751,0A6.649,6.649,0,0,0-81.626,508.011Z" transform="translate(-71.725 -220.563)" fill="#1c2617"/>
      <path id="Trazado_630091" data-name="Trazado 630091" d="M-25.96,304.13c.009-8.891.144-17.784-.031-26.671a11.425,11.425,0,0,0-5.043-9.142c-.422-.31-.83-.637-1.245-.956,5.614-.35,9.788,1.935,11.78,6.6a9.911,9.911,0,0,1,.862,3.689c.076,8.627.046,17.254.046,25.882a5.273,5.273,0,0,1-.079.6Z" transform="translate(-127.154 -64.653)" fill="#b2110c"/>
      <path id="Trazado_630092" data-name="Trazado 630092" d="M-94,384.843q-20.981,0-41.961.033c-1.124,0-1.478-.347-1.373-1.423.123-1.251-.3-2.911.354-3.645.563-.632,2.307-.25,3.528-.25q19.727-.01,39.454,0Q-94,382.2-94,384.843Z" transform="translate(-59.081 -137.286)" fill="#323d2c"/>
      <path id="Trazado_630093" data-name="Trazado 630093" d="M-14.3,437.065q-.007-17.216-.015-34.432h6.271v34.432Z" transform="translate(-138.789 -152.308)" fill="#b2110c"/>
      <path id="Trazado_630094" data-name="Trazado 630094" d="M-81.556,508.048a6.649,6.649,0,0,1-6.426,5.8q-14.876.024-29.751,0v-5.8Z" transform="translate(-71.795 -220.6)" fill="#323d2c"/>
      <path id="Trazado_630095" data-name="Trazado 630095" d="M-219.681,445.638a65.817,65.817,0,0,0,8.228-.549c4.032-.755,7.215-4.847,7.638-8.9.3-2.854-.568-5.515-.964-8.257-.05-.345-.083-.692-.125-1.039,2.631-.185,2.67-.193,3.206,2.643,1.23,6.5,2.419,13.016,3.652,19.674h-22.019C-219.938,448.031-219.809,446.835-219.681,445.638Z" transform="translate(-5.501 -167.984)" fill="#1c2617"/>
      <path id="Trazado_630096" data-name="Trazado 630096" d="M-151.659,205v1.883c-2.579.439-5.035.806-7.47,1.282a35.169,35.169,0,0,0-11.64,4.753,40.058,40.058,0,0,0-14.626,15.867,30.823,30.823,0,0,0-3.964,13.27c-.282,8.7-.232,17.409-.32,26.115-.005.524,0,1.047,0,1.79h-2.389c0-7-.033-13.992.036-20.988a53,53,0,0,1,.515-6.927,43.082,43.082,0,0,1,12.21-24.247,41.844,41.844,0,0,1,14.406-9.721A44.585,44.585,0,0,1-151.659,205Z" transform="translate(-23.633 -24.273)" fill="#323d2c"/>
      <path id="Trazado_630097" data-name="Trazado 630097" d="M-152.151,204.133a44.585,44.585,0,0,0-13.242,3.077,41.845,41.845,0,0,0-14.406,9.721,43.082,43.082,0,0,0-12.21,24.247,53,53,0,0,0-.515,6.927c-.069,7-.032,13.992-.036,20.988a8.007,8.007,0,0,1-.236-1.366c-.015-7.389-.082-14.779.008-22.168a41.275,41.275,0,0,1,9.646-26.414,40.607,40.607,0,0,1,22.48-14.288c2.462-.58,5-.843,7.513-1.19C-152.844,203.626-152.485,203.969-152.151,204.133Z" transform="translate(-23.142 -23.41)" fill="#444d40"/>
      <path id="Trazado_630098" data-name="Trazado 630098" d="M-66.407,251.971H-82.1a4.946,4.946,0,0,1,4.392-4.1c2.888-.191,5.8-.062,8.7-.048a2.4,2.4,0,0,1,.738.264,6.666,6.666,0,0,1,.637.954C-67.2,250.005-66.813,250.992-66.407,251.971Z" transform="translate(-94.879 -51.98)" fill="#c2bfa9"/>
      <path id="Trazado_630099" data-name="Trazado 630099" d="M-62.471,207.387h-7.035v-6.811l7.034,1.089Q-62.472,204.526-62.471,207.387Z" transform="translate(-103.038 -21.41)" fill="#da3328"/>
      <path id="Trazado_630100" data-name="Trazado 630100" d="M-51.306,182.86l30.252-6.714c.5.892.117,1.207-.609,1.38-8.411,2.007-16.808,4.081-25.246,5.97-1.364.305-2.911-.2-4.373-.334Z" transform="translate(-114.828 -5.583)" fill="#d03127"/>
      <path id="Trazado_630101" data-name="Trazado 630101" d="M-35.77,216.6c2.815.67,5.584,1.326,8.352,1.99,5.121,1.227,10.233,2.491,15.366,3.663,1.083.248,1.421.692,1.033,1.831q-4.76-1.147-9.535-2.3c-4.778-1.148-9.553-2.313-14.34-3.426C-35.811,218.143-36.225,217.787-35.77,216.6Z" transform="translate(-124.772 -31.788)" fill="#ad100c"/>
      <path id="Trazado_630102" data-name="Trazado 630102" d="M-199.369,403.949V397.16h6.259c0,.614.017,1.228.012,1.843a4.652,4.652,0,0,1-4.56,4.943C-198.226,403.987-198.8,403.95-199.369,403.949Z" transform="translate(-18.908 -148.763)" fill="#c2bfa9"/>
      <path id="Trazado_630103" data-name="Trazado 630103" d="M-14.243,385.033q0-2.641,0-5.282c1.75,0,3.5.023,5.25-.013.749-.015,1.144.166,1.1,1.016a32.549,32.549,0,0,0,0,3.28c.043.852-.357,1.028-1.1,1.013C-10.742,385.011-12.493,385.034-14.243,385.033Z" transform="translate(-138.839 -137.476)" fill="#1c2617"/>
      <path id="Trazado_630104" data-name="Trazado 630104" d="M-210.173,429.5a6.943,6.943,0,0,1,4.22-1.08c2.151.209,3.416,1.949,2.64,3.831a2.424,2.424,0,0,1-.49.758c-1.408,1.438-5.372.948-6.4-.765-.1-.164-.311-.26-.47-.387Q-210.423,430.683-210.173,429.5Z" transform="translate(-11.585 -168.999)" fill="#444d40"/>
      <path id="Trazado_630105" data-name="Trazado 630105" d="M-199.369,403.87c.571,0,1.143.038,1.711,0a4.652,4.652,0,0,0,4.56-4.943c0-.614-.007-1.228-.012-1.843.5-.021,1.092-.256,1.085.637-.018,2.265-.006,4.53-.006,6.98-2.346,0-4.6.018-6.853-.036C-199.052,404.658-199.207,404.146-199.369,403.87Z" transform="translate(-18.908 -148.684)" fill="#747e6c"/>
      <path id="Trazado_630106" data-name="Trazado 630106" d="M-49.532,209.389q0-2.861,0-5.722l2,.279v5.443Z" transform="translate(-115.977 -23.412)" fill="#ad100c"/>
      <path id="Trazado_630107" data-name="Trazado 630107" d="M-63.513,228.615c-.186-.729-.063-1.169.849-1.128,1.171.052,2.346.013,3.752.013v4.454H-60.5C-60.414,229.31-61.191,228.45-63.513,228.615Z" transform="translate(-106.872 -38.842)" fill="#717a6a"/>
      <path id="Trazado_630108" data-name="Trazado 630108" d="M-63.377,230.658c2.322-.164,3.1.7,3.017,3.339h-3.017Z" transform="translate(-107.008 -40.885)" fill="#c2bfa9"/>
      <path id="Trazado_630109" data-name="Trazado 630109" d="M-40.971,252.559c-.406-.979-.795-1.966-1.229-2.932a6.667,6.667,0,0,0-.637-.954c2.163.342,3.284,1.77,4.043,3.887Z" transform="translate(-120.315 -52.568)" fill="#717a6a"/>
      <path id="Trazado_630110" data-name="Trazado 630110" d="M-93.1,281.517c1.756,0,3.511-.015,5.267,0a2.655,2.655,0,0,1,2.914,2.7,2.65,2.65,0,0,1-2.9,2.578q-5.4.026-10.8,0a2.472,2.472,0,0,1-2.7-2.695,2.467,2.467,0,0,1,2.685-2.577C-96.786,281.5-94.942,281.517-93.1,281.517Z" transform="translate(-82.431 -73.842)" fill="#e57267"/>
    </g>
  </g>
</svg>
