<svg xmlns="http://www.w3.org/2000/svg" width="191" height="191" viewBox="0 0 191 191">
  <g id="Grupo_906772" data-name="Grupo 906772" transform="translate(-966.376 -6564)">
    <circle id="Elipse_6504" data-name="Elipse 6504" cx="95.5" cy="95.5" r="95.5" transform="translate(966.376 6564)" fill="#4dd0e1"/>
    <g id="Grupo_901817" data-name="Grupo 901817" transform="translate(1243.136 6386.754)">
      <path id="Trazado_630044" data-name="Trazado 630044" d="M-171.852,277.436c5.552,5.539,10.827,10.817,16.139,16.058a1.761,1.761,0,0,0,1.32.337,11.3,11.3,0,0,1,9.978,3.026c6.663,6.5,13.213,13.117,19.8,19.7a1.314,1.314,0,0,1,.414.718c.518,6.681-2,12.614-8.76,15.584a17.165,17.165,0,0,1-7.784,1.026,1.629,1.629,0,0,1-.923-.519q-9.631-9.583-19.23-19.2a11.652,11.652,0,0,1-3.4-10.565,1.457,1.457,0,0,0-.288-1.107c-5.28-5.328-10.589-10.628-15.965-16.006-.387.364-.721.661-1.037.976q-14.829,14.795-29.677,29.57a2.849,2.849,0,0,1-1.818.76,36.221,36.221,0,0,1-35.83-32.361c-.469-4.384-.469-4.384,2.651-7.5q13.757-13.731,27.513-27.464c.321-.32.628-.654,1.1-1.146-.6-.536-1.18-1.005-1.7-1.536a18.7,18.7,0,0,1-4.042-20.874c3.383-7.558,9.389-11.535,17.692-11.642,10.2-.132,20.4-.039,30.6-.015a1.917,1.917,0,0,0,1.683-.781,14.133,14.133,0,0,1,19.9-2.1,68.473,68.473,0,0,0,7.756,4.616c4.644,2.669,9.29,5.335,13.959,7.961a13.9,13.9,0,0,1,7.624,13.16c-.031,2.169-.005,4.339-.005,6.741l-25.861-14.74-2.207,2.992a5.249,5.249,0,0,1,1.124.683q9.058,9,18.1,18.019a2.374,2.374,0,0,1,.793,1.965,8.039,8.039,0,0,1-7.8,7.692,2.81,2.81,0,0,1-1.827-.723c-5.882-5.8-11.717-11.649-17.566-17.483-.319-.319-.655-.621-1.075-1.019-1.19,1.2-2.367,2.33-3.449,3.54a1.716,1.716,0,0,0-.157,1.252c.44,2.554,1.091,5.082,1.371,7.651.94,8.6-1.891,15.88-8,21.941A10.037,10.037,0,0,1-171.852,277.436ZM-214.467,314a8.733,8.733,0,0,0,1.55-1q19.736-19.654,39.416-39.366a52.882,52.882,0,0,0,3.946-5.017c.433-.556.35-.967-.177-1.49q-14.312-14.231-28.566-28.52c-.579-.581-1.022-.611-1.6-.162a57.328,57.328,0,0,0-5.191,4.132q-18.221,18.058-36.324,36.235c-1.3,1.3-3.029,2.6-3.5,4.2-.484,1.651.2,3.709.6,5.541A32.784,32.784,0,0,0-214.467,314Zm83.438,2.02a1.265,1.265,0,0,0-.141-.3q-8-7.99-16.018-15.965a7.291,7.291,0,0,0-5.006-2.043,7.913,7.913,0,0,0-7.538,4.679,7.732,7.732,0,0,0,1.589,8.81c5.16,5.2,10.364,10.366,15.554,15.542a3.831,3.831,0,0,0,.5.351A14.459,14.459,0,0,1-131.03,316.021Zm-63.357-79.859,27.074,27.03c1.115-3.674.679-7.561.1-11.532-.543-3.695-1.864-6.75-4.885-9.019a9.115,9.115,0,0,1-1.688-1.684,12.743,12.743,0,0,0-8.784-4.841C-186.637,235.53-190.612,235.016-194.387,236.162Zm18.283-16.853c-.212-.016-.418-.047-.624-.047-9.818,0-19.639-.136-29.454.052-6.311.121-10.881,3.348-13.468,9.1a14.859,14.859,0,0,0,4.792,17.954l3.141-3.181c-.673-.624-1.435-1.271-2.129-1.985a10.2,10.2,0,0,1-3-6.855,10.505,10.505,0,0,1,10.537-11.049c9.44-.043,18.881-.012,28.321-.012h1.313Zm.053,8.011c-10.262,0-20.5-.076-30.736.038-3.989.045-6.772,4.1-5.863,7.987.536,2.292,2.284,3.6,3.771,5.082.142-.043.192-.043.218-.067q.679-.652,1.354-1.31a25.162,25.162,0,0,1,18.68-7.613c3.483.082,6.944,1.015,10.421,1.521a2.046,2.046,0,0,0,1.356-.223c.88-.621,1.662-1.379,2.336-1.956Zm16.11,10a10.952,10.952,0,0,1,1.137.852q9.034,9,18.051,18.006c1.4,1.4,2.387,1.326,3.618-.259.9-1.16.878-1.612-.148-2.637q-7.777-7.765-15.548-15.535c-.794-.8-1.5-1.681-2.114-2.373Zm11.44-17.281c0,1.782.1,3.451-.041,5.1a1.439,1.439,0,0,0,.821,1.673c6.193,3.491,12.361,7.026,18.539,10.544.279.159.578.283.969.473.028-3.676-1.23-6.682-4.276-8.54C-137.732,226.092-143.12,223.132-148.5,220.041Zm-3.893,3.324a10.087,10.087,0,0,0-10.02-10.139,10.09,10.09,0,0,0-10.125,9.906,10.09,10.09,0,0,0,9.954,10.2A10.1,10.1,0,0,0-152.394,223.366Zm-7.274,72.268-14.959-14.915-2.837,2.794,14.923,14.894Zm21.454,34.2c6.552.09,10.5-6.184,9.843-9.969C-133.649,319.714-138.534,324.615-138.214,329.834Zm-35.22-94.663,6.928,6.943,3.048-2.954a13.093,13.093,0,0,0-2.413-2.2c-2.019-1.1-4.167-1.971-6.387-2.993Z" fill="#030202"/>
      <path id="Trazado_630045" data-name="Trazado 630045" d="M-206.434,371.2a32.784,32.784,0,0,1-29.843-25.445c-.4-1.831-1.081-3.89-.6-5.541.471-1.607,2.2-2.9,3.5-4.2q18.126-18.153,36.324-36.235a57.324,57.324,0,0,1,5.191-4.132c.573-.449,1.016-.419,1.6.162q14.25,14.293,28.566,28.52c.526.523.61.933.177,1.49a52.875,52.875,0,0,1-3.946,5.017q-19.65,19.74-39.416,39.366A8.728,8.728,0,0,1-206.434,371.2Zm38.455-44.48-24.6-24.563-40.875,40.8,24.606,24.562Z" transform="translate(-8.034 -57.201)" fill="#fd816d"/>
      <path id="Trazado_630046" data-name="Trazado 630046" d="M44.387,491.066A14.459,14.459,0,0,0,33.331,502.14a3.835,3.835,0,0,1-.5-.351c-5.19-5.176-10.394-10.337-15.554-15.542a7.732,7.732,0,0,1-1.589-8.81,7.912,7.912,0,0,1,7.538-4.679,7.291,7.291,0,0,1,5.006,2.042q8.04,7.951,16.018,15.965A1.262,1.262,0,0,1,44.387,491.066Z" transform="translate(-175.417 -175.045)" fill="#828e9a"/>
      <path id="Trazado_630047" data-name="Trazado 630047" d="M-86.083,288.1c3.775-1.146,7.75-.632,11.812-.046a12.743,12.743,0,0,1,8.784,4.841,9.114,9.114,0,0,0,1.688,1.684c3.021,2.269,4.343,5.324,4.885,9.019.584,3.971,1.02,7.858-.1,11.532Z" transform="translate(-108.304 -51.942)" fill="#fa6d50"/>
      <path id="Trazado_630048" data-name="Trazado 630048" d="M-120.3,239.077l-.573,3.973h-1.313c-9.441,0-18.881-.031-28.321.012a10.505,10.505,0,0,0-10.537,11.049,10.2,10.2,0,0,0,3,6.856c.694.714,1.457,1.361,2.129,1.985l-3.141,3.181a14.859,14.859,0,0,1-4.792-17.954c2.586-5.747,7.157-8.975,13.468-9.1,9.815-.188,19.635-.053,29.454-.052C-120.715,239.03-120.509,239.06-120.3,239.077Z" transform="translate(-55.806 -19.768)" fill="#cacfd7"/>
      <path id="Trazado_630049" data-name="Trazado 630049" d="M16.5,289.063l5-1.945c.612.691,1.32,1.575,2.114,2.373q7.758,7.783,15.548,15.535c1.026,1.025,1.05,1.477.148,2.637-1.231,1.584-2.218,1.656-3.618.259q-9.023-9.005-18.051-18.007A10.963,10.963,0,0,0,16.5,289.063Z" transform="translate(-176.446 -51.741)" fill="#fd816d"/>
      <path id="Trazado_630050" data-name="Trazado 630050" d="M50.463,241.445c5.381,3.091,10.769,6.051,16.012,9.249,3.046,1.858,4.3,4.865,4.276,8.54-.392-.19-.69-.314-.969-.473-6.178-3.518-12.346-7.052-18.539-10.544a1.439,1.439,0,0,1-.821-1.673C50.561,244.9,50.463,243.227,50.463,241.445Z" transform="translate(-198.964 -21.404)" fill="#fd816d"/>
      <path id="Trazado_630051" data-name="Trazado 630051" d="M-.87,231.289a10.1,10.1,0,0,1-10.19,9.971,10.09,10.09,0,0,1-9.954-10.2,10.09,10.09,0,0,1,10.125-9.906A10.087,10.087,0,0,1-.87,231.289Zm-2.019-.08a8.073,8.073,0,0,0-8.081-8.045A8.078,8.078,0,0,0-19,231.136a8.082,8.082,0,0,0,8.016,8.109A8.079,8.079,0,0,0-2.888,231.209Z" transform="translate(-151.524 -7.924)" fill="#919aa4"/>
      <path id="Trazado_630052" data-name="Trazado 630052" d="M-17.884,437.069l-2.873,2.773L-35.68,424.948l2.837-2.794Z" transform="translate(-141.783 -141.436)" fill="#cacfd7"/>
      <path id="Trazado_630053" data-name="Trazado 630053" d="M81.182,548.7c-.32-5.219,4.564-10.12,9.843-9.969C91.685,542.519,87.734,548.793,81.182,548.7Z" transform="translate(-219.396 -218.869)" fill="#919aa4"/>
      <path id="Trazado_630054" data-name="Trazado 630054" d="M-23.68,284.126l1.176-1.2c2.22,1.022,4.368,1.89,6.387,2.993a13.09,13.09,0,0,1,2.413,2.2l-3.048,2.954Z" transform="translate(-149.754 -48.955)" fill="#919aa4"/>
      <path id="Trazado_630055" data-name="Trazado 630055" d="M-160.892,340.214l-40.873,40.8-24.606-24.562,40.875-40.8Zm-40.931,35.1,35.14-35.072-18.953-18.919L-220.773,356.4Z" transform="translate(-15.121 -70.694)" fill="#050403"/>
      <path id="Trazado_630056" data-name="Trazado 630056" d="M1.1,235.193a8.079,8.079,0,0,1-8.091,8.036A8.082,8.082,0,0,1-15,235.12a8.078,8.078,0,0,1,8.027-7.972A8.073,8.073,0,0,1,1.1,235.193Zm-4.027-.044a4.054,4.054,0,0,0-4-3.98,4.037,4.037,0,0,0-4.049,4.058,4.053,4.053,0,0,0,4,3.982A4.055,4.055,0,0,0-2.923,235.149Z" transform="translate(-155.517 -11.907)" fill="#030202"/>
      <path id="Trazado_630057" data-name="Trazado 630057" d="M-190.748,386.54l-18.95-18.919,35.137-35.072,18.953,18.919Zm16.726-35.6c-5.422,1.078-10.685,2.054-15.915,3.185A10.808,10.808,0,0,0-198.7,365.5a10.938,10.938,0,0,0,10.02,10.049,10.8,10.8,0,0,0,11.433-8.7C-176.093,361.631-175.114,356.371-174.022,350.937Zm12.654-.827L-173.3,338.219l-2.5,2.471,11.922,11.932Z" transform="translate(-26.196 -81.918)" fill="#cacfd7"/>
      <path id="Trazado_630058" data-name="Trazado 630058" d="M5.043,243.1a4.055,4.055,0,0,1-4.051,4.06,4.053,4.053,0,0,1-4-3.982,4.037,4.037,0,0,1,4.049-4.059A4.054,4.054,0,0,1,5.043,243.1Z" transform="translate(-163.483 -19.861)" fill="#f6d26d"/>
      <path id="Trazado_630059" data-name="Trazado 630059" d="M-152.309,387.312c-1.092,5.434-2.07,10.694-3.22,15.917a10.8,10.8,0,0,1-11.433,8.7,10.938,10.938,0,0,1-10.02-10.049,10.809,10.809,0,0,1,8.759-11.382C-162.994,389.366-157.731,388.39-152.309,387.312Zm-5.093,5.1c-3.563.708-6.9,1.315-10.207,2.046a6.751,6.751,0,0,0-5.022,4.585c2.942-1.652,5.575-1.63,7.838.566,2.338,2.269,2.407,4.962.724,7.983,2.383-.959,3.916-2.371,4.439-4.586C-158.818,399.563-158.164,396.078-157.4,392.416Zm-9.548,11.475a2.022,2.022,0,0,0-2.011-1.975,2.021,2.021,0,0,0-2.01,2.1,2.029,2.029,0,0,0,2.073,1.914A2.028,2.028,0,0,0-166.95,403.891Z" transform="translate(-47.909 -118.293)" fill="#030202"/>
      <path id="Trazado_630060" data-name="Trazado 630060" d="M-94.313,361.326l-2.511,2.511L-108.746,351.9l2.5-2.471Z" transform="translate(-93.251 -93.133)" fill="#050403"/>
      <path id="Trazado_630061" data-name="Trazado 630061" d="M-148.742,402.513c-.762,3.662-1.416,7.147-2.229,10.594-.522,2.215-2.056,3.627-4.439,4.586,1.684-3.022,1.615-5.714-.724-7.983-2.263-2.2-4.9-2.219-7.838-.566a6.751,6.751,0,0,1,5.022-4.585C-155.641,403.828-152.306,403.221-148.742,402.513Z" transform="translate(-56.569 -128.39)" fill="#fd816d"/>
      <path id="Trazado_630062" data-name="Trazado 630062" d="M-155.011,432.78a2.028,2.028,0,0,1-1.948,2.04,2.029,2.029,0,0,1-2.073-1.914,2.021,2.021,0,0,1,2.01-2.1A2.022,2.022,0,0,1-155.011,432.78Z" transform="translate(-59.847 -147.182)" fill="#f2bd27"/>
    </g>
  </g>
</svg>
