<svg xmlns="http://www.w3.org/2000/svg" width="294.667" height="289.788" viewBox="0 0 294.667 289.788">
  <g id="Grupo_906767" data-name="Grupo 906767" transform="translate(-1125 -391.212)">
    <g id="Grupo_906766" data-name="Grupo 906766">
      <g id="Grupo_906292" data-name="Grupo 906292">
        <g id="Grupo_901689" data-name="Grupo 901689" transform="translate(1171.304 431.616)">
          <g id="Grupo_901671" data-name="Grupo 901671" transform="translate(87.309 9.994)">
            <path id="Trazado_629341" data-name="Trazado 629341" d="M244.855,226.853a4.094,4.094,0,0,1-2.027-.5l-86-49.67A1.984,1.984,0,0,1,155.678,175a2.051,2.051,0,0,1,1.145-1.772l52.844-30.522a4.393,4.393,0,0,1,2.054-.481,4.3,4.3,0,0,1,2.022.469L299.75,192.35a2.093,2.093,0,0,1,1.106,1.755,2.065,2.065,0,0,1-1.085,1.725l-52.9,30.527A4.055,4.055,0,0,1,244.855,226.853Z" transform="translate(-155.677 -72.894)" opacity="0.3"/>
            <g id="Grupo_901668" data-name="Grupo 901668" transform="translate(0.954 65.602)">
              <path id="Trazado_629342" data-name="Trazado 629342" d="M161.029,173.325l50-28.857a3.438,3.438,0,0,1,3.143,0l82.5,47.631,4.135-1.887v4.793a1.144,1.144,0,0,1-.652.9l-52.878,30.508a3.5,3.5,0,0,1-3.087,0l-86.006-49.643a1.117,1.117,0,0,1-.653-.9v-4.739h3.5Z" transform="translate(-157.513 -139.382)" fill="#a7a9ac"/>
              <path id="Trazado_629343" data-name="Trazado 629343" d="M211.009,135.466a3.67,3.67,0,0,1,3.143,0l85.986,49.643a.987.987,0,0,1,0,1.84l-52.878,30.513a3.4,3.4,0,0,1-3.087,0l-86.006-49.671c-.9-.479-.9-1.283,0-1.8Z" transform="translate(-157.496 -135.113)" fill="#fff"/>
              <path id="Trazado_629344" data-name="Trazado 629344" d="M254.884,151.007l-4.073,2.318-4.01-2.318,4.01-2.332Z" transform="translate(-199.976 -141.564)" fill="#939598"/>
              <path id="Trazado_629345" data-name="Trazado 629345" d="M269.361,159.356l-4.038,2.379-4.045-2.379,4.045-2.289Z" transform="translate(-206.863 -145.556)" fill="#939598"/>
              <path id="Trazado_629346" data-name="Trazado 629346" d="M243.813,157.431l-4.038,2.352-4.011-2.352,4.011-2.31Z" transform="translate(-194.727 -144.63)" fill="#939598"/>
              <path id="Trazado_629347" data-name="Trazado 629347" d="M240.446,166.4,236.4,168.68l-10.137-5.835,4.046-2.338Z" transform="translate(-190.207 -147.192)" fill="#939598"/>
              <path id="Trazado_629348" data-name="Trazado 629348" d="M230.977,171.894l-4.011,2.283-10.136-5.828,4.017-2.338Z" transform="translate(-185.719 -149.81)" fill="#939598"/>
              <path id="Trazado_629349" data-name="Trazado 629349" d="M221.325,177.4l-4.01,2.345-10.172-5.87,4.044-2.345Z" transform="translate(-181.112 -152.436)" fill="#939598"/>
              <path id="Trazado_629350" data-name="Trazado 629350" d="M279.007,164.974l-4.016,2.3-4.067-2.3,4.067-2.339Z" transform="translate(-211.451 -148.205)" fill="#939598"/>
              <path id="Trazado_629351" data-name="Trazado 629351" d="M288.68,170.546l-4.017,2.325-4.037-2.325,4.037-2.338Z" transform="translate(-216.066 -150.855)" fill="#939598"/>
              <path id="Trazado_629352" data-name="Trazado 629352" d="M298.3,176.081l-4.011,2.366-4.046-2.366,4.046-2.276Z" transform="translate(-220.641 -153.518)" fill="#939598"/>
              <path id="Trazado_629353" data-name="Trazado 629353" d="M255.412,164.133l-4.045,2.345-4.01-2.345,4.01-2.276Z" transform="translate(-200.241 -147.834)" fill="#939598"/>
              <path id="Trazado_629354" data-name="Trazado 629354" d="M265.066,169.74l-4.044,2.3L257,169.74l4.017-2.338Z" transform="translate(-204.83 -150.472)" fill="#939598"/>
              <path id="Trazado_629355" data-name="Trazado 629355" d="M274.733,175.282l-4.045,2.338-4.038-2.338,4.038-2.325Z" transform="translate(-209.418 -153.115)" fill="#939598"/>
              <path id="Trazado_629356" data-name="Trazado 629356" d="M284.381,180.84l-4.046,2.332L276.3,180.84l4.037-2.31Z" transform="translate(-214.007 -155.766)" fill="#939598"/>
              <path id="Trazado_629357" data-name="Trazado 629357" d="M294.026,186.447l-4.01,2.3-4.046-2.3,4.046-2.359Z" transform="translate(-218.608 -158.409)" fill="#939598"/>
              <path id="Trazado_629358" data-name="Trazado 629358" d="M303.679,192.036l-4.017,2.324-4.046-2.324,4.046-2.338Z" transform="translate(-223.197 -161.078)" fill="#939598"/>
              <path id="Trazado_629359" data-name="Trazado 629359" d="M313.348,197.553l-4.044,2.338-4.039-2.338,4.039-2.311Z" transform="translate(-227.786 -163.715)" fill="#939598"/>
              <path id="Trazado_629360" data-name="Trazado 629360" d="M323,203.192l-4.024,2.3-4.052-2.3,4.052-2.353Z" transform="translate(-232.381 -166.378)" fill="#939598"/>
              <path id="Trazado_629361" data-name="Trazado 629361" d="M332.37,208.575l-4.046,2.337-4.045-2.337,4.045-2.311Z" transform="translate(-236.831 -168.958)" fill="#939598"/>
              <path id="Trazado_629362" data-name="Trazado 629362" d="M342.036,214.12,338,216.438l-4.017-2.318L338,211.81Z" transform="translate(-241.446 -171.596)" fill="#939598"/>
              <path id="Trazado_629363" data-name="Trazado 629363" d="M351.676,219.734l-4.024,2.324-4.039-2.324,4.039-2.34Z" transform="translate(-246.028 -174.252)" fill="#939598"/>
              <path id="Trazado_629364" data-name="Trazado 629364" d="M361.362,225.309l-4.079,2.3-3.983-2.3,3.983-2.3Z" transform="translate(-250.636 -176.922)" fill="#939598"/>
              <path id="Trazado_629365" data-name="Trazado 629365" d="M371,230.857l-4.038,2.31-4.025-2.31,4.025-2.359Z" transform="translate(-255.218 -179.534)" fill="#939598"/>
              <path id="Trazado_629366" data-name="Trazado 629366" d="M380.634,236.411l-4.044,2.333-4.011-2.333,4.011-2.331Z" transform="translate(-259.806 -182.189)" fill="#939598"/>
              <path id="Trazado_629367" data-name="Trazado 629367" d="M246.156,180.634l-4.01,2.345-4.052-2.345,4.052-2.3Z" transform="translate(-195.835 -155.671)" fill="#939598"/>
              <path id="Trazado_629368" data-name="Trazado 629368" d="M255.824,186.166l-4.037,2.373-4.045-2.373,4.045-2.3Z" transform="translate(-200.424 -158.302)" fill="#939598"/>
              <path id="Trazado_629369" data-name="Trazado 629369" d="M261.465,189.449l-4.04,2.316,4.04,2.317,4.024-2.317Z" transform="translate(-205.03 -160.959)" fill="#939598"/>
              <path id="Trazado_629370" data-name="Trazado 629370" d="M275.137,197.335l-4.024,2.345-4.038-2.345,4.038-2.318Z" transform="translate(-209.62 -163.608)" fill="#939598"/>
              <path id="Trazado_629371" data-name="Trazado 629371" d="M284.789,202.92l-4.024,2.3-4.017-2.3,4.017-2.344Z" transform="translate(-214.222 -166.252)" fill="#939598"/>
              <path id="Trazado_629372" data-name="Trazado 629372" d="M294.422,208.485l-3.984,2.332-4.044-2.332,4.044-2.338Z" transform="translate(-218.81 -168.902)" fill="#939598"/>
              <path id="Trazado_629373" data-name="Trazado 629373" d="M304.1,214.056l-4.044,2.338-4.011-2.338,4.011-2.337Z" transform="translate(-223.399 -171.552)" fill="#939598"/>
              <path id="Trazado_629374" data-name="Trazado 629374" d="M313.485,219.462l-4.045,2.33-4.017-2.33,4.017-2.333Z" transform="translate(-227.862 -174.126)" fill="#939598"/>
              <path id="Trazado_629375" data-name="Trazado 629375" d="M323.112,225.072l-4.01,2.282-4.045-2.282,4.045-2.331Z" transform="translate(-232.444 -176.796)" fill="#939598"/>
              <path id="Trazado_629376" data-name="Trazado 629376" d="M332.766,230.622l-4.017,2.338-4.045-2.338,4.045-2.324Z" transform="translate(-237.033 -179.439)" fill="#939598"/>
              <path id="Trazado_629377" data-name="Trazado 629377" d="M342.453,236.2l-4.046,2.318-4.016-2.318,4.016-2.33Z" transform="translate(-241.641 -182.089)" fill="#939598"/>
              <path id="Trazado_629378" data-name="Trazado 629378" d="M352.046,241.763l-4.017,2.346-4.044-2.346,4.044-2.3Z" transform="translate(-246.204 -184.752)" fill="#939598"/>
              <path id="Trazado_629379" data-name="Trazado 629379" d="M361.725,247.353,357.68,249.7l-4.01-2.347,4.01-2.318Z" transform="translate(-250.812 -187.4)" fill="#939598"/>
              <path id="Trazado_629380" data-name="Trazado 629380" d="M236.478,186.166l-4.011,2.373-4.072-2.373,4.072-2.3Z" transform="translate(-191.221 -158.302)" fill="#939598"/>
              <path id="Trazado_629381" data-name="Trazado 629381" d="M246.156,191.764l-4.01,2.317-4.052-2.317,4.052-2.318Z" transform="translate(-195.835 -160.958)" fill="#939598"/>
              <path id="Trazado_629382" data-name="Trazado 629382" d="M255.824,197.335l-4.037,2.345-4.045-2.345,4.045-2.318Z" transform="translate(-200.424 -163.608)" fill="#939598"/>
              <path id="Trazado_629383" data-name="Trazado 629383" d="M265.49,202.92l-4.025,2.3-4.038-2.3,4.038-2.344Z" transform="translate(-205.031 -166.252)" fill="#939598"/>
              <path id="Trazado_629384" data-name="Trazado 629384" d="M275.137,208.485l-4.024,2.332-4.038-2.332,4.038-2.338Z" transform="translate(-209.62 -168.902)" fill="#939598"/>
              <path id="Trazado_629385" data-name="Trazado 629385" d="M284.789,214.056l-4.024,2.338-4.017-2.338,4.017-2.337Z" transform="translate(-214.222 -171.552)" fill="#939598"/>
              <path id="Trazado_629386" data-name="Trazado 629386" d="M294.422,219.659l-3.984,2.331-4.044-2.331,4.044-2.318Z" transform="translate(-218.81 -174.227)" fill="#939598"/>
              <path id="Trazado_629387" data-name="Trazado 629387" d="M303.8,225.072l-4.016,2.282-4.011-2.282,4.011-2.331Z" transform="translate(-223.273 -176.796)" fill="#939598"/>
              <path id="Trazado_629388" data-name="Trazado 629388" d="M313.485,230.622l-4.045,2.338-4.017-2.338,4.017-2.324Z" transform="translate(-227.862 -179.439)" fill="#939598"/>
              <path id="Trazado_629389" data-name="Trazado 629389" d="M323.112,236.2l-4.01,2.318-4.045-2.318,4.045-2.33Z" transform="translate(-232.444 -182.089)" fill="#939598"/>
              <path id="Trazado_629390" data-name="Trazado 629390" d="M332.766,241.763l-4.017,2.346-4.045-2.346,4.045-2.3Z" transform="translate(-237.033 -184.752)" fill="#939598"/>
              <path id="Trazado_629391" data-name="Trazado 629391" d="M342.453,247.353l-4.046,2.347-4.016-2.347,4.016-2.318Z" transform="translate(-241.641 -187.4)" fill="#939598"/>
              <path id="Trazado_629392" data-name="Trazado 629392" d="M357.118,255.888l-4.046,2.3-9.088-5.245,4.044-2.311Z" transform="translate(-246.204 -190.064)" fill="#939598"/>
              <path id="Trazado_629393" data-name="Trazado 629393" d="M206.736,180.015l-3.99,2.345-5.079-2.955,4.017-2.3Z" transform="translate(-176.605 -155.085)" fill="#939598"/>
              <path id="Trazado_629394" data-name="Trazado 629394" d="M227.021,191.7l-4.038,2.345-4.025-2.345,4.025-2.325Z" transform="translate(-186.732 -160.926)" fill="#939598"/>
              <path id="Trazado_629395" data-name="Trazado 629395" d="M217.376,186.126l-4.052,2.338-4.037-2.338,4.037-2.3Z" transform="translate(-182.132 -158.283)" fill="#939598"/>
              <path id="Trazado_629396" data-name="Trazado 629396" d="M266.865,214.724l-4.045,2.373-34.255-19.831,4.046-2.274Z" transform="translate(-191.303 -163.596)" fill="#939598"/>
              <path id="Trazado_629397" data-name="Trazado 629397" d="M303.938,236.089l-4.052,2.352-4-2.352,4-2.337Z" transform="translate(-223.324 -182.033)" fill="#939598"/>
              <path id="Trazado_629398" data-name="Trazado 629398" d="M313.613,241.712l-4.08,2.31-4.016-2.31,4.016-2.352Z" transform="translate(-227.907 -184.701)" fill="#939598"/>
              <path id="Trazado_629399" data-name="Trazado 629399" d="M323.23,247.275l-4.01,2.367-4.017-2.367,4.017-2.289Z" transform="translate(-232.513 -187.377)" fill="#939598"/>
              <path id="Trazado_629400" data-name="Trazado 629400" d="M332.879,252.832l-4.01,2.338-4.073-2.338,4.073-2.3Z" transform="translate(-237.077 -190.014)" fill="#939598"/>
              <path id="Trazado_629401" data-name="Trazado 629401" d="M347.63,261.359l-4.039,2.31-9.109-5.238,4.079-2.318Z" transform="translate(-241.685 -192.67)" fill="#939598"/>
              <path id="Trazado_629402" data-name="Trazado 629402" d="M390.309,242.017l-4.066,2.325-4.017-2.325,4.017-2.325Z" transform="translate(-264.395 -184.859)" fill="#939598"/>
              <path id="Trazado_629403" data-name="Trazado 629403" d="M255.632,175.126l-4.051,2.311-4.01-2.311,4.01-2.38Z" transform="translate(-200.342 -153.014)" fill="#939598"/>
              <path id="Trazado_629404" data-name="Trazado 629404" d="M265.3,180.735l-4.046,2.345-3.99-2.345,3.99-2.31Z" transform="translate(-204.955 -155.715)" fill="#939598"/>
              <path id="Trazado_629405" data-name="Trazado 629405" d="M274.946,186.366l-4.073,2.311-4.01-2.311,4.01-2.33Z" transform="translate(-209.519 -158.384)" fill="#939598"/>
              <path id="Trazado_629406" data-name="Trazado 629406" d="M284.623,191.9l-4.051,2.353-4.01-2.353,4.01-2.311Z" transform="translate(-214.133 -161.027)" fill="#939598"/>
              <path id="Trazado_629407" data-name="Trazado 629407" d="M294.245,197.447l-4.038,2.346-4.023-2.346,4.023-2.31Z" transform="translate(-218.71 -163.665)" fill="#939598"/>
              <path id="Trazado_629408" data-name="Trazado 629408" d="M303.918,203.061l-4.052,2.324-4.025-2.324,4.025-2.38Z" transform="translate(-223.304 -166.302)" fill="#939598"/>
              <path id="Trazado_629409" data-name="Trazado 629409" d="M313.538,208.575l-4.025,2.36-4.037-2.36,4.037-2.311Z" transform="translate(-227.887 -168.958)" fill="#939598"/>
              <path id="Trazado_629410" data-name="Trazado 629410" d="M322.926,214.022l-4.017,2.337-4.039-2.337,4.039-2.3Z" transform="translate(-232.355 -171.552)" fill="#939598"/>
              <path id="Trazado_629411" data-name="Trazado 629411" d="M332.573,219.6l-3.99,2.317-4.052-2.317,4.052-2.3Z" transform="translate(-236.951 -174.208)" fill="#939598"/>
              <path id="Trazado_629412" data-name="Trazado 629412" d="M342.187,225.15l-3.984,2.331-4.065-2.331,4.065-2.3Z" transform="translate(-241.521 -176.846)" fill="#939598"/>
              <path id="Trazado_629413" data-name="Trazado 629413" d="M351.852,230.71l-3.989,2.337-4.038-2.337,4.038-2.346Z" transform="translate(-246.129 -179.47)" fill="#939598"/>
              <path id="Trazado_629414" data-name="Trazado 629414" d="M361.513,236.307l-4.01,2.352-4.046-2.352,4.046-2.331Z" transform="translate(-250.71 -182.14)" fill="#939598"/>
              <path id="Trazado_629415" data-name="Trazado 629415" d="M367.367,239.467l9.11,5.238-9.11,5.24-4.01-2.311,5.058-2.929-5.058-2.942Z" transform="translate(-255.419 -184.752)" fill="#939598"/>
              <path id="Trazado_629416" data-name="Trazado 629416" d="M312.811,184.482l-4.025,2.3-4.038-2.3,4.038-2.366Z" transform="translate(-227.541 -157.471)" fill="#939598"/>
              <path id="Trazado_629417" data-name="Trazado 629417" d="M322.461,190.011l-4.009,2.367-4.018-2.367,4.018-2.324Z" transform="translate(-232.148 -160.121)" fill="#939598"/>
              <path id="Trazado_629418" data-name="Trazado 629418" d="M332.09,195.635l-4.018,2.283-4.045-2.283,4.045-2.338Z" transform="translate(-236.711 -162.79)" fill="#939598"/>
              <path id="Trazado_629419" data-name="Trazado 629419" d="M341.777,201.185l-4.018,2.338-4.044-2.338,4.044-2.318Z" transform="translate(-241.319 -165.439)" fill="#939598"/>
              <path id="Trazado_629420" data-name="Trazado 629420" d="M356.254,209.549l-4.046,2.339-4.016-2.339,4.016-2.317Z" transform="translate(-248.206 -169.418)" fill="#939598"/>
              <path id="Trazado_629421" data-name="Trazado 629421" d="M365.907,215.114l-4.046,2.333-4.01-2.333,4.01-2.338Z" transform="translate(-252.801 -172.055)" fill="#939598"/>
              <path id="Trazado_629422" data-name="Trazado 629422" d="M375.534,220.651,371.517,223l-4.045-2.346,4.045-2.33Z" transform="translate(-257.377 -174.693)" fill="#939598"/>
              <path id="Trazado_629423" data-name="Trazado 629423" d="M385.194,226.237l-4.038,2.346-4.038-2.346,4.038-2.345Z" transform="translate(-261.966 -177.343)" fill="#939598"/>
              <path id="Trazado_629424" data-name="Trazado 629424" d="M398.288,233.835l-4.017,2.338-7.465-4.294,4.073-2.312Z" transform="translate(-266.573 -180.043)" fill="#939598"/>
              <path id="Trazado_629425" data-name="Trazado 629425" d="M260.91,229.142l-12.35,7.083-26.2-15.1,12.343-7.153Z" transform="translate(-188.351 -172.622)" fill="#939598"/>
              <path id="Trazado_629426" data-name="Trazado 629426" d="M323.775,279.152l-3.643,2.074-3.774-2.171,3.58-2.067Z" transform="translate(-233.063 -202.599)" fill="#174666"/>
              <path id="Trazado_629427" data-name="Trazado 629427" d="M315.067,274.144l-3.6,2.09-3.8-2.18,3.6-2.094Z" transform="translate(-228.927 -200.208)" fill="#ff8400"/>
            </g>
            <g id="Grupo_901670" data-name="Grupo 901670" transform="translate(56.493)">
              <path id="Trazado_629428" data-name="Trazado 629428" d="M266.784,10.121a1.074,1.074,0,0,1,1.146.09l86.006,49.629a3.423,3.423,0,0,1,1.555,2.727v61.008c0,.52-.16.867-.465.986h0v.041l-2.532,1.484-.583-2.782L267.93,74.848a3.414,3.414,0,0,1-1.555-2.7V13.673l-.47.43-1.729-2.449,2.608-1.534Z" transform="translate(-263.781 -9.994)" fill="#a7a9ac"/>
              <path id="Trazado_629429" data-name="Trazado 629429" d="M265,13.012l86.035,49.671a3.493,3.493,0,0,1,1.533,2.692v61.043c0,1-.721,1.394-1.533.916L265,77.663a3.482,3.482,0,0,1-1.581-2.713l.02-61.022C263.443,12.9,264.137,12.506,265,13.012Z" transform="translate(-263.423 -11.326)" fill="#d1d3d4"/>
              <path id="Trazado_629430" data-name="Trazado 629430" d="M272.36,74.929l80.025,46.195v1.533l-81.42-47V24.181l1.4.8Z" transform="translate(-267.01 -16.743)" fill="#a7a9ac"/>
              <path id="Trazado_629431" data-name="Trazado 629431" d="M353.651,121.854,273.626,75.659V25.716l80.059,46.23Z" transform="translate(-268.276 -17.473)" fill="#16a89f"/>
              <g id="Grupo_901669" data-name="Grupo 901669" transform="translate(12.725 32.713)">
                <path id="Trazado_629432" data-name="Trazado 629432" d="M287.693,72.386l2.07,1.195v10.6l-2.07-1.195Z" transform="translate(-287.693 -72.386)" fill="#fff"/>
                <path id="Trazado_629433" data-name="Trazado 629433" d="M296.9,79.715l-2.52-1.454V76.245l7.124,4.113v2.016l-2.52-1.456V89.5L296.9,88.3Z" transform="translate(-290.872 -74.222)" fill="#fff"/>
                <path id="Trazado_629434" data-name="Trazado 629434" d="M314.942,98.609l1.183-.96a7.671,7.671,0,0,0,2.267,2.414c.859.5,1.281.35,1.281-.284,0-.666-.521-1.179-1.324-2.032l-1.2-1.276a6.023,6.023,0,0,1-1.844-3.959c0-1.755,1.352-2.373,3.266-1.268a8.664,8.664,0,0,1,2.957,3.106l-1.056.9a5.971,5.971,0,0,0-1.9-1.943c-.718-.415-1.168-.317-1.168.284,0,.65.605,1.227,1.394,2.056l1.183,1.236a5.639,5.639,0,0,1,1.816,3.926c0,1.756-1.267,2.552-3.463,1.285A10.137,10.137,0,0,1,314.942,98.609Z" transform="translate(-300.655 -81.094)" fill="#fff"/>
                <path id="Trazado_629435" data-name="Trazado 629435" d="M331,97.388l5.744,3.316v2.016l-3.675-2.122v2.129l3.125,1.805v2l-3.125-1.8v2.438l3.815,2.2v2.016l-5.885-3.4Z" transform="translate(-308.292 -84.279)" fill="#fff"/>
                <path id="Trazado_629436" data-name="Trazado 629436" d="M345.709,105.881l3.309,1.91c1.943,1.122,3.534,2.821,3.534,5.341,0,1.56-.648,2.178-1.633,2.113L353,120.692l-2.323-1.342-1.76-4.836-1.14-.659v3.82l-2.07-1.195Zm3.14,6.69c1.084.626,1.676.431,1.676-.61a2.69,2.69,0,0,0-1.676-2.365l-1.07-.618v2.975Z" transform="translate(-315.29 -88.319)" fill="#fff"/>
                <path id="Trazado_629437" data-name="Trazado 629437" d="M359.562,113.879l2.2,1.268,1.1,5.576c.282,1.317.464,2.5.746,3.828l.056.033c.267-1.017.465-1.976.732-2.976l1.084-4.316,2.111,1.219-2.76,9.007-2.492-1.439Z" transform="translate(-321.88 -92.123)" fill="#fff"/>
                <path id="Trazado_629438" data-name="Trazado 629438" d="M376.744,123.8l2.07,1.194v10.6l-2.07-1.194Z" transform="translate(-330.053 -96.843)" fill="#fff"/>
                <path id="Trazado_629439" data-name="Trazado 629439" d="M383.993,134.9c0-3.511,2.013-4.4,4.337-3.056a8.084,8.084,0,0,1,2.759,2.974l-1.1.894a4.928,4.928,0,0,0-1.619-1.781c-1.253-.724-2.253-.016-2.253,2.114a5.31,5.31,0,0,0,2.224,4.731,1.6,1.6,0,0,0,1.788.041l1.1,2.13c-.76.585-1.774.536-2.971-.155A9.2,9.2,0,0,1,383.993,134.9Z" transform="translate(-333.501 -100.387)" fill="#fff"/>
                <path id="Trazado_629440" data-name="Trazado 629440" d="M400.45,137.485l5.744,3.317v2.015L402.52,140.7v2.13l3.125,1.8v2l-3.125-1.8v2.439l3.815,2.2v2.016l-5.885-3.4Z" transform="translate(-341.329 -103.352)" fill="#fff"/>
              </g>
              <path id="Trazado_629441" data-name="Trazado 629441" d="M290.9,141.922,270.965,130.4v-2.2l19.94,11.5Z" transform="translate(-267.01 -66.225)" fill="#a7a9ac"/>
            </g>
          </g>
          <g id="Grupo_901688" data-name="Grupo 901688" transform="translate(11.95 104.735)">
            <g id="Grupo_901675" data-name="Grupo 901675">
              <g id="Grupo_901672" data-name="Grupo 901672">
                <path id="Trazado_629442" data-name="Trazado 629442" d="M17.943,192.3,11.95,195.76v-1.1l.411-.24.257-1.046,4.653-2.685.258.746.413-.239Z" transform="translate(-11.95 -190.687)" fill="#ff8400"/>
                <path id="Trazado_629443" data-name="Trazado 629443" d="M24.286,194.385l-6.407-3.7-4.653,2.685,6.41,3.7Z" transform="translate(-12.556 -190.687)" fill="#ff9d26"/>
                <path id="Trazado_629444" data-name="Trazado 629444" d="M18.769,201.5l-6.408-3.7-.411.24,6.406,3.7Z" transform="translate(-11.95 -194.072)" fill="#ff9d26"/>
                <path id="Trazado_629445" data-name="Trazado 629445" d="M29.411,195.354l-6.406-3.7-.413.239,6.406,3.7Z" transform="translate(-17.012 -191.147)" fill="#ff9d26"/>
                <path id="Trazado_629446" data-name="Trazado 629446" d="M30.16,199.352l-5.993,3.46v-1.1l.414-.238.259-1.044,4.651-2.687.257.749.413-.241Z" transform="translate(-17.761 -194.042)" fill="#ff8400"/>
                <path id="Trazado_629447" data-name="Trazado 629447" d="M18.355,203.059l-6.406-3.7v-1.1l6.406,3.7Z" transform="translate(-11.95 -194.289)" fill="#ff8400"/>
                <path id="Trazado_629448" data-name="Trazado 629448" d="M19.143,200.552l-6.408-3.7.257-1.046,6.41,3.7Z" transform="translate(-12.323 -193.122)" fill="#ff8400"/>
              </g>
              <g id="Grupo_901673" data-name="Grupo 901673" transform="translate(5.668 1.94)">
                <path id="Trazado_629449" data-name="Trazado 629449" d="M38.324,199.3l2.63,4.067-2.643,1.528-7.039-1.518-8.511-4.913,7.055-4.074Z" transform="translate(-22.76 -194.387)" fill="#535359"/>
                <path id="Trazado_629450" data-name="Trazado 629450" d="M31.271,211.237l-8.511-4.912v-4.168l8.511,4.913Z" transform="translate(-22.76 -198.083)" fill="#303033"/>
                <path id="Trazado_629451" data-name="Trazado 629451" d="M46.031,217.214l-7.039-1.52v-4.166l7.039,1.518Z" transform="translate(-30.481 -202.54)" fill="#121214"/>
                <path id="Trazado_629452" data-name="Trazado 629452" d="M55.06,215.677l-2.643,1.529v-4.168l2.643-1.528Z" transform="translate(-36.867 -202.532)"/>
              </g>
              <g id="Grupo_901674" data-name="Grupo 901674" transform="translate(21.399 12.257)">
                <path id="Trazado_629453" data-name="Trazado 629453" d="M56.945,219.182l1.664-2.759-3.9-2.283,0,0a.8.8,0,0,0-.8.082,2.526,2.526,0,0,0-1.141,1.974.827.827,0,0,0,.312.726Z" transform="translate(-52.763 -214.064)" fill="#303033"/>
                <path id="Trazado_629454" data-name="Trazado 629454" d="M61.255,218.512c.633-.362,1.144-.067,1.144.66a2.514,2.514,0,0,1-1.144,1.974c-.628.365-1.138.07-1.138-.66A2.528,2.528,0,0,1,61.255,218.512Z" transform="translate(-56.261 -216.106)"/>
              </g>
            </g>
            <g id="Grupo_901676" data-name="Grupo 901676" transform="translate(59.259 0.695)">
              <path id="Trazado_629455" data-name="Trazado 629455" d="M152.863,269.558c.648,1.971-3.577,5.127-9.435,7.049s-11.132,1.879-11.778-.093,3.576-5.126,9.435-7.047S152.219,267.586,152.863,269.558Z" transform="translate(-128.117 -228.183)" opacity="0.3"/>
              <path id="Trazado_629456" data-name="Trazado 629456" d="M138.145,272.635a24.534,24.534,0,0,1-3.03,2.441c-.445.259.131,1.521.149,1.55a3,3,0,0,0,2.074-.352,6.835,6.835,0,0,0,1.592-1.1,7.433,7.433,0,0,0,2.186-1.158,4.29,4.29,0,0,0-.223-1.832Z" transform="translate(-129.716 -230.149)" fill="#fff"/>
              <path id="Trazado_629457" data-name="Trazado 629457" d="M141.151,233.4c-.978,3.328-3.784,9.531-3.882,10.733-.189,2.306.71,6.88.983,10.376,0,.832,3.323.526,3.941-.82-.129-2.707-.711-6.756-.669-8.321-.011-.585,4.3-8.419,4.3-8.419Z" transform="translate(-130.808 -211.702)" fill="#174666"/>
              <path id="Trazado_629458" data-name="Trazado 629458" d="M165.052,268.051s.724,1.353.35,1.982c-.274.458-1.445,2.982-1.92,3.642-.618.858-2.309.436-2.619.258a1.1,1.1,0,0,1-.182-1.619,7.762,7.762,0,0,0,1.857-3.183Z" transform="translate(-141.821 -228.183)" fill="#fff"/>
              <path id="Trazado_629459" data-name="Trazado 629459" d="M154.059,233.8c1.064,3.922-.182,10.5.181,12.4,1.562,1.388,2.508,3.856,3.4,4.782.976,1.016-1.993,3.84-3.075,2.115-1.766-2.82-3.554-4.033-3.847-5.088a90.828,90.828,0,0,1-1.615-9.85,7.919,7.919,0,0,1-4.127-4.547C144.95,232.75,153.973,233.49,154.059,233.8Z" transform="translate(-134.486 -211.609)" fill="#2b5e85"/>
              <path id="Trazado_629460" data-name="Trazado 629460" d="M161.785,200.44c.293.776-.45,3.118,1.158,4.831,2.587-4.549-.681-6.041-.681-6.041S161.592,200.214,161.785,200.44Z" transform="translate(-142.466 -195.445)" fill="#ff8400"/>
              <path id="Trazado_629461" data-name="Trazado 629461" d="M162.057,199.758c-.163.409-.488.664-.725.57s-.3-.5-.136-.911.487-.666.724-.573S162.218,199.347,162.057,199.758Z" transform="translate(-142.159 -195.253)"/>
              <path id="Trazado_629462" data-name="Trazado 629462" d="M134.455,212.887s-.664.917-1.1,1.44c-1.122.111-3.581,1.78-5.64,2.11-.207-.027-.291-.488-.812-.5a.952.952,0,0,0-.792.5s-1.134.254-1.141.725,1.123,1.888,1.837,1.88a2.015,2.015,0,0,0,1.438-.778c2.136-.506,5.413-.6,6.8-1.828.638-.563,2.132-1.93,2.132-1.93Z" transform="translate(-124.971 -201.942)" fill="#f0c6b4"/>
              <path id="Trazado_629463" data-name="Trazado 629463" d="M147.813,203.3c1.976.965.291,3.015-.266,3.964-.25.43-1.388,1.938-1.861,2.611-.641.914-3.713-1.24-3.263-1.944.324-.509.982-1.482,1.438-2.04C144.494,205.118,145.78,202.313,147.813,203.3Z" transform="translate(-133.251 -197.284)" fill="#303033"/>
              <path id="Trazado_629464" data-name="Trazado 629464" d="M156.814,201.665a3.809,3.809,0,0,0,.158,1.334l.288,1.122-1.891,1.742-2.547.012-.748-1.071,1.211-2.2,2.945-.937S156.636,201.46,156.814,201.665Z" transform="translate(-137.864 -196.561)" fill="#c7a496"/>
              <path id="Trazado_629465" data-name="Trazado 629465" d="M156.082,206.535a32.771,32.771,0,0,1-2.842-2.91c-.158,1.477-2.393,2.938-3.851,2.044-1.083-.664-.088-1.921.446-2.229a2.881,2.881,0,0,0-1.371-.55,8.982,8.982,0,0,0-2.537,4.871c-.353,2.837-.728,6.2-1.695,11.022-.157.791,3.256,2.788,6.226,3.142s3.69-.746,3.689-1.725a45.45,45.45,0,0,1,1.35-10.242Z" transform="translate(-134.131 -197.187)" fill="#535359"/>
              <path id="Trazado_629466" data-name="Trazado 629466" d="M161.858,222.079a16.6,16.6,0,0,0,.791,3.871c-.976.4-2.181,2.85-2.642,3.233l.542,1.469c1.866-1.161,4-2.089,4.475-4.124a26.237,26.237,0,0,0-.184-4.832h-1.127S162.125,221.6,161.858,222.079Z" transform="translate(-141.637 -206.129)" fill="#f0c6b4"/>
              <path id="Trazado_629467" data-name="Trazado 629467" d="M151.859,214.056l-1.651-1.082c-.468-.305-.876-.1-.9.458l-.139,2.478a1.945,1.945,0,0,0,.793,1.57l1.651,1.082c.468.305.876.1.906-.458l.139-2.478A1.949,1.949,0,0,0,151.859,214.056Zm-.212.479a1.1,1.1,0,0,1,.284.875c-.021.367-.18.569-.36.451a1.087,1.087,0,0,1-.285-.874C151.305,214.622,151.466,214.419,151.646,214.535Zm-1.291-.336a.8.8,0,0,1,.327.648c-.014.23-.181.315-.374.189a.8.8,0,0,1-.326-.648C149.994,214.158,150.161,214.074,150.355,214.2Zm.475,2.962c-.639-.418-1.144-.978-1.129-1.249l2.313,1.513C152,217.7,151.467,217.581,150.83,217.162Z" transform="translate(-136.478 -201.917)" fill="#ff8400"/>
              <path id="Trazado_629468" data-name="Trazado 629468" d="M151.715,194.546a4.254,4.254,0,0,0-.813,2.223,2.021,2.021,0,0,0,.191.62,1.889,1.889,0,0,0-.1.73,12.734,12.734,0,0,0,.493,2.686,1.455,1.455,0,0,0,1.151.382,4.578,4.578,0,0,0,2.558-1.759,1.577,1.577,0,0,0,.2-.652,1.123,1.123,0,0,0,.947-.783c.462-1.017.141-1.183.141-1.183l-1.389-1.583-2.084-.953Z" transform="translate(-137.305 -193.089)" fill="#f0c6b4"/>
              <path id="Trazado_629469" data-name="Trazado 629469" d="M156.807,195.951a1.578,1.578,0,0,0-.976.579s-.573.069-.837-.709c-.152-.45-.293-1.011-.45-1.09-.348-.176-.846.218-1.839-.321-1.353-.734.05-2.652,2.547-2.368,2.578.293,2.366,2.714,2.367,3.321a2.4,2.4,0,0,1-.669,1.556S157.263,195.9,156.807,195.951Z" transform="translate(-137.914 -192.013)" fill="#ff8400"/>
              <path id="Trazado_629470" data-name="Trazado 629470" d="M163.748,209.832c2.126-.568,2.2,2.086,2.4,3.166.091.489.222,2.376.306,3.19.115,1.113-3.615,1.5-3.739.675-.088-.6-.229-1.765-.251-2.485C162.434,213.379,161.563,210.418,163.748,209.832Z" transform="translate(-142.712 -200.452)" fill="#303033"/>
              <path id="Trazado_629471" data-name="Trazado 629471" d="M148.862,223.431l0-.971,3.631,2.449Z" transform="translate(-136.335 -206.496)" fill="#e31b25"/>
              <path id="Trazado_629472" data-name="Trazado 629472" d="M156.573,234.563s-1.187-.953-.934-1.177,1.9.43,2.273,1.34l-.684.277Z" transform="translate(-139.542 -211.672)" fill="#f0c6b4"/>
            </g>
            <g id="Grupo_901677" data-name="Grupo 901677" transform="translate(114.133 29.787)">
              <path id="Trazado_629473" data-name="Trazado 629473" d="M256.932,324.341c.741,2.1-3.867,5.4-10.29,7.355s-12.231,1.838-12.972-.266,3.868-5.4,10.29-7.354S256.192,322.237,256.932,324.341Z" transform="translate(-231.513 -283.26)" opacity="0.3"/>
              <path id="Trazado_629474" data-name="Trazado 629474" d="M233.049,273.484c2.137-.505,4.125-.351,5.511-1.578.637-.564,2.131-1.931,2.131-1.931l-2.72-1.622s-.664.919-1.1,1.442c-1.121.111-3.58,1.779-5.64,2.11-.205-.028-.289-.49-.811-.5a.954.954,0,0,0-.792.5Z" transform="translate(-229.628 -257.418)" fill="#f0c6b4"/>
              <path id="Trazado_629475" data-name="Trazado 629475" d="M250.292,258.773c1.977.965.289,3.016-.265,3.964-.25.429-1.39,1.939-1.86,2.61-.642.916-3.713-1.238-3.264-1.942.326-.511.983-1.482,1.439-2.041C246.976,260.586,248.26,257.783,250.292,258.773Z" transform="translate(-236.873 -252.761)" fill="#e6e7e8"/>
              <path id="Trazado_629476" data-name="Trazado 629476" d="M259.294,257.134a3.91,3.91,0,0,0,.159,1.335l.289,1.12-1.89,1.743-2.549.009-.745-1.069,1.209-2.2,2.945-.937S259.117,256.928,259.294,257.134Z" transform="translate(-241.487 -252.037)" fill="#c7a496"/>
              <path id="Trazado_629477" data-name="Trazado 629477" d="M237.552,332.272a12.583,12.583,0,0,1-3.1,1.877c-.411.182-.614,1.707-.053,1.773a5.282,5.282,0,0,0,1.78-.117,6.5,6.5,0,0,0,1.933-.944,5.936,5.936,0,0,0,2.161-.437c.3-.278.211-1.949.211-1.949A22.517,22.517,0,0,0,237.552,332.272Z" transform="translate(-231.733 -287.811)" fill="#f5f5f5"/>
              <path id="Trazado_629478" data-name="Trazado 629478" d="M244.119,284.654c-2.917,7.677-3.125,18.209-4.1,24.686-.169,1.128,4.162,1.9,4.221.141.31-9.226,3.836-17.7,4.035-19.465S244.555,283.937,244.119,284.654Z" transform="translate(-234.57 -265.134)" fill="#0f2034"/>
              <path id="Trazado_629479" data-name="Trazado 629479" d="M268.272,324.41c-.118,1.384-1.557,2.7-1.892,3.177-.2.289-.277.985.16,1.2a2.76,2.76,0,0,0,2.486.021,14.813,14.813,0,0,0,2.717-3.455,1.776,1.776,0,0,0-.86-2.257A12.949,12.949,0,0,0,268.272,324.41Z" transform="translate(-247.033 -283.457)" fill="#f5f5f5"/>
              <path id="Trazado_629480" data-name="Trazado 629480" d="M255.75,285.588c2.155,2.487,1.924,11.313,2.406,13.17,1.632,1.276,2.932,3.679,3.935,5.285,1.091,1.749-2.222,4.082-3.114,2.27-1.672-3.4-3.974-4.918-4.329-5.944-1.053-3.032-2.863-8.686-2.863-8.686s-3.923-3.279-3.944-7.175C247.759,283.654,255.54,285.345,255.75,285.588Z" transform="translate(-238.291 -264.989)" fill="#1d374e"/>
              <path id="Trazado_629481" data-name="Trazado 629481" d="M258.634,262a32.969,32.969,0,0,1-2.843-2.908,2.92,2.92,0,0,1-1.9,2.13,1.953,1.953,0,0,1-2.061.627,1.144,1.144,0,0,1-.344-1.259c-.188-.657.491-1.448.9-1.685a2.883,2.883,0,0,0-1.372-.55,8.986,8.986,0,0,0-2.536,4.871,53.9,53.9,0,0,1-1.444,9.046,2.938,2.938,0,0,0,1.447,3.638,3.013,3.013,0,0,0,.6-.968,4.491,4.491,0,0,1,.176,1.414c2.946,1.465,3.723-.975,5.057-1.2,1.6-.275,2.391,1.911,2.391,1.911a68.438,68.438,0,0,1,1.348-11.638Z" transform="translate(-237.824 -252.664)" fill="#fff"/>
              <path id="Trazado_629482" data-name="Trazado 629482" d="M254.554,262.787a5.955,5.955,0,0,0-1.746-.527,3.881,3.881,0,0,1,1.092-1.2l.313.172S254.465,262.611,254.554,262.787Z" transform="translate(-240.654 -253.95)" opacity="0.3"/>
              <path id="Trazado_629483" data-name="Trazado 629483" d="M257.208,262.933a7.094,7.094,0,0,1,1.443,1.046,4.85,4.85,0,0,0,2.39-3.151L258.3,262.82Z" transform="translate(-242.747 -253.838)" opacity="0.3"/>
              <path id="Trazado_629484" data-name="Trazado 629484" d="M253.5,265.49c-.943,2.212-2.07,11.225-2.07,11.225l-.647.548-.524-.929s1.087-8.735,3-10.982a.3.3,0,0,1,.263-.161A.63.63,0,0,0,253.5,265.49Z" transform="translate(-239.442 -255.914)" fill="#ff8400"/>
              <path id="Trazado_629485" data-name="Trazado 629485" d="M253.145,261.491a4.8,4.8,0,0,1,1.5-1.853,5.909,5.909,0,0,1-.515,1.1Z" transform="translate(-240.814 -253.272)" fill="#d1d3d4"/>
              <path id="Trazado_629486" data-name="Trazado 629486" d="M253.679,262.051c-.306.095-.534.588-.534.588s.612-.312.817-.377Z" transform="translate(-240.814 -254.42)" fill="#bcbec0"/>
              <path id="Trazado_629487" data-name="Trazado 629487" d="M255.571,263.6s-.287-.366-.279-.556c-.027-.054-.142-.016-.163.006a1.369,1.369,0,0,0,.333.893l.129-.173Z" transform="translate(-241.755 -254.878)" fill="#ff8400"/>
              <path id="Trazado_629488" data-name="Trazado 629488" d="M255.291,261.553a4.757,4.757,0,0,1,.468-3.388,18.959,18.959,0,0,0-1.6,2.038A7.37,7.37,0,0,1,255.291,261.553Z" transform="translate(-241.299 -252.571)" fill="#f5f5f5"/>
              <path id="Trazado_629489" data-name="Trazado 629489" d="M257.363,264.538a6.332,6.332,0,0,0,1-.524.22.22,0,0,1,.222.272,2.5,2.5,0,0,1-1.344.52l-.029-.191Z" transform="translate(-242.747 -255.353)" fill="#ff8400"/>
              <path id="Trazado_629490" data-name="Trazado 629490" d="M257.811,263.736c-.629.466-.894.232-.894.232a13.193,13.193,0,0,0,2.5-1.041,2.06,2.06,0,0,1-1.174.828A3.4,3.4,0,0,1,257.811,263.736Z" transform="translate(-242.609 -254.837)" fill="#bcbec0"/>
              <path id="Trazado_629491" data-name="Trazado 629491" d="M256.68,264.592l-.8-.466-.109.343.106.376.244.138.431-.124Z" transform="translate(-242.064 -255.407)" fill="#ba6000"/>
              <path id="Trazado_629492" data-name="Trazado 629492" d="M261.76,259.734a2.543,2.543,0,0,1-.411-.8,7.726,7.726,0,0,1-2.727,2.9,3.33,3.33,0,0,1,.745,1.063S261.514,261.158,261.76,259.734Z" transform="translate(-243.42 -252.939)" fill="#f5f5f5"/>
              <path id="Trazado_629493" data-name="Trazado 629493" d="M264.34,277.547a16.557,16.557,0,0,0,.792,3.873c-.976.4-2.182,2.851-2.641,3.234l.539,1.469c1.868-1.162,4-2.088,4.475-4.124a26.215,26.215,0,0,0-.186-4.833h-1.125S264.607,277.074,264.34,277.547Z" transform="translate(-245.26 -261.606)" fill="#f0c6b4"/>
              <path id="Trazado_629494" data-name="Trazado 629494" d="M256.26,257.563v1.809l2.5.229.3-2.626-2.156-.075Z" transform="translate(-242.296 -251.969)" fill="#c7a496"/>
              <path id="Trazado_629495" data-name="Trazado 629495" d="M259.6,250.076a4.28,4.28,0,0,1,.813,2.223,2.015,2.015,0,0,1-.191.621,1.865,1.865,0,0,1,.1.73,12.574,12.574,0,0,1-.492,2.686,1.452,1.452,0,0,1-1.153.382,4.557,4.557,0,0,1-2.556-1.757,1.561,1.561,0,0,1-.2-.651,1.124,1.124,0,0,1-.947-.784c-.464-1.017-.141-1.183-.141-1.183l1.389-1.582,2.084-.952Z" transform="translate(-241.564 -248.596)" fill="#f0c6b4"/>
              <path id="Trazado_629496" data-name="Trazado 629496" d="M254.73,251.459a1.576,1.576,0,0,1,.977.579s.573.07.838-.71a5.4,5.4,0,0,1,.337-.95,1.082,1.082,0,0,1,.955-.3c.265.026.569.454.486,1,1.351-.732,2.992-4.031-2.036-3.528-2.581.26-2.364,2.714-2.367,3.321a2.4,2.4,0,0,0,.67,1.556S254.276,251.4,254.73,251.459Z" transform="translate(-241.181 -247.497)" fill="#303033"/>
              <path id="Trazado_629497" data-name="Trazado 629497" d="M266.227,265.3c2.125-.569,2.2,2.086,2.4,3.166.092.489.222,2.375.307,3.19.116,1.112-3.616,1.5-3.739.674-.088-.6-.229-1.764-.253-2.485C264.912,268.849,264.042,265.888,266.227,265.3Z" transform="translate(-246.333 -255.929)" fill="#e6e7e8"/>
            </g>
            <g id="Grupo_901678" data-name="Grupo 901678" transform="translate(160.527 49.616)">
              <path id="Trazado_629498" data-name="Trazado 629498" d="M330.455,285.315a25.856,25.856,0,0,1,2.634,4.327,5.856,5.856,0,0,1-.335,3.762c-.222.347-2.771.784-2.771.784l-.831-2.951a9.987,9.987,0,0,0,1.369-.2c-.8-1.308-1.331-4.511-1.568-4.935Z" transform="translate(-323.269 -285.315)" fill="#f0c6b4"/>
              <path id="Trazado_629499" data-name="Trazado 629499" d="M318.114,298.133c-.069,2.293,1.37,3.368,2.247,2.632,1.938-1.628,3.889-1.281,4.737-1.389,1.157-.149.665-3.869-.2-3.8-.628.05-1.562.17-2.642.19C321.209,295.79,318.185,295.774,318.114,298.133Z" transform="translate(-318.111 -290.198)" fill="#e6e7e8"/>
            </g>
            <path id="Trazado_629500" data-name="Trazado 629500" d="M222.838,265.166a34.348,34.348,0,0,1-22.968-8.4c-2.255-2.007-3.681-1.472-7.12-.186-3.879,1.453-9.744,3.646-20.389,2.817-6.59-.513-13.449-4.815-22.133-10.261-7.09-4.447-15.127-9.487-24.877-13.6-4.163-1.754-9.426-4.609-15.52-7.915-4.322-2.346-8.791-4.771-13.395-7.088a2.956,2.956,0,0,0-1.909-.433c-.637.221-1.166,1.343-1.725,2.531-1,2.132-2.378,5.053-5.93,6.167-5.1,1.6-13.18-.95-25.422-8.017a1.209,1.209,0,1,1,1.209-2.094c11.3,6.523,19.2,9.146,23.49,7.8,2.539-.8,3.518-2.876,4.465-4.888.783-1.663,1.522-3.234,3.124-3.787a4.834,4.834,0,0,1,3.784.559c4.637,2.333,9.123,4.768,13.461,7.121,6.038,3.276,11.252,6.106,15.3,7.813,9.93,4.184,18.054,9.279,25.222,13.775,8.4,5.269,15.04,9.432,21.037,9.9,10.109.787,15.454-1.211,19.354-2.672,3.615-1.352,6.228-2.333,9.576.643,11.416,10.148,26.128,7.44,26.274,7.411a1.209,1.209,0,0,1,.465,2.374A30.176,30.176,0,0,1,222.838,265.166Z" transform="translate(-35.208 -203.504)" fill="#121214"/>
            <path id="Trazado_629501" data-name="Trazado 629501" d="M326.818,285.87c-.129.021-1.434.858-1.9.822s-1.259-.463-1.259-.81c0-.59.947-2.255,1.633-2.284a4.47,4.47,0,0,1,2.645.9C328.324,285.041,326.818,285.87,326.818,285.87Z" transform="translate(-160.222 -234.883)" fill="#f0c6b4"/>
            <path id="Trazado_629502" data-name="Trazado 629502" d="M374.618,407.77c.131,1.926,5.325,4.553,11.6,5.867s11.259.818,11.127-1.107-5.329-4.551-11.6-5.864S374.483,405.847,374.618,407.77Z" transform="translate(-184.462 -293.074)" opacity="0.3"/>
            <path id="Trazado_629503" data-name="Trazado 629503" d="M403.775,331.164s.613-1.044,2.131-.138c1.23.738.92,1.567.92,1.567l-.836,1.349-2.186-.411-.3-1.223Z" transform="translate(-198.205 -257.267)" fill="#bcbec0"/>
            <path id="Trazado_629504" data-name="Trazado 629504" d="M403.553,318.6s.9-1.495,1.327-2.335c.463-2.11,2.2-6.862,2.2-6.862a11.217,11.217,0,0,1-.729-1.716c-.007-.276.168-1.891.489-1.955s.256,1.35.322,1.376c.449-.18.514-1.08.514-1.08s0-1.645.476-1.777,1.46,2.006,1.452,2.443a28.224,28.224,0,0,1-1.015,3.122s-.034,5.453-1.029,7.274c-.368.672-2.162,4.507-2.162,4.507l-2.354-1.209Z" transform="translate(-197.983 -244.705)" fill="#f0c6b4"/>
            <path id="Trazado_629505" data-name="Trazado 629505" d="M399.677,338.448c-1.575-.735-1-2.583-.754-3.079.667-1.357,2.148-2.764,2.526-3.744-.275,1.133,1.585,2.993,3.051,1.429-.38.993-2.033,4.308-2.262,5.64C402.054,339.751,401.427,339.264,399.677,338.448Z" transform="translate(-195.879 -257.728)" fill="#e6e7e8"/>
            <path id="Trazado_629506" data-name="Trazado 629506" d="M392.5,337.134a7.391,7.391,0,0,1,.149,1.278l.2,1.415,2.2,2.349,2.516-.49V339.74l-1.444-3.6-3.234.135A3.793,3.793,0,0,1,392.5,337.134Z" transform="translate(-192.968 -259.875)" fill="#c7a496"/>
            <path id="Trazado_629507" data-name="Trazado 629507" d="M408.216,412.638a12.679,12.679,0,0,0,3.06,1.995c.41.2.564,1.741,0,1.79a5.31,5.31,0,0,1-1.79-.178,6.64,6.64,0,0,1-1.917-1.016,6,6,0,0,1-2.162-.514c-.289-.289-.146-1.974-.146-1.974A22.523,22.523,0,0,1,408.216,412.638Z" transform="translate(-199.02 -296.247)" fill="#603913"/>
            <path id="Trazado_629508" data-name="Trazado 629508" d="M401.4,364.4c2.679,7.837,2.534,18.462,3.293,25.025.132,1.139-4.26,1.771-4.26,0,0-9.314-3.268-17.974-3.409-19.76S400.981,363.665,401.4,364.4Z" transform="translate(-195.119 -273.278)" fill="#121214"/>
            <path id="Trazado_629509" data-name="Trazado 629509" d="M378.215,403.648c.071,1.4,1.478,2.769,1.8,3.265.193.3.245,1-.2,1.2a2.785,2.785,0,0,1-2.508-.06,14.9,14.9,0,0,1-2.621-3.576,1.8,1.8,0,0,1,.942-2.248S378.222,403.4,378.215,403.648Z" transform="translate(-184.445 -291.313)" fill="#603913"/>
            <path id="Trazado_629510" data-name="Trazado 629510" d="M383.5,365.054c-2.257,2.437-2.323,11.341-2.87,13.2-1.69,1.229-3.083,3.607-4.146,5.194-1.158,1.724,2.1,4.189,3.062,2.395,1.8-3.371,4.173-4.825,4.566-5.846,1.164-3.021,3.178-8.659,3.178-8.659s4.067-3.174,4.221-7.1C391.625,363.375,383.725,364.815,383.5,365.054Z" transform="translate(-185.235 -273.111)" fill="#303033"/>
            <path id="Trazado_629511" data-name="Trazado 629511" d="M398.182,362.1l-.079,1.247a7.511,7.511,0,0,1-5.868,1.9c-1.723-.184-2.144-1.077-2.144-1.077l.261-.993Z" transform="translate(-191.823 -272.224)" fill="#603913"/>
            <path id="Trazado_629512" data-name="Trazado 629512" d="M385.986,342.8c.384-.455,2.088-1.647,2.819-2.432l2.62,2.15,1.549.3.169-.389-.2-3.312h.71s3.321,1.523,2.993,6.16c-.209,2.95-.694,4.948-.649,5.709s-2.784,2.4-5.2,2.4c-1.913,0-2.72-.758-2.814-1.322-.268-1.6-2.291-4.91-2.6-5.631S386.4,343.713,385.986,342.8Z" transform="translate(-189.562 -261.293)" fill="#fff"/>
            <path id="Trazado_629513" data-name="Trazado 629513" d="M400.179,343.744a6.013,6.013,0,0,1,1.745-.527,3.872,3.872,0,0,0-1.091-1.193l-.314.172S400.268,343.571,400.179,343.744Z" transform="translate(-196.622 -262.674)" opacity="0.3"/>
            <path id="Trazado_629514" data-name="Trazado 629514" d="M395.63,343.893a7.107,7.107,0,0,0-1.442,1.047,4.857,4.857,0,0,1-2.39-3.15l2.738,1.989Z" transform="translate(-192.635 -262.563)" opacity="0.3"/>
            <path id="Trazado_629515" data-name="Trazado 629515" d="M399.86,346.447c.941,2.213.733,11.223.733,11.223l.645.551.525-.932s.247-8.733-1.661-10.979a.3.3,0,0,0-.262-.162A.644.644,0,0,1,399.86,346.447Z" transform="translate(-196.461 -264.636)" fill="#ff8400"/>
            <path id="Trazado_629516" data-name="Trazado 629516" d="M401.81,342.447a4.831,4.831,0,0,0-1.5-1.855,5.885,5.885,0,0,0,.516,1.1Z" transform="translate(-196.683 -261.994)" fill="#d1d3d4"/>
            <path id="Trazado_629517" data-name="Trazado 629517" d="M401.9,343.007c.306.1.535.589.535.589s-.612-.313-.818-.377Z" transform="translate(-197.304 -263.142)" fill="#bcbec0"/>
            <path id="Trazado_629518" data-name="Trazado 629518" d="M400.318,344.555s.289-.365.279-.556c.028-.057.143-.017.164.006a1.383,1.383,0,0,1-.336.892l-.129-.171Z" transform="translate(-196.678 -263.6)" fill="#ff8400"/>
            <path id="Trazado_629519" data-name="Trazado 629519" d="M399.575,342.509a4.751,4.751,0,0,0-.469-3.39,19.083,19.083,0,0,1,1.6,2.039A7.357,7.357,0,0,0,399.575,342.509Z" transform="translate(-196.112 -261.293)" fill="#f5f5f5"/>
            <path id="Trazado_629520" data-name="Trazado 629520" d="M397.7,345.5a6.462,6.462,0,0,1-.994-.523.218.218,0,0,0-.223.27,2.51,2.51,0,0,0,1.344.521l.028-.192Z" transform="translate(-194.857 -264.077)" fill="#ff8400"/>
            <path id="Trazado_629521" data-name="Trazado 629521" d="M396.241,344.692c.627.467.894.232.894.232a13.061,13.061,0,0,1-2.5-1.039,2.06,2.06,0,0,0,1.173.827A2.944,2.944,0,0,0,396.241,344.692Z" transform="translate(-193.987 -263.56)" fill="#bcbec0"/>
            <path id="Trazado_629522" data-name="Trazado 629522" d="M398.81,345.551l.8-.465.108.342-.106.377-.243.137-.433-.122Z" transform="translate(-195.971 -264.131)" fill="#ba6000"/>
            <path id="Trazado_629523" data-name="Trazado 629523" d="M391.712,340.693a2.544,2.544,0,0,0,.408-.8,7.72,7.72,0,0,0,2.728,2.9,3.3,3.3,0,0,0-.745,1.062S391.958,342.116,391.712,340.693Z" transform="translate(-192.594 -261.662)" fill="#f5f5f5"/>
            <path id="Trazado_629524" data-name="Trazado 629524" d="M394.307,327.879a2.677,2.677,0,0,1,1.557,2.618,16.118,16.118,0,0,1,.568,3.51,1.068,1.068,0,0,1-.91.654,5.363,5.363,0,0,1-3.114-.851,2.343,2.343,0,0,1-.462-.708s-.55.34-.824-.109a6.379,6.379,0,0,1-.993-2.167l.812-1.947,1.664-1.185S394.046,327.807,394.307,327.879Z" transform="translate(-191.842 -255.859)" fill="#f0c6b4"/>
            <path id="Trazado_629525" data-name="Trazado 629525" d="M382.245,341.708s-.3-.971,1.291-1.752c1.75-.861,2.264.406,2.264.406l.159,1.605-1.365,1.171-1.72-.268Z" transform="translate(-188.081 -261.548)" fill="#bcbec0"/>
            <path id="Trazado_629526" data-name="Trazado 629526" d="M382.179,337.134s-.276-.859-.517-1.849-.3-4.63-.665-6.369a3.151,3.151,0,0,0,1.715-.387,24.991,24.991,0,0,1,1.6,5.911,9.045,9.045,0,0,1,.969,1.733l-.661,1.253-1.649.341Z" transform="translate(-187.498 -256.255)" fill="#f0c6b4"/>
            <path id="Trazado_629527" data-name="Trazado 629527" d="M385.58,347.647c-1.664.5-2.463-1.26-2.613-1.8-.405-1.456-.329-2.52-.7-3.5.553,1.027,3.5.8,3.554-1.345.379.995.952,2.55,1.2,3.247A2.456,2.456,0,0,1,385.58,347.647Z" transform="translate(-188.101 -262.189)" fill="#e6e7e8"/>
            <path id="Trazado_629528" data-name="Trazado 629528" d="M390.661,332.616s-.7-1.25-.335-1.572.81.248.81.248a6.357,6.357,0,0,0,.243-.7c.061-.247.29-.369.407-.6s-.055-.668.049-.86,2.492-.413,2.735-1.223c.108-.359-2.435-2.167-4.671.155C387.868,330.175,390.661,332.616,390.661,332.616Z" transform="translate(-191.38 -255.481)" fill="#603913"/>
            <g id="Grupo_901684" data-name="Grupo 901684" transform="translate(184.18 51.655)">
              <g id="Grupo_901679" data-name="Grupo 901679">
                <path id="Trazado_629529" data-name="Trazado 629529" d="M363.421,303.3a.452.452,0,0,1-.2-.428v-4.9a1.462,1.462,0,0,1,.658-1.14l13.056-7.537a.446.446,0,0,1,.48-.035l13.624,7.918L377.2,311.256Z" transform="translate(-363.222 -289.206)" fill="#535359"/>
                <path id="Trazado_629530" data-name="Trazado 629530" d="M379.967,306.219l-6.866-3.964-.728.42,6.865,3.964Z" transform="translate(-367.574 -295.413)" fill="#303033"/>
                <path id="Trazado_629531" data-name="Trazado 629531" d="M389.552,318.075c0,.417.3.589.656.379l13.057-7.537a1.459,1.459,0,0,0,.656-1.14v-4.9c0-.419-.3-.588-.655-.381l-13.058,7.539a1.47,1.47,0,0,0-.656,1.138Z" transform="translate(-375.747 -296.437)" fill="#303033"/>
              </g>
              <g id="Grupo_901683" data-name="Grupo 901683" transform="translate(15.168 10.508)">
                <g id="Grupo_901680" data-name="Grupo 901680" transform="translate(10.268 0.601)">
                  <path id="Trazado_629532" data-name="Trazado 629532" d="M413.769,310.934l-.939,1.706-.9-.513v0a.476.476,0,0,1-.2-.443,1.511,1.511,0,0,1,.688-1.2.491.491,0,0,1,.473-.055Z" transform="translate(-411.735 -310.394)" fill="#ba6000"/>
                  <path id="Trazado_629533" data-name="Trazado 629533" d="M413.378,312.631c0,.44.31.618.69.4a1.521,1.521,0,0,0,.688-1.194c0-.437-.309-.616-.688-.4A1.53,1.53,0,0,0,413.378,312.631Z" transform="translate(-412.516 -310.846)" fill="#ff8400"/>
                  <path id="Trazado_629534" data-name="Trazado 629534" d="M413.755,312.746c0,.316.221.441.492.284a1.077,1.077,0,0,0,.491-.852c0-.312-.219-.441-.491-.283A1.09,1.09,0,0,0,413.755,312.746Z" transform="translate(-412.696 -311.076)" fill="#121214"/>
                </g>
                <g id="Grupo_901681" data-name="Grupo 901681" transform="translate(1.339)">
                  <path id="Trazado_629535" data-name="Trazado 629535" d="M395.736,319.153l-.879-.51a.463.463,0,0,1-.147-.47l.469-3.978a1.777,1.777,0,0,1,.752-1.188l6.352-3.666a.534.534,0,0,1,.524-.046v0l.878.505-.543.639.359,2.658a1.178,1.178,0,0,1-.561,1.075l-5.836,3.37Z" transform="translate(-394.704 -309.247)" fill="#ba6000"/>
                  <path id="Trazado_629536" data-name="Trazado 629536" d="M396.356,319.125c-.05.444.2.635.563.428l7.668-4.426a1.184,1.184,0,0,0,.56-1.077l-.466-3.438c-.051-.384-.39-.526-.752-.316l-6.353,3.668a1.768,1.768,0,0,0-.751,1.184Z" transform="translate(-395.487 -309.699)" fill="#ff8400"/>
                  <path id="Trazado_629537" data-name="Trazado 629537" d="M397.394,319.089c-.044.39.177.556.494.375l6.719-3.879a1.038,1.038,0,0,0,.493-.945l-.411-3.012c-.045-.337-.342-.459-.657-.278l-5.567,3.214a1.551,1.551,0,0,0-.658,1.039Z" transform="translate(-395.981 -310.207)" fill="#535359"/>
                  <path id="Trazado_629538" data-name="Trazado 629538" d="M408.79,313.139c0,.189.131.264.293.17a.64.64,0,0,0,.294-.509c0-.187-.131-.264-.294-.17A.65.65,0,0,0,408.79,313.139Z" transform="translate(-401.404 -310.838)" fill="#121214"/>
                  <path id="Trazado_629539" data-name="Trazado 629539" d="M406.286,314.586c0,.188.13.264.293.17a.643.643,0,0,0,.294-.508c0-.19-.13-.265-.294-.173A.648.648,0,0,0,406.286,314.586Z" transform="translate(-400.213 -311.525)" fill="#121214"/>
                  <path id="Trazado_629540" data-name="Trazado 629540" d="M403.78,316.03c0,.189.132.264.3.17a.643.643,0,0,0,.293-.508c0-.187-.13-.264-.294-.17A.651.651,0,0,0,403.78,316.03Z" transform="translate(-399.021 -312.213)" fill="#121214"/>
                  <path id="Trazado_629541" data-name="Trazado 629541" d="M401.276,317.478c0,.189.131.264.293.17a.645.645,0,0,0,.295-.51c0-.188-.132-.263-.294-.169A.647.647,0,0,0,401.276,317.478Z" transform="translate(-397.83 -312.901)" fill="#121214"/>
                  <path id="Trazado_629542" data-name="Trazado 629542" d="M398.772,318.924c0,.187.131.263.294.169a.647.647,0,0,0,.294-.51c0-.186-.132-.262-.294-.169A.648.648,0,0,0,398.772,318.924Z" transform="translate(-396.639 -313.589)" fill="#121214"/>
                  <path id="Trazado_629543" data-name="Trazado 629543" d="M408.79,318.62c0,.188.131.261.292.168a.642.642,0,0,0,.3-.508c0-.188-.131-.264-.293-.171A.653.653,0,0,0,408.79,318.62Z" transform="translate(-401.404 -313.443)" fill="#121214"/>
                  <path id="Trazado_629544" data-name="Trazado 629544" d="M406.286,320.065c0,.187.131.263.293.168a.648.648,0,0,0,.295-.506c0-.189-.131-.265-.294-.171A.646.646,0,0,0,406.286,320.065Z" transform="translate(-400.213 -314.131)" fill="#121214"/>
                  <path id="Trazado_629545" data-name="Trazado 629545" d="M403.78,321.51c0,.189.132.263.294.17a.649.649,0,0,0,.295-.508c0-.187-.131-.263-.294-.17A.647.647,0,0,0,403.78,321.51Z" transform="translate(-399.021 -314.819)" fill="#121214"/>
                  <path id="Trazado_629546" data-name="Trazado 629546" d="M401.278,322.957c0,.189.13.263.294.168a.647.647,0,0,0,.293-.507c0-.189-.13-.264-.294-.17A.645.645,0,0,0,401.278,322.957Z" transform="translate(-397.831 -315.507)" fill="#121214"/>
                  <path id="Trazado_629547" data-name="Trazado 629547" d="M398.772,324.4c0,.189.131.263.293.17a.65.65,0,0,0,.3-.509c0-.189-.131-.265-.294-.17A.646.646,0,0,0,398.772,324.4Z" transform="translate(-396.639 -316.194)" fill="#121214"/>
                  <path id="Trazado_629548" data-name="Trazado 629548" d="M409.9,315.308c0,.188.132.264.294.171a.647.647,0,0,0,.293-.512c0-.186-.13-.262-.292-.168A.645.645,0,0,0,409.9,315.308Z" transform="translate(-401.933 -311.869)" fill="#121214"/>
                  <path id="Trazado_629549" data-name="Trazado 629549" d="M407.395,316.754c0,.189.132.263.3.171a.652.652,0,0,0,.294-.512c0-.186-.132-.262-.3-.169A.657.657,0,0,0,407.395,316.754Z" transform="translate(-400.741 -312.557)" fill="#121214"/>
                  <path id="Trazado_629550" data-name="Trazado 629550" d="M404.894,318.2c0,.191.131.264.293.172a.647.647,0,0,0,.3-.511c0-.185-.132-.262-.3-.167A.646.646,0,0,0,404.894,318.2Z" transform="translate(-399.551 -313.245)" fill="#121214"/>
                  <path id="Trazado_629551" data-name="Trazado 629551" d="M402.386,319.645c0,.189.133.263.3.17a.648.648,0,0,0,.294-.51c0-.186-.133-.263-.294-.168A.654.654,0,0,0,402.386,319.645Z" transform="translate(-398.358 -313.932)" fill="#121214"/>
                  <path id="Trazado_629552" data-name="Trazado 629552" d="M399.884,321.09c0,.191.132.266.294.172a.651.651,0,0,0,.3-.511c0-.187-.133-.263-.3-.169A.65.65,0,0,0,399.884,321.09Z" transform="translate(-397.168 -314.62)" fill="#121214"/>
                </g>
                <g id="Grupo_901682" data-name="Grupo 901682" transform="translate(0 6.529)">
                  <path id="Trazado_629553" data-name="Trazado 629553" d="M394.186,322.24l-.939,1.706-.894-.515h0a.481.481,0,0,1-.2-.443,1.523,1.523,0,0,1,.688-1.195.5.5,0,0,1,.476-.055Z" transform="translate(-392.151 -321.699)" fill="#ba6000"/>
                  <path id="Trazado_629554" data-name="Trazado 629554" d="M393.794,323.936c0,.44.313.616.691.4a1.523,1.523,0,0,0,.688-1.195c0-.438-.308-.614-.687-.4A1.542,1.542,0,0,0,393.794,323.936Z" transform="translate(-392.933 -322.151)" fill="#ff8400"/>
                  <path id="Trazado_629555" data-name="Trazado 629555" d="M394.175,324.052c0,.316.22.441.491.285a1.084,1.084,0,0,0,.492-.853c0-.311-.221-.44-.493-.282A1.087,1.087,0,0,0,394.175,324.052Z" transform="translate(-393.114 -322.382)" fill="#121214"/>
                </g>
              </g>
            </g>
            <path id="Trazado_629556" data-name="Trazado 629556" d="M378.254,326.077s-1.571-.713-1.923-.961a6.8,6.8,0,0,1-.985-1.183c-.087-.1-.232-1.321.051-1.365a4.022,4.022,0,0,1,2.016.618,1.9,1.9,0,0,1,.385.979,10.607,10.607,0,0,1,1.915.987c.192.13.256.538.256.538l-.2.5-1.132.224Z" transform="translate(-184.754 -253.416)" fill="#f0c6b4"/>
            <g id="Grupo_901686" data-name="Grupo 901686" transform="translate(147.323 49.574)">
              <g id="Grupo_901685" data-name="Grupo 901685">
                <path id="Trazado_629557" data-name="Trazado 629557" d="M292.958,364.584c-.443,2,4.133,4.5,10.217,5.575s11.379.32,11.822-1.684-4.132-4.5-10.219-5.576S293.4,362.579,292.958,364.584Z" transform="translate(-292.928 -321.946)" opacity="0.3"/>
                <path id="Trazado_629558" data-name="Trazado 629558" d="M323.98,368.648a11.407,11.407,0,0,0,3.506,1.142c.445.068,1.027,1.325.5,1.539a3.837,3.837,0,0,1-1.749.361,5.818,5.818,0,0,1-2-.534s-1.576.538-2.34-.052c-.322-.249-.335-2.214-.335-2.214S323.714,368.606,323.98,368.648Z" transform="translate(-306.551 -324.911)" fill="#f5f5f5"/>
                <path id="Trazado_629559" data-name="Trazado 629559" d="M319.888,327.228c1.151,3.664,1.021,14.849,1.994,21.324.168,1.126-4.055,1.89-4.222.143-.885-9.2-2.41-16.479-2.609-18.245S319.45,326.513,319.888,327.228Z" transform="translate(-303.448 -305.144)" fill="#3c2415"/>
                <path id="Trazado_629560" data-name="Trazado 629560" d="M298.445,361.458c.119,1.384,1.557,2.7,1.9,3.177.2.289.273.987-.161,1.2a2.762,2.762,0,0,1-2.488.021,14.82,14.82,0,0,1-2.717-3.455,1.778,1.778,0,0,1,.861-2.257A12.967,12.967,0,0,1,298.445,361.458Z" transform="translate(-293.841 -320.867)" fill="#f5f5f5"/>
                <path id="Trazado_629561" data-name="Trazado 629561" d="M302.619,322.849c-2.154,2.487-1.923,11.315-2.4,13.172-1.632,1.275-2.934,3.679-3.936,5.286-1.091,1.747,2.223,4.078,3.113,2.268,1.673-3.4,3.975-4.919,4.33-5.943,1.055-3.032,3.13-8.925,3.13-8.925s3.658-3.041,3.678-6.939C310.611,320.916,302.833,322.605,302.619,322.849Z" transform="translate(-294.419 -302.5)" fill="#603913"/>
                <path id="Trazado_629562" data-name="Trazado 629562" d="M312.706,295.757a2.945,2.945,0,0,1-.383,1.384l1.206,2.158,2.1,1.117,1.7-.863-.448-2.009-.942-1.9-2.763-.513S312.813,295.577,312.706,295.757Z" transform="translate(-302.154 -289.942)" fill="#c7a496"/>
                <path id="Trazado_629563" data-name="Trazado 629563" d="M306.083,300.7a20.619,20.619,0,0,1,2.813-2.132c.032.886,1.713,1.8,2.65,2.243a2.014,2.014,0,0,0,1.48.167.914.914,0,0,0,.415-.93,1.551,1.551,0,0,0-.5-1.669c.56-.417,1.017-.743,1.017-.743s1.909,1.309,2.125,4.808c.176,2.853-.763,5.934-.4,10.227.1,1.238.036,2.274-1.608,2.918a3.8,3.8,0,0,1-.577-1.165,6.727,6.727,0,0,0-.26,1.535c-3.043,1.242-4-1.312-5.309-1.637a1.951,1.951,0,0,0-2.208,1.26c.386-5.079.7-11.1.7-11.1Z" transform="translate(-299.015 -291.134)" fill="#fff"/>
                <path id="Trazado_629564" data-name="Trazado 629564" d="M319.989,301.853a5.955,5.955,0,0,1,1.744-.528,3.844,3.844,0,0,0-1.087-1.194l-.315.173S320.079,301.68,319.989,301.853Z" transform="translate(-305.801 -292.321)" opacity="0.3"/>
                <path id="Trazado_629565" data-name="Trazado 629565" d="M315.44,302A7.015,7.015,0,0,0,314,303.048a4.858,4.858,0,0,1-2.391-3.151l2.737,1.989Z" transform="translate(-301.814 -292.21)" opacity="0.3"/>
                <path id="Trazado_629566" data-name="Trazado 629566" d="M319.67,304.555c.941,2.212.912,11.263.912,11.263l.645.549.524-1.523s.071-8.18-1.838-10.427a.3.3,0,0,0-.262-.162A.637.637,0,0,1,319.67,304.555Z" transform="translate(-305.64 -294.283)" fill="#1d374e"/>
                <path id="Trazado_629567" data-name="Trazado 629567" d="M321.618,300.556a4.776,4.776,0,0,0-1.5-1.852,5.954,5.954,0,0,0,.518,1.1Z" transform="translate(-305.861 -291.642)" fill="#d1d3d4"/>
                <path id="Trazado_629568" data-name="Trazado 629568" d="M321.709,301.115c.307.1.533.588.533.588s-.611-.312-.815-.377Z" transform="translate(-306.485 -292.789)" fill="#bcbec0"/>
                <path id="Trazado_629569" data-name="Trazado 629569" d="M320.129,302.663s.288-.366.282-.553c.025-.058.14-.019.16.005a1.372,1.372,0,0,1-.335.892l-.127-.174Z" transform="translate(-305.858 -293.248)" fill="#1d374e"/>
                <path id="Trazado_629570" data-name="Trazado 629570" d="M319.387,300.618a4.752,4.752,0,0,0-.47-3.388,18.778,18.778,0,0,1,1.6,2.037A7.432,7.432,0,0,0,319.387,300.618Z" transform="translate(-305.291 -290.941)" fill="#f5f5f5"/>
                <path id="Trazado_629571" data-name="Trazado 629571" d="M317.509,303.605a6.563,6.563,0,0,1-1-.522c-.2-.027-.262.227-.223.271a2.519,2.519,0,0,0,1.343.52l.029-.192Z" transform="translate(-304.036 -293.724)" fill="#1d374e"/>
                <path id="Trazado_629572" data-name="Trazado 629572" d="M316.055,302.8c.627.468.891.234.891.234a13.027,13.027,0,0,1-2.494-1.041,2.064,2.064,0,0,0,1.172.829A2.966,2.966,0,0,0,316.055,302.8Z" transform="translate(-303.167 -293.206)" fill="#bcbec0"/>
                <path id="Trazado_629573" data-name="Trazado 629573" d="M318.624,303.658l.8-.466.107.344-.105.376-.243.137-.433-.123Z" transform="translate(-305.151 -293.777)" fill="#0f2034"/>
                <path id="Trazado_629574" data-name="Trazado 629574" d="M311.522,298.765a4.486,4.486,0,0,0,.617-.835,8.329,8.329,0,0,0,2.522,2.937,3.276,3.276,0,0,0-.745,1.064S311.767,300.188,311.522,298.765Z" transform="translate(-301.773 -291.274)" fill="#f5f5f5"/>
                <path id="Trazado_629575" data-name="Trazado 629575" d="M317.039,288.651a4.281,4.281,0,0,1,.813,2.222,2.008,2.008,0,0,1-.19.62,1.868,1.868,0,0,1,.1.73,12.587,12.587,0,0,1-.489,2.686,1.456,1.456,0,0,1-1.155.381,4.308,4.308,0,0,1-2.488-1.68,1.881,1.881,0,0,1-.248-.643s-.394.212-.835-.273a19.686,19.686,0,0,1-.769-1.974l1.886-1.388,2.083-.952Z" transform="translate(-301.893 -286.731)" fill="#f0c6b4"/>
                <path id="Trazado_629576" data-name="Trazado 629576" d="M314.675,288.647c2.153,0,2.707.57,3.055-.23.224-.519-1.157-2.385-2.753-2.991a2.2,2.2,0,0,0-2.72.724,2,2,0,0,0-1.43,2.522,4.054,4.054,0,0,0,1.245,2.526s-.575-1.417.1-1.446c.455-.018.944.877.944.877a1.415,1.415,0,0,1,.527-.607C314.643,289.6,314.528,288.639,314.675,288.647Z" transform="translate(-301.423 -285.236)" fill="#603913"/>
                <path id="Trazado_629577" data-name="Trazado 629577" d="M313.95,287.266c.18-.154,1.824,1.711,1.824,1.711S313.769,287.42,313.95,287.266Z" transform="translate(-302.922 -286.197)" fill="#3c2415"/>
                <path id="Trazado_629578" data-name="Trazado 629578" d="M303.575,313.683a11.83,11.83,0,0,1-1.592,2.941c.545,1.861.113,6.873.355,7.422l-1.578.24c-.53-2.369-2-6.135-1.526-8.168.246-1.063,1.577-4.444,1.577-4.444l2.1.667A3.314,3.314,0,0,1,303.575,313.683Z" transform="translate(-295.884 -297.812)" fill="#f0c6b4"/>
                <path id="Trazado_629579" data-name="Trazado 629579" d="M302.229,335.07s.189,2.452.316,2.786c.346.884,1.922,1.887,2.172,1.743s-.446-1.887-.446-1.887l.167-.908s.669,1.086,1.008.9-.3-1.425-.514-1.765a8.992,8.992,0,0,0-1.125-1.107l-.981-.485Z" transform="translate(-297.353 -308.595)" fill="#f0c6b4"/>
                <path id="Trazado_629580" data-name="Trazado 629580" d="M304.679,303.689c-1.991-1.137-2.768,1.524-3.258,2.559-.221.468-.852,2.338-1.153,3.139-.413,1.09,3.249,2.468,3.593,1.668.246-.581.7-1.719.91-2.441C305.068,307.615,306.73,304.858,304.679,303.689Z" transform="translate(-296.405 -293.882)" fill="#e6e7e8"/>
              </g>
            </g>
            <path id="Trazado_629581" data-name="Trazado 629581" d="M257.8,291.857c.027-.307-.013-.814.365-.839s2.061.782,2.212,1.407a1.6,1.6,0,0,1-.385,1.235,1.811,1.811,0,0,1-1.353-.083A2.49,2.49,0,0,1,257.8,291.857Z" transform="translate(-128.897 -238.412)" fill="#f0c6b4"/>
            <path id="Trazado_629582" data-name="Trazado 629582" d="M231.438,276.553a.908.908,0,0,1-.19,1.339,2.868,2.868,0,0,1-2.471-.9c-.288-.653-.205-1.46.285-1.555S231.059,276.288,231.438,276.553Z" transform="translate(-115.011 -230.998)" fill="#f0c6b4"/>
            <g id="Grupo_901687" data-name="Grupo 901687" transform="translate(83.147 15.298)">
              <path id="Trazado_629583" data-name="Trazado 629583" d="M190.726,299.578c.193,1.684-3.7,3.518-8.7,4.1s-9.209-.311-9.4-1.992,3.7-3.518,8.7-4.1S190.53,297.9,190.726,299.578Z" transform="translate(-171.523 -256.749)" opacity="0.3"/>
              <path id="Trazado_629584" data-name="Trazado 629584" d="M174.587,243.163s.076.8.127,1.217c.158,1.263,2.109,3.192,2.092,4.457-.009.759-3.55-1.333-3.8-2.1a16.036,16.036,0,0,1-.847-3.553,2.751,2.751,0,0,1,.071-.857Z" transform="translate(-171.301 -230.549)" fill="#f0c6b4"/>
              <path id="Trazado_629585" data-name="Trazado 629585" d="M178.668,231.121a1.123,1.123,0,0,1,.358-.686l.33.6-.24.9h-.559S178.606,231.441,178.668,231.121Z" transform="translate(-174.349 -224.892)" fill="#bcbec0"/>
              <path id="Trazado_629586" data-name="Trazado 629586" d="M184.181,222.753a3.512,3.512,0,0,1,.3,2.148c-.209,1.947-.569,2.952-.9,3.105s-.762-.007-.865.06a6.917,6.917,0,0,0-.224,1.357l-2.17.179-1.389-.643-.128-.669a3.944,3.944,0,0,0,.222-1.365c.15-.892.825-2.984.825-2.984Z" transform="translate(-174.468 -221.238)" fill="#f0c6b4"/>
              <path id="Trazado_629587" data-name="Trazado 629587" d="M172.549,233.137c3.323-.206,2.021,2.594,2.146,3.735.067.6-.025.4.077,1.21.138,1.11-3.494,1.679-3.65.365-.125-1.043-.466-1.652-.572-2.571C170.479,235.248,170.495,233.265,172.549,233.137Z" transform="translate(-170.531 -226.172)" fill="#e6e7e8"/>
              <path id="Trazado_629588" data-name="Trazado 629588" d="M197.388,298.921c.927.17,1.925-.084,2.282.122.44.255.871,1.376.051,1.868a9.076,9.076,0,0,1-2.488.977c-.874.34-1.774.817-2.343.623-1.006-.35-.5-2.88-.5-2.88A13.489,13.489,0,0,1,197.388,298.921Z" transform="translate(-181.82 -257.463)" fill="#603913"/>
              <path id="Trazado_629589" data-name="Trazado 629589" d="M176.653,300.3c1.14.309,1.823.1,2.415.438.443.25.6.838-.257,1.273a17.057,17.057,0,0,1-2.5.927c-.677.35-1.475,1.146-2.159.951-1.313-.373-.118-2.109-.091-2.945C174.4,300.978,176.18,300.169,176.653,300.3Z" transform="translate(-171.962 -258.117)" fill="#603913"/>
              <path id="Trazado_629590" data-name="Trazado 629590" d="M175.314,263.954c-.043,2.693.615,8.477,0,9.975-1.185,2.883-1.195,6.2-1.316,9.805-.04,1.149,3.864.9,3.868-.876.01-5.457,3-14.332,3.054-16.52Z" transform="translate(-172.18 -240.836)" fill="#121214"/>
              <path id="Trazado_629591" data-name="Trazado 629591" d="M177.636,255.6c-.654.967-1.636,4.4-.826,5.566.867,1.248,5.125,2.577,5.125,2.577a55.984,55.984,0,0,1,3.418,15.643c.1,1.145,4,.67,3.912-1.1-.618-11.973-2.025-15.886-2.916-19.043a10.977,10.977,0,0,1-.486-2.7S177.77,255.369,177.636,255.6Z" transform="translate(-173.372 -236.849)" fill="#303033"/>
              <path id="Trazado_629592" data-name="Trazado 629592" d="M186.776,253.376a12.719,12.719,0,0,0,.11,1.687c.154,1.105-2.762,1.488-4.2,1.262-3.075-.482-4.123-1.731-4.026-2.2a13.676,13.676,0,0,0,.208-1.662Z" transform="translate(-174.393 -235.37)" fill="#603913"/>
              <path id="Trazado_629593" data-name="Trazado 629593" d="M182.29,237.573a19.987,19.987,0,0,0-2.669-2.289c-3.55-.1-4.065-1.287-4.065-1.287s-1.775-.051-2.47.822-.42,2.573.2,4.272,2.453,3.991,2.686,4.994,1.93,2.445,4.916,2.521,3.01-1.518,3.01-1.518Z" transform="translate(-171.552 -226.586)" fill="#fff"/>
              <path id="Trazado_629594" data-name="Trazado 629594" d="M183.577,221.378c-.139.154.468,1.033.039,1.548s-.446,1.475-.567,1.612-.4-.436-.685-.137A3.052,3.052,0,0,0,181.9,226a1.3,1.3,0,0,1-1.253.858c-1.8.061-2.252-.9-2.252-.9a4.884,4.884,0,0,1-.631-4.143c.756-2.244,3.449-1.782,4.908-1.936C183.778,219.755,183.868,220.9,183.577,221.378Z" transform="translate(-173.864 -219.863)" fill="#ff8400"/>
              <path id="Trazado_629595" data-name="Trazado 629595" d="M183.764,222.76c-.038.308,2.775-.081,2.775-.081S183.8,222.452,183.764,222.76Z" transform="translate(-176.825 -221.164)" fill="#ba6000"/>
              <path id="Trazado_629596" data-name="Trazado 629596" d="M194.647,251.078a10.922,10.922,0,0,1,1.324,2.688c1.773,1.208,3.47,3.1,4.794,4.063l2.636,1.629a2.359,2.359,0,0,1-1.964.621,9.1,9.1,0,0,1-1.889-1.2c-1.781-1.34-4.735-1.964-6.059-3.965-.2-.551-1.132-1.455-1.506-2.239A10.775,10.775,0,0,0,194.647,251.078Z" transform="translate(-180.735 -234.711)" fill="#f0c6b4"/>
              <path id="Trazado_629597" data-name="Trazado 629597" d="M186.927,240.43c1.59-.946,2.943,1.465,3.547,2.442.321.518,1.132,2.01,1.571,2.7.6.942-2.761,2.949-3.267,2.028s-1.758-2.63-2.249-3.415C186.194,243.645,185.158,241.481,186.927,240.43Z" transform="translate(-177.852 -229.544)" fill="#e6e7e8"/>
              <path id="Trazado_629598" data-name="Trazado 629598" d="M177.888,234s-.6,1.133,1.737,1.719c2.06.518,2.752-.223,2.752-.223Z" transform="translate(-173.998 -226.587)" fill="#bcbec0"/>
              <path id="Trazado_629599" data-name="Trazado 629599" d="M178.374,231.744a3.091,3.091,0,0,1-.387.964c-.531,1.834,3.586,2.406,4.757,1.544a6.562,6.562,0,0,1-.427-1.087C179.428,233.911,178.23,232.675,178.374,231.744Z" transform="translate(-174.055 -225.515)" fill="#fff"/>
            </g>
            <path id="Trazado_629600" data-name="Trazado 629600" d="M154.753,236.4c.027-.307.03-.562.408-.587s2.018.531,2.169,1.155a6.8,6.8,0,0,1,.177.972,2.12,2.12,0,0,1-1.267.281C155.4,238.091,154.726,236.709,154.753,236.4Z" transform="translate(-79.878 -212.153)" fill="#f0c6b4"/>
            <path id="Trazado_629601" data-name="Trazado 629601" d="M127.8,221.457a.907.907,0,0,1-.19,1.338,2.867,2.867,0,0,1-2.471-.9c-.288-.652-.205-1.46.284-1.555S127.419,221.19,127.8,221.457Z" transform="translate(-65.712 -204.79)" fill="#f0c6b4"/>
          </g>
        </g>
        <path id="Trazado_114005" data-name="Trazado 114005" d="M199.278,0V171.111s2.976,59.559-56.194,59.231S0,230.343,0,230.343" transform="translate(1344.296 631.98) rotate(180)" fill="none" stroke="#0b5999" stroke-width="4"/>
        <path id="Trazado_114006" data-name="Trazado 114006" d="M39.254,25.83l-13.5,13.538a7.166,7.166,0,0,1-10.154,0L2.1,25.83a7.217,7.217,0,0,1,0-10.184L15.6,2.109a7.166,7.166,0,0,1,10.154,0l13.5,13.537A7.215,7.215,0,0,1,39.254,25.83Z" transform="translate(1166.357 655.355) rotate(180)" fill="#0b5999" opacity="0.999"/>
        <path id="Trazado_114007" data-name="Trazado 114007" d="M19.627,12.915l-6.749,6.769a3.583,3.583,0,0,1-5.077,0L1.051,12.915a3.608,3.608,0,0,1,0-5.092L7.8,1.055a3.583,3.583,0,0,1,5.077,0l6.749,6.769A3.608,3.608,0,0,1,19.627,12.915Z" transform="translate(1363.763 411.95) rotate(180)" fill="#0b5999" opacity="0.999"/>
        <g id="Rectngulo_303867" data-name="Rectngulo 303867" transform="translate(1166.667 419)" fill="none" stroke="#4dd0e1" stroke-width="4">
          <rect width="253" height="262" rx="33" stroke="none"/>
          <rect x="2" y="2" width="249" height="258" rx="31" fill="none"/>
        </g>
      </g>
    </g>
  </g>
</svg>
