<svg xmlns="http://www.w3.org/2000/svg" xmlns:xlink="http://www.w3.org/1999/xlink" width="435.64" height="288.697" viewBox="0 0 435.64 288.697">
  <defs>
    <linearGradient id="linear-gradient" x1="-1.596" y1="0.627" x2="-0.601" y2="0.627" gradientUnits="objectBoundingBox">
      <stop offset="0" stop-color="#4dd0e1"/>
      <stop offset="1" stop-color="#3ea8b5"/>
      <stop offset="1" stop-color="#f895e7"/>
    </linearGradient>
    <linearGradient id="linear-gradient-2" y1="0.5" x2="1" y2="0.5" gradientUnits="objectBoundingBox">
      <stop offset="0" stop-color="#4dd0e1"/>
      <stop offset="1" stop-color="#96e7f2"/>
    </linearGradient>
    <linearGradient id="linear-gradient-3" x1="0.062" y1="0.051" x2="0.77" y2="0.808" gradientUnits="objectBoundingBox">
      <stop offset="0" stop-color="#0b5999"/>
      <stop offset="1" stop-color="#4dd0e1"/>
    </linearGradient>
    <linearGradient id="linear-gradient-4" x1="0.024" y1="0.781" x2="0.986" y2="0.252" gradientUnits="objectBoundingBox">
      <stop offset="0" stop-color="#53d8ff"/>
      <stop offset="1" stop-color="#3840f7"/>
    </linearGradient>
    <linearGradient id="linear-gradient-5" x1="1.085" y1="0.004" x2="-0.139" y2="0.994" gradientUnits="objectBoundingBox">
      <stop offset="0" stop-color="#2b3582"/>
      <stop offset="1" stop-color="#150e42"/>
    </linearGradient>
    <linearGradient id="linear-gradient-6" x1="0.862" y1="-0.007" x2="0.162" y2="1.009" xlink:href="#linear-gradient-5"/>
    <linearGradient id="linear-gradient-7" x1="0.903" y1="-0.012" x2="-0.557" y2="1.832" xlink:href="#linear-gradient-4"/>
    <linearGradient id="linear-gradient-8" x1="0.52" y1="1.509" x2="0.468" y2="0.18" xlink:href="#linear-gradient-5"/>
    <linearGradient id="linear-gradient-9" x1="0.525" y1="0.297" x2="0.225" y2="5.134" xlink:href="#linear-gradient-5"/>
    <linearGradient id="linear-gradient-10" x1="0" y1="0.5" x2="1" y2="0.5" xlink:href="#linear-gradient-5"/>
    <linearGradient id="linear-gradient-11" x1="0.393" y1="0.178" x2="0.796" y2="1.384" gradientUnits="objectBoundingBox">
      <stop offset="0" stop-color="#fdf53f"/>
      <stop offset="0.665" stop-color="#e57a58"/>
      <stop offset="1" stop-color="#d93c65"/>
    </linearGradient>
    <linearGradient id="linear-gradient-12" x1="1299.659" y1="0.23" x2="1218.857" y2="1.744" xlink:href="#linear-gradient-4"/>
    <linearGradient id="linear-gradient-13" x1="1305.563" y1="0.119" x2="1224.762" y2="1.633" xlink:href="#linear-gradient-4"/>
    <linearGradient id="linear-gradient-14" x1="48.354" y1="0.5" x2="49.354" y2="0.5" gradientUnits="objectBoundingBox">
      <stop offset="0" stop-color="#9cfffb"/>
      <stop offset="1" stop-color="#9bfffa"/>
    </linearGradient>
    <linearGradient id="linear-gradient-15" x1="48.354" y1="0.5" x2="49.354" y2="0.5" xlink:href="#linear-gradient-14"/>
    <linearGradient id="linear-gradient-16" x1="41.699" y1="0.5" x2="42.699" y2="0.5" xlink:href="#linear-gradient-14"/>
    <linearGradient id="linear-gradient-17" x1="76.288" y1="0.5" x2="77.288" y2="0.5" xlink:href="#linear-gradient-14"/>
    <linearGradient id="linear-gradient-18" x1="81.103" y1="0.5" x2="82.103" y2="0.5" xlink:href="#linear-gradient-14"/>
    <linearGradient id="linear-gradient-20" x1="76.287" y1="0.5" x2="77.287" y2="0.5" xlink:href="#linear-gradient-14"/>
    <linearGradient id="linear-gradient-21" x1="76.287" y1="0.5" x2="77.287" y2="0.5" xlink:href="#linear-gradient-14"/>
    <linearGradient id="linear-gradient-22" x1="0.489" y1="0.119" x2="0.539" y2="1.907" gradientUnits="objectBoundingBox">
      <stop offset="0" stop-color="#0b5999"/>
      <stop offset="1" stop-color="#4c246d"/>
    </linearGradient>
    <linearGradient id="linear-gradient-23" x1="1.063" y1="-0.44" x2="0.221" y2="0.966" xlink:href="#linear-gradient-22"/>
    <linearGradient id="linear-gradient-24" x1="-26.718" y1="0.072" x2="-25.549" y2="3.84" gradientUnits="objectBoundingBox">
      <stop offset="0" stop-color="#f9b776"/>
      <stop offset="1" stop-color="#f47960"/>
    </linearGradient>
    <linearGradient id="linear-gradient-25" x1="-28.139" y1="1.308" x2="-27.523" y2="0.687" xlink:href="#linear-gradient-4"/>
    <linearGradient id="linear-gradient-26" x1="231.665" y1="0.5" x2="232.684" y2="0.5" xlink:href="#linear-gradient-5"/>
    <linearGradient id="linear-gradient-27" x1="227.394" y1="0.5" x2="228.394" y2="0.5" xlink:href="#linear-gradient-4"/>
    <linearGradient id="linear-gradient-28" x1="485.646" y1="0.5" x2="486.646" y2="0.5" xlink:href="#linear-gradient-5"/>
    <linearGradient id="linear-gradient-29" x1="500.516" y1="0.5" x2="501.516" y2="0.5" xlink:href="#linear-gradient-4"/>
    <linearGradient id="linear-gradient-30" x1="748.451" y1="0.5" x2="749.451" y2="0.5" xlink:href="#linear-gradient-24"/>
    <linearGradient id="linear-gradient-31" x1="898.012" y1="0.5" x2="899.013" y2="0.5" xlink:href="#linear-gradient-24"/>
    <linearGradient id="linear-gradient-32" x1="0.848" y1="0.406" x2="0.058" y2="0.795" gradientUnits="objectBoundingBox">
      <stop offset="0" stop-color="#cb236d"/>
      <stop offset="1" stop-color="#4c246d"/>
    </linearGradient>
    <linearGradient id="linear-gradient-33" x1="1262.52" y1="-3.524" x2="1256.783" y2="3.755" xlink:href="#linear-gradient-5"/>
    <linearGradient id="linear-gradient-34" x1="-11.172" y1="-0.04" x2="-10.237" y2="0.738" xlink:href="#linear-gradient-4"/>
    <linearGradient id="linear-gradient-35" x1="429.349" y1="1.331" x2="429.584" y2="0.355" xlink:href="#linear-gradient-24"/>
    <linearGradient id="linear-gradient-36" x1="314.17" y1="0.35" x2="313.058" y2="1.106" xlink:href="#linear-gradient-24"/>
    <linearGradient id="linear-gradient-37" x1="227.155" y1="0.154" x2="227.884" y2="1.105" xlink:href="#linear-gradient-5"/>
    <linearGradient id="linear-gradient-38" x1="1285.129" y1="-0.685" x2="1280.578" y2="1.784" xlink:href="#linear-gradient-24"/>
    <linearGradient id="linear-gradient-39" x1="-3.005" y1="1.899" x2="-2.395" y2="-0.263" xlink:href="#linear-gradient-4"/>
    <linearGradient id="linear-gradient-40" x1="11.373" y1="-43.879" x2="12.076" y2="-42.257" xlink:href="#linear-gradient-4"/>
    <linearGradient id="linear-gradient-41" x1="11.917" y1="-42.227" x2="12.423" y2="-40.627" xlink:href="#linear-gradient-4"/>
    <linearGradient id="linear-gradient-42" x1="5.721" y1="-44.067" x2="5.931" y2="-42.1" xlink:href="#linear-gradient-4"/>
    <linearGradient id="linear-gradient-43" x1="-39.115" y1="0.268" x2="-36.585" y2="2.005" xlink:href="#linear-gradient-24"/>
    <linearGradient id="linear-gradient-44" x1="-14.479" y1="-0.453" x2="-13.159" y2="0.995" xlink:href="#linear-gradient-4"/>
    <linearGradient id="linear-gradient-45" x1="-48.122" y1="-0.777" x2="-46.151" y2="6.835" xlink:href="#linear-gradient-24"/>
    <linearGradient id="linear-gradient-46" x1="-39.979" y1="-0.364" x2="-37.448" y2="2.061" xlink:href="#linear-gradient-24"/>
    <linearGradient id="linear-gradient-47" x1="-32.784" y1="0.5" x2="-31.784" y2="0.5" xlink:href="#linear-gradient-24"/>
    <linearGradient id="linear-gradient-48" x1="-77.949" y1="-5.594" x2="-79.152" y2="0.571" xlink:href="#linear-gradient-4"/>
    <linearGradient id="linear-gradient-49" x1="-55.439" y1="-14.746" x2="-56.299" y2="-0.838" xlink:href="#linear-gradient-4"/>
    <linearGradient id="linear-gradient-50" x1="-56.612" y1="0.5" x2="-55.612" y2="0.5" xlink:href="#linear-gradient-24"/>
    <linearGradient id="linear-gradient-51" x1="0.364" y1="0.063" x2="1.084" y2="1.335" xlink:href="#linear-gradient-4"/>
    <linearGradient id="linear-gradient-52" x1="2.412" y1="2.033" x2="0.437" y2="0.548" xlink:href="#linear-gradient-4"/>
    <linearGradient id="linear-gradient-53" x1="-92.511" y1="0.5" x2="-91.511" y2="0.5" xlink:href="#linear-gradient-24"/>
    <linearGradient id="linear-gradient-54" x1="-49.651" y1="0.531" x2="-45.67" y2="0.806" xlink:href="#linear-gradient-24"/>
    <linearGradient id="linear-gradient-55" x1="0.482" y1="0.537" x2="2.055" y2="2.558" xlink:href="#linear-gradient-24"/>
    <linearGradient id="linear-gradient-56" x1="-23.662" y1="0.096" x2="-24.475" y2="1.141" xlink:href="#linear-gradient-5"/>
  </defs>
  <g id="Grupo_902158" data-name="Grupo 902158" transform="translate(-57.864 -36)">
    <path id="Trazado_630787" data-name="Trazado 630787" d="M286.016,302.7s150.2-12.5,188.369-54.755,18.823-78.952-14.2-86.741-39.547-18.521-23.765-35.325S471.123,75.861,431.85,48,355.4,69.012,322.382,66.113s-22.068-24.222-63.432-6.3S223.17,36.421,188.512,36s-29.335,39.871-67.157,51.124c-64.687,19.246-10.2,101.631-20.592,124.424-4.3,9.437-7.584,27.332-5.845,45.6C97.1,280.1,107.487,303.5,134.665,309.917a61.309,61.309,0,0,0,8.87,1.364C201.127,316.074,286.016,302.7,286.016,302.7Z" transform="translate(-18.902)" opacity="0.108" fill="url(#linear-gradient)"/>
    <path id="Trazado_630788" data-name="Trazado 630788" d="M394.336,380.44s-127.451,1.482-162.952-31.857-22.138-66.576,5.044-75.991,31.819-19.207,17.193-32.416-33.2-40.32-2.359-67.566S317.3,184.5,344.868,179.3s16.649-22.7,52.9-10.612,28.26-23.1,57.4-26.295,26.158,36.6,56.136,21.583,54.5-12.948,67.386,10.907,7.29,55.985-20.985,75.133-25.24,17.843-14.673,36.658,20.043,80.692-28.063,89.529S394.336,380.44,394.336,380.44Z" transform="translate(-91.914 -64.208)" opacity="0.5" fill="url(#linear-gradient-2)"/>
    <path id="Trazado_630789" data-name="Trazado 630789" d="M93.608,145.672c.443,46.187,13.213,168.518,133.76,194.982a11.7,11.7,0,0,0,14.111-10.022c4.189-34.515,3.188-133.946-131.3-195.738A11.705,11.705,0,0,0,93.608,145.672Z" transform="translate(-21.608 -59.131)" fill="url(#linear-gradient-3)"/>
    <path id="Trazado_630790" data-name="Trazado 630790" d="M58,391.4c6.1,35.83,31.25,129.285,128.2,134.835a9.206,9.206,0,0,0,9.716-9.544c-1.043-27.338-14.2-104.466-126.387-135.729A9.211,9.211,0,0,0,58,391.4Z" transform="translate(0 -208.329)" fill="#fd9927"/>
    <g id="Grupo_902133" data-name="Grupo 902133" transform="translate(361.004 51.129)">
      <path id="Trazado_630791" data-name="Trazado 630791" d="M855.32,333.774c17.195,3.438,39.153-15.308,46.228-35.789,7.28-21.076-6.068-29.905-5.965-59.151.117-33.222,17.4-38.229,28.83-83.01,2.579-10.1,17.5-68.571-.994-79.531-17.1-10.133-65.146,18.948-73.566,56.169-6,26.54,12.556,37.684,5.467,68.6-6.22,27.123-22.567,27.515-28.83,53.683C818.866,286.6,832.743,329.26,855.32,333.774Z" transform="translate(-824.385 -74.256)" fill="url(#linear-gradient-4)"/>
      <path id="Trazado_630792" data-name="Trazado 630792" d="M903.841,429.714c-4.635-35.794,4.407-91.017,12.809-131.04,9.1-43.331,19.421-78.676,19.524-79.028l1.431.42c-.1.351-10.414,35.649-19.5,78.925-8.377,39.906-17.4,94.946-12.787,130.531Z" transform="translate(-871.657 -162.148)" fill="url(#linear-gradient-5)"/>
    </g>
    <g id="Grupo_902134" data-name="Grupo 902134" transform="translate(379.776 141.135)">
      <path id="Trazado_630793" data-name="Trazado 630793" d="M894.067,470.772c-21.2-11.044-28.451-48.968-16.4-61.294,8.141-8.328,19.816.432,31.078-8.2,14.38-11.022,3.8-31.781,15.108-58.7,9.621-22.911,32.7-44.591,46.186-40.143,14.117,4.656,21.553,39.206,9.5,60-7.84,13.522-19.842,14.186-22.446,26.762-3.021,14.593,11.575,21.247,11.655,35.4C968.885,450,922.108,485.382,894.067,470.772Z" transform="translate(-871.85 -301.845)" fill="#feca2e"/>
      <path id="Trazado_630794" data-name="Trazado 630794" d="M955.632,558.273a.863.863,0,0,1-.776-1.24c28.1-57.9,36.34-125.076,36.42-125.748a.863.863,0,0,1,1.714.2c-.08.675-8.356,68.136-36.582,126.3A.862.862,0,0,1,955.632,558.273Z" transform="translate(-921.977 -379.634)" fill="url(#linear-gradient-6)"/>
      <path id="Trazado_630795" data-name="Trazado 630795" d="M1102.125,381.645a.4.4,0,0,1-.312-.639c16.074-20.632,17.119-36.042,15.165-45.336a29.518,29.518,0,0,0-8.1-15.314.4.4,0,1,1,.518-.6c.252.218,6.2,5.46,8.361,15.749,1.988,9.458.945,25.113-15.314,45.985A.4.4,0,0,1,1102.125,381.645Z" transform="translate(-1010.817 -312.616)" fill="#f0f0f0"/>
      <path id="Trazado_630796" data-name="Trazado 630796" d="M899.074,629.271a.4.4,0,0,1-.327-.172c-13.627-19.888-18.275-35.254-13.814-45.67,3.965-9.258,13.976-10.981,14.077-11a.4.4,0,1,1,.127.781c-.1.016-9.693,1.679-13.481,10.537-4.34,10.151.284,25.258,13.743,44.9a.4.4,0,0,1-.326.619Z" transform="translate(-878.767 -465.418)" fill="#f0f0f0"/>
    </g>
    <g id="Grupo_902135" data-name="Grupo 902135" transform="translate(99.435 58.554)">
      <path id="Trazado_630797" data-name="Trazado 630797" d="M258.5,190.894h-90.3a5.214,5.214,0,0,1-5.214-5.214V98.488a5.214,5.214,0,0,1,5.2-5.214l91.025-.244a5.214,5.214,0,0,1,5.228,5.242l-.723,87.437A5.213,5.213,0,0,1,258.5,190.894Z" transform="translate(-162.981 -93.03)" fill="url(#linear-gradient-7)"/>
      <path id="Trazado_630798" data-name="Trazado 630798" d="M261.852,109.9l-80.746.5a5.29,5.29,0,0,0-5.258,5.315l.564,73.334a5.29,5.29,0,0,0,5.194,5.265l78.455,1.432a5.29,5.29,0,0,0,5.386-5.216l1.728-75.262A5.291,5.291,0,0,0,261.852,109.9Z" transform="translate(-170.759 -103.231)" fill="#fff" opacity="0.6"/>
      <rect id="Rectángulo_302984" data-name="Rectángulo 302984" width="65.38" height="3.722" rx="1.861" transform="translate(22.43 11.892)" fill="#fff" opacity="0.6"/>
      <path id="Trazado_630799" data-name="Trazado 630799" d="M279.458,142.257h0a1.582,1.582,0,0,1-1.551,1.5l-54.41.991a1.583,1.583,0,0,1-1.612-1.582v-.129a1.583,1.583,0,0,1,1.558-1.582l54.41-.863A1.582,1.582,0,0,1,279.458,142.257Z" transform="translate(-198.59 -121.78)" fill="#fff" opacity="0.6"/>
      <path id="Trazado_630800" data-name="Trazado 630800" d="M262.059,222.182H262l-73.592-.883a4.55,4.55,0,0,1-4.495-4.637l1.894-51.785a4.55,4.55,0,0,1,4.638-4.449l73.464,1.43a4.556,4.556,0,0,1,4.461,4.63v.013l-1.766,51.225A4.558,4.558,0,0,1,262.059,222.182Zm-71.7-60.173a2.968,2.968,0,0,0-2.966,2.912L185.5,216.707a2.968,2.968,0,0,0,2.932,3.01l73.591.883a2.964,2.964,0,0,0,3-2.915l1.765-51.231a2.972,2.972,0,0,0-2.91-3.014l-73.464-1.43Z" transform="translate(-175.637 -133.773)" fill="#fff"/>
      <path id="Trazado_630801" data-name="Trazado 630801" d="M269.342,187.27H189.195a.791.791,0,1,1,0-1.582h80.147a.791.791,0,1,1,0,1.582Z" transform="translate(-178.35 -149.044)" fill="#fff"/>
    </g>
    <g id="Grupo_902136" data-name="Grupo 902136" transform="translate(123.981 86.499)">
      <path id="Trazado_630802" data-name="Trazado 630802" d="M500.082,584.042l-6.522,58.492h75.666l-9.856-58.492Z" transform="translate(-387.37 -417.804)" fill="url(#linear-gradient-8)"/>
      <path id="Trazado_630803" data-name="Trazado 630803" d="M549.517,737.143H438.775c-3.009,0-5.268-2.142-4.686-4.442l1.421-5.62c.427-1.69,2.287-2.931,4.495-3l106.76-3.331c2.307-.072,4.35,1.152,4.853,2.909l2.561,8.951C554.844,734.935,552.574,737.143,549.517,737.143Z" transform="translate(-351.362 -500.444)" fill="url(#linear-gradient-9)"/>
      <path id="Trazado_630804" data-name="Trazado 630804" d="M225.047,180.424V330.5a22.766,22.766,0,0,0,22.179,22.76c54.815,1.413,196,4.841,248.176,4.072a16.752,16.752,0,0,0,16.492-16.275c1.006-34.864,2.64-118.7-3.407-157.624A17.239,17.239,0,0,0,492,168.841c-45.928-1.469-198.625-6.135-250.781-4.963A16.548,16.548,0,0,0,225.047,180.424Z" transform="translate(-225.047 -163.691)" fill="url(#linear-gradient-10)"/>
      <path id="Trazado_630805" data-name="Trazado 630805" d="M248.858,188.606V331.187a13.191,13.191,0,0,0,12.993,13.189l240.439,3.595a12.837,12.837,0,0,0,13.029-12.788l.487-141.307a9.388,9.388,0,0,0-9.16-9.421l-247.368-6.019A10.173,10.173,0,0,0,248.858,188.606Z" transform="translate(-239.441 -172.603)" fill="url(#linear-gradient-11)"/>
      <path id="Trazado_630806" data-name="Trazado 630806" d="M516.906,612.36H516.9l-268.652-5.438a.4.4,0,0,1,.016-.791l268.652,5.439a.4.4,0,0,1-.008.791Z" transform="translate(-238.837 -431.156)" fill="#fff" opacity="0.65"/>
      <path id="Trazado_630807" data-name="Trazado 630807" d="M596.215,731.8a.4.4,0,0,1-.006-.791l4.574-.067h.006a.4.4,0,0,1,.006.791l-4.575.067Z" transform="translate(-449.188 -506.61)" fill="#fff"/>
      <path id="Trazado_630808" data-name="Trazado 630808" d="M443.99,740.5a.37.37,0,0,1-.063-.005.4.4,0,0,1-.328-.453l.653-4.088a4.594,4.594,0,0,1,4.477-3.876l48.522-.709a.4.4,0,1,1,.011.791l-48.522.709a3.8,3.8,0,0,0-3.708,3.21l-.653,4.088A.4.4,0,0,1,443.99,740.5Z" transform="translate(-357.164 -506.867)" fill="#fff"/>
    </g>
    <g id="Grupo_902137" data-name="Grupo 902137" transform="translate(58.873 204.077)">
      <path id="Trazado_630809" data-name="Trazado 630809" d="M321.732,581.224a.974.974,0,0,1-.974-.975v-116.5a.975.975,0,0,1,1.949,0v116.5A.975.975,0,0,1,321.732,581.224Z" transform="translate(-217.798 -462.071)" fill="url(#linear-gradient-12)"/>
      <path id="Trazado_630810" data-name="Trazado 630810" d="M225.478,581.224a.974.974,0,0,1-.974-.975v-116.5a.975.975,0,0,1,1.949,0v116.5A.975.975,0,0,1,225.478,581.224Z" transform="translate(-159.61 -462.071)" fill="url(#linear-gradient-13)"/>
      <path id="Trazado_630811" data-name="Trazado 630811" d="M61.389,581.962a.976.976,0,0,1-.9-1.356l49.842-117.241a.975.975,0,1,1,1.794.763L62.286,581.369A.976.976,0,0,1,61.389,581.962Z" transform="translate(-60.414 -462.071)" fill="url(#linear-gradient-14)"/>
      <path id="Trazado_630812" data-name="Trazado 630812" d="M139.237,581.962a.976.976,0,0,1-.9-1.356l49.842-117.241a.975.975,0,1,1,1.794.763L140.134,581.369A.975.975,0,0,1,139.237,581.962Z" transform="translate(-107.475 -462.071)" fill="url(#linear-gradient-15)"/>
      <rect id="Rectángulo_302985" data-name="Rectángulo 302985" width="60.057" height="2.747" rx="1.374" transform="translate(46.764)" fill="url(#linear-gradient-16)"/>
      <path id="Trazado_630813" data-name="Trazado 630813" d="M199.028,510.051H168.149a.975.975,0,0,1,0-1.949h30.878a.975.975,0,0,1,0,1.949Z" transform="translate(-124.954 -489.474)" fill="url(#linear-gradient-17)"/>
      <rect id="Rectángulo_302986" data-name="Rectángulo 302986" width="30.878" height="1.949" transform="translate(33.721 40.801)" fill="url(#linear-gradient-18)"/>
      <rect id="Rectángulo_302987" data-name="Rectángulo 302987" width="30.878" height="1.949" transform="translate(24.549 62.974)" fill="url(#linear-gradient-18)"/>
      <path id="Trazado_630814" data-name="Trazado 630814" d="M127.556,678.253H96.678a.975.975,0,1,1,0-1.949h30.878a.975.975,0,1,1,0,1.949Z" transform="translate(-81.747 -591.156)" fill="url(#linear-gradient-20)"/>
      <path id="Trazado_630815" data-name="Trazado 630815" d="M104.041,734.322H73.163a.975.975,0,1,1,0-1.949h30.878a.975.975,0,1,1,0,1.949Z" transform="translate(-67.532 -625.052)" fill="url(#linear-gradient-21)"/>
    </g>
    <g id="Grupo_902141" data-name="Grupo 902141" transform="translate(182.583 98.39)">
      <g id="Grupo_902138" data-name="Grupo 902138" opacity="0.64">
        <path id="Trazado_630816" data-name="Trazado 630816" d="M382.119,466.118a.989.989,0,0,1-.948-.711q-.225-.766-.436-1.539a.989.989,0,0,1,1.907-.521q.206.754.426,1.5a.989.989,0,0,1-.949,1.267Z" transform="translate(-377.745 -356.291)" fill="#fff"/>
        <path id="Trazado_630817" data-name="Trazado 630817" d="M375.972,297.074a.989.989,0,0,1-.967-.788c-.216-1.04-.416-2.1-.592-3.14a.989.989,0,0,1,1.95-.329c.172,1.02.366,2.051.577,3.067a.989.989,0,0,1-.766,1.169A1.016,1.016,0,0,1,375.972,297.074Zm-1.284-8.187a.989.989,0,0,1-.982-.884c-.112-1.053-.206-2.124-.278-3.183a.989.989,0,1,1,1.973-.135c.071,1.035.163,2.081.272,3.109a.988.988,0,0,1-.878,1.088A.961.961,0,0,1,374.688,288.887Zm-.469-8.273a.988.988,0,0,1-.988-.982q0-.324,0-.649c0-.844.013-1.7.038-2.545a.989.989,0,0,1,1.977.059c-.025.825-.037,1.662-.037,2.487q0,.318,0,.635a.989.989,0,0,1-.982,1Zm.342-8.28c-.03,0-.059,0-.089,0a.989.989,0,0,1-.9-1.073c.095-1.056.211-2.124.344-3.175a.988.988,0,1,1,1.961.25c-.13,1.026-.244,2.07-.336,3.1A.989.989,0,0,1,374.561,272.334Zm1.141-8.2a.99.99,0,0,1-.973-1.173c.2-1.04.417-2.092.653-3.127a.989.989,0,1,1,1.928.44c-.231,1.01-.445,2.038-.638,3.054A.989.989,0,0,1,375.7,264.129Zm1.94-8.053a.978.978,0,0,1-.279-.041.988.988,0,0,1-.67-1.227c.3-1.017.621-2.042.959-3.047a.989.989,0,1,1,1.875.629c-.329.982-.644,1.983-.936,2.976A.989.989,0,0,1,377.642,256.076Zm2.727-7.823a.99.99,0,0,1-.916-1.36c.4-.986.823-1.977,1.26-2.945a.989.989,0,0,1,1.8.812c-.426.946-.84,1.913-1.23,2.876A.989.989,0,0,1,380.369,248.253Zm3.5-7.528a.989.989,0,0,1-.874-1.449c.495-.94,1.014-1.884,1.544-2.8a.989.989,0,0,1,1.714.987c-.517.9-1.025,1.82-1.508,2.738A.989.989,0,0,1,383.865,240.725Zm4.223-7.141a.989.989,0,0,1-.824-1.533c.584-.885,1.194-1.771,1.812-2.636a.989.989,0,0,1,1.608,1.15c-.6.845-1.2,1.711-1.77,2.575A.987.987,0,0,1,388.088,233.583Zm4.9-6.687a.988.988,0,0,1-.767-1.612c.668-.823,1.361-1.645,2.061-2.444a.989.989,0,0,1,1.487,1.3c-.684.781-1.361,1.583-2.014,2.387A.987.987,0,0,1,392.992,226.9Zm5.535-6.171a.989.989,0,0,1-.7-1.684c.748-.755,1.518-1.505,2.289-2.228a.989.989,0,1,1,1.353,1.442c-.753.707-1.506,1.439-2.236,2.177A.987.987,0,0,1,398.528,220.726Zm6.11-5.6a.989.989,0,0,1-.632-1.749c.817-.678,1.656-1.349,2.5-1.994a.989.989,0,0,1,1.205,1.568c-.819.63-1.639,1.285-2.437,1.947A.984.984,0,0,1,404.638,215.128Zm6.626-4.972a.989.989,0,0,1-.555-1.808c.878-.594,1.779-1.179,2.677-1.739a.989.989,0,0,1,1.046,1.678c-.877.547-1.757,1.118-2.615,1.7A.982.982,0,0,1,411.263,210.156Zm89.4-3.035a.982.982,0,0,1-.5-.134c-.895-.521-1.812-1.032-2.726-1.519a.989.989,0,0,1,.93-1.745c.936.5,1.875,1.022,2.791,1.556a.989.989,0,0,1-.5,1.843Zm-82.323-1.263a.989.989,0,0,1-.472-1.858c.933-.506,1.886-1,2.833-1.467a.989.989,0,1,1,.876,1.773c-.924.457-1.855.939-2.766,1.433A.985.985,0,0,1,418.341,205.859Zm74.964-2.547a.985.985,0,0,1-.41-.09c-.938-.429-1.9-.846-2.863-1.242a.989.989,0,0,1,.752-1.829c.985.405,1.971.833,2.932,1.272a.989.989,0,0,1-.412,1.888Zm-67.5-1.033a.989.989,0,0,1-.384-1.9c.973-.409,1.969-.806,2.961-1.18a.989.989,0,0,1,.7,1.85c-.969.365-1.942.753-2.892,1.153A.986.986,0,0,1,425.8,202.278Zm59.8-2.03a.992.992,0,0,1-.32-.053c-.981-.335-1.981-.655-2.973-.952a.989.989,0,1,1,.568-1.895c1.015.3,2.039.632,3.044.975a.989.989,0,0,1-.319,1.924Zm-52.032-.8a.989.989,0,0,1-.291-1.933c1.016-.314,2.049-.611,3.07-.884a.989.989,0,1,1,.511,1.91c-1,.267-2.005.557-3,.863A.985.985,0,0,1,433.573,199.452Zm44.067-1.489a.988.988,0,0,1-.226-.027c-1.008-.236-2.035-.456-3.053-.654a.989.989,0,0,1,.378-1.941c1.042.2,2.094.428,3.126.67a.989.989,0,0,1-.225,1.952Zm-36.039-.558a.989.989,0,0,1-.2-1.958c1.039-.21,2.1-.4,3.142-.575a.989.989,0,0,1,.32,1.951c-1.022.167-2.055.356-3.069.562A.987.987,0,0,1,441.6,197.406Zm27.886-.931a.986.986,0,0,1-.131-.009c-1.024-.136-2.068-.254-3.1-.352a.989.989,0,0,1,.187-1.969c1.058.1,2.126.221,3.176.36a.989.989,0,0,1-.129,1.969Zm-19.7-.31a.989.989,0,0,1-.1-1.972c1.051-.106,2.122-.195,3.183-.262A.989.989,0,0,1,453,195.9c-1.037.066-2.083.152-3.11.256C449.858,196.163,449.824,196.164,449.791,196.164Zm11.434-.377h-.035c-.968-.034-1.946-.051-2.908-.051h-.216a.989.989,0,0,1,0-1.977h.218c.984,0,1.985.017,2.976.052a.989.989,0,0,1-.034,1.977Z" transform="translate(-373.229 -193.759)" fill="#fff"/>
        <path id="Trazado_630818" data-name="Trazado 630818" d="M706.348,232.338a.983.983,0,0,1-.564-.177q-.641-.446-1.291-.88a.989.989,0,1,1,1.1-1.644q.665.444,1.321.9a.989.989,0,0,1-.565,1.8Z" transform="translate(-573.22 -215.347)" fill="#fff"/>
      </g>
      <g id="Grupo_902139" data-name="Grupo 902139" transform="translate(33.012 67.361)" opacity="0.64">
        <path id="Trazado_630819" data-name="Trazado 630819" d="M795.85,367.619a.989.989,0,0,1-.971-.811q-.141-.769-.3-1.534a.989.989,0,1,1,1.937-.394q.16.783.3,1.572a.991.991,0,0,1-.974,1.167Z" transform="translate(-660.947 -364.089)" fill="#fff"/>
        <path id="Trazado_630820" data-name="Trazado 630820" d="M517.824,477.008a.989.989,0,0,1-.006-1.977c1.017-.007,2.049-.033,3.068-.078a.989.989,0,0,1,.086,1.976c-1.043.046-2.1.072-3.141.079Zm-5.049-.115-.052,0q-.72-.038-1.442-.087-.851-.059-1.7-.134a.989.989,0,0,1,.176-1.969q.826.074,1.658.131.706.049,1.409.086a.989.989,0,0,1-.051,1.976Zm13.187-.335a.989.989,0,0,1-.1-1.972c1.017-.106,2.043-.232,3.048-.375a.989.989,0,0,1,.278,1.958c-1.029.146-2.079.275-3.121.383A.919.919,0,0,1,525.962,476.558Zm-21.307-.481a1.027,1.027,0,0,1-.147-.011c-1.037-.155-2.081-.33-3.1-.521a.989.989,0,0,1,.364-1.944c1,.187,2.017.358,3.03.509a.989.989,0,0,1-.145,1.967Zm29.366-.757a.989.989,0,0,1-.2-1.958c1-.2,2.009-.429,3-.67a.989.989,0,1,1,.467,1.922c-1.012.246-2.045.477-3.068.685A.979.979,0,0,1,534.022,475.321Zm-37.368-.835a.992.992,0,0,1-.24-.03c-1.015-.254-2.037-.529-3.037-.819a.989.989,0,0,1,.551-1.9c.977.284,1.975.552,2.966.8a.989.989,0,0,1-.239,1.948Zm45.269-1.182a.989.989,0,0,1-.291-1.934c.972-.3,1.951-.621,2.909-.955a.989.989,0,1,1,.652,1.867c-.981.342-1.983.672-2.979.979A.994.994,0,0,1,541.923,473.3Zm-53.078-1.179a.992.992,0,0,1-.332-.057c-.982-.35-1.973-.724-2.943-1.112a.989.989,0,0,1,.733-1.836c.948.378,1.914.743,2.874,1.085a.989.989,0,0,1-.332,1.92Zm60.732-1.594a.989.989,0,0,1-.382-1.9c.938-.392,1.882-.808,2.805-1.235a.989.989,0,0,1,.83,1.795c-.946.437-1.912.863-2.872,1.265A.991.991,0,0,1,549.576,470.531ZM481.3,469.012a.987.987,0,0,1-.421-.095c-.946-.446-1.9-.915-2.82-1.393a.988.988,0,1,1,.908-1.756c.9.467,1.83.925,2.754,1.36a.989.989,0,0,1-.422,1.883Zm75.625-1.986a.989.989,0,0,1-.469-1.86c.9-.482,1.8-.987,2.675-1.5a.989.989,0,0,1,1,1.706c-.9.527-1.82,1.044-2.738,1.538A.985.985,0,0,1,556.929,467.027ZM474.1,465.181a.985.985,0,0,1-.505-.14c-.9-.534-1.794-1.093-2.671-1.661A.989.989,0,0,1,472,461.721c.856.554,1.734,1.1,2.609,1.622a.989.989,0,0,1-.508,1.838Zm89.81-2.354a.989.989,0,0,1-.55-1.81c.844-.565,1.691-1.155,2.519-1.754a.989.989,0,1,1,1.159,1.6c-.847.613-1.714,1.217-2.578,1.8A.986.986,0,0,1,563.912,462.826Zm6.548-4.855a.989.989,0,0,1-.627-1.754c.786-.643,1.573-1.313,2.339-1.989a.989.989,0,0,1,1.309,1.483c-.784.692-1.59,1.377-2.4,2.036A.983.983,0,0,1,570.46,457.971Zm6.053-5.465a.989.989,0,0,1-.7-1.689c.723-.72,1.443-1.462,2.138-2.206a.989.989,0,1,1,1.445,1.35c-.711.762-1.448,1.522-2.189,2.259A.985.985,0,0,1,576.513,452.506Zm5.5-6.025a.988.988,0,0,1-.761-1.619c.652-.787,1.3-1.6,1.917-2.4a.989.989,0,1,1,1.568,1.2c-.635.827-1.295,1.654-1.962,2.46A.986.986,0,0,1,582.012,446.481Zm4.9-6.53a.989.989,0,0,1-.818-1.543c.573-.848,1.137-1.715,1.676-2.579a.989.989,0,1,1,1.678,1.047c-.552.884-1.129,1.773-1.716,2.64A.988.988,0,0,1,586.907,439.952Zm4.24-6.977a.989.989,0,0,1-.868-1.46c.486-.9.964-1.815,1.418-2.732a.989.989,0,1,1,1.771.878c-.465.938-.953,1.879-1.451,2.8A.988.988,0,0,1,591.148,432.975Zm3.543-7.361a.99.99,0,0,1-.91-1.373c.4-.941.783-1.9,1.145-2.859a.989.989,0,1,1,1.849.7c-.371.979-.766,1.964-1.172,2.927A.99.99,0,0,1,594.691,425.614Zm2.805-7.667a.989.989,0,0,1-.944-1.283c.3-.974.592-1.966.858-2.948a.989.989,0,0,1,1.909.517c-.273,1.006-.568,2.022-.879,3.019A.988.988,0,0,1,597.5,417.947Zm2.043-7.894a1,1,0,0,1-.2-.021.989.989,0,0,1-.768-1.169c.207-1,.4-2.014.568-3.018a.989.989,0,0,1,1.95.33c-.174,1.027-.369,2.067-.581,3.089A.989.989,0,0,1,599.539,410.054ZM600.807,402a.99.99,0,0,1-.984-1.1c.11-1.008.2-2.038.276-3.059a.989.989,0,1,1,1.972.142c-.075,1.045-.17,2.1-.282,3.131A.989.989,0,0,1,600.807,402Zm.492-8.14h-.013a.99.99,0,0,1-.976-1q.007-.537.007-1.072,0-1-.024-2a.989.989,0,0,1,1.977-.047q.024,1.021.025,2.047,0,.548-.007,1.1A.988.988,0,0,1,601.3,393.859Zm-.291-8.151a.989.989,0,0,1-.984-.906c-.085-1.016-.191-2.044-.314-3.055a.989.989,0,1,1,1.963-.238c.126,1.036.234,2.089.322,3.128a.989.989,0,0,1-.9,1.068Q601.051,385.707,601.009,385.707Z" transform="translate(-465.028 -374.093)" fill="#fff"/>
        <path id="Trazado_630821" data-name="Trazado 630821" d="M458.954,578.472a.985.985,0,0,1-.586-.193q-.644-.475-1.279-.961a.989.989,0,0,1,1.2-1.569q.62.475,1.249.939a.989.989,0,0,1-.588,1.784Z" transform="translate(-456.703 -491.919)" fill="#fff"/>
      </g>
      <g id="Grupo_902140" data-name="Grupo 902140" transform="translate(20.039 19.319)">
        <path id="Trazado_630822" data-name="Trazado 630822" d="M443.56,354.408a1.01,1.01,0,0,0,1.131.31l11.537-4.243A53.55,53.55,0,0,0,471.5,358.7l2.814,11.958a1.009,1.009,0,0,0,.881.774l14.669,1.486a1.009,1.009,0,0,0,1.018-.581l5.155-11.15a53.531,53.531,0,0,0,16.613-5l10.452,6.47a1.01,1.01,0,0,0,1.17-.076l11.424-9.322a1.01,1.01,0,0,0,.309-1.131l-4.243-11.537a53.54,53.54,0,0,0,8.226-15.274l11.958-2.814a1.01,1.01,0,0,0,.773-.881l1.486-14.669a1.01,1.01,0,0,0-.581-1.019l-11.151-5.154a53.53,53.53,0,0,0-5-16.613l6.47-10.452a1.01,1.01,0,0,0-.076-1.17l-9.322-11.424a1.009,1.009,0,0,0-1.131-.309l-11.537,4.243a53.536,53.536,0,0,0-15.274-8.225L503.8,244.874a1.011,1.011,0,0,0-.881-.774l-14.67-1.486a1.009,1.009,0,0,0-1.018.581l-5.155,11.15a53.546,53.546,0,0,0-16.613,5l-10.452-6.47a1.01,1.01,0,0,0-1.17.076l-11.423,9.322a1.011,1.011,0,0,0-.31,1.131l4.243,11.536a53.545,53.545,0,0,0-8.226,15.274l-11.958,2.814a1.01,1.01,0,0,0-.773.882l-1.486,14.669a1.01,1.01,0,0,0,.581,1.019l11.15,5.155a53.558,53.558,0,0,0,5,16.613l-6.47,10.452a1.01,1.01,0,0,0,.076,1.17Z" transform="translate(-423.9 -242.61)" fill="#0b5999"/>
        <path id="Trazado_630823" data-name="Trazado 630823" d="M567.4,400.025a13.9,13.9,0,1,1,2.053-.151h0A14.059,14.059,0,0,1,567.4,400.025Zm.055-26.19a12.508,12.508,0,0,0-1.82.134,12.257,12.257,0,1,0,1.82-.134Z" transform="translate(-502.272 -320.982)" fill="#fff"/>
        <path id="Trazado_630824" data-name="Trazado 630824" d="M534.262,387.8a36.237,36.237,0,0,1-3.652-.185h0a36.181,36.181,0,0,1-7.5-1.572.4.4,0,1,1,.244-.752,35.178,35.178,0,1,0-20.985-18.536.4.4,0,0,1-.716.337A35.976,35.976,0,1,1,534.262,387.8Z" transform="translate(-468.853 -286.885)" fill="#fff"/>
      </g>
    </g>
    <g id="Grupo_902145" data-name="Grupo 902145" transform="translate(331.384 100.017)">
      <path id="Trazado_630825" data-name="Trazado 630825" d="M772.924,252.889,776.8,251.1a18.612,18.612,0,0,0,5.52,2.43l1.3,4.066a.351.351,0,0,0,.327.244l5.124.111a.351.351,0,0,0,.337-.23l1.479-4.006a18.6,18.6,0,0,0,5.62-2.189l3.8,1.954a.351.351,0,0,0,.4-.059l3.7-3.545a.352.352,0,0,0,.076-.4L802.71,245.6a18.616,18.616,0,0,0,2.43-5.52l4.066-1.3a.351.351,0,0,0,.244-.327l.111-5.125a.351.351,0,0,0-.23-.337l-4.006-1.479a18.6,18.6,0,0,0-2.189-5.62l1.954-3.8a.351.351,0,0,0-.059-.4l-3.545-3.7a.351.351,0,0,0-.4-.076L797.2,219.69a18.615,18.615,0,0,0-5.52-2.429l-1.3-4.067a.351.351,0,0,0-.327-.244l-5.125-.111a.351.351,0,0,0-.337.229l-1.479,4.006a18.615,18.615,0,0,0-5.62,2.189l-3.8-1.954a.351.351,0,0,0-.4.059l-3.7,3.545a.351.351,0,0,0-.076.4L771.3,225.2a18.613,18.613,0,0,0-2.429,5.52l-4.067,1.3a.352.352,0,0,0-.244.327l-.111,5.124a.351.351,0,0,0,.229.337l4.006,1.479a18.616,18.616,0,0,0,2.189,5.62l-1.954,3.8a.351.351,0,0,0,.059.4l3.545,3.7A.351.351,0,0,0,772.924,252.889Z" transform="translate(-758.532 -206.922)" fill="url(#linear-gradient-22)"/>
      <path id="Trazado_630826" data-name="Trazado 630826" d="M813.909,267.26a4.964,4.964,0,1,1,1.116-.127h0A4.973,4.973,0,0,1,813.909,267.26Zm.01-9.105a4.156,4.156,0,1,0,.93,8.207h0a4.156,4.156,0,0,0-.93-8.207Z" transform="translate(-785.446 -233.837)" fill="#fff" opacity="0.56"/>
      <g id="Grupo_902144" data-name="Grupo 902144" transform="translate(0 0)">
        <g id="Grupo_902142" data-name="Grupo 902142" opacity="0.64">
          <path id="Trazado_630827" data-name="Trazado 630827" d="M760.578,305.388a.988.988,0,0,1-.828-.447c-.3-.454-.586-.923-.858-1.4a.989.989,0,0,1,1.714-.986c.253.439.522.876.8,1.3a.989.989,0,0,1-.826,1.531Z" transform="translate(-755.093 -260.86)" fill="#fff"/>
          <path id="Trazado_630828" data-name="Trazado 630828" d="M751.979,236.29a.989.989,0,0,1-.935-.668,28.838,28.838,0,0,1-.828-2.9l-.07-.31a.989.989,0,1,1,1.932-.423l.065.291a27.041,27.041,0,0,0,.772,2.7.988.988,0,0,1-.935,1.31Zm-1.5-8.3a.989.989,0,0,1-.988-.964q-.008-.351-.009-.7c0-.878.042-1.765.123-2.639a.989.989,0,1,1,1.969.185c-.076.812-.115,1.638-.115,2.454q0,.325.008.651a.988.988,0,0,1-.964,1.013Zm1.1-8.362a.99.99,0,0,1-.949-1.267,28.593,28.593,0,0,1,1.126-3.144.989.989,0,1,1,1.819.775,26.7,26.7,0,0,0-1.048,2.926A.989.989,0,0,1,751.581,219.627Zm3.583-7.634a.989.989,0,0,1-.819-1.541,28.79,28.79,0,0,1,2.022-2.656.989.989,0,1,1,1.5,1.288,26.7,26.7,0,0,0-1.882,2.473A.989.989,0,0,1,755.164,211.993Zm5.722-6.194a.989.989,0,0,1-.615-1.763A28.464,28.464,0,0,1,763,202.119a.989.989,0,0,1,1.039,1.683,26.346,26.346,0,0,0-2.541,1.783A.984.984,0,0,1,760.887,205.8Zm7.332-4.158a.989.989,0,0,1-.35-1.914,28.759,28.759,0,0,1,3.186-1,.989.989,0,1,1,.479,1.919,26.685,26.685,0,0,0-2.966.926A.984.984,0,0,1,768.218,201.641Zm11.476-1.734-.063,0c-.545-.034-1.1-.052-1.647-.052-.487.009-.975.013-1.46.04a.989.989,0,1,1-.11-1.974c.521-.029,1.048-.05,1.57-.044.588,0,1.184.019,1.77.056a.989.989,0,0,1-.061,1.975Z" transform="translate(-749.487 -197.875)" fill="#fff"/>
          <path id="Trazado_630829" data-name="Trazado 630829" d="M838.986,202.538a.985.985,0,0,1-.3-.048c-.48-.155-.972-.3-1.463-.427a.989.989,0,0,1,.5-1.913c.527.138,1.056.292,1.572.459a.989.989,0,0,1-.3,1.93Z" transform="translate(-802.076 -199.231)" fill="#fff"/>
        </g>
        <g id="Grupo_902143" data-name="Grupo 902143" transform="translate(17.845 14.416)" opacity="0.64">
          <path id="Trazado_630830" data-name="Trazado 630830" d="M881.821,237.717a.989.989,0,0,1-.9-.571c-.213-.457-.444-.915-.685-1.361a.989.989,0,1,1,1.74-.939c.259.479.507.972.737,1.464a.989.989,0,0,1-.9,1.407Z" transform="translate(-846.303 -234.327)" fill="#fff"/>
          <path id="Trazado_630831" data-name="Trazado 630831" d="M815.223,286.429a28.323,28.323,0,0,1-3.176-.179.989.989,0,1,1,.222-1.965,26.347,26.347,0,0,0,2.955.167h.1a.989.989,0,0,1,.005,1.977Zm5.224-.5a.989.989,0,0,1-.186-1.96q.457-.088.913-.193c.69-.159,1.38-.346,2.052-.557a.989.989,0,0,1,.593,1.886c-.721.227-1.462.428-2.2.6q-.491.113-.982.208A1.02,1.02,0,0,1,820.448,285.927Zm7.82-2.775a.989.989,0,0,1-.469-1.86,26.366,26.366,0,0,0,2.6-1.6.989.989,0,1,1,1.132,1.621,28.43,28.43,0,0,1-2.8,1.721A.984.984,0,0,1,828.268,283.151Zm6.625-4.99a.988.988,0,0,1-.708-1.679,26.624,26.624,0,0,0,2.006-2.306.989.989,0,1,1,1.564,1.21,28.686,28.686,0,0,1-2.155,2.478A.987.987,0,0,1,834.893,278.161Zm4.836-6.739a.989.989,0,0,1-.88-1.438,26.632,26.632,0,0,0,1.231-2.8.989.989,0,0,1,1.853.691,28.623,28.623,0,0,1-1.323,3.007A.988.988,0,0,1,839.729,271.423Zm2.616-7.875a.99.99,0,0,1-.976-1.155,26.446,26.446,0,0,0,.337-3.039.989.989,0,1,1,1.975.1,28.393,28.393,0,0,1-.362,3.268A.989.989,0,0,1,842.346,263.548Zm.131-8.3a.989.989,0,0,1-.978-.855c-.108-.788-.253-1.585-.433-2.366q-.074-.32-.154-.636a.989.989,0,1,1,1.916-.488q.086.339.165.682c.193.839.349,1.694.465,2.541a.989.989,0,0,1-.846,1.114A1.045,1.045,0,0,1,842.477,255.25Z" transform="translate(-804.62 -243.898)" fill="#fff"/>
          <path id="Trazado_630832" data-name="Trazado 630832" d="M797.093,334.938a.988.988,0,0,1-.294-.045c-.516-.161-1.038-.34-1.549-.532a.989.989,0,1,1,.695-1.851c.476.179.961.345,1.442.495a.989.989,0,0,1-.293,1.933Z" transform="translate(-794.609 -293.643)" fill="#fff"/>
        </g>
      </g>
      <path id="Trazado_630833" data-name="Trazado 630833" d="M801.98,263.127q-.141,0-.283,0a12.892,12.892,0,0,1-2.494-.3l-.2-.046a.4.4,0,0,1-.3-.385.379.379,0,0,1,.011-.091.4.4,0,0,1,.476-.293,12.031,12.031,0,0,0,2.529.324h0c.087,0,.176,0,.263,0a11.988,11.988,0,0,0,11.941-11.145q.02-.283.025-.569,0-.131,0-.26A11.973,11.973,0,0,0,790,250.1c0,.087,0,.174,0,.26a11.954,11.954,0,0,0,1.566,5.923.4.4,0,1,1-.687.392,12.742,12.742,0,0,1-1.67-6.314q0-.139,0-.278a12.764,12.764,0,0,1,25.525.274c0,.093,0,.185,0,.278a12.764,12.764,0,0,1-12.753,12.488Z" transform="translate(-773.5 -221.889)" fill="#fff" opacity="0.56"/>
    </g>
    <g id="Grupo_902149" data-name="Grupo 902149" transform="translate(137.792 197.339)">
      <g id="Grupo_902146" data-name="Grupo 902146" opacity="0.64">
        <path id="Trazado_630834" data-name="Trazado 630834" d="M263.3,550.287a.4.4,0,0,1-.379-.284q-.141-.479-.267-.964a.4.4,0,1,1,.765-.2q.123.473.261.94a.4.4,0,0,1-.268.491A.39.39,0,0,1,263.3,550.287Z" transform="translate(-261.588 -507.183)" fill="#fff"/>
        <path id="Trazado_630835" data-name="Trazado 630835" d="M260.99,484.227a.4.4,0,0,1-.388-.318c-.127-.637-.236-1.286-.325-1.931a.4.4,0,1,1,.783-.108c.087.629.194,1.264.317,1.885a.4.4,0,0,1-.31.465A.4.4,0,0,1,260.99,484.227Zm-.53-3.831a.4.4,0,0,1-.394-.365c-.051-.647-.083-1.305-.1-1.955a.4.4,0,0,1,.791-.016c.013.635.044,1.277.094,1.909a.4.4,0,0,1-.363.425Zm-.076-3.867h-.015a.4.4,0,0,1-.38-.41q.02-.524.056-1.052.031-.451.074-.9a.4.4,0,1,1,.787.075q-.042.438-.073.88-.035.515-.055,1.028A.4.4,0,0,1,260.385,476.528Zm.369-3.849a.407.407,0,0,1-.061,0,.4.4,0,0,1-.33-.451c.1-.643.22-1.29.356-1.924a.4.4,0,0,1,.773.166c-.133.619-.25,1.251-.347,1.879A.4.4,0,0,1,260.754,472.68Zm.814-3.78a.4.4,0,0,1-.381-.5c.174-.626.369-1.254.579-1.87a.4.4,0,0,1,.749.256c-.206.6-.4,1.215-.566,1.825A.4.4,0,0,1,261.567,468.9Zm1.252-3.658a.4.4,0,0,1-.366-.546c.247-.6.515-1.205.8-1.792a.4.4,0,0,1,.713.342c-.275.572-.537,1.161-.778,1.749A.4.4,0,0,1,262.82,465.242Zm1.677-3.49a.4.4,0,0,1-.346-.588c.316-.568.653-1.135,1-1.684a.4.4,0,0,1,.668.424c-.341.537-.67,1.09-.978,1.645A.4.4,0,0,1,264.5,461.751Zm2.075-3.267a.39.39,0,0,1-.231-.075.4.4,0,0,1-.09-.552c.38-.528.781-1.052,1.192-1.555a.4.4,0,1,1,.613.5c-.4.491-.791,1-1.163,1.518A.394.394,0,0,1,266.572,458.484Zm2.442-3a.4.4,0,0,1-.291-.662c.439-.479.9-.952,1.364-1.4a.4.4,0,0,1,.551.568c-.455.442-.9.9-1.332,1.372A.4.4,0,0,1,269.014,455.483Zm2.774-2.7a.4.4,0,0,1-.259-.695c.492-.425,1-.841,1.517-1.236a.4.4,0,1,1,.481.628c-.5.386-1,.792-1.482,1.207A.4.4,0,0,1,271.788,452.788Zm3.068-2.353a.4.4,0,0,1-.223-.723c.539-.366,1.094-.719,1.651-1.051a.4.4,0,1,1,.4.679c-.543.324-1.085.669-1.612,1.026A.393.393,0,0,1,274.856,450.435Zm34.854-1.365a.394.394,0,0,1-.2-.052c-.549-.313-1.117-.615-1.687-.9a.4.4,0,0,1,.351-.709c.585.289,1.166.6,1.729.92a.4.4,0,0,1-.2.739Zm-31.535-.615a.4.4,0,0,1-.183-.746c.576-.3,1.169-.586,1.761-.851a.4.4,0,1,1,.323.722c-.579.259-1.157.538-1.72.831A.39.39,0,0,1,278.175,448.455Zm28.068-1.1a.393.393,0,0,1-.154-.032c-.584-.247-1.183-.48-1.782-.692a.4.4,0,0,1,.265-.745c.613.218,1.227.456,1.825.709a.4.4,0,0,1-.154.76Zm-24.543-.478a.4.4,0,0,1-.14-.766c.607-.23,1.229-.445,1.847-.638a.4.4,0,1,1,.236.755c-.6.189-1.211.4-1.8.623A.4.4,0,0,1,281.7,446.878Zm20.9-.816a.4.4,0,0,1-.11-.016c-.607-.176-1.23-.337-1.85-.478a.4.4,0,0,1,.175-.771c.636.144,1.274.309,1.9.49a.4.4,0,0,1-.11.776Zm-17.211-.337a.4.4,0,0,1-.1-.779c.632-.157,1.275-.3,1.913-.416a.4.4,0,0,1,.145.777c-.622.117-1.25.253-1.867.407A.4.4,0,0,1,285.388,445.724Zm13.44-.52a.363.363,0,0,1-.065-.006c-.626-.1-1.264-.191-1.895-.258a.4.4,0,0,1,.084-.787c.646.069,1.3.158,1.94.265a.4.4,0,0,1-.064.785Zm-9.64-.191a.4.4,0,0,1-.049-.788c.644-.082,1.3-.145,1.949-.189a.4.4,0,0,1,.053.789c-.633.043-1.273.1-1.9.184A.36.36,0,0,1,289.188,445.013Zm5.793-.221h-.02c-.537-.027-1.083-.04-1.621-.04h-.291a.4.4,0,1,1-.006-.791h.3c.551,0,1.109.014,1.659.041a.4.4,0,0,1-.019.791Z" transform="translate(-259.971 -443.961)" fill="#fff"/>
        <path id="Trazado_630836" data-name="Trazado 630836" d="M390.184,458.8a.392.392,0,0,1-.225-.071q-.4-.278-.81-.545a.4.4,0,1,1,.432-.662q.419.273.829.558a.4.4,0,0,1-.226.72Z" transform="translate(-337.954 -452.121)" fill="#fff"/>
      </g>
      <g id="Grupo_902147" data-name="Grupo 902147" transform="translate(12.945 26.427)" opacity="0.64">
        <path id="Trazado_630837" data-name="Trazado 630837" d="M425.832,512.548a.4.4,0,0,1-.389-.329q-.083-.482-.18-.96a.4.4,0,1,1,.775-.157q.1.489.184.983a.4.4,0,0,1-.39.463Z" transform="translate(-372.834 -510.785)" fill="#fff"/>
        <path id="Trazado_630838" data-name="Trazado 630838" d="M316.4,555.688H316.4c-.586-.01-1.18-.036-1.764-.076l-.259-.019a.4.4,0,1,1,.061-.789l.254.019c.57.04,1.15.065,1.723.074a.4.4,0,0,1-.007.791Zm2-.026a.4.4,0,0,1-.017-.791c.655-.029,1.319-.077,1.971-.145a.4.4,0,1,1,.082.787c-.669.07-1.348.12-2.019.149Zm-5.991-.281a.42.42,0,0,1-.055,0c-.668-.092-1.341-.2-2-.336a.4.4,0,0,1,.155-.776c.641.128,1.3.238,1.95.328a.4.4,0,0,1-.053.787Zm9.969-.134a.4.4,0,0,1-.064-.785c.648-.108,1.3-.237,1.939-.384a.4.4,0,1,1,.177.771c-.654.15-1.322.282-1.986.393A.406.406,0,0,1,322.381,555.247Zm-13.894-.649a.405.405,0,0,1-.1-.013c-.652-.172-1.306-.366-1.942-.576a.4.4,0,0,1,.248-.751c.621.205,1.259.394,1.9.562a.4.4,0,0,1-.1.778Zm17.793-.246a.4.4,0,0,1-.112-.775c.628-.185,1.259-.392,1.875-.616a.4.4,0,0,1,.27.744c-.632.229-1.278.441-1.921.631A.4.4,0,0,1,326.28,554.352Zm-21.593-1.007a.4.4,0,0,1-.146-.028c-.622-.249-1.248-.52-1.858-.808a.4.4,0,0,1,.338-.715c.6.281,1.205.547,1.813.789a.4.4,0,0,1-.147.763Zm25.349-.355a.4.4,0,0,1-.157-.759c.6-.261,1.2-.543,1.788-.84a.4.4,0,0,1,.358.706c-.6.3-1.214.593-1.831.86A.393.393,0,0,1,330.036,552.99Zm-28.968-1.353a.391.391,0,0,1-.19-.049c-.59-.324-1.178-.67-1.745-1.028a.4.4,0,1,1,.422-.669c.554.35,1.128.687,1.7,1a.4.4,0,0,1-.191.742Zm32.533-.455a.4.4,0,0,1-.2-.737c.567-.332,1.13-.685,1.674-1.05a.4.4,0,1,1,.44.657c-.558.373-1.135.735-1.715,1.075A.393.393,0,0,1,333.6,551.182Zm3.322-2.226a.4.4,0,0,1-.24-.71c.522-.4,1.039-.816,1.536-1.245a.4.4,0,1,1,.516.6c-.51.439-1.039.868-1.574,1.275A.4.4,0,0,1,336.922,548.956Zm3.031-2.611a.4.4,0,0,1-.276-.679c.47-.457.933-.935,1.376-1.421a.4.4,0,1,1,.585.533c-.454.5-.928.987-1.409,1.455A.393.393,0,0,1,339.954,546.345Zm2.7-2.957a.4.4,0,0,1-.308-.644c.412-.511.814-1.041,1.2-1.577a.4.4,0,0,1,.645.458c-.39.549-.8,1.092-1.224,1.615A.4.4,0,0,1,342.65,543.389Zm2.32-3.262a.4.4,0,0,1-.335-.6c.348-.558.683-1.134,1-1.71a.4.4,0,1,1,.7.377c-.32.59-.664,1.18-1.02,1.752A.4.4,0,0,1,344.97,540.126Zm1.909-3.521a.4.4,0,0,1-.358-.562c.277-.6.539-1.208.78-1.82a.4.4,0,1,1,.736.289c-.246.627-.516,1.254-.8,1.864A.4.4,0,0,1,346.878,536.605Zm1.464-3.726a.4.4,0,0,1-.376-.518c.2-.623.388-1.262.552-1.9a.4.4,0,1,1,.766.2c-.168.652-.358,1.306-.565,1.945A.4.4,0,0,1,348.342,532.879Zm1-3.873a.418.418,0,0,1-.076-.007.4.4,0,0,1-.313-.464c.125-.643.231-1.3.318-1.951a.4.4,0,0,1,.784.1c-.088.668-.2,1.34-.326,2A.4.4,0,0,1,349.342,529.006Zm.524-3.965h-.03a.4.4,0,0,1-.365-.424l.006-.082c.044-.627.07-1.264.077-1.893a.4.4,0,0,1,.4-.391h0a.4.4,0,0,1,.391.4c-.008.644-.034,1.3-.079,1.938l-.006.087A.4.4,0,0,1,349.866,525.041Zm.046-4a.4.4,0,0,1-.395-.376c-.031-.655-.084-1.318-.155-1.971a.4.4,0,0,1,.787-.086c.073.669.127,1.348.159,2.019a.4.4,0,0,1-.376.414Z" transform="translate(-296.478 -515.3)" fill="#fff"/>
        <path id="Trazado_630839" data-name="Trazado 630839" d="M293.892,595.127a.4.4,0,0,1-.231-.074q-.406-.293-.8-.6a.4.4,0,1,1,.481-.628q.387.3.783.582a.4.4,0,0,1-.231.716Z" transform="translate(-292.704 -560.938)" fill="#fff"/>
      </g>
      <g id="Grupo_902148" data-name="Grupo 902148" transform="translate(7.863 7.587)">
        <path id="Trazado_630840" data-name="Trazado 630840" d="M287.566,507.007a.4.4,0,0,0,.444.121l4.526-1.665a21,21,0,0,0,5.992,3.227l1.1,4.692a.4.4,0,0,0,.346.3l5.755.583a.4.4,0,0,0,.4-.228l2.022-4.375a21.013,21.013,0,0,0,6.518-1.96l4.1,2.538a.4.4,0,0,0,.459-.03l4.482-3.657a.4.4,0,0,0,.121-.443l-1.665-4.526A21,21,0,0,0,325.4,495.6l4.691-1.1a.4.4,0,0,0,.3-.346l.583-5.755a.4.4,0,0,0-.228-.4l-4.375-2.022a21.014,21.014,0,0,0-1.96-6.518l2.538-4.1a.4.4,0,0,0-.03-.459l-3.657-4.482a.4.4,0,0,0-.444-.121l-4.526,1.665a21.011,21.011,0,0,0-5.993-3.227l-1.1-4.692a.4.4,0,0,0-.346-.3l-5.755-.583a.4.4,0,0,0-.4.228l-2.022,4.375a21,21,0,0,0-6.518,1.96l-4.1-2.539a.4.4,0,0,0-.459.03l-4.482,3.657a.4.4,0,0,0-.121.444l1.665,4.526a21,21,0,0,0-3.227,5.992l-4.692,1.1a.4.4,0,0,0-.3.346l-.583,5.755a.4.4,0,0,0,.228.4l4.375,2.022a21,21,0,0,0,1.96,6.518l-2.538,4.1a.4.4,0,0,0,.03.459Z" transform="translate(-279.853 -463.146)" fill="url(#linear-gradient-23)"/>
        <path id="Trazado_630841" data-name="Trazado 630841" d="M336.021,524.859a5.546,5.546,0,1,1,.818-.06h0A5.608,5.608,0,0,1,336.021,524.859Zm.022-10.275a4.775,4.775,0,0,0-.7.052,4.741,4.741,0,0,0,1.382,9.381h0a4.742,4.742,0,0,0-.681-9.432Z" transform="translate(-310.47 -493.763)" fill="#fff" opacity="0.56"/>
        <path id="Trazado_630842" data-name="Trazado 630842" d="M322.784,519.979a14.5,14.5,0,0,1-1.457-.074q-.466-.047-.926-.124a14.4,14.4,0,0,1-1.759-.408l-.04-.012q-.133-.04-.265-.083a.4.4,0,0,1-.274-.376.386.386,0,0,1,.02-.122.4.4,0,0,1,.5-.254,13.716,13.716,0,0,0,2.827.592l.229.021h.005a13.476,13.476,0,0,0,6.6-1.1l0,0,.032-.015a13.6,13.6,0,0,0,2.859-1.726l.085-.067.039-.031.083-.067a13.473,13.473,0,0,0,4.919-9.141,13.756,13.756,0,0,0,.071-1.394,13.563,13.563,0,0,0-27.058-1.34,13.556,13.556,0,0,0,1.211,7.122.39.39,0,0,1,.037.168.4.4,0,0,1-.753.168,14.312,14.312,0,0,1-1.355-6.082,14.483,14.483,0,0,1,.074-1.456,14.354,14.354,0,0,1,28.636,1.418,14.571,14.571,0,0,1-.075,1.476A14.374,14.374,0,0,1,322.784,519.979Z" transform="translate(-297.122 -480.148)" fill="#fff" opacity="0.56"/>
      </g>
    </g>
    <g id="Grupo_902154" data-name="Grupo 902154" transform="translate(118.541 106.477)">
      <g id="Grupo_902150" data-name="Grupo 902150" transform="translate(42.655 25.119)">
        <path id="Trazado_630843" data-name="Trazado 630843" d="M343.621,310.587l-2.236,2.205a16.044,16.044,0,0,1-7.5-2.545,17.7,17.7,0,0,1,3.181-5.457A18.4,18.4,0,0,0,343.621,310.587Z" transform="translate(-328.057 -294.086)" fill="url(#linear-gradient-24)"/>
        <path id="Trazado_630844" data-name="Trazado 630844" d="M319.148,285.975l5.277-8.25a20.8,20.8,0,0,0,3.732,10.7,17.7,17.7,0,0,0-3.181,5.457A14.517,14.517,0,0,1,319.148,285.975Z" transform="translate(-319.148 -277.725)" fill="url(#linear-gradient-25)"/>
      </g>
      <path id="Trazado_630845" data-name="Trazado 630845" d="M298.519,456.407c2.631.121,5.178.045,6.878-.042a34.481,34.481,0,0,0-8.1-4.454l-2.049-.123a8.352,8.352,0,0,0-.942,3.472C294.647,455.683,295.639,456.274,298.519,456.407Z" transform="translate(-261.476 -357.831)" fill="url(#linear-gradient-26)"/>
      <path id="Trazado_630846" data-name="Trazado 630846" d="M305.364,461.686l-.021-.015c-1.7.087-4.247.163-6.878.042-2.88-.132-3.872-.723-4.212-1.147-.011.111-.023.222-.032.339a.959.959,0,0,0,.882,1.036c2.155.163,7.5.532,10.073.4A.36.36,0,0,0,305.364,461.686Z" transform="translate(-261.422 -363.138)" fill="url(#linear-gradient-27)"/>
      <path id="Trazado_630847" data-name="Trazado 630847" d="M249.311,455.885a19.848,19.848,0,0,0-.74-3.477c-.375-.716-1.656,0-1.656,0a3.406,3.406,0,0,0-1.314,1.119c-.264.446-.994,1.714-1.489,2.576a.576.576,0,0,0-.078.307l5.133.18A1.025,1.025,0,0,0,249.311,455.885Z" transform="translate(-231.085 -358.013)" fill="url(#linear-gradient-28)"/>
      <path id="Trazado_630848" data-name="Trazado 630848" d="M244.034,463.013a.584.584,0,0,0,.569.568l3.657.1a1.032,1.032,0,0,0,.907-.489Z" transform="translate(-231.085 -364.617)" fill="url(#linear-gradient-29)"/>
      <path id="Trazado_630849" data-name="Trazado 630849" d="M253.123,441.535c-.044.148-.708,3.364-1,4.775a.806.806,0,0,1-.829.644c-.217-.011-.47-.03-.735-.064a.973.973,0,0,1-.846-.927c-.047-1.236-.07-3.609.384-4.529C250.724,440.164,253.123,441.535,253.123,441.535Z" transform="translate(-234.504 -351.245)" fill="url(#linear-gradient-30)"/>
      <path id="Trazado_630850" data-name="Trazado 630850" d="M295.67,443.278c.285-.009-.113,1.469.317,2.921a.747.747,0,0,0,.684.589c.221,0,.484,0,.75-.023a.825.825,0,0,0,.76-.743l.35-3.768Z" transform="translate(-262.3 -352.068)" fill="url(#linear-gradient-31)"/>
      <path id="Trazado_630851" data-name="Trazado 630851" d="M275.638,340.776c-.127.618-4.609,26.759-4.881,40.286a.461.461,0,0,1-.4.448,9.052,9.052,0,0,1-2.751-.018.325.325,0,0,1-.267-.3c-.157-2.521-1.416-23.833.127-33.866,0,0-12.743,26.82-14.675,34.215a.389.389,0,0,1-.4.291,9.625,9.625,0,0,1-2.582-.459.674.674,0,0,1-.426-.793c1.079-4.426,8.643-34.918,13.778-41.636Z" transform="translate(-234.31 -289.616)" fill="url(#linear-gradient-32)"/>
      <path id="Trazado_630852" data-name="Trazado 630852" d="M294.879,357.384a.167.167,0,0,1-.119-.284l1.706-1.745a.167.167,0,1,1,.239.234L295,357.333A.166.166,0,0,1,294.879,357.384Z" transform="translate(-261.721 -299.504)" fill="url(#linear-gradient-33)"/>
      <path id="Trazado_630853" data-name="Trazado 630853" d="M304.012,257.83c-3.273-.857-9.311-2.2-14.118-1.914a2.176,2.176,0,0,0-2.051,2.043c-.726,12.8-1.718,24.161-3.587,30.77a24.174,24.174,0,0,0,12.471,1.829,137.988,137.988,0,0,0,8.067-22.842s1.349-6.893.039-9.19A1.355,1.355,0,0,0,304.012,257.83Z" transform="translate(-255.4 -239.398)" fill="url(#linear-gradient-34)"/>
      <path id="Trazado_630854" data-name="Trazado 630854" d="M312.654,238.141s-.827,4.931-1.073,7.211a.893.893,0,0,0,.485.891,6.527,6.527,0,0,0,4.933.527.833.833,0,0,0,.565-.812l-.144-6.583Z" transform="translate(-271.916 -228.676)" fill="url(#linear-gradient-35)"/>
      <g id="Grupo_902151" data-name="Grupo 902151" transform="translate(36.871 0)">
        <path id="Trazado_630855" data-name="Trazado 630855" d="M318.156,224.325a23.5,23.5,0,0,1,1.7,5.586c.107,1.923.522,3.171-1.7,3.558a4.726,4.726,0,0,1-5.111-2.636s-1.589-2.951-1.233-4.16S318.156,224.325,318.156,224.325Z" transform="translate(-308.898 -220.324)" fill="url(#linear-gradient-36)"/>
        <path id="Trazado_630856" data-name="Trazado 630856" d="M309.431,223.341h.281s-1.158-2.375-.14-2.792,5.048-1.239,5.918-2.669a2.659,2.659,0,0,0-1.028-3.658.149.149,0,0,0-.19.07l-.093.176a.151.151,0,0,1-.279-.029h0a.15.15,0,0,0-.271-.041c-.266.428-.987,1.123-2.921,1.48-2.743.506-4.557,1.616-4.6,3.512a.151.151,0,0,1-.234.124c-.2-.123-.526-.181-.96.183-.753.633-.445,2.276,1.206,3.628a.15.15,0,0,1-.007.242c-.3.195-.745.659.411,1.277a3.083,3.083,0,0,0,2.147.5.151.151,0,0,0,.114-.156l-.1-1.68a.151.151,0,0,1,.151-.161Z" transform="translate(-304.524 -214.209)" fill="url(#linear-gradient-37)"/>
        <path id="Trazado_630857" data-name="Trazado 630857" d="M314.043,235.438s-.608-2.34-1.657-1.684.544,2.622,1.388,2.709Z" transform="translate(-309.067 -225.954)" fill="url(#linear-gradient-38)"/>
      </g>
      <g id="Grupo_902152" data-name="Grupo 902152" transform="translate(0 18.312)">
        <path id="Trazado_630858" data-name="Trazado 630858" d="M219.094,313.855l-2.154.544c-3.7.935-6.181,3.712-5.551,6.2l.749,2.962c.63,2.492,4.137,3.755,7.832,2.821l2.154-.544q.214-.054.425-.117l63.156-18.9-1.632-6.454-64.55,13.383Q219.308,313.8,219.094,313.855Zm.928,2.957c2.783-.7,5.377.066,5.795,1.72s-1.5,3.564-4.282,4.267-5.377-.067-5.795-1.72S217.239,317.515,220.022,316.812Z" transform="translate(-211.291 -284.609)" fill="url(#linear-gradient-39)"/>
        <path id="Trazado_630859" data-name="Trazado 630859" d="M410.5,267.505,398,270.664a2.96,2.96,0,0,0-1.99,1.692l-1.87,4.317a2.958,2.958,0,0,0,.885,3.5l3.7,2.91a2.958,2.958,0,0,0,2.555.543l12.5-3.159a2.274,2.274,0,0,1,2.6,3.22,17.014,17.014,0,0,1-11.008,8.663c-8.987,2.272-16.941-3.173-19.126-11.818s2.226-17.215,11.214-19.487a17.014,17.014,0,0,1,13.8,2.392A2.273,2.273,0,0,1,410.5,267.505Z" transform="translate(-316.715 -260.511)" fill="url(#linear-gradient-40)"/>
        <path id="Trazado_630860" data-name="Trazado 630860" d="M411.249,270.484l-12.5,3.159a2.96,2.96,0,0,0-1.99,1.692l-1.87,4.317a2.958,2.958,0,0,0,.885,3.5l3.7,2.91a2.958,2.958,0,0,0,2.555.544l12.5-3.159a2.274,2.274,0,0,1,2.6,3.22,17.016,17.016,0,0,1-11.008,8.664c-8.988,2.272-16.941-3.174-19.126-11.818s2.226-17.215,11.213-19.487a17.015,17.015,0,0,1,13.8,2.392A2.274,2.274,0,0,1,411.249,270.484Z" transform="translate(-317.17 -262.312)" fill="url(#linear-gradient-41)"/>
        <path id="Trazado_630861" data-name="Trazado 630861" d="M219.694,316.23l-2.154.545c-3.7.934-6.182,3.712-5.552,6.2l.749,2.963c.63,2.492,4.136,3.755,7.832,2.821l2.154-.545q.214-.054.426-.117l63.156-18.9-1.631-6.455-64.55,13.383Q219.908,316.176,219.694,316.23Zm.927,2.957c2.783-.7,5.377.067,5.795,1.72s-1.5,3.564-4.281,4.267-5.377-.067-5.8-1.72S217.839,319.89,220.622,319.187Z" transform="translate(-211.654 -286.044)" fill="url(#linear-gradient-42)"/>
      </g>
      <g id="Grupo_902153" data-name="Grupo 902153" transform="translate(18.912 16.713)">
        <path id="Trazado_630862" data-name="Trazado 630862" d="M264.173,302.9a20.434,20.434,0,0,0-.707,9.41l-2.134.569s-2.756-3.279-2.126-10.554A10.408,10.408,0,0,1,264.173,302.9Z" transform="translate(-259.112 -284.133)" fill="url(#linear-gradient-43)"/>
        <path id="Trazado_630863" data-name="Trazado 630863" d="M259.349,274.663c.071-.818.182-1.684.348-2.6,1.442-8.024,11.729-14.2,14.149-15.547a.331.331,0,0,1,.491.3l-.344,10.908c-5.729.77-8.441,4.048-9.677,7.517A10.408,10.408,0,0,0,259.349,274.663Z" transform="translate(-259.255 -256.469)" fill="url(#linear-gradient-44)"/>
      </g>
      <path id="Trazado_630864" data-name="Trazado 630864" d="M363,324.789a1.383,1.383,0,0,0,.894-.774c.327-.734.7-1.91-.091-2.268-1.174-.534-3.307,1.653-3.307,1.653l-1.042,1.69-.953.464C359.375,325.8,361.059,325.395,363,324.789Z" transform="translate(-300.283 -279.168)" fill="url(#linear-gradient-45)"/>
      <path id="Trazado_630865" data-name="Trazado 630865" d="M265.97,325.024h2.638s-2.14,1.283-2.211,2.633a13.574,13.574,0,0,0,1.28,4.906c.471.832-5.973-1.239-3.7-7.539Z" transform="translate(-242.847 -281.199)" fill="url(#linear-gradient-46)"/>
    </g>
    <g id="Grupo_902155" data-name="Grupo 902155" transform="translate(340.887 217.002)">
      <path id="Trazado_630866" data-name="Trazado 630866" d="M860.453,654.083s9.487,20.677,14.464,29.241c0,0,.989,5.389,0,7.083l-.842.375,3.932-.117s.349-7.249.076-7.653a1,1,0,0,0-.818-.378s-1.686-13.357-6.568-16.208l-4.732-16.3Z" transform="translate(-826.072 -588.257)" fill="url(#linear-gradient-47)"/>
      <path id="Trazado_630867" data-name="Trazado 630867" d="M890.65,741.427c-.005.095,3.07.051,4.741.021a1.329,1.329,0,0,0,1.275-1.048l1.262-6.63a1.192,1.192,0,0,0-.905-1.385l-.7-.161a3.772,3.772,0,0,0-.688,2.676c.316,1.3.6,4.659-.2,5.051a11.659,11.659,0,0,1-3.1.46S890.7,740.573,890.65,741.427Z" transform="translate(-844.327 -637.886)" fill="url(#linear-gradient-48)"/>
      <path id="Trazado_630868" data-name="Trazado 630868" d="M837.447,750.515a.347.347,0,0,0,.175.649c2.8-.028,9.062-.116,9.619-.348.719-.3-.262-2.882-1.294-3.757l-5.7,1.86Z" transform="translate(-812.058 -646.854)" fill="url(#linear-gradient-49)"/>
      <path id="Trazado_630869" data-name="Trazado 630869" d="M833.242,656.8s6.131,29.657,7.865,35.443l-4.1,2.575s2.056-.35,3.581-.46,2.927-1.86,2.927-1.86l-.492-.784s-1.538-29.5-1.163-32.845Z" transform="translate(-809.622 -592.288)" fill="url(#linear-gradient-50)"/>
      <path id="Trazado_630870" data-name="Trazado 630870" d="M821.723,537.855c2.35.652,10.311,2.746,15.281,2.66l-3.052,17.22.243,2.809-9.949-.045a77.118,77.118,0,0,0-5.01-9.747c-.638-.937-.163-2.054.2-3.127l-.5-.331a1.354,1.354,0,0,1-.536-1.547l2.423-7.412A.74.74,0,0,1,821.723,537.855Z" transform="translate(-800.61 -520.369)" fill="url(#linear-gradient-51)"/>
      <path id="Trazado_630871" data-name="Trazado 630871" d="M830.163,590.911l.2,1.7s-2.811,8.42,1.406,28.086c0,0,9.134,2.588,16.641-3.6,0,0-2.118-18.562-2.7-19.427-2.881-4.306-4.8-5.242-4.8-5.242l-.087-1.859S832.794,592.018,830.163,590.911Z" transform="translate(-807.324 -552.25)" fill="url(#linear-gradient-52)"/>
      <path id="Trazado_630872" data-name="Trazado 630872" d="M841.114,531.659c-.035-.046,2.077-6.377,2.077-6.377l3.025.274,1.182,7.181S842.657,533.695,841.114,531.659Z" transform="translate(-814.381 -512.785)" fill="url(#linear-gradient-53)"/>
      <path id="Trazado_630873" data-name="Trazado 630873" d="M844.071,499.568c-.2.125-6.464,2.714-5.119,9.216a1.22,1.22,0,0,0,.694.869,10.609,10.609,0,0,0,5.264.872c3.281-.333,5.431-6.059,5.339-7.724S846.071,498.323,844.071,499.568Z" transform="translate(-812.96 -497.053)" fill="url(#linear-gradient-54)"/>
      <path id="Trazado_630874" data-name="Trazado 630874" d="M794.115,516.493a1.327,1.327,0,0,0-1.182-1.8,14.624,14.624,0,0,1-9.718-4.231c-2.2-2.2-2.786-10.219-2.786-10.219s-.465-3.716-1.394-3.716,0,2.322,0,2.322a4.177,4.177,0,0,1-4.645-.464c-2.322-1.858.465,2.787,2.787,3.716,0,0-.893,18.3,14.385,18.584a1.335,1.335,0,0,0,1.269-.853Z" transform="translate(-773.517 -495.4)" fill="url(#linear-gradient-55)"/>
      <path id="Trazado_630875" data-name="Trazado 630875" d="M845.046,509.324a8.563,8.563,0,0,1,.717-3.441,3.41,3.41,0,0,0-.418-3.569,5.372,5.372,0,0,1-1.1-5.5c1.171-2.821,4.924-3.945,8.385-2.509a7.056,7.056,0,0,1,4.428,5.149,4.728,4.728,0,0,0,1.809,3.026,8.614,8.614,0,0,1,2.971,4.2,4.77,4.77,0,0,0,2.147,2.714,13.253,13.253,0,1,1-18.514,5.728,3.394,3.394,0,0,0,.157-2.71A8.5,8.5,0,0,1,845.046,509.324Z" transform="translate(-816.059 -493.681)" fill="url(#linear-gradient-56)"/>
    </g>
    <path id="Trazado_630876" data-name="Trazado 630876" d="M836.228,102.869c-1.968-9.34-6.864-6.135-15.065-9.009s-5.8-13.123-10.887-16.285c-6.784-4.216-13.014-.3-17.234,5.231C786.03,92,781.232,84.523,772.85,88.25c-4.8,2.135-2.754,5.125-9.249,6.329-4.539.841-9.451-1.14-13.925.071-3.313.9-5.716,2.47-6.449,5.679q1.4.66,2.9,1.2c12.524,4.514,29.609,3.007,42.267,3.672C792.71,105.426,837.623,109.489,836.228,102.869Z" transform="translate(-414.318 -24.06)" fill="#fff" opacity="0.65"/>
    <path id="Trazado_630877" data-name="Trazado 630877" d="M1001.556,204.079a8.258,8.258,0,0,0-8.507-2.923c-3.428.857-5.366,4.134-8.557,5.444-5.567,2.286-13.265-2.231-17.493,3.662-5.171,7.208-9.167,1.8-9.167,6.693s35.726,1.287,53.355,1.544c2.547.037,13.6-.148,8.844-5.435-1.478-1.642-3.587-1.916-5.553-2.3-2.563-.5-8.658-.776-10.515-2.77-1-1.073-1.384-2.616-2.286-3.765Z" transform="translate(-544.053 -99.689)" fill="#fff" opacity="0.65"/>
    <g id="Grupo_902156" data-name="Grupo 902156" transform="translate(186.975 228.667)">
      <path id="Trazado_630878" data-name="Trazado 630878" d="M436.029,575.13A34.748,34.748,0,0,0,423.2,555.737a24.643,24.643,0,0,1-9.967-15.6q-.18-.993-.446-1.993c-2.687-10.091-11.049-16.626-18.676-14.595s-11.633,11.858-8.945,21.95a24.478,24.478,0,0,0,2.306,5.7,24.755,24.755,0,0,1,2.582,18.082,36.325,36.325,0,0,0,.323,18c2.5,9.383,8.159,16.82,14.933,20.757a24.258,24.258,0,0,1,6.7,5.741c3.086,3.833,7.6,5.785,11.88,4.645,4.62-1.23,7.68-5.715,8.137-11.1a25.885,25.885,0,0,1,2.414-8.779C437.513,592,438.289,583.614,436.029,575.13Z" transform="translate(-384.334 -523.179)" fill="#fd9927"/>
      <path id="Trazado_630879" data-name="Trazado 630879" d="M422.625,549.462c2.772,6.4,5.337,12.893,7.834,19.407.625,1.629,1.223,3.267,1.828,4.9l.905,2.455.885,2.462c.583,1.644,1.19,3.279,1.755,4.93l1.7,4.951c1.088,3.315,2.2,6.621,3.23,9.956.516,1.667,1.063,3.323,1.545,5l1.468,5.024c1.889,6.718,3.611,13.487,4.986,20.33l-.294.063-1.224-5.081-.3-1.27-.335-1.263-.674-2.524-.67-2.525c-.221-.842-.475-1.676-.71-2.514-.483-1.674-.952-3.35-1.446-5.021-2.018-6.668-4.124-13.31-6.367-19.907-1.147-3.29-2.265-6.59-3.435-9.872l-.87-2.464-.891-2.457c-.593-1.638-1.186-3.276-1.8-4.909q-1.787-4.912-3.648-9.8-1.837-4.894-3.745-9.762Z" transform="translate(-407.314 -539.068)" fill="#fd9927" opacity="0.57"/>
    </g>
    <g id="Grupo_902157" data-name="Grupo 902157" transform="translate(165.547 270.228)">
      <path id="Trazado_630880" data-name="Trazado 630880" d="M377.378,648.958a25.278,25.278,0,0,0-14.9-7.935,17.926,17.926,0,0,1-11.763-6.5q-.459-.571-.976-1.117c-5.215-5.507-12.808-6.784-16.96-2.853s-3.291,11.583,1.924,17.091a17.808,17.808,0,0,0,3.447,2.838,18.019,18.019,0,0,1,7.922,10.639,26.427,26.427,0,0,0,6.456,11.37c4.848,5.12,11.035,7.906,16.716,8.076a17.622,17.622,0,0,1,6.261,1.345c3.3,1.377,6.846,1.063,9.178-1.144,2.514-2.381,2.906-6.3,1.328-9.893a18.81,18.81,0,0,1-1.511-6.433A25.222,25.222,0,0,0,377.378,648.958Z" transform="translate(-330.152 -628.268)" fill="#feca2e"/>
      <path id="Trazado_630881" data-name="Trazado 630881" d="M354.292,645.37c3.989,3.126,7.874,6.377,11.725,9.669.963.823,1.913,1.661,2.866,2.5l1.429,1.252,1.418,1.264c.942.847,1.9,1.68,2.829,2.537l2.8,2.572c1.844,1.738,3.7,3.46,5.514,5.233.907.885,1.831,1.752,2.72,2.655l2.679,2.7c3.536,3.631,6.982,7.354,10.233,11.242l-.166.142-2.543-2.817-.634-.706-.652-.69-1.305-1.377-1.3-1.379c-.433-.46-.884-.9-1.325-1.358-.888-.9-1.769-1.808-2.664-2.7q-5.4-5.333-10.966-10.495c-1.872-1.7-3.73-3.42-5.614-5.109l-1.41-1.271-1.42-1.259c-.946-.84-1.893-1.68-2.848-2.51q-2.843-2.515-5.725-4.987t-5.774-4.931Z" transform="translate(-344.662 -638.607)" fill="#feca2e" opacity="0.57"/>
    </g>
  </g>
</svg>
