<svg xmlns="http://www.w3.org/2000/svg" width="191" height="191" viewBox="0 0 191 191">
  <g id="Grupo_906773" data-name="Grupo 906773" transform="translate(-389.376 -6834)">
    <circle id="Elipse_6507" data-name="Elipse 6507" cx="95.5" cy="95.5" r="95.5" transform="translate(389.376 6834)" fill="#4dd0e1"/>
    <g id="Grupo_901820" data-name="Grupo 901820" transform="translate(635.062 6704.352)">
      <path id="Trazado_630111" data-name="Trazado 630111" d="M-168.9,181.59l-1.714,3.656c1.459.542,1.723.915,1.726,2.535,0,1.66,0,3.321,0,5.056a16.548,16.548,0,0,1,7.739,2.969,16.178,16.178,0,0,1,7.114,13.54q.088,33.41.021,66.82a5.568,5.568,0,0,1-5.854,5.83q-18.247.016-36.494,0c-3.678,0-6-2.338-6-6.035q-.005-32.945,0-65.891c0-9.021,5.793-15.8,14.878-17.235,0-1.691,0-3.416,0-5.142,0-1.534.287-1.921,1.714-2.441l-1.694-3.67c-2.574,0-5.314-.02-8.052.028-.3.005-.651.349-.873.621-2.121,2.609-4.22,5.236-6.381,7.927l-2.9-2.3c2.506-3.129,4.936-6.23,7.464-9.249a2.762,2.762,0,0,1,1.835-.718c2-.09,4-.033,6.326-.033-1.324-1.3-2.417-2.417-3.574-3.467a1.739,1.739,0,0,0-1.069-.242c-3.133-.018-6.267-.01-9.468-.01v-3.719h4.116c2.17,0,4.343-.075,6.506.041a3.711,3.711,0,0,1,2.127.891c1.6,1.448,3.078,3.036,4.672,4.637a9.383,9.383,0,0,1,6.784-5.38,9.176,9.176,0,0,1,10.565,6.252,1.4,1.4,0,0,0,1.453,1.225,27.769,27.769,0,0,1,24.612,22.816,37.191,37.191,0,0,1,.449,5.66q.047,30.447.02,60.894c0,3.169.342,3.489,3.606,3.343a.988.988,0,0,0,.105-.293c.091-2.9.09-2.9,2.8-3.808q4.5-1.505,9-3.011c2.028-.674,3.075.064,3.077,2.171q.007,6.856,0,13.713c0,2.053-1.044,2.8-3,2.156q-4.837-1.6-9.666-3.231c-2.044-.688-2.2-.913-2.213-3.066,0-.261,0-.522,0-.874h-1.1c-4.159-.012-6.336-2.209-6.337-6.4q0-12.609,0-25.217c0-12.4.029-24.791-.009-37.186a24.081,24.081,0,0,0-17.961-23.321C-165.982,182.05-167.48,181.861-168.9,181.59Zm-3.745,9.3v-1.794h-11.082v3.584h11.082Zm40.942,85.345,3.663,1.3v-9.679l-3.663,1.322c-1.064.326-2.143.611-3.181,1.006a1.12,1.12,0,0,0-.5.847,31.627,31.627,0,0,0,0,3.35,1.118,1.118,0,0,0,.5.846C-133.845,275.619-132.765,275.9-131.7,276.231Zm-50.508-92.749a5.444,5.444,0,0,0,8,.134,5.439,5.439,0,0,0-.216-7.916,5.423,5.423,0,0,0-7.692.091A5.42,5.42,0,0,0-182.21,183.482Zm18.9,31.611c-.193-.012-.385-.035-.579-.035q-16.962,0-33.925,0c-.256,0-.513.05-.825.083v1.1q0,27.764,0,55.528c0,.309.023.618.036.927-.012.967-.034,1.935-.035,2.9,0,2.153.523,2.683,2.655,2.683h35.561c2.163,0,2.7-.523,2.7-2.643q0-29.631,0-59.261v-1.283Zm0-3.793h5.526c.029-.269.058-.418.058-.568,0-.7.04-1.4-.028-2.084a12.554,12.554,0,0,0-5.781-9.9,11.627,11.627,0,0,0-7.155-2.272c-4.991-.038-9.983-.048-14.973,0a12.643,12.643,0,0,0-9.943,4.7,13.234,13.234,0,0,0-2.96,10.167c3.267,0,6.437,0,9.606,0Q-176.139,211.321-163.314,211.3Z" transform="translate(0)"/>
      <path id="Trazado_630112" data-name="Trazado 630112" d="M56.329,249.988a30.285,30.285,0,0,1-.3,4.575,8.62,8.62,0,0,1-4.5,5.9,1.292,1.292,0,0,0-.788,1.326,9.287,9.287,0,1,1-18.542-.862,8.92,8.92,0,0,1,4.768-7.377,1.3,1.3,0,0,0,.8-1.318c.013-2.993.022-2.98-1.776-5.348a9.225,9.225,0,0,1-1.476-8.724c-6.833-2.751-11.36-7.6-12.984-14.791-1.628-7.207.42-13.521,5.415-18.952a14.6,14.6,0,0,1-2.211-7.831,14.819,14.819,0,0,1,6.991-12.649,2.937,2.937,0,0,0,1.118-1.445,16.755,16.755,0,0,1,32.5,1.7,16.346,16.346,0,0,1-3.518,13.7c-.214.268-.438.529-.7.843a11.233,11.233,0,0,1,1.261,16.871,2.176,2.176,0,0,0-.52,1.473,21.419,21.419,0,0,1-1.581,9.814c4.083,3.328,6.062,7.578,5.108,12.866S61.14,248.356,56.329,249.988ZM37.918,265.875a5.448,5.448,0,0,0,8.707-2.381,7.144,7.144,0,0,0,.2-2.947c-.188-1.733.106-2.277,1.745-2.861a6.931,6.931,0,0,0,2.021-1.086,5.407,5.407,0,0,0,1.352-6.808c-.786-1.686-.217-2.769,1.61-3.068.229-.038.456-.089.684-.131a9.281,9.281,0,0,0,3.345-16.968c-1.784-1.149-1.922-1.642-1-3.606A14.635,14.635,0,0,0,58.11,217.8c-.284-2.09-.259-3.819,1.767-4.978a1.341,1.341,0,0,0,.307-.346,7.4,7.4,0,0,0-2.569-11.472c-1.325-.657-1.841-1.382-1.467-2.382a3.831,3.831,0,0,1,1.131-1.409,12.985,12.985,0,0,0,1.546-18.4,11.207,11.207,0,0,0-6.681-4.072,6.5,6.5,0,0,0-.76-.266A12.965,12.965,0,0,0,36.2,184.507a2.852,2.852,0,0,1-1.575,2.108,11.077,11.077,0,0,0-3.969,16.607c.95,1.342.868,2.064-.347,3.215-4.778,4.526-6.635,10.048-5.063,16.434,1.546,6.28,5.653,10.315,11.877,12.152,1.973.582,2.385,1.564,1.4,3.354a5.525,5.525,0,0,0,2.567,7.9c1.768.814,2.019,1.611,1.068,3.378a5.264,5.264,0,0,0-.553,3.807c.386,1.673-.023,2.33-1.672,2.846a5.349,5.349,0,0,0-3.929,4.3A5.182,5.182,0,0,0,37.918,265.875Z" transform="translate(-156.411 -0.109)" fill="#030303"/>
      <path id="Trazado_630113" data-name="Trazado 630113" d="M-147.675,269.285q-12.825.019-25.65.036c-3.17,0-6.34,0-9.606,0a13.234,13.234,0,0,1,2.96-10.167,12.643,12.643,0,0,1,9.943-4.7c4.991-.048,9.982-.039,14.973,0a11.627,11.627,0,0,1,7.156,2.272Q-147.787,263.008-147.675,269.285Z" transform="translate(-15.639 -57.985)" fill="#fe3051"/>
      <path id="Trazado_630114" data-name="Trazado 630114" d="M-182.959,372.138c-.012-.309-.036-.618-.036-.927q0-27.764,0-55.528v-1.1c.312-.033.568-.083.825-.083q16.963-.005,33.925,0c.193,0,.386.023.579.035l-.2,4.89c-1.188-.4-2.371-1.136-3.565-1.153-7.4-.108-14.8-.077-22.2-.025a6.337,6.337,0,0,0-2.662.656,5.41,5.41,0,0,0-2.825,6.153,5.52,5.52,0,0,0,5.485,4.312c7.244.019,14.488-.008,21.733.019a6.591,6.591,0,0,0,4.028-1.222q0,3.068,0,6.136a6.746,6.746,0,0,0-4.143-1.222c-7.045.033-14.091.012-21.137.015-3.855,0-6.127,2.275-6.128,6.134,0,9.522.013,19.044-.015,28.566a6.78,6.78,0,0,0,1.223,4.142Z" transform="translate(-15.646 -99.443)" fill="#fe3051"/>
      <path id="Trazado_630115" data-name="Trazado 630115" d="M-147.864,334.384q0-3.068,0-6.136c2.793-2.873,2.794-5.876,0-8.741l.2-4.89h5.587V315.9q0,29.631,0,59.261c0,2.12-.535,2.643-2.7,2.643h-35.561c-2.132,0-2.658-.53-2.655-2.683,0-.967.023-1.935.035-2.9l4.89-.2a6.472,6.472,0,0,0,5.179,2.091c6.967-.058,13.934-.02,20.9-.023,3.943,0,6.186-2.246,6.187-6.193,0-9.443-.027-18.887.022-28.33A6.486,6.486,0,0,0-147.864,334.384Z" transform="translate(-15.65 -99.524)" fill="#cc2a00"/>
      <path id="Trazado_630116" data-name="Trazado 630116" d="M-133.432,191.815a5.42,5.42,0,0,1,.091-7.691,5.423,5.423,0,0,1,7.692-.091A7.57,7.57,0,0,1-133.432,191.815Z" transform="translate(-48.778 -8.333)" fill="#43fce5"/>
      <path id="Trazado_630117" data-name="Trazado 630117" d="M-69.493,274.417q-.112-6.278-.225-12.555a12.554,12.554,0,0,1,5.781,9.9c.068.689.026,1.389.028,2.084,0,.15-.029.3-.058.568Z" transform="translate(-93.821 -63.117)" fill="#cb2a00"/>
      <path id="Trazado_630118" data-name="Trazado 630118" d="M-129.968,195.278a7.57,7.57,0,0,0,7.783-7.782,5.439,5.439,0,0,1,.216,7.916A5.444,5.444,0,0,1-129.968,195.278Z" transform="translate(-52.242 -11.796)" fill="#01d9bf"/>
      <path id="Trazado_630119" data-name="Trazado 630119" d="M33.022,486.191l3.663-1.322v9.679l-3.663-1.3Z" transform="translate(-164.723 -217.017)" fill="#cb2a00"/>
      <path id="Trazado_630120" data-name="Trazado 630120" d="M24.716,489.136v7.057c-1.064-.326-2.143-.612-3.181-1.008a1.118,1.118,0,0,1-.5-.846,31.627,31.627,0,0,1,0-3.35,1.12,1.12,0,0,1,.5-.847C22.573,489.747,23.652,489.462,24.716,489.136Z" transform="translate(-156.418 -219.962)" fill="#fc2f50"/>
      <path id="Trazado_630121" data-name="Trazado 630121" d="M-134.86,232.5V230.71h11.082V232.5Z" transform="translate(-48.866 -41.618)" fill="#eabe00"/>
      <path id="Trazado_630122" data-name="Trazado 630122" d="M-134.86,236.5h11.082v1.79H-134.86Z" transform="translate(-48.866 -45.613)" fill="#fedd55"/>
      <path id="Trazado_630123" data-name="Trazado 630123" d="M46.209,273.966A5.182,5.182,0,0,1,44.3,268.7a5.349,5.349,0,0,1,3.929-4.3c1.649-.516,2.057-1.173,1.672-2.846a5.264,5.264,0,0,1,.553-3.807c.951-1.767.7-2.564-1.068-3.378a5.525,5.525,0,0,1-2.567-7.9c.987-1.79.575-2.772-1.4-3.354-6.225-1.837-10.332-5.872-11.877-12.152-1.572-6.386.285-11.908,5.063-16.434,1.215-1.151,1.3-1.874.347-3.215a11.077,11.077,0,0,1,3.969-16.607,2.852,2.852,0,0,0,1.575-2.108,12.965,12.965,0,0,1,15.183-10.029,6.5,6.5,0,0,1,.76.266,5.521,5.521,0,0,0,.45.775c3.871,4.755,4.839,10,2.531,15.72a14.373,14.373,0,0,1-4.571,5.954,5.759,5.759,0,0,0,.552.347,9.25,9.25,0,0,1,1.848,15.488c-.633.545-.531,1.1-.548,1.747a47.445,47.445,0,0,1-.258,5.962A36.654,36.654,0,0,1,58.93,233.9c4.333,2.913,6.566,6.9,5.412,12.159-1.14,5.2-4.765,7.987-9.8,8.85A21.568,21.568,0,0,1,55.3,258.2a7.279,7.279,0,0,1-4.924,7.355c-.487.188-.882.289-.821,1.014a8.756,8.756,0,0,1-.091,3.186C48.926,271.513,48.244,273.3,46.209,273.966Z" transform="translate(-164.702 -8.2)" fill="#dfdfe1"/>
      <path id="Trazado_630124" data-name="Trazado 630124" d="M75.644,275.189c2.035-.664,2.717-2.453,3.252-4.213a8.757,8.757,0,0,0,.091-3.186c-.061-.725.334-.826.821-1.014a7.279,7.279,0,0,0,4.924-7.355,21.57,21.57,0,0,0-.758-3.289c5.038-.864,8.662-3.653,9.8-8.85,1.154-5.262-1.078-9.246-5.412-12.159a36.655,36.655,0,0,0,1.509-5.073,47.445,47.445,0,0,0,.258-5.962c.017-.644-.085-1.2.548-1.747a9.25,9.25,0,0,0-1.848-15.488,5.753,5.753,0,0,1-.552-.347,14.373,14.373,0,0,0,4.571-5.954c2.308-5.725,1.339-10.965-2.531-15.72a5.519,5.519,0,0,1-.45-.775,11.207,11.207,0,0,1,6.681,4.072,12.985,12.985,0,0,1-1.546,18.4,3.83,3.83,0,0,0-1.131,1.409c-.374,1,.142,1.725,1.467,2.382a7.4,7.4,0,0,1,2.569,11.472,1.341,1.341,0,0,1-.307.346c-2.027,1.159-2.051,2.888-1.767,4.978a14.635,14.635,0,0,1-1.527,8.218c-.921,1.963-.783,2.456,1,3.606a9.281,9.281,0,0,1-3.345,16.968c-.228.042-.455.094-.684.131-1.827.3-2.4,1.382-1.61,3.068a5.407,5.407,0,0,1-1.352,6.808A6.93,6.93,0,0,1,86.3,267c-1.639.585-1.933,1.129-1.745,2.862a7.144,7.144,0,0,1-.2,2.947A5.448,5.448,0,0,1,75.644,275.189Z" transform="translate(-194.137 -9.422)" fill="#aaa9af"/>
      <path id="Trazado_630125" data-name="Trazado 630125" d="M-139.616,375.681a6.487,6.487,0,0,1,2.089,5.179c-.049,9.443-.02,18.887-.022,28.33,0,3.947-2.244,6.192-6.187,6.193-6.967,0-13.935-.036-20.9.023a6.471,6.471,0,0,1-5.179-2.091,6.78,6.78,0,0,1-1.222-4.141c.029-9.522.012-19.044.015-28.566,0-3.858,2.273-6.132,6.128-6.134,7.046,0,14.091.017,21.137-.015A6.746,6.746,0,0,1-139.616,375.681Zm-27.651,30.4c-.013,1.082-.039,2.165-.035,3.247.005,1.675.646,2.331,2.3,2.333q10.737.01,21.473,0c1.587,0,2.249-.671,2.255-2.265.011-3.056,0-6.112,0-9.169q0-9.807,0-19.614c0-1.809-.621-2.418-2.45-2.419-1.044,0-2.087.023-3.131.036-6.145-.012-12.29-.035-18.435-.029a1.825,1.825,0,0,0-2.01,2.027Q-167.3,393.155-167.267,406.082Z" transform="translate(-23.898 -140.821)"/>
      <path id="Trazado_630126" data-name="Trazado 630126" d="M-139.582,327.668c2.791,2.865,2.791,5.868,0,8.741a6.59,6.59,0,0,1-4.028,1.221c-7.244-.028-14.488,0-21.733-.019a5.52,5.52,0,0,1-5.485-4.312,5.41,5.41,0,0,1,2.825-6.153,6.337,6.337,0,0,1,2.662-.656c7.4-.051,14.8-.082,22.2.025C-141.953,326.533-140.77,327.266-139.582,327.668Zm-7.48,2.568c-6.119-.018-12.238-.049-18.357-.04a1.79,1.79,0,0,0-1.844,1.843,1.791,1.791,0,0,0,1.844,1.843c6.119.009,12.238-.022,18.357-.04,1.311.018,2.623.072,3.933.044a1.81,1.81,0,0,0,1.888-1.789,1.814,1.814,0,0,0-1.888-1.9C-144.439,330.163-145.751,330.218-147.062,330.236Z" transform="translate(-23.932 -107.685)"/>
      <path id="Trazado_630127" data-name="Trazado 630127" d="M-158.933,414.416q-.019-12.927-.03-25.854a1.825,1.825,0,0,1,2.01-2.027c6.145-.006,12.29.017,18.435.029q0,1.821,0,3.642h-9.224V394h9.224v3.642h-9.224v3.8h9.224v3.642h-9.224v3.8h9.224l-.459,3.643h-8.875v1.894h-3.643l-.087-1.79h-3.709v1.79Zm3.754-24.138v3.614h3.573v-3.614Zm-.007,7.438v3.62h3.587v-3.62Zm-.016,11.074h3.619v-3.618H-155.2Z" transform="translate(-32.231 -149.155)" fill="#fedd55"/>
      <path id="Trazado_630128" data-name="Trazado 630128" d="M-138.988,412.509q.23-1.822.459-3.643l1.793-.089V405.07h-1.793q0-1.821,0-3.642l1.793-.089v-3.707h-1.793q0-1.821,0-3.642l1.793-.089v-3.707h-1.793q0-1.821,0-3.642c1.044-.013,2.087-.036,3.131-.036,1.83,0,2.449.61,2.45,2.419q.006,9.807,0,19.614c0,3.056.008,6.112,0,9.169-.006,1.594-.668,2.263-2.255,2.265q-10.737.012-21.473,0c-1.656,0-2.3-.658-2.3-2.333,0-1.082.023-2.165.035-3.247h3.643c.03.6.06,1.2.089,1.793h3.708V414.4h3.643c.03.6.06,1.2.089,1.8h11.038v-3.69Z" transform="translate(-32.219 -149.141)" fill="#eabe00"/>
      <path id="Trazado_630129" data-name="Trazado 630129" d="M-138.762,342.2c-6.119.018-12.238.049-18.357.04a1.791,1.791,0,0,1-1.844-1.843,1.79,1.79,0,0,1,1.844-1.843c6.119-.009,12.238.023,18.357.04Z" transform="translate(-32.232 -116.04)" fill="#009597"/>
      <path id="Trazado_630130" data-name="Trazado 630130" d="M-93.775,342.172v-3.606c1.311-.018,2.623-.073,3.933-.045a1.814,1.814,0,0,1,1.888,1.9,1.809,1.809,0,0,1-1.888,1.789C-91.152,342.244-92.464,342.19-93.775,342.172Z" transform="translate(-77.219 -116.015)" fill="#007377"/>
      <path id="Trazado_630131" data-name="Trazado 630131" d="M-113.526,398.385h1.793v3.707l-1.793.089h-9.224v-3.8Z" transform="translate(-57.223 -157.333)"/>
      <path id="Trazado_630132" data-name="Trazado 630132" d="M-113.526,422.388h1.793v3.707l-1.793.089h-9.224v-3.8Z" transform="translate(-57.223 -173.898)"/>
      <path id="Trazado_630133" data-name="Trazado 630133" d="M-113.526,446.391h1.793V450.1l-1.793.089h-9.224v-3.8Z" transform="translate(-57.223 -190.463)"/>
      <path id="Trazado_630134" data-name="Trazado 630134" d="M-114.23,470.4h2.252v3.69h-11.038c-.029-.594-.059-1.195-.089-1.8V470.4Z" transform="translate(-56.978 -207.03)"/>
      <path id="Trazado_630135" data-name="Trazado 630135" d="M-146.751,398.613h3.573v3.614h-3.573Z" transform="translate(-40.659 -157.49)"/>
      <path id="Trazado_630136" data-name="Trazado 630136" d="M-146.772,422.616h3.587v3.62h-3.587Z" transform="translate(-40.645 -174.055)"/>
      <path id="Trazado_630137" data-name="Trazado 630137" d="M-146.824,450.3v-3.618h3.619V450.3Z" transform="translate(-40.609 -190.661)"/>
      <path id="Trazado_630138" data-name="Trazado 630138" d="M-143.315,472.522v1.793h-3.707c-.029-.591-.059-1.192-.089-1.793v-1.79h3.709Z" transform="translate(-40.411 -207.261)"/>
    </g>
  </g>
</svg>
