<svg xmlns="http://www.w3.org/2000/svg" width="420" height="318.853" viewBox="0 0 420 318.853">
  <g id="Grupo_906786" data-name="Grupo 906786" transform="translate(-1000 -477.804)">
    <g id="Grupo_903732" data-name="Grupo 903732" transform="translate(1051.453 490.694)">
      <g id="Grupo_903416" data-name="Grupo 903416" transform="translate(202.502 78.045)">
        <g id="Grupo_903412" data-name="Grupo 903412" transform="translate(41.779 41.281)">
          <g id="Grupo_903411" data-name="Grupo 903411">
            <path id="Trazado_632192" data-name="Trazado 632192" d="M358.648,154.19a11.96,11.96,0,1,1-11.432-12.466A11.937,11.937,0,0,1,358.648,154.19Z" transform="translate(-334.739 -141.714)" fill="#cbe9f4"/>
          </g>
        </g>
        <g id="Grupo_903413" data-name="Grupo 903413" transform="translate(0 0)">
          <path id="Trazado_632193" data-name="Trazado 632193" d="M370.9,129.846a16.2,16.2,0,0,1-5.01-13.883c.467-3.021,8.961-8.279,8.961-8.279L362.178,93.911s-5.943,8.06-8.986,8.268a15.177,15.177,0,0,1-12.738-5.933c-1.8-2.471.525-12.186.525-12.186l-18.719-.808s1.47,9.893-.523,12.185a12.978,12.978,0,0,1-11.7,3.984c-2.992-.595-7.838-9.331-7.838-9.331l-14.341,12.043s7.763,6.294,7.846,9.334a17.211,17.211,0,0,1-6.885,13.807c-2.487,1.779-12.2-.677-12.2-.677L275.571,143.3s9.894-1.356,12.161.667a16.216,16.216,0,0,1,5.015,13.891c-.464,3.016-8.971,8.271-8.971,8.271L296.452,179.9s5.94-8.045,8.987-8.259a15.265,15.265,0,0,1,12.748,5.931c1.8,2.473-.517,12.182-.517,12.182l18.707.808s-1.478-9.889.513-12.184a13.037,13.037,0,0,1,11.724-3.982c2.979.606,7.836,9.337,7.836,9.337l14.334-12.048s-7.757-6.293-7.85-9.336a17.25,17.25,0,0,1,6.885-13.809c2.489-1.76,12.206.693,12.206.693l1.036-18.7S373.177,131.87,370.9,129.846Zm-42.909,37.63a31.019,31.019,0,1,1,32.328-29.65A31.015,31.015,0,0,1,327.991,167.475Z" transform="translate(-275.571 -83.251)" fill="#cbe9f4"/>
        </g>
        <g id="Grupo_903415" data-name="Grupo 903415" transform="translate(30.059 29.948)">
          <g id="Grupo_903414" data-name="Grupo 903414">
            <path id="Trazado_632194" data-name="Trazado 632194" d="M365.524,150.4a23.7,23.7,0,1,1-22.66-24.713A23.691,23.691,0,0,1,365.524,150.4Z" transform="translate(-318.142 -125.663)" fill="#cbe9f4"/>
          </g>
        </g>
      </g>
      <g id="Grupo_903422" data-name="Grupo 903422" transform="translate(41.258 143.288)">
        <g id="Grupo_903418" data-name="Grupo 903418" transform="translate(41.779 41.282)">
          <g id="Grupo_903417" data-name="Grupo 903417">
            <path id="Trazado_632195" data-name="Trazado 632195" d="M130.29,246.59a11.96,11.96,0,1,1-11.431-12.466A11.936,11.936,0,0,1,130.29,246.59Z" transform="translate(-106.383 -234.114)" fill="#cbe9f4"/>
          </g>
        </g>
        <g id="Grupo_903419" data-name="Grupo 903419" transform="translate(0 0)">
          <path id="Trazado_632196" data-name="Trazado 632196" d="M142.544,222.245a16.193,16.193,0,0,1-5.01-13.883c.466-3.022,8.96-8.279,8.96-8.279L133.82,186.311s-5.943,8.06-8.985,8.268a15.177,15.177,0,0,1-12.738-5.933c-1.8-2.471.526-12.187.526-12.187L93.9,175.65s1.471,9.894-.523,12.186a12.978,12.978,0,0,1-11.7,3.984c-2.992-.6-7.838-9.331-7.838-9.331L59.5,194.532s7.763,6.294,7.846,9.333a17.212,17.212,0,0,1-6.885,13.807c-2.488,1.779-12.2-.677-12.2-.677L47.215,235.7s9.893-1.357,12.161.667a16.215,16.215,0,0,1,5.015,13.89c-.464,3.017-8.97,8.272-8.97,8.272L68.095,272.3s5.94-8.045,8.987-8.259a15.264,15.264,0,0,1,12.748,5.931c1.8,2.473-.516,12.182-.516,12.182l18.706.809s-1.478-9.89.513-12.185a13.04,13.04,0,0,1,11.724-3.982c2.98.607,7.837,9.337,7.837,9.337l14.333-12.046s-7.757-6.294-7.85-9.338a17.249,17.249,0,0,1,6.886-13.809c2.489-1.76,12.206.693,12.206.693l1.035-18.7S144.82,224.269,142.544,222.245Zm-42.91,37.63a31.019,31.019,0,1,1,32.329-29.651A31.014,31.014,0,0,1,99.634,259.875Z" transform="translate(-47.215 -175.65)" fill="#cbe9f4"/>
        </g>
        <g id="Grupo_903421" data-name="Grupo 903421" transform="translate(30.059 29.948)">
          <g id="Grupo_903420" data-name="Grupo 903420">
            <path id="Trazado_632197" data-name="Trazado 632197" d="M137.167,242.8a23.7,23.7,0,1,1-22.66-24.713A23.692,23.692,0,0,1,137.167,242.8Z" transform="translate(-89.785 -218.063)" fill="#cbe9f4"/>
          </g>
        </g>
      </g>
      <path id="Trazado_632198" data-name="Trazado 632198" d="M239.77,300.5c7.025-5.73,8.4-16.974,3.071-25.1-4.3-6.559-11.636-9.087-18-6.82a29.291,29.291,0,0,0-1.732-3.045c-7.891-12.057-22.723-14.945-33.126-6.451a26.128,26.128,0,0,0-9.078,16.86,10.509,10.509,0,0,0-7.216,2.407c-5.185,4.232-6.2,12.532-2.266,18.539s11.325,7.453,16.507,3.221c.1-.082.186-.172.281-.256,8.259,8.973,21.062,10.46,30.347,2.883a23.7,23.7,0,0,0,2.579-2.461C226.651,304.738,234.161,305.079,239.77,300.5Z" transform="translate(-41.756 -55.448)" fill="#ffe7e7"/>
      <path id="Trazado_632199" data-name="Trazado 632199" d="M146.459,304.183c9.816-8.012,11.488-24.1,3.742-35.935-6.248-9.544-16.718-13.4-25.684-10.335a45.336,45.336,0,0,0-2.531-4.422c-11.48-17.542-32.579-22.135-47.123-10.263-7.123,5.815-11.348,14.507-12.455,23.919a14.3,14.3,0,0,0-10.17,3.236c-7.25,5.915-8.486,17.794-2.763,26.534s16.237,11.038,23.482,5.121c.142-.114.258-.239.391-.357,11.925,13.125,40.62,3.921,53.6-6.67,1.3-1.058-8.011,9.513-6.907,8.274C127.963,309.864,138.62,310.581,146.459,304.183Z" transform="translate(-5.564 -50.284)" fill="#ffe7e7"/>
      <path id="Trazado_632200" data-name="Trazado 632200" d="M342.684,300.049c9.816-8.012,11.488-24.1,3.742-35.934-6.248-9.544-16.718-13.395-25.684-10.334a45.082,45.082,0,0,0-2.531-4.422c-11.481-17.542-32.578-22.136-47.123-10.262-7.124,5.813-11.349,14.506-12.454,23.917a14.308,14.308,0,0,0-10.171,3.236c-7.25,5.916-8.485,17.793-2.762,26.535s16.236,11.036,23.481,5.121c.142-.115.258-.241.392-.359,11.924,13.127,40.619,3.922,53.595-6.668,1.3-1.058-8.011,9.513-6.906,8.273C324.189,305.731,334.845,306.447,342.684,300.049Z" transform="translate(-63.233 -49.07)" fill="#ffe7e7"/>
      <path id="Trazado_632201" data-name="Trazado 632201" d="M425.51,314.794c6.815-5.557,8.144-16.464,2.98-24.351-4.166-6.363-11.286-8.815-17.461-6.616a28.32,28.32,0,0,0-1.681-2.954c-7.653-11.7-22.04-14.5-32.133-6.258a25.348,25.348,0,0,0-8.806,16.356,10.188,10.188,0,0,0-7,2.336c-5.03,4.105-6.015,12.155-2.2,17.982s10.984,7.229,16.011,3.125c.1-.079.182-.167.273-.248,8.011,8.7,20.432,10.146,29.438,2.8a22.931,22.931,0,0,0,2.5-2.387C412.785,318.908,420.069,319.237,425.51,314.794Z" transform="translate(-96.967 -60.057)" fill="#ffe7e7"/>
      <g id="Grupo_903577" data-name="Grupo 903577" transform="translate(102.603 65.536)">
        <g id="Grupo_903444" data-name="Grupo 903444" transform="translate(78.185)">
          <g id="Grupo_903425" data-name="Grupo 903425" transform="translate(11.05)">
            <g id="Grupo_903424" data-name="Grupo 903424">
              <g id="Grupo_903423" data-name="Grupo 903423">
                <path id="Trazado_632202" data-name="Trazado 632202" d="M260.8,67.327l-.335-1.119a18.986,18.986,0,0,1,2.616-.667l.179,1.159A16.879,16.879,0,0,0,260.8,67.327Z" transform="translate(-260.468 -65.536)" fill="#ffb502"/>
              </g>
            </g>
          </g>
          <g id="Grupo_903428" data-name="Grupo 903428" transform="translate(7.374 1.144)">
            <g id="Grupo_903427" data-name="Grupo 903427">
              <g id="Grupo_903426" data-name="Grupo 903426">
                <path id="Trazado_632203" data-name="Trazado 632203" d="M255.856,69.411l-.594-.995s.588-.354,1.192-.683c.614-.3,1.24-.578,1.24-.578l.419,1.089s-.578.256-1.15.531C256.4,69.082,255.856,69.411,255.856,69.411Z" transform="translate(-255.262 -67.156)" fill="#ffb502"/>
              </g>
            </g>
          </g>
          <g id="Grupo_903431" data-name="Grupo 903431" transform="translate(4.211 3.166)">
            <g id="Grupo_903430" data-name="Grupo 903430">
              <g id="Grupo_903429" data-name="Grupo 903429">
                <path id="Trazado_632204" data-name="Trazado 632204" d="M251.6,72.7l-.814-.8a15.834,15.834,0,0,1,2.05-1.875l.676.941A13.88,13.88,0,0,0,251.6,72.7Z" transform="translate(-250.782 -70.02)" fill="#ffb502"/>
              </g>
            </g>
          </g>
          <g id="Grupo_903434" data-name="Grupo 903434" transform="translate(1.919 6.108)">
            <g id="Grupo_903433" data-name="Grupo 903433">
              <g id="Grupo_903432" data-name="Grupo 903432">
                <path id="Trazado_632205" data-name="Trazado 632205" d="M248.516,77.184l-.98-.542a2.1,2.1,0,0,1,.181-.412c.126-.232.3-.546.467-.857a6.344,6.344,0,0,1,.521-.824c.154-.215.257-.363.257-.363l.879.722s-.093.136-.236.336a5.2,5.2,0,0,0-.484.765l-.432.8A2.306,2.306,0,0,0,248.516,77.184Z" transform="translate(-247.536 -74.187)" fill="#ffb502"/>
              </g>
            </g>
          </g>
          <g id="Grupo_903437" data-name="Grupo 903437" transform="translate(0.783 9.865)">
            <g id="Grupo_903436" data-name="Grupo 903436">
              <g id="Grupo_903435" data-name="Grupo 903435">
                <path id="Trazado_632206" data-name="Trazado 632206" d="M247,82.58l-1.072-.253a19.376,19.376,0,0,1,.53-2.513l.087-.305,1.024.453-.083.283A17.733,17.733,0,0,0,247,82.58Z" transform="translate(-245.927 -79.508)" fill="#ffb502"/>
              </g>
            </g>
          </g>
          <g id="Grupo_903440" data-name="Grupo 903440" transform="translate(0.31 14.089)">
            <g id="Grupo_903439" data-name="Grupo 903439">
              <g id="Grupo_903438" data-name="Grupo 903438">
                <path id="Trazado_632207" data-name="Trazado 632207" d="M246.348,88.407l-1.091-.117s.064-.7.13-1.4.151-1.4.151-1.4l1.087.155s-.076.686-.15,1.376S246.348,88.407,246.348,88.407Z" transform="translate(-245.257 -85.489)" fill="#ffb502"/>
              </g>
            </g>
          </g>
          <g id="Grupo_903443" data-name="Grupo 903443" transform="translate(0 18.262)">
            <g id="Grupo_903442" data-name="Grupo 903442">
              <g id="Grupo_903441" data-name="Grupo 903441">
                <path id="Trazado_632208" data-name="Trazado 632208" d="M245.911,94.29l-1.093-.09.2-2.8,1.091.1Z" transform="translate(-244.818 -91.4)" fill="#ffb502"/>
              </g>
            </g>
          </g>
        </g>
        <g id="Grupo_903466" data-name="Grupo 903466" transform="translate(74.105 22.431)">
          <g id="Grupo_903447" data-name="Grupo 903447" transform="translate(3.806)">
            <g id="Grupo_903446" data-name="Grupo 903446">
              <g id="Grupo_903445" data-name="Grupo 903445">
                <path id="Trazado_632209" data-name="Trazado 632209" d="M245.52,100.188l-1.089-.091.181-2.793,1.093.09Z" transform="translate(-244.431 -97.304)" fill="#ffb502"/>
              </g>
            </g>
          </g>
          <g id="Grupo_903450" data-name="Grupo 903450" transform="translate(3.511 4.159)">
            <g id="Grupo_903449" data-name="Grupo 903449">
              <g id="Grupo_903448" data-name="Grupo 903448">
                <path id="Trazado_632210" data-name="Trazado 632210" d="M245.1,106.136l-1.083-.206.2-2.736,1.088.094Z" transform="translate(-244.013 -103.193)" fill="#ffb502"/>
              </g>
            </g>
          </g>
          <g id="Grupo_903453" data-name="Grupo 903453" transform="translate(3.157 8.212)">
            <g id="Grupo_903452" data-name="Grupo 903452">
              <g id="Grupo_903451" data-name="Grupo 903451">
                <path id="Trazado_632211" data-name="Trazado 632211" d="M244.56,112.134l-1.047-.515.248-2.686,1.072.309Z" transform="translate(-243.512 -108.933)" fill="#ffb502"/>
              </g>
            </g>
          </g>
          <g id="Grupo_903456" data-name="Grupo 903456" transform="translate(2.697 12.21)">
            <g id="Grupo_903455" data-name="Grupo 903455">
              <g id="Grupo_903454" data-name="Grupo 903454">
                <path id="Trazado_632212" data-name="Trazado 632212" d="M243.854,118.08l-.993-.811.323-2.675,1.032.614s-.084.718-.172,1.443S243.854,118.08,243.854,118.08Z" transform="translate(-242.861 -114.595)" fill="#ffb502"/>
              </g>
            </g>
          </g>
          <g id="Grupo_903459" data-name="Grupo 903459" transform="translate(2.072 16.19)">
            <g id="Grupo_903458" data-name="Grupo 903458">
              <g id="Grupo_903457" data-name="Grupo 903457">
                <path id="Trazado_632213" data-name="Trazado 632213" d="M242.892,123.962l-.917-1.075.239-1.323c.1-.669.2-1.332.2-1.332l.97.9s-.114.712-.232,1.418S242.892,123.962,242.892,123.962Z" transform="translate(-241.975 -120.232)" fill="#ffb502"/>
              </g>
            </g>
          </g>
          <g id="Grupo_903462" data-name="Grupo 903462" transform="translate(1.219 20.138)">
            <g id="Grupo_903461" data-name="Grupo 903461">
              <g id="Grupo_903460" data-name="Grupo 903460">
                <path id="Trazado_632214" data-name="Trazado 632214" d="M241.579,129.736l-.812-1.294s.158-.653.319-1.3c.141-.658.285-1.316.285-1.316l.883,1.15s-.16.7-.316,1.39C241.757,129.046,241.579,129.736,241.579,129.736Z" transform="translate(-240.767 -125.823)" fill="#ffb502"/>
              </g>
            </g>
          </g>
          <g id="Grupo_903465" data-name="Grupo 903465" transform="translate(0 24.018)">
            <g id="Grupo_903464" data-name="Grupo 903464">
              <g id="Grupo_903463" data-name="Grupo 903463">
                <path id="Trazado_632215" data-name="Trazado 632215" d="M239.725,135.312l-.684-1.462s.254-.619.458-1.253c.228-.629.407-1.279.407-1.279l.768,1.356s-.2.679-.446,1.329C240,134.671,239.725,135.312,239.725,135.312Z" transform="translate(-239.041 -131.318)" fill="#ffb502"/>
              </g>
            </g>
          </g>
        </g>
        <g id="Grupo_903488" data-name="Grupo 903488" transform="translate(55.17 46.308)">
          <g id="Grupo_903469" data-name="Grupo 903469" transform="translate(17.167 3.877)">
            <g id="Grupo_903468" data-name="Grupo 903468">
              <g id="Grupo_903467" data-name="Grupo 903467">
                <path id="Trazado_632216" data-name="Trazado 632216" d="M237.068,140.522l-.532-1.59.679-1.131c.292-.6.587-1.191.587-1.191l.635,1.511-.638,1.231C237.433,139.938,237.068,140.522,237.068,140.522Z" transform="translate(-236.536 -136.609)" fill="#ffb502"/>
              </g>
            </g>
          </g>
          <g id="Grupo_903472" data-name="Grupo 903472" transform="translate(14.511 7.233)">
            <g id="Grupo_903471" data-name="Grupo 903471">
              <g id="Grupo_903470" data-name="Grupo 903470">
                <path id="Trazado_632217" data-name="Trazado 632217" d="M233.126,144.807l-.352-1.687s.513-.388,1-.806c.446-.477.908-.934.889-.951l.477,1.628a3.382,3.382,0,0,1-.291.314c-.179.181-.421.424-.655.665C233.669,144.4,233.126,144.807,233.126,144.807Z" transform="translate(-232.774 -141.363)" fill="#ffb502"/>
              </g>
            </g>
          </g>
          <g id="Grupo_903475" data-name="Grupo 903475" transform="translate(10.969 9.596)">
            <g id="Grupo_903474" data-name="Grupo 903474">
              <g id="Grupo_903473" data-name="Grupo 903473">
                <path id="Trazado_632218" data-name="Trazado 632218" d="M227.9,147.015l-.142-1.733a9.671,9.671,0,0,0,1.248-.174c.607-.171,1.2-.4,1.2-.4l.285,1.7s-.629.238-1.271.412A12.188,12.188,0,0,1,227.9,147.015Z" transform="translate(-227.758 -144.709)" fill="#ffb502"/>
              </g>
            </g>
          </g>
          <g id="Grupo_903478" data-name="Grupo 903478" transform="translate(7.252 9.406)">
            <g id="Grupo_903477" data-name="Grupo 903477">
              <g id="Grupo_903476" data-name="Grupo 903476">
                <path id="Trazado_632219" data-name="Trazado 632219" d="M222.495,146.162l.071-1.722s.586.247,1.176.488l1.236.26.071,1.726s-.653-.126-1.309-.261Z" transform="translate(-222.495 -144.44)" fill="#ffb502"/>
              </g>
            </g>
          </g>
          <g id="Grupo_903481" data-name="Grupo 903481" transform="translate(4.142 6.909)">
            <g id="Grupo_903480" data-name="Grupo 903480">
              <g id="Grupo_903479" data-name="Grupo 903479">
                <path id="Trazado_632220" data-name="Trazado 632220" d="M218.09,142.56l.261-1.657s.42.5.878.972c.242.215.487.432.669.589a3.949,3.949,0,0,0,.311.26l-.141,1.707s-.134-.1-.328-.266-.453-.388-.712-.607C218.542,143.076,218.091,142.562,218.09,142.56Z" transform="translate(-218.09 -140.903)" fill="#ffb502"/>
              </g>
            </g>
          </g>
          <g id="Grupo_903484" data-name="Grupo 903484" transform="translate(1.833 3.607)">
            <g id="Grupo_903483" data-name="Grupo 903483">
              <g id="Grupo_903482" data-name="Grupo 903482">
                <path id="Trazado_632221" data-name="Trazado 632221" d="M214.82,137.788l.423-1.56s.3.593.655,1.154a12.309,12.309,0,0,0,.718,1.113l-.316,1.632a13.2,13.2,0,0,1-.77-1.152C215.145,138.4,214.82,137.788,214.82,137.788Z" transform="translate(-214.82 -136.227)" fill="#ffb502"/>
              </g>
            </g>
          </g>
          <g id="Grupo_903487" data-name="Grupo 903487">
            <g id="Grupo_903486" data-name="Grupo 903486">
              <g id="Grupo_903485" data-name="Grupo 903485">
                <path id="Trazado_632222" data-name="Trazado 632222" d="M212.224,132.535l.573-1.416s.263.617.525,1.232c.282.607.56,1.213.56,1.213l-.471,1.515s-.305-.63-.612-1.259S212.224,132.535,212.224,132.535Z" transform="translate(-212.224 -131.119)" fill="#ffb502"/>
              </g>
            </g>
          </g>
        </g>
        <g id="Grupo_903510" data-name="Grupo 903510" transform="translate(43.464 20.324)">
          <g id="Grupo_903491" data-name="Grupo 903491" transform="translate(10.136 22.263)">
            <g id="Grupo_903490" data-name="Grupo 903490">
              <g id="Grupo_903489" data-name="Grupo 903489">
                <path id="Trazado_632223" data-name="Trazado 632223" d="M210,127.051l.712-1.2s.23.626.458,1.258c.244.625.485,1.248.485,1.248l-.623,1.353s-.263-.659-.528-1.318C210.256,127.718,210,127.051,210,127.051Z" transform="translate(-210.002 -125.848)" fill="#ffb502"/>
              </g>
            </g>
          </g>
          <g id="Grupo_903494" data-name="Grupo 903494" transform="translate(8.694 18.492)">
            <g id="Grupo_903493" data-name="Grupo 903493">
              <g id="Grupo_903492" data-name="Grupo 903492">
                <path id="Trazado_632224" data-name="Trazado 632224" d="M207.96,121.447l.831-.939.88,2.533-.752,1.122Z" transform="translate(-207.96 -120.508)" fill="#ffb502"/>
              </g>
            </g>
          </g>
          <g id="Grupo_903497" data-name="Grupo 903497" transform="translate(7.279 14.713)">
            <g id="Grupo_903496" data-name="Grupo 903496">
              <g id="Grupo_903495" data-name="Grupo 903495">
                <path id="Trazado_632225" data-name="Trazado 632225" d="M205.956,115.809l.937-.653.882,2.534-.867.846Z" transform="translate(-205.956 -115.156)" fill="#ffb502"/>
              </g>
            </g>
          </g>
          <g id="Grupo_903500" data-name="Grupo 903500" transform="translate(5.811 10.921)">
            <g id="Grupo_903499" data-name="Grupo 903499">
              <g id="Grupo_903498" data-name="Grupo 903498">
                <path id="Trazado_632226" data-name="Trazado 632226" d="M203.876,110.237l1.006-.451s.247.649.5,1.295c.234.631.464,1.26.464,1.26l-.972.554s-.248-.678-.5-1.354C204.126,110.885,203.876,110.237,203.876,110.237Z" transform="translate(-203.876 -109.786)" fill="#ffb502"/>
              </g>
            </g>
          </g>
          <g id="Grupo_903503" data-name="Grupo 903503" transform="translate(4.214 7.079)">
            <g id="Grupo_903502" data-name="Grupo 903502">
              <g id="Grupo_903501" data-name="Grupo 903501">
                <path id="Trazado_632227" data-name="Trazado 632227" d="M201.615,104.866l.974-.521s.294.639.581,1.278c.272.648.542,1.3.542,1.3l-1,.465s-.268-.635-.535-1.272C201.9,105.489,201.615,104.866,201.615,104.866Z" transform="translate(-201.615 -104.345)" fill="#ffb502"/>
              </g>
            </g>
          </g>
          <g id="Grupo_903506" data-name="Grupo 903506" transform="translate(2.324 3.383)">
            <g id="Grupo_903505" data-name="Grupo 903505">
              <g id="Grupo_903504" data-name="Grupo 903504">
                <path id="Trazado_632228" data-name="Trazado 632228" d="M198.938,99.747l.919-.637s.355.6.708,1.212c.322.624.645,1.248.645,1.248l-.963.553s-.313-.6-.624-1.21C199.28,100.329,198.938,99.747,198.938,99.747Z" transform="translate(-198.938 -99.11)" fill="#ffb502"/>
              </g>
            </g>
          </g>
          <g id="Grupo_903509" data-name="Grupo 903509">
            <g id="Grupo_903508" data-name="Grupo 903508">
              <g id="Grupo_903507" data-name="Grupo 903507">
                <path id="Trazado_632229" data-name="Trazado 632229" d="M195.647,95.131l.785-.812.89,1.087a8.144,8.144,0,0,1,.572.776c.151.222.251.365.251.365l-.885.686s-.094-.133-.236-.345a7.526,7.526,0,0,0-.541-.733Z" transform="translate(-195.647 -94.319)" fill="#ffb502"/>
              </g>
            </g>
          </g>
        </g>
        <g id="Grupo_903532" data-name="Grupo 903532" transform="translate(24.39 16.154)">
          <g id="Grupo_903513" data-name="Grupo 903513" transform="translate(16.132 1.514)">
            <g id="Grupo_903512" data-name="Grupo 903512">
              <g id="Grupo_903511" data-name="Grupo 903511">
                <path id="Trazado_632230" data-name="Trazado 632230" d="M191.48,91.592,192,90.56a15.138,15.138,0,0,1,2.24,1.676l-.718.882A13.277,13.277,0,0,0,191.48,91.592Z" transform="translate(-191.48 -90.558)" fill="#ffb502"/>
              </g>
            </g>
          </g>
          <g id="Grupo_903516" data-name="Grupo 903516" transform="translate(12.651 0.119)">
            <g id="Grupo_903515" data-name="Grupo 903515">
              <g id="Grupo_903514" data-name="Grupo 903514">
                <path id="Trazado_632231" data-name="Trazado 632231" d="M186.551,89.741l.142-1.158s.676.151,1.348.306a4.885,4.885,0,0,1,.9.311c.238.1.4.163.4.163l-.41,1.088s-.142-.061-.361-.149a4.074,4.074,0,0,0-.808-.279C187.158,89.88,186.551,89.741,186.551,89.741Z" transform="translate(-186.551 -88.583)" fill="#ffb502"/>
              </g>
            </g>
          </g>
          <g id="Grupo_903519" data-name="Grupo 903519" transform="translate(8.735)">
            <g id="Grupo_903518" data-name="Grupo 903518">
              <g id="Grupo_903517" data-name="Grupo 903517">
                <path id="Trazado_632232" data-name="Trazado 632232" d="M181.234,89.8l-.229-1.149a13.677,13.677,0,0,1,2.723-.211l-.022,1.171s-.153-.009-.388-.027c-.236.018-.549.042-.861.071s-.622.049-.857.07C181.43,89.749,181.218,89.8,181.234,89.8Z" transform="translate(-181.005 -88.414)" fill="#ffb502"/>
              </g>
            </g>
          </g>
          <g id="Grupo_903522" data-name="Grupo 903522" transform="translate(4.989 0.587)">
            <g id="Grupo_903521" data-name="Grupo 903521">
              <g id="Grupo_903520" data-name="Grupo 903520">
                <path id="Trazado_632233" data-name="Trazado 632233" d="M176.369,91.565l-.669-.933a7.7,7.7,0,0,1,1.173-.8,5.927,5.927,0,0,1,1.3-.588l.309,1.126a5.016,5.016,0,0,0-1.094.5A6.808,6.808,0,0,0,176.369,91.565Z" transform="translate(-175.7 -89.245)" fill="#ffb502"/>
              </g>
            </g>
          </g>
          <g id="Grupo_903525" data-name="Grupo 903525" transform="translate(2.385 2.939)">
            <g id="Grupo_903524" data-name="Grupo 903524">
              <g id="Grupo_903523" data-name="Grupo 903523">
                <path id="Trazado_632234" data-name="Trazado 632234" d="M172.971,95.536l-.96-.576.2-.4c.141-.229.335-.537.52-.839a13.474,13.474,0,0,1,.869-1.147l.794.811a11.633,11.633,0,0,0-.768,1.02c-.175.275-.344.551-.474.76C173.043,95.388,172.971,95.536,172.971,95.536Z" transform="translate(-172.011 -92.576)" fill="#ffb502"/>
              </g>
            </g>
          </g>
          <g id="Grupo_903528" data-name="Grupo 903528" transform="translate(0.889 6.594)">
            <g id="Grupo_903527" data-name="Grupo 903527">
              <g id="Grupo_903526" data-name="Grupo 903526">
                <path id="Trazado_632235" data-name="Trazado 632235" d="M170.939,100.789l-1.046-.338a12.883,12.883,0,0,1,.413-1.36c.21-.678.5-1.337.5-1.337l1,.483a23.36,23.36,0,0,0-.865,2.553Z" transform="translate(-169.893 -97.753)" fill="#ffb502"/>
              </g>
            </g>
          </g>
          <g id="Grupo_903531" data-name="Grupo 903531" transform="translate(0 10.637)">
            <g id="Grupo_903530" data-name="Grupo 903530">
              <g id="Grupo_903529" data-name="Grupo 903529">
                <path id="Trazado_632236" data-name="Trazado 632236" d="M169.71,106.469l-1.076-.217s.1-.7.253-1.39c.126-.694.294-1.383.294-1.383l1.061.287s-.157.666-.287,1.343S169.71,106.469,169.71,106.469Z" transform="translate(-168.634 -103.479)" fill="#ffb502"/>
              </g>
            </g>
          </g>
        </g>
        <g id="Grupo_903554" data-name="Grupo 903554" transform="translate(17.367 30.926)">
          <g id="Grupo_903535" data-name="Grupo 903535" transform="translate(6.429)">
            <g id="Grupo_903534" data-name="Grupo 903534">
              <g id="Grupo_903533" data-name="Grupo 903533">
                <path id="Trazado_632237" data-name="Trazado 632237" d="M168.88,112.282l-1.087-.159.378-2.789,1.081.19Z" transform="translate(-167.793 -109.335)" fill="#ffb502"/>
              </g>
            </g>
          </g>
          <g id="Grupo_903538" data-name="Grupo 903538" transform="translate(5.952 4.147)">
            <g id="Grupo_903537" data-name="Grupo 903537">
              <g id="Grupo_903536" data-name="Grupo 903536">
                <path id="Trazado_632238" data-name="Trazado 632238" d="M168.2,118.143l-1.086-.15.315-2.785,1.087.153Z" transform="translate(-167.117 -115.208)" fill="#ffb502"/>
              </g>
            </g>
          </g>
          <g id="Grupo_903541" data-name="Grupo 903541" transform="translate(5.442 8.289)">
            <g id="Grupo_903540" data-name="Grupo 903540">
              <g id="Grupo_903539" data-name="Grupo 903539">
                <path id="Trazado_632239" data-name="Trazado 632239" d="M167.478,124.017l-1.083-.179.35-2.763,1.085.154Z" transform="translate(-166.395 -121.074)" fill="#ffb502"/>
              </g>
            </g>
          </g>
          <g id="Grupo_903544" data-name="Grupo 903544" transform="translate(4.784 12.399)">
            <g id="Grupo_903543" data-name="Grupo 903543">
              <g id="Grupo_903542" data-name="Grupo 903542">
                <path id="Trazado_632240" data-name="Trazado 632240" d="M166.531,129.87l-1.069-.249s.12-.68.249-1.357c.109-.686.218-1.37.218-1.37l1.079.2s-.112.695-.223,1.392C166.656,129.174,166.531,129.87,166.531,129.87Z" transform="translate(-165.462 -126.894)" fill="#ffb502"/>
              </g>
            </g>
          </g>
          <g id="Grupo_903547" data-name="Grupo 903547" transform="translate(3.806 16.447)">
            <g id="Grupo_903546" data-name="Grupo 903546">
              <g id="Grupo_903545" data-name="Grupo 903545">
                <path id="Trazado_632241" data-name="Trazado 632241" d="M165.115,135.646l-1.037-.375s.189-.655.377-1.312c.162-.668.324-1.332.324-1.332l1.064.28s-.169.688-.334,1.377Z" transform="translate(-164.078 -132.627)" fill="#ffb502"/>
              </g>
            </g>
          </g>
          <g id="Grupo_903550" data-name="Grupo 903550" transform="translate(2.295 20.349)">
            <g id="Grupo_903549" data-name="Grupo 903549">
              <g id="Grupo_903548" data-name="Grupo 903548">
                <path id="Trazado_632242" data-name="Trazado 632242" d="M162.883,141.194l-.945-.592s.294-.6.581-1.2c.253-.625.5-1.248.5-1.248l1.018.438s-.264.661-.533,1.32Z" transform="translate(-161.938 -138.153)" fill="#ffb502"/>
              </g>
            </g>
          </g>
          <g id="Grupo_903553" data-name="Grupo 903553" transform="translate(0 23.908)">
            <g id="Grupo_903552" data-name="Grupo 903552">
              <g id="Grupo_903551" data-name="Grupo 903551">
                <path id="Trazado_632243" data-name="Trazado 632243" d="M159.488,146.074l-.8-.806.869-1.032.77-1.043.893.68L160.393,145Z" transform="translate(-158.688 -143.193)" fill="#ffb502"/>
              </g>
            </g>
          </g>
        </g>
        <g id="Grupo_903576" data-name="Grupo 903576" transform="translate(0 47.637)">
          <g id="Grupo_903557" data-name="Grupo 903557" transform="translate(14.561 10.226)">
            <g id="Grupo_903556" data-name="Grupo 903556">
              <g id="Grupo_903555" data-name="Grupo 903555">
                <path id="Trazado_632244" data-name="Trazado 632244" d="M155.369,150.193l-.655-.942s.513-.4.986-.847.942-.925.942-.922l.762.845s-.479.493-.986.965S155.369,150.193,155.369,150.193Z" transform="translate(-154.714 -147.482)" fill="#ffb502"/>
              </g>
            </g>
          </g>
          <g id="Grupo_903560" data-name="Grupo 903560" transform="translate(11.307 12.736)">
            <g id="Grupo_903559" data-name="Grupo 903559">
              <g id="Grupo_903558" data-name="Grupo 903558">
                <path id="Trazado_632245" data-name="Trazado 632245" d="M150.407,153.246l-.3-1.13a7.248,7.248,0,0,0,1.146-.458c.556-.28,1.1-.621,1.1-.621l.573,1s-.586.376-1.208.691A9.1,9.1,0,0,1,150.407,153.246Z" transform="translate(-150.105 -151.037)" fill="#ffb502"/>
              </g>
            </g>
          </g>
          <g id="Grupo_903563" data-name="Grupo 903563" transform="translate(7.43 13.703)">
            <g id="Grupo_903562" data-name="Grupo 903562">
              <g id="Grupo_903561" data-name="Grupo 903561">
                <path id="Trazado_632246" data-name="Trazado 632246" d="M144.615,153.5l.4-1.089a6,6,0,0,0,1.14.324,5.858,5.858,0,0,0,1.185.025l.1,1.17a6.732,6.732,0,0,1-1.43-.03A6.866,6.866,0,0,1,144.615,153.5Z" transform="translate(-144.615 -152.407)" fill="#ffb502"/>
              </g>
            </g>
          </g>
          <g id="Grupo_903566" data-name="Grupo 903566" transform="translate(4.146 11.341)">
            <g id="Grupo_903565" data-name="Grupo 903565">
              <g id="Grupo_903564" data-name="Grupo 903564">
                <path id="Trazado_632247" data-name="Trazado 632247" d="M139.964,149.8l.849-.734a8.683,8.683,0,0,0,.845.969,7.226,7.226,0,0,0,.952.808l-.595.979a8.476,8.476,0,0,1-1.1-.933A10.2,10.2,0,0,1,139.964,149.8Z" transform="translate(-139.964 -149.062)" fill="#ffb502"/>
              </g>
            </g>
          </g>
          <g id="Grupo_903569" data-name="Grupo 903569" transform="translate(2.078 7.883)">
            <g id="Grupo_903568" data-name="Grupo 903568">
              <g id="Grupo_903567" data-name="Grupo 903567">
                <path id="Trazado_632248" data-name="Trazado 632248" d="M137.037,144.637l1-.473a18.215,18.215,0,0,0,1.2,2.39l-.915.637A19.815,19.815,0,0,1,137.037,144.637Z" transform="translate(-137.035 -144.164)" fill="#ffb502"/>
              </g>
            </g>
          </g>
          <g id="Grupo_903572" data-name="Grupo 903572" transform="translate(0.77 4.024)">
            <g id="Grupo_903571" data-name="Grupo 903571">
              <g id="Grupo_903570" data-name="Grupo 903570">
                <path id="Trazado_632249" data-name="Trazado 632249" d="M135.182,139l1.058-.3s.16.667.357,1.324.417,1.3.417,1.3l-1.022.4s-.234-.672-.438-1.355S135.182,139,135.182,139Z" transform="translate(-135.182 -138.699)" fill="#ffb502"/>
              </g>
            </g>
          </g>
          <g id="Grupo_903575" data-name="Grupo 903575">
            <g id="Grupo_903574" data-name="Grupo 903574">
              <g id="Grupo_903573" data-name="Grupo 903573">
                <path id="Trazado_632250" data-name="Trazado 632250" d="M134.092,133.153l1.087-.153s.082.684.2,1.362.244,1.351.244,1.351l-1.068.247s-.125-.7-.256-1.4S134.092,133.153,134.092,133.153Z" transform="translate(-134.092 -133)" fill="#ffb502"/>
              </g>
            </g>
          </g>
        </g>
      </g>
      <path id="Trazado_632251" data-name="Trazado 632251" d="M169.191,318.827c5.669-4.621,6.921-13.47,2.806-19.754a11.916,11.916,0,0,0-14.211-5.028,21.679,21.679,0,0,0-1.334-2.358c-6.1-9.318-17.848-11.316-26.242-4.463a21.472,21.472,0,0,0-7.461,13.394,8.726,8.726,0,0,0-5.771,2.02,11.251,11.251,0,0,0-2.071,14.587,8.732,8.732,0,0,0,13.076,2.229c.083-.065.151-.138.227-.206a17.34,17.34,0,0,0,24.085,1.713,19.691,19.691,0,0,0,2.087-1.977A11.631,11.631,0,0,0,169.191,318.827Z" transform="translate(-25.325 -63.956)" fill="#ffd5d6"/>
      <path id="Trazado_632252" data-name="Trazado 632252" d="M373.526,315.309c6.019-4.909,7.192-14.542,2.631-21.508-3.678-5.62-9.97-7.786-15.421-5.844a25.367,25.367,0,0,0-1.484-2.608c-6.76-10.33-19.468-12.8-28.382-5.527a22.374,22.374,0,0,0-7.777,14.444,9,9,0,0,0-6.182,2.063c-4.443,3.625-5.313,10.736-1.943,15.883s9.7,6.384,14.142,2.76c.088-.071.16-.148.241-.22,7.077,7.687,18.047,8.961,26,2.469a20.52,20.52,0,0,0,2.209-2.107A12.415,12.415,0,0,0,373.526,315.309Z" transform="translate(-84.044 -61.749)" fill="#ffd5d6"/>
      <path id="Trazado_632253" data-name="Trazado 632253" d="M341.946,325.763c0,5.919-70.515,10.718-157.5,10.718s-157.5-4.8-157.5-10.718,70.515-10.719,157.5-10.719S341.946,319.843,341.946,325.763Z" transform="translate(0 -73.329)" fill="#f7c9cc"/>
      <g id="Grupo_903582" data-name="Grupo 903582" transform="translate(56.138 130.172)">
        <g id="Grupo_903581" data-name="Grupo 903581">
          <g id="Grupo_903580" data-name="Grupo 903580">
            <g id="Grupo_903579" data-name="Grupo 903579">
              <g id="Grupo_903578" data-name="Grupo 903578">
                <path id="Trazado_632254" data-name="Trazado 632254" d="M68.288,157.855l.645-.6,2.578,2.73a2.043,2.043,0,0,0,2.873.093l2.2-2.053a2.92,2.92,0,0,1,4.136.149l1.7,1.824a2.045,2.045,0,0,0,2.906.085l1.922-1.849a2.922,2.922,0,0,1,4.26.227l1.051,1.247a2.044,2.044,0,0,0,3.1.032l2.332-2.661.662.583-2.329,2.663a2.92,2.92,0,0,1-4.439-.051l-1.044-1.247a2.044,2.044,0,0,0-2.978-.157l-1.928,1.848a2.917,2.917,0,0,1-4.16-.116l-1.693-1.823a2.04,2.04,0,0,0-1.423-.649,2.011,2.011,0,0,0-1.462.544l-2.2,2.051a2.93,2.93,0,0,1-4.119-.131Z" transform="translate(-68.288 -157.074)" fill="#464f72"/>
              </g>
            </g>
          </g>
        </g>
      </g>
      <g id="Grupo_903602" data-name="Grupo 903602" transform="translate(134.55 76.48)">
        <g id="Grupo_903584" data-name="Grupo 903584" transform="translate(0 0)">
          <g id="Grupo_903583" data-name="Grupo 903583">
            <path id="Trazado_632255" data-name="Trazado 632255" d="M290,136.826a55.332,55.332,0,0,0-110.661-.922c-.137,16.627,12.354,27.738,18.615,41.83,4.77,10.733,4.573,46.989,4.573,46.989l62.817.521s.4-36.252,5.342-46.9C277.177,164.354,289.857,153.455,290,136.826Z" transform="translate(-179.336 -81.034)" fill="#ffb502"/>
          </g>
        </g>
        <g id="Grupo_903586" data-name="Grupo 903586" transform="translate(11.497 8.969)">
          <g id="Grupo_903585" data-name="Grupo 903585">
            <path id="Trazado_632256" data-name="Trazado 632256" d="M281.79,137.178a43.086,43.086,0,1,1-42.732-43.44A43.094,43.094,0,0,1,281.79,137.178Z" transform="translate(-195.619 -93.737)" fill="#ffcf03"/>
          </g>
        </g>
        <g id="Grupo_903589" data-name="Grupo 903589" transform="translate(29.66 65.2)">
          <g id="Grupo_903588" data-name="Grupo 903588">
            <g id="Grupo_903587" data-name="Grupo 903587">
              <path id="Trazado_632257" data-name="Trazado 632257" d="M235.694,232.955l-14.353-59.583,49.634.412-14.83,59.338-2.525-.634,14.018-56.134L224.648,176l13.569,56.349Z" transform="translate(-221.341 -173.372)" fill="#464f72"/>
            </g>
          </g>
        </g>
        <g id="Grupo_903591" data-name="Grupo 903591" transform="translate(21.525 123.793)">
          <g id="Grupo_903590" data-name="Grupo 903590">
            <rect id="Rectángulo_303389" data-name="Rectángulo 303389" width="42.673" height="65.815" transform="matrix(0.008, -1, 1, 0.008, 0, 42.672)" fill="#64b4d7"/>
          </g>
        </g>
        <g id="Grupo_903593" data-name="Grupo 903593" transform="translate(14.226 130.211)">
          <g id="Grupo_903592" data-name="Grupo 903592">
            <path id="Trazado_632258" data-name="Trazado 632258" d="M278.838,269.536a3.457,3.457,0,0,1-3.495,3.426l-72.43-.6a3.465,3.465,0,0,1-3.431-3.487h0a3.466,3.466,0,0,1,3.487-3.434l72.429.606a3.463,3.463,0,0,1,3.439,3.49Z" transform="translate(-199.483 -265.441)" fill="#c1e4fa"/>
          </g>
        </g>
        <g id="Grupo_903595" data-name="Grupo 903595" transform="translate(14.146 140.136)">
          <g id="Grupo_903594" data-name="Grupo 903594">
            <path id="Trazado_632259" data-name="Trazado 632259" d="M278.722,283.589a3.463,3.463,0,0,1-3.5,3.426l-72.422-.6a3.457,3.457,0,0,1-3.433-3.486h0a3.46,3.46,0,0,1,3.488-3.43l72.433.6a3.455,3.455,0,0,1,3.43,3.49Z" transform="translate(-199.37 -279.497)" fill="#c1e4fa"/>
          </g>
        </g>
        <g id="Grupo_903597" data-name="Grupo 903597" transform="translate(14.067 150.048)">
          <g id="Grupo_903596" data-name="Grupo 903596">
            <path id="Trazado_632260" data-name="Trazado 632260" d="M278.606,297.624a3.456,3.456,0,0,1-3.492,3.431l-72.429-.6a3.455,3.455,0,0,1-3.427-3.49h0a3.461,3.461,0,0,1,3.488-3.431l72.421.6a3.462,3.462,0,0,1,3.438,3.49Z" transform="translate(-199.259 -293.535)" fill="#c1e4fa"/>
          </g>
        </g>
        <g id="Grupo_903599" data-name="Grupo 903599" transform="translate(28.741 161.499)">
          <g id="Grupo_903598" data-name="Grupo 903598">
            <path id="Trazado_632261" data-name="Trazado 632261" d="M271.04,315.2a5.086,5.086,0,0,1-5.109,5.04l-40.865-.338a5.086,5.086,0,0,1-5.026-5.123h0a5.075,5.075,0,0,1,5.11-5.023l40.861.34a5.073,5.073,0,0,1,5.029,5.1Z" transform="translate(-220.04 -309.752)" fill="#64b4d7"/>
          </g>
        </g>
        <g id="Grupo_903601" data-name="Grupo 903601" transform="translate(14.314 120.296)">
          <g id="Grupo_903600" data-name="Grupo 903600">
            <path id="Trazado_632262" data-name="Trazado 632262" d="M278.962,255.489a3.473,3.473,0,0,1-3.5,3.43l-72.425-.6a3.457,3.457,0,0,1-3.43-3.484h0a3.45,3.45,0,0,1,3.486-3.433l72.426.6a3.46,3.46,0,0,1,3.442,3.488Z" transform="translate(-199.608 -251.399)" fill="#c1e4fa"/>
          </g>
        </g>
      </g>
      <g id="Grupo_903605" data-name="Grupo 903605" transform="translate(296.974 185.047)">
        <g id="Grupo_903604" data-name="Grupo 903604">
          <g id="Grupo_903603" data-name="Grupo 903603">
            <rect id="Rectángulo_303390" data-name="Rectángulo 303390" width="21.669" height="0.837" fill="#27355c"/>
          </g>
        </g>
      </g>
      <g id="Grupo_903608" data-name="Grupo 903608" transform="translate(305.608 182.261)">
        <g id="Grupo_903607" data-name="Grupo 903607">
          <g id="Grupo_903606" data-name="Grupo 903606">
            <rect id="Rectángulo_303391" data-name="Rectángulo 303391" width="12.506" height="0.837" fill="#27355c"/>
          </g>
        </g>
      </g>
      <g id="Grupo_903632" data-name="Grupo 903632" transform="translate(52.451 147.932)">
        <g id="Grupo_903611" data-name="Grupo 903611" transform="translate(19.938 15.727)">
          <g id="Grupo_903609" data-name="Grupo 903609">
            <path id="Trazado_632263" data-name="Trazado 632263" d="M91.817,207.441a4.638,4.638,0,0,1,5.441-1.033c3.234,1.738,7.366,7.977,12.427,7.812,5.08-.172,6.673-3.2,8.014-5.081s.979-3.271,1.882-4.28,2.055.105.64,3.648c-.675,1.7-3.021,10.466-9.018,11.781C103.344,222.013,88.344,211.993,91.817,207.441Z" transform="translate(-91.304 -204.499)" fill="#fbc6b4"/>
          </g>
          <g id="Grupo_903610" data-name="Grupo 903610" transform="translate(0.164 0.173)">
            <path id="Trazado_632264" data-name="Trazado 632264" d="M92.672,205.773s-3.024,2.651.8,7.259,6.121,6.088,6.121,6.088,3.617-1.5,6.57-6.888C106.159,212.233,96.391,201.43,92.672,205.773Z" transform="translate(-91.536 -204.744)" fill="#eda503"/>
          </g>
        </g>
        <g id="Grupo_903612" data-name="Grupo 903612" transform="translate(8.225 14.876)">
          <path id="Trazado_632265" data-name="Trazado 632265" d="M75.486,214.566c2.243,8.288,1.005,14.113,0,17.27,2.34.752.947,2.005.883,2.163-3.308,6.865,17.252,2.8,20.865-2.76,1.243-1.91.053-4.337.277-8.007.079-.823.1-1.659.109-2.477a46.043,46.043,0,0,0-.681-9.924c-1.615-7.574-8.739-7.943-13.072-7.339a17.868,17.868,0,0,0-6.509,1.765l-.011.016C75.051,206.663,73.818,208.4,75.486,214.566Z" transform="translate(-74.716 -203.295)" fill="#ffb502"/>
        </g>
        <g id="Grupo_903613" data-name="Grupo 903613" transform="translate(8.995 14.803)">
          <path id="Trazado_632266" data-name="Trazado 632266" d="M80.9,210.471c.888,3.762,4.063,15.244-5.1,20.986,0,0,15.169,11.106,23.846,1.5,0,0-1.745-16.389-4.171-22.9-.7-1.87-2.544-7.613-5.875-6.782,0,0,5.852,9.217,3.182,11.651s-5.191.388-6.369-1.445c-1.889-2.951-3.9-9.773-3.9-9.773l-3.686.554A41.386,41.386,0,0,1,80.9,210.471Z" transform="translate(-75.806 -203.191)" fill="#1c2745"/>
        </g>
        <g id="Grupo_903617" data-name="Grupo 903617" transform="translate(13.916 1.178)">
          <g id="Grupo_903614" data-name="Grupo 903614" transform="translate(2.668 8.404)">
            <path id="Trazado_632267" data-name="Trazado 632267" d="M86.979,195.8s1.945,3.053-.124,5.088c-2.123,2.084,7.643,5.766,7.169,3.89-.6-2.421-2.048-3.715-1.211-6.691Z" transform="translate(-86.553 -195.797)" fill="#f7b2a0"/>
          </g>
          <g id="Grupo_903615" data-name="Grupo 903615" transform="translate(1.265 0.827)">
            <path id="Trazado_632268" data-name="Trazado 632268" d="M90.785,185.8c2.35,1.7,5.706,10.075,3.761,12.266-.861.955-4.917.518-7.891-2.969-1.228-1.424-2.87-4.2-1.669-7.344C85.533,186.321,88.06,183.82,90.785,185.8Z" transform="translate(-84.566 -185.066)" fill="#fbc6b4"/>
          </g>
          <g id="Grupo_903616" data-name="Grupo 903616">
            <path id="Trazado_632269" data-name="Trazado 632269" d="M92.526,186.225c.6,1.028.5,1.294-2.71,2.214s-3.8.773-3.362,1.506c1.272,2.173-1.119,2.022.434,4.6s-1.417,1.277-2.909-.8a6.239,6.239,0,0,1-.8-6.042C84.52,183.485,90.3,182.456,92.526,186.225Z" transform="translate(-82.775 -183.895)" fill="#1d1b3a"/>
          </g>
        </g>
        <g id="Grupo_903618" data-name="Grupo 903618" transform="translate(17.163 1.93)">
          <path id="Trazado_632270" data-name="Trazado 632270" d="M87.374,192.165s9.931-2.805,9.469-5.9c-.285-1.906-6.051-1.158-6.051-1.158Z" transform="translate(-87.374 -184.96)" fill="#eda503"/>
        </g>
        <g id="Grupo_903619" data-name="Grupo 903619" transform="translate(13.229)">
          <path id="Trazado_632271" data-name="Trazado 632271" d="M92.241,185.735c-.8,2.987-3.139,4.63-9.225,6.574,0,0-3.3-5.9.975-9.029C87.759,180.527,92.745,183.823,92.241,185.735Z" transform="translate(-81.803 -182.227)" fill="#ffb502"/>
        </g>
        <g id="Grupo_903622" data-name="Grupo 903622" transform="translate(7.7 15.864)">
          <g id="Grupo_903620" data-name="Grupo 903620" transform="translate(0.59 0.444)">
            <path id="Trazado_632272" data-name="Trazado 632272" d="M76.834,205.422a3.761,3.761,0,0,1,4.216,2.257c1.578,3.129,1.395,10.266,5.442,12.9s6.962,1.15,9.042.412,2.552-2.014,3.809-2.315,1.553,1.213-1.494,3.2c-1.457.953-8.086,6.527-13.492,4.274C77.27,223.207,71.634,207.074,76.834,205.422Z" transform="translate(-74.807 -205.322)" fill="#fbc6b4"/>
          </g>
          <g id="Grupo_903621" data-name="Grupo 903621">
            <path id="Trazado_632273" data-name="Trazado 632273" d="M77.36,204.787s-3.819.422-3.349,6.118,1.452,8.1,1.452,8.1,3.651.8,8.9-1.786C84.368,217.219,82.639,203.43,77.36,204.787Z" transform="translate(-73.971 -204.693)" fill="#eda503"/>
          </g>
        </g>
        <g id="Grupo_903627" data-name="Grupo 903627" transform="translate(0 39.18)">
          <g id="Grupo_903623" data-name="Grupo 903623" transform="translate(1.047 17.22)">
            <path id="Trazado_632274" data-name="Trazado 632274" d="M67.187,280.7c-2.058,8.056-4.472,25.255-.516,25.353s6.158-1.108,3.881-1.745-2.372-.893-2.3-1.532c.98-8.308,13.969-21.261,15.072-31.136.371-3.372.628-6.455.8-9.162,1.476,7.231.39,14.908.518,17.446.419,9.027,2.349,26.092,6.675,26.127,4.608.033,6.872-1.245,3.928-1.853-2.547-.539-2.44-.657-2.393-1.287.618-9.116,5.039-25.968,5.886-36.8C99.719,253.618,68.979,273.658,67.187,280.7Z" transform="translate(-64.55 -262.102)" fill="#fbc6b4"/>
          </g>
          <g id="Grupo_903624" data-name="Grupo 903624" transform="translate(25.386 59.117)">
            <path id="Trazado_632275" data-name="Trazado 632275" d="M99.022,321.436s3.437,1.363,5.561,0c0,0,3.873.524,1.441,1.465S98.877,324.628,99.022,321.436Z" transform="translate(-99.018 -321.436)" fill="#ffb502"/>
          </g>
          <g id="Grupo_903625" data-name="Grupo 903625" transform="translate(1.487 59.427)">
            <path id="Trazado_632276" data-name="Trazado 632276" d="M65.176,321.875s3.44,1.356,5.56,0c0,0,3.876.528,1.433,1.465S65.032,325.068,65.176,321.875Z" transform="translate(-65.172 -321.875)" fill="#ffb502"/>
          </g>
          <g id="Grupo_903626" data-name="Grupo 903626">
            <path id="Trazado_632277" data-name="Trazado 632277" d="M95.246,237.714c-7.878,5.256-18.9,4.72-23.184,3.889-1.159,9.372-8.2,44.536-9,49.362,3.458,1.147,4.607,1.388,5.608,1.388,16.7-21.538,14.782-30.774,14.959-33.481.631,3.126-1.432,18.451,2.173,33.481,1.208.78,4.869,1.795,7.489,0,.131-.961,5.032-18.222,4.926-31.734C98.149,251.408,96.609,245.087,95.246,237.714Z" transform="translate(-63.067 -237.714)" fill="#1c2745"/>
          </g>
        </g>
        <g id="Grupo_903629" data-name="Grupo 903629" transform="translate(9.347 44.515)">
          <g id="Grupo_903628" data-name="Grupo 903628">
            <path id="Trazado_632278" data-name="Trazado 632278" d="M76.5,251.762a7.778,7.778,0,0,0,5.335-6.443l-.65-.05a6.992,6.992,0,0,1-4.884,5.876Z" transform="translate(-76.304 -245.269)" fill="#fff"/>
          </g>
        </g>
        <g id="Grupo_903631" data-name="Grupo 903631" transform="translate(27.138 43.306)">
          <g id="Grupo_903630" data-name="Grupo 903630">
            <path id="Trazado_632279" data-name="Trazado 632279" d="M106.835,250.053l.2-.621a7.088,7.088,0,0,1-4.885-5.875l-.65.049A7.77,7.77,0,0,0,106.835,250.053Z" transform="translate(-101.5 -243.557)" fill="#fff"/>
          </g>
        </g>
      </g>
      <g id="Grupo_903686" data-name="Grupo 903686" transform="translate(192.635 139.624)">
        <g id="Grupo_903658" data-name="Grupo 903658" transform="translate(38.345 0)">
          <g id="Grupo_903635" data-name="Grupo 903635" transform="translate(0 3.657)">
            <g id="Grupo_903633" data-name="Grupo 903633">
              <path id="Trazado_632280" data-name="Trazado 632280" d="M340.145,193.136a4.41,4.41,0,0,0-3.74-3.7c-3.47-.354-10.042,2.365-13.939-.455-3.911-2.837-3.558-6.066-3.612-8.264s.967-3.1.794-4.373-1.676-1.011-2.445,2.537c-.369,1.693-3.185,9.848.843,14.072C323.318,198.487,340.459,198.568,340.145,193.136Z" transform="translate(-315.901 -175.639)" fill="#fbc6b4"/>
            </g>
            <g id="Grupo_903634" data-name="Grupo 903634" transform="translate(10.398 12.619)">
              <path id="Trazado_632281" data-name="Trazado 632281" d="M344.776,196.6s.971,3.7-4.487,5.3-8.059,1.537-8.059,1.537-2.048-3.1-1.515-8.918C330.715,194.517,344.157,191.2,344.776,196.6Z" transform="translate(-330.627 -193.511)" fill="#eda503"/>
            </g>
          </g>
          <g id="Grupo_903636" data-name="Grupo 903636" transform="translate(16.217 14.48)">
            <path id="Trazado_632282" data-name="Trazado 632282" d="M355.754,191.385l-.011-.016a16.993,16.993,0,0,0-6.405-.189c-4.141.4-10.646,2.309-10.466,9.668a43.842,43.842,0,0,0,1.565,9.324c.188.754.393,1.522.648,2.264,1.015,3.346.451,5.848,2.023,7.343,4.566,4.338,25.913,4.449,21.341-1.168-.095-.133-1.253-2.063.09-2.991-1.625-2.7-2.224-6.2-3.192-8.515a18.619,18.619,0,0,1-.731-2.141,18.985,18.985,0,0,1-.673-5.794C360.087,194.2,358.186,192.166,355.754,191.385Z" transform="translate(-338.868 -190.967)" fill="#ffb502"/>
          </g>
          <g id="Grupo_903640" data-name="Grupo 903640" transform="translate(13.779 59.841)">
            <g id="Grupo_903638" data-name="Grupo 903638">
              <g id="Grupo_903637" data-name="Grupo 903637">
                <path id="Trazado_632283" data-name="Trazado 632283" d="M338.7,263.952c4.792,3.374,12.17,6.728,15,9.486.451.439.548.664-.59,2.428s1.086,1.392,3.692-.892-9.67-13.718-16.042-18.55C335.2,252.2,333.129,260.036,338.7,263.952Z" transform="translate(-335.415 -255.207)" fill="#fbc6b4"/>
              </g>
            </g>
            <g id="Grupo_903639" data-name="Grupo 903639" transform="translate(16.659 17.535)">
              <path id="Trazado_632284" data-name="Trazado 632284" d="M363.8,280.041s-1.478,2.947-3.746,3.124c0,0-2.3,2.565-.073,1.894S365.866,282.333,363.8,280.041Z" transform="translate(-359.008 -280.041)" fill="#ffb502"/>
            </g>
          </g>
          <g id="Grupo_903641" data-name="Grupo 903641" transform="translate(17.51 14.487)">
            <path id="Trazado_632285" data-name="Trazado 632285" d="M354.459,196.937c.012,3.672-.645,9.454,8.338,12.105,0,0-10.565,19.779-20.706,12.816,0,0-2.005-15.533-1.2-22.091.231-1.882.644-7,4.515-7.583,0,0-3.954,9.829-.95,11.494s4.886-.789,5.568-2.747c1.094-3.142,3.55-9.954,3.55-9.954l2.4.314A12.1,12.1,0,0,0,354.459,196.937Z" transform="translate(-340.7 -190.977)" fill="#1c2745"/>
          </g>
          <g id="Grupo_903645" data-name="Grupo 903645" transform="translate(20.602 1.073)">
            <g id="Grupo_903642" data-name="Grupo 903642" transform="translate(1.732 7.925)">
              <path id="Trazado_632286" data-name="Trazado 632286" d="M354.017,183.2s-1.772,2.948.24,4.829c2.071,1.93-7.118,5.666-6.712,3.872.514-2.312,1.856-3.579.986-6.387Z" transform="translate(-347.532 -183.203)" fill="#f7b2a0"/>
            </g>
            <g id="Grupo_903643" data-name="Grupo 903643" transform="translate(0 0.78)">
              <path id="Trazado_632287" data-name="Trazado 632287" d="M348.957,173.833c-2.19,1.675-5.174,9.713-3.272,11.747.841.884,4.682.374,7.426-3.019,1.131-1.38,2.623-4.056,1.406-7.017C353.959,174.2,351.5,171.885,348.957,173.833Z" transform="translate(-345.078 -173.084)" fill="#fbc6b4"/>
            </g>
            <g id="Grupo_903644" data-name="Grupo 903644" transform="translate(1.49)">
              <path id="Trazado_632288" data-name="Trazado 632288" d="M347.444,174.3c-.547.991-.445,1.241,2.627,2.034s3.628.645,3.233,1.352c-1.157,2.091,1.11,1.89-.3,4.376s1.375,1.179,2.744-.838a5.935,5.935,0,0,0,.609-5.758C354.981,171.5,349.462,170.66,347.444,174.3Z" transform="translate(-347.188 -171.979)" fill="#1d1b3a"/>
            </g>
          </g>
          <g id="Grupo_903646" data-name="Grupo 903646" transform="translate(19.509 1.867)">
            <path id="Trazado_632289" data-name="Trazado 632289" d="M350.583,179.227s-7.4-1.834-7.041-4.792c.225-1.819,5.72-1.246,5.72-1.246Z" transform="translate(-343.53 -173.104)" fill="#eda503"/>
          </g>
          <g id="Grupo_903647" data-name="Grupo 903647" transform="translate(22.018)">
            <path id="Trazado_632290" data-name="Trazado 632290" d="M347.123,174.289c.83,2.824,2.922,4.085,9.213,5.58,0,0,2.983-5.693-1.147-8.556C351.54,168.791,346.595,172.489,347.123,174.289Z" transform="translate(-347.084 -170.46)" fill="#ffb502"/>
          </g>
          <g id="Grupo_903648" data-name="Grupo 903648" transform="translate(2.866 41.571)">
            <path id="Trazado_632291" data-name="Trazado 632291" d="M337.3,229.334s-15.455,8.965-17.261,14.342,27.065,22.447,27.065,22.447,3.378-3.365,1.819-6.435c-5.845-11.512-7.983-15.2-7.983-15.2l14.325-11.928Z" transform="translate(-319.96 -229.334)" fill="#1c2745"/>
          </g>
          <g id="Grupo_903652" data-name="Grupo 903652" transform="translate(34.281 66.592)">
            <g id="Grupo_903650" data-name="Grupo 903650">
              <g id="Grupo_903649" data-name="Grupo 903649">
                <path id="Trazado_632292" data-name="Trazado 632292" d="M364.851,272.714c1.767,5.589,5.6,12.732,6.178,16.641.091.624.034.862-1.943,1.574s.02,1.765,3.477,1.532.632-16.771-1.5-24.481C369.2,261.241,362.8,266.223,364.851,272.714Z" transform="translate(-364.45 -264.769)" fill="#fbc6b4"/>
              </g>
            </g>
            <g id="Grupo_903651" data-name="Grupo 903651" transform="translate(2.701 25.948)">
              <path id="Trazado_632293" data-name="Trazado 632293" d="M375.086,301.517s-2.965,1.451-4.876.211c0,0-3.379.65-1.205,1.461S375.342,304.594,375.086,301.517Z" transform="translate(-368.276 -301.517)" fill="#ffb502"/>
            </g>
          </g>
          <g id="Grupo_903653" data-name="Grupo 903653" transform="translate(28.136 32.552)">
            <path id="Trazado_632294" data-name="Trazado 632294" d="M367.22,216.561a73.992,73.992,0,0,1,5.145,15.851c2.353,11.262.205,38.91.205,38.91s.489.885-6.4.023c-1.857-.237-10.42-37.9-10.42-37.9l2.29-10.541Z" transform="translate(-355.748 -216.561)" fill="#1c2745"/>
          </g>
          <g id="Grupo_903654" data-name="Grupo 903654" transform="translate(37.562 38.041)">
            <path id="Trazado_632295" data-name="Trazado 632295" d="M374.266,274.019c2.912-19.333-4.72-49.382-4.8-49.685l-.371.1c.078.3,7.69,30.274,4.789,49.532Z" transform="translate(-369.097 -224.334)" fill="#fff"/>
          </g>
          <g id="Grupo_903657" data-name="Grupo 903657" transform="translate(11.181 9.214)">
            <g id="Grupo_903655" data-name="Grupo 903655">
              <path id="Trazado_632296" data-name="Trazado 632296" d="M356.739,191.893a3.579,3.579,0,0,0-4.247-1.621c-3.228.813-8.238,5.386-12.652,4.122s-5.161-4.283-5.924-6.236-.142-3.09-.71-4.175-1.836-.364-1.37,3.065c.223,1.637.344,9.871,5.329,12.352C343.7,202.65,358.79,196.655,356.739,191.893Z" transform="translate(-331.736 -183.509)" fill="#fbc6b4"/>
            </g>
            <g id="Grupo_903656" data-name="Grupo 903656" transform="translate(11.558 6.016)">
              <path id="Trazado_632297" data-name="Trazado 632297" d="M361.392,193.565s2.074,3-2.31,6.212a29.119,29.119,0,0,1-6.722,4s-2.846-2.125-4.256-7.51C348.1,196.268,359.079,188.927,361.392,193.565Z" transform="translate(-348.104 -192.029)" fill="#eda503"/>
            </g>
          </g>
        </g>
        <g id="Grupo_903666" data-name="Grupo 903666" transform="translate(35.229 41.43)">
          <g id="Grupo_903659" data-name="Grupo 903659" transform="translate(9.596)">
            <path id="Trazado_632298" data-name="Trazado 632298" d="M351.943,295.358l1.418-.574-26.008-64.119h15.23l26.242,64.693,1.421-.574-26.631-65.651H325.079Z" transform="translate(-325.079 -229.134)" fill="#464f72"/>
          </g>
          <g id="Grupo_903660" data-name="Grupo 903660" transform="translate(22.424 28.824)">
            <rect id="Rectángulo_303392" data-name="Rectángulo 303392" width="16.884" height="1.531" fill="#464f72"/>
          </g>
          <g id="Grupo_903661" data-name="Grupo 903661" transform="translate(25.805 36.738)">
            <rect id="Rectángulo_303393" data-name="Rectángulo 303393" width="16.885" height="1.531" fill="#464f72"/>
          </g>
          <g id="Grupo_903662" data-name="Grupo 903662" transform="translate(28.728 44.73)">
            <rect id="Rectángulo_303394" data-name="Rectángulo 303394" width="16.885" height="1.532" fill="#464f72"/>
          </g>
          <g id="Grupo_903663" data-name="Grupo 903663" transform="translate(32.392 52.879)">
            <rect id="Rectángulo_303395" data-name="Rectángulo 303395" width="16.884" height="1.531" fill="#464f72"/>
          </g>
          <g id="Grupo_903664" data-name="Grupo 903664" transform="translate(0 19.007)">
            <rect id="Rectángulo_303396" data-name="Rectángulo 303396" width="49.843" height="1.533" transform="matrix(0.352, -0.936, 0.936, 0.352, 0, 46.661)" fill="#464f72"/>
          </g>
          <g id="Grupo_903665" data-name="Grupo 903665" transform="translate(17.522 20.227)">
            <rect id="Rectángulo_303397" data-name="Rectángulo 303397" width="49.844" height="1.534" transform="translate(0 46.663) rotate(-69.422)" fill="#464f72"/>
          </g>
        </g>
        <g id="Grupo_903685" data-name="Grupo 903685" transform="translate(0 0.971)">
          <g id="Grupo_903667" data-name="Grupo 903667" transform="translate(5.297)">
            <rect id="Rectángulo_303398" data-name="Rectángulo 303398" width="33.506" height="5.392" fill="#64b4d7"/>
          </g>
          <g id="Grupo_903668" data-name="Grupo 903668" transform="translate(5.297)">
            <rect id="Rectángulo_303399" data-name="Rectángulo 303399" width="6.898" height="5.392" fill="#4ca1bf"/>
          </g>
          <g id="Grupo_903669" data-name="Grupo 903669" transform="translate(0 2.71)">
            <path id="Trazado_632299" data-name="Trazado 632299" d="M305.2,181.037H261.6l1.477-5.364h40.652Z" transform="translate(-261.597 -175.673)" fill="#4ca1bf"/>
          </g>
          <g id="Grupo_903670" data-name="Grupo 903670" transform="translate(11.456 8.074)">
            <rect id="Rectángulo_303400" data-name="Rectángulo 303400" width="32.151" height="38.118" fill="#c1e4fa"/>
          </g>
          <g id="Grupo_903671" data-name="Grupo 903671" transform="translate(0 8.074)">
            <rect id="Rectángulo_303401" data-name="Rectángulo 303401" width="14.352" height="38.118" fill="#64b4d7"/>
          </g>
          <g id="Grupo_903672" data-name="Grupo 903672" transform="translate(0 2.71)">
            <path id="Trazado_632300" data-name="Trazado 632300" d="M275.948,181.037l-1.109-5.364H263.074l-1.477,5.364Z" transform="translate(-261.597 -175.673)" fill="#3c93aa"/>
          </g>
          <g id="Grupo_903673" data-name="Grupo 903673" transform="translate(2.094 12.81)">
            <rect id="Rectángulo_303402" data-name="Rectángulo 303402" width="10.101" height="6.039" fill="#848fb7"/>
          </g>
          <g id="Grupo_903674" data-name="Grupo 903674" transform="translate(3.341 13.579)">
            <rect id="Rectángulo_303403" data-name="Rectángulo 303403" width="7.606" height="0.74" fill="#464f72"/>
          </g>
          <g id="Grupo_903675" data-name="Grupo 903675" transform="translate(3.341 14.873)">
            <rect id="Rectángulo_303404" data-name="Rectángulo 303404" width="7.606" height="0.74" fill="#464f72"/>
          </g>
          <g id="Grupo_903676" data-name="Grupo 903676" transform="translate(3.341 16.197)">
            <rect id="Rectángulo_303405" data-name="Rectángulo 303405" width="7.606" height="0.741" fill="#464f72"/>
          </g>
          <g id="Grupo_903677" data-name="Grupo 903677" transform="translate(3.341 17.49)">
            <rect id="Rectángulo_303406" data-name="Rectángulo 303406" width="7.606" height="0.742" fill="#464f72"/>
          </g>
          <g id="Grupo_903678" data-name="Grupo 903678" transform="translate(20.702 10.329)">
            <path id="Trazado_632301" data-name="Trazado 632301" d="M308.291,195.15a8.688,8.688,0,1,1-8.687-8.687A8.687,8.687,0,0,1,308.291,195.15Z" transform="translate(-290.915 -186.463)" fill="#3c93aa"/>
          </g>
          <g id="Grupo_903679" data-name="Grupo 903679" transform="translate(21.911 11.538)">
            <path id="Trazado_632302" data-name="Trazado 632302" d="M307.586,195.653a7.479,7.479,0,1,1-7.479-7.478A7.479,7.479,0,0,1,307.586,195.653Z" transform="translate(-292.627 -188.175)" fill="#64b4d7"/>
          </g>
          <g id="Grupo_903680" data-name="Grupo 903680" transform="translate(20.667 29.012)">
            <rect id="Rectángulo_303407" data-name="Rectángulo 303407" width="18.136" height="2.066" fill="#3c93aa"/>
          </g>
          <g id="Grupo_903684" data-name="Grupo 903684" transform="translate(24.23 32.926)">
            <g id="Grupo_903681" data-name="Grupo 903681">
              <path id="Trazado_632303" data-name="Trazado 632303" d="M306.921,229.473H295.912l5.505-11.007Z" transform="translate(-295.912 -218.466)" fill="#6d76a1"/>
            </g>
            <g id="Grupo_903682" data-name="Grupo 903682" transform="translate(1.066 1.616)">
              <path id="Trazado_632304" data-name="Trazado 632304" d="M297.422,229.4l4.439-8.646L306.3,229.4Z" transform="translate(-297.422 -220.755)" fill="#ffcf03"/>
            </g>
            <g id="Grupo_903683" data-name="Grupo 903683" transform="translate(4.518 3.564)">
              <path id="Trazado_632305" data-name="Trazado 632305" d="M302.395,229.494l-.084-3.9,1.007,1.359.274-3.437.017,4.478-.814-1.129Z" transform="translate(-302.311 -223.513)" fill="#6d76a1"/>
            </g>
          </g>
        </g>
      </g>
      <g id="Grupo_903688" data-name="Grupo 903688" transform="translate(314.229 149.683)">
        <g id="Grupo_903687" data-name="Grupo 903687">
          <path id="Trazado_632306" data-name="Trazado 632306" d="M433.8,188.316a3.613,3.613,0,1,1,3.612,3.613A3.614,3.614,0,0,1,433.8,188.316Zm1.611,0a2,2,0,1,0,2-2A2,2,0,0,0,435.412,188.316Z" transform="translate(-433.801 -184.706)" fill="#64b4d7"/>
        </g>
      </g>
      <g id="Grupo_903690" data-name="Grupo 903690" transform="translate(26.946 230.227)">
        <g id="Grupo_903689" data-name="Grupo 903689">
          <path id="Trazado_632307" data-name="Trazado 632307" d="M26.946,301.622a2.846,2.846,0,1,0,2.851-2.848A2.851,2.851,0,0,0,26.946,301.622Z" transform="translate(-26.946 -298.774)" fill="#c1e4fa"/>
        </g>
      </g>
      <g id="Grupo_903693" data-name="Grupo 903693" transform="translate(27.125 196.862)">
        <g id="Grupo_903692" data-name="Grupo 903692">
          <g id="Grupo_903691" data-name="Grupo 903691">
            <path id="Trazado_632308" data-name="Trazado 632308" d="M30.829,253.264c-.3-.392-.418-1.733-.912-1.742s-.62,1.366-.974,1.7-1.764.419-1.743.912,1.411.583,1.707.976.417,1.764.909,1.741.583-1.407.976-1.7,1.765-.418,1.742-.913S31.124,253.659,30.829,253.264Z" transform="translate(-27.2 -251.522)" fill="#ffb502"/>
          </g>
        </g>
      </g>
      <g id="Grupo_903708" data-name="Grupo 903708" transform="translate(317.842 101.562)">
        <g id="Grupo_903695" data-name="Grupo 903695" transform="translate(0.152)">
          <g id="Grupo_903694" data-name="Grupo 903694">
            <path id="Trazado_632309" data-name="Trazado 632309" d="M440.565,119.965l-1.432,0,.018-3.4,1.431,0Z" transform="translate(-439.133 -116.557)" fill="#1c2745"/>
          </g>
        </g>
        <g id="Grupo_903697" data-name="Grupo 903697" transform="translate(0.127 5.066)">
          <g id="Grupo_903696" data-name="Grupo 903696">
            <rect id="Rectángulo_303408" data-name="Rectángulo 303408" width="3.403" height="1.431" transform="translate(0 3.403) rotate(-89.737)" fill="#1c2745"/>
          </g>
        </g>
        <g id="Grupo_903699" data-name="Grupo 903699" transform="translate(0.104 10.134)">
          <g id="Grupo_903698" data-name="Grupo 903698">
            <rect id="Rectángulo_303409" data-name="Rectángulo 303409" width="3.403" height="1.432" transform="translate(0 3.403) rotate(-89.808)" fill="#1c2745"/>
          </g>
        </g>
        <g id="Grupo_903701" data-name="Grupo 903701" transform="translate(0.073 15.201)">
          <g id="Grupo_903700" data-name="Grupo 903700">
            <rect id="Rectángulo_303410" data-name="Rectángulo 303410" width="3.403" height="1.432" transform="translate(0 3.403) rotate(-89.655)" fill="#1c2745"/>
          </g>
        </g>
        <g id="Grupo_903703" data-name="Grupo 903703" transform="translate(0.051 20.271)">
          <g id="Grupo_903702" data-name="Grupo 903702">
            <rect id="Rectángulo_303411" data-name="Rectángulo 303411" width="3.403" height="1.432" transform="translate(0 3.403) rotate(-89.737)" fill="#1c2745"/>
          </g>
        </g>
        <g id="Grupo_903705" data-name="Grupo 903705" transform="translate(0.022 25.338)">
          <g id="Grupo_903704" data-name="Grupo 903704">
            <rect id="Rectángulo_303412" data-name="Rectángulo 303412" width="3.403" height="1.432" transform="translate(0 3.403) rotate(-89.656)" fill="#1c2745"/>
          </g>
        </g>
        <g id="Grupo_903707" data-name="Grupo 903707" transform="translate(0 30.406)">
          <g id="Grupo_903706" data-name="Grupo 903706">
            <rect id="Rectángulo_303413" data-name="Rectángulo 303413" width="3.402" height="1.432" transform="translate(0 3.402) rotate(-89.737)" fill="#1c2745"/>
          </g>
        </g>
      </g>
      <g id="Grupo_903731" data-name="Grupo 903731" transform="translate(93.371 132.293)">
        <g id="Grupo_903709" data-name="Grupo 903709" transform="translate(16.55 18.361)">
          <path id="Trazado_632310" data-name="Trazado 632310" d="M166.293,198.88l-10.6-10.919L145.4,198.872l-.946-.89,11.225-11.9,11.544,11.893Z" transform="translate(-144.457 -186.082)" fill="#464f72"/>
        </g>
        <g id="Grupo_903710" data-name="Grupo 903710" transform="translate(16.55 37.073)">
          <path id="Trazado_632311" data-name="Trazado 632311" d="M166.293,225.379l-10.6-10.918L145.4,225.372l-.946-.891,11.225-11.9,11.544,11.892Z" transform="translate(-144.457 -212.582)" fill="#464f72"/>
        </g>
        <g id="Grupo_903711" data-name="Grupo 903711" transform="translate(16.55 57.654)">
          <path id="Trazado_632312" data-name="Trazado 632312" d="M166.293,254.527l-10.6-10.918L145.4,254.519l-.946-.891,11.225-11.9,11.544,11.893Z" transform="translate(-144.457 -241.729)" fill="#464f72"/>
        </g>
        <g id="Grupo_903712" data-name="Grupo 903712" transform="translate(22.145 3.955)">
          <path id="Trazado_632313" data-name="Trazado 632313" d="M164.373,276.6H152.381l2.7-110.916h6.594Z" transform="translate(-152.381 -165.68)" fill="#6d76a1"/>
        </g>
        <g id="Grupo_903713" data-name="Grupo 903713" transform="translate(25.144 3.955)">
          <path id="Trazado_632314" data-name="Trazado 632314" d="M162.622,273.245h-6l1.349-107.564h3.3Z" transform="translate(-156.627 -165.68)" fill="#464f72"/>
        </g>
        <g id="Grupo_903714" data-name="Grupo 903714" transform="translate(15.537 110.223)">
          <path id="Trazado_632315" data-name="Trazado 632315" d="M169.348,322.253H143.021l2.7-6.076h20.925Z" transform="translate(-143.021 -316.178)" fill="#6d76a1"/>
        </g>
        <g id="Grupo_903715" data-name="Grupo 903715" transform="translate(22.145)">
          <rect id="Rectángulo_303414" data-name="Rectángulo 303414" width="11.992" height="6.829" fill="#464f72"/>
        </g>
        <g id="Grupo_903716" data-name="Grupo 903716" transform="translate(7.884 28.825)">
          <rect id="Rectángulo_303415" data-name="Rectángulo 303415" width="41.631" height="3.764" fill="#464f72"/>
        </g>
        <g id="Grupo_903717" data-name="Grupo 903717" transform="translate(7.884 68.117)">
          <rect id="Rectángulo_303416" data-name="Rectángulo 303416" width="41.631" height="3.765" fill="#464f72"/>
        </g>
        <g id="Grupo_903718" data-name="Grupo 903718" transform="translate(0.65 47.535)">
          <rect id="Rectángulo_303417" data-name="Rectángulo 303417" width="54.259" height="3.764" fill="#464f72"/>
        </g>
        <g id="Grupo_903719" data-name="Grupo 903719" transform="translate(7.884 28.825)">
          <rect id="Rectángulo_303418" data-name="Rectángulo 303418" width="1.656" height="9.188" fill="#6d76a1"/>
        </g>
        <g id="Grupo_903720" data-name="Grupo 903720" transform="translate(47.86 28.825)">
          <rect id="Rectángulo_303419" data-name="Rectángulo 303419" width="1.655" height="9.188" fill="#6d76a1"/>
        </g>
        <g id="Grupo_903721" data-name="Grupo 903721" transform="translate(7.199 34.309)">
          <rect id="Rectángulo_303420" data-name="Rectángulo 303420" width="3.157" height="6.081" fill="#64b4d7"/>
        </g>
        <g id="Grupo_903722" data-name="Grupo 903722" transform="translate(0.685 47.535)">
          <rect id="Rectángulo_303421" data-name="Rectángulo 303421" width="1.656" height="9.187" fill="#6d76a1"/>
        </g>
        <g id="Grupo_903723" data-name="Grupo 903723" transform="translate(0 53.022)">
          <rect id="Rectángulo_303422" data-name="Rectángulo 303422" width="3.157" height="6.081" fill="#64b4d7"/>
        </g>
        <g id="Grupo_903724" data-name="Grupo 903724" transform="translate(48.555 68.117)">
          <rect id="Rectángulo_303423" data-name="Rectángulo 303423" width="1.656" height="9.187" fill="#6d76a1"/>
        </g>
        <g id="Grupo_903725" data-name="Grupo 903725" transform="translate(47.87 73.602)">
          <rect id="Rectángulo_303424" data-name="Rectángulo 303424" width="3.158" height="6.081" fill="#64b4d7"/>
        </g>
        <g id="Grupo_903726" data-name="Grupo 903726" transform="translate(7.884 68.117)">
          <rect id="Rectángulo_303425" data-name="Rectángulo 303425" width="1.656" height="9.187" fill="#6d76a1"/>
        </g>
        <g id="Grupo_903727" data-name="Grupo 903727" transform="translate(7.199 73.602)">
          <rect id="Rectángulo_303426" data-name="Rectángulo 303426" width="3.157" height="6.081" fill="#64b4d7"/>
        </g>
        <g id="Grupo_903728" data-name="Grupo 903728" transform="translate(53.257 47.535)">
          <rect id="Rectángulo_303427" data-name="Rectángulo 303427" width="1.655" height="9.187" fill="#6d76a1"/>
        </g>
        <g id="Grupo_903729" data-name="Grupo 903729" transform="translate(52.571 53.022)">
          <rect id="Rectángulo_303428" data-name="Rectángulo 303428" width="3.157" height="6.081" fill="#64b4d7"/>
        </g>
        <g id="Grupo_903730" data-name="Grupo 903730" transform="translate(47.108 34.309)">
          <rect id="Rectángulo_303429" data-name="Rectángulo 303429" width="3.157" height="6.081" fill="#64b4d7"/>
        </g>
      </g>
    </g>
    <g id="Grupo_906300" data-name="Grupo 906300" transform="translate(1000 477.804)">
      <path id="Trazado_116791" data-name="Trazado 116791" d="M228.75,0V196.419s3.416,68.367-64.505,67.992S0,264.411,0,264.411" transform="translate(251.728 279.057) rotate(180)" fill="none" stroke="#4dd0e1" stroke-width="4"/>
      <path id="Trazado_116792" data-name="Trazado 116792" d="M45.059,29.65,29.565,45.19a8.226,8.226,0,0,1-11.656,0L2.414,29.65a8.284,8.284,0,0,1,0-11.69L17.909,2.421a8.226,8.226,0,0,1,11.656,0L45.059,17.96A8.283,8.283,0,0,1,45.059,29.65Z" transform="translate(47.474 305.889) rotate(180)" fill="#4dd0e1" opacity="0.999"/>
      <path id="Trazado_116793" data-name="Trazado 116793" d="M27.722,18.242,18.189,27.8a5.061,5.061,0,0,1-7.171,0l-9.533-9.56a5.1,5.1,0,0,1,0-7.192l9.533-9.56a5.061,5.061,0,0,1,7.171,0l9.533,9.56A5.1,5.1,0,0,1,27.722,18.242Z" transform="translate(266.332 29.291) rotate(180)" fill="#4dd0e1" opacity="0.999"/>
    </g>
    <g id="Rectángulo_303871" data-name="Rectángulo 303871" transform="translate(1051.797 513.423)" fill="none" stroke="#0b5999" stroke-width="4">
      <rect width="368.203" height="283.234" rx="38" stroke="none"/>
      <rect x="2" y="2" width="364.203" height="279.234" rx="36" fill="none"/>
    </g>
  </g>
</svg>
