<svg xmlns="http://www.w3.org/2000/svg" width="167.573" height="179.424" viewBox="0 0 167.573 179.424">
  <g id="Grupo_906769" data-name="Grupo 906769" transform="translate(-249.5 -4852)">
    <g id="Grupo_901758" data-name="Grupo 901758" transform="translate(579.602 4673.152)">
      <g id="Grupo_901756" data-name="Grupo 901756" transform="translate(-289.895 178.848)">
        <path id="Trazado_629937" data-name="Trazado 629937" d="M-129.531,258.281c-.216.6-.449,1.192-.646,1.8a13.514,13.514,0,0,1-13.1,9.383c-10.28.025-20.559.007-30.838.007h-1.414c1.319,6.584,2.616,13.066,3.925,19.6,3.944,0,7.794,0,11.644,0,2.305,0,3.483.828,3.478,2.437s-1.168,2.423-3.488,2.423h-66.526c-2.293,0-3.474-.845-3.451-2.457s1.175-2.4,3.511-2.4c3.812,0,7.623,0,11.605,0l3.928-19.6h-1.451c-10.28,0-20.559.021-30.838-.008A13.4,13.4,0,0,1-256.5,259.082a16.384,16.384,0,0,1-.383-3.813q-.035-31.149-.015-62.3c0-8.378,5.725-14.108,14.134-14.115q26.237-.021,52.474,0,23.315,0,46.63,0c6.527,0,11.571,3.526,13.474,9.353.209.64.433,1.276.651,1.914Zm-4.921-13.344v-.825q0-25.684-.01-51.367c-.008-5.514-3.675-9.028-9.325-9.029q-49.44-.009-98.879.012a11.118,11.118,0,0,0-2.942.356c-4.086,1.136-6.357,4.3-6.362,8.814q-.018,20.647,0,41.293v.964h1.287c4.312,0,8.624-.011,12.935.006,1.743.007,2.86.98,2.88,2.428.02,1.488-1.118,2.486-2.944,2.495-4.312.02-8.624.007-12.935.007h-1.133v4.848Zm-117.46,4.955c0,2.4-.076,4.681.036,6.953a7.273,7.273,0,0,0,.784,2.838c1.754,3.464,4.683,4.87,8.516,4.867q49.367-.044,98.735-.019c.5,0,1,0,1.491-.042a8.259,8.259,0,0,0,6.742-4.259c1.915-3.266.891-6.842,1.176-10.338Zm42.117,39.074h33.163c-1.312-6.561-2.6-12.994-3.888-19.453H-205.9C-207.195,275.963-208.481,282.4-209.795,288.966Z" transform="translate(256.897 -178.848)" fill="#030302"/>
        <path id="Trazado_629938" data-name="Trazado 629938" d="M-130.413,248.928H-247.845V244.08h1.133c4.311,0,8.624.013,12.935-.007,1.826-.008,2.964-1.006,2.944-2.495-.02-1.448-1.137-2.421-2.88-2.428-4.312-.017-8.623-.005-12.935-.006h-1.287v-.964q0-20.647,0-41.293c0-4.515,2.275-7.677,6.362-8.814a11.118,11.118,0,0,1,2.942-.356q49.44-.026,98.879-.012c5.65,0,9.317,3.515,9.325,9.029q.04,25.684.01,51.367Zm-43.952-24.419c1.461-1.433,2.852-2.735,4.17-4.107,1.661-1.729,1.019-3.844-1.329-4.391q-10.928-2.542-21.868-5.032c-2.207-.5-3.665.979-3.158,3.192q2.474,10.817,4.982,21.626a2.715,2.715,0,0,0,1.808,2.313,2.737,2.737,0,0,0,2.879-.993c1.251-1.307,2.544-2.575,3.926-3.969,1.629,1.655,3.151,3.228,4.7,4.771,1.584,1.575,2.8,1.577,4.369.029q2.168-2.138,4.31-4.3c1.552-1.569,1.552-2.8,0-4.372S-172.688,226.175-174.365,224.509Zm-16.773-22.587a19.671,19.671,0,0,0-.117-2.258,2.419,2.419,0,0,0-2.4-2.073,2.253,2.253,0,0,0-2.31,1.992,22.162,22.162,0,0,0,.025,4.422,2.109,2.109,0,0,0,2.257,1.873,2.262,2.262,0,0,0,2.385-1.9A14.99,14.99,0,0,0-191.138,201.922Zm7.607-.4c-.579.144-.893.127-1.048.275a36.228,36.228,0,0,0-3.951,3.969c-.605.792-.145,1.932.733,2.624a2.054,2.054,0,0,0,2.728.152,19.74,19.74,0,0,0,3.267-3.334,2.6,2.6,0,0,0,0-2.277C-182.152,202.275-183.043,201.9-183.53,201.526Zm-14.8,19.656a10.316,10.316,0,0,0-1.492-2.013,1.893,1.893,0,0,0-2.513.087,28.425,28.425,0,0,0-2.851,2.736,2.392,2.392,0,0,0,0,3.359,2.448,2.448,0,0,0,3.45.043,26.912,26.912,0,0,0,2.446-2.452A10.083,10.083,0,0,0-198.326,221.182Zm0-14.511-.253-.2c-.037-.245.016-.577-.125-.72a42.114,42.114,0,0,0-4.015-3.91c-.806-.629-1.86-.108-2.535.65a2.043,2.043,0,0,0-.266,2.732,27.8,27.8,0,0,0,3.29,3.322,1.82,1.82,0,0,0,2.4.04A10.621,10.621,0,0,0-198.321,206.671Zm-7.467,9.6v-.007c.662,0,1.33.053,1.987-.011a2.375,2.375,0,0,0,2.194-2.42,2.3,2.3,0,0,0-2.148-2.318,28.414,28.414,0,0,0-3.969-.008,2.281,2.281,0,0,0-2.184,2.4,2.361,2.361,0,0,0,2.257,2.356C-207.035,216.318-206.409,216.273-205.788,216.273Zm-17.7,25.281a2.393,2.393,0,0,0-2.48-2.372,2.414,2.414,0,0,0-2.381,2.481,2.491,2.491,0,0,0,2.49,2.408A2.474,2.474,0,0,0-223.485,241.554Z" transform="translate(252.858 -182.839)" fill="#fdfbe6"/>
        <path id="Trazado_629939" data-name="Trazado 629939" d="M-247.842,308.2h117.481c-.286,3.5.739,7.072-1.176,10.338a8.259,8.259,0,0,1-6.742,4.259c-.494.043-.994.042-1.491.042q-49.368,0-98.735.019c-3.833,0-6.762-1.4-8.516-4.867a7.275,7.275,0,0,1-.784-2.838C-247.918,312.879-247.842,310.6-247.842,308.2Zm58.674,12.178a4.893,4.893,0,0,0,4.931-4.867,4.964,4.964,0,0,0-4.942-4.885,4.964,4.964,0,0,0-4.867,4.834A4.888,4.888,0,0,0-189.168,320.376Z" transform="translate(252.826 -237.154)" fill="#fdeab2"/>
        <path id="Trazado_629940" data-name="Trazado 629940" d="M-171.138,363.375c1.314-6.571,2.6-13,3.89-19.453h25.385c1.291,6.459,2.576,12.892,3.888,19.453Z" transform="translate(218.24 -253.258)" fill="#f88a00"/>
        <path id="Trazado_629941" data-name="Trazado 629941" d="M-132.273,243.531c1.676,1.666,3.24,3.206,4.787,4.764s1.556,2.8,0,4.372q-2.141,2.165-4.31,4.3c-1.57,1.548-2.785,1.546-4.369-.029-1.551-1.543-3.073-3.116-4.7-4.771-1.383,1.394-2.675,2.662-3.926,3.969a2.737,2.737,0,0,1-2.879.993,2.715,2.715,0,0,1-1.808-2.313q-2.486-10.814-4.982-21.626c-.506-2.213.951-3.694,3.158-3.192q10.94,2.489,21.868,5.032c2.348.546,2.99,2.662,1.329,4.391C-129.421,240.8-130.812,242.1-132.273,243.531Zm-16.6-7.957c1.137,4.907,2.214,9.557,3.332,14.383.866-.866,1.592-1.6,2.322-2.322,1.744-1.736,2.926-1.751,4.639-.037,1.515,1.518,3.015,3.052,4.5,4.556l1.725-1.838c-1.493-1.482-3.027-2.991-4.544-4.516-1.621-1.63-1.618-2.835-.012-4.465.767-.779,1.542-1.55,2.436-2.448Z" transform="translate(210.766 -201.862)" fill="#030302"/>
        <path id="Trazado_629942" data-name="Trazado 629942" d="M-148.567,210.037a14.988,14.988,0,0,1-.163,2.054,2.262,2.262,0,0,1-2.385,1.9,2.109,2.109,0,0,1-2.257-1.873,22.161,22.161,0,0,1-.025-4.422,2.253,2.253,0,0,1,2.31-1.992,2.419,2.419,0,0,1,2.4,2.073A19.667,19.667,0,0,1-148.567,210.037Z" transform="translate(210.287 -190.955)" fill="#070706"/>
        <path id="Trazado_629943" data-name="Trazado 629943" d="M-135,212.872c.487.373,1.379.749,1.725,1.41a2.6,2.6,0,0,1,0,2.277,19.741,19.741,0,0,1-3.267,3.334,2.054,2.054,0,0,1-2.728-.152c-.878-.692-1.338-1.832-.733-2.624a36.23,36.23,0,0,1,3.951-3.969C-135.892,213-135.579,213.016-135,212.872Z" transform="translate(204.327 -194.185)" fill="#070706"/>
        <path id="Trazado_629944" data-name="Trazado 629944" d="M-163.8,246.649a10.083,10.083,0,0,1-.96,1.761,26.914,26.914,0,0,1-2.446,2.452,2.448,2.448,0,0,1-3.45-.043,2.392,2.392,0,0,1,0-3.359,28.425,28.425,0,0,1,2.851-2.736,1.893,1.893,0,0,1,2.513-.087A10.316,10.316,0,0,1-163.8,246.649Z" transform="translate(218.333 -208.306)" fill="#030302"/>
        <path id="Trazado_629945" data-name="Trazado 629945" d="M-163.845,218.045a10.621,10.621,0,0,1-1.5,1.914,1.82,1.82,0,0,1-2.4-.04,27.8,27.8,0,0,1-3.29-3.322,2.044,2.044,0,0,1,.266-2.732c.675-.757,1.729-1.279,2.535-.65a42.12,42.12,0,0,1,4.015,3.91c.141.143.088.475.125.72Z" transform="translate(218.381 -194.213)" fill="#070706"/>
        <path id="Trazado_629946" data-name="Trazado 629946" d="M-174.578,235.758c-.621,0-1.247.045-1.863-.009a2.361,2.361,0,0,1-2.257-2.356,2.281,2.281,0,0,1,2.184-2.4,28.41,28.41,0,0,1,3.969.008,2.3,2.3,0,0,1,2.148,2.318,2.375,2.375,0,0,1-2.194,2.42c-.656.064-1.324.011-1.987.011Z" transform="translate(221.648 -202.324)" fill="#030302"/>
        <path id="Trazado_629947" data-name="Trazado 629947" d="M-207.408,283.8a2.474,2.474,0,0,1-2.372,2.517,2.491,2.491,0,0,1-2.49-2.408,2.413,2.413,0,0,1,2.381-2.481A2.393,2.393,0,0,1-207.408,283.8Z" transform="translate(236.781 -225.089)" fill="#070706"/>
        <path id="Trazado_629948" data-name="Trazado 629948" d="M-145,322.367a4.888,4.888,0,0,1-4.878-4.918,4.964,4.964,0,0,1,4.867-4.834,4.964,4.964,0,0,1,4.942,4.885A4.893,4.893,0,0,1-145,322.367Z" transform="translate(208.656 -239.145)" fill="#030302"/>
        <path id="Trazado_629949" data-name="Trazado 629949" d="M-144.215,240.229l14.4,3.314c-.894.9-1.669,1.669-2.436,2.448-1.607,1.631-1.609,2.836.012,4.465,1.517,1.525,3.051,3.033,4.544,4.516l-1.725,1.838c-1.485-1.5-2.985-3.038-4.5-4.556-1.713-1.714-2.9-1.7-4.639.037-.729.726-1.455,1.456-2.322,2.322C-142,249.786-143.078,245.136-144.215,240.229Z" transform="translate(206.104 -206.517)" fill="#f68900"/>
      </g>
      <g id="Grupo_901757" data-name="Grupo 901757" transform="translate(-330.102 284.387)">
        <path id="Trazado_629950" data-name="Trazado 629950" d="M-330.1,399.093c.154-.455.325-.9.458-1.365a11.109,11.109,0,0,1,10.1-8.17c1.582-.057,3.168-.009,4.923-.009,0-1.314,0-2.557,0-3.8,0-2.282.373-2.758,2.545-3.321,1.837-.476,3.662-1,5.508-1.433.6-.14.772-.388.762-1-.033-2.016-.019-4.032-.011-6.049.008-2.037.825-2.9,2.76-2.908,1.994-.009,3.987,0,6.123,0v2.309l-.08,2.352H-301.3v32.23h12.222c.413.012.826.035,1.24.035q25.255.009,50.511.014l.063,2.373v2.208h-65.441c-2.47,0-3.109-.673-3.109-3.273v-6.435c-2.273-.6-4.5-1.186-6.726-1.78-1.559-.415-2.062-1.075-2.074-2.729-.01-1.363,0-2.725,0-4.1a37.576,37.576,0,0,0-5.6.05,6.537,6.537,0,0,0-5.456,6.729q-.091,11.564,0,23.131a6.713,6.713,0,0,0,6.493,6.88c.482.027.966.013,1.449.013h56.074v4.544c-.311.016-.64.049-.97.049q-28.008,0-56.016,0a11.154,11.154,0,0,1-11.156-8.883c-.084-.358-.2-.708-.305-1.062Zm24.182-13.447c-1.359.344-2.625.636-3.868,1.009-.184.055-.372.487-.376.747q-.057,4.422-.031,8.844a1,1,0,0,0,.458.78c1.242.382,2.51.675,3.817,1.011Z" transform="translate(330.102 -371.016)" fill="#122236"/>
        <path id="Trazado_629951" data-name="Trazado 629951" d="M-261.839,373.347v-2.327h1.181q32.188,0,64.376-.016a2.9,2.9,0,0,1,3.009,1.7v38.276a2.868,2.868,0,0,1-2.981,1.591c-1.919-.081-3.844-.021-5.824-.021l-.107-2.217.061-2.346h4.364V375.747h-4c-.274-.021-.547-.06-.821-.06q-16.71,0-33.421,0-12.881,0-25.762-.03Q-261.8,374.5-261.839,373.347Z" transform="translate(299.332 -371.003)" fill="#152538"/>
        <path id="Trazado_629952" data-name="Trazado 629952" d="M-192.88,477.327H-197.2v-4.6h4.324c0-.722-.01-1.355,0-1.988a2.433,2.433,0,0,1,2.035-2.7c2.237-.59,4.477-1.159,6.7-1.734.45-2.448.922-2.848,3.322-2.848,2.451,0,4.9,0,7.352,0,1.912,0,2.695.826,2.7,2.824,0,.536,0,1.073,0,1.73h4.376V472.7H-170.7v4.568h4.312v4.614h-4.376c0,.83.018,1.538,0,2.245a2.2,2.2,0,0,1-2.168,2.391q-4.45.1-8.9,0c-1.42-.033-2.057-.913-2.238-2.8-1.993-.528-4.018-1.068-6.044-1.6-2.467-.65-2.75-1.028-2.755-3.715C-192.881,478.076-192.88,477.754-192.88,477.327Zm15.485,4.516h2.179V468.1h-4.36v13.741Zm-10.963-7.772,0,1.274c-.016.646-.058,1.293-.034,1.937.008.209.15.552.294.593,1.308.376,2.63.7,4.024,1.057v-7.888c-1.3.349-2.531.652-3.744,1.035a1.057,1.057,0,0,0-.54.708A5.833,5.833,0,0,0-188.358,474.072Z" transform="translate(270.196 -412.68)" fill="#122236"/>
        <path id="Trazado_629953" data-name="Trazado 629953" d="M-156.754,438.312l-.061,2.346-4.31.007-.063-2.373Z" transform="translate(253.961 -401.335)" fill="#cad2ea"/>
        <path id="Trazado_629954" data-name="Trazado 629954" d="M-265.388,375.073q.037,1.106.073,2.211l-4.477.024.08-2.251Z" transform="translate(302.916 -372.83)" fill="#949fc0"/>
        <path id="Trazado_629955" data-name="Trazado 629955" d="M-273.372,379.5l4.473-.025q12.881.015,25.762.03,16.711.006,33.421,0c.274,0,.548.04.821.06-.135.133-.255.363-.4.385-1.658.244-3.33.393-4.977.7-1.467.27-2.907.7-4.358,1.061-2.442.014-4.883.034-7.325.041-2.46.008-3.093.628-3.235,3.2a7.613,7.613,0,0,0-1.08.242c-1.086.407-2.16.85-3.238,1.279-.012-.54-.032-1.079-.033-1.619-.005-2.342-.728-3.1-2.974-3.1q-8.024,0-16.048,0c-2.367,0-3.1.763-3.106,3.21q-.016,8.213-.037,16.425a9.227,9.227,0,0,0-.911.634c-1.141,1.006-2.266,2.032-3.4,3.05-.014-.395-.041-.79-.042-1.185q0-9.677,0-19.353c0-1.892-.836-2.767-2.661-2.775q-3.936-.019-7.871,0c-1.9.007-2.722.863-2.723,2.822q-.006,11.028,0,22.056c0,2.009.763,2.8,2.7,2.814q3.312.029,6.624.053l-1.446,2.232h-12.222V379.5Z" transform="translate(306.464 -374.823)" fill="#cad2ea"/>
        <path id="Trazado_629956" data-name="Trazado 629956" d="M-255.41,411.805l1.446-2.232c.513-.016,1.025-.03,1.538-.049a2.264,2.264,0,0,0,2.391-2.562c.01-.606.03-1.213.045-1.82,1.131-1.018,2.257-2.044,3.4-3.05a9.227,9.227,0,0,1,.911-.634c.013,1.836.009,3.672.045,5.507.031,1.605.852,2.54,2.344,2.547q8.746.04,17.492,0a2.162,2.162,0,0,0,2.271-2.371c.023-1.512-.012-3.024-.021-4.537l.018-4.632.049-11.428c1.079-.429,2.152-.872,3.238-1.279a7.612,7.612,0,0,1,1.08-.242c.012.4.036.79.036,1.186q0,10.213.005,20.425c0,2.072.773,2.888,2.754,2.891q8.333.012,16.667,0c1.939,0,2.7-.8,2.7-2.813q0-10.969,0-21.938c0-2.12-.783-2.939-2.8-2.949l-8.8-.044c1.452-.36,2.891-.791,4.358-1.061,1.647-.3,3.32-.451,4.977-.7.149-.022.27-.252.4-.385h4v32.234h-4.364l-4.433-.019q-25.256-.007-50.511-.014C-254.584,411.84-255,411.818-255.41,411.805Z" transform="translate(296.434 -374.896)" fill="#eaedfa"/>
        <path id="Trazado_629957" data-name="Trazado 629957" d="M-289.59,397.641v12.391c-1.307-.336-2.575-.629-3.817-1.011a1,1,0,0,1-.458-.78q-.032-4.422.031-8.844c0-.26.192-.692.376-.747C-292.215,398.277-290.949,397.985-289.59,397.641Z" transform="translate(313.772 -383.01)" fill="#7888ad"/>
        <path id="Trazado_629958" data-name="Trazado 629958" d="M-181.133,480.3a5.832,5.832,0,0,1,0-1.284,1.057,1.057,0,0,1,.54-.708c1.212-.383,2.447-.685,3.744-1.035v7.888c-1.393-.358-2.715-.681-4.024-1.057-.144-.041-.286-.384-.294-.593-.024-.644.018-1.291.034-1.937l.186.085c.862.4,1.408-.12,1.733-.807.145-.3-.1-.812-.172-1.228-.527.185-1.055.368-1.58.557A.763.763,0,0,0-181.133,480.3Z" transform="translate(262.972 -418.904)" fill="#7888ad"/>
        <path id="Trazado_629959" data-name="Trazado 629959" d="M-161.131,471.911h2.171v9.209l-2.182-.014Z" transform="translate(253.941 -416.489)" fill="#f49c02"/>
        <path id="Trazado_629960" data-name="Trazado 629960" d="M-162.919,471.911l-.012,9.195v0l-2.178.011v-9.21Z" transform="translate(255.729 -416.489)" fill="#f17503"/>
        <path id="Trazado_629961" data-name="Trazado 629961" d="M-161.143,488.652l2.182.014V493.2h-2.179l0-4.543Z" transform="translate(253.941 -424.035)" fill="#fec400"/>
        <path id="Trazado_629962" data-name="Trazado 629962" d="M-162.93,488.659l0,4.543h-2.18V488.67Z" transform="translate(255.729 -424.038)" fill="#fea000"/>
        <path id="Trazado_629963" data-name="Trazado 629963" d="M-181.1,482.225a.763.763,0,0,1,.166-.119c.526-.189,1.053-.372,1.58-.557.07.415.317.923.172,1.228-.325.688-.871,1.211-1.733.807l-.186-.085Z" transform="translate(262.938 -420.833)" fill="#eaedfa"/>
        <path id="Trazado_629964" data-name="Trazado 629964" d="M-178.856,383.539l8.8.044c2.021.01,2.8.829,2.8,2.949q0,10.969,0,21.938c0,2.01-.758,2.81-2.7,2.813q-8.333.013-16.667,0c-1.981,0-2.752-.818-2.754-2.891q-.007-10.213-.005-20.425c0-.4-.024-.79-.036-1.186.142-2.574.775-3.194,3.235-3.2C-183.739,383.573-181.3,383.553-178.856,383.539Zm7.132,23.078V388.351h-13.129v18.266Z" transform="translate(266.686 -376.654)" fill="#152538"/>
        <path id="Trazado_629965" data-name="Trazado 629965" d="M-215.564,404.4c.009,1.513.043,3.025.021,4.537a2.162,2.162,0,0,1-2.271,2.371q-8.745.04-17.492,0c-1.492-.007-2.313-.941-2.344-2.547-.036-1.836-.032-3.672-.045-5.507q.019-8.213.037-16.425c0-2.447.739-3.21,3.106-3.21q8.024,0,16.048,0c2.246,0,2.969.76,2.974,3.1,0,.54.021,1.079.033,1.619q-.025,5.713-.049,11.427l-2.049.054h-2.379V388.39h-13.149v18.236h13.247v-2.281h2.266Z" transform="translate(288.448 -376.688)" fill="#152538"/>
        <path id="Trazado_629966" data-name="Trazado 629966" d="M-256.457,406.933c-.015.607-.035,1.213-.045,1.82a2.264,2.264,0,0,1-2.391,2.562c-.513.02-1.025.033-1.538.049q-3.312-.026-6.624-.053c-1.938-.017-2.7-.806-2.7-2.814q0-11.028,0-22.056c0-1.959.826-2.815,2.723-2.822q3.936-.015,7.871,0c1.825.009,2.659.883,2.661,2.775q.007,9.677,0,19.353C-256.5,406.143-256.472,406.538-256.457,406.933Zm-8.823-18.589v6.8h4.307v-6.8Zm0,11.485v6.825h4.324v-6.825Z" transform="translate(302.902 -376.686)" fill="#122236"/>
        <path id="Trazado_629967" data-name="Trazado 629967" d="M-199.081,417.65l-2.046-.052q.008-2.263.015-4.527l2.049-.054Z" transform="translate(271.965 -389.942)" fill="#cbd2ea"/>
        <path id="Trazado_629968" data-name="Trazado 629968" d="M-167.823,408.864h-13.142V391.385h13.142Zm-2.2-15.379h-8.8v4.369h8.8Zm0,8.9h-8.794v4.237h8.794Z" transform="translate(262.876 -380.19)" fill="#949fc0"/>
        <path id="Trazado_629969" data-name="Trazado 629969" d="M-213.843,405.657q-.007,2.264-.015,4.527h-2.266v2.281h-13.247V404.77c1.122-.78,2.258-1.538,3.357-2.351a16.773,16.773,0,0,0,1.4-1.29h6.25v-3.707l2.144-.855v9.089Zm-13.386,4.493h8.75v-4.46h-8.75Z" transform="translate(284.696 -382.527)" fill="#949fc0"/>
        <path id="Trazado_629970" data-name="Trazado 629970" d="M-224.514,398a16.563,16.563,0,0,1-1.4,1.234c-1.1.778-2.239,1.5-3.361,2.25V391.392h13.162v2.238l-2.146.818-.127-.957h-8.749V398Z" transform="translate(284.653 -380.194)" fill="#7888ad"/>
        <path id="Trazado_629971" data-name="Trazado 629971" d="M-261.54,391.315h4.311v6.5h-4.311Z" transform="translate(299.197 -380.159)" fill="#f77702"/>
        <path id="Trazado_629972" data-name="Trazado 629972" d="M-261.6,413.14h4.324v6.825H-261.6Z" transform="translate(299.225 -389.997)" fill="#f77702"/>
        <path id="Trazado_629973" data-name="Trazado 629973" d="M-168.255,395.21v4.369h-8.8V395.21Z" transform="translate(261.113 -381.915)" fill="#152538"/>
        <path id="Trazado_629974" data-name="Trazado 629974" d="M-168.414,413.241v4.427H-177.2v-4.427Z" transform="translate(261.179 -390.042)" fill="#122236"/>
        <path id="Trazado_629975" data-name="Trazado 629975" d="M-222.758,399.718h-2.622v-4.5h8.749l.127.957v3.547Z" transform="translate(282.897 -381.916)" fill="#152538"/>
        <path id="Trazado_629976" data-name="Trazado 629976" d="M-225.471,417.635v-4.46h8.75v4.46Z" transform="translate(282.938 -390.013)" fill="#122236"/>
      </g>
    </g>
  </g>
</svg>
