<svg xmlns="http://www.w3.org/2000/svg" width="149" height="149" viewBox="0 0 149 149">
  <g id="Grupo_906777" data-name="Grupo 906777" transform="translate(-727 -7868.471)">
    <circle id="Elipse_6509" data-name="Elipse 6509" cx="74.5" cy="74.5" r="74.5" transform="translate(727 7868.471)" fill="#0b5999"/>
    <g id="Grupo_901828" data-name="Grupo 901828" transform="translate(1045.7 7665.827)">
      <path id="Trazado_630189" data-name="Trazado 630189" d="M-167.267,258.316a9.994,9.994,0,0,1,.017-5.659c.386-1.555.848-3.093,1.318-4.626a17.046,17.046,0,0,0,.387-9.032,11.952,11.952,0,0,1,5.884,5.843,41.009,41.009,0,0,1,1.507,4.785c.369,1.3.988,1.626,2.147.936,2.768-1.648,4.042-4.333,4.894-7.261,1.441-4.955,1.338-10.025,1.008-15.1-.026-.4-.079-.8-.109-1.2-.024-.326-.032-.653-.059-1.25.419.389.7.626.955.89a34.634,34.634,0,0,1,8.756,17.238,26.806,26.806,0,0,1-.411,14.271c-2.922,8.77-11.345,10.332-17.4,8.623-.626-.177-.915-.462-.849-1.146a16.822,16.822,0,0,0,.009-1.971,5.347,5.347,0,0,0-5.289-5.334C-165.412,258.291-166.323,258.316-167.267,258.316Z" transform="translate(-76.139)" fill="#feca2e"/>
      <path id="Trazado_630190" data-name="Trazado 630190" d="M-253.276,314.66h23.2c-.1,2.158-.207,4.283-.316,6.536-2.124,0-4.465.131-6.788-.027-4.986-.339-7.405,2.344-7.171,7.178.2,4.153,0,8.323.076,12.485a4.274,4.274,0,0,0,.75,2.29c2.03,2.82,4.089,5.6,5,9.041.109.409.781.763,1.267.95a4.447,4.447,0,0,0,1.456.032v6.49h-17.473Z" transform="translate(-15.594 -62.883)" fill="#fff"/>
      <path id="Trazado_630191" data-name="Trazado 630191" d="M-251.389,346.437V350.6h-1.129q-10.54,0-21.081,0c-1.543,0-1.725-.179-1.725-1.674q0-27.236,0-54.472c0-1.548.137-1.684,1.695-1.684h29.98l-1.155,4.174h-24.419c-1.687,0-1.934.236-1.934,1.86q0,22.907,0,45.814c0,1.561.263,1.816,1.872,1.817q8.289,0,16.579,0Z" transform="translate(0 -47.402)" fill="#4dd0e1"/>
      <path id="Trazado_630192" data-name="Trazado 630192" d="M-195.027,354.617c0,2.3.035,4.6-.025,6.9a3.185,3.185,0,0,1-.547,1.687,32.516,32.516,0,0,0-4.724,8.227,1.146,1.146,0,0,1-.888.533q-3.893.064-7.787,0a1.13,1.13,0,0,1-.876-.544c-.984-3.127-2.92-5.691-4.779-8.312a2.955,2.955,0,0,1-.514-1.587c-.04-4.453-.028-8.906-.021-13.358,0-2.521,1.243-3.746,3.782-3.749q6.362-.007,12.724,0c2.414,0,3.646,1.237,3.652,3.635C-195.023,350.237-195.027,352.427-195.027,354.617Zm-10,2.888c1.2,0,2.4.006,3.607,0,.719-.005,1.338-.2,1.371-1.059.035-.922-.6-1.174-1.369-1.178q-3.661-.02-7.322,0c-.761.005-1.432.263-1.393,1.166.036.816.664,1.061,1.39,1.067C-207.5,357.512-206.266,357.505-205.028,357.505Zm.022,2.088c-1.239,0-2.478-.009-3.717,0-.771.008-1.423.273-1.414,1.156.008.835.654,1.073,1.371,1.076q3.717.019,7.433,0c.733,0,1.308-.3,1.285-1.148s-.628-1.076-1.351-1.083C-202.6,359.584-203.8,359.593-205.006,359.593Zm-.108-6.421c1.243,0,2.486,0,3.73,0,.74,0,1.329-.246,1.334-1.1s-.556-1.1-1.318-1.1q-3.675.012-7.35,0c-.808,0-1.432.278-1.408,1.144.023.8.637,1.066,1.391,1.057C-207.528,353.163-206.321,353.172-205.114,353.172Z" transform="translate(-42.528 -83.922)" fill="#fd9927"/>
      <path id="Trazado_630193" data-name="Trazado 630193" d="M-150.228,374.483v27.228h-17.466v-6.4c.047-.03.111-.105.162-.1,1.79.268,2.57-.581,3.045-2.273.832-2.962,2.78-5.345,4.532-7.82a3.984,3.984,0,0,0,.686-2.089c.073-3.063.031-6.128.031-8.93Z" transform="translate(-76.123 -104.926)" fill="#fff"/>
      <path id="Trazado_630194" data-name="Trazado 630194" d="M-185.8,446.328h2.928c0,.451-.006.878,0,1.3.067,4.635.033,9.274.241,13.9a13.185,13.185,0,0,0,3.179,8.335,8.679,8.679,0,0,0,6.144,2.979c4.088.29,7.9-.9,11.606-2.379,5.831-2.33,11.582-4.859,17.4-7.215a64.541,64.541,0,0,1,14.906-4.32,28.532,28.532,0,0,1,11.96.515c1.172.329,1.708,1.055,1.451,1.926-.268.909-1.042,1.262-2.216.944-5.707-1.544-11.309-.771-16.865.778-7.169,2-13.884,5.163-20.683,8.108-4.425,1.917-8.856,3.834-13.67,4.581-4.643.721-8.94.114-12.22-3.656a16.728,16.728,0,0,1-4.025-10.329c-.26-5.027-.181-10.072-.244-15.108A1.533,1.533,0,0,1-185.8,446.328Z" transform="translate(-63.244 -156.007)" fill="#fd9927"/>
      <path id="Trazado_630195" data-name="Trazado 630195" d="M-167.891,401.347v-4.17h1.216q8.4,0,16.8,0c1.517,0,1.77-.258,1.771-1.8q0-13.81-.012-27.62a1.322,1.322,0,0,1,.915-1.48,33.712,33.712,0,0,0,3.235-1.758c.019.3.057.6.057.912q0,17.043,0,34.087c0,1.678-.15,1.828-1.8,1.828q-10.485,0-20.971,0Z" transform="translate(-75.984 -98.148)" fill="#08a9dd"/>
      <path id="Trazado_630196" data-name="Trazado 630196" d="M-192.8,383.718c-1.239,0-2.477.007-3.716,0-.726-.006-1.354-.251-1.39-1.067-.04-.9.632-1.161,1.393-1.166q3.661-.025,7.322,0c.766,0,1.4.256,1.369,1.178-.033.857-.653,1.054-1.371,1.059C-190.4,383.724-191.6,383.718-192.8,383.718Z" transform="translate(-54.751 -110.135)" fill="#fcfcfd"/>
      <path id="Trazado_630197" data-name="Trazado 630197" d="M-192.787,396.277c1.2,0,2.4-.009,3.607,0,.723.007,1.328.229,1.351,1.083s-.552,1.143-1.285,1.148q-3.716.026-7.433,0c-.717,0-1.363-.241-1.371-1.076-.008-.884.643-1.149,1.414-1.156C-195.265,396.268-194.026,396.277-192.787,396.277Z" transform="translate(-54.746 -120.606)" fill="#fcfcfd"/>
      <path id="Trazado_630198" data-name="Trazado 630198" d="M-192.87,369.038c-1.207,0-2.414-.009-3.62,0-.754.008-1.369-.26-1.391-1.057-.024-.866.6-1.148,1.408-1.144q3.675.02,7.35,0c.761,0,1.323.244,1.318,1.1s-.594,1.1-1.334,1.1C-190.384,369.042-191.627,369.038-192.87,369.038Z" transform="translate(-54.772 -99.789)" fill="#fcfcfd"/>
    </g>
  </g>
</svg>
