<svg xmlns="http://www.w3.org/2000/svg" width="149" height="149" viewBox="0 0 149 149">
  <g id="Grupo_906778" data-name="Grupo 906778" transform="translate(-1074 -7868.471)">
    <circle id="Elipse_6510" data-name="Elipse 6510" cx="74.5" cy="74.5" r="74.5" transform="translate(1074 7868.471)" fill="#0b5999"/>
    <g id="Grupo_901829" data-name="Grupo 901829" transform="translate(1467.253 7560.017)">
      <path id="Trazado_630199" data-name="Trazado 630199" d="M-371.051,460.511V437.089c1.806-.011,3.616.053,5.415-.059a15.643,15.643,0,0,0,3.839-.632q10.812-3.511,21.574-7.171a6.518,6.518,0,0,1,6.284.9c3.98,2.836,7.992,5.627,12,8.418a5.723,5.723,0,0,1,2.536,3.593c.253,1.267.3,2.574.448,3.947-1.758,0-3.372.006-4.985,0a1.94,1.94,0,0,1-.98-.118c-1.4-.931-2.759-1.918-4.088-2.855a8.2,8.2,0,0,1,.24-.787c.285-.661.352-1.336-.448-1.591-.83-.264-1.074.426-1.282,1.066-.4,1.213-.79,2.427-1.232,3.624-.1.259-.385.627-.6.635-1.518.055-3.039.029-4.843.029,2.091-2.553,1.2-5.351,1.326-8,.015-.325-.578-.68-.889-1.02-.29.328-.721.613-.836.994a5.721,5.721,0,0,0-.038,1.57c-.011,1.9.228,3.814-.954,5.548-.421.617-.741.961-1.536.93-1.8-.068-3.614-.07-5.416.018a1.421,1.421,0,0,0-1.06.828c-.135.672.407.968,1.075.943.263-.009.527,0,.79,0,9.446,0,18.891-.015,28.337.027a5.206,5.206,0,0,1,2.447.629,3.406,3.406,0,0,1,1.481,3.923,3.6,3.6,0,0,1-3.634,2.643c-6.021.011-12.043-.018-18.063.037a3.1,3.1,0,0,0-1.865.734,16.662,16.662,0,0,1-10.892,4.59C-354.944,460.621-363,460.515-371.051,460.511Z" transform="translate(-5.974 -56.17)" fill="#f7b1d5"/>
      <path id="Trazado_630200" data-name="Trazado 630200" d="M-377.025,404.341c8.052,0,16.107.11,24.156-.03a16.662,16.662,0,0,0,10.892-4.59,3.1,3.1,0,0,1,1.865-.734c6.021-.055,12.042-.026,18.063-.037a3.6,3.6,0,0,0,3.634-2.643,3.406,3.406,0,0,0-1.481-3.923,5.206,5.206,0,0,0-2.447-.629c-9.445-.042-18.891-.027-28.337-.027-.263,0-.527-.008-.79,0-.668.024-1.21-.271-1.075-.943a1.421,1.421,0,0,1,1.06-.828c1.8-.088,3.613-.086,5.416-.018.795.03,1.115-.313,1.536-.93,1.182-1.734.943-3.649.954-5.548a5.72,5.72,0,0,1,.038-1.57c.116-.381.546-.666.836-.994.311.341.9.7.889,1.02-.125,2.648.766,5.446-1.326,8,1.8,0,3.325.026,4.843-.029.212-.008.5-.375.6-.635.442-1.2.837-2.411,1.232-3.624.209-.64.453-1.33,1.282-1.066.8.254.733.929.448,1.591-.089.206-.133.43-.24.787,1.33.937,2.69,1.925,4.088,2.855a1.94,1.94,0,0,0,.98.118c1.614.01,3.228,0,4.985,0-.148-1.373-.195-2.68-.448-3.947a5.723,5.723,0,0,0-2.536-3.593c-4.011-2.791-8.023-5.582-12-8.418a6.518,6.518,0,0,0-6.284-.9q-10.764,3.652-21.574,7.171a15.641,15.641,0,0,1-3.839.632c-1.8.112-3.61.048-5.415.059l-.86-1.122c.414-.24.859-.731,1.238-.683,5.832.731,11.076-1.427,16.4-3.233,4.548-1.544,9.115-3.033,13.659-4.588a7.978,7.978,0,0,1,7.591,1.1c3.811,2.683,7.58,5.432,11.467,8a8.856,8.856,0,0,1,4.263,7.612c.014.526.079,1.05.134,1.574a3.215,3.215,0,0,0,.241.561c2.169-2.6,4.7-4.335,8.164-3.786.142-1.813.193-1.859,1.9-1.86h5.391V383.22q0-16.545,0-33.091c0-1.684.093-1.775,1.8-1.775h34.446c1.633,0,1.705.075,1.705,1.745q0,29.872,0,59.744c0,1.707-.058,1.764-1.8,1.764H-305.62c-1.753,0-1.816-.066-1.817-1.872,0-1.129,0-2.258,0-3.55h-5.377c-1.732,0-1.789-.053-1.9-1.813a7.8,7.8,0,0,1-7.248-2.924c-.115.068-.21.093-.217.133-.582,3.421-1.99,4.6-5.494,4.6q-4.913,0-9.825,0c-2.824,0-4.146-1.249-4.31-4.172-.281.182-.519.324-.745.484a19.38,19.38,0,0,1-11.5,3.688c-1.242,0-2.494.1-3.725-.023a8.942,8.942,0,0,0-5.129,1.275,88.508,88.508,0,0,0-14.535,9.438l-.177.14c-.514.41-1.061.877-1.655.193s-.053-1.151.451-1.578a90.545,90.545,0,0,1,14.175-9.306c-2.617-.391-3.419-.308-5.337.931-2.585,1.67-5.1,3.443-7.662,5.155a9.675,9.675,0,0,1-1.185.583c-.99-.721-1.04-1.176-.082-1.867,1.971-1.422,3.978-2.795,5.972-4.185.287-.2.586-.383,1.159-.756-1.856,0-3.377.052-4.89-.034-.416-.023-.808-.457-1.212-.7Zm105.659,5.418V350.243h-34.175v38.771c1.817,0,3.549-.034,5.279.018a1.493,1.493,0,0,0,1.347-.74,38.185,38.185,0,0,1,2.572-2.825,3.49,3.49,0,0,1,2.754-1c3.575.066,7.152,0,10.728.05a3.3,3.3,0,0,1,1.755.549,12.623,12.623,0,0,1,0,20.538,3.315,3.315,0,0,1-1.755.551c-3.237.053-6.485-.134-9.708.079a5.941,5.941,0,0,1-5.252-2.415c-.461-.543-.851-1.147-1.311-1.692a1.136,1.136,0,0,0-.679-.443c-1.908-.036-3.817-.02-5.756-.02v8.091Zm-26.231-8.542c.482.576.976,1.182,1.487,1.774a3.888,3.888,0,0,0,3.346,1.421c3.153-.118,6.314-.014,9.472-.06a2.7,2.7,0,0,0,1.525-.509,10.8,10.8,0,0,0,.009-17.006,2.513,2.513,0,0,0-1.414-.509c-3.533-.042-7.067-.034-10.6-.008a1.823,1.823,0,0,0-1.122.352c-.969.864-1.868,1.805-2.765,2.689,1.8,2.575,1.237,4.234-1.6,5.212V396.1C-296.417,397.089-295.855,398.752-297.6,401.217Zm-9.878-14.822h-5.317v17.893h5.317Zm-7.245,1.77c-2.215-.22-4.083.182-5.53,1.866,5.108,2.16,4.963,8.5.061,10.568a5.169,5.169,0,0,0,5.469,1.8Zm-14.615,12.65a2.87,2.87,0,0,0,1.347,3.222,2.482,2.482,0,0,0,2.855-.2,2.728,2.728,0,0,0,.978-3.021Zm23.756-8.2c2.119,0,4.175.039,6.226-.04.32-.012.62-.565.929-.868-.32-.292-.63-.825-.96-.838-2.049-.078-4.1-.039-6.195-.039Zm0,7.23c2.087,0,4.106.044,6.12-.041.357-.015.692-.569,1.037-.873-.321-.291-.633-.821-.965-.834-2.048-.078-4.1-.039-6.192-.039Zm-30.588.906c-1.167.2-2.729-.58-3.523,1a2.159,2.159,0,0,0,.137,1.848c.91,1.317,2.328.616,3.387.746Zm4.781.01c-.391,0-.873-.026-1.352.005a1.806,1.806,0,0,0-1.8,1.795,1.8,1.8,0,0,0,1.791,1.8c.736.042,1.477.008,2.15.008Zm30.243-6.274h-4.428v1.753c1.284,0,2.514,0,3.743,0,.216,0,.433-.022.685-.035Zm-32.782-4.6-1.67-1.167-.354,1.167Z" transform="translate(0)" fill="#030203"/>
      <path id="Trazado_630201" data-name="Trazado 630201" d="M-251.761,385.088c1.011,1.637,2,3.144,2.871,4.717.215.389.036.995.038,1.5-.5-.091-1.125-.02-1.471-.3-2.691-2.174-5.34-4.4-7.966-6.654-.351-.3-.753-.891-.674-1.246s.729-.58,1.156-.813a5.3,5.3,0,0,1,.945-.294c-.827-1.345-1.671-2.625-2.4-3.968-.2-.374-.067-.932-.086-1.4.5.052,1.139-.076,1.482.185,2.575,1.954,5.1,3.971,7.613,6.009.334.271.714.825.643,1.157s-.655.6-1.056.813A5.287,5.287,0,0,1-251.761,385.088Zm-.726-1.763L-254.5,381.8c.387,1.472-.6,1.7-1.665,1.979l2.387,2.01C-254.137,383.819-254.137,383.819-252.487,383.325Z" transform="translate(-83.949 -19.742)" fill="#070606"/>
      <path id="Trazado_630202" data-name="Trazado 630202" d="M-179.775,387.021c-1.213,1.473-2.361,2.864-3.5,4.26-.375.458-.851.973-1.381.462a1.653,1.653,0,0,1-.233-1.447c1.174-3.244,2.412-6.464,3.68-9.673.172-.435.633-1.079.93-1.063.432.023.854.539,1.245.884a4.112,4.112,0,0,1,.513.762c1-1.217,1.905-2.4,2.912-3.488a1.738,1.738,0,0,1,1.367-.583c.739.235.521.941.311,1.535-1.052,2.97-2.08,5.948-3.167,8.9-.162.442-.622,1.122-.891,1.1-.44-.039-.854-.548-1.245-.9A4.576,4.576,0,0,1-179.775,387.021Zm-1.4-1.468c1.61-1.309,1.61-1.309,2.877.094l.616-1.876-2.45-.927Z" transform="translate(-135.904 -20.08)" fill="#070606"/>
      <path id="Trazado_630203" data-name="Trazado 630203" d="M-214.467,372.046c0-1.552-.054-3.053.032-4.546a1.708,1.708,0,0,1,.693-1.283c.652-.288.944.326,1.158.892,1.127,2.982,2.291,5.95,3.388,8.943.158.432.212,1.163-.033,1.411s-.933.115-1.424.1a5,5,0,0,1-.88-.2c0,1.086,0,2.116,0,3.145a22.939,22.939,0,0,1,0,2.593c-.039.359-.442.948-.687.952a1.378,1.378,0,0,1-1.064-.672c-.57-1.344-1.012-2.743-1.5-4.122-.688-1.945-1.407-3.88-2.038-5.843a2,2,0,0,1,.058-1.52c.161-.238.921-.1,1.409-.077A4.74,4.74,0,0,1-214.467,372.046Zm-.237,1.991,1.117,3.145c.116-1.946.145-1.976,2.178-1.964l-.853-2.077C-212.693,374.6-213.726,374.137-214.7,374.036Z" transform="translate(-113.574 -12.421)" fill="#070606"/>
      <path id="Trazado_630204" data-name="Trazado 630204" d="M-377.048,546.635a9.678,9.678,0,0,0,1.185-.583c2.558-1.712,5.077-3.485,7.662-5.155,1.917-1.238,2.72-1.322,5.337-.931a90.546,90.546,0,0,0-14.175,9.306Q-377.044,547.953-377.048,546.635Z" transform="translate(-1.787 -133.643)" fill="#6a4ab1"/>
      <path id="Trazado_630205" data-name="Trazado 630205" d="M-100.057,414.13h-34.2v-8.091c1.938,0,3.847-.015,5.756.02a1.136,1.136,0,0,1,.679.443c.46.544.85,1.149,1.311,1.692a5.941,5.941,0,0,0,5.252,2.415c3.223-.213,6.472-.026,9.708-.079a3.315,3.315,0,0,0,1.755-.551,12.623,12.623,0,0,0,0-20.538,3.3,3.3,0,0,0-1.755-.549c-3.576-.05-7.153.017-10.728-.05a3.49,3.49,0,0,0-2.754,1,38.184,38.184,0,0,0-2.572,2.825,1.493,1.493,0,0,1-1.347.74c-1.73-.051-3.462-.018-5.279-.018V354.615h34.175Zm-17.087-55.985c-1.88,0-3.762-.039-5.64.024a3.254,3.254,0,0,0-1.655.51,12.636,12.636,0,0,0,.044,20.657,2.964,2.964,0,0,0,1.553.48q5.7.06,11.393,0a2.964,2.964,0,0,0,1.553-.48,12.638,12.638,0,0,0,.048-20.659,3.235,3.235,0,0,0-1.656-.509C-113.383,358.106-115.264,358.145-117.144,358.145Z" transform="translate(-171.309 -4.372)" fill="#fdc581"/>
      <path id="Trazado_630206" data-name="Trazado 630206" d="M-111.7,489.011c1.742-2.465,1.18-4.128-1.662-5.115v-1.528c2.836-.979,3.4-2.637,1.6-5.212.9-.883,1.8-1.825,2.765-2.689a1.823,1.823,0,0,1,1.122-.352c3.534-.026,7.067-.035,10.6.008a2.513,2.513,0,0,1,1.414.509,10.8,10.8,0,0,1-.009,17.006,2.7,2.7,0,0,1-1.525.509c-3.157.046-6.318-.058-9.472.06a3.889,3.889,0,0,1-3.346-1.421C-110.721,490.193-111.215,489.587-111.7,489.011Zm11.843-9.54a2.708,2.708,0,0,0-2.775-2.659,2.741,2.741,0,0,0-2.638,2.7,2.749,2.749,0,0,0,2.735,2.719A2.709,2.709,0,0,0-99.853,479.471Zm-2.71,9.986a2.706,2.706,0,0,0,2.71-2.726,2.712,2.712,0,0,0-2.631-2.693,2.741,2.741,0,0,0-2.782,2.668A2.749,2.749,0,0,0-102.563,489.457Z" transform="translate(-185.9 -87.794)" fill="#fca34e"/>
      <path id="Trazado_630207" data-name="Trazado 630207" d="M-152.884,474.41V492.3H-158.2V474.41Z" transform="translate(-154.59 -88.015)" fill="#513799"/>
      <path id="Trazado_630208" data-name="Trazado 630208" d="M-177.383,480.147v14.229a5.169,5.169,0,0,1-5.469-1.8c4.9-2.069,5.047-8.408-.061-10.568C-181.466,480.33-179.6,479.927-177.383,480.147Z" transform="translate(-137.336 -91.983)" fill="#6a4ab1"/>
      <path id="Trazado_630209" data-name="Trazado 630209" d="M-213.128,522.194h5.181a2.728,2.728,0,0,1-.978,3.021,2.483,2.483,0,0,1-2.855.2A2.87,2.87,0,0,1-213.128,522.194Z" transform="translate(-116.206 -121.379)" fill="#f4aed1"/>
      <path id="Trazado_630210" data-name="Trazado 630210" d="M-134.3,490.881V489.1c2.092,0,4.146-.039,6.195.039.33.013.641.546.96.838-.309.3-.609.856-.929.868C-130.121,490.92-132.177,490.881-134.3,490.881Z" transform="translate(-171.281 -98.262)" fill="#fefefe"/>
      <path id="Trazado_630211" data-name="Trazado 630211" d="M-134.3,514.836v-1.787c2.09,0,4.143-.039,6.192.039.332.013.644.543.965.834-.345.3-.68.858-1.037.873C-130.2,514.88-132.215,514.836-134.3,514.836Z" transform="translate(-171.277 -114.986)" fill="#fefefe"/>
      <path id="Trazado_630212" data-name="Trazado 630212" d="M-244.154,521.944v3.593c-1.059-.129-2.477.572-3.387-.746a2.159,2.159,0,0,1-.137-1.848C-246.883,521.364-245.321,522.143-244.154,521.944Z" transform="translate(-92.014 -121.189)" fill="#db5f9d"/>
      <path id="Trazado_630213" data-name="Trazado 630213" d="M-227.1,522l.791,3.609c-.672,0-1.413.034-2.15-.008a1.8,1.8,0,0,1-1.791-1.8,1.806,1.806,0,0,1,1.8-1.795C-227.977,521.977-227.495,522-227.1,522Z" transform="translate(-104.282 -121.238)" fill="#e784b4"/>
      <path id="Trazado_630214" data-name="Trazado 630214" d="M-129.847,501.236v1.716c-.252.014-.468.035-.685.035-1.229,0-2.459,0-3.743,0v-1.753Z" transform="translate(-171.296 -106.746)" fill="#fdc481"/>
      <path id="Trazado_630215" data-name="Trazado 630215" d="M-232.914,483.3h-2.024l.354-1.167Z" transform="translate(-101.011 -93.41)" fill="#cf5a94"/>
      <path id="Trazado_630216" data-name="Trazado 630216" d="M-245.058,395.3c-1.65.494-1.65.494-1.29,2.468l-2.387-2.01c1.069-.28,2.051-.507,1.665-1.979Z" transform="translate(-91.378 -31.716)" fill="#f19c4b"/>
      <path id="Trazado_630217" data-name="Trazado 630217" d="M-172.42,398.816l1.043-2.708,2.45.927-.616,1.876C-170.81,397.507-170.81,397.507-172.42,398.816Z" transform="translate(-144.662 -33.343)" fill="#f19c4b"/>
      <path id="Trazado_630218" data-name="Trazado 630218" d="M-209.518,390.226c.978.1,2.01.568,2.441-.9l.853,2.077c-2.033-.011-2.062.019-2.178,1.964Z" transform="translate(-118.76 -28.61)" fill="#f19c4b"/>
      <path id="Trazado_630219" data-name="Trazado 630219" d="M-106.77,366.285c1.88,0,3.761-.039,5.639.024a3.236,3.236,0,0,1,1.656.509,12.638,12.638,0,0,1-.048,20.659,2.965,2.965,0,0,1-1.553.48q-5.7.06-11.393,0a2.965,2.965,0,0,1-1.553-.48,12.636,12.636,0,0,1-.044-20.657,3.254,3.254,0,0,1,1.655-.51C-110.532,366.246-108.65,366.285-106.77,366.285Zm-.13,19.879c1.767,0,3.535.046,5.3-.027a2.909,2.909,0,0,0,1.608-.585,10.766,10.766,0,0,0-.015-16.857,2.825,2.825,0,0,0-1.614-.57q-5.13-.076-10.262,0a3,3,0,0,0-1.707.62,10.821,10.821,0,0,0-.182,16.668,2.9,2.9,0,0,0,2.136.767C-110.06,386.119-108.479,386.163-106.9,386.163Z" transform="translate(-181.683 -12.511)" fill="#070606"/>
      <path id="Trazado_630220" data-name="Trazado 630220" d="M-81.131,485.757a2.709,2.709,0,0,1-2.678,2.758,2.749,2.749,0,0,1-2.735-2.719,2.741,2.741,0,0,1,2.638-2.7A2.708,2.708,0,0,1-81.131,485.757Zm-2.74,1.086c.356-.448.75-.731.77-1.038.016-.242-.428-.515-.667-.774-.271.257-.687.477-.764.783C-84.589,486.036-84.194,486.37-83.871,486.844Z" transform="translate(-204.622 -94.081)" fill="#070606"/>
      <path id="Trazado_630221" data-name="Trazado 630221" d="M-83.842,512.463a2.749,2.749,0,0,1-2.7-2.75,2.741,2.741,0,0,1,2.782-2.668,2.712,2.712,0,0,1,2.631,2.693A2.706,2.706,0,0,1-83.842,512.463Zm1.1-2.641c-.5-.385-.784-.767-1.1-.793-.227-.019-.676.423-.691.679a.972.972,0,0,0,.606.758C-83.614,510.483-83.284,510.14-82.742,509.823Z" transform="translate(-204.622 -110.8)" fill="#070606"/>
      <path id="Trazado_630222" data-name="Trazado 630222" d="M-102.74,390.355c-1.579,0-3.16-.045-4.736.018a2.9,2.9,0,0,1-2.136-.767,10.821,10.821,0,0,1,.182-16.668,3,3,0,0,1,1.707-.62q5.13-.086,10.262,0a2.825,2.825,0,0,1,1.614.57,10.766,10.766,0,0,1,.015,16.857,2.909,2.909,0,0,1-1.608.585C-99.2,390.4-100.973,390.355-102.74,390.355Zm.092-9.94a2.708,2.708,0,0,0,2.737-2.7,2.71,2.71,0,0,0-2.6-2.719,2.744,2.744,0,0,0-2.81,2.641A2.752,2.752,0,0,0-102.647,380.415Zm.071,7.229a2.709,2.709,0,0,0,2.666-2.77,2.71,2.71,0,0,0-2.675-2.648,2.739,2.739,0,0,0-2.739,2.711A2.749,2.749,0,0,0-102.576,387.645Z" transform="translate(-185.843 -16.703)" fill="#fca34e"/>
      <path id="Trazado_630223" data-name="Trazado 630223" d="M-79.228,491.319c-.323-.473-.717-.808-.662-1.029.077-.306.493-.526.764-.783.24.259.684.532.667.774C-78.478,490.588-78.872,490.87-79.228,491.319Z" transform="translate(-209.266 -98.556)" fill="#fefefe"/>
      <path id="Trazado_630224" data-name="Trazado 630224" d="M-78.083,514.416c-.542.318-.872.661-1.184.644a.972.972,0,0,1-.606-.758c.015-.257.464-.7.691-.679C-78.867,513.65-78.583,514.031-78.083,514.416Z" transform="translate(-209.28 -115.395)" fill="#fefefe"/>
      <path id="Trazado_630225" data-name="Trazado 630225" d="M-83.87,386.708a2.752,2.752,0,0,1-2.676-2.777,2.744,2.744,0,0,1,2.81-2.641,2.71,2.71,0,0,1,2.6,2.719A2.707,2.707,0,0,1-83.87,386.708Zm1.127-2.656c-.5-.376-.791-.753-1.108-.777-.225-.017-.67.432-.681.689s.384.744.614.752C-83.606,384.727-83.281,384.379-82.744,384.052Z" transform="translate(-204.62 -22.996)" fill="#070606"/>
      <path id="Trazado_630226" data-name="Trazado 630226" d="M-83.8,410.665a2.749,2.749,0,0,1-2.748-2.707,2.739,2.739,0,0,1,2.739-2.711,2.71,2.71,0,0,1,2.675,2.648A2.709,2.709,0,0,1-83.8,410.665Zm1.056-2.705c-.521-.356-.827-.72-1.142-.729-.226-.006-.646.464-.647.722s.417.725.646.722C-83.571,408.671-83.262,408.31-82.742,407.96Z" transform="translate(-204.622 -39.724)" fill="#070606"/>
      <path id="Trazado_630227" data-name="Trazado 630227" d="M-78.083,388.646c-.537.326-.862.675-1.175.664-.23-.008-.626-.494-.614-.752s.456-.706.681-.689C-78.874,387.893-78.584,388.27-78.083,388.646Z" transform="translate(-209.281 -27.59)" fill="#fefefe"/>
      <path id="Trazado_630228" data-name="Trazado 630228" d="M-78.08,412.552c-.521.349-.829.711-1.143.716-.229,0-.647-.465-.646-.722s.421-.728.647-.722C-78.907,411.832-78.6,412.2-78.08,412.552Z" transform="translate(-209.283 -44.316)" fill="#fefefe"/>
    </g>
  </g>
</svg>
