<svg xmlns="http://www.w3.org/2000/svg" width="149" height="149" viewBox="0 0 149 149">
  <g id="Grupo_906776" data-name="Grupo 906776" transform="translate(-380 -7868.471)">
    <circle id="Elipse_6508" data-name="Elipse 6508" cx="74.5" cy="74.5" r="74.5" transform="translate(380 7868.471)" fill="#0b5999"/>
    <g id="Grupo_901827" data-name="Grupo 901827" transform="translate(627.375 7699.042)">
      <path id="Trazado_630178" data-name="Trazado 630178" d="M-194.786,294.758h-1.179a2.856,2.856,0,0,1-1.318-3.253c.145-.835.164-1.692.235-2.54.537-6.419,1.074-12.839,1.618-19.35h-1.1c-2.946,0-5.892.008-8.837,0-1.861-.007-2.744-1.152-2.3-2.97.587-2.378,1.191-4.752,1.785-7.129q.837-3.35,1.665-6.693c-7.634-1-13.31-4.711-16.47-11.691-3.153-6.964-2.206-13.678,2.007-19.967a3.17,3.17,0,0,0-.222-.261,10.094,10.094,0,0,1-3.278-10.3,10.249,10.249,0,0,1,7.656-7.771,1.327,1.327,0,0,0,.72-.816,10.537,10.537,0,0,1,10.1-7.83,10.428,10.428,0,0,1,10.158,7.716c.335,1.179.356,1.185,1.238.348a29.263,29.263,0,0,1,46.308,8.1c.436.869.61,2.124,1.3,2.541.75.452,1.965.14,2.977.149a19.893,19.893,0,0,1,19.252,15.369c.169.708.361,1.41.543,2.115v4.911a3.074,3.074,0,0,0-.229.585,19.688,19.688,0,0,1-6.213,11.508,1.334,1.334,0,0,0-.436,1.658,12.425,12.425,0,0,1-10.64,16.13c-1.784.174-3.594.117-5.391.112-.554,0-.845.15-.959.7-.09.431-.255.847-.42,1.376.452,0,.775-.014,1.1,0a2.1,2.1,0,0,1,1.8,3.389c-2.712,4.122-5.46,8.219-8.2,12.322a2.027,2.027,0,0,1-2.353.975,2.065,2.065,0,0,1-1.575-2.105c-.035-1.013-.01-2.029-.01-3.043,0-1.723,0-3.446,0-5.255-.731,0-1.346.016-1.96,0a2.081,2.081,0,0,1-1.985-3.053c.168-.424.367-.837.545-1.257.554-1.307,1.1-2.616,1.7-4.034-2.975,0-5.786.02-8.6,0a12.607,12.607,0,0,1-12.449-9.951c-.188-.848-.25-1.724-.374-2.616h-9.108l-.55,2.06c2.425,0,4.712,0,7,0,2.391,0,3.257,1.288,2.347,3.5q-7.093,17.242-14.182,34.487A2.979,2.979,0,0,1-194.786,294.758Zm-23.477-81.924A6.088,6.088,0,0,0-215.746,218c.275-.211.509-.385.737-.566a17.513,17.513,0,0,1,7.865-3.8c2.236-.391,4.539-.394,6.807-.611a1.286,1.286,0,0,0,.91-.464c1.063-1.977,2.063-3.987,3.116-6.051a3.073,3.073,0,0,1-1.1-2.43,12.069,12.069,0,0,0-.908-2.628,7.26,7.26,0,0,0-.572-.895,6.235,6.235,0,0,0-6.762-1.839,6.311,6.311,0,0,0-4.25,5.683,2.146,2.146,0,0,1-2.288,2.359A6.187,6.187,0,0,0-218.263,212.834Zm73.561,48.331c1.57,0,3.144.075,4.709-.01a8.347,8.347,0,0,0,7.555-8.9,8.222,8.222,0,0,0-7.32-7.627,3.136,3.136,0,0,1-2.553-1.827,12.291,12.291,0,0,0-2.051-2.849,11.951,11.951,0,0,0-11.353-3.55,11.639,11.639,0,0,0-8.572,6.193,3.551,3.551,0,0,1-2.918,2.071,7.859,7.859,0,0,0-5.951,4.031,8.3,8.3,0,0,0,6.881,12.48c4.608.115,9.22.039,13.83.035C-149.865,261.208-147.284,261.181-144.7,261.165Zm-37.109-60.852a24.792,24.792,0,0,0-14.121,14.916c-.606,1.647-1.046,1.971-2.8,1.992-1.7.02-3.408-.025-5.1.124a15.662,15.662,0,0,0-13.913,12.9,15.739,15.739,0,0,0,8.9,16.961,14.42,14.42,0,0,0,5.687,1.389l.9-3.614c-5.429-2.756-8.041-5.842-7.524-8.855h4c.349,2.094,1.81,3.227,3.474,4.156a16.846,16.846,0,0,0,6.733,1.944,19.779,19.779,0,0,0,11.788-2.072c1.607-.9,2.954-2.053,3.249-4.03h4.125a7.65,7.65,0,0,1-2.138,5.154,15.406,15.406,0,0,1-6.342,3.953c-.28.1-.655.287-.739.522-.324.908-.547,1.851-.834,2.875,2.855,0,5.566.016,8.277-.029.233,0,.551-.373.675-.644a12.559,12.559,0,0,1,6.218-6.4c1.08-.505,2.42-.588,3.336-1.273s1.391-1.96,2.193-2.855a16.754,16.754,0,0,1,26.585,2.3,2.212,2.212,0,0,0,.861.824c1.648.76,3.325,1.46,4.991,2.182l2.019,1.826c.14-.119.245-.2.335-.287,4.167-4.2,5.76-9.225,4.37-14.98a14.714,14.714,0,0,0-11.174-11.435c-2.481-.641-5.176-.495-7.778-.613-1.9-.087-2.3-.3-2.937-2.074a25.846,25.846,0,0,0-4.5-7.864C-159.928,198.976-172.255,195.984-181.811,200.312ZM-198.254,246.3l-4.782,19.146c3.264,0,6.37-.007,9.475,0,1.829.006,2.624.864,2.479,2.7-.243,3.065-.513,6.127-.774,9.19-.031.368-.083.735-.125,1.1l.3.06,7.965-19.34c-2.34,0-4.528,0-6.717,0-2.243-.007-3.072-1.123-2.458-3.289.882-3.106,1.762-6.212,2.628-9.265ZM-150,265.455c-.773,0-1.425-.036-2.069.019a.919.919,0,0,0-.66.407c-.555,1.2-1.053,2.425-1.582,3.669,2.639.205,3.077.687,3.077,3.292q0,1.015,0,2.029l.242.017,2-3.01c-2.332-.906-2.611-1.529-1.816-3.947C-150.557,267.16-150.307,266.389-150,265.455Z" transform="translate(0)" fill="#2b2b2b"/>
      <path id="Trazado_630179" data-name="Trazado 630179" d="M-120.4,259.958c-1.666-.721-3.342-1.421-4.991-2.182a2.212,2.212,0,0,1-.861-.824,16.754,16.754,0,0,0-26.585-2.3c-.8.895-1.269,2.164-2.193,2.855s-2.256.767-3.336,1.273a12.559,12.559,0,0,0-6.218,6.4c-.123.27-.442.64-.675.644-2.71.045-5.421.029-8.277.029.287-1.025.511-1.968.834-2.875.084-.235.459-.418.739-.522a15.406,15.406,0,0,0,6.342-3.953,7.65,7.65,0,0,0,2.138-5.154h-4.125c-.3,1.977-1.642,3.135-3.249,4.03a19.779,19.779,0,0,1-11.788,2.072,16.846,16.846,0,0,1-6.733-1.944c-1.664-.929-3.125-2.063-3.474-4.156h-4c-.517,3.013,2.1,6.1,7.524,8.855l-.9,3.614a14.421,14.421,0,0,1-5.687-1.389,15.739,15.739,0,0,1-8.9-16.961,15.662,15.662,0,0,1,13.913-12.9c1.69-.15,3.4-.1,5.1-.124,1.753-.021,2.193-.345,2.8-1.992a24.792,24.792,0,0,1,14.121-14.916,7.463,7.463,0,0,0,.751.152,48.749,48.749,0,0,1,6.2.649c9.722,2.274,16.4,8.117,19.915,17.492.238.634.618.707,1.189.731a45.928,45.928,0,0,1,7.206.441,17.031,17.031,0,0,1,12.669,10.347A17.7,17.7,0,0,1-120.4,259.958Z" transform="translate(-12.925 -17.231)" fill="#e0e3ec"/>
      <path id="Trazado_630180" data-name="Trazado 630180" d="M-9.042,379.857c-2.581.016-5.162.043-7.743.045-4.61,0-9.222.08-13.83-.035a8.3,8.3,0,0,1-6.881-12.48,7.859,7.859,0,0,1,5.951-4.031,3.551,3.551,0,0,0,2.918-2.071,11.639,11.639,0,0,1,8.572-6.193,14.525,14.525,0,0,1,4.336,4.584,3.058,3.058,0,0,0,2.425,1.73c5.969,1.065,9.752,8.021,7.571,13.675A14.26,14.26,0,0,1-9.042,379.857Z" transform="translate(-135.661 -118.692)" fill="#aeb3c7"/>
      <path id="Trazado_630181" data-name="Trazado 630181" d="M-18.781,254.408a17.7,17.7,0,0,0-.552-12.6A17.031,17.031,0,0,0-32,231.459a45.928,45.928,0,0,0-7.206-.441c-.571-.025-.951-.1-1.189-.731-3.519-9.375-10.193-15.218-19.915-17.492a48.747,48.747,0,0,0-6.2-.649,7.463,7.463,0,0,1-.751-.152c9.557-4.328,21.884-1.336,28.823,6.987a25.846,25.846,0,0,1,4.5,7.864c.639,1.774,1.033,1.987,2.937,2.074,2.6.118,5.3-.029,7.778.613a14.714,14.714,0,0,1,11.174,11.435c1.39,5.755-.2,10.778-4.37,14.98-.09.091-.2.168-.335.287Z" transform="translate(-114.543 -11.681)" fill="#fdfdfd"/>
      <path id="Trazado_630182" data-name="Trazado 630182" d="M-143.385,392.811l7.99.305c-.866,3.053-1.746,6.159-2.628,9.265-.615,2.166.214,3.282,2.458,3.289,2.188.007,4.377,0,6.717,0l-7.965,19.34-.3-.06c.042-.367.093-.734.125-1.1.261-3.063.531-6.125.774-9.19.146-1.836-.649-2.694-2.479-2.7-3.106-.01-6.211,0-9.475,0Z" transform="translate(-54.869 -146.515)" fill="#fcc86a"/>
      <path id="Trazado_630183" data-name="Trazado 630183" d="M43.213,379.1a14.26,14.26,0,0,0,3.32-4.776c2.18-5.654-1.6-12.61-7.571-13.675a3.058,3.058,0,0,1-2.425-1.73,14.524,14.524,0,0,0-4.336-4.584,11.951,11.951,0,0,1,11.353,3.55,12.291,12.291,0,0,1,2.051,2.849,3.136,3.136,0,0,0,2.552,1.827,8.222,8.222,0,0,1,7.32,7.627,8.347,8.347,0,0,1-7.555,8.9C46.356,379.175,44.783,379.1,43.213,379.1Z" transform="translate(-187.915 -117.935)" fill="#e0e3ec"/>
      <path id="Trazado_630184" data-name="Trazado 630184" d="M-186.262,221.882a12.069,12.069,0,0,1,.908,2.628,3.073,3.073,0,0,0,1.1,2.43c-1.052,2.064-2.053,4.074-3.116,6.051a1.286,1.286,0,0,1-.91.464c-2.269.217-4.572.22-6.807.611a17.513,17.513,0,0,0-7.865,3.8c-.227.181-.461.355-.737.566a6.088,6.088,0,0,1-2.518-5.164,4.046,4.046,0,0,0,.769-.36,17.181,17.181,0,0,1,10.87-3.562c1.178.019,2.357-.02,3.534.012a.987.987,0,0,0,1.074-.759,38.684,38.684,0,0,1,1.795-4.026A25.5,25.5,0,0,1-186.262,221.882Z" transform="translate(-12.055 -20.431)" fill="#98a0af"/>
      <path id="Trazado_630185" data-name="Trazado 630185" d="M-186.259,213.244a25.5,25.5,0,0,0-1.9,2.688,38.684,38.684,0,0,0-1.795,4.026.987.987,0,0,1-1.074.759c-1.177-.033-2.356.007-3.534-.012a17.181,17.181,0,0,0-10.87,3.562,4.047,4.047,0,0,1-.769.36,6.187,6.187,0,0,1,6.074-6.075,2.146,2.146,0,0,0,2.287-2.359,6.311,6.311,0,0,1,4.25-5.683,6.235,6.235,0,0,1,6.762,1.839A7.262,7.262,0,0,1-186.259,213.244Z" transform="translate(-12.057 -11.794)" fill="#adb2c6"/>
      <path id="Trazado_630186" data-name="Trazado 630186" d="M41.855,465.806c-.3.934-.554,1.705-.808,2.476-.795,2.418-.515,3.04,1.816,3.947l-2,3.01-.242-.017q0-1.015,0-2.029c0-2.6-.438-3.086-3.077-3.292.529-1.244,1.027-2.47,1.582-3.669a.919.919,0,0,1,.66-.407C40.429,465.77,41.081,465.806,41.855,465.806Z" transform="translate(-191.857 -200.351)" fill="#f8c469"/>
      <path id="Trazado_630187" data-name="Trazado 630187" d="M-58.4,486.169c-.82,0-1.5.031-2.184-.006a2,2,0,0,1-1.876-2.756c1.171-2.905,2.43-5.775,3.689-8.644a2.015,2.015,0,0,1,2.009-1.155c2.193-.009,4.387-.035,6.579.008a2.1,2.1,0,0,1,2.056,2.968c-.33,1.056-.686,2.1-1.08,3.311.475,0,.852-.023,1.225,0a2.084,2.084,0,0,1,1.743,3.31c-2.743,4.182-5.533,8.334-8.324,12.484a1.991,1.991,0,0,1-2.393.862,2.03,2.03,0,0,1-1.436-2.1c-.018-2.357-.007-4.714-.007-7.071C-58.4,487.03-58.4,486.675-58.4,486.169Zm6.446-1.918c-2.265-.771-2.617-1.506-1.888-3.723.282-.858.557-1.718.875-2.7-.811,0-1.493-.022-2.171.014a.714.714,0,0,0-.53.3c-.561,1.238-1.084,2.495-1.639,3.8.264.03.392.054.521.059,1.889.071,2.555.764,2.559,2.669,0,.894,0,1.787,0,2.681l.183.033Z" transform="translate(-117.977 -206.103)" fill="#2b2b2b"/>
      <path id="Trazado_630188" data-name="Trazado 630188" d="M-37.028,496.149l-2.09,3.133-.183-.033c0-.894,0-1.787,0-2.681,0-1.9-.671-2.6-2.559-2.669-.129,0-.256-.028-.521-.059.556-1.3,1.078-2.558,1.639-3.8a.714.714,0,0,1,.53-.3c.678-.036,1.359-.014,2.171-.014-.317.98-.592,1.84-.875,2.7C-39.645,494.643-39.293,495.379-37.028,496.149Z" transform="translate(-132.9 -218.001)" fill="#f8c469"/>
    </g>
  </g>
</svg>
